<?xml version="1.0" encoding="us-ascii" standalone="no"?><svg xmlns="http://www.w3.org/2000/svg" xmlns:xlink="http://www.w3.org/1999/xlink" contentStyleType="text/css" height="648.8px" preserveAspectRatio="none" style="width:816px;height:648px;background:#FFFFFF;" version="1.1" viewBox="0 0 816 648" width="816.8px" zoomAndPan="magnify"><defs/><g><!--cluster ecourse--><g id="cluster_ecourse"><rect fill="none" height="638.696" rx="2" ry="2" style="stroke:#000000;stroke-width:1.2000000000000002;" width="760" x="27.2" y="5.6"/><text fill="#000000" font-family="FG Virgil" font-size="11.2" font-weight="bold" lengthAdjust="spacing" textLength="44" x="385.2" y="18.0281">ecourse</text></g><!--class ShareBoardUI--><g id="elem_ShareBoardUI"><rect codeLine="7" fill="#F1F1F1" height="58.4875" id="ShareBoardUI" rx="2" ry="2" style="stroke:#181818;stroke-width:0.4000000000000001;" width="100" x="250" y="33.6"/><ellipse cx="262" cy="49.8484" fill="#ADD1B2" rx="8.8" ry="8.8" style="stroke:#181818;stroke-width:0.8000000000000002;"/><path d="M264.3785,54.3629 Q263.9137,54.602 263.4023,54.7215 Q262.891,54.841 262.3266,54.841 Q260.3211,54.841 259.2652,53.5195 Q258.2094,52.198 258.2094,49.7012 Q258.2094,47.1977 259.2652,45.8762 Q260.3211,44.5547 262.3266,44.5547 Q262.891,44.5547 263.409,44.6742 Q263.927,44.7938 264.3785,45.0328 L264.3785,47.2109 Q263.8738,46.7461 263.399,46.5303 Q262.9242,46.3145 262.4195,46.3145 Q261.3438,46.3145 260.7959,47.1678 Q260.248,48.0211 260.248,49.7012 Q260.248,51.3746 260.7959,52.2279 Q261.3438,53.0813 262.4195,53.0813 Q262.9242,53.0813 263.399,52.8654 Q263.8738,52.6496 264.3785,52.1848 Z " fill="#000000"/><text fill="#000000" font-family="FG Virgil" font-size="9.6" font-style="italic" lengthAdjust="spacing" textLength="67.2" x="276.8" y="46.8813">&#171;presentation&#187;</text><text fill="#000000" font-family="FG Virgil" font-size="11.2" lengthAdjust="spacing" textLength="74.4" x="273.2" y="59.7344">ShareBoardUI</text><line style="stroke:#181818;stroke-width:0.4000000000000001;" x1="250.8" x2="349.2" y1="66.0969" y2="66.0969"/><line style="stroke:#181818;stroke-width:0.4000000000000001;" x1="250.8" x2="349.2" y1="72.4969" y2="72.4969"/><text fill="#000000" font-family="FG Virgil" font-size="11.2" lengthAdjust="spacing" textLength="52" x="254.8" y="86.525">doShow()</text></g><!--class SelectBoardWidget--><g id="elem_SelectBoardWidget"><rect codeLine="10" fill="#F1F1F1" height="58.4875" id="SelectBoardWidget" rx="2" ry="2" style="stroke:#181818;stroke-width:0.4000000000000001;" width="127.2" x="101.2" y="173.472"/><ellipse cx="113.2" cy="189.7204" fill="#ADD1B2" rx="8.8" ry="8.8" style="stroke:#181818;stroke-width:0.8000000000000002;"/><path d="M115.5785,194.2349 Q115.1137,194.474 114.6023,194.5935 Q114.091,194.713 113.5266,194.713 Q111.5211,194.713 110.4652,193.3915 Q109.4094,192.07 109.4094,189.5732 Q109.4094,187.0697 110.4652,185.7482 Q111.5211,184.4267 113.5266,184.4267 Q114.091,184.4267 114.609,184.5462 Q115.127,184.6658 115.5785,184.9048 L115.5785,187.0829 Q115.0738,186.6181 114.599,186.4023 Q114.1242,186.1865 113.6195,186.1865 Q112.5438,186.1865 111.9959,187.0398 Q111.448,187.8931 111.448,189.5732 Q111.448,191.2466 111.9959,192.0999 Q112.5438,192.9533 113.6195,192.9533 Q114.1242,192.9533 114.599,192.7374 Q115.0738,192.5216 115.5785,192.0568 Z " fill="#000000"/><text fill="#000000" font-family="FG Virgil" font-size="9.6" font-style="italic" lengthAdjust="spacing" textLength="67.2" x="141.6" y="186.7533">&#171;presentation&#187;</text><text fill="#000000" font-family="FG Virgil" font-size="11.2" lengthAdjust="spacing" textLength="101.6" x="124.4" y="199.6064">SelectBoardWidget</text><line style="stroke:#181818;stroke-width:0.4000000000000001;" x1="102" x2="227.6" y1="205.9689" y2="205.9689"/><line style="stroke:#181818;stroke-width:0.4000000000000001;" x1="102" x2="227.6" y1="212.3689" y2="212.3689"/><text fill="#000000" font-family="FG Virgil" font-size="11.2" lengthAdjust="spacing" textLength="71.2" x="106" y="226.397">selectBoard()</text></g><!--class ShareBoardController--><g id="elem_ShareBoardController"><rect codeLine="15" fill="#F1F1F1" height="98.0594" id="ShareBoardController" rx="2" ry="2" style="stroke:#181818;stroke-width:0.4000000000000001;" width="232.8" x="318.8" y="153.688"/><ellipse cx="372.2" cy="169.9364" fill="#ADD1B2" rx="8.8" ry="8.8" style="stroke:#181818;stroke-width:0.8000000000000002;"/><path d="M374.5785,174.4509 Q374.1137,174.69 373.6023,174.8095 Q373.091,174.929 372.5266,174.929 Q370.5211,174.929 369.4652,173.6075 Q368.4094,172.286 368.4094,169.7892 Q368.4094,167.2857 369.4652,165.9642 Q370.5211,164.6427 372.5266,164.6427 Q373.091,164.6427 373.609,164.7622 Q374.127,164.8818 374.5785,165.1208 L374.5785,167.2989 Q374.0738,166.8341 373.599,166.6183 Q373.1242,166.4025 372.6195,166.4025 Q371.5438,166.4025 370.9959,167.2558 Q370.448,168.1091 370.448,169.7892 Q370.448,171.4626 370.9959,172.3159 Q371.5438,173.1693 372.6195,173.1693 Q373.1242,173.1693 373.599,172.9534 Q374.0738,172.7376 374.5785,172.2728 Z " fill="#000000"/><text fill="#000000" font-family="FG Virgil" font-size="9.6" font-style="italic" lengthAdjust="spacing" textLength="60" x="418.2" y="166.9693">&#171;application&#187;</text><text fill="#000000" font-family="FG Virgil" font-size="11.2" lengthAdjust="spacing" textLength="119.2" x="388.6" y="179.8224">ShareBoardController</text><line style="stroke:#181818;stroke-width:0.4000000000000001;" x1="319.6" x2="550.8" y1="186.1849" y2="186.1849"/><line style="stroke:#181818;stroke-width:0.4000000000000001;" x1="319.6" x2="550.8" y1="192.5849" y2="192.5849"/><text fill="#000000" font-family="FG Virgil" font-size="11.2" lengthAdjust="spacing" textLength="205.6" x="323.6" y="206.613">findBoardsByOwner(SystemUser user)</text><text fill="#000000" font-family="FG Virgil" font-size="11.2" lengthAdjust="spacing" textLength="50.4" x="323.6" y="219.8036">getUser()</text><text fill="#000000" font-family="FG Virgil" font-size="11.2" lengthAdjust="spacing" textLength="223.2" x="323.6" y="232.9943">shareBoard(Board, SystemUser, boolean)</text><text fill="#000000" font-family="FG Virgil" font-size="11.2" lengthAdjust="spacing" textLength="219.2" x="323.6" y="246.1849">addPermission(Board, BoardPermission)</text></g><!--class BoardPermission--><g id="elem_BoardPermission"><rect codeLine="21" fill="#F1F1F1" height="58.4875" id="BoardPermission" rx="2" ry="2" style="stroke:#181818;stroke-width:0.4000000000000001;" width="243.2" x="69.6" y="446.624"/><ellipse cx="141.8" cy="462.8724" fill="#ADD1B2" rx="8.8" ry="8.8" style="stroke:#181818;stroke-width:0.8000000000000002;"/><path d="M144.1785,467.3869 Q143.7137,467.626 143.2023,467.7455 Q142.691,467.865 142.1266,467.865 Q140.1211,467.865 139.0652,466.5435 Q138.0094,465.222 138.0094,462.7252 Q138.0094,460.2217 139.0652,458.9002 Q140.1211,457.5787 142.1266,457.5787 Q142.691,457.5787 143.209,457.6982 Q143.727,457.8178 144.1785,458.0568 L144.1785,460.2349 Q143.6738,459.7701 143.199,459.5543 Q142.7242,459.3385 142.2195,459.3385 Q141.1438,459.3385 140.5959,460.1918 Q140.048,461.0451 140.048,462.7252 Q140.048,464.3986 140.5959,465.2519 Q141.1438,466.1053 142.2195,466.1053 Q142.7242,466.1053 143.199,465.8894 Q143.6738,465.6736 144.1785,465.2088 Z " fill="#000000"/><text fill="#000000" font-family="FG Virgil" font-size="9.6" font-style="italic" lengthAdjust="spacing" textLength="44" x="182.2" y="459.9053">&#171;domain&#187;</text><text fill="#000000" font-family="FG Virgil" font-size="11.2" lengthAdjust="spacing" textLength="92" x="158.2" y="472.7584">BoardPermission</text><line style="stroke:#181818;stroke-width:0.4000000000000001;" x1="70.4" x2="312" y1="479.1209" y2="479.1209"/><line style="stroke:#181818;stroke-width:0.4000000000000001;" x1="70.4" x2="312" y1="485.5209" y2="485.5209"/><text fill="#000000" font-family="FG Virgil" font-size="11.2" lengthAdjust="spacing" textLength="233.6" x="74.4" y="499.549">BoardPermission(SystemUser, AccessLevel)</text></g><!--class AccessLevel--><g id="elem_AccessLevel"><rect codeLine="24" fill="#F1F1F1" height="64.7813" id="AccessLevel" rx="2" ry="2" style="stroke:#181818;stroke-width:0.4000000000000001;" width="89.6" x="70.4" y="566.712"/><ellipse cx="82.4" cy="579.512" fill="#EB937F" rx="8.8" ry="8.8" style="stroke:#181818;stroke-width:0.8000000000000002;"/><path d="M85.6914,584.312 L79.5156,584.312 L79.5156,574.3975 L85.6914,574.3975 L85.6914,576.1241 L81.4746,576.1241 L81.4746,578.2624 L85.293,578.2624 L85.293,579.989 L81.4746,579.989 L81.4746,582.5854 L85.6914,582.5854 Z " fill="#000000"/><text fill="#000000" font-family="FG Virgil" font-size="11.2" lengthAdjust="spacing" textLength="64" x="93.6" y="583.7448">AccessLevel</text><line style="stroke:#181818;stroke-width:0.4000000000000001;" x1="71.2" x2="159.2" y1="592.312" y2="592.312"/><text fill="#000000" font-family="FG Virgil" font-size="11.2" lengthAdjust="spacing" textLength="29.6" x="75.2" y="606.3401">READ</text><text fill="#000000" font-family="FG Virgil" font-size="11.2" lengthAdjust="spacing" textLength="33.6" x="75.2" y="619.5308">WRITE</text><line style="stroke:#181818;stroke-width:0.4000000000000001;" x1="71.2" x2="159.2" y1="625.0933" y2="625.0933"/></g><!--class AuthorizationService--><g id="elem_AuthorizationService"><rect codeLine="30" fill="#F1F1F1" height="71.6781" id="AuthorizationService" rx="2" ry="2" style="stroke:#181818;stroke-width:0.4000000000000001;" width="240.8" x="314.8" y="313.352"/><ellipse cx="374.6" cy="329.6004" fill="#ADD1B2" rx="8.8" ry="8.8" style="stroke:#181818;stroke-width:0.8000000000000002;"/><path d="M376.9785,334.1149 Q376.5137,334.354 376.0023,334.4735 Q375.491,334.593 374.9266,334.593 Q372.9211,334.593 371.8652,333.2715 Q370.8094,331.95 370.8094,329.4532 Q370.8094,326.9497 371.8652,325.6282 Q372.9211,324.3067 374.9266,324.3067 Q375.491,324.3067 376.009,324.4262 Q376.527,324.5458 376.9785,324.7848 L376.9785,326.9629 Q376.4738,326.4981 375.999,326.2823 Q375.5242,326.0665 375.0195,326.0665 Q373.9438,326.0665 373.3959,326.9198 Q372.848,327.7731 372.848,329.4532 Q372.848,331.1266 373.3959,331.9799 Q373.9438,332.8333 375.0195,332.8333 Q375.5242,332.8333 375.999,332.6174 Q376.4738,332.4016 376.9785,331.9368 Z " fill="#000000"/><text fill="#000000" font-family="FG Virgil" font-size="9.6" font-style="italic" lengthAdjust="spacing" textLength="41.6" x="427.4" y="326.6333">&#171;service&#187;</text><text fill="#000000" font-family="FG Virgil" font-size="11.2" lengthAdjust="spacing" textLength="114.4" x="391" y="339.4864">AuthorizationService</text><line style="stroke:#181818;stroke-width:0.4000000000000001;" x1="315.6" x2="554.8" y1="345.8489" y2="345.8489"/><line style="stroke:#181818;stroke-width:0.4000000000000001;" x1="315.6" x2="554.8" y1="352.2489" y2="352.2489"/><text fill="#000000" font-family="FG Virgil" font-size="11.2" lengthAdjust="spacing" textLength="231.2" x="319.6" y="366.277">ensureAuthenticatedUserHasAnyOf(Role..)</text><text fill="#000000" font-family="FG Virgil" font-size="11.2" lengthAdjust="spacing" textLength="48.8" x="319.6" y="379.4676">session()</text></g><!--class UserSession--><g id="elem_UserSession"><rect codeLine="35" fill="#F1F1F1" height="51.5906" id="UserSession" rx="2" ry="2" style="stroke:#181818;stroke-width:0.4000000000000001;" width="117.6" x="421.2" y="450.072"/><ellipse cx="444.72" cy="462.872" fill="#ADD1B2" rx="8.8" ry="8.8" style="stroke:#181818;stroke-width:0.8000000000000002;"/><path d="M447.0985,467.3865 Q446.6337,467.6255 446.1223,467.745 Q445.611,467.8646 445.0466,467.8646 Q443.0411,467.8646 441.9852,466.5431 Q440.9294,465.2216 440.9294,462.7247 Q440.9294,460.2212 441.9852,458.8997 Q443.0411,457.5783 445.0466,457.5783 Q445.611,457.5783 446.129,457.6978 Q446.647,457.8173 447.0985,458.0564 L447.0985,460.2345 Q446.5938,459.7697 446.119,459.5538 Q445.6442,459.338 445.1395,459.338 Q444.0638,459.338 443.5159,460.1913 Q442.968,461.0447 442.968,462.7247 Q442.968,464.3982 443.5159,465.2515 Q444.0638,466.1048 445.1395,466.1048 Q445.6442,466.1048 446.119,465.889 Q446.5938,465.6732 447.0985,465.2083 Z " fill="#000000"/><text fill="#000000" font-family="FG Virgil" font-size="11.2" lengthAdjust="spacing" textLength="66.4" x="458.48" y="467.1048">UserSession</text><line style="stroke:#181818;stroke-width:0.4000000000000001;" x1="422" x2="538" y1="475.672" y2="475.672"/><line style="stroke:#181818;stroke-width:0.4000000000000001;" x1="422" x2="538" y1="482.072" y2="482.072"/><text fill="#000000" font-family="FG Virgil" font-size="11.2" lengthAdjust="spacing" textLength="108" x="426" y="496.1001">authenticatedUser()</text></g><!--class Board--><g id="elem_Board"><rect codeLine="39" fill="#F1F1F1" height="58.4875" id="Board" rx="2" ry="2" style="stroke:#181818;stroke-width:0.4000000000000001;" width="216.8" x="70" y="319.944"/><ellipse cx="154.6" cy="336.1924" fill="#ADD1B2" rx="8.8" ry="8.8" style="stroke:#181818;stroke-width:0.8000000000000002;"/><path d="M156.9785,340.7069 Q156.5137,340.946 156.0023,341.0655 Q155.491,341.185 154.9266,341.185 Q152.9211,341.185 151.8652,339.8635 Q150.8094,338.542 150.8094,336.0452 Q150.8094,333.5417 151.8652,332.2202 Q152.9211,330.8987 154.9266,330.8987 Q155.491,330.8987 156.009,331.0182 Q156.527,331.1378 156.9785,331.3768 L156.9785,333.5549 Q156.4738,333.0901 155.999,332.8743 Q155.5242,332.6585 155.0195,332.6585 Q153.9438,332.6585 153.3959,333.5118 Q152.848,334.3651 152.848,336.0452 Q152.848,337.7186 153.3959,338.5719 Q153.9438,339.4253 155.0195,339.4253 Q155.5242,339.4253 155.999,339.2094 Q156.4738,338.9936 156.9785,338.5288 Z " fill="#000000"/><text fill="#000000" font-family="FG Virgil" font-size="9.6" font-style="italic" lengthAdjust="spacing" textLength="44" x="169.4" y="333.2253">&#171;domain&#187;</text><text fill="#000000" font-family="FG Virgil" font-size="11.2" lengthAdjust="spacing" textLength="32" x="175.4" y="346.0784">Board</text><line style="stroke:#181818;stroke-width:0.4000000000000001;" x1="70.8" x2="286" y1="352.4409" y2="352.4409"/><line style="stroke:#181818;stroke-width:0.4000000000000001;" x1="70.8" x2="286" y1="358.8409" y2="358.8409"/><text fill="#000000" font-family="FG Virgil" font-size="11.2" lengthAdjust="spacing" textLength="207.2" x="74.8" y="372.869">Board(BoardTitle, int, int, SystemUser)</text></g><!--class BoardRepository--><g id="elem_BoardRepository"><rect codeLine="58" fill="#F1F1F1" height="58.4875" id="BoardRepository" rx="2" ry="2" style="stroke:#181818;stroke-width:0.4000000000000001;" width="215.2" x="422" y="569.864"/><ellipse cx="481" cy="586.1124" fill="#ADD1B2" rx="8.8" ry="8.8" style="stroke:#181818;stroke-width:0.8000000000000002;"/><path d="M483.3785,590.6269 Q482.9137,590.866 482.4023,590.9855 Q481.891,591.105 481.3266,591.105 Q479.3211,591.105 478.2652,589.7835 Q477.2094,588.462 477.2094,585.9652 Q477.2094,583.4617 478.2652,582.1402 Q479.3211,580.8187 481.3266,580.8187 Q481.891,580.8187 482.409,580.9382 Q482.927,581.0578 483.3785,581.2968 L483.3785,583.4749 Q482.8738,583.0101 482.399,582.7943 Q481.9242,582.5785 481.4195,582.5785 Q480.3438,582.5785 479.7959,583.4318 Q479.248,584.2851 479.248,585.9652 Q479.248,587.6386 479.7959,588.4919 Q480.3438,589.3453 481.4195,589.3453 Q481.9242,589.3453 482.399,589.1294 Q482.8738,588.9136 483.3785,588.4488 Z " fill="#000000"/><text fill="#000000" font-family="FG Virgil" font-size="9.6" font-style="italic" lengthAdjust="spacing" textLength="56" x="514.6" y="583.1453">&#171;repository&#187;</text><text fill="#000000" font-family="FG Virgil" font-size="11.2" lengthAdjust="spacing" textLength="90.4" x="497.4" y="595.9984">BoardRepository</text><line style="stroke:#181818;stroke-width:0.4000000000000001;" x1="422.8" x2="636.4" y1="602.3609" y2="602.3609"/><line style="stroke:#181818;stroke-width:0.4000000000000001;" x1="422.8" x2="636.4" y1="608.7609" y2="608.7609"/><text fill="#000000" font-family="FG Virgil" font-size="11.2" lengthAdjust="spacing" textLength="205.6" x="426.8" y="622.789">findBoardsByOwner(SystemUser user)</text></g><!--class PersistenceContext--><g id="elem_PersistenceContext"><rect codeLine="47" fill="#F1F1F1" height="58.4875" id="PersistenceContext" rx="2" ry="2" style="stroke:#181818;stroke-width:0.4000000000000001;" width="131.2" x="584" y="319.944"/><ellipse cx="596" cy="336.1924" fill="#ADD1B2" rx="8.8" ry="8.8" style="stroke:#181818;stroke-width:0.8000000000000002;"/><path d="M598.3785,340.7069 Q597.9137,340.946 597.4023,341.0655 Q596.891,341.185 596.3266,341.185 Q594.3211,341.185 593.2652,339.8635 Q592.2094,338.542 592.2094,336.0452 Q592.2094,333.5417 593.2652,332.2202 Q594.3211,330.8987 596.3266,330.8987 Q596.891,330.8987 597.409,331.0182 Q597.927,331.1378 598.3785,331.3768 L598.3785,333.5549 Q597.8738,333.0901 597.399,332.8743 Q596.9242,332.6585 596.4195,332.6585 Q595.3438,332.6585 594.7959,333.5118 Q594.248,334.3651 594.248,336.0452 Q594.248,337.7186 594.7959,338.5719 Q595.3438,339.4253 596.4195,339.4253 Q596.9242,339.4253 597.399,339.2094 Q597.8738,338.9936 598.3785,338.5288 Z " fill="#000000"/><text fill="#000000" font-family="FG Virgil" font-size="9.6" font-style="italic" lengthAdjust="spacing" textLength="62.4" x="628.8" y="333.2253">&#171;persistence&#187;</text><text fill="#000000" font-family="FG Virgil" font-size="11.2" lengthAdjust="spacing" textLength="105.6" x="607.2" y="346.0784">PersistenceContext</text><line style="stroke:#181818;stroke-width:0.4000000000000001;" x1="584.8" x2="714.4" y1="352.4409" y2="352.4409"/><line style="stroke:#181818;stroke-width:0.4000000000000001;" x1="584.8" x2="714.4" y1="358.8409" y2="358.8409"/><text fill="#000000" font-family="FG Virgil" font-size="11.2" lengthAdjust="spacing" textLength="73.6" x="588.8" y="372.869">repositories()</text></g><!--class RepositoryFactory--><g id="elem_RepositoryFactory"><rect codeLine="51" fill="#F1F1F1" height="45.2969" id="RepositoryFactory" rx="2" ry="2" style="stroke:#181818;stroke-width:0.4000000000000001;" width="124" x="566.8" y="453.224"/><ellipse cx="578.8" cy="469.4724" fill="#ADD1B2" rx="8.8" ry="8.8" style="stroke:#181818;stroke-width:0.8000000000000002;"/><path d="M581.1785,473.9869 Q580.7137,474.226 580.2023,474.3455 Q579.691,474.465 579.1266,474.465 Q577.1211,474.465 576.0652,473.1435 Q575.0094,471.822 575.0094,469.3252 Q575.0094,466.8217 576.0652,465.5002 Q577.1211,464.1787 579.1266,464.1787 Q579.691,464.1787 580.209,464.2982 Q580.727,464.4178 581.1785,464.6568 L581.1785,466.8349 Q580.6738,466.3701 580.199,466.1543 Q579.7242,465.9385 579.2195,465.9385 Q578.1438,465.9385 577.5959,466.7918 Q577.048,467.6451 577.048,469.3252 Q577.048,470.9986 577.5959,471.8519 Q578.1438,472.7053 579.2195,472.7053 Q579.7242,472.7053 580.199,472.4894 Q580.6738,472.2736 581.1785,471.8088 Z " fill="#000000"/><text fill="#000000" font-family="FG Virgil" font-size="9.6" font-style="italic" lengthAdjust="spacing" textLength="40.8" x="618.8" y="466.5053">&#171;factory&#187;</text><text fill="#000000" font-family="FG Virgil" font-size="11.2" lengthAdjust="spacing" textLength="98.4" x="590" y="479.3584">RepositoryFactory</text><line style="stroke:#181818;stroke-width:0.4000000000000001;" x1="567.6" x2="690" y1="485.7209" y2="485.7209"/><line style="stroke:#181818;stroke-width:0.4000000000000001;" x1="567.6" x2="690" y1="492.1209" y2="492.1209"/></g><!--class UserRepository--><g id="elem_UserRepository"><rect codeLine="54" fill="#F1F1F1" height="58.4875" id="UserRepository" rx="2" ry="2" style="stroke:#181818;stroke-width:0.4000000000000001;" width="108.8" x="665.6" y="569.864"/><ellipse cx="677.6" cy="586.1124" fill="#ADD1B2" rx="8.8" ry="8.8" style="stroke:#181818;stroke-width:0.8000000000000002;"/><path d="M679.9785,590.6269 Q679.5137,590.866 679.0023,590.9855 Q678.491,591.105 677.9266,591.105 Q675.9211,591.105 674.8652,589.7835 Q673.8094,588.462 673.8094,585.9652 Q673.8094,583.4617 674.8652,582.1402 Q675.9211,580.8187 677.9266,580.8187 Q678.491,580.8187 679.009,580.9382 Q679.527,581.0578 679.9785,581.2968 L679.9785,583.4749 Q679.4738,583.0101 678.999,582.7943 Q678.5242,582.5785 678.0195,582.5785 Q676.9438,582.5785 676.3959,583.4318 Q675.848,584.2851 675.848,585.9652 Q675.848,587.6386 676.3959,588.4919 Q676.9438,589.3453 678.0195,589.3453 Q678.5242,589.3453 678.999,589.1294 Q679.4738,588.9136 679.9785,588.4488 Z " fill="#000000"/><text fill="#000000" font-family="FG Virgil" font-size="9.6" font-style="italic" lengthAdjust="spacing" textLength="56" x="702.4" y="583.1453">&#171;repository&#187;</text><text fill="#000000" font-family="FG Virgil" font-size="11.2" lengthAdjust="spacing" textLength="83.2" x="688.8" y="595.9984">UserRepository</text><line style="stroke:#181818;stroke-width:0.4000000000000001;" x1="666.4" x2="773.6" y1="602.3609" y2="602.3609"/><line style="stroke:#181818;stroke-width:0.4000000000000001;" x1="666.4" x2="773.6" y1="608.7609" y2="608.7609"/><text fill="#000000" font-family="FG Virgil" font-size="11.2" lengthAdjust="spacing" textLength="74.4" x="670.4" y="622.789">findByActive()</text></g><!--class BoardPermissionRepository--><g id="elem_BoardPermissionRepository"><rect codeLine="62" fill="#F1F1F1" height="45.2969" id="BoardPermissionRepository" rx="2" ry="2" style="stroke:#181818;stroke-width:0.4000000000000001;" width="176" x="188" y="576.456"/><ellipse cx="200" cy="592.7044" fill="#ADD1B2" rx="8.8" ry="8.8" style="stroke:#181818;stroke-width:0.8000000000000002;"/><path d="M202.3785,597.2189 Q201.9137,597.458 201.4023,597.5775 Q200.891,597.697 200.3266,597.697 Q198.3211,597.697 197.2652,596.3755 Q196.2094,595.054 196.2094,592.5572 Q196.2094,590.0537 197.2652,588.7322 Q198.3211,587.4107 200.3266,587.4107 Q200.891,587.4107 201.409,587.5302 Q201.927,587.6498 202.3785,587.8888 L202.3785,590.0669 Q201.8738,589.6021 201.399,589.3863 Q200.9242,589.1705 200.4195,589.1705 Q199.3438,589.1705 198.7959,590.0238 Q198.248,590.8771 198.248,592.5572 Q198.248,594.2306 198.7959,595.0839 Q199.3438,595.9373 200.4195,595.9373 Q200.9242,595.9373 201.399,595.7214 Q201.8738,595.5056 202.3785,595.0408 Z " fill="#000000"/><text fill="#000000" font-family="FG Virgil" font-size="9.6" font-style="italic" lengthAdjust="spacing" textLength="56" x="258.4" y="589.7373">&#171;repository&#187;</text><text fill="#000000" font-family="FG Virgil" font-size="11.2" lengthAdjust="spacing" textLength="150.4" x="211.2" y="602.5904">BoardPermissionRepository</text><line style="stroke:#181818;stroke-width:0.4000000000000001;" x1="188.8" x2="363.2" y1="608.9529" y2="608.9529"/><line style="stroke:#181818;stroke-width:0.4000000000000001;" x1="188.8" x2="363.2" y1="615.3529" y2="615.3529"/></g><!--link Board to BoardPermission--><g id="link_Board_BoardPermission"><path codeLine="67" d="M181.336,378.688 C183.256,397.448 185.768,422.024 187.784,441.672 " fill="none" id="Board-to-BoardPermission" style="stroke:#181818;stroke-width:0.8000000000000002;"/><polygon fill="#181818" points="188.256,445.488,190.6981,437.9969,187.8444,441.5092,184.3321,438.6555,188.256,445.488" style="stroke:#181818;stroke-width:0.8000000000000002;"/></g><!--link ShareBoardController to AuthorizationService--><g id="link_ShareBoardController_AuthorizationService"><path codeLine="68" d="M435.2,251.96 C435.2,270.312 435.2,290.976 435.2,308.448 " fill="none" id="ShareBoardController-to-AuthorizationService" style="stroke:#181818;stroke-width:0.8000000000000002;"/><polygon fill="#181818" points="435.2,312.256,438.4,305.056,435.2,308.256,432,305.056,435.2,312.256" style="stroke:#181818;stroke-width:0.8000000000000002;"/><text fill="#000000" font-family="FG Virgil" font-size="10.4" lengthAdjust="spacing" textLength="28" x="436" y="286.6067">authz</text></g><!--link ShareBoardController to BoardRepository--><g id="link_ShareBoardController_BoardRepository"><path codeLine="69" d="M551.792,215.264 C615.6,228.32 689.624,255.768 729.6,313.352 C747.768,339.52 749.184,359.896 729.6,385.024 C702.784,419.448 661.216,374.608 634.4,409.024 C630.688,413.792 630.88,417.712 634.4,422.624 C653.64,449.512 683.792,421.104 704.8,446.624 C732.12,479.824 741.696,508.24 716,542.712 C713.232,546.432 678.568,557.176 639.864,568.248 " fill="none" id="ShareBoardController-to-BoardRepository" style="stroke:#181818;stroke-width:0.8000000000000002;stroke-dasharray:7.0,7.0;"/><polygon fill="#181818" points="636.176,569.528,643.9781,570.6269,640.0221,568.4291,642.2199,564.4731,636.176,569.528" style="stroke:#181818;stroke-width:0.8000000000000002;"/><text fill="#000000" font-family="FG Virgil" font-size="10.4" lengthAdjust="spacing" textLength="51.2" x="635.2" y="419.8787">repository</text></g><!--link ShareBoardController to UserRepository--><g id="link_ShareBoardController_UserRepository"><path codeLine="70" d="M551.808,219.128 C602.688,229.656 661.4,247.08 708.8,275.752 C728.184,287.472 735,292.24 743.2,313.352 C776.584,399.304 749.296,510.568 731.816,565.144 " fill="none" id="ShareBoardController-to-UserRepository" style="stroke:#181818;stroke-width:0.8000000000000002;stroke-dasharray:7.0,7.0;"/><polygon fill="#181818" points="730.368,568.816,735.6331,562.9544,731.602,565.0111,729.5453,560.98,730.368,568.816" style="stroke:#181818;stroke-width:0.8000000000000002;"/><text fill="#000000" font-family="FG Virgil" font-size="10.4" lengthAdjust="spacing" textLength="51.2" x="759.2" y="419.8787">repository</text></g><!--link ShareBoardController to BoardPermissionRepository--><g id="link_ShareBoardController_BoardPermissionRepository"><path codeLine="71" d="M318.44,233.712 C210.072,262.288 64.232,302.4 56,313.352 C4.8,381.488 8.936,434.064 56,505.112 C65.144,518.92 148.464,551.752 209.872,574.512 " fill="none" id="ShareBoardController-to-BoardPermissionRepository" style="stroke:#181818;stroke-width:0.8000000000000002;stroke-dasharray:7.0,7.0;"/><polygon fill="#181818" points="213.456,576.136,207.8233,570.6267,209.7069,574.7415,205.5921,576.6252,213.456,576.136" style="stroke:#181818;stroke-width:0.8000000000000002;"/><text fill="#000000" font-family="FG Virgil" font-size="10.4" lengthAdjust="spacing" textLength="51.2" x="21.6" y="419.8787">repository</text></g><!--link ShareBoardController to Board--><g id="link_ShareBoardController_Board"><path codeLine="72" d="M349.336,251.96 C311.08,273.536 267.152,298.32 233.408,317.36 " fill="none" id="ShareBoardController-to-Board" style="stroke:#181818;stroke-width:0.8000000000000002;"/><polygon fill="#181818" points="230.144,319.648,237.9874,318.8986,233.6282,317.6832,234.8436,313.324,230.144,319.648" style="stroke:#181818;stroke-width:0.8000000000000002;"/></g><!--link AuthorizationService to UserSession--><g id="link_AuthorizationService_UserSession"><path codeLine="73" d="M447.8,385.16 C454.624,404.216 462.96,427.488 469.44,445.584 " fill="none" id="AuthorizationService-to-UserSession" style="stroke:#181818;stroke-width:0.8000000000000002;"/><polygon fill="#181818" points="471.04,449.264,471.6289,441.407,469.6932,445.4975,465.6026,443.5618,471.04,449.264" style="stroke:#181818;stroke-width:0.8000000000000002;"/><text fill="#000000" font-family="FG Virgil" font-size="10.4" lengthAdjust="spacing" textLength="38.4" x="460.8" y="419.8787">session</text></g><!--link PersistenceContext to RepositoryFactory--><g id="link_PersistenceContext_RepositoryFactory"><path codeLine="74" d="M592.68,378.68 C581.784,386.92 571.848,397.008 565.6,409.024 C557.608,424.416 567.944,438.696 582.424,450.008 " fill="none" id="PersistenceContext-to-RepositoryFactory" style="stroke:#181818;stroke-width:0.8000000000000002;"/><polygon fill="#181818" points="585.384,452.824,581.5322,445.9506,582.1799,450.4295,577.701,451.0771,585.384,452.824" style="stroke:#181818;stroke-width:0.8000000000000002;"/><text fill="#000000" font-family="FG Virgil" font-size="10.4" lengthAdjust="spacing" textLength="35.2" x="566.4" y="419.8787">factory</text></g><!--link ShareBoardController to PersistenceContext--><g id="link_ShareBoardController_PersistenceContext"><path codeLine="75" d="M506.888,251.96 C538.696,273.448 575.2,298.12 603.328,317.12 " fill="none" id="ShareBoardController-to-PersistenceContext" style="stroke:#181818;stroke-width:0.8000000000000002;"/><polygon fill="#181818" points="606.264,319.648,602.0906,312.965,602.9499,317.4081,598.5068,318.2675,606.264,319.648" style="stroke:#181818;stroke-width:0.8000000000000002;"/><text fill="#000000" font-family="FG Virgil" font-size="10.4" lengthAdjust="spacing" textLength="57.6" x="562.4" y="286.6067">persistence</text></g><!--link ShareBoardUI to ShareBoardController--><g id="link_ShareBoardUI_ShareBoardController"><path codeLine="76" d="M328.016,92.296 C344.32,108.968 365.368,130.496 384.488,150.056 " fill="none" id="ShareBoardUI-to-ShareBoardController" style="stroke:#181818;stroke-width:0.8000000000000002;"/><polygon fill="#181818" points="386.984,152.632,384.2451,145.2443,384.1901,149.7694,379.665,149.7145,386.984,152.632" style="stroke:#181818;stroke-width:0.8000000000000002;"/><text fill="#000000" font-family="FG Virgil" font-size="10.4" lengthAdjust="spacing" textLength="48.8" x="364" y="126.9427">controller</text></g><!--link Board to BoardRepository--><g id="link_Board_BoardRepository"><path codeLine="77" d="M228.288,378.736 C257.928,396.736 295.616,421.256 326.4,446.624 C354.36,469.672 355.312,481.984 383.2,505.112 C406.504,524.44 414.512,526.376 440,542.712 C452.504,550.728 466.072,559.24 478.784,567.136 " fill="none" id="Board-to-BoardRepository" style="stroke:#181818;stroke-width:0.8000000000000002;"/><polygon fill="#181818" points="481.904,569.568,477.4687,563.0559,478.5037,567.4614,474.0981,568.4964,481.904,569.568" style="stroke:#181818;stroke-width:0.8000000000000002;"/><text fill="#000000" font-family="FG Virgil" font-size="10.4" lengthAdjust="spacing" textLength="22.4" x="384" y="479.9267">save</text></g><!--link RepositoryFactory to UserRepository--><g id="link_RepositoryFactory_UserRepository"><path codeLine="78" d="M645.312,498.696 C659.384,517.464 679.8,544.688 695.728,565.936 " fill="none" id="RepositoryFactory-to-UserRepository" style="stroke:#181818;stroke-width:0.8000000000000002;"/><polygon fill="#181818" points="698.448,568.76,696.688,561.08,696.048,565.56,691.568,564.92,698.448,568.76" style="stroke:#181818;stroke-width:0.8000000000000002;"/><text fill="#000000" font-family="FG Virgil" font-size="10.4" lengthAdjust="spacing" textLength="51.2" x="677.6" y="539.9667">repository</text></g><!--link RepositoryFactory to BoardRepository--><g id="link_RepositoryFactory_BoardRepository"><path codeLine="79" d="M610.832,498.696 C595.528,517.464 573.328,544.688 556,565.936 " fill="none" id="RepositoryFactory-to-BoardRepository" style="stroke:#181818;stroke-width:0.8000000000000002;"/><polygon fill="#181818" points="553.04,568.76,560.0703,565.2025,555.568,565.6601,555.1104,561.1578,553.04,568.76" style="stroke:#181818;stroke-width:0.8000000000000002;"/><text fill="#000000" font-family="FG Virgil" font-size="10.4" lengthAdjust="spacing" textLength="51.2" x="585.6" y="539.9667">repository</text></g><!--link RepositoryFactory to BoardPermissionRepository--><g id="link_RepositoryFactory_BoardPermissionRepository"><path codeLine="80" d="M569.952,498.912 C564.168,501.04 558.376,503.136 552.8,505.112 C483.648,529.688 404.216,556.264 348.232,574.72 " fill="none" id="RepositoryFactory-to-BoardPermissionRepository" style="stroke:#181818;stroke-width:0.8000000000000002;"/><polygon fill="#181818" points="344.704,576.144,352.5429,576.9384,348.5044,574.8963,350.5466,570.8578,344.704,576.144" style="stroke:#181818;stroke-width:0.8000000000000002;"/><text fill="#000000" font-family="FG Virgil" font-size="10.4" lengthAdjust="spacing" textLength="51.2" x="477.6" y="539.9667">repository</text></g><!--link ShareBoardUI to SelectBoardWidget--><g id="link_ShareBoardUI_SelectBoardWidget"><path codeLine="81" d="M271.984,92.296 C249.872,114.912 219.024,146.464 196.104,169.904 " fill="none" id="ShareBoardUI-to-SelectBoardWidget" style="stroke:#181818;stroke-width:0.8000000000000002;"/><polygon fill="#181818" points="193.576,172.504,200.901,169.6014,196.3757,169.6471,196.33,165.1219,193.576,172.504" style="stroke:#181818;stroke-width:0.8000000000000002;"/></g><!--link SelectBoardWidget to Board--><g id="link_SelectBoardWidget_Board"><path codeLine="82" d="M167.488,232.144 C169.728,255.976 172.912,289.936 175.264,315.008 " fill="none" id="SelectBoardWidget-to-Board" style="stroke:#181818;stroke-width:0.8000000000000002;"/><polygon fill="#181818" points="175.696,318.776,178.202,311.3061,175.3184,314.7939,171.8306,311.9102,175.696,318.776" style="stroke:#181818;stroke-width:0.8000000000000002;"/></g><!--link BoardPermission to AccessLevel--><g id="link_BoardPermission_AccessLevel"><path codeLine="83" d="M173.192,505.496 C162.536,522.544 148.96,544.28 137.616,562.424 " fill="none" id="BoardPermission-to-AccessLevel" style="stroke:#181818;stroke-width:0.8000000000000002;"/><polygon fill="#181818" points="135.088,565.68,141.6216,561.2763,137.2111,562.2899,136.1975,557.8794,135.088,565.68" style="stroke:#181818;stroke-width:0.8000000000000002;"/></g><!--link BoardPermission to BoardPermissionRepository--><g id="link_BoardPermission_BoardPermissionRepository"><path codeLine="84" d="M211.296,505.496 C225.44,525.784 244.208,552.704 257.888,572.328 " fill="none" id="BoardPermission-to-BoardPermissionRepository" style="stroke:#181818;stroke-width:0.8000000000000002;"/><polygon fill="#181818" points="260.552,575.352,259.0609,567.6153,258.2651,572.0702,253.8101,571.2744,260.552,575.352" style="stroke:#181818;stroke-width:0.8000000000000002;"/></g><!--SRC=[bLNBRjim4BppAtXq0CSV80G6d3Pk0nHDOINDcQNMDX6A5BYKNINelvUa7fGbsMvze2LoPdPtTYNXcr05Cood1UDlR0UfhIHG0zmIxCuosB9IshLMzZlBWQw_q9_2x8JiON3FCdqKQaUtJ28GqWXIuBeq21-4IuP8qpqpSA-PoLuUwTrTOG11MMQ5Liib_I3K_JATxlLnTaF-j2IGBgF0UXNP3kmK4oCeKCaeuYTNWD5IWd5yLXHIyDF0Mw6oWCJxwkcemCpI2YtaB-WefLjk0imbu7TczHrs-hEmpcaapUalhIKmLKDPblq0amj45xL5Xx-u7QiU7BYSCvqp4TCT06Rzk2lE0V4R741wHL1btjzh53OFgy_XudNp-FpGCsrLshqsuZtuau8v20uk0QolkWn0OMd0Wrqhl9kG-V1V6QvKzRITRLpnYqNZ4zHPXjxKKJmshRSRGJQKwiD3lQSsz7n_5bR2d0fbcoNQCV1q0uL6ORMfd9ZfReAWjw31EcTHE0d5mKyE_0vZ5pSx5pe90TZFDyPPCzw4szPNRQpemwMambnMAsx50KQ6N2LU7kXJiJXDLqsgkt5xknmooUGJvu6JKvM4fhzFinQBvQZA91fUdMSDFFqtqdaFhlCx9yXacVwuF-z9-q2GYJdpuF7q9BIPdlC9J6Wbj3UpvEJzwncJKWdbtKtRwAb683i06IVQrdhElsd6nJvVeFnFlzgYXnyKClx4n7uENyHXbEExTFByR6RaBm00]--></g></svg>