<?xml version="1.0" encoding="us-ascii" standalone="no"?><svg xmlns="http://www.w3.org/2000/svg" xmlns:xlink="http://www.w3.org/1999/xlink" contentStyleType="text/css" height="1253.6px" preserveAspectRatio="none" style="width:1843px;height:1253px;background:#FFFFFF;" version="1.1" viewBox="0 0 1843 1253" width="1843.2px" zoomAndPan="magnify"><defs/><g><rect fill="#FFFFFF" height="1091.4469" style="stroke:#181818;stroke-width:0.8000000000000002;" width="8" x="321.6" y="90.2391"/><rect fill="#FFFFFF" height="122.0422" style="stroke:#181818;stroke-width:0.8000000000000002;" width="8" x="585.6" y="254.3781"/><rect fill="#FFFFFF" height="93.7938" style="stroke:#181818;stroke-width:0.8000000000000002;" width="8" x="585.6" y="405.4688"/><rect fill="#FFFFFF" height="255.2844" style="stroke:#181818;stroke-width:0.8000000000000002;" width="8" x="585.6" y="635.9531"/><rect fill="#FFFFFF" height="195.3391" style="stroke:#181818;stroke-width:0.8000000000000002;" width="8" x="585.6" y="950.0984"/><rect fill="#FFFFFF" height="136.4422" style="stroke:#181818;stroke-width:0.8000000000000002;" width="8" x="589.6" y="979.9469"/><rect fill="#FFFFFF" height="28.2484" style="stroke:#181818;stroke-width:0.8000000000000002;" width="8" x="900.8" y="693.25"/><rect fill="#FFFFFF" height="23.4484" style="stroke:#181818;stroke-width:0.8000000000000002;" width="8" x="900.8" y="797.4438"/><rect fill="#FFFFFF" height="28.2484" style="stroke:#181818;stroke-width:0.8000000000000002;" width="8" x="900.8" y="1007.3953"/><rect fill="#FFFFFF" height="23.4484" style="stroke:#181818;stroke-width:0.8000000000000002;" width="8" x="1120" y="207.4813"/><rect fill="#FFFFFF" height="23.4484" style="stroke:#181818;stroke-width:0.8000000000000002;" width="8" x="1364" y="113.6875"/><rect fill="#FFFFFF" height="23.4484" style="stroke:#181818;stroke-width:0.8000000000000002;" width="8" x="1364" y="277.8266"/><rect fill="#FFFFFF" height="23.4484" style="stroke:#181818;stroke-width:0.8000000000000002;" width="8" x="1485.2" y="160.5844"/><rect fill="#FFFFFF" height="23.4484" style="stroke:#181818;stroke-width:0.8000000000000002;" width="8" x="1485.2" y="324.7234"/><rect fill="#FFFFFF" height="23.4484" style="stroke:#181818;stroke-width:0.8000000000000002;" width="8" x="1631.6" y="452.3656"/><rect fill="#FFFFFF" height="23.4484" style="stroke:#181818;stroke-width:0.8000000000000002;" width="8" x="1631.6" y="750.5469"/><rect fill="#FFFFFF" height="23.4484" style="stroke:#181818;stroke-width:0.8000000000000002;" width="8" x="1631.6" y="1064.6922"/><rect fill="#FFFFFF" height="23.4484" style="stroke:#181818;stroke-width:0.8000000000000002;" width="8" x="1774.4" y="844.3406"/><rect fill="none" height="570.2297" style="stroke:#000000;stroke-width:1.2000000000000002;" width="1829.6" x="8" y="605.0563"/><line style="stroke:#181818;stroke-width:0.4000000000000001;stroke-dasharray:5.0,5.0;" x1="42.4" x2="42.4" y1="65.1906" y2="1188.8859"/><line style="stroke:#181818;stroke-width:0.4000000000000001;stroke-dasharray:5.0,5.0;" x1="325.6" x2="325.6" y1="65.1906" y2="1188.8859"/><line style="stroke:#181818;stroke-width:0.4000000000000001;stroke-dasharray:5.0,5.0;" x1="589.6" x2="589.6" y1="65.1906" y2="1188.8859"/><line style="stroke:#181818;stroke-width:0.4000000000000001;stroke-dasharray:5.0,5.0;" x1="904.8" x2="904.8" y1="65.1906" y2="1188.8859"/><line style="stroke:#181818;stroke-width:0.4000000000000001;stroke-dasharray:5.0,5.0;" x1="1124" x2="1124" y1="65.1906" y2="1188.8859"/><line style="stroke:#181818;stroke-width:0.4000000000000001;stroke-dasharray:5.0,5.0;" x1="1238.4" x2="1238.4" y1="65.1906" y2="1188.8859"/><line style="stroke:#181818;stroke-width:0.4000000000000001;stroke-dasharray:5.0,5.0;" x1="1368" x2="1368" y1="65.1906" y2="1188.8859"/><line style="stroke:#181818;stroke-width:0.4000000000000001;stroke-dasharray:5.0,5.0;" x1="1488.8" x2="1488.8" y1="65.1906" y2="1188.8859"/><line style="stroke:#181818;stroke-width:0.4000000000000001;stroke-dasharray:5.0,5.0;" x1="1635.2" x2="1635.2" y1="65.1906" y2="1188.8859"/><line style="stroke:#181818;stroke-width:0.4000000000000001;stroke-dasharray:5.0,5.0;" x1="1778.4" x2="1778.4" y1="65.1906" y2="1188.8859"/><text fill="#000000" font-family="sans-serif" font-size="11.2" lengthAdjust="spacing" textLength="48" x="16" y="62.8281">Manager</text><ellipse cx="42.4" cy="10.8" fill="#E2E2F0" rx="6.4" ry="6.4" style="stroke:#181818;stroke-width:0.4000000000000001;"/><path d="M42.4,17.2 L42.4,38.8 M32,23.6 L52.8,23.6 M42.4,38.8 L32,50.8 M42.4,38.8 L52.8,50.8 " fill="none" style="stroke:#181818;stroke-width:0.4000000000000001;"/><text fill="#000000" font-family="sans-serif" font-size="11.2" lengthAdjust="spacing" textLength="48" x="16" y="1198.9141">Manager</text><ellipse cx="42.4" cy="1208.0766" fill="#E2E2F0" rx="6.4" ry="6.4" style="stroke:#181818;stroke-width:0.4000000000000001;"/><path d="M42.4,1214.4766 L42.4,1236.0766 M32,1220.8766 L52.8,1220.8766 M42.4,1236.0766 L32,1248.0766 M42.4,1236.0766 L52.8,1248.0766 " fill="none" style="stroke:#181818;stroke-width:0.4000000000000001;"/><rect fill="#E2E2F0" height="24.3906" rx="2" ry="2" style="stroke:#181818;stroke-width:0.4000000000000001;" width="152" x="249.6" y="40"/><text fill="#000000" font-family="sans-serif" font-size="11.2" lengthAdjust="spacing" textLength="140.8" x="255.2" y="56.4281">AcceptRejectEnrollmentUI</text><rect fill="#E2E2F0" height="24.3906" rx="2" ry="2" style="stroke:#181818;stroke-width:0.4000000000000001;" width="152" x="249.6" y="1188.0859"/><text fill="#000000" font-family="sans-serif" font-size="11.2" lengthAdjust="spacing" textLength="140.8" x="255.2" y="1204.5141">AcceptRejectEnrollmentUI</text><rect fill="#E2E2F0" height="24.3906" rx="2" ry="2" style="stroke:#181818;stroke-width:0.4000000000000001;" width="196.8" x="491.2" y="40"/><text fill="#000000" font-family="sans-serif" font-size="11.2" lengthAdjust="spacing" textLength="185.6" x="496.8" y="56.4281">AcceptRejectEnrollmentController</text><rect fill="#E2E2F0" height="24.3906" rx="2" ry="2" style="stroke:#181818;stroke-width:0.4000000000000001;" width="196.8" x="491.2" y="1188.0859"/><text fill="#000000" font-family="sans-serif" font-size="11.2" lengthAdjust="spacing" textLength="185.6" x="496.8" y="1204.5141">AcceptRejectEnrollmentController</text><rect fill="#E2E2F0" height="24.3906" rx="2" ry="2" style="stroke:#181818;stroke-width:0.4000000000000001;" width="115.2" x="847.2" y="40"/><text fill="#000000" font-family="sans-serif" font-size="11.2" lengthAdjust="spacing" textLength="104" x="852.8" y="56.4281">EnrollmentRequest</text><rect fill="#E2E2F0" height="24.3906" rx="2" ry="2" style="stroke:#181818;stroke-width:0.4000000000000001;" width="115.2" x="847.2" y="1188.0859"/><text fill="#000000" font-family="sans-serif" font-size="11.2" lengthAdjust="spacing" textLength="104" x="852.8" y="1204.5141">EnrollmentRequest</text><rect fill="#E2E2F0" height="24.3906" rx="2" ry="2" style="stroke:#181818;stroke-width:0.4000000000000001;" width="88" x="1080" y="40"/><text fill="#000000" font-family="sans-serif" font-size="11.2" lengthAdjust="spacing" textLength="76.8" x="1085.6" y="56.4281">AuthzRegistry</text><rect fill="#E2E2F0" height="24.3906" rx="2" ry="2" style="stroke:#181818;stroke-width:0.4000000000000001;" width="88" x="1080" y="1188.0859"/><text fill="#000000" font-family="sans-serif" font-size="11.2" lengthAdjust="spacing" textLength="76.8" x="1085.6" y="1204.5141">AuthzRegistry</text><rect fill="#E2E2F0" height="24.3906" rx="2" ry="2" style="stroke:#181818;stroke-width:0.4000000000000001;" width="125.6" x="1176" y="40"/><text fill="#000000" font-family="sans-serif" font-size="11.2" lengthAdjust="spacing" textLength="114.4" x="1181.6" y="56.4281">AuthorizationService</text><rect fill="#E2E2F0" height="24.3906" rx="2" ry="2" style="stroke:#181818;stroke-width:0.4000000000000001;" width="125.6" x="1176" y="1188.0859"/><text fill="#000000" font-family="sans-serif" font-size="11.2" lengthAdjust="spacing" textLength="114.4" x="1181.6" y="1204.5141">AuthorizationService</text><rect fill="#E2E2F0" height="24.3906" rx="2" ry="2" style="stroke:#181818;stroke-width:0.4000000000000001;" width="116.8" x="1309.6" y="40"/><text fill="#000000" font-family="sans-serif" font-size="11.2" lengthAdjust="spacing" textLength="105.6" x="1315.2" y="56.4281">PersistenceContext</text><rect fill="#E2E2F0" height="24.3906" rx="2" ry="2" style="stroke:#181818;stroke-width:0.4000000000000001;" width="116.8" x="1309.6" y="1188.0859"/><text fill="#000000" font-family="sans-serif" font-size="11.2" lengthAdjust="spacing" textLength="105.6" x="1315.2" y="1204.5141">PersistenceContext</text><rect fill="#E2E2F0" height="24.3906" rx="2" ry="2" style="stroke:#181818;stroke-width:0.4000000000000001;" width="109.6" x="1434.4" y="40"/><text fill="#000000" font-family="sans-serif" font-size="11.2" lengthAdjust="spacing" textLength="98.4" x="1440" y="56.4281">RepositoryFactory</text><rect fill="#E2E2F0" height="24.3906" rx="2" ry="2" style="stroke:#181818;stroke-width:0.4000000000000001;" width="109.6" x="1434.4" y="1188.0859"/><text fill="#000000" font-family="sans-serif" font-size="11.2" lengthAdjust="spacing" textLength="98.4" x="1440" y="1204.5141">RepositoryFactory</text><text fill="#000000" font-family="sans-serif" font-size="11.2" lengthAdjust="spacing" textLength="162.4" x="1552" y="62.8281">EnrollmentRequestRepository</text><path d="M1621.2,23.2 C1621.2,15.2 1635.6,15.2 1635.6,15.2 C1635.6,15.2 1650,15.2 1650,23.2 L1650,44 C1650,52 1635.6,52 1635.6,52 C1635.6,52 1621.2,52 1621.2,44 L1621.2,23.2 " fill="#E2E2F0" style="stroke:#181818;stroke-width:1.2000000000000002;"/><path d="M1621.2,23.2 C1621.2,31.2 1635.6,31.2 1635.6,31.2 C1635.6,31.2 1650,31.2 1650,23.2 " fill="none" style="stroke:#181818;stroke-width:1.2000000000000002;"/><text fill="#000000" font-family="sans-serif" font-size="11.2" lengthAdjust="spacing" textLength="162.4" x="1552" y="1198.9141">EnrollmentRequestRepository</text><path d="M1621.2,1209.2766 C1621.2,1201.2766 1635.6,1201.2766 1635.6,1201.2766 C1635.6,1201.2766 1650,1201.2766 1650,1209.2766 L1650,1230.0766 C1650,1238.0766 1635.6,1238.0766 1635.6,1238.0766 C1635.6,1238.0766 1621.2,1238.0766 1621.2,1230.0766 L1621.2,1209.2766 " fill="#E2E2F0" style="stroke:#181818;stroke-width:1.2000000000000002;"/><path d="M1621.2,1209.2766 C1621.2,1217.2766 1635.6,1217.2766 1635.6,1217.2766 C1635.6,1217.2766 1650,1217.2766 1650,1209.2766 " fill="none" style="stroke:#181818;stroke-width:1.2000000000000002;"/><text fill="#000000" font-family="sans-serif" font-size="11.2" lengthAdjust="spacing" textLength="97.6" x="1727.2" y="62.8281">CourseRepository</text><path d="M1764,23.2 C1764,15.2 1778.4,15.2 1778.4,15.2 C1778.4,15.2 1792.8,15.2 1792.8,23.2 L1792.8,44 C1792.8,52 1778.4,52 1778.4,52 C1778.4,52 1764,52 1764,44 L1764,23.2 " fill="#E2E2F0" style="stroke:#181818;stroke-width:1.2000000000000002;"/><path d="M1764,23.2 C1764,31.2 1778.4,31.2 1778.4,31.2 C1778.4,31.2 1792.8,31.2 1792.8,23.2 " fill="none" style="stroke:#181818;stroke-width:1.2000000000000002;"/><text fill="#000000" font-family="sans-serif" font-size="11.2" lengthAdjust="spacing" textLength="97.6" x="1727.2" y="1198.9141">CourseRepository</text><path d="M1764,1209.2766 C1764,1201.2766 1778.4,1201.2766 1778.4,1201.2766 C1778.4,1201.2766 1792.8,1201.2766 1792.8,1209.2766 L1792.8,1230.0766 C1792.8,1238.0766 1778.4,1238.0766 1778.4,1238.0766 C1778.4,1238.0766 1764,1238.0766 1764,1230.0766 L1764,1209.2766 " fill="#E2E2F0" style="stroke:#181818;stroke-width:1.2000000000000002;"/><path d="M1764,1209.2766 C1764,1217.2766 1778.4,1217.2766 1778.4,1217.2766 C1778.4,1217.2766 1792.8,1217.2766 1792.8,1209.2766 " fill="none" style="stroke:#181818;stroke-width:1.2000000000000002;"/><rect fill="#FFFFFF" height="1091.4469" style="stroke:#181818;stroke-width:0.8000000000000002;" width="8" x="321.6" y="90.2391"/><rect fill="#FFFFFF" height="122.0422" style="stroke:#181818;stroke-width:0.8000000000000002;" width="8" x="585.6" y="254.3781"/><rect fill="#FFFFFF" height="93.7938" style="stroke:#181818;stroke-width:0.8000000000000002;" width="8" x="585.6" y="405.4688"/><rect fill="#FFFFFF" height="255.2844" style="stroke:#181818;stroke-width:0.8000000000000002;" width="8" x="585.6" y="635.9531"/><rect fill="#FFFFFF" height="195.3391" style="stroke:#181818;stroke-width:0.8000000000000002;" width="8" x="585.6" y="950.0984"/><rect fill="#FFFFFF" height="136.4422" style="stroke:#181818;stroke-width:0.8000000000000002;" width="8" x="589.6" y="979.9469"/><rect fill="#FFFFFF" height="28.2484" style="stroke:#181818;stroke-width:0.8000000000000002;" width="8" x="900.8" y="693.25"/><rect fill="#FFFFFF" height="23.4484" style="stroke:#181818;stroke-width:0.8000000000000002;" width="8" x="900.8" y="797.4438"/><rect fill="#FFFFFF" height="28.2484" style="stroke:#181818;stroke-width:0.8000000000000002;" width="8" x="900.8" y="1007.3953"/><rect fill="#FFFFFF" height="23.4484" style="stroke:#181818;stroke-width:0.8000000000000002;" width="8" x="1120" y="207.4813"/><rect fill="#FFFFFF" height="23.4484" style="stroke:#181818;stroke-width:0.8000000000000002;" width="8" x="1364" y="113.6875"/><rect fill="#FFFFFF" height="23.4484" style="stroke:#181818;stroke-width:0.8000000000000002;" width="8" x="1364" y="277.8266"/><rect fill="#FFFFFF" height="23.4484" style="stroke:#181818;stroke-width:0.8000000000000002;" width="8" x="1485.2" y="160.5844"/><rect fill="#FFFFFF" height="23.4484" style="stroke:#181818;stroke-width:0.8000000000000002;" width="8" x="1485.2" y="324.7234"/><rect fill="#FFFFFF" height="23.4484" style="stroke:#181818;stroke-width:0.8000000000000002;" width="8" x="1631.6" y="452.3656"/><rect fill="#FFFFFF" height="23.4484" style="stroke:#181818;stroke-width:0.8000000000000002;" width="8" x="1631.6" y="750.5469"/><rect fill="#FFFFFF" height="23.4484" style="stroke:#181818;stroke-width:0.8000000000000002;" width="8" x="1631.6" y="1064.6922"/><rect fill="#FFFFFF" height="23.4484" style="stroke:#181818;stroke-width:0.8000000000000002;" width="8" x="1774.4" y="844.3406"/><polygon fill="#181818" points="312,87.0391,320,90.2391,312,93.4391,315.2,90.2391" style="stroke:#181818;stroke-width:0.8000000000000002;"/><line style="stroke:#181818;stroke-width:0.8000000000000002;" x1="42.4" x2="316.8" y1="90.2391" y2="90.2391"/><text fill="#000000" font-family="sans-serif" font-size="10.4" font-weight="bold" lengthAdjust="spacing" textLength="7.2" x="48" y="86.4453">1</text><text fill="#000000" font-family="sans-serif" font-size="10.4" lengthAdjust="spacing" textLength="243.2" x="58.4" y="86.4453">requests to answer pending enrollment requests</text><polygon fill="#181818" points="1354.4,110.4875,1362.4,113.6875,1354.4,116.8875,1357.6,113.6875" style="stroke:#181818;stroke-width:0.8000000000000002;"/><line style="stroke:#181818;stroke-width:0.8000000000000002;" x1="329.6" x2="1359.2" y1="113.6875" y2="113.6875"/><text fill="#000000" font-family="sans-serif" font-size="10.4" font-weight="bold" lengthAdjust="spacing" textLength="7.2" x="335.2" y="109.8938">2</text><text fill="#000000" font-family="sans-serif" font-size="10.4" lengthAdjust="spacing" textLength="66.4" x="345.6" y="109.8938">repositories()</text><polygon fill="#181818" points="338.4,133.9359,330.4,137.1359,338.4,140.3359,335.2,137.1359" style="stroke:#181818;stroke-width:0.8000000000000002;"/><line style="stroke:#181818;stroke-width:0.8000000000000002;stroke-dasharray:2.0,2.0;" x1="333.6" x2="1367.2" y1="137.1359" y2="137.1359"/><text fill="#000000" font-family="sans-serif" font-size="10.4" font-weight="bold" lengthAdjust="spacing" textLength="7.2" x="343.2" y="133.3422">3</text><text fill="#000000" font-family="sans-serif" font-size="10.4" lengthAdjust="spacing" textLength="88" x="353.6" y="133.3422">repositoryFactory</text><polygon fill="#181818" points="1475.6,157.3844,1483.6,160.5844,1475.6,163.7844,1478.8,160.5844" style="stroke:#181818;stroke-width:0.8000000000000002;"/><line style="stroke:#181818;stroke-width:0.8000000000000002;" x1="329.6" x2="1480.4" y1="160.5844" y2="160.5844"/><text fill="#000000" font-family="sans-serif" font-size="10.4" font-weight="bold" lengthAdjust="spacing" textLength="7.2" x="335.2" y="156.7906">4</text><text fill="#000000" font-family="sans-serif" font-size="10.4" lengthAdjust="spacing" textLength="106.4" x="345.6" y="156.7906">enrollmentRequests()</text><polygon fill="#181818" points="338.4,180.8328,330.4,184.0328,338.4,187.2328,335.2,184.0328" style="stroke:#181818;stroke-width:0.8000000000000002;"/><line style="stroke:#181818;stroke-width:0.8000000000000002;stroke-dasharray:2.0,2.0;" x1="333.6" x2="1488.4" y1="184.0328" y2="184.0328"/><text fill="#000000" font-family="sans-serif" font-size="10.4" font-weight="bold" lengthAdjust="spacing" textLength="7.2" x="343.2" y="180.2391">5</text><text fill="#000000" font-family="sans-serif" font-size="10.4" lengthAdjust="spacing" textLength="148" x="353.6" y="180.2391">enrollmentRequestRepository</text><polygon fill="#181818" points="1110.4,204.2813,1118.4,207.4813,1110.4,210.6813,1113.6,207.4813" style="stroke:#181818;stroke-width:0.8000000000000002;"/><line style="stroke:#181818;stroke-width:0.8000000000000002;" x1="329.6" x2="1115.2" y1="207.4813" y2="207.4813"/><text fill="#000000" font-family="sans-serif" font-size="10.4" font-weight="bold" lengthAdjust="spacing" textLength="7.2" x="335.2" y="203.6875">6</text><text fill="#000000" font-family="sans-serif" font-size="10.4" lengthAdjust="spacing" textLength="108.8" x="345.6" y="203.6875">authorizationService()</text><polygon fill="#181818" points="338.4,227.7297,330.4,230.9297,338.4,234.1297,335.2,230.9297" style="stroke:#181818;stroke-width:0.8000000000000002;"/><line style="stroke:#181818;stroke-width:0.8000000000000002;stroke-dasharray:2.0,2.0;" x1="333.6" x2="1123.2" y1="230.9297" y2="230.9297"/><text fill="#000000" font-family="sans-serif" font-size="10.4" font-weight="bold" lengthAdjust="spacing" textLength="7.2" x="343.2" y="227.1359">7</text><text fill="#000000" font-family="sans-serif" font-size="10.4" lengthAdjust="spacing" textLength="3.2" x="353.6" y="227.1359">&#160;</text><polygon fill="#181818" points="576,251.1781,584,254.3781,576,257.5781,579.2,254.3781" style="stroke:#181818;stroke-width:0.8000000000000002;"/><line style="stroke:#181818;stroke-width:0.8000000000000002;" x1="329.6" x2="580.8" y1="254.3781" y2="254.3781"/><text fill="#000000" font-family="sans-serif" font-size="10.4" font-weight="bold" lengthAdjust="spacing" textLength="7.2" x="335.2" y="250.5844">8</text><text fill="#000000" font-family="sans-serif" font-size="10.4" lengthAdjust="spacing" textLength="230.4" x="345.6" y="250.5844">create(enrollmentRequestRepository, authSvc)</text><polygon fill="#181818" points="1354.4,274.6266,1362.4,277.8266,1354.4,281.0266,1357.6,277.8266" style="stroke:#181818;stroke-width:0.8000000000000002;"/><line style="stroke:#181818;stroke-width:0.8000000000000002;" x1="593.6" x2="1359.2" y1="277.8266" y2="277.8266"/><text fill="#000000" font-family="sans-serif" font-size="10.4" font-weight="bold" lengthAdjust="spacing" textLength="7.2" x="599.2" y="274.0328">9</text><text fill="#000000" font-family="sans-serif" font-size="10.4" lengthAdjust="spacing" textLength="66.4" x="609.6" y="274.0328">repositories()</text><polygon fill="#181818" points="602.4,298.075,594.4,301.275,602.4,304.475,599.2,301.275" style="stroke:#181818;stroke-width:0.8000000000000002;"/><line style="stroke:#181818;stroke-width:0.8000000000000002;stroke-dasharray:2.0,2.0;" x1="597.6" x2="1367.2" y1="301.275" y2="301.275"/><text fill="#000000" font-family="sans-serif" font-size="10.4" font-weight="bold" lengthAdjust="spacing" textLength="14.4" x="607.2" y="297.4813">10</text><text fill="#000000" font-family="sans-serif" font-size="10.4" lengthAdjust="spacing" textLength="88" x="624.8" y="297.4813">repositoryFactory</text><polygon fill="#181818" points="1475.6,321.5234,1483.6,324.7234,1475.6,327.9234,1478.8,324.7234" style="stroke:#181818;stroke-width:0.8000000000000002;"/><line style="stroke:#181818;stroke-width:0.8000000000000002;" x1="593.6" x2="1480.4" y1="324.7234" y2="324.7234"/><text fill="#000000" font-family="sans-serif" font-size="10.4" font-weight="bold" lengthAdjust="spacing" textLength="14.4" x="599.2" y="320.9297">11</text><text fill="#000000" font-family="sans-serif" font-size="10.4" lengthAdjust="spacing" textLength="45.6" x="616.8" y="320.9297">courses()</text><polygon fill="#181818" points="602.4,344.9719,594.4,348.1719,602.4,351.3719,599.2,348.1719" style="stroke:#181818;stroke-width:0.8000000000000002;"/><line style="stroke:#181818;stroke-width:0.8000000000000002;stroke-dasharray:2.0,2.0;" x1="597.6" x2="1488.4" y1="348.1719" y2="348.1719"/><text fill="#000000" font-family="sans-serif" font-size="10.4" font-weight="bold" lengthAdjust="spacing" textLength="14.4" x="607.2" y="344.3781">12</text><text fill="#000000" font-family="sans-serif" font-size="10.4" lengthAdjust="spacing" textLength="87.2" x="624.8" y="344.3781">courseRepository</text><line style="stroke:#181818;stroke-width:0.8000000000000002;" x1="593.6" x2="627.2" y1="375.6203" y2="375.6203"/><line style="stroke:#181818;stroke-width:0.8000000000000002;" x1="627.2" x2="627.2" y1="375.6203" y2="386.0203"/><line style="stroke:#181818;stroke-width:0.8000000000000002;" x1="589.6" x2="627.2" y1="386.0203" y2="386.0203"/><polygon fill="#181818" points="597.6,382.8203,589.6,386.0203,597.6,389.2203,594.4,386.0203" style="stroke:#181818;stroke-width:0.8000000000000002;"/><text fill="#000000" font-family="sans-serif" font-size="10.4" font-weight="bold" lengthAdjust="spacing" textLength="14.4" x="599.2" y="371.8266">13</text><text fill="#000000" font-family="sans-serif" font-size="10.4" lengthAdjust="spacing" textLength="278.4" x="616.8" y="371.8266">create(enrollmentRequestRepository, courseRepository)</text><polygon fill="#181818" points="576,402.2688,584,405.4688,576,408.6688,579.2,405.4688" style="stroke:#181818;stroke-width:0.8000000000000002;"/><line style="stroke:#181818;stroke-width:0.8000000000000002;" x1="329.6" x2="580.8" y1="405.4688" y2="405.4688"/><text fill="#000000" font-family="sans-serif" font-size="10.4" font-weight="bold" lengthAdjust="spacing" textLength="14.4" x="335.2" y="401.675">14</text><text fill="#000000" font-family="sans-serif" font-size="10.4" lengthAdjust="spacing" textLength="108" x="352.8" y="401.675">getPendingRequests()</text><polygon fill="#181818" points="1229.2,425.7172,1237.2,428.9172,1229.2,432.1172,1232.4,428.9172" style="stroke:#181818;stroke-width:0.8000000000000002;"/><line style="stroke:#181818;stroke-width:0.8000000000000002;" x1="593.6" x2="1234" y1="428.9172" y2="428.9172"/><text fill="#000000" font-family="sans-serif" font-size="10.4" font-weight="bold" lengthAdjust="spacing" textLength="14.4" x="599.2" y="425.1234">15</text><text fill="#000000" font-family="sans-serif" font-size="10.4" lengthAdjust="spacing" textLength="299.2" x="616.8" y="425.1234">ensureAuthenticatedUserHasAnyOf(CourseRoles.MANAGER)</text><polygon fill="#181818" points="1622,449.1656,1630,452.3656,1622,455.5656,1625.2,452.3656" style="stroke:#181818;stroke-width:0.8000000000000002;"/><line style="stroke:#181818;stroke-width:0.8000000000000002;" x1="593.6" x2="1626.8" y1="452.3656" y2="452.3656"/><text fill="#000000" font-family="sans-serif" font-size="10.4" font-weight="bold" lengthAdjust="spacing" textLength="14.4" x="599.2" y="448.5719">16</text><text fill="#000000" font-family="sans-serif" font-size="10.4" lengthAdjust="spacing" textLength="112" x="616.8" y="448.5719">findPendingRequests()</text><polygon fill="#181818" points="602.4,472.6141,594.4,475.8141,602.4,479.0141,599.2,475.8141" style="stroke:#181818;stroke-width:0.8000000000000002;"/><line style="stroke:#181818;stroke-width:0.8000000000000002;stroke-dasharray:2.0,2.0;" x1="597.6" x2="1634.8" y1="475.8141" y2="475.8141"/><text fill="#000000" font-family="sans-serif" font-size="10.4" font-weight="bold" lengthAdjust="spacing" textLength="14.4" x="607.2" y="472.0203">17</text><text fill="#000000" font-family="sans-serif" font-size="10.4" lengthAdjust="spacing" textLength="43.2" x="624.8" y="472.0203">requests</text><polygon fill="#181818" points="338.4,496.0625,330.4,499.2625,338.4,502.4625,335.2,499.2625" style="stroke:#181818;stroke-width:0.8000000000000002;"/><line style="stroke:#181818;stroke-width:0.8000000000000002;stroke-dasharray:2.0,2.0;" x1="333.6" x2="588.8" y1="499.2625" y2="499.2625"/><text fill="#000000" font-family="sans-serif" font-size="10.4" font-weight="bold" lengthAdjust="spacing" textLength="14.4" x="343.2" y="495.4688">18</text><text fill="#000000" font-family="sans-serif" font-size="10.4" lengthAdjust="spacing" textLength="43.2" x="360.8" y="495.4688">requests</text><polygon fill="#181818" points="51.2,519.5109,43.2,522.7109,51.2,525.9109,48,522.7109" style="stroke:#181818;stroke-width:0.8000000000000002;"/><line style="stroke:#181818;stroke-width:0.8000000000000002;stroke-dasharray:2.0,2.0;" x1="46.4" x2="320.8" y1="522.7109" y2="522.7109"/><text fill="#000000" font-family="sans-serif" font-size="10.4" font-weight="bold" lengthAdjust="spacing" textLength="14.4" x="56" y="518.9172">19</text><text fill="#000000" font-family="sans-serif" font-size="10.4" lengthAdjust="spacing" textLength="212.8" x="73.6" y="518.9172">shows list of pending enrollment requests</text><polygon fill="#181818" points="312,542.9594,320,546.1594,312,549.3594,315.2,546.1594" style="stroke:#181818;stroke-width:0.8000000000000002;"/><line style="stroke:#181818;stroke-width:0.8000000000000002;" x1="42.4" x2="316.8" y1="546.1594" y2="546.1594"/><text fill="#000000" font-family="sans-serif" font-size="10.4" font-weight="bold" lengthAdjust="spacing" textLength="14.4" x="48" y="542.3656">20</text><text fill="#000000" font-family="sans-serif" font-size="10.4" lengthAdjust="spacing" textLength="56.8" x="65.6" y="542.3656">selects one</text><polygon fill="#181818" points="51.2,566.4078,43.2,569.6078,51.2,572.8078,48,569.6078" style="stroke:#181818;stroke-width:0.8000000000000002;"/><line style="stroke:#181818;stroke-width:0.8000000000000002;stroke-dasharray:2.0,2.0;" x1="46.4" x2="320.8" y1="569.6078" y2="569.6078"/><text fill="#000000" font-family="sans-serif" font-size="10.4" font-weight="bold" lengthAdjust="spacing" textLength="14.4" x="56" y="565.8141">21</text><text fill="#000000" font-family="sans-serif" font-size="10.4" lengthAdjust="spacing" textLength="242.4" x="73.6" y="565.8141">requests to accept or reject the selected request</text><polygon fill="#181818" points="312,589.8563,320,593.0563,312,596.2563,315.2,593.0563" style="stroke:#181818;stroke-width:0.8000000000000002;"/><line style="stroke:#181818;stroke-width:0.8000000000000002;" x1="42.4" x2="316.8" y1="593.0563" y2="593.0563"/><text fill="#000000" font-family="sans-serif" font-size="10.4" font-weight="bold" lengthAdjust="spacing" textLength="14.4" x="48" y="589.2625">22</text><text fill="#000000" font-family="sans-serif" font-size="10.4" lengthAdjust="spacing" textLength="24.8" x="65.6" y="589.2625">reply</text><path d="M8,605.0563 L57.6,605.0563 L57.6,610.9047 L49.6,618.9047 L8,618.9047 L8,605.0563 " fill="#EEEEEE" style="stroke:#000000;stroke-width:1.2000000000000002;"/><rect fill="none" height="570.2297" style="stroke:#000000;stroke-width:1.2000000000000002;" width="1829.6" x="8" y="605.0563"/><text fill="#000000" font-family="sans-serif" font-size="10.4" font-weight="bold" lengthAdjust="spacing" textLength="13.6" x="20" y="615.9109">alt</text><text fill="#000000" font-family="sans-serif" font-size="8.8" font-weight="bold" lengthAdjust="spacing" textLength="39.2" x="69.6" y="615.1641">[accepts]</text><polygon fill="#181818" points="576,632.7531,584,635.9531,576,639.1531,579.2,635.9531" style="stroke:#181818;stroke-width:0.8000000000000002;"/><line style="stroke:#181818;stroke-width:0.8000000000000002;" x1="329.6" x2="580.8" y1="635.9531" y2="635.9531"/><text fill="#000000" font-family="sans-serif" font-size="10.4" font-weight="bold" lengthAdjust="spacing" textLength="14.4" x="335.2" y="632.1594">23</text><text fill="#000000" font-family="sans-serif" font-size="10.4" lengthAdjust="spacing" textLength="76.8" x="352.8" y="632.1594">accept(request)</text><line style="stroke:#181818;stroke-width:0.8000000000000002;" x1="593.6" x2="627.2" y1="659.4016" y2="659.4016"/><line style="stroke:#181818;stroke-width:0.8000000000000002;" x1="627.2" x2="627.2" y1="659.4016" y2="669.8016"/><line style="stroke:#181818;stroke-width:0.8000000000000002;" x1="594.4" x2="627.2" y1="669.8016" y2="669.8016"/><polygon fill="#181818" points="602.4,666.6016,594.4,669.8016,602.4,673.0016,599.2,669.8016" style="stroke:#181818;stroke-width:0.8000000000000002;"/><text fill="#000000" font-family="sans-serif" font-size="10.4" font-weight="bold" lengthAdjust="spacing" textLength="14.4" x="599.2" y="655.6078">24</text><text fill="#000000" font-family="sans-serif" font-size="10.4" lengthAdjust="spacing" textLength="76.8" x="616.8" y="655.6078">accept(request)</text><polygon fill="#181818" points="891.2,690.05,899.2,693.25,891.2,696.45,894.4,693.25" style="stroke:#181818;stroke-width:0.8000000000000002;"/><line style="stroke:#181818;stroke-width:0.8000000000000002;" x1="593.6" x2="896" y1="693.25" y2="693.25"/><text fill="#000000" font-family="sans-serif" font-size="10.4" font-weight="bold" lengthAdjust="spacing" textLength="14.4" x="599.2" y="689.4563">25</text><text fill="#000000" font-family="sans-serif" font-size="10.4" lengthAdjust="spacing" textLength="39.2" x="616.8" y="689.4563">accept()</text><line style="stroke:#181818;stroke-width:0.8000000000000002;" x1="908.8" x2="942.4" y1="720.6984" y2="720.6984"/><line style="stroke:#181818;stroke-width:0.8000000000000002;" x1="942.4" x2="942.4" y1="720.6984" y2="731.0984"/><line style="stroke:#181818;stroke-width:0.8000000000000002;" x1="904.8" x2="942.4" y1="731.0984" y2="731.0984"/><polygon fill="#181818" points="912.8,727.8984,904.8,731.0984,912.8,734.2984,909.6,731.0984" style="stroke:#181818;stroke-width:0.8000000000000002;"/><text fill="#000000" font-family="sans-serif" font-size="10.4" font-weight="bold" lengthAdjust="spacing" textLength="14.4" x="914.4" y="716.9047">26</text><text fill="#000000" font-family="sans-serif" font-size="10.4" lengthAdjust="spacing" textLength="182.4" x="932" y="716.9047">this.state = RequestState.ACCEPTED</text><polygon fill="#181818" points="1622,747.3469,1630,750.5469,1622,753.7469,1625.2,750.5469" style="stroke:#181818;stroke-width:0.8000000000000002;"/><line style="stroke:#181818;stroke-width:0.8000000000000002;" x1="593.6" x2="1626.8" y1="750.5469" y2="750.5469"/><text fill="#000000" font-family="sans-serif" font-size="10.4" font-weight="bold" lengthAdjust="spacing" textLength="14.4" x="599.2" y="746.7531">27</text><text fill="#000000" font-family="sans-serif" font-size="10.4" lengthAdjust="spacing" textLength="66.4" x="616.8" y="746.7531">save(request)</text><polygon fill="#181818" points="602.4,770.7953,594.4,773.9953,602.4,777.1953,599.2,773.9953" style="stroke:#181818;stroke-width:0.8000000000000002;"/><line style="stroke:#181818;stroke-width:0.8000000000000002;stroke-dasharray:2.0,2.0;" x1="597.6" x2="1634.8" y1="773.9953" y2="773.9953"/><text fill="#000000" font-family="sans-serif" font-size="10.4" font-weight="bold" lengthAdjust="spacing" textLength="14.4" x="607.2" y="770.2016">28</text><text fill="#000000" font-family="sans-serif" font-size="10.4" lengthAdjust="spacing" textLength="37.6" x="624.8" y="770.2016">request</text><polygon fill="#181818" points="891.2,794.2438,899.2,797.4438,891.2,800.6438,894.4,797.4438" style="stroke:#181818;stroke-width:0.8000000000000002;"/><line style="stroke:#181818;stroke-width:0.8000000000000002;" x1="593.6" x2="896" y1="797.4438" y2="797.4438"/><text fill="#000000" font-family="sans-serif" font-size="10.4" font-weight="bold" lengthAdjust="spacing" textLength="14.4" x="599.2" y="793.65">29</text><text fill="#000000" font-family="sans-serif" font-size="10.4" lengthAdjust="spacing" textLength="40" x="616.8" y="793.65">course()</text><polygon fill="#181818" points="602.4,817.6922,594.4,820.8922,602.4,824.0922,599.2,820.8922" style="stroke:#181818;stroke-width:0.8000000000000002;"/><line style="stroke:#181818;stroke-width:0.8000000000000002;stroke-dasharray:2.0,2.0;" x1="597.6" x2="904" y1="820.8922" y2="820.8922"/><text fill="#000000" font-family="sans-serif" font-size="10.4" font-weight="bold" lengthAdjust="spacing" textLength="14.4" x="607.2" y="817.0984">30</text><text fill="#000000" font-family="sans-serif" font-size="10.4" lengthAdjust="spacing" textLength="33.6" x="624.8" y="817.0984">course</text><polygon fill="#181818" points="1764.8,841.1406,1772.8,844.3406,1764.8,847.5406,1768,844.3406" style="stroke:#181818;stroke-width:0.8000000000000002;"/><line style="stroke:#181818;stroke-width:0.8000000000000002;" x1="593.6" x2="1769.6" y1="844.3406" y2="844.3406"/><text fill="#000000" font-family="sans-serif" font-size="10.4" font-weight="bold" lengthAdjust="spacing" textLength="14.4" x="599.2" y="840.5469">31</text><text fill="#000000" font-family="sans-serif" font-size="10.4" lengthAdjust="spacing" textLength="62.4" x="616.8" y="840.5469">save(course)</text><polygon fill="#181818" points="602.4,864.5891,594.4,867.7891,602.4,870.9891,599.2,867.7891" style="stroke:#181818;stroke-width:0.8000000000000002;"/><line style="stroke:#181818;stroke-width:0.8000000000000002;stroke-dasharray:2.0,2.0;" x1="597.6" x2="1777.6" y1="867.7891" y2="867.7891"/><text fill="#000000" font-family="sans-serif" font-size="10.4" font-weight="bold" lengthAdjust="spacing" textLength="14.4" x="607.2" y="863.9953">32</text><text fill="#000000" font-family="sans-serif" font-size="10.4" lengthAdjust="spacing" textLength="33.6" x="624.8" y="863.9953">course</text><polygon fill="#181818" points="338.4,888.0375,330.4,891.2375,338.4,894.4375,335.2,891.2375" style="stroke:#181818;stroke-width:0.8000000000000002;"/><line style="stroke:#181818;stroke-width:0.8000000000000002;stroke-dasharray:2.0,2.0;" x1="333.6" x2="588.8" y1="891.2375" y2="891.2375"/><text fill="#000000" font-family="sans-serif" font-size="10.4" font-weight="bold" lengthAdjust="spacing" textLength="14.4" x="343.2" y="887.4438">33</text><text fill="#000000" font-family="sans-serif" font-size="10.4" lengthAdjust="spacing" textLength="37.6" x="360.8" y="887.4438">request</text><polygon fill="#181818" points="51.2,911.4859,43.2,914.6859,51.2,917.8859,48,914.6859" style="stroke:#181818;stroke-width:0.8000000000000002;"/><line style="stroke:#181818;stroke-width:0.8000000000000002;stroke-dasharray:2.0,2.0;" x1="46.4" x2="320.8" y1="914.6859" y2="914.6859"/><text fill="#000000" font-family="sans-serif" font-size="10.4" font-weight="bold" lengthAdjust="spacing" textLength="14.4" x="56" y="910.8922">34</text><text fill="#000000" font-family="sans-serif" font-size="10.4" lengthAdjust="spacing" textLength="133.6" x="73.6" y="910.8922">informs operation success</text><line style="stroke:#000000;stroke-width:0.8000000000000002;stroke-dasharray:2.0,2.0;" x1="8" x2="1837.6" y1="921.8859" y2="921.8859"/><text fill="#000000" font-family="sans-serif" font-size="8.8" font-weight="bold" lengthAdjust="spacing" textLength="36" x="12" y="930.3938">[rejects]</text><polygon fill="#181818" points="576,946.8984,584,950.0984,576,953.2984,579.2,950.0984" style="stroke:#181818;stroke-width:0.8000000000000002;"/><line style="stroke:#181818;stroke-width:0.8000000000000002;stroke-dasharray:2.0,2.0;" x1="329.6" x2="580.8" y1="950.0984" y2="950.0984"/><text fill="#000000" font-family="sans-serif" font-size="10.4" font-weight="bold" lengthAdjust="spacing" textLength="14.4" x="335.2" y="946.3047">35</text><text fill="#000000" font-family="sans-serif" font-size="10.4" lengthAdjust="spacing" textLength="72" x="352.8" y="946.3047">reject(request)</text><line style="stroke:#181818;stroke-width:0.8000000000000002;" x1="593.6" x2="631.2" y1="969.5469" y2="969.5469"/><line style="stroke:#181818;stroke-width:0.8000000000000002;" x1="631.2" x2="631.2" y1="969.5469" y2="979.9469"/><line style="stroke:#181818;stroke-width:0.8000000000000002;" x1="598.4" x2="631.2" y1="979.9469" y2="979.9469"/><polygon fill="#181818" points="606.4,976.7469,598.4,979.9469,606.4,983.1469,603.2,979.9469" style="stroke:#181818;stroke-width:0.8000000000000002;"/><text fill="#000000" font-family="sans-serif" font-size="10.4" font-weight="bold" lengthAdjust="spacing" textLength="14.4" x="603.2" y="965.7531">36</text><text fill="#000000" font-family="sans-serif" font-size="10.4" lengthAdjust="spacing" textLength="72" x="620.8" y="965.7531">reject(request)</text><polygon fill="#181818" points="891.2,1004.1953,899.2,1007.3953,891.2,1010.5953,894.4,1007.3953" style="stroke:#181818;stroke-width:0.8000000000000002;"/><line style="stroke:#181818;stroke-width:0.8000000000000002;" x1="597.6" x2="896" y1="1007.3953" y2="1007.3953"/><text fill="#000000" font-family="sans-serif" font-size="10.4" font-weight="bold" lengthAdjust="spacing" textLength="14.4" x="603.2" y="1003.6016">37</text><text fill="#000000" font-family="sans-serif" font-size="10.4" lengthAdjust="spacing" textLength="34.4" x="620.8" y="1003.6016">reject()</text><line style="stroke:#181818;stroke-width:0.8000000000000002;" x1="908.8" x2="942.4" y1="1034.8438" y2="1034.8438"/><line style="stroke:#181818;stroke-width:0.8000000000000002;" x1="942.4" x2="942.4" y1="1034.8438" y2="1045.2438"/><line style="stroke:#181818;stroke-width:0.8000000000000002;" x1="904.8" x2="942.4" y1="1045.2438" y2="1045.2438"/><polygon fill="#181818" points="912.8,1042.0438,904.8,1045.2438,912.8,1048.4438,909.6,1045.2438" style="stroke:#181818;stroke-width:0.8000000000000002;"/><text fill="#000000" font-family="sans-serif" font-size="10.4" font-weight="bold" lengthAdjust="spacing" textLength="14.4" x="914.4" y="1031.05">38</text><text fill="#000000" font-family="sans-serif" font-size="10.4" lengthAdjust="spacing" textLength="177.6" x="932" y="1031.05">this.state = RequestState.REJECTED</text><polygon fill="#181818" points="1622,1061.4922,1630,1064.6922,1622,1067.8922,1625.2,1064.6922" style="stroke:#181818;stroke-width:0.8000000000000002;"/><line style="stroke:#181818;stroke-width:0.8000000000000002;" x1="597.6" x2="1626.8" y1="1064.6922" y2="1064.6922"/><text fill="#000000" font-family="sans-serif" font-size="10.4" font-weight="bold" lengthAdjust="spacing" textLength="14.4" x="603.2" y="1060.8984">39</text><text fill="#000000" font-family="sans-serif" font-size="10.4" lengthAdjust="spacing" textLength="66.4" x="620.8" y="1060.8984">save(request)</text><polygon fill="#181818" points="606.4,1084.9406,598.4,1088.1406,606.4,1091.3406,603.2,1088.1406" style="stroke:#181818;stroke-width:0.8000000000000002;"/><line style="stroke:#181818;stroke-width:0.8000000000000002;stroke-dasharray:2.0,2.0;" x1="601.6" x2="1634.8" y1="1088.1406" y2="1088.1406"/><text fill="#000000" font-family="sans-serif" font-size="10.4" font-weight="bold" lengthAdjust="spacing" textLength="14.4" x="611.2" y="1084.3469">40</text><text fill="#000000" font-family="sans-serif" font-size="10.4" lengthAdjust="spacing" textLength="37.6" x="628.8" y="1084.3469">request</text><line style="stroke:#181818;stroke-width:0.8000000000000002;stroke-dasharray:2.0,2.0;" x1="597.6" x2="631.2" y1="1115.5891" y2="1115.5891"/><line style="stroke:#181818;stroke-width:0.8000000000000002;stroke-dasharray:2.0,2.0;" x1="631.2" x2="631.2" y1="1115.5891" y2="1125.9891"/><line style="stroke:#181818;stroke-width:0.8000000000000002;stroke-dasharray:2.0,2.0;" x1="593.6" x2="631.2" y1="1125.9891" y2="1125.9891"/><polygon fill="#181818" points="601.6,1122.7891,593.6,1125.9891,601.6,1129.1891,598.4,1125.9891" style="stroke:#181818;stroke-width:0.8000000000000002;"/><text fill="#000000" font-family="sans-serif" font-size="10.4" font-weight="bold" lengthAdjust="spacing" textLength="14.4" x="603.2" y="1111.7953">41</text><text fill="#000000" font-family="sans-serif" font-size="10.4" lengthAdjust="spacing" textLength="37.6" x="620.8" y="1111.7953">request</text><polygon fill="#181818" points="338.4,1142.2375,330.4,1145.4375,338.4,1148.6375,335.2,1145.4375" style="stroke:#181818;stroke-width:0.8000000000000002;"/><line style="stroke:#181818;stroke-width:0.8000000000000002;stroke-dasharray:2.0,2.0;" x1="333.6" x2="588.8" y1="1145.4375" y2="1145.4375"/><text fill="#000000" font-family="sans-serif" font-size="10.4" font-weight="bold" lengthAdjust="spacing" textLength="14.4" x="343.2" y="1141.6438">42</text><text fill="#000000" font-family="sans-serif" font-size="10.4" lengthAdjust="spacing" textLength="37.6" x="360.8" y="1141.6438">request</text><polygon fill="#181818" points="51.2,1165.6859,43.2,1168.8859,51.2,1172.0859,48,1168.8859" style="stroke:#181818;stroke-width:0.8000000000000002;"/><line style="stroke:#181818;stroke-width:0.8000000000000002;stroke-dasharray:2.0,2.0;" x1="46.4" x2="320.8" y1="1168.8859" y2="1168.8859"/><text fill="#000000" font-family="sans-serif" font-size="10.4" font-weight="bold" lengthAdjust="spacing" textLength="14.4" x="56" y="1165.0922">43</text><text fill="#000000" font-family="sans-serif" font-size="10.4" lengthAdjust="spacing" textLength="133.6" x="73.6" y="1165.0922">informs operation success</text><!--SRC=[jLLPRjim4FtNAVXf0qqEOA053DVTWBI6t1o0aSSs2vbKEPGJv_GTBbf8oweAfFgIg3VRcpT3NXibwzCJw2pZXL6QFN393w0PHtRohrbMSMr48Iek3LiM1LGcXrzGcBNKgYnF8CtZLsjGYodObPB6lliWXT5bRDKXS_XT0neBq_urTb-RusiE1u56Npp8lr-Xb1Qlt0Wbjw3FeW0BvjOwZhm1ZUG0P04sINWnFiEN29L3fL0GLvTFZh8GkbBXCzjnmvyumdKbdMbZqu5NgjO8CQ98pZ9wGbVOtGVYcoqQPf0PnRZ4P_fLWTm9UM3GnczHjilYp0suPf43SaC5EZyXYW2SpJkSBTyYxhg0IVtP3Y9qSDkZXAmWvI8AqgUlRzS6XTjKziFt_RHf184iNCjJASHP1FsqDZv-725WMl9qIQuB3VHtDfBcEnT-UouYRgtudOj_waC8-jTED9xZLdXLJUQ_gJ3LuYtQkt8cCvFwdiU5M98YjWzWDbxZGsAAMNLpxXI4jGQx3IW7KH1mzuYWlt1SoikF_IpCdoe1xn-MtvUVr_ayYnWa9tiXToEHtKGx0kCsXTbB66kyfvCyN3oXcj5VC3ogPsGbAP6f_UYyN-qBX9BMCJ8bOS1nj4tS-cPqAMYtmXbH5ynXrsxaWOLKbIG3NfhW0PFk-TDPS30o3eFeNalyxT12eaQ4v1fGX3T7WVTeBF0z2ttSsi_xvMgrtlnSVypYNWLdgHgGds6W3DVR6oAufO5-UduQXiffgqd7SZ3TbiZqPWcP-_C-_-c8NrcE1XwuhGO5Fa7VGkwLFf58Az1kMpEigSb8Ke8I8GWIMykMP7iyLLaJqLrZWi4Rw2nVVrklRkhi_ybi5DWl-orRHjk9qJR8tFC7]--></g></svg>