<?xml version="1.0" encoding="UTF-8" standalone="no"?>
<!DOCTYPE svg PUBLIC "-//W3C//DTD SVG 1.1//EN"
        "http://www.w3.org/Graphics/SVG/1.1/DTD/svg11.dtd">
<!-- Generated by graphviz version 2.44.1 (20200629.0846)
 -->
<!-- Title: g Pages: 1 -->
<svg width="786pt" height="563pt"
     viewBox="0.00 0.00 786.00 563.20" xmlns="http://www.w3.org/2000/svg">
    <g id="graph0" class="graph" transform="scale(1 1) rotate(0) translate(4 559.2)">
        <title>g</title>
        <polygon fill="white" stroke="transparent" points="-4,4 -4,-559.2 782,-559.2 782,4 -4,4"/>
        <g id="clust1" class="cluster">
            <title>cluster_1911013184</title>
            <polygon fill="#ececec" stroke="black" points="8,-8 8,-547.2 770,-547.2 770,-8 8,-8"/>
            <text text-anchor="middle" x="37.37" y="-530.6" font-family="Times New Roman,serif" font-size="14.00">
                ecourse
            </text>
        </g>
        <g id="clust2" class="cluster">
            <title>cluster_861892108</title>
            <polygon fill="#d8d8d8" stroke="black" points="16,-16 16,-514.4 762,-514.4 762,-16 16,-16"/>
            <text text-anchor="middle" x="78.03" y="-497.8" font-family="Times New Roman,serif" font-size="14.00">
                coursemanagement
            </text>
        </g>
        <!-- Course1854509879 -->
        <g id="node1" class="node">
            <title>Course1854509879</title>
            <polygon fill="#ffffff" stroke="transparent"
                     points="478,-481.6 278,-481.6 278,-263.6 478,-263.6 478,-481.6"/>
            <text text-anchor="start" x="283" y="-464" font-family="Times New Roman,serif" font-size="14.00">(C)Course
            </text>
            <text text-anchor="start" x="283" y="-440" font-family="Times New Roman,serif" font-size="14.00">&#45;
                &#160;&#160;courseId: Long [0..1]
            </text>
            <text text-anchor="start" x="283" y="-416" font-family="Times New Roman,serif" font-size="14.00">&#45;
                &#160;&#160;description: Description [0..1]
            </text>
            <text text-anchor="start" x="283" y="-392" font-family="Times New Roman,serif" font-size="14.00">&#45;
                &#160;&#160;enrollLimit: EnrollLimit [0..1]
            </text>
            <text text-anchor="start" x="283" y="-368" font-family="Times New Roman,serif" font-size="14.00">&#45;
                &#160;&#160;name: Name [0..1]
            </text>
            <text text-anchor="start" x="283" y="-344" font-family="Times New Roman,serif" font-size="14.00">&#45;
                &#160;&#160;state: State [0..1]
            </text>
            <text text-anchor="start" x="283" y="-320" font-family="Times New Roman,serif" font-size="14.00">+ id():
                Long
            </text>
            <text text-anchor="start" x="283" y="-296" font-family="Times New Roman,serif" font-size="14.00">+
                identity(): Long
            </text>
            <text text-anchor="start" x="282.89" y="-272" font-family="Times New Roman,serif" font-size="14.00">+
                sameAs(other: Object): boolean
            </text>
            <polygon fill="black" stroke="black" points="278,-456.6 278,-456.6 478,-456.6 478,-456.6 278,-456.6"/>
            <polygon fill="black" stroke="black" points="278,-336.6 278,-336.6 478,-336.6 478,-336.6 278,-336.6"/>
            <polygon fill="none" stroke="black" points="278,-263.6 278,-481.6 478,-481.6 478,-263.6 278,-263.6"/>
        </g>
        <!-- Description1854509879 -->
        <g id="node2" class="node">
            <title>Description1854509879</title>
            <polygon fill="#ffffff" stroke="transparent" points="186,-134 24,-134 24,-84 186,-84 186,-134"/>
            <text text-anchor="start" x="29" y="-116.4" font-family="Times New Roman,serif" font-size="14.00">
                (C)Description
            </text>
            <text text-anchor="start" x="28.6" y="-92.4" font-family="Times New Roman,serif" font-size="14.00">&#45;
                &#160;&#160;description: String [0..1]
            </text>
            <polygon fill="black" stroke="black" points="24,-109 24,-109 186,-109 186,-109 24,-109"/>
            <polygon fill="none" stroke="black" points="24,-84 24,-134 186,-134 186,-84 24,-84"/>
        </g>
        <!-- Course1854509879&#45;&gt;Description1854509879 -->
        <g id="edge1" class="edge">
            <title>Course1854509879&#45;&gt;Description1854509879</title>
            <path fill="none" stroke="black" d="M277.9,-275.68C228.52,-228.36 172.29,-174.48 137.72,-141.36"/>
            <polygon fill="black" stroke="black" points="139.91,-138.6 130.26,-134.21 135.06,-143.66 139.91,-138.6"/>
            <text text-anchor="middle" x="272.1" y="-233" font-family="Times New Roman,serif" font-size="14.00">
                description
            </text>
            <text text-anchor="middle" x="272.1" y="-216.2" font-family="Times New Roman,serif" font-size="14.00">
                [0..1]
            </text>
        </g>
        <!-- EnrollLimit1854509879 -->
        <g id="node3" class="node">
            <title>EnrollLimit1854509879</title>
            <polygon fill="#ffffff" stroke="transparent" points="369.5,-146 204.5,-146 204.5,-72 369.5,-72 369.5,-146"/>
            <text text-anchor="start" x="210" y="-128.4" font-family="Times New Roman,serif" font-size="14.00">
                (C)EnrollLimit
            </text>
            <text text-anchor="start" x="209.94" y="-104.4" font-family="Times New Roman,serif" font-size="14.00">&#45;
                &#160;&#160;maxEnroll: Integer [0..1]
            </text>
            <text text-anchor="start" x="210" y="-80.4" font-family="Times New Roman,serif" font-size="14.00">&#45;
                &#160;&#160;minEnroll: Integer [0..1]
            </text>
            <polygon fill="black" stroke="black" points="205,-121 205,-121 370,-121 370,-121 205,-121"/>
            <polygon fill="none" stroke="black" points="204.5,-72 204.5,-146 369.5,-146 369.5,-72 204.5,-72"/>
        </g>
        <!-- Course1854509879&#45;&gt;EnrollLimit1854509879 -->
        <g id="edge2" class="edge">
            <title>Course1854509879&#45;&gt;EnrollLimit1854509879</title>
            <path fill="none" stroke="black" d="M340.33,-263.31C327.24,-225.68 313.26,-185.48 302.89,-155.69"/>
            <polygon fill="black" stroke="black" points="306.12,-154.3 299.53,-146.01 299.51,-156.6 306.12,-154.3"/>
            <text text-anchor="middle" x="363.89" y="-233" font-family="Times New Roman,serif" font-size="14.00">
                enrollLimit
            </text>
            <text text-anchor="middle" x="363.89" y="-216.2" font-family="Times New Roman,serif" font-size="14.00">
                [0..1]
            </text>
        </g>
        <!-- Name1854509879 -->
        <g id="node4" class="node">
            <title>Name1854509879</title>
            <polygon fill="#ffffff" stroke="transparent" points="552,-146 388,-146 388,-72 552,-72 552,-146"/>
            <text text-anchor="start" x="393" y="-128.4" font-family="Times New Roman,serif" font-size="14.00">(C)Name
            </text>
            <text text-anchor="start" x="393" y="-104.4" font-family="Times New Roman,serif" font-size="14.00">&#45;
                &#160;&#160;name: String [0..1]
            </text>
            <text text-anchor="start" x="392.77" y="-80.4" font-family="Times New Roman,serif" font-size="14.00">+
                compareTo(o: Name): int
            </text>
            <polygon fill="black" stroke="black" points="388,-121 388,-121 552,-121 552,-121 388,-121"/>
            <polygon fill="black" stroke="black" points="388,-97 388,-97 552,-97 552,-97 388,-97"/>
            <polygon fill="none" stroke="black" points="388,-72 388,-146 552,-146 552,-72 388,-72"/>
        </g>
        <!-- Course1854509879&#45;&gt;Name1854509879 -->
        <g id="edge3" class="edge">
            <title>Course1854509879&#45;&gt;Name1854509879</title>
            <path fill="none" stroke="black" d="M416.08,-263.31C429.32,-225.68 443.46,-185.48 453.93,-155.69"/>
            <polygon fill="black" stroke="black" points="457.32,-156.6 457.34,-146.01 450.72,-154.28 457.32,-156.6"/>
            <text text-anchor="middle" x="447.16" y="-233" font-family="Times New Roman,serif" font-size="14.00">name
            </text>
            <text text-anchor="middle" x="447.16" y="-216.2" font-family="Times New Roman,serif" font-size="14.00">
                [0..1]
            </text>
        </g>
        <!-- State1854509879 -->
        <g id="node5" class="node">
            <title>State1854509879</title>
            <polygon fill="#dcfbd5" stroke="transparent" points="753.5,-194 570.5,-194 570.5,-24 753.5,-24 753.5,-194"/>
            <text text-anchor="start" x="576" y="-176.4" font-family="Times New Roman,serif" font-size="14.00">
                (E)State
            </text>
            <text text-anchor="start" x="576" y="-152.4" font-family="Times New Roman,serif" font-size="14.00">+ &#160;&#160;CLOSED:
                State [1]
            </text>
            <text text-anchor="start" x="576" y="-128.4" font-family="Times New Roman,serif" font-size="14.00">+ &#160;&#160;ENROLL:
                State [1]
            </text>
            <text text-anchor="start" x="576" y="-104.4" font-family="Times New Roman,serif" font-size="14.00">+ &#160;&#160;OPEN:
                State [1]
            </text>
            <text text-anchor="start" x="576" y="-80.4" font-family="Times New Roman,serif" font-size="14.00">+ &#160;&#160;PROGRESS:
                State [1]
            </text>
            <text text-anchor="start" x="575.94" y="-56.4" font-family="Times New Roman,serif" font-size="14.00">+
                valueOf(name: String): State
            </text>
            <text text-anchor="start" x="576" y="-32.4" font-family="Times New Roman,serif" font-size="14.00">+
                values(): State[]
            </text>
            <polygon fill="black" stroke="black" points="571,-169 571,-169 754,-169 754,-169 571,-169"/>
            <polygon fill="black" stroke="black" points="571,-73 571,-73 754,-73 754,-73 571,-73"/>
            <polygon fill="none" stroke="black" points="570.5,-24 570.5,-194 753.5,-194 753.5,-24 570.5,-24"/>
        </g>
        <!-- Course1854509879&#45;&gt;State1854509879 -->
        <g id="edge4" class="edge">
            <title>Course1854509879&#45;&gt;State1854509879</title>
            <path fill="none" stroke="black" d="M478.13,-279.37C505.57,-254.09 535.31,-226.7 562.7,-201.47"/>
            <polygon fill="black" stroke="black" points="565.38,-203.76 570.36,-194.41 560.64,-198.61 565.38,-203.76"/>
            <text text-anchor="middle" x="560.16" y="-233" font-family="Times New Roman,serif" font-size="14.00">state
            </text>
            <text text-anchor="middle" x="560.16" y="-216.2" font-family="Times New Roman,serif" font-size="14.00">
                [0..1]
            </text>
        </g>
    </g>
</svg>
