<?xml version="1.0" encoding="UTF-8" standalone="no"?>
<!DOCTYPE svg PUBLIC "-//W3C//DTD SVG 1.1//EN"
 "http://www.w3.org/Graphics/SVG/1.1/DTD/svg11.dtd">
<!-- Generated by graphviz version 2.44.1 (20200629.0846)
 -->
<!-- Title: g Pages: 1 -->
<svg width="994pt" height="757pt"
 viewBox="0.00 0.00 994.00 757.00" xmlns="http://www.w3.org/2000/svg" xmlns:xlink="http://www.w3.org/1999/xlink">
<g id="graph0" class="graph" transform="scale(1 1) rotate(0) translate(4 753)">
<title>g</title>
<polygon fill="white" stroke="transparent" points="-4,4 -4,-753 990,-753 990,4 -4,4"/>
<g id="clust1" class="cluster">
<title>cluster_1911013184</title>
<polygon fill="#ececec" stroke="black" points="8,-8 8,-741 978,-741 978,-8 8,-8"/>
<text text-anchor="middle" x="37.37" y="-724.4" font-family="Times New Roman,serif" font-size="14.00">ecourse</text>
</g>
<g id="clust4" class="cluster">
<title>cluster_861892108</title>
<polygon fill="#d8d8d8" stroke="black" points="16,-16 16,-517.8 590,-517.8 590,-16 16,-16"/>
<text text-anchor="middle" x="78.03" y="-501.2" font-family="Times New Roman,serif" font-size="14.00">coursemanagement</text>
</g>
<g id="clust2" class="cluster">
<title>cluster_1386234867</title>
<polygon fill="#d8d8d8" stroke="black" points="175,-569.4 175,-708.2 431,-708.2 431,-569.4 175,-569.4"/>
<text text-anchor="middle" x="193.11" y="-691.6" font-family="Times New Roman,serif" font-size="14.00">app</text>
</g>
<g id="clust3" class="cluster">
<title>cluster_489743759</title>
<polygon fill="#d8d8d8" stroke="black" points="598,-35 598,-111.8 970,-111.8 970,-35 598,-35"/>
<text text-anchor="middle" x="637.09" y="-95.2" font-family="Times New Roman,serif" font-size="14.00">persistence</text>
</g>
<!-- CreateCourseUI375150821 -->
<g id="node1" class="node">
<title>CreateCourseUI375150821</title>
<polygon fill="#ffffff" stroke="transparent" points="423,-675.4 183,-675.4 183,-577.4 423,-577.4 423,-675.4"/>
<text text-anchor="start" x="188" y="-657.8" font-family="Times New Roman,serif" font-size="14.00">(C)CreateCourseUI</text>
<text text-anchor="start" x="187.74" y="-633.8" font-family="Times New Roman,serif" font-size="14.00">&#45; &#160;&#160;controller: CreateCourseController [1]</text>
<text text-anchor="start" x="188" y="-609.8" font-family="Times New Roman,serif" font-size="14.00"># doShow(): boolean</text>
<text text-anchor="start" x="188" y="-585.8" font-family="Times New Roman,serif" font-size="14.00">+ headline(): String</text>
<polygon fill="black" stroke="black" points="183,-650.4 183,-650.4 423,-650.4 423,-650.4 183,-650.4"/>
<polygon fill="black" stroke="black" points="183,-626.4 183,-626.4 423,-626.4 423,-626.4 183,-626.4"/>
<polygon fill="none" stroke="black" points="183,-577.4 183,-675.4 423,-675.4 423,-577.4 183,-577.4"/>
</g>
<!-- CreateCourseController427251605 -->
<g id="node6" class="node">
<title>CreateCourseController427251605</title>
<polygon fill="#ffffff" stroke="transparent" points="581.5,-485 24.5,-485 24.5,-363 581.5,-363 581.5,-485"/>
<text text-anchor="start" x="30" y="-467.4" font-family="Times New Roman,serif" font-size="14.00">(C)CreateCourseController</text>
<text text-anchor="start" x="30" y="-443.4" font-family="Times New Roman,serif" font-size="14.00">&#45; &#160;&#160;authz: AuthorizationService [1]</text>
<text text-anchor="start" x="30" y="-419.4" font-family="Times New Roman,serif" font-size="14.00">&#45; &#160;&#160;courseRepository: CourseRepository [1]</text>
<text text-anchor="start" x="30" y="-395.4" font-family="Times New Roman,serif" font-size="14.00">+ createCourse(name: String, description: String): Course</text>
<text text-anchor="start" x="29.74" y="-371.4" font-family="Times New Roman,serif" font-size="14.00">+ createCourse(name: String, description: String, minEnroll: Integer, maxEnroll: Integer): Course</text>
<polygon fill="black" stroke="black" points="25,-460 25,-460 582,-460 582,-460 25,-460"/>
<polygon fill="black" stroke="black" points="25,-412 25,-412 582,-412 582,-412 25,-412"/>
<polygon fill="none" stroke="black" points="24.5,-363 24.5,-485 581.5,-485 581.5,-363 24.5,-363"/>
</g>
<!-- CreateCourseUI375150821&#45;&gt;CreateCourseController427251605 -->
<g id="edge8" class="edge">
<title>CreateCourseUI375150821&#45;&gt;CreateCourseController427251605</title>
<path fill="none" stroke="black" d="M303,-577.4C303,-552.86 303,-522.52 303,-495.4"/>
<polygon fill="black" stroke="black" points="306.5,-495.17 303,-485.17 299.5,-495.17 306.5,-495.17"/>
<text text-anchor="middle" x="330.21" y="-546.8" font-family="Times New Roman,serif" font-size="14.00">controller</text>
<text text-anchor="middle" x="330.21" y="-530" font-family="Times New Roman,serif" font-size="14.00">[1]</text>
</g>
<!-- InMemoryCourseRepository650943782 -->
<g id="node2" class="node">
<title>InMemoryCourseRepository650943782</title>
<polygon fill="#ffffff" stroke="transparent" points="795.5,-79 606.5,-79 606.5,-43 795.5,-43 795.5,-79"/>
<text text-anchor="start" x="611.69" y="-56.4" font-family="Times New Roman,serif" font-size="14.00">(C)InMemoryCourseRepository</text>
<polygon fill="none" stroke="black" points="606.5,-48 606.5,-74 795.5,-74 795.5,-48 606.5,-48"/>
</g>
<!-- JpaCourseRepository1852613913 -->
<g id="node3" class="node">
<title>JpaCourseRepository1852613913</title>
<polygon fill="#ffffff" stroke="transparent" points="962,-79 814,-79 814,-43 962,-43 962,-79"/>
<text text-anchor="start" x="818.79" y="-56.4" font-family="Times New Roman,serif" font-size="14.00">(C)JpaCourseRepository</text>
<polygon fill="none" stroke="black" points="814,-48 814,-74 962,-74 962,-48 814,-48"/>
</g>
<!-- CourseBuilder1854509879 -->
<g id="node4" class="node">
<title>CourseBuilder1854509879</title>
<polygon fill="#ffffff" stroke="transparent" points="401,-293.4 205,-293.4 205,-171.4 401,-171.4 401,-293.4"/>
<text text-anchor="start" x="210" y="-275.8" font-family="Times New Roman,serif" font-size="14.00">(C)CourseBuilder</text>
<text text-anchor="start" x="210" y="-251.8" font-family="Times New Roman,serif" font-size="14.00">&#45; &#160;&#160;description: Description [1]</text>
<text text-anchor="start" x="209.87" y="-227.8" font-family="Times New Roman,serif" font-size="14.00">&#45; &#160;&#160;enrollLimit: EnrollLimit [0..1]</text>
<text text-anchor="start" x="210" y="-203.8" font-family="Times New Roman,serif" font-size="14.00">&#45; &#160;&#160;name: Name [1]</text>
<text text-anchor="start" x="210" y="-179.8" font-family="Times New Roman,serif" font-size="14.00">+ build(): Course</text>
<polygon fill="black" stroke="black" points="205,-268.4 205,-268.4 401,-268.4 401,-268.4 205,-268.4"/>
<polygon fill="black" stroke="black" points="205,-196.4 205,-196.4 401,-196.4 401,-196.4 205,-196.4"/>
<polygon fill="none" stroke="black" points="205,-171.4 205,-293.4 401,-293.4 401,-171.4 205,-171.4"/>
</g>
<!-- Description1854509879 -->
<g id="node7" class="node">
<title>Description1854509879</title>
<polygon fill="#ffffff" stroke="transparent" points="202,-86 54,-86 54,-36 202,-36 202,-86"/>
<text text-anchor="start" x="59" y="-68.4" font-family="Times New Roman,serif" font-size="14.00">(C)Description</text>
<text text-anchor="start" x="58.6" y="-44.4" font-family="Times New Roman,serif" font-size="14.00">&#45; &#160;&#160;description: String [1]</text>
<polygon fill="black" stroke="black" points="54,-61 54,-61 202,-61 202,-61 54,-61"/>
<polygon fill="none" stroke="black" points="54,-36 54,-86 202,-86 202,-36 54,-36"/>
</g>
<!-- CourseBuilder1854509879&#45;&gt;Description1854509879 -->
<g id="edge1" class="edge">
<title>CourseBuilder1854509879&#45;&gt;Description1854509879</title>
<path fill="none" stroke="black" d="M240.81,-171.2C213.62,-144.88 182.87,-115.12 160.35,-93.31"/>
<polygon fill="black" stroke="black" points="162.66,-90.68 153.04,-86.24 157.79,-95.71 162.66,-90.68"/>
<text text-anchor="middle" x="251.1" y="-140.8" font-family="Times New Roman,serif" font-size="14.00">description</text>
<text text-anchor="middle" x="251.1" y="-124" font-family="Times New Roman,serif" font-size="14.00">[1]</text>
</g>
<!-- EnrollLimit1854509879 -->
<g id="node8" class="node">
<title>EnrollLimit1854509879</title>
<polygon fill="#ffffff" stroke="transparent" points="385.5,-98 220.5,-98 220.5,-24 385.5,-24 385.5,-98"/>
<text text-anchor="start" x="226" y="-80.4" font-family="Times New Roman,serif" font-size="14.00">(C)EnrollLimit</text>
<text text-anchor="start" x="225.94" y="-56.4" font-family="Times New Roman,serif" font-size="14.00">&#45; &#160;&#160;maxEnroll: Integer [0..1]</text>
<text text-anchor="start" x="226" y="-32.4" font-family="Times New Roman,serif" font-size="14.00">&#45; &#160;&#160;minEnroll: Integer [0..1]</text>
<polygon fill="black" stroke="black" points="221,-73 221,-73 386,-73 386,-73 221,-73"/>
<polygon fill="none" stroke="black" points="220.5,-24 220.5,-98 385.5,-98 385.5,-24 220.5,-24"/>
</g>
<!-- CourseBuilder1854509879&#45;&gt;EnrollLimit1854509879 -->
<g id="edge2" class="edge">
<title>CourseBuilder1854509879&#45;&gt;EnrollLimit1854509879</title>
<path fill="none" stroke="black" d="M303,-171.2C303,-150.56 303,-127.8 303,-108.43"/>
<polygon fill="black" stroke="black" points="306.5,-108.34 303,-98.34 299.5,-108.34 306.5,-108.34"/>
<text text-anchor="middle" x="334.89" y="-140.8" font-family="Times New Roman,serif" font-size="14.00">enrollLimit</text>
<text text-anchor="middle" x="334.89" y="-124" font-family="Times New Roman,serif" font-size="14.00">[0..1]</text>
</g>
<!-- Name1854509879 -->
<g id="node9" class="node">
<title>Name1854509879</title>
<polygon fill="#ffffff" stroke="transparent" points="568,-98 404,-98 404,-24 568,-24 568,-98"/>
<text text-anchor="start" x="409" y="-80.4" font-family="Times New Roman,serif" font-size="14.00">(C)Name</text>
<text text-anchor="start" x="409" y="-56.4" font-family="Times New Roman,serif" font-size="14.00">&#45; &#160;&#160;name: String [1]</text>
<text text-anchor="start" x="408.77" y="-32.4" font-family="Times New Roman,serif" font-size="14.00">+ compareTo(o: Name): int</text>
<polygon fill="black" stroke="black" points="404,-73 404,-73 568,-73 568,-73 404,-73"/>
<polygon fill="black" stroke="black" points="404,-49 404,-49 568,-49 568,-49 404,-49"/>
<polygon fill="none" stroke="black" points="404,-24 404,-98 568,-98 568,-24 404,-24"/>
</g>
<!-- CourseBuilder1854509879&#45;&gt;Name1854509879 -->
<g id="edge3" class="edge">
<title>CourseBuilder1854509879&#45;&gt;Name1854509879</title>
<path fill="none" stroke="black" d="M368.03,-171.2C391.65,-149.34 417.84,-125.09 439.54,-105.01"/>
<polygon fill="black" stroke="black" points="442.05,-107.45 447.01,-98.09 437.29,-102.32 442.05,-107.45"/>
<text text-anchor="middle" x="436.16" y="-140.8" font-family="Times New Roman,serif" font-size="14.00">name</text>
<text text-anchor="middle" x="436.16" y="-124" font-family="Times New Roman,serif" font-size="14.00">[1]</text>
</g>
<!-- CourseRepository816628141 -->
<g id="node5" class="node">
<title>CourseRepository816628141</title>
<polygon fill="#f1e5fd" stroke="transparent" points="581.5,-250.4 456.5,-250.4 456.5,-214.4 581.5,-214.4 581.5,-250.4"/>
<text text-anchor="start" x="461.96" y="-227.8" font-family="Times New Roman,serif" font-size="14.00">(I)CourseRepository</text>
<polygon fill="none" stroke="black" points="456.5,-219.4 456.5,-245.4 581.5,-245.4 581.5,-219.4 456.5,-219.4"/>
</g>
<!-- CourseRepository816628141&#45;&gt;InMemoryCourseRepository650943782 -->
<g id="edge4" class="edge">
<title>CourseRepository816628141&#45;&gt;InMemoryCourseRepository650943782</title>
<path fill="none" stroke="black" d="M544.91,-207.28C582.15,-172.62 649.9,-109.57 682.5,-79.22"/>
<polygon fill="none" stroke="black" points="542.39,-204.85 537.45,-214.22 547.16,-209.97 542.39,-204.85"/>
</g>
<!-- CourseRepository816628141&#45;&gt;JpaCourseRepository1852613913 -->
<g id="edge5" class="edge">
<title>CourseRepository816628141&#45;&gt;JpaCourseRepository1852613913</title>
<path fill="none" stroke="black" d="M569.31,-210.36C651.38,-176.04 805,-111.8 805,-111.8 805,-111.8 835.43,-93.54 859.44,-79.14"/>
<polygon fill="none" stroke="black" points="567.55,-207.3 559.67,-214.39 570.25,-213.76 567.55,-207.3"/>
</g>
<!-- CreateCourseController427251605&#45;&gt;CourseBuilder1854509879 -->
<g id="edge6" class="edge">
<title>CreateCourseController427251605&#45;&gt;CourseBuilder1854509879</title>
<path fill="none" stroke="black" d="M303,-362.75C303,-343.91 303,-322.97 303,-303.51"/>
<polygon fill="black" stroke="black" points="306.5,-303.49 303,-293.49 299.5,-303.49 306.5,-303.49"/>
<text text-anchor="middle" x="373.02" y="-324" font-family="Times New Roman,serif" font-size="14.00">createCourse() &#45;&gt; build()</text>
</g>
<!-- CreateCourseController427251605&#45;&gt;CourseRepository816628141 -->
<g id="edge7" class="edge">
<title>CreateCourseController427251605&#45;&gt;CourseRepository816628141</title>
<path fill="none" stroke="black" d="M413.96,-362.89C433.11,-352.52 447,-345 447,-345 447,-345 480.84,-292.55 502.12,-259.57"/>
<polygon fill="black" stroke="black" points="505.27,-261.14 507.75,-250.84 499.39,-257.34 505.27,-261.14"/>
<text text-anchor="middle" x="516.99" y="-332.4" font-family="Times New Roman,serif" font-size="14.00">courseRepository</text>
<text text-anchor="middle" x="516.99" y="-315.6" font-family="Times New Roman,serif" font-size="14.00">[1]</text>
</g>
</g>
</svg>
