<?xml version="1.0" encoding="us-ascii" standalone="no"?><svg xmlns="http://www.w3.org/2000/svg" xmlns:xlink="http://www.w3.org/1999/xlink" contentStyleType="text/css" height="1576px" preserveAspectRatio="none" style="width:1844px;height:1576px;background:#FFFFFF;" version="1.1" viewBox="0 0 1844 1576" width="1844px" zoomAndPan="magnify"><defs/><g><rect fill="#FFFFFF" height="1358.8867" style="stroke:#181818;stroke-width:1.0;" width="10" x="129.5" y="116.9121"/><rect fill="#FFFFFF" height="1313.5957" style="stroke:#181818;stroke-width:1.0;" width="10" x="279.5" y="148.2031"/><rect fill="#FFFFFF" height="14" style="stroke:#181818;stroke-width:1.0;" width="10" x="513.5" y="179.4941"/><rect fill="#FFFFFF" height="188.2031" style="stroke:#181818;stroke-width:1.0;" width="10" x="647" y="224.7852"/><rect fill="#FFFFFF" height="324.0762" style="stroke:#181818;stroke-width:1.0;" width="10" x="647" y="444.2793"/><rect fill="#FFFFFF" height="376.0762" style="stroke:#181818;stroke-width:1.0;" width="10" x="647" y="825.9375"/><rect fill="#FFFFFF" height="116.9121" style="stroke:#181818;stroke-width:1.0;" width="10" x="647" y="1240.3047"/><rect fill="#FFFFFF" height="132.9121" style="stroke:#181818;stroke-width:1.0;" width="10" x="734" y="266.0762"/><rect fill="#FFFFFF" height="70.291" style="stroke:#181818;stroke-width:1.0;" width="10" x="739" y="307.6973"/><rect fill="#FFFFFF" height="14" style="stroke:#181818;stroke-width:1.0;" width="10" x="852" y="343.9883"/><rect fill="#FFFFFF" height="14" style="stroke:#181818;stroke-width:1.0;" width="10" x="852" y="563.4824"/><rect fill="#FFFFFF" height="268.7852" style="stroke:#181818;stroke-width:1.0;" width="10" x="965" y="485.5703"/><rect fill="#FFFFFF" height="206.1641" style="stroke:#181818;stroke-width:1.0;" width="10" x="970" y="527.1914"/><rect fill="#FFFFFF" height="14" style="stroke:#181818;stroke-width:1.0;" width="10" x="1072" y="608.7734"/><rect fill="#FFFFFF" height="59.291" style="stroke:#181818;stroke-width:1.0;" width="10" x="1207" y="654.0645"/><rect fill="#FFFFFF" height="14" style="stroke:#181818;stroke-width:1.0;" width="10" x="1303" y="685.3555"/><rect fill="#FFFFFF" height="320.7852" style="stroke:#181818;stroke-width:1.0;" width="10" x="1392" y="867.2285"/><rect fill="#FFFFFF" height="258.1641" style="stroke:#181818;stroke-width:1.0;" width="10" x="1397" y="908.8496"/><rect fill="#FFFFFF" height="70.291" style="stroke:#181818;stroke-width:1.0;" width="10" x="1402" y="953.1406"/><rect fill="#FFFFFF" height="70.291" style="stroke:#181818;stroke-width:1.0;" width="10" x="1402" y="1069.7227"/><rect fill="#FFFFFF" height="14" style="stroke:#181818;stroke-width:1.0;" width="10" x="1501" y="989.4316"/><rect fill="#FFFFFF" height="14" style="stroke:#181818;stroke-width:1.0;" width="10" x="1501" y="1106.0137"/><rect fill="#FFFFFF" height="14" style="stroke:#181818;stroke-width:1.0;" width="10" x="1501" y="1315.2168"/><rect fill="#FFFFFF" height="61.6211" style="stroke:#181818;stroke-width:1.0;" width="10" x="1591" y="1281.5957"/><rect fill="#FFFFFF" height="59.291" style="stroke:#181818;stroke-width:1.0;" width="10" x="1696" y="1388.5078"/><rect fill="#FFFFFF" height="14" style="stroke:#181818;stroke-width:1.0;" width="10" x="1804.5" y="1419.7988"/><rect fill="none" height="426.6582" style="stroke:#000000;stroke-width:1.5;" width="1374" x="192" y="783.3555"/><line style="stroke:#181818;stroke-width:0.5;stroke-dasharray:5.0,5.0;" x1="36" x2="36" y1="83.6211" y2="1493.7988"/><line style="stroke:#181818;stroke-width:0.5;stroke-dasharray:5.0,5.0;" x1="134" x2="134" y1="83.6211" y2="1493.7988"/><line style="stroke:#181818;stroke-width:0.5;stroke-dasharray:5.0,5.0;" x1="284" x2="284" y1="83.6211" y2="1493.7988"/><line style="stroke:#181818;stroke-width:0.5;stroke-dasharray:5.0,5.0;" x1="518" x2="518" y1="83.6211" y2="1493.7988"/><line style="stroke:#181818;stroke-width:0.5;stroke-dasharray:5.0,5.0;" x1="652" x2="652" y1="83.6211" y2="1493.7988"/><line style="stroke:#181818;stroke-width:0.5;stroke-dasharray:5.0,5.0;" x1="739" x2="739" y1="264.5957" y2="1493.7988"/><line style="stroke:#181818;stroke-width:0.5;stroke-dasharray:5.0,5.0;" x1="857" x2="857" y1="83.6211" y2="1493.7988"/><line style="stroke:#181818;stroke-width:0.5;stroke-dasharray:5.0,5.0;" x1="969.5" x2="969.5" y1="484.0898" y2="1493.7988"/><line style="stroke:#181818;stroke-width:0.5;stroke-dasharray:5.0,5.0;" x1="1076.5" x2="1076.5" y1="83.6211" y2="1493.7988"/><line style="stroke:#181818;stroke-width:0.5;stroke-dasharray:5.0,5.0;" x1="1212" x2="1212" y1="83.6211" y2="1493.7988"/><line style="stroke:#181818;stroke-width:0.5;stroke-dasharray:5.0,5.0;" x1="1307.5" x2="1307.5" y1="83.6211" y2="1493.7988"/><line style="stroke:#181818;stroke-width:0.5;stroke-dasharray:5.0,5.0;" x1="1396.5" x2="1396.5" y1="865.748" y2="1493.7988"/><line style="stroke:#181818;stroke-width:0.5;stroke-dasharray:5.0,5.0;" x1="1506" x2="1506" y1="83.6211" y2="1493.7988"/><line style="stroke:#181818;stroke-width:0.5;stroke-dasharray:5.0,5.0;" x1="1596" x2="1596" y1="1280.1152" y2="1493.7988"/><line style="stroke:#181818;stroke-width:0.5;stroke-dasharray:5.0,5.0;" x1="1701" x2="1701" y1="83.6211" y2="1493.7988"/><line style="stroke:#181818;stroke-width:0.5;stroke-dasharray:5.0,5.0;" x1="1809" x2="1809" y1="83.6211" y2="1493.7988"/><text fill="#000000" font-family="sans-serif" font-size="14" lengthAdjust="spacing" textLength="56" x="5" y="80.1074">Manager</text><ellipse cx="36" cy="13.5" fill="#E2E2F0" rx="8" ry="8" style="stroke:#181818;stroke-width:0.5;"/><path d="M36,21.5 L36,48.5 M23,29.5 L49,29.5 M36,48.5 L23,63.5 M36,48.5 L49,63.5 " fill="none" style="stroke:#181818;stroke-width:0.5;"/><text fill="#000000" font-family="sans-serif" font-size="14" lengthAdjust="spacing" textLength="56" x="5" y="1507.9063">Manager</text><ellipse cx="36" cy="1519.9199" fill="#E2E2F0" rx="8" ry="8" style="stroke:#181818;stroke-width:0.5;"/><path d="M36,1527.9199 L36,1554.9199 M23,1535.9199 L49,1535.9199 M36,1554.9199 L23,1569.9199 M36,1554.9199 L49,1569.9199 " fill="none" style="stroke:#181818;stroke-width:0.5;"/><rect fill="#E2E2F0" height="32.6211" rx="2.5" ry="2.5" style="stroke:#181818;stroke-width:0.5;" width="115" x="77" y="50"/><text fill="#000000" font-family="sans-serif" font-size="14" lengthAdjust="spacing" textLength="101" x="84" y="72.1074">CreateCourseUI</text><rect fill="#E2E2F0" height="32.6211" rx="2.5" ry="2.5" style="stroke:#181818;stroke-width:0.5;" width="115" x="77" y="1492.7988"/><text fill="#000000" font-family="sans-serif" font-size="14" lengthAdjust="spacing" textLength="101" x="84" y="1514.9063">CreateCourseUI</text><rect fill="#E2E2F0" height="32.6211" rx="2.5" ry="2.5" style="stroke:#181818;stroke-width:0.5;" width="165" x="202" y="50"/><text fill="#000000" font-family="sans-serif" font-size="14" lengthAdjust="spacing" textLength="151" x="209" y="72.1074">CreateCourseController</text><rect fill="#E2E2F0" height="32.6211" rx="2.5" ry="2.5" style="stroke:#181818;stroke-width:0.5;" width="165" x="202" y="1492.7988"/><text fill="#000000" font-family="sans-serif" font-size="14" lengthAdjust="spacing" textLength="151" x="209" y="1514.9063">CreateCourseController</text><rect fill="#E2E2F0" height="32.6211" rx="2.5" ry="2.5" style="stroke:#181818;stroke-width:0.5;" width="143" x="447" y="50"/><text fill="#000000" font-family="sans-serif" font-size="14" lengthAdjust="spacing" textLength="129" x="454" y="72.1074">AuthorizationService</text><rect fill="#E2E2F0" height="32.6211" rx="2.5" ry="2.5" style="stroke:#181818;stroke-width:0.5;" width="143" x="447" y="1492.7988"/><text fill="#000000" font-family="sans-serif" font-size="14" lengthAdjust="spacing" textLength="129" x="454" y="1514.9063">AuthorizationService</text><rect fill="#E2E2F0" height="32.6211" rx="2.5" ry="2.5" style="stroke:#181818;stroke-width:0.5;" width="104" x="600" y="50"/><text fill="#000000" font-family="sans-serif" font-size="14" lengthAdjust="spacing" textLength="90" x="607" y="72.1074">CourseBuilder</text><rect fill="#E2E2F0" height="32.6211" rx="2.5" ry="2.5" style="stroke:#181818;stroke-width:0.5;" width="104" x="600" y="1492.7988"/><text fill="#000000" font-family="sans-serif" font-size="14" lengthAdjust="spacing" textLength="90" x="607" y="1514.9063">CourseBuilder</text><rect fill="#E2E2F0" height="32.6211" rx="2.5" ry="2.5" style="stroke:#181818;stroke-width:0.5;" width="50" x="714" y="1492.7988"/><text fill="#000000" font-family="sans-serif" font-size="14" lengthAdjust="spacing" textLength="36" x="721" y="1514.9063">Name</text><rect fill="#E2E2F0" height="32.6211" rx="2.5" ry="2.5" style="stroke:#181818;stroke-width:0.5;" width="118" x="798" y="50"/><text fill="#000000" font-family="sans-serif" font-size="14" lengthAdjust="spacing" textLength="104" x="805" y="72.1074">StringPredicates</text><rect fill="#E2E2F0" height="32.6211" rx="2.5" ry="2.5" style="stroke:#181818;stroke-width:0.5;" width="118" x="798" y="1492.7988"/><text fill="#000000" font-family="sans-serif" font-size="14" lengthAdjust="spacing" textLength="104" x="805" y="1514.9063">StringPredicates</text><rect fill="#E2E2F0" height="32.6211" rx="2.5" ry="2.5" style="stroke:#181818;stroke-width:0.5;" width="85" x="927.5" y="1492.7988"/><text fill="#000000" font-family="sans-serif" font-size="14" lengthAdjust="spacing" textLength="71" x="934.5" y="1514.9063">Description</text><rect fill="#E2E2F0" height="32.6211" rx="2.5" ry="2.5" style="stroke:#181818;stroke-width:0.5;" width="83" x="1035.5" y="50"/><text fill="#000000" font-family="sans-serif" font-size="14" lengthAdjust="spacing" textLength="69" x="1042.5" y="72.1074">Application</text><rect fill="#E2E2F0" height="32.6211" rx="2.5" ry="2.5" style="stroke:#181818;stroke-width:0.5;" width="83" x="1035.5" y="1492.7988"/><text fill="#000000" font-family="sans-serif" font-size="14" lengthAdjust="spacing" textLength="69" x="1042.5" y="1514.9063">Application</text><rect fill="#E2E2F0" height="32.6211" rx="2.5" ry="2.5" style="stroke:#181818;stroke-width:0.5;" width="90" x="1167" y="50"/><text fill="#000000" font-family="sans-serif" font-size="14" lengthAdjust="spacing" textLength="76" x="1174" y="72.1074">AppSettings</text><rect fill="#E2E2F0" height="32.6211" rx="2.5" ry="2.5" style="stroke:#181818;stroke-width:0.5;" width="90" x="1167" y="1492.7988"/><text fill="#000000" font-family="sans-serif" font-size="14" lengthAdjust="spacing" textLength="76" x="1174" y="1514.9063">AppSettings</text><rect fill="#E2E2F0" height="32.6211" rx="2.5" ry="2.5" style="stroke:#181818;stroke-width:0.5;" width="79" x="1268.5" y="50"/><text fill="#000000" font-family="sans-serif" font-size="14" lengthAdjust="spacing" textLength="65" x="1275.5" y="72.1074">Properties</text><rect fill="#E2E2F0" height="32.6211" rx="2.5" ry="2.5" style="stroke:#181818;stroke-width:0.5;" width="79" x="1268.5" y="1492.7988"/><text fill="#000000" font-family="sans-serif" font-size="14" lengthAdjust="spacing" textLength="65" x="1275.5" y="1514.9063">Properties</text><rect fill="#E2E2F0" height="32.6211" rx="2.5" ry="2.5" style="stroke:#181818;stroke-width:0.5;" width="79" x="1357.5" y="1492.7988"/><text fill="#000000" font-family="sans-serif" font-size="14" lengthAdjust="spacing" textLength="65" x="1364.5" y="1514.9063">EnrollLimit</text><rect fill="#E2E2F0" height="32.6211" rx="2.5" ry="2.5" style="stroke:#181818;stroke-width:0.5;" width="100" x="1456" y="50"/><text fill="#000000" font-family="sans-serif" font-size="14" lengthAdjust="spacing" textLength="86" x="1463" y="72.1074">Preconditions</text><rect fill="#E2E2F0" height="32.6211" rx="2.5" ry="2.5" style="stroke:#181818;stroke-width:0.5;" width="100" x="1456" y="1492.7988"/><text fill="#000000" font-family="sans-serif" font-size="14" lengthAdjust="spacing" textLength="86" x="1463" y="1514.9063">Preconditions</text><rect fill="#E2E2F0" height="32.6211" rx="2.5" ry="2.5" style="stroke:#181818;stroke-width:0.5;" width="60" x="1566" y="1492.7988"/><text fill="#000000" font-family="sans-serif" font-size="14" lengthAdjust="spacing" textLength="46" x="1573" y="1514.9063">Course</text><rect fill="#E2E2F0" height="32.6211" rx="2.5" ry="2.5" style="stroke:#181818;stroke-width:0.5;" width="130" x="1636" y="50"/><text fill="#000000" font-family="sans-serif" font-size="14" lengthAdjust="spacing" textLength="116" x="1643" y="72.1074">DomainRepository</text><rect fill="#E2E2F0" height="32.6211" rx="2.5" ry="2.5" style="stroke:#181818;stroke-width:0.5;" width="130" x="1636" y="1492.7988"/><text fill="#000000" font-family="sans-serif" font-size="14" lengthAdjust="spacing" textLength="116" x="1643" y="1514.9063">DomainRepository</text><text fill="#000000" font-family="sans-serif" font-size="14" lengthAdjust="spacing" textLength="61" x="1776" y="80.1074">Database</text><path d="M1791.5,29 C1791.5,19 1809.5,19 1809.5,19 C1809.5,19 1827.5,19 1827.5,29 L1827.5,55 C1827.5,65 1809.5,65 1809.5,65 C1809.5,65 1791.5,65 1791.5,55 L1791.5,29 " fill="#E2E2F0" style="stroke:#181818;stroke-width:1.5;"/><path d="M1791.5,29 C1791.5,39 1809.5,39 1809.5,39 C1809.5,39 1827.5,39 1827.5,29 " fill="none" style="stroke:#181818;stroke-width:1.5;"/><text fill="#000000" font-family="sans-serif" font-size="14" lengthAdjust="spacing" textLength="61" x="1776" y="1507.9063">Database</text><path d="M1791.5,1521.4199 C1791.5,1511.4199 1809.5,1511.4199 1809.5,1511.4199 C1809.5,1511.4199 1827.5,1511.4199 1827.5,1521.4199 L1827.5,1547.4199 C1827.5,1557.4199 1809.5,1557.4199 1809.5,1557.4199 C1809.5,1557.4199 1791.5,1557.4199 1791.5,1547.4199 L1791.5,1521.4199 " fill="#E2E2F0" style="stroke:#181818;stroke-width:1.5;"/><path d="M1791.5,1521.4199 C1791.5,1531.4199 1809.5,1531.4199 1809.5,1531.4199 C1809.5,1531.4199 1827.5,1531.4199 1827.5,1521.4199 " fill="none" style="stroke:#181818;stroke-width:1.5;"/><rect fill="#FFFFFF" height="1358.8867" style="stroke:#181818;stroke-width:1.0;" width="10" x="129.5" y="116.9121"/><rect fill="#FFFFFF" height="1313.5957" style="stroke:#181818;stroke-width:1.0;" width="10" x="279.5" y="148.2031"/><rect fill="#FFFFFF" height="14" style="stroke:#181818;stroke-width:1.0;" width="10" x="513.5" y="179.4941"/><rect fill="#FFFFFF" height="188.2031" style="stroke:#181818;stroke-width:1.0;" width="10" x="647" y="224.7852"/><rect fill="#FFFFFF" height="324.0762" style="stroke:#181818;stroke-width:1.0;" width="10" x="647" y="444.2793"/><rect fill="#FFFFFF" height="376.0762" style="stroke:#181818;stroke-width:1.0;" width="10" x="647" y="825.9375"/><rect fill="#FFFFFF" height="116.9121" style="stroke:#181818;stroke-width:1.0;" width="10" x="647" y="1240.3047"/><rect fill="#FFFFFF" height="132.9121" style="stroke:#181818;stroke-width:1.0;" width="10" x="734" y="266.0762"/><rect fill="#FFFFFF" height="70.291" style="stroke:#181818;stroke-width:1.0;" width="10" x="739" y="307.6973"/><rect fill="#FFFFFF" height="14" style="stroke:#181818;stroke-width:1.0;" width="10" x="852" y="343.9883"/><rect fill="#FFFFFF" height="14" style="stroke:#181818;stroke-width:1.0;" width="10" x="852" y="563.4824"/><rect fill="#FFFFFF" height="268.7852" style="stroke:#181818;stroke-width:1.0;" width="10" x="965" y="485.5703"/><rect fill="#FFFFFF" height="206.1641" style="stroke:#181818;stroke-width:1.0;" width="10" x="970" y="527.1914"/><rect fill="#FFFFFF" height="14" style="stroke:#181818;stroke-width:1.0;" width="10" x="1072" y="608.7734"/><rect fill="#FFFFFF" height="59.291" style="stroke:#181818;stroke-width:1.0;" width="10" x="1207" y="654.0645"/><rect fill="#FFFFFF" height="14" style="stroke:#181818;stroke-width:1.0;" width="10" x="1303" y="685.3555"/><rect fill="#FFFFFF" height="320.7852" style="stroke:#181818;stroke-width:1.0;" width="10" x="1392" y="867.2285"/><rect fill="#FFFFFF" height="258.1641" style="stroke:#181818;stroke-width:1.0;" width="10" x="1397" y="908.8496"/><rect fill="#FFFFFF" height="70.291" style="stroke:#181818;stroke-width:1.0;" width="10" x="1402" y="953.1406"/><rect fill="#FFFFFF" height="70.291" style="stroke:#181818;stroke-width:1.0;" width="10" x="1402" y="1069.7227"/><rect fill="#FFFFFF" height="14" style="stroke:#181818;stroke-width:1.0;" width="10" x="1501" y="989.4316"/><rect fill="#FFFFFF" height="14" style="stroke:#181818;stroke-width:1.0;" width="10" x="1501" y="1106.0137"/><rect fill="#FFFFFF" height="14" style="stroke:#181818;stroke-width:1.0;" width="10" x="1501" y="1315.2168"/><rect fill="#FFFFFF" height="61.6211" style="stroke:#181818;stroke-width:1.0;" width="10" x="1591" y="1281.5957"/><rect fill="#FFFFFF" height="59.291" style="stroke:#181818;stroke-width:1.0;" width="10" x="1696" y="1388.5078"/><rect fill="#FFFFFF" height="14" style="stroke:#181818;stroke-width:1.0;" width="10" x="1804.5" y="1419.7988"/><polygon fill="#181818" points="117.5,112.9121,127.5,116.9121,117.5,120.9121,121.5,116.9121" style="stroke:#181818;stroke-width:1.0;"/><line style="stroke:#181818;stroke-width:1.0;" x1="36" x2="123.5" y1="116.9121" y2="116.9121"/><text fill="#000000" font-family="sans-serif" font-size="13" lengthAdjust="spacing" textLength="46" x="43" y="111.6494">doShow</text><polygon fill="#181818" points="267.5,144.2031,277.5,148.2031,267.5,152.2031,271.5,148.2031" style="stroke:#181818;stroke-width:1.0;"/><line style="stroke:#181818;stroke-width:1.0;" x1="139.5" x2="273.5" y1="148.2031" y2="148.2031"/><text fill="#000000" font-family="sans-serif" font-size="13" lengthAdjust="spacing" textLength="77" x="146.5" y="142.9404">createCourse</text><polygon fill="#181818" points="501.5,175.4941,511.5,179.4941,501.5,183.4941,505.5,179.4941" style="stroke:#181818;stroke-width:1.0;"/><line style="stroke:#181818;stroke-width:1.0;" x1="289.5" x2="507.5" y1="179.4941" y2="179.4941"/><text fill="#000000" font-family="sans-serif" font-size="13" lengthAdjust="spacing" textLength="205" x="296.5" y="174.2314">ensureAuthenticatedUserHasAnyOf</text><polygon fill="#181818" points="300.5,189.4941,290.5,193.4941,300.5,197.4941,296.5,193.4941" style="stroke:#181818;stroke-width:1.0;"/><line style="stroke:#181818;stroke-width:1.0;stroke-dasharray:2.0,2.0;" x1="294.5" x2="517.5" y1="193.4941" y2="193.4941"/><polygon fill="#181818" points="635,220.7852,645,224.7852,635,228.7852,639,224.7852" style="stroke:#181818;stroke-width:1.0;"/><line style="stroke:#181818;stroke-width:1.0;" x1="289.5" x2="641" y1="224.7852" y2="224.7852"/><text fill="#000000" font-family="sans-serif" font-size="13" lengthAdjust="spacing" textLength="57" x="296.5" y="219.5225">withName</text><polygon fill="#181818" points="702,252.0762,712,256.0762,702,260.0762,706,256.0762" style="stroke:#181818;stroke-width:1.0;"/><line style="stroke:#181818;stroke-width:1.0;" x1="657" x2="708" y1="256.0762" y2="256.0762"/><text fill="#000000" font-family="sans-serif" font-size="13" lengthAdjust="spacing" textLength="23" x="664" y="250.8135">new</text><rect fill="#E2E2F0" height="32.6211" rx="2.5" ry="2.5" style="stroke:#181818;stroke-width:0.5;" width="50" x="714" y="232.7852"/><text fill="#000000" font-family="sans-serif" font-size="14" lengthAdjust="spacing" textLength="36" x="721" y="254.8926">Name</text><line style="stroke:#181818;stroke-width:1.0;" x1="744" x2="791" y1="294.6973" y2="294.6973"/><line style="stroke:#181818;stroke-width:1.0;" x1="791" x2="791" y1="294.6973" y2="307.6973"/><line style="stroke:#181818;stroke-width:1.0;" x1="750" x2="791" y1="307.6973" y2="307.6973"/><polygon fill="#181818" points="760,303.6973,750,307.6973,760,311.6973,756,307.6973" style="stroke:#181818;stroke-width:1.0;"/><text fill="#000000" font-family="sans-serif" font-size="13" lengthAdjust="spacing" textLength="52" x="756" y="289.4346">setName</text><polygon fill="#181818" points="840,339.9883,850,343.9883,840,347.9883,844,343.9883" style="stroke:#181818;stroke-width:1.0;"/><line style="stroke:#181818;stroke-width:1.0;" x1="749" x2="846" y1="343.9883" y2="343.9883"/><text fill="#000000" font-family="sans-serif" font-size="13" lengthAdjust="spacing" textLength="84" x="756" y="338.7256">isNullOrEmpty</text><polygon fill="#181818" points="760,353.9883,750,357.9883,760,361.9883,756,357.9883" style="stroke:#181818;stroke-width:1.0;"/><line style="stroke:#181818;stroke-width:1.0;stroke-dasharray:2.0,2.0;" x1="754" x2="856" y1="357.9883" y2="357.9883"/><line style="stroke:#181818;stroke-width:1.0;stroke-dasharray:2.0,2.0;" x1="749" x2="791" y1="376.9883" y2="376.9883"/><line style="stroke:#181818;stroke-width:1.0;stroke-dasharray:2.0,2.0;" x1="791" x2="791" y1="376.9883" y2="389.9883"/><line style="stroke:#181818;stroke-width:1.0;stroke-dasharray:2.0,2.0;" x1="744" x2="791" y1="389.9883" y2="389.9883"/><polygon fill="#181818" points="754,385.9883,744,389.9883,754,393.9883,750,389.9883" style="stroke:#181818;stroke-width:1.0;"/><polygon fill="#181818" points="668,394.9883,658,398.9883,668,402.9883,664,398.9883" style="stroke:#181818;stroke-width:1.0;"/><line style="stroke:#181818;stroke-width:1.0;stroke-dasharray:2.0,2.0;" x1="662" x2="738" y1="398.9883" y2="398.9883"/><polygon fill="#181818" points="300.5,408.9883,290.5,412.9883,300.5,416.9883,296.5,412.9883" style="stroke:#181818;stroke-width:1.0;"/><line style="stroke:#181818;stroke-width:1.0;stroke-dasharray:2.0,2.0;" x1="294.5" x2="651" y1="412.9883" y2="412.9883"/><polygon fill="#181818" points="635,440.2793,645,444.2793,635,448.2793,639,444.2793" style="stroke:#181818;stroke-width:1.0;"/><line style="stroke:#181818;stroke-width:1.0;" x1="289.5" x2="641" y1="444.2793" y2="444.2793"/><text fill="#000000" font-family="sans-serif" font-size="13" lengthAdjust="spacing" textLength="88" x="296.5" y="439.0166">withDescription</text><polygon fill="#181818" points="915.5,471.5703,925.5,475.5703,915.5,479.5703,919.5,475.5703" style="stroke:#181818;stroke-width:1.0;"/><line style="stroke:#181818;stroke-width:1.0;" x1="657" x2="921.5" y1="475.5703" y2="475.5703"/><text fill="#000000" font-family="sans-serif" font-size="13" lengthAdjust="spacing" textLength="23" x="664" y="470.3076">new</text><rect fill="#E2E2F0" height="32.6211" rx="2.5" ry="2.5" style="stroke:#181818;stroke-width:0.5;" width="85" x="927.5" y="452.2793"/><text fill="#000000" font-family="sans-serif" font-size="14" lengthAdjust="spacing" textLength="71" x="934.5" y="474.3867">Description</text><line style="stroke:#181818;stroke-width:1.0;" x1="975" x2="1022" y1="514.1914" y2="514.1914"/><line style="stroke:#181818;stroke-width:1.0;" x1="1022" x2="1022" y1="514.1914" y2="527.1914"/><line style="stroke:#181818;stroke-width:1.0;" x1="981" x2="1022" y1="527.1914" y2="527.1914"/><polygon fill="#181818" points="991,523.1914,981,527.1914,991,531.1914,987,527.1914" style="stroke:#181818;stroke-width:1.0;"/><text fill="#000000" font-family="sans-serif" font-size="13" lengthAdjust="spacing" textLength="83" x="987" y="508.9287">setDescription</text><polygon fill="#181818" points="873,559.4824,863,563.4824,873,567.4824,869,563.4824" style="stroke:#181818;stroke-width:1.0;"/><line style="stroke:#181818;stroke-width:1.0;" x1="867" x2="969" y1="563.4824" y2="563.4824"/><text fill="#000000" font-family="sans-serif" font-size="13" lengthAdjust="spacing" textLength="84" x="879" y="558.2197">isNullOrEmpty</text><polygon fill="#181818" points="958,573.4824,968,577.4824,958,581.4824,962,577.4824" style="stroke:#181818;stroke-width:1.0;"/><line style="stroke:#181818;stroke-width:1.0;stroke-dasharray:2.0,2.0;" x1="857" x2="964" y1="577.4824" y2="577.4824"/><polygon fill="#181818" points="1060,604.7734,1070,608.7734,1060,612.7734,1064,608.7734" style="stroke:#181818;stroke-width:1.0;"/><line style="stroke:#181818;stroke-width:1.0;" x1="980" x2="1066" y1="608.7734" y2="608.7734"/><text fill="#000000" font-family="sans-serif" font-size="13" lengthAdjust="spacing" textLength="46" x="987" y="603.5107">settings</text><polygon fill="#181818" points="991,618.7734,981,622.7734,991,626.7734,987,622.7734" style="stroke:#181818;stroke-width:1.0;"/><line style="stroke:#181818;stroke-width:1.0;stroke-dasharray:2.0,2.0;" x1="985" x2="1076" y1="622.7734" y2="622.7734"/><polygon fill="#181818" points="1195,650.0645,1205,654.0645,1195,658.0645,1199,654.0645" style="stroke:#181818;stroke-width:1.0;"/><line style="stroke:#181818;stroke-width:1.0;" x1="980" x2="1201" y1="654.0645" y2="654.0645"/><text fill="#000000" font-family="sans-serif" font-size="13" lengthAdjust="spacing" textLength="208" x="987" y="648.8018">getCourseDescriptionCharacterLimit</text><polygon fill="#181818" points="1291,681.3555,1301,685.3555,1291,689.3555,1295,685.3555" style="stroke:#181818;stroke-width:1.0;"/><line style="stroke:#181818;stroke-width:1.0;" x1="1217" x2="1297" y1="685.3555" y2="685.3555"/><text fill="#000000" font-family="sans-serif" font-size="13" lengthAdjust="spacing" textLength="67" x="1224" y="680.0928">getProperty</text><polygon fill="#181818" points="1228,695.3555,1218,699.3555,1228,703.3555,1224,699.3555" style="stroke:#181818;stroke-width:1.0;"/><line style="stroke:#181818;stroke-width:1.0;stroke-dasharray:2.0,2.0;" x1="1222" x2="1307" y1="699.3555" y2="699.3555"/><polygon fill="#181818" points="991,709.3555,981,713.3555,991,717.3555,987,713.3555" style="stroke:#181818;stroke-width:1.0;"/><line style="stroke:#181818;stroke-width:1.0;stroke-dasharray:2.0,2.0;" x1="985" x2="1211" y1="713.3555" y2="713.3555"/><line style="stroke:#181818;stroke-width:1.0;stroke-dasharray:2.0,2.0;" x1="980" x2="1022" y1="732.3555" y2="732.3555"/><line style="stroke:#181818;stroke-width:1.0;stroke-dasharray:2.0,2.0;" x1="1022" x2="1022" y1="732.3555" y2="745.3555"/><line style="stroke:#181818;stroke-width:1.0;stroke-dasharray:2.0,2.0;" x1="975" x2="1022" y1="745.3555" y2="745.3555"/><polygon fill="#181818" points="985,741.3555,975,745.3555,985,749.3555,981,745.3555" style="stroke:#181818;stroke-width:1.0;"/><polygon fill="#181818" points="668,750.3555,658,754.3555,668,758.3555,664,754.3555" style="stroke:#181818;stroke-width:1.0;"/><line style="stroke:#181818;stroke-width:1.0;stroke-dasharray:2.0,2.0;" x1="662" x2="969" y1="754.3555" y2="754.3555"/><polygon fill="#181818" points="300.5,764.3555,290.5,768.3555,300.5,772.3555,296.5,768.3555" style="stroke:#181818;stroke-width:1.0;"/><line style="stroke:#181818;stroke-width:1.0;stroke-dasharray:2.0,2.0;" x1="294.5" x2="651" y1="768.3555" y2="768.3555"/><path d="M192,783.3555 L257,783.3555 L257,792.6465 L247,802.6465 L192,802.6465 L192,783.3555 " fill="#EEEEEE" style="stroke:#000000;stroke-width:1.5;"/><rect fill="none" height="426.6582" style="stroke:#000000;stroke-width:1.5;" width="1374" x="192" y="783.3555"/><text fill="#000000" font-family="sans-serif" font-size="13" font-weight="bold" lengthAdjust="spacing" textLength="20" x="207" y="798.3838">opt</text><polygon fill="#181818" points="635,821.9375,645,825.9375,635,829.9375,639,825.9375" style="stroke:#181818;stroke-width:1.0;"/><line style="stroke:#181818;stroke-width:1.0;" x1="289.5" x2="641" y1="825.9375" y2="825.9375"/><text fill="#000000" font-family="sans-serif" font-size="13" lengthAdjust="spacing" textLength="84" x="296.5" y="820.6748">withEnrollLimit</text><polygon fill="#181818" points="1345.5,853.2285,1355.5,857.2285,1345.5,861.2285,1349.5,857.2285" style="stroke:#181818;stroke-width:1.0;"/><line style="stroke:#181818;stroke-width:1.0;" x1="657" x2="1351.5" y1="857.2285" y2="857.2285"/><text fill="#000000" font-family="sans-serif" font-size="13" lengthAdjust="spacing" textLength="23" x="664" y="851.9658">new</text><rect fill="#E2E2F0" height="32.6211" rx="2.5" ry="2.5" style="stroke:#181818;stroke-width:0.5;" width="79" x="1357.5" y="833.9375"/><text fill="#000000" font-family="sans-serif" font-size="14" lengthAdjust="spacing" textLength="65" x="1364.5" y="856.0449">EnrollLimit</text><line style="stroke:#181818;stroke-width:1.0;" x1="1402" x2="1449" y1="895.8496" y2="895.8496"/><line style="stroke:#181818;stroke-width:1.0;" x1="1449" x2="1449" y1="895.8496" y2="908.8496"/><line style="stroke:#181818;stroke-width:1.0;" x1="1408" x2="1449" y1="908.8496" y2="908.8496"/><polygon fill="#181818" points="1418,904.8496,1408,908.8496,1418,912.8496,1414,908.8496" style="stroke:#181818;stroke-width:1.0;"/><text fill="#000000" font-family="sans-serif" font-size="13" lengthAdjust="spacing" textLength="79" x="1414" y="890.5869">setEnrollLimit</text><line style="stroke:#181818;stroke-width:1.0;" x1="1407" x2="1454" y1="940.1406" y2="940.1406"/><line style="stroke:#181818;stroke-width:1.0;" x1="1454" x2="1454" y1="940.1406" y2="953.1406"/><line style="stroke:#181818;stroke-width:1.0;" x1="1413" x2="1454" y1="953.1406" y2="953.1406"/><polygon fill="#181818" points="1423,949.1406,1413,953.1406,1423,957.1406,1419,953.1406" style="stroke:#181818;stroke-width:1.0;"/><text fill="#000000" font-family="sans-serif" font-size="13" lengthAdjust="spacing" textLength="72" x="1419" y="934.8779">setMinEnroll</text><polygon fill="#181818" points="1489,985.4316,1499,989.4316,1489,993.4316,1493,989.4316" style="stroke:#181818;stroke-width:1.0;"/><line style="stroke:#181818;stroke-width:1.0;" x1="1412" x2="1495" y1="989.4316" y2="989.4316"/><text fill="#000000" font-family="sans-serif" font-size="13" lengthAdjust="spacing" textLength="70" x="1419" y="984.1689">nonNegative</text><polygon fill="#181818" points="1423,999.4316,1413,1003.4316,1423,1007.4316,1419,1003.4316" style="stroke:#181818;stroke-width:1.0;"/><line style="stroke:#181818;stroke-width:1.0;stroke-dasharray:2.0,2.0;" x1="1417" x2="1505" y1="1003.4316" y2="1003.4316"/><line style="stroke:#181818;stroke-width:1.0;stroke-dasharray:2.0,2.0;" x1="1412" x2="1454" y1="1022.4316" y2="1022.4316"/><line style="stroke:#181818;stroke-width:1.0;stroke-dasharray:2.0,2.0;" x1="1454" x2="1454" y1="1022.4316" y2="1035.4316"/><line style="stroke:#181818;stroke-width:1.0;stroke-dasharray:2.0,2.0;" x1="1407" x2="1454" y1="1035.4316" y2="1035.4316"/><polygon fill="#181818" points="1417,1031.4316,1407,1035.4316,1417,1039.4316,1413,1035.4316" style="stroke:#181818;stroke-width:1.0;"/><line style="stroke:#181818;stroke-width:1.0;" x1="1407" x2="1454" y1="1056.7227" y2="1056.7227"/><line style="stroke:#181818;stroke-width:1.0;" x1="1454" x2="1454" y1="1056.7227" y2="1069.7227"/><line style="stroke:#181818;stroke-width:1.0;" x1="1413" x2="1454" y1="1069.7227" y2="1069.7227"/><polygon fill="#181818" points="1423,1065.7227,1413,1069.7227,1423,1073.7227,1419,1069.7227" style="stroke:#181818;stroke-width:1.0;"/><text fill="#000000" font-family="sans-serif" font-size="13" lengthAdjust="spacing" textLength="76" x="1419" y="1051.46">setMaxEnroll</text><polygon fill="#181818" points="1489,1102.0137,1499,1106.0137,1489,1110.0137,1493,1106.0137" style="stroke:#181818;stroke-width:1.0;"/><line style="stroke:#181818;stroke-width:1.0;" x1="1412" x2="1495" y1="1106.0137" y2="1106.0137"/><text fill="#000000" font-family="sans-serif" font-size="13" lengthAdjust="spacing" textLength="70" x="1419" y="1100.751">nonNegative</text><polygon fill="#181818" points="1423,1116.0137,1413,1120.0137,1423,1124.0137,1419,1120.0137" style="stroke:#181818;stroke-width:1.0;"/><line style="stroke:#181818;stroke-width:1.0;stroke-dasharray:2.0,2.0;" x1="1417" x2="1505" y1="1120.0137" y2="1120.0137"/><line style="stroke:#181818;stroke-width:1.0;stroke-dasharray:2.0,2.0;" x1="1412" x2="1454" y1="1139.0137" y2="1139.0137"/><line style="stroke:#181818;stroke-width:1.0;stroke-dasharray:2.0,2.0;" x1="1454" x2="1454" y1="1139.0137" y2="1152.0137"/><line style="stroke:#181818;stroke-width:1.0;stroke-dasharray:2.0,2.0;" x1="1407" x2="1454" y1="1152.0137" y2="1152.0137"/><polygon fill="#181818" points="1417,1148.0137,1407,1152.0137,1417,1156.0137,1413,1152.0137" style="stroke:#181818;stroke-width:1.0;"/><line style="stroke:#181818;stroke-width:1.0;stroke-dasharray:2.0,2.0;" x1="1407" x2="1449" y1="1166.0137" y2="1166.0137"/><line style="stroke:#181818;stroke-width:1.0;stroke-dasharray:2.0,2.0;" x1="1449" x2="1449" y1="1166.0137" y2="1179.0137"/><line style="stroke:#181818;stroke-width:1.0;stroke-dasharray:2.0,2.0;" x1="1402" x2="1449" y1="1179.0137" y2="1179.0137"/><polygon fill="#181818" points="1412,1175.0137,1402,1179.0137,1412,1183.0137,1408,1179.0137" style="stroke:#181818;stroke-width:1.0;"/><polygon fill="#181818" points="668,1184.0137,658,1188.0137,668,1192.0137,664,1188.0137" style="stroke:#181818;stroke-width:1.0;"/><line style="stroke:#181818;stroke-width:1.0;stroke-dasharray:2.0,2.0;" x1="662" x2="1396" y1="1188.0137" y2="1188.0137"/><polygon fill="#181818" points="300.5,1198.0137,290.5,1202.0137,300.5,1206.0137,296.5,1202.0137" style="stroke:#181818;stroke-width:1.0;"/><line style="stroke:#181818;stroke-width:1.0;stroke-dasharray:2.0,2.0;" x1="294.5" x2="651" y1="1202.0137" y2="1202.0137"/><polygon fill="#181818" points="635,1236.3047,645,1240.3047,635,1244.3047,639,1240.3047" style="stroke:#181818;stroke-width:1.0;"/><line style="stroke:#181818;stroke-width:1.0;" x1="289.5" x2="641" y1="1240.3047" y2="1240.3047"/><text fill="#000000" font-family="sans-serif" font-size="13" lengthAdjust="spacing" textLength="27" x="296.5" y="1235.042">build</text><polygon fill="#181818" points="1554,1267.5957,1564,1271.5957,1554,1275.5957,1558,1271.5957" style="stroke:#181818;stroke-width:1.0;"/><line style="stroke:#181818;stroke-width:1.0;" x1="657" x2="1560" y1="1271.5957" y2="1271.5957"/><text fill="#000000" font-family="sans-serif" font-size="13" lengthAdjust="spacing" textLength="23" x="664" y="1266.333">new</text><rect fill="#E2E2F0" height="32.6211" rx="2.5" ry="2.5" style="stroke:#181818;stroke-width:0.5;" width="60" x="1566" y="1248.3047"/><text fill="#000000" font-family="sans-serif" font-size="14" lengthAdjust="spacing" textLength="46" x="1573" y="1270.4121">Course</text><polygon fill="#181818" points="1522,1311.2168,1512,1315.2168,1522,1319.2168,1518,1315.2168" style="stroke:#181818;stroke-width:1.0;"/><line style="stroke:#181818;stroke-width:1.0;" x1="1516" x2="1590" y1="1315.2168" y2="1315.2168"/><text fill="#000000" font-family="sans-serif" font-size="13" lengthAdjust="spacing" textLength="50" x="1528" y="1309.9541">noneNull</text><polygon fill="#181818" points="1579,1325.2168,1589,1329.2168,1579,1333.2168,1583,1329.2168" style="stroke:#181818;stroke-width:1.0;"/><line style="stroke:#181818;stroke-width:1.0;stroke-dasharray:2.0,2.0;" x1="1506" x2="1585" y1="1329.2168" y2="1329.2168"/><polygon fill="#181818" points="668,1339.2168,658,1343.2168,668,1347.2168,664,1343.2168" style="stroke:#181818;stroke-width:1.0;"/><line style="stroke:#181818;stroke-width:1.0;stroke-dasharray:2.0,2.0;" x1="662" x2="1595" y1="1343.2168" y2="1343.2168"/><polygon fill="#181818" points="300.5,1353.2168,290.5,1357.2168,300.5,1361.2168,296.5,1357.2168" style="stroke:#181818;stroke-width:1.0;"/><line style="stroke:#181818;stroke-width:1.0;stroke-dasharray:2.0,2.0;" x1="294.5" x2="651" y1="1357.2168" y2="1357.2168"/><polygon fill="#181818" points="1684,1384.5078,1694,1388.5078,1684,1392.5078,1688,1388.5078" style="stroke:#181818;stroke-width:1.0;"/><line style="stroke:#181818;stroke-width:1.0;" x1="289.5" x2="1690" y1="1388.5078" y2="1388.5078"/><text fill="#000000" font-family="sans-serif" font-size="13" lengthAdjust="spacing" textLength="26" x="296.5" y="1383.2451">save</text><polygon fill="#181818" points="1792.5,1415.7988,1802.5,1419.7988,1792.5,1423.7988,1796.5,1419.7988" style="stroke:#181818;stroke-width:1.0;"/><line style="stroke:#181818;stroke-width:1.0;" x1="1706" x2="1798.5" y1="1419.7988" y2="1419.7988"/><text fill="#000000" font-family="sans-serif" font-size="13" lengthAdjust="spacing" textLength="26" x="1713" y="1414.5361">save</text><polygon fill="#181818" points="1717,1429.7988,1707,1433.7988,1717,1437.7988,1713,1433.7988" style="stroke:#181818;stroke-width:1.0;"/><line style="stroke:#181818;stroke-width:1.0;stroke-dasharray:2.0,2.0;" x1="1711" x2="1808.5" y1="1433.7988" y2="1433.7988"/><polygon fill="#181818" points="300.5,1443.7988,290.5,1447.7988,300.5,1451.7988,296.5,1447.7988" style="stroke:#181818;stroke-width:1.0;"/><line style="stroke:#181818;stroke-width:1.0;stroke-dasharray:2.0,2.0;" x1="294.5" x2="1700" y1="1447.7988" y2="1447.7988"/><polygon fill="#181818" points="150.5,1457.7988,140.5,1461.7988,150.5,1465.7988,146.5,1461.7988" style="stroke:#181818;stroke-width:1.0;"/><line style="stroke:#181818;stroke-width:1.0;stroke-dasharray:2.0,2.0;" x1="144.5" x2="283.5" y1="1461.7988" y2="1461.7988"/><polygon fill="#181818" points="47,1471.7988,37,1475.7988,47,1479.7988,43,1475.7988" style="stroke:#181818;stroke-width:1.0;"/><line style="stroke:#181818;stroke-width:1.0;stroke-dasharray:2.0,2.0;" x1="41" x2="133.5" y1="1475.7988" y2="1475.7988"/><!--SRC=[tLVRRk8m47ttL-G7yWDzM8c5IhlIbbQB-W5kCWkMWXsD7Rhirw-T13A-fGJrgIy8FEUS6S_CWS0hex1uufBl0GkkYvKxOFrhKNuhrWZSm5frgE7rP_5Gr6ftKE-CLqQSR2G0i00VAAoLDAYQngPwA2eIIEjDS9PHiVghpXmKYd_S22LtW2THWLK7gJi45mHfH6N9zQi6_C7rIfwV_qm9KtoM52spjs4rpElbon_EldUYgVkkl0jpsF8ZxGX5iA5hHG_nkLRCdLeD2MH0FR8FJ00Dni_XWNO6XTo_8DHztxGb2BtjckOP7u-jEK-q4CaYQZacfHsAM4FY19AK5ROgWWNDk6bMlkAo8Mr0LoXQD-KFPaMHqSX8C9mSvL5OnBBZJ5Op8_3PCwQfvaOTbB5gsyP5hlSm5gw9EQSuezYPb9GIPzkDAMosFPXX6WIrFd2qIe2_n54OhuuBar4LA_g2gWKq0aRDyJFfu8HW15pw1T4h48ANRFRILo7lqdbATZdcd3QpodSOJhLceUaUfOi7mqcQZY8Zqv5WQ3hAex28PPSrMSqIWISXXxERwDP6bPArSDrtooQLtCBURle9wB8H4FCffL-3ltAKvYNEanPTbV_zabUzZv8rsCpQtc4maFK2WxsvTn_OQdnSYnmr78Hcyj2PkOBxrRbzgADaTfwNN7DDJb_YKvyODkh8XVmDhTB2FagVdGauNTuGm6fk-1ktfM_6DopISBeNLAHtPLqGPQ8Cxxiyd-UcLaJQkMv4VoEyXgRp89WEvNy0]--></g></svg>