<?xml version="1.0" encoding="us-ascii" standalone="no"?><svg xmlns="http://www.w3.org/2000/svg" xmlns:xlink="http://www.w3.org/1999/xlink" contentStyleType="text/css" height="640px" preserveAspectRatio="none" style="width:587px;height:640px;background:#FFFFFF;" version="1.1" viewBox="0 0 587 640" width="587px" zoomAndPan="magnify"><defs/><g><text fill="#000000" font-family="sans-serif" font-size="14" font-weight="bold" lengthAdjust="spacing" textLength="217" x="178.25" y="23.5352">US1010 - To Schedule a Class</text><!--class ScheduleClassUI--><g id="elem_ScheduleClassUI"><rect codeLine="15" fill="#F1F1F1" height="48" id="ScheduleClassUI" rx="2.5" ry="2.5" style="stroke:#181818;stroke-width:0.5;" width="144" x="248.5" y="44.4883"/><ellipse cx="263.5" cy="60.4883" fill="#ADD1B2" rx="11" ry="11" style="stroke:#181818;stroke-width:1.0;"/><path d="M266.4731,66.1313 Q265.8921,66.4302 265.2529,66.5796 Q264.6138,66.729 263.9082,66.729 Q261.4014,66.729 260.0815,65.0771 Q258.7617,63.4253 258.7617,60.3042 Q258.7617,57.1748 260.0815,55.5229 Q261.4014,53.8711 263.9082,53.8711 Q264.6138,53.8711 265.2612,54.0205 Q265.9087,54.1699 266.4731,54.4688 L266.4731,57.1914 Q265.8423,56.6104 265.2488,56.3406 Q264.6553,56.0708 264.0244,56.0708 Q262.6797,56.0708 261.9949,57.1375 Q261.3101,58.2041 261.3101,60.3042 Q261.3101,62.396 261.9949,63.4626 Q262.6797,64.5293 264.0244,64.5293 Q264.6553,64.5293 265.2488,64.2595 Q265.8423,63.9897 266.4731,63.4087 Z " fill="#000000"/><text fill="#000000" font-family="sans-serif" font-size="14" lengthAdjust="spacing" textLength="112" x="277.5" y="65.7793">ScheduleClassUI</text><line style="stroke:#181818;stroke-width:0.5;" x1="249.5" x2="391.5" y1="76.4883" y2="76.4883"/><line style="stroke:#181818;stroke-width:0.5;" x1="249.5" x2="391.5" y1="84.4883" y2="84.4883"/></g><!--class ScheduleClassController--><g id="elem_ScheduleClassController"><rect codeLine="18" fill="#F1F1F1" height="130.4414" id="ScheduleClassController" rx="2.5" ry="2.5" style="stroke:#181818;stroke-width:0.5;" width="265" x="188" y="153.4883"/><ellipse cx="232.25" cy="169.4883" fill="#ADD1B2" rx="11" ry="11" style="stroke:#181818;stroke-width:1.0;"/><path d="M235.2231,175.1313 Q234.6421,175.4302 234.0029,175.5796 Q233.3638,175.729 232.6582,175.729 Q230.1514,175.729 228.8315,174.0771 Q227.5117,172.4253 227.5117,169.3042 Q227.5117,166.1748 228.8315,164.5229 Q230.1514,162.8711 232.6582,162.8711 Q233.3638,162.8711 234.0112,163.0205 Q234.6587,163.1699 235.2231,163.4688 L235.2231,166.1914 Q234.5923,165.6104 233.9988,165.3406 Q233.4053,165.0708 232.7744,165.0708 Q231.4297,165.0708 230.7449,166.1375 Q230.0601,167.2041 230.0601,169.3042 Q230.0601,171.396 230.7449,172.4626 Q231.4297,173.5293 232.7744,173.5293 Q233.4053,173.5293 233.9988,173.2595 Q234.5923,172.9897 235.2231,172.4087 Z " fill="#000000"/><text fill="#000000" font-family="sans-serif" font-size="14" lengthAdjust="spacing" textLength="168" x="252.75" y="174.7793">ScheduleClassController</text><line style="stroke:#181818;stroke-width:0.5;" x1="189" x2="452" y1="185.4883" y2="185.4883"/><text fill="#000000" font-family="sans-serif" font-size="14" lengthAdjust="spacing" textLength="253" x="194" y="203.0234">-CourseRepository courseRepository</text><text fill="#000000" font-family="sans-serif" font-size="14" lengthAdjust="spacing" textLength="227" x="194" y="219.5117">-ClassRepository classRepository</text><line style="stroke:#181818;stroke-width:0.5;" x1="189" x2="452" y1="226.4648" y2="226.4648"/><text fill="#000000" font-family="sans-serif" font-size="14" lengthAdjust="spacing" textLength="98" x="194" y="244">+getTeacher()</text><text fill="#000000" font-family="sans-serif" font-size="14" lengthAdjust="spacing" textLength="162" x="194" y="260.4883">-getCourseRepository()</text><text fill="#000000" font-family="sans-serif" font-size="14" lengthAdjust="spacing" textLength="149" x="194" y="276.9766">-getClassRepository()</text></g><!--class ClassRepository--><g id="elem_ClassRepository"><rect codeLine="27" fill="#F1F1F1" height="113.9531" id="ClassRepository" rx="2.5" ry="2.5" style="stroke:#181818;stroke-width:0.5;" width="185" x="7" y="360.9283"/><ellipse cx="41.8" cy="376.9283" fill="#ADD1B2" rx="11" ry="11" style="stroke:#181818;stroke-width:1.0;"/><path d="M44.7731,382.5713 Q44.1921,382.8702 43.5529,383.0196 Q42.9138,383.169 42.2082,383.169 Q39.7014,383.169 38.3815,381.5171 Q37.0617,379.8653 37.0617,376.7442 Q37.0617,373.6148 38.3815,371.9629 Q39.7014,370.3111 42.2082,370.3111 Q42.9138,370.3111 43.5612,370.4605 Q44.2087,370.6099 44.7731,370.9088 L44.7731,373.6314 Q44.1423,373.0504 43.5488,372.7806 Q42.9553,372.5108 42.3244,372.5108 Q40.9797,372.5108 40.2949,373.5775 Q39.6101,374.6441 39.6101,376.7442 Q39.6101,378.836 40.2949,379.9026 Q40.9797,380.9693 42.3244,380.9693 Q42.9553,380.9693 43.5488,380.6995 Q44.1423,380.4297 44.7731,379.8487 Z " fill="#000000"/><text fill="#000000" font-family="sans-serif" font-size="14" lengthAdjust="spacing" textLength="109" x="60.2" y="382.2193">ClassRepository</text><line style="stroke:#181818;stroke-width:0.5;" x1="8" x2="191" y1="392.9283" y2="392.9283"/><text fill="#000000" font-family="sans-serif" font-size="14" lengthAdjust="spacing" textLength="173" x="13" y="410.4634">-List&lt;SchClass&gt; classList</text><text fill="#000000" font-family="sans-serif" font-size="14" lengthAdjust="spacing" textLength="92" x="13" y="426.9517">+getClassList</text><text fill="#000000" font-family="sans-serif" font-size="14" lengthAdjust="spacing" textLength="37" x="13" y="443.44">+add</text><line style="stroke:#181818;stroke-width:0.5;" x1="8" x2="191" y1="450.3931" y2="450.3931"/><text fill="#000000" font-family="sans-serif" font-size="14" lengthAdjust="spacing" textLength="146" x="13" y="467.9283">+findClass(timeStart)</text></g><!--class CourseRepository--><g id="elem_CourseRepository"><rect codeLine="34" fill="#F1F1F1" height="80.9766" id="CourseRepository" rx="2.5" ry="2.5" style="stroke:#181818;stroke-width:0.5;" width="187" x="227" y="377.4183"/><ellipse cx="256.85" cy="393.4183" fill="#ADD1B2" rx="11" ry="11" style="stroke:#181818;stroke-width:1.0;"/><path d="M259.8231,399.0613 Q259.2421,399.3602 258.6029,399.5096 Q257.9638,399.659 257.2582,399.659 Q254.7514,399.659 253.4315,398.0071 Q252.1117,396.3553 252.1117,393.2342 Q252.1117,390.1048 253.4315,388.4529 Q254.7514,386.8011 257.2582,386.8011 Q257.9638,386.8011 258.6112,386.9505 Q259.2587,387.0999 259.8231,387.3988 L259.8231,390.1214 Q259.1923,389.5404 258.5988,389.2706 Q258.0053,389.0008 257.3744,389.0008 Q256.0297,389.0008 255.3449,390.0675 Q254.6601,391.1341 254.6601,393.2342 Q254.6601,395.326 255.3449,396.3926 Q256.0297,397.4593 257.3744,397.4593 Q258.0053,397.4593 258.5988,397.1895 Q259.1923,396.9197 259.8231,396.3387 Z " fill="#000000"/><text fill="#000000" font-family="sans-serif" font-size="14" lengthAdjust="spacing" textLength="122" x="274.15" y="398.7093">CourseRepository</text><line style="stroke:#181818;stroke-width:0.5;" x1="228" x2="413" y1="409.4183" y2="409.4183"/><text fill="#000000" font-family="sans-serif" font-size="14" lengthAdjust="spacing" textLength="175" x="233" y="426.9534">-List&lt;Course&gt; courseList</text><line style="stroke:#181818;stroke-width:0.5;" x1="228" x2="413" y1="433.9066" y2="433.9066"/><text fill="#000000" font-family="sans-serif" font-size="14" lengthAdjust="spacing" textLength="112" x="233" y="451.4417">+createCourse()</text></g><!--class Course--><g id="elem_Course"><rect codeLine="39" fill="#F1F1F1" height="97.4648" id="Course" rx="2.5" ry="2.5" style="stroke:#181818;stroke-width:0.5;" width="142" x="438.5" y="535.8883"/><ellipse cx="480.95" cy="551.8883" fill="#ADD1B2" rx="11" ry="11" style="stroke:#181818;stroke-width:1.0;"/><path d="M483.9231,557.5313 Q483.3421,557.8302 482.7029,557.9796 Q482.0638,558.129 481.3582,558.129 Q478.8514,558.129 477.5315,556.4771 Q476.2117,554.8253 476.2117,551.7042 Q476.2117,548.5748 477.5315,546.9229 Q478.8514,545.2711 481.3582,545.2711 Q482.0638,545.2711 482.7112,545.4205 Q483.3587,545.5699 483.9231,545.8688 L483.9231,548.5914 Q483.2923,548.0104 482.6988,547.7406 Q482.1053,547.4708 481.4744,547.4708 Q480.1297,547.4708 479.4449,548.5375 Q478.7601,549.6041 478.7601,551.7042 Q478.7601,553.796 479.4449,554.8626 Q480.1297,555.9293 481.4744,555.9293 Q482.1053,555.9293 482.6988,555.6595 Q483.2923,555.3897 483.9231,554.8087 Z " fill="#000000"/><text fill="#000000" font-family="sans-serif" font-size="14" lengthAdjust="spacing" textLength="49" x="501.05" y="557.1793">Course</text><line style="stroke:#181818;stroke-width:0.5;" x1="439.5" x2="579.5" y1="567.8883" y2="567.8883"/><text fill="#000000" font-family="sans-serif" font-size="14" lengthAdjust="spacing" textLength="89" x="444.5" y="585.4234">-Name name</text><text fill="#000000" font-family="sans-serif" font-size="14" lengthAdjust="spacing" textLength="130" x="444.5" y="601.9117">-String description</text><text fill="#000000" font-family="sans-serif" font-size="14" lengthAdjust="spacing" textLength="103" x="444.5" y="618.4">-int enrollLimit</text><line style="stroke:#181818;stroke-width:0.5;" x1="439.5" x2="579.5" y1="625.3531" y2="625.3531"/></g><!--class ClassBuilder--><g id="elem_ClassBuilder"><rect codeLine="45" fill="#F1F1F1" height="113.9531" id="ClassBuilder" rx="2.5" ry="2.5" style="stroke:#181818;stroke-width:0.5;" width="120" x="449.5" y="360.9283"/><ellipse cx="466.3" cy="376.9283" fill="#ADD1B2" rx="11" ry="11" style="stroke:#181818;stroke-width:1.0;"/><path d="M469.2731,382.5713 Q468.6921,382.8702 468.0529,383.0196 Q467.4138,383.169 466.7082,383.169 Q464.2014,383.169 462.8815,381.5171 Q461.5617,379.8653 461.5617,376.7442 Q461.5617,373.6148 462.8815,371.9629 Q464.2014,370.3111 466.7082,370.3111 Q467.4138,370.3111 468.0612,370.4605 Q468.7087,370.6099 469.2731,370.9088 L469.2731,373.6314 Q468.6423,373.0504 468.0488,372.7806 Q467.4553,372.5108 466.8244,372.5108 Q465.4797,372.5108 464.7949,373.5775 Q464.1101,374.6441 464.1101,376.7442 Q464.1101,378.836 464.7949,379.9026 Q465.4797,380.9693 466.8244,380.9693 Q467.4553,380.9693 468.0488,380.6995 Q468.6423,380.4297 469.2731,379.8487 Z " fill="#000000"/><text fill="#000000" font-family="sans-serif" font-size="14" lengthAdjust="spacing" textLength="84" x="480.7" y="382.2193">ClassBuilder</text><line style="stroke:#181818;stroke-width:0.5;" x1="450.5" x2="568.5" y1="392.9283" y2="392.9283"/><text fill="#000000" font-family="sans-serif" font-size="14" lengthAdjust="spacing" textLength="107" x="455.5" y="410.4634">-Course course</text><text fill="#000000" font-family="sans-serif" font-size="14" lengthAdjust="spacing" textLength="108" x="455.5" y="426.9517">-Date startTime</text><text fill="#000000" font-family="sans-serif" font-size="14" lengthAdjust="spacing" textLength="103" x="455.5" y="443.44">-Date endTime</text><text fill="#000000" font-family="sans-serif" font-size="14" lengthAdjust="spacing" textLength="95" x="455.5" y="459.9283">-int teacherID</text><line style="stroke:#181818;stroke-width:0.5;" x1="450.5" x2="568.5" y1="466.8814" y2="466.8814"/></g><!--link ScheduleClassUI to ScheduleClassController--><g id="link_ScheduleClassUI_ScheduleClassController"><path codeLine="52" d="M320.5,92.9783 C320.5,107.7583 320.5,127.6983 320.5,147.2883 " fill="none" id="ScheduleClassUI-to-ScheduleClassController" style="stroke:#181818;stroke-width:1.0;stroke-dasharray:7.0,7.0;"/><polygon fill="#181818" points="320.5,152.0683,324.5,143.0683,320.5,147.0683,316.5,143.0683,320.5,152.0683" style="stroke:#181818;stroke-width:1.0;"/></g><!--link ScheduleClassController to ClassRepository--><g id="link_ScheduleClassController_ClassRepository"><path codeLine="54" d="M248.14,284.2783 C222.08,307.5383 192.79,333.6683 167.15,356.5483 " fill="none" id="ScheduleClassController-to-ClassRepository" style="stroke:#181818;stroke-width:1.0;stroke-dasharray:7.0,7.0;"/><polygon fill="#181818" points="163.73,359.4883,173.1077,356.4786,167.4599,356.1585,167.7801,350.5107,163.73,359.4883" style="stroke:#181818;stroke-width:1.0;"/></g><!--link ScheduleClassController to CourseRepository--><g id="link_ScheduleClassController_CourseRepository"><path codeLine="55" d="M320.5,284.2783 C320.5,312.6883 320.5,345.3783 320.5,371.2083 " fill="none" id="ScheduleClassController-to-CourseRepository" style="stroke:#181818;stroke-width:1.0;stroke-dasharray:7.0,7.0;"/><polygon fill="#181818" points="320.5,375.9383,324.5,366.9383,320.5,370.9383,316.5,366.9383,320.5,375.9383" style="stroke:#181818;stroke-width:1.0;"/></g><!--link ScheduleClassController to ClassBuilder--><g id="link_ScheduleClassController_ClassBuilder"><path codeLine="57" d="M382.39,284.2783 C404.58,307.4383 429.51,333.4483 451.38,356.2683 " fill="none" id="ScheduleClassController-to-ClassBuilder" style="stroke:#181818;stroke-width:1.0;"/><polygon fill="#181818" points="454.42,359.4883,451.0896,350.2196,450.9639,355.8751,445.3084,355.7494,454.42,359.4883" style="stroke:#181818;stroke-width:1.0;"/><text fill="#000000" font-family="sans-serif" font-size="13" lengthAdjust="spacing" textLength="74" x="426.5" y="327.4966">buildClass()</text></g><!--link ClassBuilder to Course--><g id="link_ClassBuilder_Course"><path codeLine="58" d="M509.5,475.1283 C509.5,492.7983 509.5,512.2483 509.5,529.7483 " fill="none" id="ClassBuilder-to-Course" style="stroke:#181818;stroke-width:1.0;"/><polygon fill="#181818" points="509.5,534.6083,513.5,525.6083,509.5,529.6083,505.5,525.6083,509.5,534.6083" style="stroke:#181818;stroke-width:1.0;"/></g><!--SRC=[ZLFDQXin4BxhAURc6BF1kPPYQ9sB8PJITHv0aSRh8LffaMOfRkYxToJPoNgRb5x4wlkPN-qYFPCVTDGzzC47SuoXH-0uedfZ1csUTOSjdnn2HCFQTsugI4Tjmq_o7HoqIrF6aKS-3GX3SATyKOjto10vg8dBE9tI5-P8JoFZpWJVqY-4jL8BXmS63X2fEp9OokLGyF_dPcBfuB6zMz-jeO5zWDOSqOu2QjXccrB5_OeNy747B-htkzGsU8x1EOmYQRPXZ0b_u10ISOWdC3D09DarLLpVrQf3tgEM7F5cgHgvpODUu6kZe5BXkSHvaXS5q3nGuizIV24tDN76X5iToDk2tp3ricWTUPdnIvwBJblxDeY_kfK9b2ILs9oxBzwLYQWPArDhdGR9rczQNfwNGpMjx4uUayLa8Wrblmrv1lHvrW_K4qyYvFFhICvYB8sUGzRi6RYNp91oKtlfxXL1Ro_t79phr7VtEVHy_xUtcuyMFnDFNaGspLRnR-tyjNoeRfhDLT_m2PxoLztXKbrnHLo7eHRVwx-SeAUKPCZg3m00]--></g></svg>