<?xml version="1.0" encoding="us-ascii" standalone="no"?><svg xmlns="http://www.w3.org/2000/svg" xmlns:xlink="http://www.w3.org/1999/xlink" contentStyleType="text/css" height="835px" preserveAspectRatio="none" style="width:1312px;height:835px;background:#FFFFFF;" version="1.1" viewBox="0 0 1312 835" width="1312px" zoomAndPan="magnify"><defs/><g><!--cluster app--><g id="cluster_app"><rect fill="none" height="311.71" rx="2.5" ry="2.5" style="stroke:#000000;stroke-width:1.5;" width="200" x="7" y="7"/><text fill="#000000" font-family="FG Virgil" font-size="14" font-weight="bold" lengthAdjust="spacing" textLength="26" x="94" y="22.5352">app</text></g><!--cluster exammanagement--><g id="cluster_exammanagement"><rect fill="none" height="157.09" rx="2.5" ry="2.5" style="stroke:#000000;stroke-width:1.5;" width="824" x="231" y="178.11"/><text fill="#000000" font-family="FG Virgil" font-size="14" font-weight="bold" lengthAdjust="spacing" textLength="131" x="577.5" y="193.6452">exammanagement</text></g><!--cluster coursemanagement--><g id="cluster_coursemanagement"><rect fill="none" height="124.11" rx="2.5" ry="2.5" style="stroke:#000000;stroke-width:1.5;" width="334" x="426" y="384.2"/><text fill="#000000" font-family="FG Virgil" font-size="14" font-weight="bold" lengthAdjust="spacing" textLength="140" x="523" y="399.7352">coursemanagement</text></g><!--cluster usertypemanagement--><g id="cluster_usertypemanagement"><rect fill="none" height="124.11" rx="2.5" ry="2.5" style="stroke:#000000;stroke-width:1.5;" width="635" x="484" y="705.04"/><text fill="#000000" font-family="FG Virgil" font-size="14" font-weight="bold" lengthAdjust="spacing" textLength="155" x="724" y="720.5752">usertypemanagement</text></g><!--class ListCourseExamsUI--><g id="elem_ListCourseExamsUI"><rect codeLine="7" fill="#F1F1F1" height="73.1094" id="ListCourseExamsUI" rx="2.5" ry="2.5" style="stroke:#181818;stroke-width:0.5;" width="163" x="26.5" y="42"/><ellipse cx="41.5" cy="62.3105" fill="#ADD1B2" rx="11" ry="11" style="stroke:#181818;stroke-width:1.0;"/><path d="M44.4731,67.9536 Q43.8921,68.2524 43.2529,68.4019 Q42.6138,68.5513 41.9082,68.5513 Q39.4014,68.5513 38.0815,66.8994 Q36.7617,65.2476 36.7617,62.1265 Q36.7617,58.9971 38.0815,57.3452 Q39.4014,55.6934 41.9082,55.6934 Q42.6138,55.6934 43.2612,55.8428 Q43.9087,55.9922 44.4731,56.291 L44.4731,59.0137 Q43.8423,58.4326 43.2488,58.1628 Q42.6553,57.8931 42.0244,57.8931 Q40.6797,57.8931 39.9949,58.9597 Q39.3101,60.0264 39.3101,62.1265 Q39.3101,64.2183 39.9949,65.2849 Q40.6797,66.3516 42.0244,66.3516 Q42.6553,66.3516 43.2488,66.0818 Q43.8423,65.812 44.4731,65.231 Z " fill="#000000"/><text fill="#000000" font-family="FG Virgil" font-size="12" font-style="italic" lengthAdjust="spacing" textLength="84" x="79" y="58.6016">&#171;presentation&#187;</text><text fill="#000000" font-family="FG Virgil" font-size="14" lengthAdjust="spacing" textLength="131" x="55.5" y="74.668">ListCourseExamsUI</text><line style="stroke:#181818;stroke-width:0.5;" x1="27.5" x2="188.5" y1="82.6211" y2="82.6211"/><line style="stroke:#181818;stroke-width:0.5;" x1="27.5" x2="188.5" y1="90.6211" y2="90.6211"/><text fill="#000000" font-family="FG Virgil" font-size="14" lengthAdjust="spacing" textLength="65" x="32.5" y="108.1563">doShow()</text></g><!--class SelectCourseWidget--><g id="elem_SelectCourseWidget"><rect codeLine="10" fill="#F1F1F1" height="73.1094" id="SelectCourseWidget" rx="2.5" ry="2.5" style="stroke:#181818;stroke-width:0.5;" width="168" x="23" y="229.6"/><ellipse cx="38" cy="249.9105" fill="#ADD1B2" rx="11" ry="11" style="stroke:#181818;stroke-width:1.0;"/><path d="M40.9731,255.5536 Q40.3921,255.8524 39.7529,256.0019 Q39.1138,256.1513 38.4082,256.1513 Q35.9014,256.1513 34.5815,254.4994 Q33.2617,252.8476 33.2617,249.7265 Q33.2617,246.5971 34.5815,244.9452 Q35.9014,243.2934 38.4082,243.2934 Q39.1138,243.2934 39.7612,243.4428 Q40.4087,243.5922 40.9731,243.891 L40.9731,246.6137 Q40.3423,246.0326 39.7488,245.7628 Q39.1553,245.4931 38.5244,245.4931 Q37.1797,245.4931 36.4949,246.5597 Q35.8101,247.6264 35.8101,249.7265 Q35.8101,251.8183 36.4949,252.8849 Q37.1797,253.9516 38.5244,253.9516 Q39.1553,253.9516 39.7488,253.6818 Q40.3423,253.412 40.9731,252.831 Z " fill="#000000"/><text fill="#000000" font-family="FG Virgil" font-size="12" font-style="italic" lengthAdjust="spacing" textLength="84" x="78" y="246.2016">&#171;presentation&#187;</text><text fill="#000000" font-family="FG Virgil" font-size="14" lengthAdjust="spacing" textLength="136" x="52" y="262.268">SelectCourseWidget</text><line style="stroke:#181818;stroke-width:0.5;" x1="24" x2="190" y1="270.2211" y2="270.2211"/><line style="stroke:#181818;stroke-width:0.5;" x1="24" x2="190" y1="278.2211" y2="278.2211"/><text fill="#000000" font-family="FG Virgil" font-size="14" lengthAdjust="spacing" textLength="98" x="29" y="295.7563">selectCourse()</text></g><!--class ListCourseExamsController--><g id="elem_ListCourseExamsController"><rect codeLine="15" fill="#F1F1F1" height="106.0859" id="ListCourseExamsController" rx="2.5" ry="2.5" style="stroke:#181818;stroke-width:0.5;" width="282" x="757" y="213.11"/><ellipse cx="800.35" cy="233.4205" fill="#ADD1B2" rx="11" ry="11" style="stroke:#181818;stroke-width:1.0;"/><path d="M803.3231,239.0636 Q802.7421,239.3624 802.1029,239.5119 Q801.4638,239.6613 800.7582,239.6613 Q798.2514,239.6613 796.9315,238.0094 Q795.6117,236.3576 795.6117,233.2365 Q795.6117,230.1071 796.9315,228.4552 Q798.2514,226.8034 800.7582,226.8034 Q801.4638,226.8034 802.1112,226.9528 Q802.7587,227.1022 803.3231,227.401 L803.3231,230.1237 Q802.6923,229.5426 802.0988,229.2728 Q801.5053,229.0031 800.8744,229.0031 Q799.5297,229.0031 798.8449,230.0697 Q798.1601,231.1364 798.1601,233.2365 Q798.1601,235.3283 798.8449,236.3949 Q799.5297,237.4616 800.8744,237.4616 Q801.5053,237.4616 802.0988,237.1918 Q802.6923,236.922 803.3231,236.341 Z " fill="#000000"/><text fill="#000000" font-family="FG Virgil" font-size="12" font-style="italic" lengthAdjust="spacing" textLength="75" x="876.65" y="229.7116">&#171;application&#187;</text><text fill="#000000" font-family="FG Virgil" font-size="14" lengthAdjust="spacing" textLength="187" x="820.65" y="245.778">ListCourseExamsController</text><line style="stroke:#181818;stroke-width:0.5;" x1="758" x2="1038" y1="253.7311" y2="253.7311"/><line style="stroke:#181818;stroke-width:0.5;" x1="758" x2="1038" y1="261.7311" y2="261.7311"/><text fill="#000000" font-family="FG Virgil" font-size="14" lengthAdjust="spacing" textLength="270" x="763" y="279.2663">allCoursesTeacherIsAssigned(acronym)</text><text fill="#000000" font-family="FG Virgil" font-size="14" lengthAdjust="spacing" textLength="124" x="763" y="295.7545">getUserAcronym()</text><text fill="#000000" font-family="FG Virgil" font-size="14" lengthAdjust="spacing" textLength="170" x="763" y="312.2428">listCourseExams(course)</text></g><!--class Exam--><g id="elem_Exam"><rect codeLine="20" fill="#F1F1F1" height="73.1094" id="Exam" rx="2.5" ry="2.5" style="stroke:#181818;stroke-width:0.5;" width="475" x="246.5" y="229.6"/><ellipse cx="454.25" cy="249.9105" fill="#ADD1B2" rx="11" ry="11" style="stroke:#181818;stroke-width:1.0;"/><path d="M457.2231,255.5536 Q456.6421,255.8524 456.0029,256.0019 Q455.3638,256.1513 454.6582,256.1513 Q452.1514,256.1513 450.8315,254.4994 Q449.5117,252.8476 449.5117,249.7265 Q449.5117,246.5971 450.8315,244.9452 Q452.1514,243.2934 454.6582,243.2934 Q455.3638,243.2934 456.0112,243.4428 Q456.6587,243.5922 457.2231,243.891 L457.2231,246.6137 Q456.5923,246.0326 455.9988,245.7628 Q455.4053,245.4931 454.7744,245.4931 Q453.4297,245.4931 452.7449,246.5597 Q452.0601,247.6264 452.0601,249.7265 Q452.0601,251.8183 452.7449,252.8849 Q453.4297,253.9516 454.7744,253.9516 Q455.4053,253.9516 455.9988,253.6818 Q456.5923,253.412 457.2231,252.831 Z " fill="#000000"/><text fill="#000000" font-family="FG Virgil" font-size="12" font-style="italic" lengthAdjust="spacing" textLength="55" x="472.75" y="246.2016">&#171;domain&#187;</text><text fill="#000000" font-family="FG Virgil" font-size="14" lengthAdjust="spacing" textLength="38" x="481.25" y="262.268">Exam</text><line style="stroke:#181818;stroke-width:0.5;" x1="247.5" x2="720.5" y1="270.2211" y2="270.2211"/><line style="stroke:#181818;stroke-width:0.5;" x1="247.5" x2="720.5" y1="278.2211" y2="278.2211"/><text fill="#000000" font-family="FG Virgil" font-size="14" lengthAdjust="spacing" textLength="463" x="252.5" y="295.7563">Exam(Course, Title, date, description, questions, sections, settings,)</text></g><!--class Course--><g id="elem_Course"><rect codeLine="35" fill="#F1F1F1" height="73.1094" id="Course" rx="2.5" ry="2.5" style="stroke:#181818;stroke-width:0.5;" width="83" x="442.5" y="419.2"/><ellipse cx="457.5" cy="439.5105" fill="#ADD1B2" rx="11" ry="11" style="stroke:#181818;stroke-width:1.0;"/><path d="M460.4731,445.1536 Q459.8921,445.4524 459.2529,445.6019 Q458.6138,445.7513 457.9082,445.7513 Q455.4014,445.7513 454.0815,444.0994 Q452.7617,442.4476 452.7617,439.3265 Q452.7617,436.1971 454.0815,434.5452 Q455.4014,432.8934 457.9082,432.8934 Q458.6138,432.8934 459.2612,433.0428 Q459.9087,433.1922 460.4731,433.491 L460.4731,436.2137 Q459.8423,435.6326 459.2488,435.3628 Q458.6553,435.0931 458.0244,435.0931 Q456.6797,435.0931 455.9949,436.1597 Q455.3101,437.2264 455.3101,439.3265 Q455.3101,441.4183 455.9949,442.4849 Q456.6797,443.5516 458.0244,443.5516 Q458.6553,443.5516 459.2488,443.2818 Q459.8423,443.012 460.4731,442.431 Z " fill="#000000"/><text fill="#000000" font-family="FG Virgil" font-size="12" font-style="italic" lengthAdjust="spacing" textLength="55" x="469.5" y="435.8016">&#171;domain&#187;</text><text fill="#000000" font-family="FG Virgil" font-size="14" lengthAdjust="spacing" textLength="49" x="472.5" y="451.868">Course</text><line style="stroke:#181818;stroke-width:0.5;" x1="443.5" x2="524.5" y1="459.8211" y2="459.8211"/><line style="stroke:#181818;stroke-width:0.5;" x1="443.5" x2="524.5" y1="467.8211" y2="467.8211"/><text fill="#000000" font-family="FG Virgil" font-size="14" lengthAdjust="spacing" textLength="55" x="448.5" y="485.3563">exams()</text></g><!--class CourseRepository--><g id="elem_CourseRepository"><rect codeLine="38" fill="#F1F1F1" height="56.6211" id="CourseRepository" rx="2.5" ry="2.5" style="stroke:#181818;stroke-width:0.5;" width="154" x="590" y="427.44"/><ellipse cx="605" cy="447.7505" fill="#ADD1B2" rx="11" ry="11" style="stroke:#181818;stroke-width:1.0;"/><path d="M607.9731,453.3936 Q607.3921,453.6924 606.7529,453.8419 Q606.1138,453.9913 605.4082,453.9913 Q602.9014,453.9913 601.5815,452.3394 Q600.2617,450.6876 600.2617,447.5665 Q600.2617,444.4371 601.5815,442.7852 Q602.9014,441.1334 605.4082,441.1334 Q606.1138,441.1334 606.7612,441.2828 Q607.4087,441.4322 607.9731,441.731 L607.9731,444.4537 Q607.3423,443.8726 606.7488,443.6028 Q606.1553,443.3331 605.5244,443.3331 Q604.1797,443.3331 603.4949,444.3997 Q602.8101,445.4664 602.8101,447.5665 Q602.8101,449.6583 603.4949,450.7249 Q604.1797,451.7916 605.5244,451.7916 Q606.1553,451.7916 606.7488,451.5218 Q607.3423,451.252 607.9731,450.671 Z " fill="#000000"/><text fill="#000000" font-family="FG Virgil" font-size="12" font-style="italic" lengthAdjust="spacing" textLength="70" x="645" y="444.0416">&#171;repository&#187;</text><text fill="#000000" font-family="FG Virgil" font-size="14" lengthAdjust="spacing" textLength="122" x="619" y="460.108">CourseRepository</text><line style="stroke:#181818;stroke-width:0.5;" x1="591" x2="743" y1="468.0611" y2="468.0611"/><line style="stroke:#181818;stroke-width:0.5;" x1="591" x2="743" y1="476.0611" y2="476.0611"/></g><!--class TeacherUserRepository--><g id="elem_TeacherUserRepository"><rect codeLine="51" fill="#F1F1F1" height="73.1094" id="TeacherUserRepository" rx="2.5" ry="2.5" style="stroke:#181818;stroke-width:0.5;" width="275" x="499.5" y="740.04"/><ellipse cx="553.25" cy="760.3505" fill="#ADD1B2" rx="11" ry="11" style="stroke:#181818;stroke-width:1.0;"/><path d="M556.2231,765.9936 Q555.6421,766.2924 555.0029,766.4419 Q554.3638,766.5913 553.6582,766.5913 Q551.1514,766.5913 549.8315,764.9394 Q548.5117,763.2876 548.5117,760.1665 Q548.5117,757.0371 549.8315,755.3852 Q551.1514,753.7334 553.6582,753.7334 Q554.3638,753.7334 555.0112,753.8828 Q555.6587,754.0322 556.2231,754.331 L556.2231,757.0537 Q555.5923,756.4726 554.9988,756.2028 Q554.4053,755.9331 553.7744,755.9331 Q552.4297,755.9331 551.7449,756.9997 Q551.0601,758.0664 551.0601,760.1665 Q551.0601,762.2583 551.7449,763.3249 Q552.4297,764.3916 553.7744,764.3916 Q554.4053,764.3916 554.9988,764.1218 Q555.5923,763.852 556.2231,763.271 Z " fill="#000000"/><text fill="#000000" font-family="FG Virgil" font-size="12" font-style="italic" lengthAdjust="spacing" textLength="70" x="618.25" y="756.6416">&#171;repository&#187;</text><text fill="#000000" font-family="FG Virgil" font-size="14" lengthAdjust="spacing" textLength="159" x="573.75" y="772.708">TeacherUserRepository</text><line style="stroke:#181818;stroke-width:0.5;" x1="500.5" x2="773.5" y1="780.6611" y2="780.6611"/><line style="stroke:#181818;stroke-width:0.5;" x1="500.5" x2="773.5" y1="788.6611" y2="788.6611"/><text fill="#000000" font-family="FG Virgil" font-size="14" lengthAdjust="spacing" textLength="263" x="505.5" y="806.1963">getTeacherUserFromSystemUser(user)</text></g><!--class TeacherInCourseRepository--><g id="elem_TeacherInCourseRepository"><rect codeLine="55" fill="#F1F1F1" height="73.1094" id="TeacherInCourseRepository" rx="2.5" ry="2.5" style="stroke:#181818;stroke-width:0.5;" width="294" x="809" y="740.04"/><ellipse cx="856.75" cy="760.3505" fill="#ADD1B2" rx="11" ry="11" style="stroke:#181818;stroke-width:1.0;"/><path d="M859.7231,765.9936 Q859.1421,766.2924 858.5029,766.4419 Q857.8638,766.5913 857.1582,766.5913 Q854.6514,766.5913 853.3315,764.9394 Q852.0117,763.2876 852.0117,760.1665 Q852.0117,757.0371 853.3315,755.3852 Q854.6514,753.7334 857.1582,753.7334 Q857.8638,753.7334 858.5112,753.8828 Q859.1587,754.0322 859.7231,754.331 L859.7231,757.0537 Q859.0923,756.4726 858.4988,756.2028 Q857.9053,755.9331 857.2744,755.9331 Q855.9297,755.9331 855.2449,756.9997 Q854.5601,758.0664 854.5601,760.1665 Q854.5601,762.2583 855.2449,763.3249 Q855.9297,764.3916 857.2744,764.3916 Q857.9053,764.3916 858.4988,764.1218 Q859.0923,763.852 859.7231,763.271 Z " fill="#000000"/><text fill="#000000" font-family="FG Virgil" font-size="12" font-style="italic" lengthAdjust="spacing" textLength="70" x="937.25" y="756.6416">&#171;repository&#187;</text><text fill="#000000" font-family="FG Virgil" font-size="14" lengthAdjust="spacing" textLength="190" x="877.25" y="772.708">TeacherInCourseRepository</text><line style="stroke:#181818;stroke-width:0.5;" x1="810" x2="1102" y1="780.6611" y2="780.6611"/><line style="stroke:#181818;stroke-width:0.5;" x1="810" x2="1102" y1="788.6611" y2="788.6611"/><text fill="#000000" font-family="FG Virgil" font-size="14" lengthAdjust="spacing" textLength="282" x="815" y="806.1963">findAllCoursesTeacherIsAssign(acronym)</text></g><!--class AuthorizationService--><g id="elem_AuthorizationService"><rect codeLine="25" fill="#F1F1F1" height="89.5977" id="AuthorizationService" rx="2.5" ry="2.5" style="stroke:#181818;stroke-width:0.5;" width="327" x="978.5" y="410.95"/><ellipse cx="1066.25" cy="431.2605" fill="#ADD1B2" rx="11" ry="11" style="stroke:#181818;stroke-width:1.0;"/><path d="M1069.2231,436.9036 Q1068.6421,437.2024 1068.0029,437.3519 Q1067.3638,437.5013 1066.6582,437.5013 Q1064.1514,437.5013 1062.8315,435.8494 Q1061.5117,434.1976 1061.5117,431.0765 Q1061.5117,427.9471 1062.8315,426.2952 Q1064.1514,424.6434 1066.6582,424.6434 Q1067.3638,424.6434 1068.0112,424.7928 Q1068.6587,424.9422 1069.2231,425.241 L1069.2231,427.9637 Q1068.5923,427.3826 1067.9988,427.1128 Q1067.4053,426.8431 1066.7744,426.8431 Q1065.4297,426.8431 1064.7449,427.9097 Q1064.0601,428.9764 1064.0601,431.0765 Q1064.0601,433.1683 1064.7449,434.2349 Q1065.4297,435.3016 1066.7744,435.3016 Q1067.4053,435.3016 1067.9988,435.0318 Q1068.5923,434.762 1069.2231,434.181 Z " fill="#000000"/><text fill="#000000" font-family="FG Virgil" font-size="12" font-style="italic" lengthAdjust="spacing" textLength="52" x="1132.25" y="427.5516">&#171;service&#187;</text><text fill="#000000" font-family="FG Virgil" font-size="14" lengthAdjust="spacing" textLength="143" x="1086.75" y="443.618">AuthorizationService</text><line style="stroke:#181818;stroke-width:0.5;" x1="979.5" x2="1304.5" y1="451.5711" y2="451.5711"/><line style="stroke:#181818;stroke-width:0.5;" x1="979.5" x2="1304.5" y1="459.5711" y2="459.5711"/><text fill="#000000" font-family="FG Virgil" font-size="14" lengthAdjust="spacing" textLength="315" x="984.5" y="477.1063">ensureAuthenticatedUserHasAnyOf(TEACHER)</text><text fill="#000000" font-family="FG Virgil" font-size="14" lengthAdjust="spacing" textLength="61" x="984.5" y="493.5945">session()</text></g><!--class UserSession--><g id="elem_UserSession"><rect codeLine="30" fill="#F1F1F1" height="64.4883" id="UserSession" rx="2.5" ry="2.5" style="stroke:#181818;stroke-width:0.5;" width="147" x="1068.5" y="577.55"/><ellipse cx="1097.9" cy="593.55" fill="#ADD1B2" rx="11" ry="11" style="stroke:#181818;stroke-width:1.0;"/><path d="M1100.8731,599.1931 Q1100.2921,599.4919 1099.6529,599.6413 Q1099.0138,599.7907 1098.3082,599.7907 Q1095.8014,599.7907 1094.4815,598.1389 Q1093.1617,596.487 1093.1617,593.3659 Q1093.1617,590.2365 1094.4815,588.5847 Q1095.8014,586.9328 1098.3082,586.9328 Q1099.0138,586.9328 1099.6612,587.0822 Q1100.3087,587.2316 1100.8731,587.5305 L1100.8731,590.2531 Q1100.2423,589.6721 1099.6488,589.4023 Q1099.0553,589.1325 1098.4244,589.1325 Q1097.0797,589.1325 1096.3949,590.1992 Q1095.7101,591.2658 1095.7101,593.3659 Q1095.7101,595.4577 1096.3949,596.5244 Q1097.0797,597.591 1098.4244,597.591 Q1099.0553,597.591 1099.6488,597.3212 Q1100.2423,597.0515 1100.8731,596.4704 Z " fill="#000000"/><text fill="#000000" font-family="FG Virgil" font-size="14" lengthAdjust="spacing" textLength="83" x="1115.1" y="598.841">UserSession</text><line style="stroke:#181818;stroke-width:0.5;" x1="1069.5" x2="1214.5" y1="609.55" y2="609.55"/><line style="stroke:#181818;stroke-width:0.5;" x1="1069.5" x2="1214.5" y1="617.55" y2="617.55"/><text fill="#000000" font-family="FG Virgil" font-size="14" lengthAdjust="spacing" textLength="135" x="1074.5" y="635.0852">authenticatedUser()</text></g><!--class PersistenceContext--><g id="elem_PersistenceContext"><rect codeLine="43" fill="#F1F1F1" height="73.1094" id="PersistenceContext" rx="2.5" ry="2.5" style="stroke:#181818;stroke-width:0.5;" width="164" x="779" y="419.2"/><ellipse cx="794" cy="439.5105" fill="#ADD1B2" rx="11" ry="11" style="stroke:#181818;stroke-width:1.0;"/><path d="M796.9731,445.1536 Q796.3921,445.4524 795.7529,445.6019 Q795.1138,445.7513 794.4082,445.7513 Q791.9014,445.7513 790.5815,444.0994 Q789.2617,442.4476 789.2617,439.3265 Q789.2617,436.1971 790.5815,434.5452 Q791.9014,432.8934 794.4082,432.8934 Q795.1138,432.8934 795.7612,433.0428 Q796.4087,433.1922 796.9731,433.491 L796.9731,436.2137 Q796.3423,435.6326 795.7488,435.3628 Q795.1553,435.0931 794.5244,435.0931 Q793.1797,435.0931 792.4949,436.1597 Q791.8101,437.2264 791.8101,439.3265 Q791.8101,441.4183 792.4949,442.4849 Q793.1797,443.5516 794.5244,443.5516 Q795.1553,443.5516 795.7488,443.2818 Q796.3423,443.012 796.9731,442.431 Z " fill="#000000"/><text fill="#000000" font-family="FG Virgil" font-size="12" font-style="italic" lengthAdjust="spacing" textLength="78" x="835" y="435.8016">&#171;persistence&#187;</text><text fill="#000000" font-family="FG Virgil" font-size="14" lengthAdjust="spacing" textLength="132" x="808" y="451.868">PersistenceContext</text><line style="stroke:#181818;stroke-width:0.5;" x1="780" x2="942" y1="459.8211" y2="459.8211"/><line style="stroke:#181818;stroke-width:0.5;" x1="780" x2="942" y1="467.8211" y2="467.8211"/><text fill="#000000" font-family="FG Virgil" font-size="14" lengthAdjust="spacing" textLength="92" x="785" y="485.3563">repositories()</text></g><!--class RepositoryFactory--><g id="elem_RepositoryFactory"><rect codeLine="47" fill="#F1F1F1" height="56.6211" id="RepositoryFactory" rx="2.5" ry="2.5" style="stroke:#181818;stroke-width:0.5;" width="155" x="675.5" y="581.49"/><ellipse cx="690.5" cy="601.8005" fill="#ADD1B2" rx="11" ry="11" style="stroke:#181818;stroke-width:1.0;"/><path d="M693.4731,607.4436 Q692.8921,607.7424 692.2529,607.8919 Q691.6138,608.0413 690.9082,608.0413 Q688.4014,608.0413 687.0815,606.3894 Q685.7617,604.7376 685.7617,601.6165 Q685.7617,598.4871 687.0815,596.8352 Q688.4014,595.1834 690.9082,595.1834 Q691.6138,595.1834 692.2612,595.3328 Q692.9087,595.4822 693.4731,595.781 L693.4731,598.5037 Q692.8423,597.9226 692.2488,597.6528 Q691.6553,597.3831 691.0244,597.3831 Q689.6797,597.3831 688.9949,598.4497 Q688.3101,599.5164 688.3101,601.6165 Q688.3101,603.7083 688.9949,604.7749 Q689.6797,605.8416 691.0244,605.8416 Q691.6553,605.8416 692.2488,605.5718 Q692.8423,605.302 693.4731,604.721 Z " fill="#000000"/><text fill="#000000" font-family="FG Virgil" font-size="12" font-style="italic" lengthAdjust="spacing" textLength="51" x="740.5" y="598.0916">&#171;factory&#187;</text><text fill="#000000" font-family="FG Virgil" font-size="14" lengthAdjust="spacing" textLength="123" x="704.5" y="614.158">RepositoryFactory</text><line style="stroke:#181818;stroke-width:0.5;" x1="676.5" x2="829.5" y1="622.1111" y2="622.1111"/><line style="stroke:#181818;stroke-width:0.5;" x1="676.5" x2="829.5" y1="630.1111" y2="630.1111"/></g><!--link Course to Exam--><g id="link_Course_Exam"><path codeLine="62" d="M484,418.84 C484,387.33 484,341.51 484,308.48 " fill="none" id="Course-to-Exam" style="stroke:#181818;stroke-width:1.0;"/><polygon fill="#181818" points="484,303.88,480,312.88,484,308.88,488,312.88,484,303.88" style="stroke:#181818;stroke-width:1.0;"/></g><!--link ListCourseExamsController to AuthorizationService--><g id="link_ListCourseExamsController_AuthorizationService"><path codeLine="63" d="M966.29,319.66 C1001.91,347.05 1045.16,380.3 1079.84,406.96 " fill="none" id="ListCourseExamsController-to-AuthorizationService" style="stroke:#181818;stroke-width:1.0;"/><polygon fill="#181818" points="1083.46,410.51,1078.7637,401.8529,1079.4963,407.4621,1073.8871,408.1948,1083.46,410.51" style="stroke:#181818;stroke-width:1.0;"/><text fill="#000000" font-family="FG Virgil" font-size="13" lengthAdjust="spacing" textLength="35" x="1028" y="364.7684">authz</text></g><!--link ListCourseExamsController to CourseRepository--><g id="link_ListCourseExamsController_CourseRepository"><path codeLine="64" d="M831.55,319.53 C809.05,337.39 783.85,357.56 761,376.2 C742.01,391.69 721.07,409.15 703.78,423.67 " fill="none" id="ListCourseExamsController-to-CourseRepository" style="stroke:#181818;stroke-width:1.0;"/><polygon fill="#181818" points="700.47,427.3,709.9348,424.5766,704.2994,424.085,704.7909,418.4496,700.47,427.3" style="stroke:#181818;stroke-width:1.0;"/><text fill="#000000" font-family="FG Virgil" font-size="13" lengthAdjust="spacing" textLength="64" x="791" y="364.7684">repository</text></g><!--link AuthorizationService to UserSession--><g id="link_AuthorizationService_UserSession"><path codeLine="65" d="M1142,500.73 C1142,523.18 1142,550.19 1142,571.59 " fill="none" id="AuthorizationService-to-UserSession" style="stroke:#181818;stroke-width:1.0;"/><polygon fill="#181818" points="1142,576.47,1146,567.47,1142,571.47,1138,567.47,1142,576.47" style="stroke:#181818;stroke-width:1.0;"/><text fill="#000000" font-family="FG Virgil" font-size="13" lengthAdjust="spacing" textLength="48" x="1143" y="544.1184">session</text></g><!--link PersistenceContext to RepositoryFactory--><g id="link_PersistenceContext_RepositoryFactory"><path codeLine="66" d="M835.41,492.79 C817.39,518.14 793.49,551.8 776.07,576.32 " fill="none" id="PersistenceContext-to-RepositoryFactory" style="stroke:#181818;stroke-width:1.0;"/><polygon fill="#181818" points="772.67,580.1,781.1494,575.0901,775.5708,576.0275,774.6334,570.4488,772.67,580.1" style="stroke:#181818;stroke-width:1.0;"/><text fill="#000000" font-family="FG Virgil" font-size="13" lengthAdjust="spacing" textLength="44" x="808" y="544.1184">factory</text></g><!--link ListCourseExamsController to PersistenceContext--><g id="link_ListCourseExamsController_PersistenceContext"><path codeLine="67" d="M887.69,319.41 C881.86,348.97 874.68,385.42 869.23,413.04 " fill="none" id="ListCourseExamsController-to-PersistenceContext" style="stroke:#181818;stroke-width:1.0;"/><polygon fill="#181818" points="868.09,417.8,873.7594,409.7465,869.0596,412.8949,865.9112,408.1952,868.09,417.8" style="stroke:#181818;stroke-width:1.0;"/><text fill="#000000" font-family="FG Virgil" font-size="13" lengthAdjust="spacing" textLength="72" x="881" y="364.7684">persistence</text></g><!--link ListCourseExamsUI to ListCourseExamsController--><g id="link_ListCourseExamsUI_ListCourseExamsController"><path codeLine="68" d="M189.87,81.08 C312.61,85.61 550.07,103.14 739,170.11 C766.56,179.88 794.61,194.71 819.32,209.76 " fill="none" id="ListCourseExamsUI-to-ListCourseExamsController" style="stroke:#181818;stroke-width:1.0;"/><polygon fill="#181818" points="823.21,212.77,817.6536,204.6382,818.9556,210.1431,813.4507,211.4452,823.21,212.77" style="stroke:#181818;stroke-width:1.0;"/><text fill="#000000" font-family="FG Virgil" font-size="13" lengthAdjust="spacing" textLength="61" x="707" y="158.6784">controller</text></g><!--link Course to CourseRepository--><g id="link_Course_CourseRepository"><path codeLine="69" d="M525.98,455.75 C543.18,455.75 563.7,455.75 583.71,455.75 " fill="none" id="Course-to-CourseRepository" style="stroke:#181818;stroke-width:1.0;"/><polygon fill="#181818" points="588.61,455.75,579.61,451.75,583.61,455.75,579.61,459.75,588.61,455.75" style="stroke:#181818;stroke-width:1.0;"/><text fill="#000000" font-family="FG Virgil" font-size="13" lengthAdjust="spacing" textLength="28" x="543.75" y="449.3184">save</text></g><!--link RepositoryFactory to CourseRepository--><g id="link_RepositoryFactory_CourseRepository"><path codeLine="70" d="M730.88,581.28 C723.15,571.02 714.72,559.06 708,547.55 C697.24,529.15 687.34,507.42 679.96,489.83 " fill="none" id="RepositoryFactory-to-CourseRepository" style="stroke:#181818;stroke-width:1.0;"/><polygon fill="#181818" points="677.76,485.52,677.5141,495.3658,679.676,490.1383,684.9034,492.3002,677.76,485.52" style="stroke:#181818;stroke-width:1.0;"/><text fill="#000000" font-family="FG Virgil" font-size="13" lengthAdjust="spacing" textLength="64" x="709" y="544.1184">repository</text></g><!--link RepositoryFactory to TeacherUserRepository--><g id="link_RepositoryFactory_TeacherUserRepository"><path codeLine="71" d="M733.58,638.38 C715.03,664.73 686.85,704.78 665.7,734.82 " fill="none" id="RepositoryFactory-to-TeacherUserRepository" style="stroke:#181818;stroke-width:1.0;"/><polygon fill="#181818" points="662.37,738.55,670.8294,733.5063,665.2545,734.466,664.2949,728.8911,662.37,738.55" style="stroke:#181818;stroke-width:1.0;"/><text fill="#000000" font-family="FG Virgil" font-size="13" lengthAdjust="spacing" textLength="64" x="709" y="685.6084">repository</text></g><!--link RepositoryFactory to TeacherInCourseRepository--><g id="link_RepositoryFactory_TeacherInCourseRepository"><path codeLine="72" d="M786.98,638.38 C819.84,665.06 869.99,705.77 907.13,735.92 " fill="none" id="RepositoryFactory-to-TeacherInCourseRepository" style="stroke:#181818;stroke-width:1.0;"/><polygon fill="#181818" points="910.6,739.55,906.1373,730.7702,906.7194,736.397,901.0926,736.9791,910.6,739.55" style="stroke:#181818;stroke-width:1.0;"/><text fill="#000000" font-family="FG Virgil" font-size="13" lengthAdjust="spacing" textLength="64" x="849" y="685.6084">repository</text></g><!--link ListCourseExamsUI to SelectCourseWidget--><g id="link_ListCourseExamsUI_SelectCourseWidget"><path codeLine="73" d="M107.81,115.34 C107.64,146.18 107.4,190.74 107.23,223.24 " fill="none" id="ListCourseExamsUI-to-SelectCourseWidget" style="stroke:#181818;stroke-width:1.0;"/><polygon fill="#181818" points="107.19,228.16,111.2157,219.1715,107.2043,223.16,103.2157,219.1486,107.19,228.16" style="stroke:#181818;stroke-width:1.0;"/></g><!--link SelectCourseWidget to Course--><g id="link_SelectCourseWidget_Course"><path codeLine="74" d="M161.94,303.04 C183.15,316.31 207.85,331.07 231,343.2 C300.95,379.85 385.47,415.46 436.95,436.24 " fill="none" id="SelectCourseWidget-to-Course" style="stroke:#181818;stroke-width:1.0;"/><polygon fill="#181818" points="441.45,438.45,434.5868,431.3863,436.8096,436.5881,431.6078,438.8109,441.45,438.45" style="stroke:#181818;stroke-width:1.0;"/></g><!--SRC=[ZLJBRjim4BppAtXK0ES7XC20ODXDWA8j8gSz4zJQ9aAHAfTAeWJvz_AXbokwhWysJS_ipiwEXSz2DSomcZQCFxCZbBQJG0rmIt3yhO83QwNTQMM_iHhexWlzASnHo1a6JwpIhq8TwO5914BwWfGrpGVXaY7IhmBjHhS6OVl6Qdnwe7TtZG44PPaLMgtNz8DGzwfqUTAlsGtvx9abI2SfSd-9wWWsHSKPAf0_HnNW6jPCkMFjA1S4RTo0Hai9nbLtkgNWvxgOb16EUs3y1EO12qHnL51bZ1kjklec09t09mHJnBiiNihpRXaFvsb8V-iQLxfcOkhfRxD8Mz6ziD9zLCpwTq1kHECLhkZl5j2VS4NHcJ2Sh7KhmLKqe-zJjFQaZNWFivLWNWG7rnVZQMmC2bi37kmSyqv0vMUwPrYexliXss-BpVtsCSxcB45NBRZUj_7WCbuFzlrTAyA77KK_bbkAmvyx0y71oRk8UOH6ex3QT0vjnY-14GpeqJ_0e5i6A0v-v_0MuZHTZXwCDGJWVBQfqOxnljyXdlfcurIjczDsJMAkFaFUY7y9TrcQ8NT6rsNdPDR1G5zzfck8fRhknq6eghYKvodDqJRIx-3sTXq2IIx_SpmacR0yxF_z2dKXF9-Mq95aOK-RXoqVqaWIU_RWvVPosc_lYhf4mPpEWaEMZpXFkrmqTwaVlemc9rr0zW9agVowPsbEEdp_Jqn4x8oSDcBv72U9H_iq4_a3]--></g></svg>