<?xml version="1.0" encoding="us-ascii" standalone="no"?><svg xmlns="http://www.w3.org/2000/svg" xmlns:xlink="http://www.w3.org/1999/xlink" contentStyleType="text/css" height="485.4px" preserveAspectRatio="none" style="width:922px;height:485px;background:#FFFFFF;" version="1.1" viewBox="0 0 922 485" width="922.8px" zoomAndPan="magnify"><defs/><g><!--cluster User Aggregate--><g id="cluster_User Aggregate"><rect fill="none" height="117.6" rx="1.5" ry="1.5" style="stroke:#000000;stroke-width:0.8999999999999999;" width="241.8" x="101.7" y="137.4"/><text fill="#000000" font-family="sans-serif" font-size="8.4" font-weight="bold" lengthAdjust="spacing" textLength="66" x="189.6" y="146.7211">User Aggregate</text></g><!--cluster Teacher Aggregate--><g id="cluster_Teacher Aggregate"><rect fill="none" height="118.8" rx="1.5" ry="1.5" style="stroke:#000000;stroke-width:0.8999999999999999;" width="211.5" x="274.2" y="4.2"/><text fill="#000000" font-family="sans-serif" font-size="8.4" font-weight="bold" lengthAdjust="spacing" textLength="80.4" x="339.75" y="13.5211">Teacher Aggregate</text></g><!--cluster Student Aggregate--><g id="cluster_Student Aggregate"><rect fill="none" height="125.4" rx="1.5" ry="1.5" style="stroke:#000000;stroke-width:0.8999999999999999;" width="217.2" x="4.2" y="269.4"/><text fill="#000000" font-family="sans-serif" font-size="8.4" font-weight="bold" lengthAdjust="spacing" textLength="79.8" x="72.9" y="278.7211">Student Aggregate</text></g><!--cluster Exam Aggregate--><g id="cluster_Exam Aggregate"><rect fill="none" height="173.4" rx="1.5" ry="1.5" style="stroke:#181818;stroke-width:0.6;" width="501.3" x="417.9" y="308.4"/><text fill="#000000" font-family="sans-serif" font-size="8.4" font-weight="bold" lengthAdjust="spacing" textLength="69.6" x="633.75" y="317.7211">Exam Aggregate</text></g><!--cluster Course Aggregate--><g id="cluster_Course Aggregate"><rect fill="none" height="151.8" rx="1.5" ry="1.5" style="stroke:#181818;stroke-width:0.6;" width="433.8" x="391.8" y="142.2"/><text fill="#000000" font-family="sans-serif" font-size="8.4" font-weight="bold" lengthAdjust="spacing" textLength="76.8" x="570.3" y="151.5211">Course Aggregate</text></g><!--class User--><g id="elem_User"><rect codeLine="13" fill="#F1F1F1" height="29.1727" id="User" rx="1.5" ry="1.5" style="stroke:#181818;stroke-width:0.3;" width="39.6" x="136.8" y="216.414"/><rect fill="#444444" height="24.3727" rx="1.5" ry="1.5" style="stroke:#444444;stroke-width:0.3;" width="39.6" x="136.8" y="216.414"/><rect fill="#444444" height="1.5" style="stroke:#444444;stroke-width:0.3;" width="39.6" x="136.8" y="239.2867"/><rect codeLine="13" fill="none" height="29.1727" id="User" rx="1.5" ry="1.5" style="stroke:#181818;stroke-width:0.3;" width="39.6" x="136.8" y="216.414"/><ellipse cx="145.8" cy="228.6003" fill="#ADD1B2" rx="6.6" ry="6.6" style="stroke:#181818;stroke-width:0.6;"/><path d="M148.2686,232.2003 L143.6367,232.2003 L143.6367,224.7645 L148.2686,224.7645 L148.2686,226.0594 L145.106,226.0594 L145.106,227.6631 L147.9697,227.6631 L147.9697,228.958 L145.106,228.958 L145.106,230.9054 L148.2686,230.9054 Z " fill="#000000"/><text fill="#000000" font-family="sans-serif" font-size="7.2" font-style="italic" lengthAdjust="spacing" textLength="22.8" x="153" y="226.3749">&#171;Root&#187;</text><text fill="#FFFFFF" font-family="sans-serif" font-size="8.4" lengthAdjust="spacing" textLength="18.6" x="155.1" y="236.0148">User</text><line style="stroke:#181818;stroke-width:0.3;" x1="137.4" x2="175.8" y1="240.7867" y2="240.7867"/></g><g id="elem_email"><rect fill="#F1F1F1" height="30.3727" style="stroke:#181818;stroke-width:0.3;" width="38.4" x="290.7" y="215.214"/><text fill="#000000" font-family="sans-serif" font-size="7.2" font-style="italic" lengthAdjust="spacing" textLength="32.4" x="293.7" y="222.1749">&#171;Identity&#187;</text><text fill="#000000" font-family="sans-serif" font-size="8.4" lengthAdjust="spacing" textLength="22.2" x="298.8" y="233.0148">email</text><line style="stroke:#181818;stroke-width:0.3;" x1="291.3" x2="328.5" y1="235.9867" y2="235.9867"/></g><g id="elem_personaInformation"><rect fill="#F1F1F1" height="36.8789" style="stroke:#181818;stroke-width:0.3;" width="90.6" x="111.3" y="158.562"/><text fill="#000000" font-family="sans-serif" font-size="8.4" lengthAdjust="spacing" textLength="82.2" x="115.5" y="167.8831">personaInformation</text><line style="stroke:#181818;stroke-width:0.3;" x1="111.9" x2="201.3" y1="170.855" y2="170.855"/><text fill="#000000" font-family="sans-serif" font-size="8.4" lengthAdjust="spacing" textLength="37.8" x="114.9" y="181.3761">birthdate</text><text fill="#000000" font-family="sans-serif" font-size="8.4" lengthAdjust="spacing" textLength="46.2" x="114.9" y="191.269">taxNumber</text></g><g id="elem_password"><rect fill="#F1F1F1" height="21.893" style="stroke:#181818;stroke-width:0.3;" width="48" x="285.9" y="172.056"/><text fill="#000000" font-family="sans-serif" font-size="8.4" lengthAdjust="spacing" textLength="39.6" x="290.1" y="181.3771">password</text><line style="stroke:#181818;stroke-width:0.3;" x1="286.5" x2="333.3" y1="184.349" y2="184.349"/></g><!--class designationTeacher--><g id="elem_designationTeacher"><rect codeLine="31" fill="#F1F1F1" height="43.7859" id="designationTeacher" rx="1.5" ry="1.5" style="stroke:#181818;stroke-width:0.3;" width="46.8" x="286.5" y="69.906"/><rect fill="#444444" height="19.2" rx="1.5" ry="1.5" style="stroke:#444444;stroke-width:0.3;" width="46.8" x="286.5" y="69.906"/><rect fill="#444444" height="1.5" style="stroke:#444444;stroke-width:0.3;" width="46.8" x="286.5" y="87.606"/><rect codeLine="31" fill="none" height="43.7859" id="designationTeacher" rx="1.5" ry="1.5" style="stroke:#181818;stroke-width:0.3;" width="46.8" x="286.5" y="69.906"/><ellipse cx="297.66" cy="79.506" fill="#ADD1B2" rx="6.6" ry="6.6" style="stroke:#181818;stroke-width:0.6;"/><path d="M300.1286,83.106 L295.4967,83.106 L295.4967,75.6702 L300.1286,75.6702 L300.1286,76.9651 L296.966,76.9651 L296.966,78.5688 L299.8297,78.5688 L299.8297,79.8637 L296.966,79.8637 L296.966,81.8111 L300.1286,81.8111 Z " fill="#000000"/><text fill="#FFFFFF" font-family="sans-serif" font-size="8.4" lengthAdjust="spacing" textLength="22.8" x="306.54" y="82.6806">name</text><line style="stroke:#181818;stroke-width:0.3;" x1="287.1" x2="332.7" y1="89.106" y2="89.106"/><text fill="#000000" font-family="sans-serif" font-size="8.4" lengthAdjust="spacing" textLength="39.6" x="290.1" y="99.6271">firstName</text><text fill="#000000" font-family="sans-serif" font-size="8.4" lengthAdjust="spacing" textLength="37.8" x="290.1" y="109.5201">lastName</text></g><!--class Teacher--><g id="elem_Teacher"><rect codeLine="36" fill="#F1F1F1" height="24" id="Teacher" rx="1.5" ry="1.5" style="stroke:#181818;stroke-width:0.3;" width="52.2" x="283.8" y="25.2"/><rect fill="#444444" height="19.2" rx="1.5" ry="1.5" style="stroke:#444444;stroke-width:0.3;" width="52.2" x="283.8" y="25.2"/><rect fill="#444444" height="1.5" style="stroke:#444444;stroke-width:0.3;" width="52.2" x="283.8" y="42.9"/><rect codeLine="36" fill="none" height="24" id="Teacher" rx="1.5" ry="1.5" style="stroke:#181818;stroke-width:0.3;" width="52.2" x="283.8" y="25.2"/><ellipse cx="292.8" cy="34.8" fill="#ADD1B2" rx="6.6" ry="6.6" style="stroke:#181818;stroke-width:0.6;"/><path d="M295.2686,38.4 L290.6367,38.4 L290.6367,30.9642 L295.2686,30.9642 L295.2686,32.2591 L292.106,32.2591 L292.106,33.8628 L294.9697,33.8628 L294.9697,35.1577 L292.106,35.1577 L292.106,37.1051 L295.2686,37.1051 Z " fill="#000000"/><text fill="#FFFFFF" font-family="sans-serif" font-size="8.4" lengthAdjust="spacing" textLength="33" x="301.2" y="37.9746">Teacher</text><line style="stroke:#181818;stroke-width:0.3;" x1="284.4" x2="335.4" y1="44.4" y2="44.4"/></g><g id="elem_acronym"><rect fill="#F1F1F1" height="30.3727" style="stroke:#181818;stroke-width:0.3;" width="43.8" x="432.3" y="25.014"/><text fill="#000000" font-family="sans-serif" font-size="7.2" font-style="italic" lengthAdjust="spacing" textLength="32.4" x="438" y="31.9749">&#171;Identity&#187;</text><text fill="#000000" font-family="sans-serif" font-size="8.4" lengthAdjust="spacing" textLength="35.4" x="436.5" y="42.8148">acronym</text><line style="stroke:#181818;stroke-width:0.3;" x1="432.9" x2="475.5" y1="45.7867" y2="45.7867"/></g><!--class designationStudent--><g id="elem_designationStudent"><rect codeLine="47" fill="#F1F1F1" height="43.7859" id="designationStudent" rx="1.5" ry="1.5" style="stroke:#181818;stroke-width:0.3;" width="46.8" x="133.2" y="341.706"/><rect fill="#444444" height="19.2" rx="1.5" ry="1.5" style="stroke:#444444;stroke-width:0.3;" width="46.8" x="133.2" y="341.706"/><rect fill="#444444" height="1.5" style="stroke:#444444;stroke-width:0.3;" width="46.8" x="133.2" y="359.406"/><rect codeLine="47" fill="none" height="43.7859" id="designationStudent" rx="1.5" ry="1.5" style="stroke:#181818;stroke-width:0.3;" width="46.8" x="133.2" y="341.706"/><ellipse cx="144.36" cy="351.306" fill="#ADD1B2" rx="6.6" ry="6.6" style="stroke:#181818;stroke-width:0.6;"/><path d="M146.8286,354.906 L142.1967,354.906 L142.1967,347.4702 L146.8286,347.4702 L146.8286,348.7651 L143.666,348.7651 L143.666,350.3688 L146.5297,350.3688 L146.5297,351.6637 L143.666,351.6637 L143.666,353.6111 L146.8286,353.6111 Z " fill="#000000"/><text fill="#FFFFFF" font-family="sans-serif" font-size="8.4" lengthAdjust="spacing" textLength="22.8" x="153.24" y="354.4806">name</text><line style="stroke:#181818;stroke-width:0.3;" x1="133.8" x2="179.4" y1="360.906" y2="360.906"/><text fill="#000000" font-family="sans-serif" font-size="8.4" lengthAdjust="spacing" textLength="39.6" x="136.8" y="371.4271">firstName</text><text fill="#000000" font-family="sans-serif" font-size="8.4" lengthAdjust="spacing" textLength="37.8" x="136.8" y="381.3201">lastName</text></g><!--class Student--><g id="elem_Student"><rect codeLine="52" fill="#F1F1F1" height="24" id="Student" rx="1.5" ry="1.5" style="stroke:#181818;stroke-width:0.3;" width="51" x="13.8" y="322.8"/><rect fill="#444444" height="19.2" rx="1.5" ry="1.5" style="stroke:#444444;stroke-width:0.3;" width="51" x="13.8" y="322.8"/><rect fill="#444444" height="1.5" style="stroke:#444444;stroke-width:0.3;" width="51" x="13.8" y="340.5"/><rect codeLine="52" fill="none" height="24" id="Student" rx="1.5" ry="1.5" style="stroke:#181818;stroke-width:0.3;" width="51" x="13.8" y="322.8"/><ellipse cx="22.8" cy="332.4" fill="#ADD1B2" rx="6.6" ry="6.6" style="stroke:#181818;stroke-width:0.6;"/><path d="M25.2686,336 L20.6367,336 L20.6367,328.5642 L25.2686,328.5642 L25.2686,329.8591 L22.106,329.8591 L22.106,331.4628 L24.9697,331.4628 L24.9697,332.7577 L22.106,332.7577 L22.106,334.7051 L25.2686,334.7051 Z " fill="#000000"/><text fill="#FFFFFF" font-family="sans-serif" font-size="8.4" lengthAdjust="spacing" textLength="31.8" x="31.2" y="335.5746">Student</text><line style="stroke:#181818;stroke-width:0.3;" x1="14.4" x2="64.2" y1="342" y2="342"/></g><g id="elem_mechanographicNumber"><rect fill="#F1F1F1" height="30.3727" style="stroke:#181818;stroke-width:0.3;" width="110.4" x="101.4" y="290.214"/><text fill="#000000" font-family="sans-serif" font-size="7.2" font-style="italic" lengthAdjust="spacing" textLength="32.4" x="140.4" y="297.1749">&#171;Identity&#187;</text><text fill="#000000" font-family="sans-serif" font-size="8.4" lengthAdjust="spacing" textLength="102" x="105.6" y="308.0148">mechanographicNumber</text><line style="stroke:#181818;stroke-width:0.3;" x1="102" x2="211.2" y1="310.9867" y2="310.9867"/></g><!--class Exam--><g id="elem_Exam"><rect codeLine="64" fill="#F1F1F1" height="58.8516" id="Exam" rx="1.5" ry="1.5" style="stroke:#181818;stroke-width:0.3;" width="53.4" x="427.5" y="329.376"/><rect fill="#444444" height="24.3727" rx="1.5" ry="1.5" style="stroke:#444444;stroke-width:0.3;" width="53.4" x="427.5" y="329.376"/><rect fill="#444444" height="1.5" style="stroke:#444444;stroke-width:0.3;" width="53.4" x="427.5" y="352.2487"/><rect codeLine="64" fill="none" height="58.8516" id="Exam" rx="1.5" ry="1.5" style="stroke:#181818;stroke-width:0.3;" width="53.4" x="427.5" y="329.376"/><ellipse cx="441.63" cy="341.5623" fill="#ADD1B2" rx="6.6" ry="6.6" style="stroke:#181818;stroke-width:0.6;"/><path d="M444.0986,345.1623 L439.4667,345.1623 L439.4667,337.7265 L444.0986,337.7265 L444.0986,339.0214 L440.936,339.0214 L440.936,340.6251 L443.7997,340.6251 L443.7997,341.92 L440.936,341.92 L440.936,343.8674 L444.0986,343.8674 Z " fill="#000000"/><text fill="#000000" font-family="sans-serif" font-size="7.2" font-style="italic" lengthAdjust="spacing" textLength="22.8" x="451.17" y="339.3369">&#171;Root&#187;</text><text fill="#FFFFFF" font-family="sans-serif" font-size="8.4" lengthAdjust="spacing" textLength="22.8" x="451.17" y="348.9768">Exam</text><line style="stroke:#181818;stroke-width:0.3;" x1="428.1" x2="480.3" y1="353.7487" y2="353.7487"/><text fill="#000000" font-family="sans-serif" font-size="8.4" lengthAdjust="spacing" textLength="46.2" x="431.1" y="364.2698">description</text><text fill="#000000" font-family="sans-serif" font-size="8.4" lengthAdjust="spacing" textLength="39.6" x="431.1" y="374.1627">openDate</text><text fill="#000000" font-family="sans-serif" font-size="8.4" lengthAdjust="spacing" textLength="39.6" x="431.1" y="384.0557">closeDate</text></g><g id="elem_Title"><rect fill="#F1F1F1" height="30.3727" style="stroke:#181818;stroke-width:0.3;" width="38.4" x="622.2" y="329.214"/><text fill="#000000" font-family="sans-serif" font-size="7.2" font-style="italic" lengthAdjust="spacing" textLength="32.4" x="625.2" y="336.1749">&#171;Identity&#187;</text><text fill="#000000" font-family="sans-serif" font-size="8.4" lengthAdjust="spacing" textLength="18" x="632.4" y="347.0148">Title</text><line style="stroke:#181818;stroke-width:0.3;" x1="622.8" x2="660" y1="349.9867" y2="349.9867"/></g><g id="elem_Question"><rect fill="#F1F1F1" height="36.8789" style="stroke:#181818;stroke-width:0.3;" width="45.6" x="618.6" y="380.562"/><text fill="#000000" font-family="sans-serif" font-size="8.4" lengthAdjust="spacing" textLength="37.2" x="622.8" y="389.8831">Question</text><line style="stroke:#181818;stroke-width:0.3;" x1="619.2" x2="663.6" y1="392.855" y2="392.855"/><text fill="#000000" font-family="sans-serif" font-size="8.4" lengthAdjust="spacing" textLength="36" x="622.2" y="403.3761">question</text><text fill="#000000" font-family="sans-serif" font-size="8.4" lengthAdjust="spacing" textLength="33.6" x="622.2" y="413.269">solution</text></g><g id="elem_Feedback"><rect fill="#F1F1F1" height="21.893" style="stroke:#181818;stroke-width:0.3;" width="47.4" x="862.2" y="440.256"/><text fill="#000000" font-family="sans-serif" font-size="8.4" lengthAdjust="spacing" textLength="39" x="866.4" y="449.5771">Feedback</text><line style="stroke:#181818;stroke-width:0.3;" x1="862.8" x2="909" y1="452.549" y2="452.549"/></g><!--class ExamSubmission--><g id="elem_ExamSubmission"><rect codeLine="81" fill="#F1F1F1" height="33.893" id="ExamSubmission" rx="1.5" ry="1.5" style="stroke:#181818;stroke-width:0.3;" width="89.4" x="596.7" y="438.456"/><rect fill="#444444" height="19.2" rx="1.5" ry="1.5" style="stroke:#444444;stroke-width:0.3;" width="89.4" x="596.7" y="438.456"/><rect fill="#444444" height="1.5" style="stroke:#444444;stroke-width:0.3;" width="89.4" x="596.7" y="456.156"/><rect codeLine="81" fill="none" height="33.893" id="ExamSubmission" rx="1.5" ry="1.5" style="stroke:#181818;stroke-width:0.3;" width="89.4" x="596.7" y="438.456"/><ellipse cx="605.7" cy="448.056" fill="#ADD1B2" rx="6.6" ry="6.6" style="stroke:#181818;stroke-width:0.6;"/><path d="M608.1686,451.656 L603.5367,451.656 L603.5367,444.2202 L608.1686,444.2202 L608.1686,445.5151 L605.006,445.5151 L605.006,447.1188 L607.8697,447.1188 L607.8697,448.4137 L605.006,448.4137 L605.006,450.3611 L608.1686,450.3611 Z " fill="#000000"/><text fill="#FFFFFF" font-family="sans-serif" font-size="8.4" lengthAdjust="spacing" textLength="70.2" x="614.1" y="451.2306">ExamSubmission</text><line style="stroke:#181818;stroke-width:0.3;" x1="597.3" x2="685.5" y1="457.656" y2="457.656"/><text fill="#000000" font-family="sans-serif" font-size="8.4" lengthAdjust="spacing" textLength="24" x="600.3" y="468.1771">grade</text></g><g id="elem_Answer"><rect fill="#F1F1F1" height="21.893" style="stroke:#181818;stroke-width:0.3;" width="39" x="768.9" y="441.456"/><text fill="#000000" font-family="sans-serif" font-size="8.4" lengthAdjust="spacing" textLength="30.6" x="773.1" y="450.7771">Answer</text><line style="stroke:#181818;stroke-width:0.3;" x1="769.5" x2="807.3" y1="453.749" y2="453.749"/></g><!--class Course--><g id="elem_Course"><rect codeLine="94" fill="#F1F1F1" height="48.9586" id="Course" rx="1.5" ry="1.5" style="stroke:#181818;stroke-width:0.3;" width="49.2" x="616.8" y="225.12"/><rect fill="#444444" height="24.3727" rx="1.5" ry="1.5" style="stroke:#444444;stroke-width:0.3;" width="49.2" x="616.8" y="225.12"/><rect fill="#444444" height="1.5" style="stroke:#444444;stroke-width:0.3;" width="49.2" x="616.8" y="247.9927"/><rect codeLine="94" fill="none" height="48.9586" id="Course" rx="1.5" ry="1.5" style="stroke:#181818;stroke-width:0.3;" width="49.2" x="616.8" y="225.12"/><ellipse cx="626.07" cy="237.3063" fill="#ADD1B2" rx="6.6" ry="6.6" style="stroke:#181818;stroke-width:0.6;"/><path d="M628.5386,240.9063 L623.9067,240.9063 L623.9067,233.4705 L628.5386,233.4705 L628.5386,234.7654 L625.376,234.7654 L625.376,236.3691 L628.2397,236.3691 L628.2397,237.664 L625.376,237.664 L625.376,239.6114 L628.5386,239.6114 Z " fill="#000000"/><text fill="#000000" font-family="sans-serif" font-size="7.2" font-style="italic" lengthAdjust="spacing" textLength="22.8" x="637.83" y="235.0809">&#171;Root&#187;</text><text fill="#FFFFFF" font-family="sans-serif" font-size="8.4" lengthAdjust="spacing" textLength="29.4" x="634.53" y="244.7208">Course</text><line style="stroke:#181818;stroke-width:0.3;" x1="617.4" x2="665.4" y1="249.4927" y2="249.4927"/><text fill="#000000" font-family="sans-serif" font-size="8.4" lengthAdjust="spacing" textLength="42" x="620.4" y="260.0137">maxEnroll</text><text fill="#000000" font-family="sans-serif" font-size="8.4" lengthAdjust="spacing" textLength="39.6" x="620.4" y="269.9067">minEnroll</text></g><g id="elem_CourseID"><rect fill="#F1F1F1" height="30.3727" style="stroke:#181818;stroke-width:0.3;" width="46.2" x="765.3" y="254.214"/><text fill="#000000" font-family="sans-serif" font-size="7.2" font-style="italic" lengthAdjust="spacing" textLength="32.4" x="772.2" y="261.1749">&#171;Identity&#187;</text><text fill="#000000" font-family="sans-serif" font-size="8.4" lengthAdjust="spacing" textLength="37.8" x="769.5" y="272.0148">CourseID</text><line style="stroke:#181818;stroke-width:0.3;" x1="765.9" x2="810.9" y1="274.9867" y2="274.9867"/></g><g id="elem_Name"><rect fill="#F1F1F1" height="21.893" style="stroke:#181818;stroke-width:0.3;" width="31.8" x="772.5" y="211.056"/><text fill="#000000" font-family="sans-serif" font-size="8.4" lengthAdjust="spacing" textLength="23.4" x="776.7" y="220.3771">Name</text><line style="stroke:#181818;stroke-width:0.3;" x1="773.1" x2="803.7" y1="223.349" y2="223.349"/></g><g id="elem_CourseState"><rect fill="#F1F1F1" height="30.3727" style="stroke:#181818;stroke-width:0.3;" width="58.2" x="612.3" y="173.814"/><text fill="#000000" font-family="sans-serif" font-size="7.2" font-style="italic" lengthAdjust="spacing" textLength="26.4" x="628.2" y="180.7749">&#171;Enum&#187;</text><text fill="#000000" font-family="sans-serif" font-size="8.4" lengthAdjust="spacing" textLength="49.8" x="616.5" y="191.6148">CourseState</text><line style="stroke:#181818;stroke-width:0.3;" x1="612.9" x2="669.9" y1="194.5867" y2="194.5867"/></g><g id="elem_StudentEnrollmentState"><rect fill="#F1F1F1" height="30.3727" style="stroke:#181818;stroke-width:0.3;" width="105.6" x="401.4" y="211.014"/><text fill="#000000" font-family="sans-serif" font-size="7.2" font-style="italic" lengthAdjust="spacing" textLength="26.4" x="441" y="217.9749">&#171;enum&#187;</text><text fill="#000000" font-family="sans-serif" font-size="8.4" lengthAdjust="spacing" textLength="97.2" x="405.6" y="228.8148">StudentEnrollmentState</text><line style="stroke:#181818;stroke-width:0.3;" x1="402" x2="506.4" y1="231.7867" y2="231.7867"/></g><g id="elem_Description"><rect fill="#F1F1F1" height="21.893" style="stroke:#181818;stroke-width:0.3;" width="55.2" x="760.8" y="168.456"/><text fill="#000000" font-family="sans-serif" font-size="8.4" lengthAdjust="spacing" textLength="46.8" x="765" y="177.7771">Description</text><line style="stroke:#181818;stroke-width:0.3;" x1="761.4" x2="815.4" y1="180.749" y2="180.749"/></g><g id="elem_EnrolledStudents"><rect fill="#F1F1F1" height="21.893" style="stroke:#181818;stroke-width:0.3;" width="78.6" x="414.9" y="262.656"/><text fill="#000000" font-family="sans-serif" font-size="8.4" lengthAdjust="spacing" textLength="70.2" x="419.1" y="271.9771">EnrolledStudents</text><line style="stroke:#181818;stroke-width:0.3;" x1="415.5" x2="492.9" y1="274.949" y2="274.949"/></g><g id="elem_AssignedTeachers"><rect fill="#F1F1F1" height="26.9859" style="stroke:#181818;stroke-width:0.3;" width="83.4" x="412.5" y="162.906"/><text fill="#000000" font-family="sans-serif" font-size="8.4" lengthAdjust="spacing" textLength="75" x="416.7" y="172.2271">AssignedTeachers</text><line style="stroke:#181818;stroke-width:0.3;" x1="413.1" x2="495.3" y1="175.199" y2="175.199"/><text fill="#000000" font-family="sans-serif" font-size="8.4" lengthAdjust="spacing" textLength="44.4" x="416.1" y="185.7201">isInCharge</text></g><g id="elem_GMN60"><path d="M558.6,117.204 L558.6,132.3903 A0,0 0 0 0 558.6,132.3903 L610.212,132.3903 L496.08,164.946 L615.012,132.3903 L724.2,132.3903 A0,0 0 0 0 724.2,132.3903 L724.2,123.204 L718.2,117.204 L558.6,117.204 A0,0 0 0 0 558.6,117.204 " fill="#FEFFDD" style="stroke:#181818;stroke-width:0.3;"/><path d="M718.2,117.204 L718.2,123.204 L724.2,123.204 L718.2,117.204 " fill="#FEFFDD" style="stroke:#181818;stroke-width:0.3;"/><text fill="#000000" font-family="sans-serif" font-size="7.8" lengthAdjust="spacing" textLength="153" x="562.2" y="127.745">only one teacher is in charge of a course</text></g><!--reverse link designationTeacher to Teacher--><g id="link_designationTeacher_Teacher"><path codeLine="42" d="M309.9,66.138 C309.9,60.546 309.9,54.948 309.9,49.356 " fill="none" id="designationTeacher-backto-Teacher" style="stroke:#181818;stroke-width:0.6;"/><polygon fill="#181818" points="309.9,69.018,312.3,63.618,309.9,66.018,307.5,63.618,309.9,69.018" style="stroke:#181818;stroke-width:0.6;"/><text fill="#000000" font-family="sans-serif" font-size="7.8" lengthAdjust="spacing" textLength="4.8" x="304.6725" y="63.4231">1</text><text fill="#000000" font-family="sans-serif" font-size="7.8" lengthAdjust="spacing" textLength="4.8" x="304.425" y="61.6077">1</text></g><!--reverse link User to Teacher--><g id="link_User_Teacher"><path codeLine="132" d="M180.102,227.784 C195.018,224.574 213.918,218.232 226.2,205.8 C235.242,196.65 261.63,109.116 264.6,96.6 C268.452,80.382 260.046,73.2 269.4,59.4 C272.958,54.15 278.19,50.016 283.698,46.806 " fill="none" id="User-backto-Teacher" style="stroke:#181818;stroke-width:0.6;"/><polygon fill="#181818" points="177.198,228.498,182.9688,229.7697,180.1374,227.8981,182.009,225.0667,177.198,228.498" style="stroke:#181818;stroke-width:0.6;"/><text fill="#000000" font-family="sans-serif" font-size="7.8" lengthAdjust="spacing" textLength="4.8" x="181.2176" y="225.614">1</text><text fill="#000000" font-family="sans-serif" font-size="7.8" lengthAdjust="spacing" textLength="4.8" x="274.1608" y="46.2081">1</text></g><!--link Student to User--><g id="link_Student_User"><path codeLine="133" d="M52.38,322.578 C63.798,311.49 81.246,294.786 96.9,280.8 C109.458,269.58 123.906,257.388 135.372,247.878 " fill="none" id="Student-to-User" style="stroke:#181818;stroke-width:0.6;"/><polygon fill="#181818" points="137.322,245.772,131.633,247.3707,135.0124,247.6866,134.6965,251.066,137.322,245.772" style="stroke:#181818;stroke-width:0.6;"/><text fill="#000000" font-family="sans-serif" font-size="7.8" lengthAdjust="spacing" textLength="4.8" x="50.5837" y="316.4422">1</text><text fill="#000000" font-family="sans-serif" font-size="7.8" lengthAdjust="spacing" textLength="4.8" x="127.9842" y="258.0332">1</text></g><!--link User to password--><g id="link_User_password"><path codeLine="134" d="M176.514,225.66 C198.096,219.6 234.03,209.256 264.6,199.2 C270.42,197.286 276.63,195.12 282.504,193.008 " fill="none" id="User-to-password" style="stroke:#181818;stroke-width:0.6;"/><polygon fill="#181818" points="285.132,191.838,279.2376,191.4178,282.3109,192.8584,280.8703,195.9316,285.132,191.838" style="stroke:#181818;stroke-width:0.6;"/><text fill="#000000" font-family="sans-serif" font-size="7.8" lengthAdjust="spacing" textLength="4.8" x="181.1163" y="222.1907">1</text><text fill="#000000" font-family="sans-serif" font-size="7.8" lengthAdjust="spacing" textLength="4.8" x="276.3656" y="201.6871">1</text></g><!--link Teacher to acronym--><g id="link_Teacher_acronym"><path codeLine="135" d="M336.246,37.74 C362.376,38.286 402.57,39.132 428.472,39.672 " fill="none" id="Teacher-to-acronym" style="stroke:#181818;stroke-width:0.6;"/><polygon fill="#181818" points="431.43,39.75,426.0863,37.2272,428.4308,39.6814,425.9766,42.026,431.43,39.75" style="stroke:#181818;stroke-width:0.6;"/><text fill="#000000" font-family="sans-serif" font-size="7.8" lengthAdjust="spacing" textLength="4.8" x="340.8274" y="46.0991">1</text><text fill="#000000" font-family="sans-serif" font-size="7.8" lengthAdjust="spacing" textLength="4.8" x="422.6999" y="48.0549">1</text></g><!--link Student to mechanographicNumber--><g id="link_Student_mechanographicNumber"><path codeLine="136" d="M65.094,328.422 C74.844,325.95 86.442,323.016 98.04,320.076 " fill="none" id="Student-to-mechanographicNumber" style="stroke:#181818;stroke-width:0.6;"/><polygon fill="#181818" points="100.71,319.248,94.8863,318.2455,97.8016,319.9837,96.0634,322.8989,100.71,319.248" style="stroke:#181818;stroke-width:0.6;"/><text fill="#000000" font-family="sans-serif" font-size="7.8" lengthAdjust="spacing" textLength="4.8" x="69.5874" y="335.6786">1</text><text fill="#000000" font-family="sans-serif" font-size="7.8" lengthAdjust="spacing" textLength="4.8" x="91.7325" y="328.3161">1</text></g><!--link User to email--><g id="link_User_email"><path codeLine="137" d="M176.616,230.922 C204.864,230.814 257.148,230.604 286.956,230.49 " fill="none" id="User-to-email" style="stroke:#181818;stroke-width:0.6;"/><polygon fill="#181818" points="289.872,230.472,284.4652,228.0874,286.872,230.4806,284.4789,232.8874,289.872,230.472" style="stroke:#181818;stroke-width:0.6;"/><text fill="#000000" font-family="sans-serif" font-size="7.8" lengthAdjust="spacing" textLength="4.8" x="181.2393" y="239.3942">1</text><text fill="#000000" font-family="sans-serif" font-size="7.8" lengthAdjust="spacing" textLength="4.8" x="281.17" y="238.9751">1</text></g><!--link Student to designationStudent--><g id="link_Student_designationStudent"><path codeLine="139" d="M65.094,341.052 C84.192,345.786 110.376,352.284 129.738,357.084 " fill="none" id="Student-to-designationStudent" style="stroke:#181818;stroke-width:0.6;"/><polygon fill="#181818" points="132.426,357.9,127.7693,354.262,129.5156,357.1724,126.6051,358.9186,132.426,357.9" style="stroke:#181818;stroke-width:0.6;"/><text fill="#000000" font-family="sans-serif" font-size="7.8" lengthAdjust="spacing" textLength="4.8" x="69.5874" y="350.3215">1</text><text fill="#000000" font-family="sans-serif" font-size="7.8" lengthAdjust="spacing" textLength="4.8" x="123.5994" y="365.244">1</text></g><!--link Teacher to personaInformation--><g id="link_Teacher_personaInformation"><path codeLine="140" d="M284.508,49.464 C279.33,52.44 274.038,55.812 269.4,59.4 C231.606,88.632 194.718,130.644 174.078,155.742 " fill="none" id="Teacher-to-personaInformation" style="stroke:#181818;stroke-width:0.6;"/><polygon fill="#181818" points="171.888,157.818,177.1666,155.1616,173.7891,155.4973,173.4534,152.1198,171.888,157.818" style="stroke:#181818;stroke-width:0.6;"/><text fill="#000000" font-family="sans-serif" font-size="7.8" lengthAdjust="spacing" textLength="4.8" x="274.2365" y="60.3238">1</text><text fill="#000000" font-family="sans-serif" font-size="7.8" lengthAdjust="spacing" textLength="4.8" x="169.7462" y="152.2173">1</text></g><!--link Student to personaInformation--><g id="link_Student_personaInformation"><path codeLine="141" d="M42.336,322.56 C47.88,297.618 63.606,240.36 96.9,205.8 C100.248,202.326 104.094,199.218 108.198,196.44 " fill="none" id="Student-to-personaInformation" style="stroke:#181818;stroke-width:0.6;"/><polygon fill="#181818" points="110.472,194.574,104.6377,195.5124,107.9588,196.2123,107.2589,199.5334,110.472,194.574" style="stroke:#181818;stroke-width:0.6;"/><text fill="#000000" font-family="sans-serif" font-size="7.8" lengthAdjust="spacing" textLength="4.8" x="37.7149" y="316.4191">1</text><text fill="#000000" font-family="sans-serif" font-size="7.8" lengthAdjust="spacing" textLength="4.8" x="101.7039" y="204.2277">1</text></g><!--link Exam to Question--><g id="link_Exam_Question"><path codeLine="145" d="M481.056,364.476 C516.66,372.168 579.84,385.824 615.138,393.456 " fill="none" id="Exam-to-Question" style="stroke:#181818;stroke-width:0.6;"/><polygon fill="#181818" points="617.862,394.17,613.0917,390.6823,614.9299,393.5356,612.0766,395.3737,617.862,394.17" style="stroke:#181818;stroke-width:0.6;"/><text fill="#000000" font-family="sans-serif" font-size="7.8" lengthAdjust="spacing" textLength="13.2" x="526.2" y="372.341">has</text><text fill="#000000" font-family="sans-serif" font-size="7.8" lengthAdjust="spacing" textLength="4.8" x="485.7187" y="373.6534">1</text><text fill="#000000" font-family="sans-serif" font-size="7.8" lengthAdjust="spacing" textLength="13.2" x="600.5544" y="401.673">1..*</text></g><!--reverse link Exam to ExamSubmission--><g id="link_Exam_ExamSubmission"><path codeLine="146" d="M483.828,381.108 C503.982,395.826 531.912,414.732 558.6,427.8 C570.498,433.626 583.926,438.708 596.436,442.866 " fill="none" id="Exam-backto-ExamSubmission" style="stroke:#181818;stroke-width:0.6;"/><polygon fill="#181818" points="481.764,379.152,484.6969,384.2821,484.1824,380.9272,487.5373,380.4127,481.764,379.152" style="stroke:#181818;stroke-width:0.6;"/><text fill="#000000" font-family="sans-serif" font-size="7.8" lengthAdjust="spacing" textLength="14.4" x="525.6" y="407.741">of a</text><text fill="#000000" font-family="sans-serif" font-size="7.8" lengthAdjust="spacing" textLength="4.8" x="485.6604" y="390.5125">1</text><text fill="#000000" font-family="sans-serif" font-size="7.8" lengthAdjust="spacing" textLength="3.6" x="588.2327" y="449.6251">*</text></g><!--reverse link Student to ExamSubmission--><g id="link_Student_ExamSubmission"><path codeLine="147" d="M45.714,350.28 C59.376,383.7 96.918,459.6 156,459.6 C156,459.6 156,459.6 454.8,459.6 C503.25,459.6 558.78,458.16 596.46,456.966 " fill="none" id="Student-backto-ExamSubmission" style="stroke:#181818;stroke-width:0.6;"/><polygon fill="#181818" points="44.388,347.592,44.1714,353.4973,45.5051,350.3762,48.6262,351.7099,44.388,347.592" style="stroke:#181818;stroke-width:0.6;"/><text fill="#000000" font-family="sans-serif" font-size="7.8" lengthAdjust="spacing" textLength="14.4" x="302.7" y="457.541">of a</text><text fill="#000000" font-family="sans-serif" font-size="7.8" lengthAdjust="spacing" textLength="4.8" x="40.3104" y="359.044">1</text><text fill="#000000" font-family="sans-serif" font-size="7.8" lengthAdjust="spacing" textLength="4.8" x="587.1479" y="465.0938">1</text></g><!--link Teacher to Exam--><g id="link_Teacher_Exam"><path codeLine="148" d="M336.12,47.67 C340.89,50.76 345.312,54.624 348.3,59.4 C356.82,73.002 351.768,115.506 354,131.4 C364.26,204.42 351.666,229.278 387,294 C396.168,310.794 411.132,325.932 424.56,337.35 " fill="none" id="Teacher-to-Exam" style="stroke:#181818;stroke-width:0.6;"/><polygon fill="#181818" points="426.618,339.582,424.0255,334.2718,424.3204,337.653,420.9391,337.9479,426.618,339.582" style="stroke:#181818;stroke-width:0.6;"/><text fill="#000000" font-family="sans-serif" font-size="7.8" lengthAdjust="spacing" textLength="27" x="354.6" y="129.341">creates</text><text fill="#000000" font-family="sans-serif" font-size="7.8" lengthAdjust="spacing" textLength="4.8" x="340.8602" y="57.7059">1</text><text fill="#000000" font-family="sans-serif" font-size="7.8" lengthAdjust="spacing" textLength="3.6" x="419.0309" y="344.7919">*</text></g><!--reverse link Answer to Feedback--><g id="link_Answer_Feedback"><path codeLine="149" d="M811.584,452.118 C826.77,451.932 846.738,451.68 862.062,451.488 " fill="none" id="Answer-backto-Feedback" style="stroke:#181818;stroke-width:0.6;"/><polygon fill="#181818" points="808.626,452.16,814.0531,454.4981,811.6258,452.1257,813.9982,449.6984,808.626,452.16" style="stroke:#181818;stroke-width:0.6;"/><text fill="#000000" font-family="sans-serif" font-size="7.8" lengthAdjust="spacing" textLength="7.8" x="835.8" y="449.741">of</text><text fill="#000000" font-family="sans-serif" font-size="7.8" lengthAdjust="spacing" textLength="4.8" x="812.5689" y="460.5983">1</text><text fill="#000000" font-family="sans-serif" font-size="7.8" lengthAdjust="spacing" textLength="4.8" x="852.5884" y="459.898">1</text></g><!--link ExamSubmission to Answer--><g id="link_ExamSubmission_Answer"><path codeLine="150" d="M686.34,454.488 C712.392,453.954 744.234,453.294 765.216,452.862 " fill="none" id="ExamSubmission-to-Answer" style="stroke:#181818;stroke-width:0.6;"/><polygon fill="#181818" points="768.144,452.79,762.6971,450.4985,765.1446,452.85,762.7931,455.2975,768.144,452.79" style="stroke:#181818;stroke-width:0.6;"/><text fill="#000000" font-family="sans-serif" font-size="7.8" lengthAdjust="spacing" textLength="4.8" x="690.8521" y="462.3796">1</text><text fill="#000000" font-family="sans-serif" font-size="7.8" lengthAdjust="spacing" textLength="13.2" x="750.8671" y="461.2182">1..*</text></g><!--link Exam to Course--><g id="link_Exam_Course"><path codeLine="151" d="M481.056,343.386 C516.216,322.74 578.28,286.302 613.812,265.446 " fill="none" id="Exam-to-Course" style="stroke:#181818;stroke-width:0.6;"/><polygon fill="#181818" points="616.146,263.724,610.2736,264.3839,613.5578,265.2409,612.7007,268.5251,616.146,263.724" style="stroke:#181818;stroke-width:0.6;"/><text fill="#000000" font-family="sans-serif" font-size="7.8" lengthAdjust="spacing" textLength="14.4" x="525.6" y="308.741">of a</text><text fill="#000000" font-family="sans-serif" font-size="7.8" lengthAdjust="spacing" textLength="3.6" x="485.6231" y="349.2022">*</text><text fill="#000000" font-family="sans-serif" font-size="7.8" lengthAdjust="spacing" textLength="4.8" x="607.127" y="274.5991">1</text></g><!--link Exam to Title--><g id="link_Exam_Title"><path codeLine="152" d="M481.056,356.766 C517.842,353.922 584.088,348.792 618.57,346.122 " fill="none" id="Exam-to-Title" style="stroke:#181818;stroke-width:0.6;"/><polygon fill="#181818" points="621.408,345.852,615.839,343.8757,618.4169,346.0834,616.2092,348.6614,621.408,345.852" style="stroke:#181818;stroke-width:0.6;"/><text fill="#000000" font-family="sans-serif" font-size="7.8" lengthAdjust="spacing" textLength="4.8" x="485.7187" y="364.7146">1</text><text fill="#000000" font-family="sans-serif" font-size="7.8" lengthAdjust="spacing" textLength="4.8" x="612.7134" y="354.6398">1</text></g><!--link Teacher to AssignedTeachers--><g id="link_Teacher_AssignedTeachers"><path codeLine="156" d="M335.352,49.41 C339.96,52.308 344.502,55.662 348.3,59.4 C371.88,82.614 365.16,98.142 387,123 C399.6,137.346 416.388,150.774 429.954,160.578 " fill="none" id="Teacher-to-AssignedTeachers" style="stroke:#181818;stroke-width:0.6;"/><polygon fill="#181818" points="432.198,162.618,429.192,157.5303,429.7545,160.8775,426.4073,161.44,432.198,162.618" style="stroke:#181818;stroke-width:0.6;"/><text fill="#000000" font-family="sans-serif" font-size="7.8" lengthAdjust="spacing" textLength="16.2" x="360" y="64.541">is in</text><text fill="#000000" font-family="sans-serif" font-size="7.8" lengthAdjust="spacing" textLength="4.8" x="336.7472" y="61.4669">1</text><text fill="#000000" font-family="sans-serif" font-size="7.8" lengthAdjust="spacing" textLength="3.6" x="423.2525" y="156.4984">*</text></g><!--reverse link AssignedTeachers to Course--><g id="link_AssignedTeachers_Course"><path codeLine="157" d="M493.092,191.472 C530.172,206.064 585.264,227.742 616.626,240.084 " fill="none" id="AssignedTeachers-backto-Course" style="stroke:#181818;stroke-width:0.6;"/><polygon fill="#181818" points="490.386,190.17,494.5353,194.3775,493.1785,191.2664,496.2896,189.9096,490.386,190.17" style="stroke:#181818;stroke-width:0.6;"/><text fill="#000000" font-family="sans-serif" font-size="7.8" lengthAdjust="spacing" textLength="13.2" x="526.2" y="202.541">has</text><text fill="#000000" font-family="sans-serif" font-size="7.8" lengthAdjust="spacing" textLength="3.6" x="494.4213" y="202.1873">*</text><text fill="#000000" font-family="sans-serif" font-size="7.8" lengthAdjust="spacing" textLength="4.8" x="607.1555" y="246.779">1</text></g><!--reverse link EnrolledStudents to Course--><g id="link_EnrolledStudents_Course"><path codeLine="158" d="M497.316,268.116 C534.252,263.346 586.428,256.614 616.626,252.72 " fill="none" id="EnrolledStudents-backto-Course" style="stroke:#181818;stroke-width:0.6;"/><polygon fill="#181818" points="494.394,268.566,500.0578,270.2516,497.3691,268.1802,499.4405,265.4915,494.394,268.566" style="stroke:#181818;stroke-width:0.6;"/><text fill="#000000" font-family="sans-serif" font-size="7.8" lengthAdjust="spacing" textLength="13.2" x="526.2" y="261.341">has</text><text fill="#000000" font-family="sans-serif" font-size="7.8" lengthAdjust="spacing" textLength="3.6" x="498.3215" y="276.0585">*</text><text fill="#000000" font-family="sans-serif" font-size="7.8" lengthAdjust="spacing" textLength="4.8" x="607.1555" y="261.5868">1</text></g><!--link Course to CourseState--><g id="link_Course_CourseState"><path codeLine="159" d="M641.4,224.982 C641.4,219.318 641.4,213.654 641.4,207.99 " fill="none" id="Course-to-CourseState" style="stroke:#181818;stroke-width:0.6;"/><polygon fill="#181818" points="641.4,205.062,639,210.462,641.4,208.062,643.8,210.462,641.4,205.062" style="stroke:#181818;stroke-width:0.6;"/><text fill="#000000" font-family="sans-serif" font-size="7.8" lengthAdjust="spacing" textLength="4.8" x="636.2025" y="218.7159">1</text><text fill="#000000" font-family="sans-serif" font-size="7.8" lengthAdjust="spacing" textLength="4.8" x="636.045" y="216.6407">1</text></g><!--link Course to CourseID--><g id="link_Course_CourseID"><path codeLine="160" d="M666.24,252.894 C692.586,256.47 734.544,262.17 761.628,265.848 " fill="none" id="Course-to-CourseID" style="stroke:#181818;stroke-width:0.6;"/><polygon fill="#181818" points="764.58,266.328,759.5598,263.2107,761.6083,265.9169,758.9021,267.9654,764.58,266.328" style="stroke:#181818;stroke-width:0.6;"/><text fill="#000000" font-family="sans-serif" font-size="7.8" lengthAdjust="spacing" textLength="4.8" x="670.7516" y="261.7414">1</text><text fill="#000000" font-family="sans-serif" font-size="7.8" lengthAdjust="spacing" textLength="4.8" x="755.6563" y="274.1494">1</text></g><!--link Course to Name--><g id="link_Course_Name"><path codeLine="161" d="M666.24,245.01 C695.07,239.556 742.578,230.562 768.852,225.588 " fill="none" id="Course-to-Name" style="stroke:#181818;stroke-width:0.6;"/><polygon fill="#181818" points="771.66,224.94,765.9083,223.5843,768.7122,225.497,766.7995,228.3009,771.66,224.94" style="stroke:#181818;stroke-width:0.6;"/><text fill="#000000" font-family="sans-serif" font-size="7.8" lengthAdjust="spacing" textLength="4.8" x="670.7516" y="242.061">1</text><text fill="#000000" font-family="sans-serif" font-size="7.8" lengthAdjust="spacing" textLength="4.8" x="762.9409" y="234.3166">1</text></g><!--link Course to Description--><g id="link_Course_Description"><path codeLine="162" d="M666.222,240.144 C682.758,233.496 705.054,224.148 724.2,214.8 C738.33,207.9 753.756,199.344 765.876,192.372 " fill="none" id="Course-to-Description" style="stroke:#181818;stroke-width:0.6;"/><polygon fill="#181818" points="768.282,190.632,762.4056,191.2545,765.6842,192.1324,764.8062,195.411,768.282,190.632" style="stroke:#181818;stroke-width:0.6;"/><text fill="#000000" font-family="sans-serif" font-size="7.8" lengthAdjust="spacing" textLength="4.8" x="670.7306" y="236.3891">1</text><text fill="#000000" font-family="sans-serif" font-size="7.8" lengthAdjust="spacing" textLength="4.8" x="757.9176" y="202.6231">1</text></g><!--link Student to EnrolledStudents--><g id="link_Student_EnrolledStudents"><path codeLine="163" d="M46.89,347.022 C56.142,361.836 73.998,386.034 96.9,396 C149.592,418.932 170.478,410.046 226.2,396 C269.856,384.996 384.978,315.924 432.558,286.668 " fill="none" id="Student-to-EnrolledStudents" style="stroke:#181818;stroke-width:0.6;"/><polygon fill="#181818" points="434.994,284.796,429.1384,285.5909,432.4414,286.3721,431.6602,289.6751,434.994,284.796" style="stroke:#181818;stroke-width:0.6;"/><text fill="#000000" font-family="sans-serif" font-size="7.8" lengthAdjust="spacing" textLength="32.4" x="231.6" y="379.541">requests</text><text fill="#000000" font-family="sans-serif" font-size="7.8" lengthAdjust="spacing" textLength="4.8" x="43.4848" y="359.0821">1</text><text fill="#000000" font-family="sans-serif" font-size="7.8" lengthAdjust="spacing" textLength="4.8" x="424.6235" y="296.9744">1</text></g><!--link EnrolledStudents to StudentEnrollmentState--><g id="link_EnrolledStudents_StudentEnrollmentState"><path codeLine="164" d="M454.2,262.488 C454.2,256.644 454.2,250.8 454.2,244.95 " fill="none" id="EnrolledStudents-to-StudentEnrollmentState" style="stroke:#181818;stroke-width:0.6;"/><polygon fill="#181818" points="454.2,242.112,451.8,247.512,454.2,245.112,456.6,247.512,454.2,242.112" style="stroke:#181818;stroke-width:0.6;"/><text fill="#000000" font-family="sans-serif" font-size="7.8" lengthAdjust="spacing" textLength="4.8" x="448.665" y="256.2756">1</text><text fill="#000000" font-family="sans-serif" font-size="7.8" lengthAdjust="spacing" textLength="4.8" x="448.845" y="253.656">1</text></g><!--SRC=[dLPRQzim57xthn3PGw7WTeCzbLB8cfJbfMFBzWCK-yJMQakP9DDc9VzzHpTRleKHG-98vpj7txag9Sk1rA1BaQkaWhqcMX39YbAJd4d8D1CyKI-C7wYaDSaggjHIQybsZOPD9lYM_GNoSGXv4bm_Yaf8GXijQgfPDeHy1Pg3_4ApbqAAXkSE_k5pX3kWa1QmrSSAY253UL51aYHNjxTfElgGNmeacPBOJv9uUsHXWSkYa51G3Olt927uhBbc-kYitD__448_F91tApevnBVTRsH1eAQiGiWc1wio0pk0L8BJ3TyBQK8Wk8UPPyUaBdCylTtHzEsvgNSWfqnXm5w5pDjZJf4tFu5cPSyXqlSe1yKARXa4B5LamMbjV3V0FPDAF-FQhZ0ztUBKCnNqf_obcHJyMFS2qyC5vSMd1KchzC7-69FhERVLZJ4scwr8FK0lzIteJ_bMGrPIBWf93oNBN9uc7JtDb-Vw3MlwVyhJ0gDiOZ66uhUb5fEss46rcWVZaabsiFqRziG1-2ekkQmI2jgTliS_cSQkcysbHtrlG0qg-u_VQZUKg9fsew_-193lqEr-p2FNjiskPafr9s06yYcwIwvUuxeyauT7qKW5PpBH9i8ZpwN2S_N8a8Z4yQZfsvfBKLLknRXV8JbFs-bjLeD0Tm1Jg-HzfB7LI0ULW3Ur9N8ASb_5xgGQVqr00tRL5OdR3mAd3RatfdfQIsLQ3dBVhihvojI6FvPK5Z1BTXqO92v1Lt7rNpZJpT4MOsR9VPhQTnWa0s7bfDwflZJruoXCsl70SW0_vAmu38nOVsfGz4v2eC7PEoIPDJCUQtE49gwPMQiJq4k7bUrJW-ditznSBxg1S4TAglemcnx431hxZeWzeIFIY4vzFkSLHW7nvX6JIS2oSnJyT40KMZNOTl0OMotBw8oGAUkKKu-SkUvYwZi_uZG8oyADqil7qQoZmqP44amHvl8_4XgDq20jwJP7muO_Y_OR9aRIbNFKw0F4852RrT22Cz3UoJs9UQq6DrbK8nun8d-7_nRjDJJjd6KbdUxqk7GnvmB7blipZCcTYBRWrH6_W6YV7Hj-ajanQ0k2PDQTVm00]--></g></svg>