<?xml version="1.0" encoding="us-ascii" standalone="no"?><svg xmlns="http://www.w3.org/2000/svg" xmlns:xlink="http://www.w3.org/1999/xlink" contentStyleType="text/css" height="452.4px" preserveAspectRatio="none" style="width:814px;height:452px;background:#FFFFFF;" version="1.1" viewBox="0 0 814 452" width="814.8px" zoomAndPan="magnify"><defs/><g><!--cluster User Aggregate--><g id="cluster_User Aggregate"><rect fill="none" height="117.6" rx="1.5" ry="1.5" style="stroke:#000000;stroke-width:0.8999999999999999;" width="238.5" x="101.7" y="144"/><text fill="#000000" font-family="sans-serif" font-size="8.4" font-weight="bold" lengthAdjust="spacing" textLength="66" x="187.95" y="153.3211">User Aggregate</text></g><!--cluster Student Aggregate--><g id="cluster_Student Aggregate"><rect fill="none" height="125.4" rx="1.5" ry="1.5" style="stroke:#000000;stroke-width:0.8999999999999999;" width="217.2" x="4.2" y="4.2"/><text fill="#000000" font-family="sans-serif" font-size="8.4" font-weight="bold" lengthAdjust="spacing" textLength="79.8" x="72.9" y="13.5211">Student Aggregate</text></g><!--cluster Exam Aggregate--><g id="cluster_Exam Aggregate"><rect fill="none" height="174" rx="1.5" ry="1.5" style="stroke:#181818;stroke-width:0.6;" width="425.1" x="386.1" y="274.8"/><text fill="#000000" font-family="sans-serif" font-size="8.4" font-weight="bold" lengthAdjust="spacing" textLength="69.6" x="563.85" y="284.1211">Exam Aggregate</text></g><!--cluster Course Aggregate--><g id="cluster_Course Aggregate"><rect fill="none" height="151.8" rx="1.5" ry="1.5" style="stroke:#181818;stroke-width:0.6;" width="357.6" x="360" y="108.6"/><text fill="#000000" font-family="sans-serif" font-size="8.4" font-weight="bold" lengthAdjust="spacing" textLength="76.8" x="500.4" y="117.9211">Course Aggregate</text></g><!--class User--><g id="elem_User"><rect codeLine="13" fill="#F1F1F1" height="29.1727" id="User" rx="1.5" ry="1.5" style="stroke:#181818;stroke-width:0.3;" width="39.6" x="136.8" y="223.014"/><rect fill="#444444" height="24.3727" rx="1.5" ry="1.5" style="stroke:#444444;stroke-width:0.3;" width="39.6" x="136.8" y="223.014"/><rect fill="#444444" height="1.5" style="stroke:#444444;stroke-width:0.3;" width="39.6" x="136.8" y="245.8867"/><rect codeLine="13" fill="none" height="29.1727" id="User" rx="1.5" ry="1.5" style="stroke:#181818;stroke-width:0.3;" width="39.6" x="136.8" y="223.014"/><ellipse cx="145.8" cy="235.2003" fill="#ADD1B2" rx="6.6" ry="6.6" style="stroke:#181818;stroke-width:0.6;"/><path d="M148.2686,238.8003 L143.6367,238.8003 L143.6367,231.3645 L148.2686,231.3645 L148.2686,232.6594 L145.106,232.6594 L145.106,234.2631 L147.9697,234.2631 L147.9697,235.558 L145.106,235.558 L145.106,237.5054 L148.2686,237.5054 Z " fill="#000000"/><text fill="#000000" font-family="sans-serif" font-size="7.2" font-style="italic" lengthAdjust="spacing" textLength="22.8" x="153" y="232.9749">&#171;Root&#187;</text><text fill="#FFFFFF" font-family="sans-serif" font-size="8.4" lengthAdjust="spacing" textLength="18.6" x="155.1" y="242.6148">User</text><line style="stroke:#181818;stroke-width:0.3;" x1="137.4" x2="175.8" y1="247.3867" y2="247.3867"/></g><g id="elem_email"><rect fill="#F1F1F1" height="30.3727" style="stroke:#181818;stroke-width:0.3;" width="38.4" x="287.4" y="221.814"/><text fill="#000000" font-family="sans-serif" font-size="7.2" font-style="italic" lengthAdjust="spacing" textLength="32.4" x="290.4" y="228.7749">&#171;Identity&#187;</text><text fill="#000000" font-family="sans-serif" font-size="8.4" lengthAdjust="spacing" textLength="22.2" x="295.5" y="239.6148">email</text><line style="stroke:#181818;stroke-width:0.3;" x1="288" x2="325.2" y1="242.5867" y2="242.5867"/></g><g id="elem_personaInformation"><rect fill="#F1F1F1" height="36.8789" style="stroke:#181818;stroke-width:0.3;" width="90.6" x="111.3" y="165.162"/><text fill="#000000" font-family="sans-serif" font-size="8.4" lengthAdjust="spacing" textLength="82.2" x="115.5" y="174.4831">personaInformation</text><line style="stroke:#181818;stroke-width:0.3;" x1="111.9" x2="201.3" y1="177.455" y2="177.455"/><text fill="#000000" font-family="sans-serif" font-size="8.4" lengthAdjust="spacing" textLength="37.8" x="114.9" y="187.9761">birthdate</text><text fill="#000000" font-family="sans-serif" font-size="8.4" lengthAdjust="spacing" textLength="46.2" x="114.9" y="197.869">taxNumber</text></g><g id="elem_password"><rect fill="#F1F1F1" height="21.893" style="stroke:#181818;stroke-width:0.3;" width="48" x="282.6" y="178.656"/><text fill="#000000" font-family="sans-serif" font-size="8.4" lengthAdjust="spacing" textLength="39.6" x="286.8" y="187.9771">password</text><line style="stroke:#181818;stroke-width:0.3;" x1="283.2" x2="330" y1="190.949" y2="190.949"/></g><!--class designationStudent--><g id="elem_designationStudent"><rect codeLine="31" fill="#F1F1F1" height="43.7859" id="designationStudent" rx="1.5" ry="1.5" style="stroke:#181818;stroke-width:0.3;" width="46.8" x="133.2" y="76.506"/><rect fill="#444444" height="19.2" rx="1.5" ry="1.5" style="stroke:#444444;stroke-width:0.3;" width="46.8" x="133.2" y="76.506"/><rect fill="#444444" height="1.5" style="stroke:#444444;stroke-width:0.3;" width="46.8" x="133.2" y="94.206"/><rect codeLine="31" fill="none" height="43.7859" id="designationStudent" rx="1.5" ry="1.5" style="stroke:#181818;stroke-width:0.3;" width="46.8" x="133.2" y="76.506"/><ellipse cx="144.36" cy="86.106" fill="#ADD1B2" rx="6.6" ry="6.6" style="stroke:#181818;stroke-width:0.6;"/><path d="M146.8286,89.706 L142.1967,89.706 L142.1967,82.2702 L146.8286,82.2702 L146.8286,83.5651 L143.666,83.5651 L143.666,85.1688 L146.5297,85.1688 L146.5297,86.4637 L143.666,86.4637 L143.666,88.4111 L146.8286,88.4111 Z " fill="#000000"/><text fill="#FFFFFF" font-family="sans-serif" font-size="8.4" lengthAdjust="spacing" textLength="22.8" x="153.24" y="89.2806">name</text><line style="stroke:#181818;stroke-width:0.3;" x1="133.8" x2="179.4" y1="95.706" y2="95.706"/><text fill="#000000" font-family="sans-serif" font-size="8.4" lengthAdjust="spacing" textLength="39.6" x="136.8" y="106.2271">firstName</text><text fill="#000000" font-family="sans-serif" font-size="8.4" lengthAdjust="spacing" textLength="37.8" x="136.8" y="116.1201">lastName</text></g><!--class Student--><g id="elem_Student"><rect codeLine="36" fill="#F1F1F1" height="24" id="Student" rx="1.5" ry="1.5" style="stroke:#181818;stroke-width:0.3;" width="51" x="13.8" y="96"/><rect fill="#444444" height="19.2" rx="1.5" ry="1.5" style="stroke:#444444;stroke-width:0.3;" width="51" x="13.8" y="96"/><rect fill="#444444" height="1.5" style="stroke:#444444;stroke-width:0.3;" width="51" x="13.8" y="113.7"/><rect codeLine="36" fill="none" height="24" id="Student" rx="1.5" ry="1.5" style="stroke:#181818;stroke-width:0.3;" width="51" x="13.8" y="96"/><ellipse cx="22.8" cy="105.6" fill="#ADD1B2" rx="6.6" ry="6.6" style="stroke:#181818;stroke-width:0.6;"/><path d="M25.2686,109.2 L20.6367,109.2 L20.6367,101.7642 L25.2686,101.7642 L25.2686,103.0591 L22.106,103.0591 L22.106,104.6628 L24.9697,104.6628 L24.9697,105.9577 L22.106,105.9577 L22.106,107.9051 L25.2686,107.9051 Z " fill="#000000"/><text fill="#FFFFFF" font-family="sans-serif" font-size="8.4" lengthAdjust="spacing" textLength="31.8" x="31.2" y="108.7746">Student</text><line style="stroke:#181818;stroke-width:0.3;" x1="14.4" x2="64.2" y1="115.2" y2="115.2"/></g><g id="elem_mechanographicNumber"><rect fill="#F1F1F1" height="30.3727" style="stroke:#181818;stroke-width:0.3;" width="110.4" x="101.4" y="25.014"/><text fill="#000000" font-family="sans-serif" font-size="7.2" font-style="italic" lengthAdjust="spacing" textLength="32.4" x="140.4" y="31.9749">&#171;Identity&#187;</text><text fill="#000000" font-family="sans-serif" font-size="8.4" lengthAdjust="spacing" textLength="102" x="105.6" y="42.8148">mechanographicNumber</text><line style="stroke:#181818;stroke-width:0.3;" x1="102" x2="211.2" y1="45.7867" y2="45.7867"/></g><!--class Exam--><g id="elem_Exam"><rect codeLine="47" fill="#F1F1F1" height="58.8516" id="Exam" rx="1.5" ry="1.5" style="stroke:#181818;stroke-width:0.3;" width="53.4" x="395.7" y="314.976"/><rect fill="#444444" height="24.3727" rx="1.5" ry="1.5" style="stroke:#444444;stroke-width:0.3;" width="53.4" x="395.7" y="314.976"/><rect fill="#444444" height="1.5" style="stroke:#444444;stroke-width:0.3;" width="53.4" x="395.7" y="337.8487"/><rect codeLine="47" fill="none" height="58.8516" id="Exam" rx="1.5" ry="1.5" style="stroke:#181818;stroke-width:0.3;" width="53.4" x="395.7" y="314.976"/><ellipse cx="409.83" cy="327.1623" fill="#ADD1B2" rx="6.6" ry="6.6" style="stroke:#181818;stroke-width:0.6;"/><path d="M412.2986,330.7623 L407.6667,330.7623 L407.6667,323.3265 L412.2986,323.3265 L412.2986,324.6214 L409.136,324.6214 L409.136,326.2251 L411.9997,326.2251 L411.9997,327.52 L409.136,327.52 L409.136,329.4674 L412.2986,329.4674 Z " fill="#000000"/><text fill="#000000" font-family="sans-serif" font-size="7.2" font-style="italic" lengthAdjust="spacing" textLength="22.8" x="419.37" y="324.9369">&#171;Root&#187;</text><text fill="#FFFFFF" font-family="sans-serif" font-size="8.4" lengthAdjust="spacing" textLength="22.8" x="419.37" y="334.5768">Exam</text><line style="stroke:#181818;stroke-width:0.3;" x1="396.3" x2="448.5" y1="339.3487" y2="339.3487"/><text fill="#000000" font-family="sans-serif" font-size="8.4" lengthAdjust="spacing" textLength="46.2" x="399.3" y="349.8698">description</text><text fill="#000000" font-family="sans-serif" font-size="8.4" lengthAdjust="spacing" textLength="39.6" x="399.3" y="359.7627">openDate</text><text fill="#000000" font-family="sans-serif" font-size="8.4" lengthAdjust="spacing" textLength="39.6" x="399.3" y="369.6557">closeDate</text></g><g id="elem_Title"><rect fill="#F1F1F1" height="30.3727" style="stroke:#181818;stroke-width:0.3;" width="38.4" x="552.3" y="353.814"/><text fill="#000000" font-family="sans-serif" font-size="7.2" font-style="italic" lengthAdjust="spacing" textLength="32.4" x="555.3" y="360.7749">&#171;Identity&#187;</text><text fill="#000000" font-family="sans-serif" font-size="8.4" lengthAdjust="spacing" textLength="18" x="562.5" y="371.6148">Title</text><line style="stroke:#181818;stroke-width:0.3;" x1="552.9" x2="590.1" y1="374.5867" y2="374.5867"/></g><g id="elem_Question"><rect fill="#F1F1F1" height="36.8789" style="stroke:#181818;stroke-width:0.3;" width="45.6" x="548.7" y="295.962"/><text fill="#000000" font-family="sans-serif" font-size="8.4" lengthAdjust="spacing" textLength="37.2" x="552.9" y="305.2831">Question</text><line style="stroke:#181818;stroke-width:0.3;" x1="549.3" x2="593.7" y1="308.255" y2="308.255"/><text fill="#000000" font-family="sans-serif" font-size="8.4" lengthAdjust="spacing" textLength="36" x="552.3" y="318.7761">question</text><text fill="#000000" font-family="sans-serif" font-size="8.4" lengthAdjust="spacing" textLength="33.6" x="552.3" y="328.669">solution</text></g><g id="elem_Feedback"><rect fill="#F1F1F1" height="21.893" style="stroke:#181818;stroke-width:0.3;" width="47.4" x="754.2" y="407.256"/><text fill="#000000" font-family="sans-serif" font-size="8.4" lengthAdjust="spacing" textLength="39" x="758.4" y="416.5771">Feedback</text><line style="stroke:#181818;stroke-width:0.3;" x1="754.8" x2="801" y1="419.549" y2="419.549"/></g><!--class ExamSubmission--><g id="elem_ExamSubmission"><rect codeLine="64" fill="#F1F1F1" height="33.893" id="ExamSubmission" rx="1.5" ry="1.5" style="stroke:#181818;stroke-width:0.3;" width="89.4" x="526.8" y="405.456"/><rect fill="#444444" height="19.2" rx="1.5" ry="1.5" style="stroke:#444444;stroke-width:0.3;" width="89.4" x="526.8" y="405.456"/><rect fill="#444444" height="1.5" style="stroke:#444444;stroke-width:0.3;" width="89.4" x="526.8" y="423.156"/><rect codeLine="64" fill="none" height="33.893" id="ExamSubmission" rx="1.5" ry="1.5" style="stroke:#181818;stroke-width:0.3;" width="89.4" x="526.8" y="405.456"/><ellipse cx="535.8" cy="415.056" fill="#ADD1B2" rx="6.6" ry="6.6" style="stroke:#181818;stroke-width:0.6;"/><path d="M538.2686,418.656 L533.6367,418.656 L533.6367,411.2202 L538.2686,411.2202 L538.2686,412.5151 L535.106,412.5151 L535.106,414.1188 L537.9697,414.1188 L537.9697,415.4137 L535.106,415.4137 L535.106,417.3611 L538.2686,417.3611 Z " fill="#000000"/><text fill="#FFFFFF" font-family="sans-serif" font-size="8.4" lengthAdjust="spacing" textLength="70.2" x="544.2" y="418.2306">ExamSubmission</text><line style="stroke:#181818;stroke-width:0.3;" x1="527.4" x2="615.6" y1="424.656" y2="424.656"/><text fill="#000000" font-family="sans-serif" font-size="8.4" lengthAdjust="spacing" textLength="24" x="530.4" y="435.1771">grade</text></g><g id="elem_Answer"><rect fill="#F1F1F1" height="21.893" style="stroke:#181818;stroke-width:0.3;" width="39" x="660.9" y="408.456"/><text fill="#000000" font-family="sans-serif" font-size="8.4" lengthAdjust="spacing" textLength="30.6" x="665.1" y="417.7771">Answer</text><line style="stroke:#181818;stroke-width:0.3;" x1="661.5" x2="699.3" y1="420.749" y2="420.749"/></g><!--class Course--><g id="elem_Course"><rect codeLine="76" fill="#F1F1F1" height="48.9586" id="Course" rx="1.5" ry="1.5" style="stroke:#181818;stroke-width:0.3;" width="49.2" x="546.9" y="191.52"/><rect fill="#444444" height="24.3727" rx="1.5" ry="1.5" style="stroke:#444444;stroke-width:0.3;" width="49.2" x="546.9" y="191.52"/><rect fill="#444444" height="1.5" style="stroke:#444444;stroke-width:0.3;" width="49.2" x="546.9" y="214.3927"/><rect codeLine="76" fill="none" height="48.9586" id="Course" rx="1.5" ry="1.5" style="stroke:#181818;stroke-width:0.3;" width="49.2" x="546.9" y="191.52"/><ellipse cx="556.17" cy="203.7063" fill="#ADD1B2" rx="6.6" ry="6.6" style="stroke:#181818;stroke-width:0.6;"/><path d="M558.6386,207.3063 L554.0067,207.3063 L554.0067,199.8705 L558.6386,199.8705 L558.6386,201.1654 L555.476,201.1654 L555.476,202.7691 L558.3397,202.7691 L558.3397,204.064 L555.476,204.064 L555.476,206.0114 L558.6386,206.0114 Z " fill="#000000"/><text fill="#000000" font-family="sans-serif" font-size="7.2" font-style="italic" lengthAdjust="spacing" textLength="22.8" x="567.93" y="201.4809">&#171;Root&#187;</text><text fill="#FFFFFF" font-family="sans-serif" font-size="8.4" lengthAdjust="spacing" textLength="29.4" x="564.63" y="211.1208">Course</text><line style="stroke:#181818;stroke-width:0.3;" x1="547.5" x2="595.5" y1="215.8927" y2="215.8927"/><text fill="#000000" font-family="sans-serif" font-size="8.4" lengthAdjust="spacing" textLength="42" x="550.5" y="226.4138">maxEnroll</text><text fill="#000000" font-family="sans-serif" font-size="8.4" lengthAdjust="spacing" textLength="39.6" x="550.5" y="236.3067">minEnroll</text></g><g id="elem_CourseID"><rect fill="#F1F1F1" height="30.3727" style="stroke:#181818;stroke-width:0.3;" width="46.2" x="657.3" y="220.614"/><text fill="#000000" font-family="sans-serif" font-size="7.2" font-style="italic" lengthAdjust="spacing" textLength="32.4" x="664.2" y="227.5749">&#171;Identity&#187;</text><text fill="#000000" font-family="sans-serif" font-size="8.4" lengthAdjust="spacing" textLength="37.8" x="661.5" y="238.4148">CourseID</text><line style="stroke:#181818;stroke-width:0.3;" x1="657.9" x2="702.9" y1="241.3867" y2="241.3867"/></g><g id="elem_Name"><rect fill="#F1F1F1" height="21.893" style="stroke:#181818;stroke-width:0.3;" width="31.8" x="664.5" y="177.456"/><text fill="#000000" font-family="sans-serif" font-size="8.4" lengthAdjust="spacing" textLength="23.4" x="668.7" y="186.7771">Name</text><line style="stroke:#181818;stroke-width:0.3;" x1="665.1" x2="695.7" y1="189.749" y2="189.749"/></g><g id="elem_CourseState"><rect fill="#F1F1F1" height="30.3727" style="stroke:#181818;stroke-width:0.3;" width="58.2" x="542.4" y="140.214"/><text fill="#000000" font-family="sans-serif" font-size="7.2" font-style="italic" lengthAdjust="spacing" textLength="26.4" x="558.3" y="147.1749">&#171;Enum&#187;</text><text fill="#000000" font-family="sans-serif" font-size="8.4" lengthAdjust="spacing" textLength="49.8" x="546.6" y="158.0148">CourseState</text><line style="stroke:#181818;stroke-width:0.3;" x1="543" x2="600" y1="160.9867" y2="160.9867"/></g><g id="elem_StudentEnrollmentState"><rect fill="#F1F1F1" height="30.3727" style="stroke:#181818;stroke-width:0.3;" width="105.6" x="369.6" y="129.414"/><text fill="#000000" font-family="sans-serif" font-size="7.2" font-style="italic" lengthAdjust="spacing" textLength="26.4" x="409.2" y="136.3749">&#171;enum&#187;</text><text fill="#000000" font-family="sans-serif" font-size="8.4" lengthAdjust="spacing" textLength="97.2" x="373.8" y="147.2148">StudentEnrollmentState</text><line style="stroke:#181818;stroke-width:0.3;" x1="370.2" x2="474.6" y1="150.1867" y2="150.1867"/></g><g id="elem_Description"><rect fill="#F1F1F1" height="21.893" style="stroke:#181818;stroke-width:0.3;" width="55.2" x="652.8" y="134.856"/><text fill="#000000" font-family="sans-serif" font-size="8.4" lengthAdjust="spacing" textLength="46.8" x="657" y="144.1771">Description</text><line style="stroke:#181818;stroke-width:0.3;" x1="653.4" x2="707.4" y1="147.149" y2="147.149"/></g><g id="elem_EnrolledStudents"><rect fill="#F1F1F1" height="21.893" style="stroke:#181818;stroke-width:0.3;" width="78.6" x="383.1" y="181.056"/><text fill="#000000" font-family="sans-serif" font-size="8.4" lengthAdjust="spacing" textLength="70.2" x="387.3" y="190.3771">EnrolledStudents</text><line style="stroke:#181818;stroke-width:0.3;" x1="383.7" x2="461.1" y1="193.349" y2="193.349"/></g><g id="elem_AssignedTeachers"><rect fill="#F1F1F1" height="26.9859" style="stroke:#181818;stroke-width:0.3;" width="83.4" x="380.7" y="224.106"/><text fill="#000000" font-family="sans-serif" font-size="8.4" lengthAdjust="spacing" textLength="75" x="384.9" y="233.4271">AssignedTeachers</text><line style="stroke:#181818;stroke-width:0.3;" x1="381.3" x2="463.5" y1="236.399" y2="236.399"/><text fill="#000000" font-family="sans-serif" font-size="8.4" lengthAdjust="spacing" textLength="44.4" x="384.3" y="246.9201">isInCharge</text></g><!--link Student to User--><g id="link_Student_User"><path codeLine="112" d="M43.572,120.15 C50.616,141.528 67.926,186.096 96.9,212.4 C107.166,221.718 121.398,227.928 133.326,231.852 " fill="none" id="Student-to-User" style="stroke:#181818;stroke-width:0.6;"/><polygon fill="#181818" points="136.02,232.902,131.6024,228.9771,133.1613,231.992,130.1464,233.551,136.02,232.902" style="stroke:#181818;stroke-width:0.6;"/><text fill="#000000" font-family="sans-serif" font-size="7.8" lengthAdjust="spacing" textLength="4.8" x="45.4485" y="132.4">1</text><text fill="#000000" font-family="sans-serif" font-size="7.8" lengthAdjust="spacing" textLength="4.8" x="127.2041" y="240.4213">1</text></g><!--link User to password--><g id="link_User_password"><path codeLine="113" d="M176.652,231.324 C202.824,222.882 249.486,207.828 279.03,198.3 " fill="none" id="User-to-password" style="stroke:#181818;stroke-width:0.6;"/><polygon fill="#181818" points="281.766,197.226,275.8912,196.5879,278.909,198.1413,277.3557,201.159,281.766,197.226" style="stroke:#181818;stroke-width:0.6;"/><text fill="#000000" font-family="sans-serif" font-size="7.8" lengthAdjust="spacing" textLength="4.8" x="181.2827" y="227.6616">1</text><text fill="#000000" font-family="sans-serif" font-size="7.8" lengthAdjust="spacing" textLength="4.8" x="272.9883" y="206.8668">1</text></g><!--link Student to mechanographicNumber--><g id="link_Student_mechanographicNumber"><path codeLine="114" d="M54.516,95.808 C65.676,86.862 81.672,74.784 96.9,66 C102.3,62.886 108.15,59.904 113.994,57.144 " fill="none" id="Student-to-mechanographicNumber" style="stroke:#181818;stroke-width:0.6;"/><polygon fill="#181818" points="116.634,55.638,110.7257,55.7478,113.9157,56.9071,112.7563,60.0971,116.634,55.638" style="stroke:#181818;stroke-width:0.6;"/><text fill="#000000" font-family="sans-serif" font-size="7.8" lengthAdjust="spacing" textLength="4.8" x="53.4807" y="89.4731">1</text><text fill="#000000" font-family="sans-serif" font-size="7.8" lengthAdjust="spacing" textLength="4.8" x="102.7756" y="67.8111">1</text></g><!--link User to email--><g id="link_User_email"><path codeLine="115" d="M176.652,237.522 C204.282,237.408 254.76,237.204 283.812,237.09 " fill="none" id="User-to-email" style="stroke:#181818;stroke-width:0.6;"/><polygon fill="#181818" points="286.644,237.078,281.2372,234.6934,283.644,237.0866,281.2509,239.4934,286.644,237.078" style="stroke:#181818;stroke-width:0.6;"/><text fill="#000000" font-family="sans-serif" font-size="7.8" lengthAdjust="spacing" textLength="4.8" x="181.2827" y="245.9942">1</text><text fill="#000000" font-family="sans-serif" font-size="7.8" lengthAdjust="spacing" textLength="4.8" x="277.6849" y="245.6408">1</text></g><!--link Student to designationStudent--><g id="link_Student_designationStudent"><path codeLine="117" d="M65.094,105.918 C84.114,104.346 110.16,102.192 129.498,100.59 " fill="none" id="Student-to-designationStudent" style="stroke:#181818;stroke-width:0.6;"/><polygon fill="#181818" points="132.426,100.302,126.8458,98.3574,129.4363,100.5504,127.2433,103.1409,132.426,100.302" style="stroke:#181818;stroke-width:0.6;"/><text fill="#000000" font-family="sans-serif" font-size="7.8" lengthAdjust="spacing" textLength="4.8" x="69.5874" y="113.8592">1</text><text fill="#000000" font-family="sans-serif" font-size="7.8" lengthAdjust="spacing" textLength="4.8" x="123.5994" y="109.0002">1</text></g><!--link Student to personaInformation--><g id="link_Student_personaInformation"><path codeLine="118" d="M58.554,120.144 C76.344,131.73 103.482,149.4 124.602,163.158 " fill="none" id="Student-to-personaInformation" style="stroke:#181818;stroke-width:0.6;"/><polygon fill="#181818" points="126.81,164.982,123.5969,160.0226,124.2968,163.3437,120.9757,164.0436,126.81,164.982" style="stroke:#181818;stroke-width:0.6;"/><text fill="#000000" font-family="sans-serif" font-size="7.8" lengthAdjust="spacing" textLength="4.8" x="58.4942" y="132.3923">1</text><text fill="#000000" font-family="sans-serif" font-size="7.8" lengthAdjust="spacing" textLength="4.8" x="116.0946" y="158.7738">1</text></g><!--link Exam to Question--><g id="link_Exam_Question"><path codeLine="122" d="M449.274,339.072 C476.334,333.582 518.256,325.08 545.136,319.626 " fill="none" id="Exam-to-Question" style="stroke:#181818;stroke-width:0.6;"/><polygon fill="#181818" points="547.896,318.942,542.1287,317.6541,544.9549,319.5336,543.0754,322.3598,547.896,318.942" style="stroke:#181818;stroke-width:0.6;"/><text fill="#000000" font-family="sans-serif" font-size="7.8" lengthAdjust="spacing" textLength="13.2" x="494.4" y="326.141">has</text><text fill="#000000" font-family="sans-serif" font-size="7.8" lengthAdjust="spacing" textLength="4.8" x="453.9395" y="346.4956">1</text><text fill="#000000" font-family="sans-serif" font-size="7.8" lengthAdjust="spacing" textLength="13.2" x="530.7629" y="327.8816">1..*</text></g><!--reverse link Exam to ExamSubmission--><g id="link_Exam_ExamSubmission"><path codeLine="123" d="M452.4,359.904 C477.228,373.002 512.748,391.734 538.416,405.27 " fill="none" id="Exam-backto-ExamSubmission" style="stroke:#181818;stroke-width:0.6;"/><polygon fill="#181818" points="449.874,358.254,453.5304,362.8962,452.5274,359.6537,455.77,358.6507,449.874,358.254" style="stroke:#181818;stroke-width:0.6;"/><text fill="#000000" font-family="sans-serif" font-size="7.8" lengthAdjust="spacing" textLength="14.4" x="493.8" y="381.341">of a</text><text fill="#000000" font-family="sans-serif" font-size="7.8" lengthAdjust="spacing" textLength="4.8" x="453.9395" y="368.7347">1</text><text fill="#000000" font-family="sans-serif" font-size="7.8" lengthAdjust="spacing" textLength="3.6" x="527.1851" y="399.0993">*</text></g><!--reverse link Student to ExamSubmission--><g id="link_Student_ExamSubmission"><path codeLine="124" d="M42.192,123.63 C51.9,186.816 92.046,420 156,420 C156,420 156,420 423,420 C457.8,420 497.196,420.672 526.572,421.308 " fill="none" id="Student-backto-ExamSubmission" style="stroke:#181818;stroke-width:0.6;"/><polygon fill="#181818" points="41.676,120.828,40.1213,126.5291,42.1302,123.7934,44.866,125.8023,41.676,120.828" style="stroke:#181818;stroke-width:0.6;"/><text fill="#000000" font-family="sans-serif" font-size="7.8" lengthAdjust="spacing" textLength="14.4" x="299.4" y="417.941">of a</text><text fill="#000000" font-family="sans-serif" font-size="7.8" lengthAdjust="spacing" textLength="4.8" x="42.9596" y="132.2897">1</text><text fill="#000000" font-family="sans-serif" font-size="7.8" lengthAdjust="spacing" textLength="4.8" x="517.2611" y="429.1825">1</text></g><!--reverse link Answer to Feedback--><g id="link_Answer_Feedback"><path codeLine="125" d="M703.584,419.118 C718.77,418.932 738.738,418.68 754.062,418.488 " fill="none" id="Answer-backto-Feedback" style="stroke:#181818;stroke-width:0.6;"/><polygon fill="#181818" points="700.626,419.16,706.0531,421.4981,703.6258,419.1257,705.9982,416.6984,700.626,419.16" style="stroke:#181818;stroke-width:0.6;"/><text fill="#000000" font-family="sans-serif" font-size="7.8" lengthAdjust="spacing" textLength="7.8" x="727.8" y="416.141">of</text><text fill="#000000" font-family="sans-serif" font-size="7.8" lengthAdjust="spacing" textLength="4.8" x="704.5689" y="427.5983">1</text><text fill="#000000" font-family="sans-serif" font-size="7.8" lengthAdjust="spacing" textLength="4.8" x="744.5884" y="426.898">1</text></g><!--link ExamSubmission to Answer--><g id="link_ExamSubmission_Answer"><path codeLine="126" d="M616.374,421.164 C630.36,420.78 645.234,420.36 657.06,420.036 " fill="none" id="ExamSubmission-to-Answer" style="stroke:#181818;stroke-width:0.6;"/><polygon fill="#181818" points="660.03,419.934,654.5701,417.6736,657.031,420.0111,654.6935,422.472,660.03,419.934" style="stroke:#181818;stroke-width:0.6;"/><text fill="#000000" font-family="sans-serif" font-size="7.8" lengthAdjust="spacing" textLength="4.8" x="621.0275" y="429.0352">1</text><text fill="#000000" font-family="sans-serif" font-size="7.8" lengthAdjust="spacing" textLength="13.2" x="642.8977" y="428.3558">1..*</text></g><!--link Exam to Course--><g id="link_Exam_Course"><path codeLine="127" d="M449.274,321.594 C476.052,298.344 517.368,262.476 544.272,239.118 " fill="none" id="Exam-to-Course" style="stroke:#181818;stroke-width:0.6;"/><polygon fill="#181818" points="546.234,236.898,540.5859,238.6356,543.972,238.8687,543.739,242.2548,546.234,236.898" style="stroke:#181818;stroke-width:0.6;"/><text fill="#000000" font-family="sans-serif" font-size="7.8" lengthAdjust="spacing" textLength="14.4" x="493.8" y="270.941">of a</text><text fill="#000000" font-family="sans-serif" font-size="7.8" lengthAdjust="spacing" textLength="3.6" x="453.8439" y="326.2321">*</text><text fill="#000000" font-family="sans-serif" font-size="7.8" lengthAdjust="spacing" textLength="4.8" x="537.382" y="248.8204">1</text></g><!--link Exam to Title--><g id="link_Exam_Title"><path codeLine="128" d="M449.274,348.768 C477.552,353.472 522.054,360.876 548.664,365.304 " fill="none" id="Exam-to-Title" style="stroke:#181818;stroke-width:0.6;"/><polygon fill="#181818" points="551.538,365.88,546.6014,362.6319,548.5781,365.391,545.819,367.3677,551.538,365.88" style="stroke:#181818;stroke-width:0.6;"/><text fill="#000000" font-family="sans-serif" font-size="7.8" lengthAdjust="spacing" textLength="4.8" x="453.9395" y="357.7369">1</text><text fill="#000000" font-family="sans-serif" font-size="7.8" lengthAdjust="spacing" textLength="4.8" x="542.5776" y="373.7432">1</text></g><!--reverse link AssignedTeachers to Course--><g id="link_AssignedTeachers_Course"><path codeLine="132" d="M467.874,234.162 C481.092,232.89 495.564,231.246 508.8,229.2 C521.436,227.244 535.368,224.352 546.834,221.772 " fill="none" id="AssignedTeachers-backto-Course" style="stroke:#181818;stroke-width:0.6;"/><polygon fill="#181818" points="464.958,234.492,470.5605,236.3715,467.9446,234.2088,470.1073,231.5929,464.958,234.492" style="stroke:#181818;stroke-width:0.6;"/><text fill="#000000" font-family="sans-serif" font-size="7.8" lengthAdjust="spacing" textLength="13.2" x="494.4" y="227.141">has</text><text fill="#000000" font-family="sans-serif" font-size="7.8" lengthAdjust="spacing" textLength="3.6" x="468.8705" y="242.1863">*</text><text fill="#000000" font-family="sans-serif" font-size="7.8" lengthAdjust="spacing" textLength="4.8" x="537.382" y="231.0946">1</text></g><!--reverse link EnrolledStudents to Course--><g id="link_EnrolledStudents_Course"><path codeLine="133" d="M465.366,198.876 C491.712,203.148 524.646,208.494 546.648,212.064 " fill="none" id="EnrolledStudents-backto-Course" style="stroke:#181818;stroke-width:0.6;"/><polygon fill="#181818" points="462.462,198.306,467.4092,201.5379,465.4235,198.7853,468.1761,196.7996,462.462,198.306" style="stroke:#181818;stroke-width:0.6;"/><text fill="#000000" font-family="sans-serif" font-size="7.8" lengthAdjust="spacing" textLength="13.2" x="494.4" y="201.941">has</text><text fill="#000000" font-family="sans-serif" font-size="7.8" lengthAdjust="spacing" textLength="3.6" x="466.375" y="207.0388">*</text><text fill="#000000" font-family="sans-serif" font-size="7.8" lengthAdjust="spacing" textLength="4.8" x="537.3344" y="219.714">1</text></g><!--link Course to CourseState--><g id="link_Course_CourseState"><path codeLine="134" d="M571.5,191.382 C571.5,185.718 571.5,180.054 571.5,174.39 " fill="none" id="Course-to-CourseState" style="stroke:#181818;stroke-width:0.6;"/><polygon fill="#181818" points="571.5,171.462,569.1,176.862,571.5,174.462,573.9,176.862,571.5,171.462" style="stroke:#181818;stroke-width:0.6;"/><text fill="#000000" font-family="sans-serif" font-size="7.8" lengthAdjust="spacing" textLength="4.8" x="566.3025" y="185.1159">1</text><text fill="#000000" font-family="sans-serif" font-size="7.8" lengthAdjust="spacing" textLength="4.8" x="566.145" y="183.0407">1</text></g><!--link Course to CourseID--><g id="link_Course_CourseID"><path codeLine="135" d="M596.268,220.446 C613.308,223.578 636.102,227.766 653.58,230.982 " fill="none" id="Course-to-CourseID" style="stroke:#181818;stroke-width:0.6;"/><polygon fill="#181818" points="656.4,231.606,651.5207,228.2725,653.4491,231.0656,650.656,232.994,656.4,231.606" style="stroke:#181818;stroke-width:0.6;"/><text fill="#000000" font-family="sans-serif" font-size="7.8" lengthAdjust="spacing" textLength="4.8" x="600.9375" y="229.5407">1</text><text fill="#000000" font-family="sans-serif" font-size="7.8" lengthAdjust="spacing" textLength="4.8" x="647.7656" y="239.2156">1</text></g><!--link Course to Name--><g id="link_Course_Name"><path codeLine="136" d="M596.268,209.808 C615.75,204.816 642.762,197.892 660.732,193.284 " fill="none" id="Course-to-Name" style="stroke:#181818;stroke-width:0.6;"/><polygon fill="#181818" points="663.6,192.396,657.7729,191.4137,660.6942,193.1417,658.9661,196.063,663.6,192.396" style="stroke:#181818;stroke-width:0.6;"/><text fill="#000000" font-family="sans-serif" font-size="7.8" lengthAdjust="spacing" textLength="4.8" x="600.9375" y="217.0743">1</text><text fill="#000000" font-family="sans-serif" font-size="7.8" lengthAdjust="spacing" textLength="4.8" x="654.8662" y="202.03">1</text></g><!--link Course to Description--><g id="link_Course_Description"><path codeLine="137" d="M596.268,200.244 C615.402,187.776 641.802,170.568 659.772,158.856 " fill="none" id="Course-to-Description" style="stroke:#181818;stroke-width:0.6;"/><polygon fill="#181818" points="661.98,157.026,656.1442,157.9553,659.4643,158.6604,658.7592,161.9804,661.98,157.026" style="stroke:#181818;stroke-width:0.6;"/><text fill="#000000" font-family="sans-serif" font-size="7.8" lengthAdjust="spacing" textLength="4.8" x="600.9375" y="205.8665">1</text><text fill="#000000" font-family="sans-serif" font-size="7.8" lengthAdjust="spacing" textLength="4.8" x="652.0931" y="169.0155">1</text></g><!--link Student to EnrolledStudents--><g id="link_Student_EnrolledStudents"><path codeLine="138" d="M40.266,120.114 C41.88,149.88 50.556,226.686 96.9,261.6 C184.968,327.954 263.856,336.258 345,261.6 C361.05,246.834 340.602,229.806 355.2,213.6 C361.614,206.484 370.392,201.696 379.47,198.486 " fill="none" id="Student-to-EnrolledStudents" style="stroke:#181818;stroke-width:0.6;"/><polygon fill="#181818" points="382.224,197.376,376.3432,196.7962,379.3762,198.3195,377.8529,201.3526,382.224,197.376" style="stroke:#181818;stroke-width:0.6;"/><text fill="#000000" font-family="sans-serif" font-size="7.8" lengthAdjust="spacing" textLength="32.4" x="231.6" y="308.141">requests</text><text fill="#000000" font-family="sans-serif" font-size="7.8" lengthAdjust="spacing" textLength="4.8" x="35.0627" y="132.3539">1</text><text fill="#000000" font-family="sans-serif" font-size="7.8" lengthAdjust="spacing" textLength="4.8" x="373.4329" y="206.0071">1</text></g><!--link EnrolledStudents to StudentEnrollmentState--><g id="link_EnrolledStudents_StudentEnrollmentState"><path codeLine="139" d="M422.4,180.888 C422.4,175.044 422.4,169.2 422.4,163.35 " fill="none" id="EnrolledStudents-to-StudentEnrollmentState" style="stroke:#181818;stroke-width:0.6;"/><polygon fill="#181818" points="422.4,160.512,420,165.912,422.4,163.512,424.8,165.912,422.4,160.512" style="stroke:#181818;stroke-width:0.6;"/><text fill="#000000" font-family="sans-serif" font-size="7.8" lengthAdjust="spacing" textLength="4.8" x="416.865" y="174.6756">1</text><text fill="#000000" font-family="sans-serif" font-size="7.8" lengthAdjust="spacing" textLength="4.8" x="417.045" y="172.056">1</text></g><!--SRC=[dLRRRjim37ttLmZPmu02RZTWJq5G86rIB2yTjdGVeDYChTMMCab6smNvzr4Nsx9YPqCD1B6aG-gGXsHIiXn83ReKkKegs6kY1P6iA3N9cOHCCy4JzSpuWKfQawoYIYsrbcpNQDXaWc_P7o2VOiY3uFfUL48IscXHKyso6F8LQ0xoZcRFXHGDpntymvS0Ty13Mi1MlrL031dAYmgI9FbuSvEcPn_oKu4aOoVsaoJU7vbPuB8e91HKm-oO90IVDTTClpalYyKF8VJjBJdQevD3VDlzGXO4QiegX6noi2OJi0D89JZTyBsG9WM2UvXvTapgCiVRknrDNn-RUWTop1Kcx4N8lBlc54IprOqXCXbG3eeLt19eeLIH6QUrGHhWdacb7t5jLwXElpWDNBNsO-7Ma9MKYqBIGyao5yeWIQtHQLB0zIkg_Zy2Mc0Vhv6hBGyhHiZPOYCzpODfoIGxs0flzyG1-2eK9Qk4Wcvd6F0JqrYNOn66gEyDg4Zxttwhsr2YQhgDeVa3GBx3i8Sf3qBRDhkQATNVW0BaOtINNBsW8c49JSXmBngfu88GdGuUUKa9JzKZMnqIHwEchsikHLMv5UD-XTmyQsUtMKLvxW6cKidnp6AhaGuQ0MzgI-JKdliQTZVL-3O2RR6hlaRSVdlWh27tpjJ0QgbCmq7-13GhSGYuM9dQyFkIoW8coQvR1ib5VVurvynj5ZFxZ8AaLMfVFDNXQPhUskzsmDZJjij3m5Xt3rmXqE3iR4mctPpFeade-VXyzzomBMCmlV_hwwjPtvjpKb8rX2rIJ1jYeXwR4x4dz8mqejFKvNdQm7SWWX1ke5rp6r1tVM3SvjMoTUO1owi-MRwzWikYU6TkNBs_vrq4KMLR3WiVUCUXosNS91VHViE4B5qj1SqH8QAuDwlOWtFG_OeDJipNAXh-WPOUSKP-Zdz1xEGU3ywoaivsVCJy1G00]--></g></svg>