<?xml version="1.0" encoding="us-ascii" standalone="no"?><svg xmlns="http://www.w3.org/2000/svg" xmlns:xlink="http://www.w3.org/1999/xlink" contentStyleType="text/css" height="958px" preserveAspectRatio="none" style="width:1777px;height:958px;background:#FFFFFF;" version="1.1" viewBox="0 0 1777 958" width="1777px" zoomAndPan="magnify"><defs/><g><rect fill="#FFFFFF" height="730.4531" style="stroke:#181818;stroke-width:1.0;" width="10" x="216.5" y="115.2871"/><rect fill="#FFFFFF" height="263.7949" style="stroke:#181818;stroke-width:1.0;" width="10" x="354.5" y="423.7031"/><rect fill="#FFFFFF" height="249.7949" style="stroke:#181818;stroke-width:1.0;" width="10" x="539.5" y="144.5977"/><rect fill="#FFFFFF" height="87.9316" style="stroke:#181818;stroke-width:1.0;" width="10" x="539.5" y="453.0137"/><rect fill="#FFFFFF" height="87.9316" style="stroke:#181818;stroke-width:1.0;" width="10" x="539.5" y="570.2559"/><rect fill="#FFFFFF" height="99.6211" style="stroke:#181818;stroke-width:1.0;" width="10" x="539.5" y="716.8086"/><rect fill="#FFFFFF" height="58.6211" style="stroke:#181818;stroke-width:1.0;" width="10" x="941.5" y="247.8398"/><rect fill="#FFFFFF" height="29.3105" style="stroke:#181818;stroke-width:1.0;" width="10" x="1081.5" y="482.3242"/><rect fill="#FFFFFF" height="58.6211" style="stroke:#181818;stroke-width:1.0;" width="10" x="1213" y="335.7715"/><rect fill="#FFFFFF" height="56.3105" style="stroke:#181818;stroke-width:1.0;" width="10" x="1483" y="746.1191"/><rect fill="#FFFFFF" height="29.3105" style="stroke:#181818;stroke-width:1.0;" width="10" x="1712" y="599.5664"/><line style="stroke:#181818;stroke-width:0.5;stroke-dasharray:5.0,5.0;" x1="27" x2="27" y1="83.9766" y2="863.7402"/><line style="stroke:#181818;stroke-width:0.5;stroke-dasharray:5.0,5.0;" x1="221" x2="221" y1="83.9766" y2="863.7402"/><line style="stroke:#181818;stroke-width:0.5;stroke-dasharray:5.0,5.0;" x1="359" x2="359" y1="83.9766" y2="863.7402"/><line style="stroke:#181818;stroke-width:0.5;stroke-dasharray:5.0,5.0;" x1="544" x2="544" y1="83.9766" y2="863.7402"/><line style="stroke:#181818;stroke-width:0.5;stroke-dasharray:5.0,5.0;" x1="946" x2="946" y1="83.9766" y2="863.7402"/><line style="stroke:#181818;stroke-width:0.5;stroke-dasharray:5.0,5.0;" x1="1086" x2="1086" y1="83.9766" y2="863.7402"/><line style="stroke:#181818;stroke-width:0.5;stroke-dasharray:5.0,5.0;" x1="1218" x2="1218" y1="83.9766" y2="863.7402"/><line style="stroke:#181818;stroke-width:0.5;stroke-dasharray:5.0,5.0;" x1="1369" x2="1369" y1="83.9766" y2="863.7402"/><line style="stroke:#181818;stroke-width:0.5;stroke-dasharray:5.0,5.0;" x1="1488" x2="1488" y1="83.9766" y2="863.7402"/><line style="stroke:#181818;stroke-width:0.5;stroke-dasharray:5.0,5.0;" x1="1716.5" x2="1716.5" y1="83.9766" y2="863.7402"/><rect fill="#E2E2F0" height="30.4883" rx="2.5" ry="2.5" style="stroke:#181818;stroke-width:0.5;" width="45" x="5" y="52.4883"/><text fill="#000000" font-family="sans-serif" font-size="14" lengthAdjust="spacing" textLength="31" x="12" y="73.0234">User</text><rect fill="#E2E2F0" height="30.4883" rx="2.5" ry="2.5" style="stroke:#181818;stroke-width:0.5;" width="45" x="5" y="862.7402"/><text fill="#000000" font-family="sans-serif" font-size="14" lengthAdjust="spacing" textLength="31" x="12" y="883.2754">User</text><rect fill="#E2E2F0" height="46.9766" rx="2.5" ry="2.5" style="stroke:#181818;stroke-width:0.5;" width="115" x="164" y="36"/><text fill="#000000" font-family="sans-serif" font-size="14" font-style="italic" lengthAdjust="spacing" textLength="101" x="171" y="56.5352">&#171;presentation&#187;</text><text fill="#000000" font-family="sans-serif" font-size="14" lengthAdjust="spacing" textLength="93" x="175" y="73.0234">ShareBoardUI</text><rect fill="#E2E2F0" height="46.9766" rx="2.5" ry="2.5" style="stroke:#181818;stroke-width:0.5;" width="115" x="164" y="862.7402"/><text fill="#000000" font-family="sans-serif" font-size="14" font-style="italic" lengthAdjust="spacing" textLength="101" x="171" y="883.2754">&#171;presentation&#187;</text><text fill="#000000" font-family="sans-serif" font-size="14" lengthAdjust="spacing" textLength="93" x="175" y="899.7637">ShareBoardUI</text><rect fill="#E2E2F0" height="46.9766" rx="2.5" ry="2.5" style="stroke:#181818;stroke-width:0.5;" width="141" x="289" y="36"/><text fill="#000000" font-family="sans-serif" font-size="14" font-style="italic" lengthAdjust="spacing" textLength="101" x="309" y="56.5352">&#171;presentation&#187;</text><text fill="#000000" font-family="sans-serif" font-size="14" lengthAdjust="spacing" textLength="127" x="296" y="73.0234">SelectBoardWidget</text><rect fill="#E2E2F0" height="46.9766" rx="2.5" ry="2.5" style="stroke:#181818;stroke-width:0.5;" width="141" x="289" y="862.7402"/><text fill="#000000" font-family="sans-serif" font-size="14" font-style="italic" lengthAdjust="spacing" textLength="101" x="309" y="883.2754">&#171;presentation&#187;</text><text fill="#000000" font-family="sans-serif" font-size="14" lengthAdjust="spacing" textLength="127" x="296" y="899.7637">SelectBoardWidget</text><rect fill="#E2E2F0" height="46.9766" rx="2.5" ry="2.5" style="stroke:#181818;stroke-width:0.5;" width="163" x="463" y="36"/><text fill="#000000" font-family="sans-serif" font-size="14" font-style="italic" lengthAdjust="spacing" textLength="90" x="499.5" y="56.5352">&#171;application&#187;</text><text fill="#000000" font-family="sans-serif" font-size="14" lengthAdjust="spacing" textLength="149" x="470" y="73.0234">ShareBoardController</text><rect fill="#E2E2F0" height="46.9766" rx="2.5" ry="2.5" style="stroke:#181818;stroke-width:0.5;" width="163" x="463" y="862.7402"/><text fill="#000000" font-family="sans-serif" font-size="14" font-style="italic" lengthAdjust="spacing" textLength="90" x="499.5" y="883.2754">&#171;application&#187;</text><text fill="#000000" font-family="sans-serif" font-size="14" lengthAdjust="spacing" textLength="149" x="470" y="899.7637">ShareBoardController</text><rect fill="#E2E2F0" height="46.9766" rx="2.5" ry="2.5" style="stroke:#181818;stroke-width:0.5;" width="163" x="865" y="36"/><text fill="#000000" font-family="sans-serif" font-size="14" font-style="italic" lengthAdjust="spacing" textLength="61" x="916" y="56.5352">&#171;service&#187;</text><text fill="#000000" font-family="sans-serif" font-size="14" lengthAdjust="spacing" textLength="149" x="872" y="73.0234">AuthenticationService</text><rect fill="#E2E2F0" height="46.9766" rx="2.5" ry="2.5" style="stroke:#181818;stroke-width:0.5;" width="163" x="865" y="862.7402"/><text fill="#000000" font-family="sans-serif" font-size="14" font-style="italic" lengthAdjust="spacing" textLength="61" x="916" y="883.2754">&#171;service&#187;</text><text fill="#000000" font-family="sans-serif" font-size="14" lengthAdjust="spacing" textLength="149" x="872" y="899.7637">AuthenticationService</text><rect fill="#E2E2F0" height="46.9766" rx="2.5" ry="2.5" style="stroke:#181818;stroke-width:0.5;" width="97" x="1038" y="36"/><text fill="#000000" font-family="sans-serif" font-size="14" font-style="italic" lengthAdjust="spacing" textLength="65" x="1054" y="56.5352">&#171;session&#187;</text><text fill="#000000" font-family="sans-serif" font-size="14" lengthAdjust="spacing" textLength="83" x="1045" y="73.0234">UserSession</text><rect fill="#E2E2F0" height="46.9766" rx="2.5" ry="2.5" style="stroke:#181818;stroke-width:0.5;" width="97" x="1038" y="862.7402"/><text fill="#000000" font-family="sans-serif" font-size="14" font-style="italic" lengthAdjust="spacing" textLength="65" x="1054" y="883.2754">&#171;session&#187;</text><text fill="#000000" font-family="sans-serif" font-size="14" lengthAdjust="spacing" textLength="83" x="1045" y="899.7637">UserSession</text><rect fill="#E2E2F0" height="46.9766" rx="2.5" ry="2.5" style="stroke:#181818;stroke-width:0.5;" width="146" x="1145" y="36"/><text fill="#000000" font-family="sans-serif" font-size="14" font-style="italic" lengthAdjust="spacing" textLength="92" x="1172" y="56.5352">&#171;persistence&#187;</text><text fill="#000000" font-family="sans-serif" font-size="14" lengthAdjust="spacing" textLength="132" x="1152" y="73.0234">PersistenceContext</text><rect fill="#E2E2F0" height="46.9766" rx="2.5" ry="2.5" style="stroke:#181818;stroke-width:0.5;" width="146" x="1145" y="862.7402"/><text fill="#000000" font-family="sans-serif" font-size="14" font-style="italic" lengthAdjust="spacing" textLength="92" x="1172" y="883.2754">&#171;persistence&#187;</text><text fill="#000000" font-family="sans-serif" font-size="14" lengthAdjust="spacing" textLength="132" x="1152" y="899.7637">PersistenceContext</text><rect fill="#E2E2F0" height="46.9766" rx="2.5" ry="2.5" style="stroke:#181818;stroke-width:0.5;" width="137" x="1301" y="36"/><text fill="#000000" font-family="sans-serif" font-size="14" font-style="italic" lengthAdjust="spacing" textLength="61" x="1339" y="56.5352">&#171;factory&#187;</text><text fill="#000000" font-family="sans-serif" font-size="14" lengthAdjust="spacing" textLength="123" x="1308" y="73.0234">RepositoryFactory</text><rect fill="#E2E2F0" height="46.9766" rx="2.5" ry="2.5" style="stroke:#181818;stroke-width:0.5;" width="137" x="1301" y="862.7402"/><text fill="#000000" font-family="sans-serif" font-size="14" font-style="italic" lengthAdjust="spacing" textLength="61" x="1339" y="883.2754">&#171;factory&#187;</text><text fill="#000000" font-family="sans-serif" font-size="14" lengthAdjust="spacing" textLength="123" x="1308" y="899.7637">RepositoryFactory</text><rect fill="#E2E2F0" height="46.9766" rx="2.5" ry="2.5" style="stroke:#181818;stroke-width:0.5;" width="80" x="1448" y="36"/><text fill="#000000" font-family="sans-serif" font-size="14" font-style="italic" lengthAdjust="spacing" textLength="66" x="1455" y="56.5352">&#171;domain&#187;</text><text fill="#000000" font-family="sans-serif" font-size="14" lengthAdjust="spacing" textLength="40" x="1468" y="73.0234">Board</text><rect fill="#E2E2F0" height="46.9766" rx="2.5" ry="2.5" style="stroke:#181818;stroke-width:0.5;" width="80" x="1448" y="862.7402"/><text fill="#000000" font-family="sans-serif" font-size="14" font-style="italic" lengthAdjust="spacing" textLength="66" x="1455" y="883.2754">&#171;domain&#187;</text><text fill="#000000" font-family="sans-serif" font-size="14" lengthAdjust="spacing" textLength="40" x="1468" y="899.7637">Board</text><text fill="#000000" font-family="sans-serif" font-size="14" font-style="italic" lengthAdjust="spacing" textLength="84" x="1672" y="64.5352">&#171;repository&#187;</text><text fill="#000000" font-family="sans-serif" font-size="14" lengthAdjust="spacing" textLength="113" x="1657.5" y="81.0234">BoardRepository</text><path d="M1699,15 C1699,5 1717,5 1717,5 C1717,5 1735,5 1735,15 L1735,41 C1735,51 1717,51 1717,51 C1717,51 1699,51 1699,41 L1699,15 " fill="#E2E2F0" style="stroke:#181818;stroke-width:1.5;"/><path d="M1699,15 C1699,25 1717,25 1717,25 C1717,25 1735,25 1735,15 " fill="none" style="stroke:#181818;stroke-width:1.5;"/><text fill="#000000" font-family="sans-serif" font-size="14" font-style="italic" lengthAdjust="spacing" textLength="84" x="1672" y="876.2754">&#171;repository&#187;</text><text fill="#000000" font-family="sans-serif" font-size="14" lengthAdjust="spacing" textLength="113" x="1657.5" y="892.7637">BoardRepository</text><path d="M1699,905.7168 C1699,895.7168 1717,895.7168 1717,895.7168 C1717,895.7168 1735,895.7168 1735,905.7168 L1735,931.7168 C1735,941.7168 1717,941.7168 1717,941.7168 C1717,941.7168 1699,941.7168 1699,931.7168 L1699,905.7168 " fill="#E2E2F0" style="stroke:#181818;stroke-width:1.5;"/><path d="M1699,905.7168 C1699,915.7168 1717,915.7168 1717,915.7168 C1717,915.7168 1735,915.7168 1735,905.7168 " fill="none" style="stroke:#181818;stroke-width:1.5;"/><rect fill="#FFFFFF" height="730.4531" style="stroke:#181818;stroke-width:1.0;" width="10" x="216.5" y="115.2871"/><rect fill="#FFFFFF" height="263.7949" style="stroke:#181818;stroke-width:1.0;" width="10" x="354.5" y="423.7031"/><rect fill="#FFFFFF" height="249.7949" style="stroke:#181818;stroke-width:1.0;" width="10" x="539.5" y="144.5977"/><rect fill="#FFFFFF" height="87.9316" style="stroke:#181818;stroke-width:1.0;" width="10" x="539.5" y="453.0137"/><rect fill="#FFFFFF" height="87.9316" style="stroke:#181818;stroke-width:1.0;" width="10" x="539.5" y="570.2559"/><rect fill="#FFFFFF" height="99.6211" style="stroke:#181818;stroke-width:1.0;" width="10" x="539.5" y="716.8086"/><rect fill="#FFFFFF" height="58.6211" style="stroke:#181818;stroke-width:1.0;" width="10" x="941.5" y="247.8398"/><rect fill="#FFFFFF" height="29.3105" style="stroke:#181818;stroke-width:1.0;" width="10" x="1081.5" y="482.3242"/><rect fill="#FFFFFF" height="58.6211" style="stroke:#181818;stroke-width:1.0;" width="10" x="1213" y="335.7715"/><rect fill="#FFFFFF" height="56.3105" style="stroke:#181818;stroke-width:1.0;" width="10" x="1483" y="746.1191"/><rect fill="#FFFFFF" height="29.3105" style="stroke:#181818;stroke-width:1.0;" width="10" x="1712" y="599.5664"/><polygon fill="#181818" points="204.5,111.2871,214.5,115.2871,204.5,119.2871,208.5,115.2871" style="stroke:#181818;stroke-width:1.0;"/><line style="stroke:#181818;stroke-width:1.0;stroke-dasharray:2.0,2.0;" x1="27.5" x2="210.5" y1="115.2871" y2="115.2871"/><text fill="#000000" font-family="sans-serif" font-size="13" lengthAdjust="spacing" textLength="135" x="34.5" y="110.5449">asks to share a board</text><polygon fill="#181818" points="527.5,140.5977,537.5,144.5977,527.5,148.5977,531.5,144.5977" style="stroke:#181818;stroke-width:1.0;"/><line style="stroke:#181818;stroke-width:1.0;" x1="226.5" x2="533.5" y1="144.5977" y2="144.5977"/><text fill="#000000" font-family="sans-serif" font-size="13" lengthAdjust="spacing" textLength="46" x="233.5" y="139.8555">create()</text><polygon fill="#181818" points="934.5,169.9082,944.5,173.9082,934.5,177.9082,938.5,173.9082" style="stroke:#181818;stroke-width:1.0;"/><line style="stroke:#181818;stroke-width:1.0;" x1="549.5" x2="940.5" y1="173.9082" y2="173.9082"/><text fill="#000000" font-family="sans-serif" font-size="13" lengthAdjust="spacing" textLength="46" x="556.5" y="169.166">create()</text><polygon fill="#181818" points="934.5,214.5293,944.5,218.5293,934.5,222.5293,938.5,218.5293" style="stroke:#181818;stroke-width:1.0;"/><line style="stroke:#181818;stroke-width:1.0;" x1="549.5" x2="940.5" y1="218.5293" y2="218.5293"/><text fill="#000000" font-family="sans-serif" font-size="13" lengthAdjust="spacing" textLength="369" x="556.5" y="198.4766">ensureAuthenticatedUserHasAnyOf(CourseRoles.TEACHER,</text><text fill="#000000" font-family="sans-serif" font-size="13" lengthAdjust="spacing" textLength="298" x="556.5" y="213.7871">CourseRoles.STUDENT, CourseRoles.MANAGER)</text><polygon fill="#181818" points="1074.5,243.8398,1084.5,247.8398,1074.5,251.8398,1078.5,247.8398" style="stroke:#181818;stroke-width:1.0;"/><line style="stroke:#181818;stroke-width:1.0;" x1="951.5" x2="1080.5" y1="247.8398" y2="247.8398"/><text fill="#000000" font-family="sans-serif" font-size="13" lengthAdjust="spacing" textLength="46" x="958.5" y="243.0977">create()</text><polygon fill="#181818" points="929.5,273.1504,939.5,277.1504,929.5,281.1504,933.5,277.1504" style="stroke:#181818;stroke-width:1.0;"/><line style="stroke:#181818;stroke-width:1.0;" x1="549.5" x2="935.5" y1="277.1504" y2="277.1504"/><text fill="#000000" font-family="sans-serif" font-size="13" lengthAdjust="spacing" textLength="56" x="556.5" y="272.4082">session()</text><polygon fill="#181818" points="560.5,302.4609,550.5,306.4609,560.5,310.4609,556.5,306.4609" style="stroke:#181818;stroke-width:1.0;"/><line style="stroke:#181818;stroke-width:1.0;" x1="554.5" x2="945.5" y1="306.4609" y2="306.4609"/><text fill="#000000" font-family="sans-serif" font-size="13" lengthAdjust="spacing" textLength="48" x="566.5" y="301.7188">session</text><polygon fill="#181818" points="1201,331.7715,1211,335.7715,1201,339.7715,1205,335.7715" style="stroke:#181818;stroke-width:1.0;"/><line style="stroke:#181818;stroke-width:1.0;" x1="549.5" x2="1207" y1="335.7715" y2="335.7715"/><text fill="#000000" font-family="sans-serif" font-size="13" lengthAdjust="spacing" textLength="83" x="556.5" y="331.0293">repositories()</text><polygon fill="#181818" points="1357.5,361.082,1367.5,365.082,1357.5,369.082,1361.5,365.082" style="stroke:#181818;stroke-width:1.0;"/><line style="stroke:#181818;stroke-width:1.0;" x1="1223" x2="1363.5" y1="365.082" y2="365.082"/><text fill="#000000" font-family="sans-serif" font-size="13" lengthAdjust="spacing" textLength="46" x="1230" y="360.3398">create()</text><polygon fill="#181818" points="555.5,390.3926,545.5,394.3926,555.5,398.3926,551.5,394.3926" style="stroke:#181818;stroke-width:1.0;"/><line style="stroke:#181818;stroke-width:1.0;" x1="549.5" x2="1217" y1="394.3926" y2="394.3926"/><text fill="#000000" font-family="sans-serif" font-size="13" lengthAdjust="spacing" textLength="44" x="561.5" y="389.6504">factory</text><polygon fill="#181818" points="342.5,419.7031,352.5,423.7031,342.5,427.7031,346.5,423.7031" style="stroke:#181818;stroke-width:1.0;"/><line style="stroke:#181818;stroke-width:1.0;" x1="226.5" x2="348.5" y1="423.7031" y2="423.7031"/><text fill="#000000" font-family="sans-serif" font-size="13" lengthAdjust="spacing" textLength="80" x="233.5" y="418.9609">selectBoard()</text><polygon fill="#181818" points="527.5,449.0137,537.5,453.0137,527.5,457.0137,531.5,453.0137" style="stroke:#181818;stroke-width:1.0;"/><line style="stroke:#181818;stroke-width:1.0;stroke-dasharray:2.0,2.0;" x1="364.5" x2="533.5" y1="453.0137" y2="453.0137"/><text fill="#000000" font-family="sans-serif" font-size="13" lengthAdjust="spacing" textLength="56" x="371.5" y="448.2715">getUser()</text><polygon fill="#181818" points="1069.5,478.3242,1079.5,482.3242,1069.5,486.3242,1073.5,482.3242" style="stroke:#181818;stroke-width:1.0;"/><line style="stroke:#181818;stroke-width:1.0;" x1="549.5" x2="1075.5" y1="482.3242" y2="482.3242"/><text fill="#000000" font-family="sans-serif" font-size="13" lengthAdjust="spacing" textLength="122" x="556.5" y="477.582">authenticatedUser()</text><polygon fill="#181818" points="560.5,507.6348,550.5,511.6348,560.5,515.6348,556.5,511.6348" style="stroke:#181818;stroke-width:1.0;"/><line style="stroke:#181818;stroke-width:1.0;" x1="554.5" x2="1085.5" y1="511.6348" y2="511.6348"/><text fill="#000000" font-family="sans-serif" font-size="13" lengthAdjust="spacing" textLength="27" x="566.5" y="506.8926">user</text><polygon fill="#181818" points="375.5,536.9453,365.5,540.9453,375.5,544.9453,371.5,540.9453" style="stroke:#181818;stroke-width:1.0;"/><line style="stroke:#181818;stroke-width:1.0;stroke-dasharray:2.0,2.0;" x1="369.5" x2="543.5" y1="540.9453" y2="540.9453"/><text fill="#000000" font-family="sans-serif" font-size="13" lengthAdjust="spacing" textLength="27" x="381.5" y="536.2031">user</text><polygon fill="#181818" points="527.5,566.2559,537.5,570.2559,527.5,574.2559,531.5,570.2559" style="stroke:#181818;stroke-width:1.0;"/><line style="stroke:#181818;stroke-width:1.0;stroke-dasharray:2.0,2.0;" x1="364.5" x2="533.5" y1="570.2559" y2="570.2559"/><text fill="#000000" font-family="sans-serif" font-size="13" lengthAdjust="spacing" textLength="156" x="371.5" y="565.5137">findBoardsByOwner(user)</text><polygon fill="#181818" points="1700,595.5664,1710,599.5664,1700,603.5664,1704,599.5664" style="stroke:#181818;stroke-width:1.0;"/><line style="stroke:#181818;stroke-width:1.0;stroke-dasharray:2.0,2.0;" x1="549.5" x2="1706" y1="599.5664" y2="599.5664"/><text fill="#000000" font-family="sans-serif" font-size="13" lengthAdjust="spacing" textLength="114" x="556.5" y="594.8242">findByOwner(user)</text><polygon fill="#181818" points="560.5,624.877,550.5,628.877,560.5,632.877,556.5,628.877" style="stroke:#181818;stroke-width:1.0;"/><line style="stroke:#181818;stroke-width:1.0;stroke-dasharray:2.0,2.0;" x1="554.5" x2="1716" y1="628.877" y2="628.877"/><text fill="#000000" font-family="sans-serif" font-size="13" lengthAdjust="spacing" textLength="43" x="566.5" y="624.1348">boards</text><polygon fill="#181818" points="375.5,654.1875,365.5,658.1875,375.5,662.1875,371.5,658.1875" style="stroke:#181818;stroke-width:1.0;"/><line style="stroke:#181818;stroke-width:1.0;stroke-dasharray:2.0,2.0;" x1="369.5" x2="543.5" y1="658.1875" y2="658.1875"/><text fill="#000000" font-family="sans-serif" font-size="13" lengthAdjust="spacing" textLength="43" x="381.5" y="653.4453">boards</text><polygon fill="#181818" points="237.5,683.498,227.5,687.498,237.5,691.498,233.5,687.498" style="stroke:#181818;stroke-width:1.0;"/><line style="stroke:#181818;stroke-width:1.0;stroke-dasharray:2.0,2.0;" x1="231.5" x2="358.5" y1="687.498" y2="687.498"/><text fill="#000000" font-family="sans-serif" font-size="13" lengthAdjust="spacing" textLength="87" x="243.5" y="682.7559">selectedBoard</text><polygon fill="#181818" points="527.5,712.8086,537.5,716.8086,527.5,720.8086,531.5,716.8086" style="stroke:#181818;stroke-width:1.0;"/><line style="stroke:#181818;stroke-width:1.0;" x1="226.5" x2="533.5" y1="716.8086" y2="716.8086"/><text fill="#000000" font-family="sans-serif" font-size="13" lengthAdjust="spacing" textLength="164" x="233.5" y="712.0664">shareBoard(selectedBoard)</text><polygon fill="#181818" points="1471,742.1191,1481,746.1191,1471,750.1191,1475,746.1191" style="stroke:#181818;stroke-width:1.0;"/><line style="stroke:#181818;stroke-width:1.0;" x1="549.5" x2="1477" y1="746.1191" y2="746.1191"/><text fill="#000000" font-family="sans-serif" font-size="13" lengthAdjust="spacing" textLength="249" x="556.5" y="741.377">addPermission(board, boardPermission)</text><line style="stroke:#181818;stroke-width:1.0;" x1="1493" x2="1535" y1="775.4297" y2="775.4297"/><line style="stroke:#181818;stroke-width:1.0;" x1="1535" x2="1535" y1="775.4297" y2="788.4297"/><line style="stroke:#181818;stroke-width:1.0;" x1="1494" x2="1535" y1="788.4297" y2="788.4297"/><polygon fill="#181818" points="1504,784.4297,1494,788.4297,1504,792.4297,1500,788.4297" style="stroke:#181818;stroke-width:1.0;"/><text fill="#000000" font-family="sans-serif" font-size="13" lengthAdjust="spacing" textLength="205" x="1500" y="770.6875">addPermission(boardPermission)</text><polygon fill="#181818" points="560.5,798.4297,550.5,802.4297,560.5,806.4297,556.5,802.4297" style="stroke:#181818;stroke-width:1.0;"/><line style="stroke:#181818;stroke-width:1.0;" x1="554.5" x2="1487" y1="802.4297" y2="802.4297"/><polygon fill="#181818" points="237.5,812.4297,227.5,816.4297,237.5,820.4297,233.5,816.4297" style="stroke:#181818;stroke-width:1.0;"/><line style="stroke:#181818;stroke-width:1.0;" x1="231.5" x2="543.5" y1="816.4297" y2="816.4297"/><polygon fill="#181818" points="38.5,841.7402,28.5,845.7402,38.5,849.7402,34.5,845.7402" style="stroke:#181818;stroke-width:1.0;"/><line style="stroke:#181818;stroke-width:1.0;" x1="32.5" x2="220.5" y1="845.7402" y2="845.7402"/><text fill="#000000" font-family="sans-serif" font-size="13" lengthAdjust="spacing" textLength="165" x="44.5" y="840.998">displays success message</text><!--SRC=[ZLNBRjim4BppAtXq0BiVO0W65DTfScXI-85UUc6aTKnKbWGkbTRz-Yv9ILvHokDYKDoPuUxiagwLiJhJjIgjF20OgL2ccQsCg5baTr86RYjbyiE3Gz1lajG644ghhAxArMg8Xm8owma_TVu2rf76coEDDmvTLwKrLL64zDXNagYwBdGsbKFQs1D9jy4Tc5UTWI-liVzEHCMm5T6S2Jj098wlb7qwYbz5b1zWKAE5CWEN6_orNPfkIKLUun5p2tM5cjo-t2bd-iKHksMI7CCg8dbB730iaYIlpagxf79brRD2296hU0zcMqbY-W_dl6-wN2nMhhbBOln6QIk9hWbIoMT75vIFVbKM22C8Hc3MZANC351mTYEkm6jS28ObPcW38qs7eSJ606icvAudzmhJyl9qdAshnY1igmBmotwJhkytsxdyLVBjtVxmTVEudqk- -JrzJBzjjZSY7EJgPgsUhCKZtqYpdOmPqnjOqyP53f5SfDTDpLBsxT608qi98ZeeiRgHYTnieuD4sfdYYNI2yLxNjxRLu_lhokhtwCoUFO8ACMOl1gaj9Usv5d0TbiNGfc6lL3mTN8D11QV5nZGKumvm7ZzyoecM_PQ17zT-r6NkutXxUVfJKWLEy6CdI2QwsAtMj4g45V6Z4AVbRptoicA5JrWp5c75J5lZdw0mMn1yuVI9wPfwZR3__vWDf3upNnv8WvNdzBYVTRZRlf1vgEUw7TiRJ7rVXBDxE4icDbp4pmIzl-zVrl2SBsMkiIxK1IKsMKRJBC_qervWCEaFuZy0]--></g></svg>