<?xml version="1.0" encoding="UTF-8" standalone="no"?>
<!DOCTYPE svg PUBLIC "-//W3C//DTD SVG 1.1//EN"
 "http://www.w3.org/Graphics/SVG/1.1/DTD/svg11.dtd">
<!-- Generated by graphviz version 2.44.1 (20200629.0846)
 -->
<!-- Title: g Pages: 1 -->
<svg width="772pt" height="563pt"
 viewBox="0.00 0.00 772.00 563.20" xmlns="http://www.w3.org/2000/svg" xmlns:xlink="http://www.w3.org/1999/xlink">
<g id="graph0" class="graph" transform="scale(1 1) rotate(0) translate(4 559.2)">
<title>g</title>
<polygon fill="white" stroke="transparent" points="-4,4 -4,-559.2 768,-559.2 768,4 -4,4"/>
<g id="clust1" class="cluster">
<title>cluster_1911013184</title>
<polygon fill="#ececec" stroke="black" points="8,-8 8,-547.2 756,-547.2 756,-8 8,-8"/>
<text text-anchor="middle" x="37.37" y="-530.6" font-family="Times New Roman,serif" font-size="14.00">ecourse</text>
</g>
<g id="clust2" class="cluster">
<title>cluster_861892108</title>
<polygon fill="#d8d8d8" stroke="black" points="16,-16 16,-514.4 748,-514.4 748,-16 16,-16"/>
<text text-anchor="middle" x="78.03" y="-497.8" font-family="Times New Roman,serif" font-size="14.00">coursemanagement</text>
</g>
<!-- Course1854509879 -->
<g id="node1" class="node">
<title>Course1854509879</title>
<polygon fill="#ffffff" stroke="transparent" points="464,-481.6 264,-481.6 264,-263.6 464,-263.6 464,-481.6"/>
<text text-anchor="start" x="269" y="-464" font-family="Times New Roman,serif" font-size="14.00">(C)Course</text>
<text text-anchor="start" x="269" y="-440" font-family="Times New Roman,serif" font-size="14.00">&#45; &#160;&#160;courseId: Long [1]</text>
<text text-anchor="start" x="269" y="-416" font-family="Times New Roman,serif" font-size="14.00">&#45; &#160;&#160;description: Description [1]</text>
<text text-anchor="start" x="269" y="-392" font-family="Times New Roman,serif" font-size="14.00">&#45; &#160;&#160;enrollLimit: EnrollLimit [0..1]</text>
<text text-anchor="start" x="269" y="-368" font-family="Times New Roman,serif" font-size="14.00">&#45; &#160;&#160;name: Name [1]</text>
<text text-anchor="start" x="269" y="-344" font-family="Times New Roman,serif" font-size="14.00">&#45; &#160;&#160;state: State [1]</text>
<text text-anchor="start" x="269" y="-320" font-family="Times New Roman,serif" font-size="14.00">+ id(): Long</text>
<text text-anchor="start" x="269" y="-296" font-family="Times New Roman,serif" font-size="14.00">+ identity(): Long</text>
<text text-anchor="start" x="268.89" y="-272" font-family="Times New Roman,serif" font-size="14.00">+ sameAs(other: Object): boolean</text>
<polygon fill="black" stroke="black" points="264,-456.6 264,-456.6 464,-456.6 464,-456.6 264,-456.6"/>
<polygon fill="black" stroke="black" points="264,-336.6 264,-336.6 464,-336.6 464,-336.6 264,-336.6"/>
<polygon fill="none" stroke="black" points="264,-263.6 264,-481.6 464,-481.6 464,-263.6 264,-263.6"/>
</g>
<!-- Description1854509879 -->
<g id="node2" class="node">
<title>Description1854509879</title>
<polygon fill="#ffffff" stroke="transparent" points="172,-134 24,-134 24,-84 172,-84 172,-134"/>
<text text-anchor="start" x="29" y="-116.4" font-family="Times New Roman,serif" font-size="14.00">(C)Description</text>
<text text-anchor="start" x="28.6" y="-92.4" font-family="Times New Roman,serif" font-size="14.00">&#45; &#160;&#160;description: String [1]</text>
<polygon fill="black" stroke="black" points="24,-109 24,-109 172,-109 172,-109 24,-109"/>
<polygon fill="none" stroke="black" points="24,-84 24,-134 172,-134 172,-84 24,-84"/>
</g>
<!-- Course1854509879&#45;&gt;Description1854509879 -->
<g id="edge1" class="edge">
<title>Course1854509879&#45;&gt;Description1854509879</title>
<path fill="none" stroke="black" d="M263.95,-273.97C221.66,-232.7 182,-194 182,-194 182,-194 153.34,-165.34 129.5,-141.5"/>
<polygon fill="black" stroke="black" points="131.84,-138.89 122.3,-134.3 126.89,-143.84 131.84,-138.89"/>
<text text-anchor="middle" x="261.1" y="-233" font-family="Times New Roman,serif" font-size="14.00">description</text>
<text text-anchor="middle" x="261.1" y="-216.2" font-family="Times New Roman,serif" font-size="14.00">[1]</text>
</g>
<!-- EnrollLimit1854509879 -->
<g id="node3" class="node">
<title>EnrollLimit1854509879</title>
<polygon fill="#ffffff" stroke="transparent" points="355.5,-146 190.5,-146 190.5,-72 355.5,-72 355.5,-146"/>
<text text-anchor="start" x="196" y="-128.4" font-family="Times New Roman,serif" font-size="14.00">(C)EnrollLimit</text>
<text text-anchor="start" x="195.94" y="-104.4" font-family="Times New Roman,serif" font-size="14.00">&#45; &#160;&#160;maxEnroll: Integer [0..1]</text>
<text text-anchor="start" x="196" y="-80.4" font-family="Times New Roman,serif" font-size="14.00">&#45; &#160;&#160;minEnroll: Integer [0..1]</text>
<polygon fill="black" stroke="black" points="191,-121 191,-121 356,-121 356,-121 191,-121"/>
<polygon fill="none" stroke="black" points="190.5,-72 190.5,-146 355.5,-146 355.5,-72 190.5,-72"/>
</g>
<!-- Course1854509879&#45;&gt;EnrollLimit1854509879 -->
<g id="edge2" class="edge">
<title>Course1854509879&#45;&gt;EnrollLimit1854509879</title>
<path fill="none" stroke="black" d="M326.33,-263.31C313.24,-225.68 299.26,-185.48 288.89,-155.69"/>
<polygon fill="black" stroke="black" points="292.12,-154.3 285.53,-146.01 285.51,-156.6 292.12,-154.3"/>
<text text-anchor="middle" x="349.89" y="-233" font-family="Times New Roman,serif" font-size="14.00">enrollLimit</text>
<text text-anchor="middle" x="349.89" y="-216.2" font-family="Times New Roman,serif" font-size="14.00">[0..1]</text>
</g>
<!-- Name1854509879 -->
<g id="node4" class="node">
<title>Name1854509879</title>
<polygon fill="#ffffff" stroke="transparent" points="538,-146 374,-146 374,-72 538,-72 538,-146"/>
<text text-anchor="start" x="379" y="-128.4" font-family="Times New Roman,serif" font-size="14.00">(C)Name</text>
<text text-anchor="start" x="379" y="-104.4" font-family="Times New Roman,serif" font-size="14.00">&#45; &#160;&#160;name: String [1]</text>
<text text-anchor="start" x="378.77" y="-80.4" font-family="Times New Roman,serif" font-size="14.00">+ compareTo(o: Name): int</text>
<polygon fill="black" stroke="black" points="374,-121 374,-121 538,-121 538,-121 374,-121"/>
<polygon fill="black" stroke="black" points="374,-97 374,-97 538,-97 538,-97 374,-97"/>
<polygon fill="none" stroke="black" points="374,-72 374,-146 538,-146 538,-72 374,-72"/>
</g>
<!-- Course1854509879&#45;&gt;Name1854509879 -->
<g id="edge3" class="edge">
<title>Course1854509879&#45;&gt;Name1854509879</title>
<path fill="none" stroke="black" d="M402.08,-263.31C415.32,-225.68 429.46,-185.48 439.93,-155.69"/>
<polygon fill="black" stroke="black" points="443.32,-156.6 443.34,-146.01 436.72,-154.28 443.32,-156.6"/>
<text text-anchor="middle" x="433.16" y="-233" font-family="Times New Roman,serif" font-size="14.00">name</text>
<text text-anchor="middle" x="433.16" y="-216.2" font-family="Times New Roman,serif" font-size="14.00">[1]</text>
</g>
<!-- State1854509879 -->
<g id="node5" class="node">
<title>State1854509879</title>
<polygon fill="#dcfbd5" stroke="transparent" points="739.5,-194 556.5,-194 556.5,-24 739.5,-24 739.5,-194"/>
<text text-anchor="start" x="562" y="-176.4" font-family="Times New Roman,serif" font-size="14.00">(E)State</text>
<text text-anchor="start" x="562" y="-152.4" font-family="Times New Roman,serif" font-size="14.00">+ &#160;&#160;CLOSED: State</text>
<text text-anchor="start" x="562" y="-128.4" font-family="Times New Roman,serif" font-size="14.00">+ &#160;&#160;ENROLL: State</text>
<text text-anchor="start" x="562" y="-104.4" font-family="Times New Roman,serif" font-size="14.00">+ &#160;&#160;OPEN: State</text>
<text text-anchor="start" x="562" y="-80.4" font-family="Times New Roman,serif" font-size="14.00">+ &#160;&#160;PROGRESS: State</text>
<text text-anchor="start" x="561.94" y="-56.4" font-family="Times New Roman,serif" font-size="14.00">+ valueOf(name: String): State</text>
<text text-anchor="start" x="562" y="-32.4" font-family="Times New Roman,serif" font-size="14.00">+ values(): State[]</text>
<polygon fill="black" stroke="black" points="557,-169 557,-169 740,-169 740,-169 557,-169"/>
<polygon fill="black" stroke="black" points="557,-73 557,-73 740,-73 740,-73 557,-73"/>
<polygon fill="none" stroke="black" points="556.5,-24 556.5,-194 739.5,-194 739.5,-24 556.5,-24"/>
</g>
<!-- Course1854509879&#45;&gt;State1854509879 -->
<g id="edge4" class="edge">
<title>Course1854509879&#45;&gt;State1854509879</title>
<path fill="none" stroke="black" d="M464.13,-279.37C491.57,-254.09 521.31,-226.7 548.7,-201.47"/>
<polygon fill="black" stroke="black" points="551.38,-203.76 556.36,-194.41 546.64,-198.61 551.38,-203.76"/>
<text text-anchor="middle" x="543.83" y="-233" font-family="Times New Roman,serif" font-size="14.00">state</text>
<text text-anchor="middle" x="543.83" y="-216.2" font-family="Times New Roman,serif" font-size="14.00">[1]</text>
</g>
</g>
</svg>
