<?xml version="1.0" encoding="us-ascii" standalone="no"?><svg xmlns="http://www.w3.org/2000/svg" xmlns:xlink="http://www.w3.org/1999/xlink" contentStyleType="text/css" height="1522px" preserveAspectRatio="none" style="width:1692px;height:1522px;background:#FFFFFF;" version="1.1" viewBox="0 0 1692 1522" width="1692px" zoomAndPan="magnify"><defs/><g><rect fill="#FFFFFF" height="48.582" style="stroke:#181818;stroke-width:1.0;" width="10" x="274" y="116.9121"/><rect fill="#FFFFFF" height="1224.207" style="stroke:#181818;stroke-width:1.0;" width="10" x="274" y="196.7852"/><rect fill="#FFFFFF" height="1161.625" style="stroke:#181818;stroke-width:1.0;" width="10" x="424" y="228.0762"/><rect fill="#FFFFFF" height="34.9512" style="stroke:#181818;stroke-width:1.0;" width="10" x="554.5" y="1236.168"/><rect fill="#FFFFFF" height="106.2422" style="stroke:#181818;stroke-width:1.0;" width="10" x="640.5" y="345.9492"/><rect fill="#FFFFFF" height="25" style="stroke:#181818;stroke-width:1.0;" width="10" x="645.5" y="406.1914"/><rect fill="#FFFFFF" height="242.1152" style="stroke:#181818;stroke-width:1.0;" width="10" x="731" y="538.7734"/><rect fill="#FFFFFF" height="160.873" style="stroke:#181818;stroke-width:1.0;" width="10" x="736" y="599.0156"/><rect fill="#FFFFFF" height="248.8242" style="stroke:#181818;stroke-width:1.0;" width="10" x="838" y="893.7617"/><rect fill="#FFFFFF" height="167.582" style="stroke:#181818;stroke-width:1.0;" width="10" x="843" y="954.0039"/><rect fill="#FFFFFF" height="25" style="stroke:#181818;stroke-width:1.0;" width="10" x="848" y="998.2949"/><rect fill="#FFFFFF" height="25" style="stroke:#181818;stroke-width:1.0;" width="10" x="848" y="1069.5859"/><rect fill="#FFFFFF" height="14" style="stroke:#181818;stroke-width:1.0;" width="10" x="959" y="259.3672"/><rect fill="#FFFFFF" height="161.5332" style="stroke:#181818;stroke-width:1.0;" width="10" x="1092.5" y="304.6582"/><rect fill="#FFFFFF" height="297.4063" style="stroke:#181818;stroke-width:1.0;" width="10" x="1092.5" y="497.4824"/><rect fill="#FFFFFF" height="304.1152" style="stroke:#181818;stroke-width:1.0;" width="10" x="1092.5" y="852.4707"/><rect fill="#FFFFFF" height="90.2422" style="stroke:#181818;stroke-width:1.0;" width="10" x="1092.5" y="1194.877"/><rect fill="#FFFFFF" height="14" style="stroke:#181818;stroke-width:1.0;" width="10" x="1203.5" y="635.3066"/><rect fill="#FFFFFF" height="59.291" style="stroke:#181818;stroke-width:1.0;" width="10" x="1311.5" y="680.5977"/><rect fill="#FFFFFF" height="14" style="stroke:#181818;stroke-width:1.0;" width="10" x="1419.5" y="711.8887"/><rect fill="#FFFFFF" height="59.291" style="stroke:#181818;stroke-width:1.0;" width="10" x="1543.5" y="1316.4102"/><rect fill="#FFFFFF" height="14" style="stroke:#181818;stroke-width:1.0;" width="10" x="1652" y="1347.7012"/><rect fill="none" height="354.6973" style="stroke:#000000;stroke-width:1.5;" width="823" x="336.5" y="809.8887"/><line style="stroke:#181818;stroke-width:0.5;stroke-dasharray:5.0,5.0;" x1="36" x2="36" y1="83.6211" y2="1438.9922"/><line style="stroke:#181818;stroke-width:0.5;stroke-dasharray:5.0,5.0;" x1="278.5" x2="278.5" y1="83.6211" y2="1438.9922"/><line style="stroke:#181818;stroke-width:0.5;stroke-dasharray:5.0,5.0;" x1="428.5" x2="428.5" y1="83.6211" y2="1438.9922"/><line style="stroke:#181818;stroke-width:0.5;stroke-dasharray:5.0,5.0;" x1="559.5" x2="559.5" y1="1243.998" y2="1438.9922"/><line style="stroke:#181818;stroke-width:0.5;stroke-dasharray:5.0,5.0;" x1="645.5" x2="645.5" y1="353.7793" y2="1438.9922"/><line style="stroke:#181818;stroke-width:0.5;stroke-dasharray:5.0,5.0;" x1="735.5" x2="735.5" y1="546.6035" y2="1438.9922"/><line style="stroke:#181818;stroke-width:0.5;stroke-dasharray:5.0,5.0;" x1="842.5" x2="842.5" y1="901.5918" y2="1438.9922"/><line style="stroke:#181818;stroke-width:0.5;stroke-dasharray:5.0,5.0;" x1="963.5" x2="963.5" y1="83.6211" y2="1438.9922"/><line style="stroke:#181818;stroke-width:0.5;stroke-dasharray:5.0,5.0;" x1="1097.5" x2="1097.5" y1="83.6211" y2="1438.9922"/><line style="stroke:#181818;stroke-width:0.5;stroke-dasharray:5.0,5.0;" x1="1208.5" x2="1208.5" y1="83.6211" y2="1438.9922"/><line style="stroke:#181818;stroke-width:0.5;stroke-dasharray:5.0,5.0;" x1="1316.5" x2="1316.5" y1="83.6211" y2="1438.9922"/><line style="stroke:#181818;stroke-width:0.5;stroke-dasharray:5.0,5.0;" x1="1424.5" x2="1424.5" y1="83.6211" y2="1438.9922"/><line style="stroke:#181818;stroke-width:0.5;stroke-dasharray:5.0,5.0;" x1="1548.5" x2="1548.5" y1="83.6211" y2="1438.9922"/><line style="stroke:#181818;stroke-width:0.5;stroke-dasharray:5.0,5.0;" x1="1656.5" x2="1656.5" y1="83.6211" y2="1438.9922"/><text fill="#000000" font-family="sans-serif" font-size="14" lengthAdjust="spacing" textLength="56" x="5" y="80.1074">Manager</text><ellipse cx="36" cy="13.5" fill="#E2E2F0" rx="8" ry="8" style="stroke:#181818;stroke-width:0.5;"/><path d="M36,21.5 L36,48.5 M23,29.5 L49,29.5 M36,48.5 L23,63.5 M36,48.5 L49,63.5 " fill="none" style="stroke:#181818;stroke-width:0.5;"/><text fill="#000000" font-family="sans-serif" font-size="14" lengthAdjust="spacing" textLength="56" x="5" y="1453.0996">Manager</text><ellipse cx="36" cy="1465.1133" fill="#E2E2F0" rx="8" ry="8" style="stroke:#181818;stroke-width:0.5;"/><path d="M36,1473.1133 L36,1500.1133 M23,1481.1133 L49,1481.1133 M36,1500.1133 L23,1515.1133 M36,1500.1133 L49,1515.1133 " fill="none" style="stroke:#181818;stroke-width:0.5;"/><rect fill="#E2E2F0" height="51.2422" rx="2.5" ry="2.5" style="stroke:#181818;stroke-width:0.5;" width="115" x="221.5" y="31.3789"/><text fill="#000000" font-family="sans-serif" font-size="14" font-style="italic" lengthAdjust="spacing" textLength="95" x="231.5" y="53.4863">&#171;presentation&#187;</text><text fill="#000000" font-family="sans-serif" font-size="14" lengthAdjust="spacing" textLength="101" x="228.5" y="72.1074">CreateCourseUI</text><rect fill="#E2E2F0" height="51.2422" rx="2.5" ry="2.5" style="stroke:#181818;stroke-width:0.5;" width="115" x="221.5" y="1437.9922"/><text fill="#000000" font-family="sans-serif" font-size="14" font-style="italic" lengthAdjust="spacing" textLength="95" x="231.5" y="1460.0996">&#171;presentation&#187;</text><text fill="#000000" font-family="sans-serif" font-size="14" lengthAdjust="spacing" textLength="101" x="228.5" y="1478.7207">CreateCourseUI</text><rect fill="#E2E2F0" height="51.2422" rx="2.5" ry="2.5" style="stroke:#181818;stroke-width:0.5;" width="165" x="346.5" y="31.3789"/><text fill="#000000" font-family="sans-serif" font-size="14" font-style="italic" lengthAdjust="spacing" textLength="84" x="387" y="53.4863">&#171;application&#187;</text><text fill="#000000" font-family="sans-serif" font-size="14" lengthAdjust="spacing" textLength="151" x="353.5" y="72.1074">CreateCourseController</text><rect fill="#E2E2F0" height="51.2422" rx="2.5" ry="2.5" style="stroke:#181818;stroke-width:0.5;" width="165" x="346.5" y="1437.9922"/><text fill="#000000" font-family="sans-serif" font-size="14" font-style="italic" lengthAdjust="spacing" textLength="84" x="387" y="1460.0996">&#171;application&#187;</text><text fill="#000000" font-family="sans-serif" font-size="14" lengthAdjust="spacing" textLength="151" x="353.5" y="1478.7207">CreateCourseController</text><rect fill="#E2E2F0" height="51.2422" rx="2.5" ry="2.5" style="stroke:#181818;stroke-width:0.5;" width="76" x="521.5" y="1437.9922"/><text fill="#000000" font-family="sans-serif" font-size="14" font-style="italic" lengthAdjust="spacing" textLength="62" x="528.5" y="1460.0996">&#171;domain&#187;</text><text fill="#000000" font-family="sans-serif" font-size="14" lengthAdjust="spacing" textLength="46" x="536.5" y="1478.7207">Course</text><rect fill="#E2E2F0" height="51.2422" rx="2.5" ry="2.5" style="stroke:#181818;stroke-width:0.5;" width="76" x="607.5" y="1437.9922"/><text fill="#000000" font-family="sans-serif" font-size="14" font-style="italic" lengthAdjust="spacing" textLength="62" x="614.5" y="1460.0996">&#171;domain&#187;</text><text fill="#000000" font-family="sans-serif" font-size="14" lengthAdjust="spacing" textLength="36" x="627.5" y="1478.7207">Name</text><rect fill="#E2E2F0" height="51.2422" rx="2.5" ry="2.5" style="stroke:#181818;stroke-width:0.5;" width="85" x="693.5" y="1437.9922"/><text fill="#000000" font-family="sans-serif" font-size="14" font-style="italic" lengthAdjust="spacing" textLength="62" x="705" y="1460.0996">&#171;domain&#187;</text><text fill="#000000" font-family="sans-serif" font-size="14" lengthAdjust="spacing" textLength="71" x="700.5" y="1478.7207">Description</text><rect fill="#E2E2F0" height="51.2422" rx="2.5" ry="2.5" style="stroke:#181818;stroke-width:0.5;" width="79" x="803.5" y="1437.9922"/><text fill="#000000" font-family="sans-serif" font-size="14" font-style="italic" lengthAdjust="spacing" textLength="62" x="812" y="1460.0996">&#171;domain&#187;</text><text fill="#000000" font-family="sans-serif" font-size="14" lengthAdjust="spacing" textLength="65" x="810.5" y="1478.7207">EnrollLimit</text><rect fill="#E2E2F0" height="51.2422" rx="2.5" ry="2.5" style="stroke:#181818;stroke-width:0.5;" width="143" x="892.5" y="31.3789"/><text fill="#000000" font-family="sans-serif" font-size="14" font-style="italic" lengthAdjust="spacing" textLength="44" x="942" y="53.4863">&#171;auth&#187;</text><text fill="#000000" font-family="sans-serif" font-size="14" lengthAdjust="spacing" textLength="129" x="899.5" y="72.1074">AuthorizationService</text><rect fill="#E2E2F0" height="51.2422" rx="2.5" ry="2.5" style="stroke:#181818;stroke-width:0.5;" width="143" x="892.5" y="1437.9922"/><text fill="#000000" font-family="sans-serif" font-size="14" font-style="italic" lengthAdjust="spacing" textLength="44" x="942" y="1460.0996">&#171;auth&#187;</text><text fill="#000000" font-family="sans-serif" font-size="14" lengthAdjust="spacing" textLength="129" x="899.5" y="1478.7207">AuthorizationService</text><rect fill="#E2E2F0" height="51.2422" rx="2.5" ry="2.5" style="stroke:#181818;stroke-width:0.5;" width="104" x="1045.5" y="31.3789"/><text fill="#000000" font-family="sans-serif" font-size="14" font-style="italic" lengthAdjust="spacing" textLength="62" x="1066.5" y="53.4863">&#171;domain&#187;</text><text fill="#000000" font-family="sans-serif" font-size="14" lengthAdjust="spacing" textLength="90" x="1052.5" y="72.1074">CourseBuilder</text><rect fill="#E2E2F0" height="51.2422" rx="2.5" ry="2.5" style="stroke:#181818;stroke-width:0.5;" width="104" x="1045.5" y="1437.9922"/><text fill="#000000" font-family="sans-serif" font-size="14" font-style="italic" lengthAdjust="spacing" textLength="62" x="1066.5" y="1460.0996">&#171;domain&#187;</text><text fill="#000000" font-family="sans-serif" font-size="14" lengthAdjust="spacing" textLength="90" x="1052.5" y="1478.7207">CourseBuilder</text><rect fill="#E2E2F0" height="51.2422" rx="2.5" ry="2.5" style="stroke:#181818;stroke-width:0.5;" width="98" x="1159.5" y="31.3789"/><text fill="#000000" font-family="sans-serif" font-size="14" font-style="italic" lengthAdjust="spacing" textLength="84" x="1166.5" y="53.4863">&#171;application&#187;</text><text fill="#000000" font-family="sans-serif" font-size="14" lengthAdjust="spacing" textLength="69" x="1174" y="72.1074">Application</text><rect fill="#E2E2F0" height="51.2422" rx="2.5" ry="2.5" style="stroke:#181818;stroke-width:0.5;" width="98" x="1159.5" y="1437.9922"/><text fill="#000000" font-family="sans-serif" font-size="14" font-style="italic" lengthAdjust="spacing" textLength="84" x="1166.5" y="1460.0996">&#171;application&#187;</text><text fill="#000000" font-family="sans-serif" font-size="14" lengthAdjust="spacing" textLength="69" x="1174" y="1478.7207">Application</text><rect fill="#E2E2F0" height="51.2422" rx="2.5" ry="2.5" style="stroke:#181818;stroke-width:0.5;" width="98" x="1267.5" y="31.3789"/><text fill="#000000" font-family="sans-serif" font-size="14" font-style="italic" lengthAdjust="spacing" textLength="84" x="1274.5" y="53.4863">&#171;application&#187;</text><text fill="#000000" font-family="sans-serif" font-size="14" lengthAdjust="spacing" textLength="76" x="1278.5" y="72.1074">AppSettings</text><rect fill="#E2E2F0" height="51.2422" rx="2.5" ry="2.5" style="stroke:#181818;stroke-width:0.5;" width="98" x="1267.5" y="1437.9922"/><text fill="#000000" font-family="sans-serif" font-size="14" font-style="italic" lengthAdjust="spacing" textLength="84" x="1274.5" y="1460.0996">&#171;application&#187;</text><text fill="#000000" font-family="sans-serif" font-size="14" lengthAdjust="spacing" textLength="76" x="1278.5" y="1478.7207">AppSettings</text><rect fill="#E2E2F0" height="51.2422" rx="2.5" ry="2.5" style="stroke:#181818;stroke-width:0.5;" width="98" x="1375.5" y="31.3789"/><text fill="#000000" font-family="sans-serif" font-size="14" font-style="italic" lengthAdjust="spacing" textLength="84" x="1382.5" y="53.4863">&#171;application&#187;</text><text fill="#000000" font-family="sans-serif" font-size="14" lengthAdjust="spacing" textLength="65" x="1392" y="72.1074">Properties</text><rect fill="#E2E2F0" height="51.2422" rx="2.5" ry="2.5" style="stroke:#181818;stroke-width:0.5;" width="98" x="1375.5" y="1437.9922"/><text fill="#000000" font-family="sans-serif" font-size="14" font-style="italic" lengthAdjust="spacing" textLength="84" x="1382.5" y="1460.0996">&#171;application&#187;</text><text fill="#000000" font-family="sans-serif" font-size="14" lengthAdjust="spacing" textLength="65" x="1392" y="1478.7207">Properties</text><rect fill="#E2E2F0" height="51.2422" rx="2.5" ry="2.5" style="stroke:#181818;stroke-width:0.5;" width="130" x="1483.5" y="31.3789"/><text fill="#000000" font-family="sans-serif" font-size="14" font-style="italic" lengthAdjust="spacing" textLength="79" x="1509" y="53.4863">&#171;repository&#187;</text><text fill="#000000" font-family="sans-serif" font-size="14" lengthAdjust="spacing" textLength="116" x="1490.5" y="72.1074">DomainRepository</text><rect fill="#E2E2F0" height="51.2422" rx="2.5" ry="2.5" style="stroke:#181818;stroke-width:0.5;" width="130" x="1483.5" y="1437.9922"/><text fill="#000000" font-family="sans-serif" font-size="14" font-style="italic" lengthAdjust="spacing" textLength="79" x="1509" y="1460.0996">&#171;repository&#187;</text><text fill="#000000" font-family="sans-serif" font-size="14" lengthAdjust="spacing" textLength="116" x="1490.5" y="1478.7207">DomainRepository</text><text fill="#000000" font-family="sans-serif" font-size="14" lengthAdjust="spacing" textLength="61" x="1623.5" y="80.1074">Database</text><path d="M1639,29 C1639,19 1657,19 1657,19 C1657,19 1675,19 1675,29 L1675,55 C1675,65 1657,65 1657,65 C1657,65 1639,65 1639,55 L1639,29 " fill="#E2E2F0" style="stroke:#181818;stroke-width:1.5;"/><path d="M1639,29 C1639,39 1657,39 1657,39 C1657,39 1675,39 1675,29 " fill="none" style="stroke:#181818;stroke-width:1.5;"/><text fill="#000000" font-family="sans-serif" font-size="14" lengthAdjust="spacing" textLength="61" x="1623.5" y="1453.0996">Database</text><path d="M1639,1466.6133 C1639,1456.6133 1657,1456.6133 1657,1456.6133 C1657,1456.6133 1675,1456.6133 1675,1466.6133 L1675,1492.6133 C1675,1502.6133 1657,1502.6133 1657,1502.6133 C1657,1502.6133 1639,1502.6133 1639,1492.6133 L1639,1466.6133 " fill="#E2E2F0" style="stroke:#181818;stroke-width:1.5;"/><path d="M1639,1466.6133 C1639,1476.6133 1657,1476.6133 1657,1476.6133 C1657,1476.6133 1675,1476.6133 1675,1466.6133 " fill="none" style="stroke:#181818;stroke-width:1.5;"/><rect fill="#FFFFFF" height="48.582" style="stroke:#181818;stroke-width:1.0;" width="10" x="274" y="116.9121"/><rect fill="#FFFFFF" height="1224.207" style="stroke:#181818;stroke-width:1.0;" width="10" x="274" y="196.7852"/><rect fill="#FFFFFF" height="1161.625" style="stroke:#181818;stroke-width:1.0;" width="10" x="424" y="228.0762"/><rect fill="#FFFFFF" height="34.9512" style="stroke:#181818;stroke-width:1.0;" width="10" x="554.5" y="1236.168"/><rect fill="#FFFFFF" height="106.2422" style="stroke:#181818;stroke-width:1.0;" width="10" x="640.5" y="345.9492"/><rect fill="#FFFFFF" height="25" style="stroke:#181818;stroke-width:1.0;" width="10" x="645.5" y="406.1914"/><rect fill="#FFFFFF" height="242.1152" style="stroke:#181818;stroke-width:1.0;" width="10" x="731" y="538.7734"/><rect fill="#FFFFFF" height="160.873" style="stroke:#181818;stroke-width:1.0;" width="10" x="736" y="599.0156"/><rect fill="#FFFFFF" height="248.8242" style="stroke:#181818;stroke-width:1.0;" width="10" x="838" y="893.7617"/><rect fill="#FFFFFF" height="167.582" style="stroke:#181818;stroke-width:1.0;" width="10" x="843" y="954.0039"/><rect fill="#FFFFFF" height="25" style="stroke:#181818;stroke-width:1.0;" width="10" x="848" y="998.2949"/><rect fill="#FFFFFF" height="25" style="stroke:#181818;stroke-width:1.0;" width="10" x="848" y="1069.5859"/><rect fill="#FFFFFF" height="14" style="stroke:#181818;stroke-width:1.0;" width="10" x="959" y="259.3672"/><rect fill="#FFFFFF" height="161.5332" style="stroke:#181818;stroke-width:1.0;" width="10" x="1092.5" y="304.6582"/><rect fill="#FFFFFF" height="297.4063" style="stroke:#181818;stroke-width:1.0;" width="10" x="1092.5" y="497.4824"/><rect fill="#FFFFFF" height="304.1152" style="stroke:#181818;stroke-width:1.0;" width="10" x="1092.5" y="852.4707"/><rect fill="#FFFFFF" height="90.2422" style="stroke:#181818;stroke-width:1.0;" width="10" x="1092.5" y="1194.877"/><rect fill="#FFFFFF" height="14" style="stroke:#181818;stroke-width:1.0;" width="10" x="1203.5" y="635.3066"/><rect fill="#FFFFFF" height="59.291" style="stroke:#181818;stroke-width:1.0;" width="10" x="1311.5" y="680.5977"/><rect fill="#FFFFFF" height="14" style="stroke:#181818;stroke-width:1.0;" width="10" x="1419.5" y="711.8887"/><rect fill="#FFFFFF" height="59.291" style="stroke:#181818;stroke-width:1.0;" width="10" x="1543.5" y="1316.4102"/><rect fill="#FFFFFF" height="14" style="stroke:#181818;stroke-width:1.0;" width="10" x="1652" y="1347.7012"/><polygon fill="#181818" points="262,112.9121,272,116.9121,262,120.9121,266,116.9121" style="stroke:#181818;stroke-width:1.0;"/><line style="stroke:#181818;stroke-width:1.0;" x1="36" x2="268" y1="116.9121" y2="116.9121"/><text fill="#000000" font-family="sans-serif" font-size="13" lengthAdjust="spacing" textLength="132" x="43" y="111.6494">ask to create a Course</text><polygon fill="#181818" points="47,161.4941,37,165.4941,47,169.4941,43,165.4941" style="stroke:#181818;stroke-width:1.0;"/><line style="stroke:#181818;stroke-width:1.0;stroke-dasharray:2.0,2.0;" x1="41" x2="278" y1="165.4941" y2="165.4941"/><text fill="#000000" font-family="sans-serif" font-size="13" lengthAdjust="spacing" textLength="111" x="53" y="142.9404">ask for course data</text><text fill="#000000" font-family="sans-serif" font-size="13" lengthAdjust="spacing" textLength="214" x="53" y="160.2314">(name, description, enrollment limits)</text><polygon fill="#181818" points="262,192.7852,272,196.7852,262,200.7852,266,196.7852" style="stroke:#181818;stroke-width:1.0;"/><line style="stroke:#181818;stroke-width:1.0;" x1="36" x2="268" y1="196.7852" y2="196.7852"/><text fill="#000000" font-family="sans-serif" font-size="13" lengthAdjust="spacing" textLength="89" x="43" y="191.5225">introduces data</text><polygon fill="#181818" points="412,224.0762,422,228.0762,412,232.0762,416,228.0762" style="stroke:#181818;stroke-width:1.0;"/><line style="stroke:#181818;stroke-width:1.0;" x1="284" x2="418" y1="228.0762" y2="228.0762"/><text fill="#000000" font-family="sans-serif" font-size="13" lengthAdjust="spacing" textLength="77" x="291" y="222.8135">createCourse</text><polygon fill="#181818" points="947,255.3672,957,259.3672,947,263.3672,951,259.3672" style="stroke:#181818;stroke-width:1.0;"/><line style="stroke:#181818;stroke-width:1.0;" x1="434" x2="953" y1="259.3672" y2="259.3672"/><text fill="#000000" font-family="sans-serif" font-size="13" lengthAdjust="spacing" textLength="205" x="441" y="254.1045">ensureAuthenticatedUserHasAnyOf</text><polygon fill="#181818" points="445,269.3672,435,273.3672,445,277.3672,441,273.3672" style="stroke:#181818;stroke-width:1.0;"/><line style="stroke:#181818;stroke-width:1.0;stroke-dasharray:2.0,2.0;" x1="439" x2="963" y1="273.3672" y2="273.3672"/><polygon fill="#181818" points="1080.5,300.6582,1090.5,304.6582,1080.5,308.6582,1084.5,304.6582" style="stroke:#181818;stroke-width:1.0;"/><line style="stroke:#181818;stroke-width:1.0;" x1="434" x2="1086.5" y1="304.6582" y2="304.6582"/><text fill="#000000" font-family="sans-serif" font-size="13" lengthAdjust="spacing" textLength="57" x="441" y="299.3955">withName</text><polygon fill="#181818" points="694.5,331.9492,684.5,335.9492,694.5,339.9492,690.5,335.9492" style="stroke:#181818;stroke-width:1.0;"/><line style="stroke:#181818;stroke-width:1.0;" x1="688.5" x2="1091.5" y1="335.9492" y2="335.9492"/><text fill="#000000" font-family="sans-serif" font-size="13" lengthAdjust="spacing" textLength="23" x="700.5" y="330.6865">new</text><rect fill="#E2E2F0" height="51.2422" rx="2.5" ry="2.5" style="stroke:#181818;stroke-width:0.5;" width="76" x="607.5" y="312.6582"/><text fill="#000000" font-family="sans-serif" font-size="14" font-style="italic" lengthAdjust="spacing" textLength="62" x="614.5" y="334.7656">&#171;domain&#187;</text><text fill="#000000" font-family="sans-serif" font-size="14" lengthAdjust="spacing" textLength="36" x="627.5" y="353.3867">Name</text><line style="stroke:#181818;stroke-width:1.0;" x1="650.5" x2="697.5" y1="393.1914" y2="393.1914"/><line style="stroke:#181818;stroke-width:1.0;" x1="697.5" x2="697.5" y1="393.1914" y2="406.1914"/><line style="stroke:#181818;stroke-width:1.0;" x1="656.5" x2="697.5" y1="406.1914" y2="406.1914"/><polygon fill="#181818" points="666.5,402.1914,656.5,406.1914,666.5,410.1914,662.5,406.1914" style="stroke:#181818;stroke-width:1.0;"/><text fill="#000000" font-family="sans-serif" font-size="13" lengthAdjust="spacing" textLength="52" x="662.5" y="387.9287">setName</text><line style="stroke:#181818;stroke-width:1.0;stroke-dasharray:2.0,2.0;" x1="655.5" x2="697.5" y1="430.1914" y2="430.1914"/><line style="stroke:#181818;stroke-width:1.0;stroke-dasharray:2.0,2.0;" x1="697.5" x2="697.5" y1="430.1914" y2="443.1914"/><line style="stroke:#181818;stroke-width:1.0;stroke-dasharray:2.0,2.0;" x1="650.5" x2="697.5" y1="443.1914" y2="443.1914"/><polygon fill="#181818" points="660.5,439.1914,650.5,443.1914,660.5,447.1914,656.5,443.1914" style="stroke:#181818;stroke-width:1.0;"/><polygon fill="#181818" points="1080.5,448.1914,1090.5,452.1914,1080.5,456.1914,1084.5,452.1914" style="stroke:#181818;stroke-width:1.0;"/><line style="stroke:#181818;stroke-width:1.0;stroke-dasharray:2.0,2.0;" x1="645.5" x2="1086.5" y1="452.1914" y2="452.1914"/><polygon fill="#181818" points="445,462.1914,435,466.1914,445,470.1914,441,466.1914" style="stroke:#181818;stroke-width:1.0;"/><line style="stroke:#181818;stroke-width:1.0;stroke-dasharray:2.0,2.0;" x1="439" x2="1096.5" y1="466.1914" y2="466.1914"/><polygon fill="#181818" points="1080.5,493.4824,1090.5,497.4824,1080.5,501.4824,1084.5,497.4824" style="stroke:#181818;stroke-width:1.0;"/><line style="stroke:#181818;stroke-width:1.0;" x1="434" x2="1086.5" y1="497.4824" y2="497.4824"/><text fill="#000000" font-family="sans-serif" font-size="13" lengthAdjust="spacing" textLength="88" x="441" y="492.2197">withDescription</text><polygon fill="#181818" points="789.5,524.7734,779.5,528.7734,789.5,532.7734,785.5,528.7734" style="stroke:#181818;stroke-width:1.0;"/><line style="stroke:#181818;stroke-width:1.0;" x1="783.5" x2="1091.5" y1="528.7734" y2="528.7734"/><text fill="#000000" font-family="sans-serif" font-size="13" lengthAdjust="spacing" textLength="23" x="795.5" y="523.5107">new</text><rect fill="#E2E2F0" height="51.2422" rx="2.5" ry="2.5" style="stroke:#181818;stroke-width:0.5;" width="85" x="693.5" y="505.4824"/><text fill="#000000" font-family="sans-serif" font-size="14" font-style="italic" lengthAdjust="spacing" textLength="62" x="705" y="527.5898">&#171;domain&#187;</text><text fill="#000000" font-family="sans-serif" font-size="14" lengthAdjust="spacing" textLength="71" x="700.5" y="546.2109">Description</text><line style="stroke:#181818;stroke-width:1.0;" x1="741" x2="788" y1="586.0156" y2="586.0156"/><line style="stroke:#181818;stroke-width:1.0;" x1="788" x2="788" y1="586.0156" y2="599.0156"/><line style="stroke:#181818;stroke-width:1.0;" x1="747" x2="788" y1="599.0156" y2="599.0156"/><polygon fill="#181818" points="757,595.0156,747,599.0156,757,603.0156,753,599.0156" style="stroke:#181818;stroke-width:1.0;"/><text fill="#000000" font-family="sans-serif" font-size="13" lengthAdjust="spacing" textLength="83" x="753" y="580.7529">setDescription</text><polygon fill="#181818" points="1191.5,631.3066,1201.5,635.3066,1191.5,639.3066,1195.5,635.3066" style="stroke:#181818;stroke-width:1.0;"/><line style="stroke:#181818;stroke-width:1.0;" x1="746" x2="1197.5" y1="635.3066" y2="635.3066"/><text fill="#000000" font-family="sans-serif" font-size="13" lengthAdjust="spacing" textLength="46" x="753" y="630.0439">settings</text><polygon fill="#181818" points="757,645.3066,747,649.3066,757,653.3066,753,649.3066" style="stroke:#181818;stroke-width:1.0;"/><line style="stroke:#181818;stroke-width:1.0;stroke-dasharray:2.0,2.0;" x1="751" x2="1207.5" y1="649.3066" y2="649.3066"/><polygon fill="#181818" points="1299.5,676.5977,1309.5,680.5977,1299.5,684.5977,1303.5,680.5977" style="stroke:#181818;stroke-width:1.0;"/><line style="stroke:#181818;stroke-width:1.0;" x1="746" x2="1305.5" y1="680.5977" y2="680.5977"/><text fill="#000000" font-family="sans-serif" font-size="13" lengthAdjust="spacing" textLength="208" x="753" y="675.335">getCourseDescriptionCharacterLimit</text><polygon fill="#181818" points="1407.5,707.8887,1417.5,711.8887,1407.5,715.8887,1411.5,711.8887" style="stroke:#181818;stroke-width:1.0;"/><line style="stroke:#181818;stroke-width:1.0;" x1="1321.5" x2="1413.5" y1="711.8887" y2="711.8887"/><text fill="#000000" font-family="sans-serif" font-size="13" lengthAdjust="spacing" textLength="67" x="1328.5" y="706.626">getProperty</text><polygon fill="#181818" points="1332.5,721.8887,1322.5,725.8887,1332.5,729.8887,1328.5,725.8887" style="stroke:#181818;stroke-width:1.0;"/><line style="stroke:#181818;stroke-width:1.0;stroke-dasharray:2.0,2.0;" x1="1326.5" x2="1423.5" y1="725.8887" y2="725.8887"/><polygon fill="#181818" points="757,735.8887,747,739.8887,757,743.8887,753,739.8887" style="stroke:#181818;stroke-width:1.0;"/><line style="stroke:#181818;stroke-width:1.0;stroke-dasharray:2.0,2.0;" x1="751" x2="1315.5" y1="739.8887" y2="739.8887"/><line style="stroke:#181818;stroke-width:1.0;stroke-dasharray:2.0,2.0;" x1="746" x2="788" y1="758.8887" y2="758.8887"/><line style="stroke:#181818;stroke-width:1.0;stroke-dasharray:2.0,2.0;" x1="788" x2="788" y1="758.8887" y2="771.8887"/><line style="stroke:#181818;stroke-width:1.0;stroke-dasharray:2.0,2.0;" x1="741" x2="788" y1="771.8887" y2="771.8887"/><polygon fill="#181818" points="751,767.8887,741,771.8887,751,775.8887,747,771.8887" style="stroke:#181818;stroke-width:1.0;"/><polygon fill="#181818" points="1080.5,776.8887,1090.5,780.8887,1080.5,784.8887,1084.5,780.8887" style="stroke:#181818;stroke-width:1.0;"/><line style="stroke:#181818;stroke-width:1.0;stroke-dasharray:2.0,2.0;" x1="736" x2="1086.5" y1="780.8887" y2="780.8887"/><polygon fill="#181818" points="445,790.8887,435,794.8887,445,798.8887,441,794.8887" style="stroke:#181818;stroke-width:1.0;"/><line style="stroke:#181818;stroke-width:1.0;stroke-dasharray:2.0,2.0;" x1="439" x2="1096.5" y1="794.8887" y2="794.8887"/><path d="M336.5,809.8887 L401.5,809.8887 L401.5,819.1797 L391.5,829.1797 L336.5,829.1797 L336.5,809.8887 " fill="#EEEEEE" style="stroke:#000000;stroke-width:1.5;"/><rect fill="none" height="354.6973" style="stroke:#000000;stroke-width:1.5;" width="823" x="336.5" y="809.8887"/><text fill="#000000" font-family="sans-serif" font-size="13" font-weight="bold" lengthAdjust="spacing" textLength="20" x="351.5" y="824.917">opt</text><polygon fill="#181818" points="1080.5,848.4707,1090.5,852.4707,1080.5,856.4707,1084.5,852.4707" style="stroke:#181818;stroke-width:1.0;"/><line style="stroke:#181818;stroke-width:1.0;" x1="434" x2="1086.5" y1="852.4707" y2="852.4707"/><text fill="#000000" font-family="sans-serif" font-size="13" lengthAdjust="spacing" textLength="84" x="441" y="847.208">withEnrollLimit</text><polygon fill="#181818" points="893.5,879.7617,883.5,883.7617,893.5,887.7617,889.5,883.7617" style="stroke:#181818;stroke-width:1.0;"/><line style="stroke:#181818;stroke-width:1.0;" x1="887.5" x2="1091.5" y1="883.7617" y2="883.7617"/><text fill="#000000" font-family="sans-serif" font-size="13" lengthAdjust="spacing" textLength="23" x="899.5" y="878.499">new</text><rect fill="#E2E2F0" height="51.2422" rx="2.5" ry="2.5" style="stroke:#181818;stroke-width:0.5;" width="79" x="803.5" y="860.4707"/><text fill="#000000" font-family="sans-serif" font-size="14" font-style="italic" lengthAdjust="spacing" textLength="62" x="812" y="882.5781">&#171;domain&#187;</text><text fill="#000000" font-family="sans-serif" font-size="14" lengthAdjust="spacing" textLength="65" x="810.5" y="901.1992">EnrollLimit</text><line style="stroke:#181818;stroke-width:1.0;" x1="848" x2="895" y1="941.0039" y2="941.0039"/><line style="stroke:#181818;stroke-width:1.0;" x1="895" x2="895" y1="941.0039" y2="954.0039"/><line style="stroke:#181818;stroke-width:1.0;" x1="854" x2="895" y1="954.0039" y2="954.0039"/><polygon fill="#181818" points="864,950.0039,854,954.0039,864,958.0039,860,954.0039" style="stroke:#181818;stroke-width:1.0;"/><text fill="#000000" font-family="sans-serif" font-size="13" lengthAdjust="spacing" textLength="79" x="860" y="935.7412">setEnrollLimit</text><line style="stroke:#181818;stroke-width:1.0;" x1="853" x2="900" y1="985.2949" y2="985.2949"/><line style="stroke:#181818;stroke-width:1.0;" x1="900" x2="900" y1="985.2949" y2="998.2949"/><line style="stroke:#181818;stroke-width:1.0;" x1="859" x2="900" y1="998.2949" y2="998.2949"/><polygon fill="#181818" points="869,994.2949,859,998.2949,869,1002.2949,865,998.2949" style="stroke:#181818;stroke-width:1.0;"/><text fill="#000000" font-family="sans-serif" font-size="13" lengthAdjust="spacing" textLength="72" x="865" y="980.0322">setMinEnroll</text><line style="stroke:#181818;stroke-width:1.0;stroke-dasharray:2.0,2.0;" x1="858" x2="900" y1="1022.2949" y2="1022.2949"/><line style="stroke:#181818;stroke-width:1.0;stroke-dasharray:2.0,2.0;" x1="900" x2="900" y1="1022.2949" y2="1035.2949"/><line style="stroke:#181818;stroke-width:1.0;stroke-dasharray:2.0,2.0;" x1="853" x2="900" y1="1035.2949" y2="1035.2949"/><polygon fill="#181818" points="863,1031.2949,853,1035.2949,863,1039.2949,859,1035.2949" style="stroke:#181818;stroke-width:1.0;"/><line style="stroke:#181818;stroke-width:1.0;" x1="853" x2="900" y1="1056.5859" y2="1056.5859"/><line style="stroke:#181818;stroke-width:1.0;" x1="900" x2="900" y1="1056.5859" y2="1069.5859"/><line style="stroke:#181818;stroke-width:1.0;" x1="859" x2="900" y1="1069.5859" y2="1069.5859"/><polygon fill="#181818" points="869,1065.5859,859,1069.5859,869,1073.5859,865,1069.5859" style="stroke:#181818;stroke-width:1.0;"/><text fill="#000000" font-family="sans-serif" font-size="13" lengthAdjust="spacing" textLength="76" x="865" y="1051.3232">setMaxEnroll</text><line style="stroke:#181818;stroke-width:1.0;stroke-dasharray:2.0,2.0;" x1="858" x2="900" y1="1093.5859" y2="1093.5859"/><line style="stroke:#181818;stroke-width:1.0;stroke-dasharray:2.0,2.0;" x1="900" x2="900" y1="1093.5859" y2="1106.5859"/><line style="stroke:#181818;stroke-width:1.0;stroke-dasharray:2.0,2.0;" x1="853" x2="900" y1="1106.5859" y2="1106.5859"/><polygon fill="#181818" points="863,1102.5859,853,1106.5859,863,1110.5859,859,1106.5859" style="stroke:#181818;stroke-width:1.0;"/><line style="stroke:#181818;stroke-width:1.0;stroke-dasharray:2.0,2.0;" x1="853" x2="895" y1="1120.5859" y2="1120.5859"/><line style="stroke:#181818;stroke-width:1.0;stroke-dasharray:2.0,2.0;" x1="895" x2="895" y1="1120.5859" y2="1133.5859"/><line style="stroke:#181818;stroke-width:1.0;stroke-dasharray:2.0,2.0;" x1="848" x2="895" y1="1133.5859" y2="1133.5859"/><polygon fill="#181818" points="858,1129.5859,848,1133.5859,858,1137.5859,854,1133.5859" style="stroke:#181818;stroke-width:1.0;"/><polygon fill="#181818" points="1080.5,1138.5859,1090.5,1142.5859,1080.5,1146.5859,1084.5,1142.5859" style="stroke:#181818;stroke-width:1.0;"/><line style="stroke:#181818;stroke-width:1.0;stroke-dasharray:2.0,2.0;" x1="843" x2="1086.5" y1="1142.5859" y2="1142.5859"/><polygon fill="#181818" points="445,1152.5859,435,1156.5859,445,1160.5859,441,1156.5859" style="stroke:#181818;stroke-width:1.0;"/><line style="stroke:#181818;stroke-width:1.0;stroke-dasharray:2.0,2.0;" x1="439" x2="1096.5" y1="1156.5859" y2="1156.5859"/><polygon fill="#181818" points="1080.5,1190.877,1090.5,1194.877,1080.5,1198.877,1084.5,1194.877" style="stroke:#181818;stroke-width:1.0;"/><line style="stroke:#181818;stroke-width:1.0;" x1="434" x2="1086.5" y1="1194.877" y2="1194.877"/><text fill="#000000" font-family="sans-serif" font-size="13" lengthAdjust="spacing" textLength="27" x="441" y="1189.6143">build</text><polygon fill="#181818" points="608.5,1222.168,598.5,1226.168,608.5,1230.168,604.5,1226.168" style="stroke:#181818;stroke-width:1.0;"/><line style="stroke:#181818;stroke-width:1.0;" x1="602.5" x2="1091.5" y1="1226.168" y2="1226.168"/><text fill="#000000" font-family="sans-serif" font-size="13" lengthAdjust="spacing" textLength="23" x="614.5" y="1220.9053">new</text><rect fill="#E2E2F0" height="51.2422" rx="2.5" ry="2.5" style="stroke:#181818;stroke-width:0.5;" width="76" x="521.5" y="1202.877"/><text fill="#000000" font-family="sans-serif" font-size="14" font-style="italic" lengthAdjust="spacing" textLength="62" x="528.5" y="1224.9844">&#171;domain&#187;</text><text fill="#000000" font-family="sans-serif" font-size="14" lengthAdjust="spacing" textLength="46" x="536.5" y="1243.6055">Course</text><polygon fill="#181818" points="1080.5,1267.1191,1090.5,1271.1191,1080.5,1275.1191,1084.5,1271.1191" style="stroke:#181818;stroke-width:1.0;"/><line style="stroke:#181818;stroke-width:1.0;stroke-dasharray:2.0,2.0;" x1="559.5" x2="1086.5" y1="1271.1191" y2="1271.1191"/><polygon fill="#181818" points="445,1281.1191,435,1285.1191,445,1289.1191,441,1285.1191" style="stroke:#181818;stroke-width:1.0;"/><line style="stroke:#181818;stroke-width:1.0;stroke-dasharray:2.0,2.0;" x1="439" x2="1096.5" y1="1285.1191" y2="1285.1191"/><polygon fill="#181818" points="1531.5,1312.4102,1541.5,1316.4102,1531.5,1320.4102,1535.5,1316.4102" style="stroke:#181818;stroke-width:1.0;"/><line style="stroke:#181818;stroke-width:1.0;" x1="434" x2="1537.5" y1="1316.4102" y2="1316.4102"/><text fill="#000000" font-family="sans-serif" font-size="13" lengthAdjust="spacing" textLength="26" x="441" y="1311.1475">save</text><polygon fill="#181818" points="1640,1343.7012,1650,1347.7012,1640,1351.7012,1644,1347.7012" style="stroke:#181818;stroke-width:1.0;"/><line style="stroke:#181818;stroke-width:1.0;" x1="1553.5" x2="1646" y1="1347.7012" y2="1347.7012"/><text fill="#000000" font-family="sans-serif" font-size="13" lengthAdjust="spacing" textLength="26" x="1560.5" y="1342.4385">save</text><polygon fill="#181818" points="1564.5,1357.7012,1554.5,1361.7012,1564.5,1365.7012,1560.5,1361.7012" style="stroke:#181818;stroke-width:1.0;"/><line style="stroke:#181818;stroke-width:1.0;stroke-dasharray:2.0,2.0;" x1="1558.5" x2="1656" y1="1361.7012" y2="1361.7012"/><polygon fill="#181818" points="445,1371.7012,435,1375.7012,445,1379.7012,441,1375.7012" style="stroke:#181818;stroke-width:1.0;"/><line style="stroke:#181818;stroke-width:1.0;stroke-dasharray:2.0,2.0;" x1="439" x2="1547.5" y1="1375.7012" y2="1375.7012"/><polygon fill="#181818" points="295,1385.7012,285,1389.7012,295,1393.7012,291,1389.7012" style="stroke:#181818;stroke-width:1.0;"/><line style="stroke:#181818;stroke-width:1.0;stroke-dasharray:2.0,2.0;" x1="289" x2="428" y1="1389.7012" y2="1389.7012"/><polygon fill="#181818" points="47,1416.9922,37,1420.9922,47,1424.9922,43,1420.9922" style="stroke:#181818;stroke-width:1.0;"/><line style="stroke:#181818;stroke-width:1.0;stroke-dasharray:2.0,2.0;" x1="41" x2="278" y1="1420.9922" y2="1420.9922"/><text fill="#000000" font-family="sans-serif" font-size="13" lengthAdjust="spacing" textLength="152" x="53" y="1415.7295">informs operation success</text><!--SRC=[jLRBZjCm5DtxAxm4QV83KLIfj4WWCO0OpOwD9xdJMhHsP3iTojTpxQJDTHAd3y6giNFEkO-SNbkKJXl-A9JOWE72ygNVOBKmJfQo5ihnbG7XOAKRO-7viySCTegYDc11EU6aLej5ahtIoXczsxMH4c-AGjJrJfQJOW4SoErJKLHwB-GGzrNi0ohy9Z1hiAMHjO_YeNIPO7nKFiKlSY-TPz1bWh5it5OR-IVKyWJc8CkGr-G-5exRanL_QEIkwheMRQJYzXqCuSXohhs8UmBdfDhOZdPUpj6-6rq3BY6mo6gEj0vv_u1QMucEEuPlCDmh2dDU89-nu4wUBOOMp97-YplDox3FHTSd9aed3tud9h01FqF9LhjLUiMdihLO9PpugTufjD83htgNF7081jYZyVdEky2-PnMa0gOpbzxwLLDYmtoigrDUfFv1UTU5kHRqS9PGyHsPiccETTl6W7-9fVkl2zMp1VD9sAKwVdlj0qxnsQHebgo6jdHIBvr-_5V9-PjqMpyHI4SeWdNU2P2OYs9XbEHSmLjF3yZmeWTOS74C0kfGjAJuRPpF43R8wQgMnOgtzOgCn0ijeyXHv-Xa7JIGyYXinCAkJcOp8q27NX08WuoOit_FA3QBWqV-8vHnjFEipFa6NDi6WbfjXK4bCE74YF8uCHbLGL4oIeDcjpxsv1x123YB4w8b448KRBReir1KT9gI_2fp5f_nq1rErxMxqUtaEB_WTeeSkPtU2WPkfpmA6x7Gh9FPt2BmA5MxTmKzvjEctXHH_FwV4U-Z9Eqsyn7li1kewWQxlVYd2oRh3k-HlxgBxy1Q4Ng-y6dXVtgOZEvnw0zn86VY4C3ynUT5OEhhxe6DDBpk2JNIExDEY6mYZMZQfEDSrOgHTgeRenjVwev8uXXmZL5uCSHhwDvoFx7Riyas9LuJxLy0]--></g></svg>