<?xml version="1.0" encoding="UTF-8" standalone="no"?>
<!DOCTYPE svg PUBLIC "-//W3C//DTD SVG 1.1//EN"
 "http://www.w3.org/Graphics/SVG/1.1/DTD/svg11.dtd">
<!-- Generated by graphviz version 2.44.1 (20200629.0846)
 -->
<!-- Title: g Pages: 1 -->
<svg width="1240pt" height="969pt"
 viewBox="0.00 0.00 1240.00 969.20" xmlns="http://www.w3.org/2000/svg" xmlns:xlink="http://www.w3.org/1999/xlink">
<g id="graph0" class="graph" transform="scale(1 1) rotate(0) translate(4 965.2)">
<title>g</title>
<polygon fill="white" stroke="transparent" points="-4,4 -4,-965.2 1236,-965.2 1236,4 -4,4"/>
<g id="clust1" class="cluster">
<title>cluster_1911013184</title>
<polygon fill="#ececec" stroke="black" points="8,-8 8,-953.2 1224,-953.2 1224,-8 8,-8"/>
<text text-anchor="middle" x="37.37" y="-936.6" font-family="Times New Roman,serif" font-size="14.00">ecourse</text>
</g>
<g id="clust3" class="cluster">
<title>cluster_489743759</title>
<polygon fill="#d8d8d8" stroke="black" points="844,-243.6 844,-382.4 1216,-382.4 1216,-243.6 844,-243.6"/>
<text text-anchor="middle" x="883.09" y="-365.8" font-family="Times New Roman,serif" font-size="14.00">persistence</text>
</g>
<g id="clust4" class="cluster">
<title>cluster_861892108</title>
<polygon fill="#d8d8d8" stroke="black" points="306,-16 306,-682 836,-682 836,-16 306,-16"/>
<text text-anchor="middle" x="368.03" y="-665.4" font-family="Times New Roman,serif" font-size="14.00">coursemanagement</text>
</g>
<g id="clust2" class="cluster">
<title>cluster_1386234867</title>
<polygon fill="#d8d8d8" stroke="black" points="16,-531.2 16,-920.4 298,-920.4 298,-531.2 16,-531.2"/>
<text text-anchor="middle" x="34.11" y="-903.8" font-family="Times New Roman,serif" font-size="14.00">app</text>
</g>
<!-- OpenCloseCourseUI375150821 -->
<g id="node1" class="node">
<title>OpenCloseCourseUI375150821</title>
<polygon fill="#ffffff" stroke="transparent" points="290,-887.6 24,-887.6 24,-741.6 290,-741.6 290,-887.6"/>
<text text-anchor="start" x="29" y="-870" font-family="Times New Roman,serif" font-size="14.00">(C)OpenCloseCourseUI</text>
<text text-anchor="start" x="29" y="-846" font-family="Times New Roman,serif" font-size="14.00">&#45; &#160;&#160;LOGGER: Logger [1]</text>
<text text-anchor="start" x="28.9" y="-822" font-family="Times New Roman,serif" font-size="14.00">&#45; &#160;&#160;controller: OpenCloseCourseController [1]</text>
<text text-anchor="start" x="29" y="-798" font-family="Times New Roman,serif" font-size="14.00">&#45; &#160;&#160;courseWidget: SelectCourseWidget [1]</text>
<text text-anchor="start" x="29" y="-774" font-family="Times New Roman,serif" font-size="14.00"># doShow(): boolean</text>
<text text-anchor="start" x="29" y="-750" font-family="Times New Roman,serif" font-size="14.00">+ headline(): String</text>
<polygon fill="black" stroke="black" points="24,-862.6 24,-862.6 290,-862.6 290,-862.6 24,-862.6"/>
<polygon fill="black" stroke="black" points="24,-790.6 24,-790.6 290,-790.6 290,-790.6 24,-790.6"/>
<polygon fill="none" stroke="black" points="24,-741.6 24,-887.6 290,-887.6 290,-741.6 24,-741.6"/>
</g>
<!-- SelectCourseWidget375150821 -->
<g id="node2" class="node">
<title>SelectCourseWidget375150821</title>
<polygon fill="#ffffff" stroke="transparent" points="282,-613.2 76,-613.2 76,-539.2 282,-539.2 282,-613.2"/>
<text text-anchor="start" x="81" y="-595.6" font-family="Times New Roman,serif" font-size="14.00">(C)SelectCourseWidget</text>
<text text-anchor="start" x="80.73" y="-571.6" font-family="Times New Roman,serif" font-size="14.00">&#45; &#160;&#160;courses: Iterable&lt;Course&gt; [0..1]</text>
<text text-anchor="start" x="81" y="-547.6" font-family="Times New Roman,serif" font-size="14.00">+ selectCourse(): Course</text>
<polygon fill="black" stroke="black" points="76,-588.2 76,-588.2 282,-588.2 282,-588.2 76,-588.2"/>
<polygon fill="black" stroke="black" points="76,-564.2 76,-564.2 282,-564.2 282,-564.2 76,-564.2"/>
<polygon fill="none" stroke="black" points="76,-539.2 76,-613.2 282,-613.2 282,-539.2 76,-539.2"/>
</g>
<!-- OpenCloseCourseUI375150821&#45;&gt;SelectCourseWidget375150821 -->
<g id="edge8" class="edge">
<title>OpenCloseCourseUI375150821&#45;&gt;SelectCourseWidget375150821</title>
<path fill="none" stroke="black" d="M163.72,-741.39C167.29,-703 171.58,-656.93 174.7,-623.38"/>
<polygon fill="black" stroke="black" points="178.19,-623.67 175.63,-613.39 171.22,-623.03 178.19,-623.67"/>
<text text-anchor="middle" x="206.87" y="-711" font-family="Times New Roman,serif" font-size="14.00">courseWidget</text>
<text text-anchor="middle" x="206.87" y="-694.2" font-family="Times New Roman,serif" font-size="14.00">[1]</text>
</g>
<!-- OpenCloseCourseController427251605 -->
<g id="node9" class="node">
<title>OpenCloseCourseController427251605</title>
<polygon fill="#ffffff" stroke="transparent" points="720,-649.2 422,-649.2 422,-503.2 720,-503.2 720,-649.2"/>
<text text-anchor="start" x="427" y="-631.6" font-family="Times New Roman,serif" font-size="14.00">(C)OpenCloseCourseController</text>
<text text-anchor="start" x="427" y="-607.6" font-family="Times New Roman,serif" font-size="14.00">&#45; &#160;&#160;authz: AuthorizationService [1]</text>
<text text-anchor="start" x="427" y="-583.6" font-family="Times New Roman,serif" font-size="14.00">&#45; &#160;&#160;courseRepository: CourseRepository [1]</text>
<text text-anchor="start" x="427" y="-559.6" font-family="Times New Roman,serif" font-size="14.00">&#45; &#160;&#160;service: ListCourseService [1]</text>
<text text-anchor="start" x="427" y="-535.6" font-family="Times New Roman,serif" font-size="14.00">+ allNotEnrollCourses(): Iterable&lt;Course&gt;</text>
<text text-anchor="start" x="426.9" y="-511.6" font-family="Times New Roman,serif" font-size="14.00">+ toggleOpenCloseCourse(course: Course): Course</text>
<polygon fill="black" stroke="black" points="422,-624.2 422,-624.2 720,-624.2 720,-624.2 422,-624.2"/>
<polygon fill="black" stroke="black" points="422,-552.2 422,-552.2 720,-552.2 720,-552.2 422,-552.2"/>
<polygon fill="none" stroke="black" points="422,-503.2 422,-649.2 720,-649.2 720,-503.2 422,-503.2"/>
</g>
<!-- OpenCloseCourseUI375150821&#45;&gt;OpenCloseCourseController427251605 -->
<g id="edge7" class="edge">
<title>OpenCloseCourseUI375150821&#45;&gt;OpenCloseCourseController427251605</title>
<path fill="none" stroke="black" d="M283.18,-741.55C331.53,-713.94 386.86,-682.34 436.01,-654.28"/>
<polygon fill="black" stroke="black" points="437.84,-657.26 444.79,-649.27 434.37,-651.19 437.84,-657.26"/>
<text text-anchor="middle" x="391.21" y="-711" font-family="Times New Roman,serif" font-size="14.00">controller</text>
<text text-anchor="middle" x="391.21" y="-694.2" font-family="Times New Roman,serif" font-size="14.00">[1]</text>
</g>
<!-- Course1854509879 -->
<g id="node4" class="node">
<title>Course1854509879</title>
<polygon fill="#ffffff" stroke="transparent" points="514,-433.6 314,-433.6 314,-167.6 514,-167.6 514,-433.6"/>
<text text-anchor="start" x="319" y="-416" font-family="Times New Roman,serif" font-size="14.00">(C)Course</text>
<text text-anchor="start" x="319" y="-392" font-family="Times New Roman,serif" font-size="14.00">&#45; &#160;&#160;courseId: Long [1]</text>
<text text-anchor="start" x="319" y="-368" font-family="Times New Roman,serif" font-size="14.00">&#45; &#160;&#160;description: Description [1]</text>
<text text-anchor="start" x="319" y="-344" font-family="Times New Roman,serif" font-size="14.00">&#45; &#160;&#160;enrollLimit: EnrollLimit [0..1]</text>
<text text-anchor="start" x="319" y="-320" font-family="Times New Roman,serif" font-size="14.00">&#45; &#160;&#160;name: Name [1]</text>
<text text-anchor="start" x="319" y="-296" font-family="Times New Roman,serif" font-size="14.00">&#45; &#160;&#160;state: State [1]</text>
<text text-anchor="start" x="319" y="-272" font-family="Times New Roman,serif" font-size="14.00">&#45; checkActivity()</text>
<text text-anchor="start" x="319" y="-248" font-family="Times New Roman,serif" font-size="14.00">+ identity(): Name</text>
<text text-anchor="start" x="318.89" y="-224" font-family="Times New Roman,serif" font-size="14.00">+ sameAs(other: Object): boolean</text>
<text text-anchor="start" x="319" y="-200" font-family="Times New Roman,serif" font-size="14.00">+ toggleOpenClose()</text>
<text text-anchor="start" x="319" y="-176" font-family="Times New Roman,serif" font-size="14.00">+ toggleOpenCloseEnroll()</text>
<polygon fill="black" stroke="black" points="314,-408.6 314,-408.6 514,-408.6 514,-408.6 314,-408.6"/>
<polygon fill="black" stroke="black" points="314,-288.6 314,-288.6 514,-288.6 514,-288.6 314,-288.6"/>
<polygon fill="none" stroke="black" points="314,-167.6 314,-433.6 514,-433.6 514,-167.6 314,-167.6"/>
</g>
<!-- SelectCourseWidget375150821&#45;&gt;Course1854509879 -->
<g id="edge9" class="edge">
<title>SelectCourseWidget375150821&#45;&gt;Course1854509879</title>
<path fill="none" stroke="black" d="M209.96,-539.15C235.01,-509.99 271.84,-467.11 307.33,-425.79"/>
<polygon fill="black" stroke="black" points="310.08,-427.96 313.94,-418.09 304.77,-423.4 310.08,-427.96"/>
<text text-anchor="middle" x="302.99" y="-472.6" font-family="Times New Roman,serif" font-size="14.00">courses</text>
<text text-anchor="middle" x="302.99" y="-455.8" font-family="Times New Roman,serif" font-size="14.00">[1]</text>
</g>
<!-- JpaCourseRepository1852613913 -->
<g id="node3" class="node">
<title>JpaCourseRepository1852613913</title>
<polygon fill="#ffffff" stroke="transparent" points="1208,-349.6 852,-349.6 852,-251.6 1208,-251.6 1208,-349.6"/>
<text text-anchor="start" x="857" y="-332" font-family="Times New Roman,serif" font-size="14.00">(C)JpaCourseRepository</text>
<text text-anchor="start" x="857" y="-308" font-family="Times New Roman,serif" font-size="14.00">+ findAllCoursesOpenOrEnrollState(): Iterable&lt;Course&gt;</text>
<text text-anchor="start" x="857" y="-284" font-family="Times New Roman,serif" font-size="14.00">+ findAllCoursesWithState(state: State): Iterable&lt;Course&gt;</text>
<text text-anchor="start" x="856.62" y="-260" font-family="Times New Roman,serif" font-size="14.00">+ findAllCoursesWithoutState(state: State): Iterable&lt;Course&gt;</text>
<polygon fill="black" stroke="black" points="852,-324.6 852,-324.6 1208,-324.6 1208,-324.6 852,-324.6"/>
<polygon fill="none" stroke="black" points="852,-251.6 852,-349.6 1208,-349.6 1208,-251.6 852,-251.6"/>
</g>
<!-- Description1854509879 -->
<g id="node5" class="node">
<title>Description1854509879</title>
<polygon fill="#ffffff" stroke="transparent" points="462,-86 314,-86 314,-36 462,-36 462,-86"/>
<text text-anchor="start" x="319" y="-68.4" font-family="Times New Roman,serif" font-size="14.00">(C)Description</text>
<text text-anchor="start" x="318.6" y="-44.4" font-family="Times New Roman,serif" font-size="14.00">&#45; &#160;&#160;description: String [1]</text>
<polygon fill="black" stroke="black" points="314,-61 314,-61 462,-61 462,-61 314,-61"/>
<polygon fill="none" stroke="black" points="314,-36 314,-86 462,-86 462,-36 314,-36"/>
</g>
<!-- Course1854509879&#45;&gt;Description1854509879 -->
<g id="edge1" class="edge">
<title>Course1854509879&#45;&gt;Description1854509879</title>
<path fill="none" stroke="black" d="M399.56,-167.6C396.66,-141.1 393.85,-115.49 391.73,-96.13"/>
<polygon fill="black" stroke="black" points="395.2,-95.61 390.63,-86.05 388.24,-96.37 395.2,-95.61"/>
<text text-anchor="middle" x="428.1" y="-137" font-family="Times New Roman,serif" font-size="14.00">description</text>
<text text-anchor="middle" x="428.1" y="-120.2" font-family="Times New Roman,serif" font-size="14.00">[1]</text>
</g>
<!-- EnrollLimit1854509879 -->
<g id="node6" class="node">
<title>EnrollLimit1854509879</title>
<polygon fill="#ffffff" stroke="transparent" points="645.5,-98 480.5,-98 480.5,-24 645.5,-24 645.5,-98"/>
<text text-anchor="start" x="486" y="-80.4" font-family="Times New Roman,serif" font-size="14.00">(C)EnrollLimit</text>
<text text-anchor="start" x="485.94" y="-56.4" font-family="Times New Roman,serif" font-size="14.00">&#45; &#160;&#160;maxEnroll: Integer [0..1]</text>
<text text-anchor="start" x="486" y="-32.4" font-family="Times New Roman,serif" font-size="14.00">&#45; &#160;&#160;minEnroll: Integer [0..1]</text>
<polygon fill="black" stroke="black" points="481,-73 481,-73 646,-73 646,-73 481,-73"/>
<polygon fill="none" stroke="black" points="480.5,-24 480.5,-98 645.5,-98 645.5,-24 480.5,-24"/>
</g>
<!-- Course1854509879&#45;&gt;EnrollLimit1854509879 -->
<g id="edge2" class="edge">
<title>Course1854509879&#45;&gt;EnrollLimit1854509879</title>
<path fill="none" stroke="black" d="M496.78,-167.6C510.47,-145.77 523.78,-124.54 534.84,-106.91"/>
<polygon fill="black" stroke="black" points="538.05,-108.37 540.4,-98.04 532.12,-104.65 538.05,-108.37"/>
<text text-anchor="middle" x="557.89" y="-137" font-family="Times New Roman,serif" font-size="14.00">enrollLimit</text>
<text text-anchor="middle" x="557.89" y="-120.2" font-family="Times New Roman,serif" font-size="14.00">[0..1]</text>
</g>
<!-- Name1854509879 -->
<g id="node8" class="node">
<title>Name1854509879</title>
<polygon fill="#ffffff" stroke="transparent" points="828,-98 664,-98 664,-24 828,-24 828,-98"/>
<text text-anchor="start" x="669" y="-80.4" font-family="Times New Roman,serif" font-size="14.00">(C)Name</text>
<text text-anchor="start" x="669" y="-56.4" font-family="Times New Roman,serif" font-size="14.00">&#45; &#160;&#160;name: String [1]</text>
<text text-anchor="start" x="668.77" y="-32.4" font-family="Times New Roman,serif" font-size="14.00">+ compareTo(o: Name): int</text>
<polygon fill="black" stroke="black" points="664,-73 664,-73 828,-73 828,-73 664,-73"/>
<polygon fill="black" stroke="black" points="664,-49 664,-49 828,-49 828,-49 664,-49"/>
<polygon fill="none" stroke="black" points="664,-24 664,-98 828,-98 828,-24 664,-24"/>
</g>
<!-- Course1854509879&#45;&gt;Name1854509879 -->
<g id="edge3" class="edge">
<title>Course1854509879&#45;&gt;Name1854509879</title>
<path fill="none" stroke="black" d="M514.18,-197.88C531.46,-180.33 544,-167.6 544,-167.6 544,-167.6 594,-149.6 594,-149.6 594,-149.6 634.99,-125.98 674.4,-103.26"/>
<polygon fill="black" stroke="black" points="676.38,-106.16 683.3,-98.14 672.89,-100.1 676.38,-106.16"/>
<text text-anchor="middle" x="666.16" y="-137" font-family="Times New Roman,serif" font-size="14.00">name</text>
<text text-anchor="middle" x="666.16" y="-120.2" font-family="Times New Roman,serif" font-size="14.00">[1]</text>
</g>
<!-- ListCourseService427251605 -->
<g id="node7" class="node">
<title>ListCourseService427251605</title>
<polygon fill="#ffffff" stroke="transparent" points="827.5,-433.6 552.5,-433.6 552.5,-167.6 827.5,-167.6 827.5,-433.6"/>
<text text-anchor="start" x="558" y="-416" font-family="Times New Roman,serif" font-size="14.00">(C)ListCourseService</text>
<text text-anchor="start" x="558" y="-392" font-family="Times New Roman,serif" font-size="14.00">&#45; &#160;&#160;authz: AuthorizationService [1]</text>
<text text-anchor="start" x="558" y="-368" font-family="Times New Roman,serif" font-size="14.00">&#45; &#160;&#160;courseRepository: CourseRepository [1]</text>
<text text-anchor="start" x="558" y="-344" font-family="Times New Roman,serif" font-size="14.00">+ allClosedCourses(): Iterable&lt;Course&gt;</text>
<text text-anchor="start" x="558" y="-320" font-family="Times New Roman,serif" font-size="14.00">+ allCourses(): Iterable&lt;Course&gt;</text>
<text text-anchor="start" x="557.76" y="-296" font-family="Times New Roman,serif" font-size="14.00">+ allCoursesOpenOrEnroll(): Iterable&lt;Course&gt;</text>
<text text-anchor="start" x="558" y="-272" font-family="Times New Roman,serif" font-size="14.00">+ allEnrollCourses(): Iterable&lt;Course&gt;</text>
<text text-anchor="start" x="558" y="-248" font-family="Times New Roman,serif" font-size="14.00">+ allNotClosedCourses(): Iterable&lt;Course&gt;</text>
<text text-anchor="start" x="558" y="-224" font-family="Times New Roman,serif" font-size="14.00">+ allNotEnrollCourses(): Iterable&lt;Course&gt;</text>
<text text-anchor="start" x="558" y="-200" font-family="Times New Roman,serif" font-size="14.00">+ allOpenCourses(): Iterable&lt;Course&gt;</text>
<text text-anchor="start" x="558" y="-176" font-family="Times New Roman,serif" font-size="14.00">+ allProgressCourses(): Iterable&lt;Course&gt;</text>
<polygon fill="black" stroke="black" points="553,-408.6 553,-408.6 828,-408.6 828,-408.6 553,-408.6"/>
<polygon fill="black" stroke="black" points="553,-360.6 553,-360.6 828,-360.6 828,-360.6 553,-360.6"/>
<polygon fill="none" stroke="black" points="552.5,-167.6 552.5,-433.6 827.5,-433.6 827.5,-167.6 552.5,-167.6"/>
</g>
<!-- OpenCloseCourseController427251605&#45;&gt;JpaCourseRepository1852613913 -->
<g id="edge5" class="edge">
<title>OpenCloseCourseController427251605&#45;&gt;JpaCourseRepository1852613913</title>
<path fill="none" stroke="black" d="M707.86,-503.16C774.32,-468.18 840,-433.6 840,-433.6 840,-433.6 906.54,-387.37 960.87,-349.63"/>
</g>
<!-- OpenCloseCourseController427251605&#45;&gt;Course1854509879 -->
<g id="edge4" class="edge">
<title>OpenCloseCourseController427251605&#45;&gt;Course1854509879</title>
<path fill="none" stroke="black" d="M434.78,-503.2C414.77,-492.62 400.74,-485.2 400.74,-485.2 400.74,-485.2 400.74,-451.6 400.74,-451.6 400.74,-451.6 400.99,-448.76 401.42,-443.86"/>
<polygon fill="black" stroke="black" points="404.92,-444.07 402.31,-433.8 397.95,-443.46 404.92,-444.07"/>
<text text-anchor="middle" x="536.13" y="-464.2" font-family="Times New Roman,serif" font-size="14.00">toggleOpenCloseCourse() &#45;&gt; toggleOpenClose()</text>
</g>
<!-- OpenCloseCourseController427251605&#45;&gt;ListCourseService427251605 -->
<g id="edge6" class="edge">
<title>OpenCloseCourseController427251605&#45;&gt;ListCourseService427251605</title>
<path fill="none" stroke="black" d="M655.8,-503.2C668.26,-492.62 677,-485.2 677,-485.2 677,-485.2 678.21,-468.06 679.9,-444.25"/>
<polygon fill="black" stroke="black" points="683.41,-444.28 680.62,-434.06 676.42,-443.78 683.41,-444.28"/>
<text text-anchor="middle" x="698.82" y="-472.6" font-family="Times New Roman,serif" font-size="14.00">service</text>
<text text-anchor="middle" x="698.82" y="-455.8" font-family="Times New Roman,serif" font-size="14.00">[1]</text>
</g>
</g>
</svg>
