<?xml version="1.0" encoding="us-ascii" standalone="no"?><svg xmlns="http://www.w3.org/2000/svg" xmlns:xlink="http://www.w3.org/1999/xlink" contentStyleType="text/css" height="481.8px" preserveAspectRatio="none" style="width:577px;height:481px;background:#FFFFFF;" version="1.1" viewBox="0 0 577 481" width="577.8px" zoomAndPan="magnify"><defs/><g><!--cluster User Aggregate--><g id="cluster_User Aggregate"><rect fill="none" height="117.6" rx="1.5" ry="1.5" style="stroke:#000000;stroke-width:0.8999999999999999;" width="205.5" x="368.7" y="206.4"/><text fill="#000000" font-family="sans-serif" font-size="8.4" font-weight="bold" lengthAdjust="spacing" textLength="66" x="438.45" y="215.7211">User Aggregate</text></g><!--cluster Teacher Aggregate--><g id="cluster_Teacher Aggregate"><rect fill="none" height="118.8" rx="1.5" ry="1.5" style="stroke:#000000;stroke-width:0.8999999999999999;" width="185.1" x="270" y="73.2"/><text fill="#000000" font-family="sans-serif" font-size="8.4" font-weight="bold" lengthAdjust="spacing" textLength="80.4" x="322.35" y="82.5211">Teacher Aggregate</text></g><!--cluster Student Aggregate--><g id="cluster_Student Aggregate"><rect fill="none" height="125.4" rx="1.5" ry="1.5" style="stroke:#000000;stroke-width:0.8999999999999999;" width="217.8" x="270.6" y="338.4"/><text fill="#000000" font-family="sans-serif" font-size="8.4" font-weight="bold" lengthAdjust="spacing" textLength="79.8" x="339.6" y="347.7211">Student Aggregate</text></g><!--cluster Manager Aggregate--><g id="cluster_Manager Aggregate"><rect fill="none" height="54.6" rx="1.5" ry="1.5" style="stroke:#000000;stroke-width:0.8999999999999999;" width="92.4" x="377.4" y="4.2"/><text fill="#000000" font-family="sans-serif" font-size="8.4" font-weight="bold" lengthAdjust="spacing" textLength="83.4" x="381.9" y="13.5211">Manager Aggregate</text></g><!--cluster Board Aggregate--><g id="cluster_Board Aggregate"><rect fill="none" height="182.4" rx="1.5" ry="1.5" style="stroke:#181818;stroke-width:0.6;" width="246" x="4.2" y="295.8"/><text fill="#000000" font-family="sans-serif" font-size="8.4" font-weight="bold" lengthAdjust="spacing" textLength="71.4" x="91.5" y="305.1211">Board Aggregate</text></g><!--class User--><g id="elem_User"><rect codeLine="13" fill="#F1F1F1" height="29.1727" id="User" rx="1.5" ry="1.5" style="stroke:#181818;stroke-width:0.3;" width="39.6" x="403.8" y="227.214"/><rect fill="#444444" height="24.3727" rx="1.5" ry="1.5" style="stroke:#444444;stroke-width:0.3;" width="39.6" x="403.8" y="227.214"/><rect fill="#444444" height="1.5" style="stroke:#444444;stroke-width:0.3;" width="39.6" x="403.8" y="250.0867"/><rect codeLine="13" fill="none" height="29.1727" id="User" rx="1.5" ry="1.5" style="stroke:#181818;stroke-width:0.3;" width="39.6" x="403.8" y="227.214"/><ellipse cx="412.8" cy="239.4003" fill="#ADD1B2" rx="6.6" ry="6.6" style="stroke:#181818;stroke-width:0.6;"/><path d="M415.2686,243.0003 L410.6367,243.0003 L410.6367,235.5645 L415.2686,235.5645 L415.2686,236.8594 L412.106,236.8594 L412.106,238.4631 L414.9697,238.4631 L414.9697,239.758 L412.106,239.758 L412.106,241.7054 L415.2686,241.7054 Z " fill="#000000"/><text fill="#000000" font-family="sans-serif" font-size="7.2" font-style="italic" lengthAdjust="spacing" textLength="22.8" x="420" y="237.1749">&#171;Root&#187;</text><text fill="#FFFFFF" font-family="sans-serif" font-size="8.4" lengthAdjust="spacing" textLength="18.6" x="422.1" y="246.8148">User</text><line style="stroke:#181818;stroke-width:0.3;" x1="404.4" x2="442.8" y1="251.5867" y2="251.5867"/></g><g id="elem_email"><rect fill="#F1F1F1" height="30.3727" style="stroke:#181818;stroke-width:0.3;" width="38.4" x="521.4" y="271.614"/><text fill="#000000" font-family="sans-serif" font-size="7.2" font-style="italic" lengthAdjust="spacing" textLength="32.4" x="524.4" y="278.5749">&#171;Identity&#187;</text><text fill="#000000" font-family="sans-serif" font-size="8.4" lengthAdjust="spacing" textLength="22.2" x="529.5" y="289.4148">email</text><line style="stroke:#181818;stroke-width:0.3;" x1="522" x2="559.2" y1="292.3867" y2="292.3867"/></g><g id="elem_personaInformation"><rect fill="#F1F1F1" height="36.8789" style="stroke:#181818;stroke-width:0.3;" width="90.6" x="378.3" y="277.362"/><text fill="#000000" font-family="sans-serif" font-size="8.4" lengthAdjust="spacing" textLength="82.2" x="382.5" y="286.6831">personaInformation</text><line style="stroke:#181818;stroke-width:0.3;" x1="378.9" x2="468.3" y1="289.655" y2="289.655"/><text fill="#000000" font-family="sans-serif" font-size="8.4" lengthAdjust="spacing" textLength="37.8" x="381.9" y="300.1761">birthdate</text><text fill="#000000" font-family="sans-serif" font-size="8.4" lengthAdjust="spacing" textLength="46.2" x="381.9" y="310.069">taxNumber</text></g><g id="elem_password"><rect fill="#F1F1F1" height="21.893" style="stroke:#181818;stroke-width:0.3;" width="48" x="516.6" y="228.456"/><text fill="#000000" font-family="sans-serif" font-size="8.4" lengthAdjust="spacing" textLength="39.6" x="520.8" y="237.7771">password</text><line style="stroke:#181818;stroke-width:0.3;" x1="517.2" x2="564" y1="240.749" y2="240.749"/></g><!--class designationTeacher--><g id="elem_designationTeacher"><rect codeLine="31" fill="#F1F1F1" height="43.7859" id="designationTeacher" rx="1.5" ry="1.5" style="stroke:#181818;stroke-width:0.3;" width="46.8" x="282.3" y="138.906"/><rect fill="#444444" height="19.2" rx="1.5" ry="1.5" style="stroke:#444444;stroke-width:0.3;" width="46.8" x="282.3" y="138.906"/><rect fill="#444444" height="1.5" style="stroke:#444444;stroke-width:0.3;" width="46.8" x="282.3" y="156.606"/><rect codeLine="31" fill="none" height="43.7859" id="designationTeacher" rx="1.5" ry="1.5" style="stroke:#181818;stroke-width:0.3;" width="46.8" x="282.3" y="138.906"/><ellipse cx="293.46" cy="148.506" fill="#ADD1B2" rx="6.6" ry="6.6" style="stroke:#181818;stroke-width:0.6;"/><path d="M295.9286,152.106 L291.2967,152.106 L291.2967,144.6702 L295.9286,144.6702 L295.9286,145.9651 L292.766,145.9651 L292.766,147.5688 L295.6297,147.5688 L295.6297,148.8637 L292.766,148.8637 L292.766,150.8111 L295.9286,150.8111 Z " fill="#000000"/><text fill="#FFFFFF" font-family="sans-serif" font-size="8.4" lengthAdjust="spacing" textLength="22.8" x="302.34" y="151.6806">name</text><line style="stroke:#181818;stroke-width:0.3;" x1="282.9" x2="328.5" y1="158.106" y2="158.106"/><text fill="#000000" font-family="sans-serif" font-size="8.4" lengthAdjust="spacing" textLength="39.6" x="285.9" y="168.6271">firstName</text><text fill="#000000" font-family="sans-serif" font-size="8.4" lengthAdjust="spacing" textLength="37.8" x="285.9" y="178.5201">lastName</text></g><!--class Teacher--><g id="elem_Teacher"><rect codeLine="36" fill="#F1F1F1" height="24" id="Teacher" rx="1.5" ry="1.5" style="stroke:#181818;stroke-width:0.3;" width="52.2" x="279.6" y="94.2"/><rect fill="#444444" height="19.2" rx="1.5" ry="1.5" style="stroke:#444444;stroke-width:0.3;" width="52.2" x="279.6" y="94.2"/><rect fill="#444444" height="1.5" style="stroke:#444444;stroke-width:0.3;" width="52.2" x="279.6" y="111.9"/><rect codeLine="36" fill="none" height="24" id="Teacher" rx="1.5" ry="1.5" style="stroke:#181818;stroke-width:0.3;" width="52.2" x="279.6" y="94.2"/><ellipse cx="288.6" cy="103.8" fill="#ADD1B2" rx="6.6" ry="6.6" style="stroke:#181818;stroke-width:0.6;"/><path d="M291.0686,107.4 L286.4367,107.4 L286.4367,99.9642 L291.0686,99.9642 L291.0686,101.2591 L287.906,101.2591 L287.906,102.8628 L290.7697,102.8628 L290.7697,104.1577 L287.906,104.1577 L287.906,106.1051 L291.0686,106.1051 Z " fill="#000000"/><text fill="#FFFFFF" font-family="sans-serif" font-size="8.4" lengthAdjust="spacing" textLength="33" x="297" y="106.9746">Teacher</text><line style="stroke:#181818;stroke-width:0.3;" x1="280.2" x2="331.2" y1="113.4" y2="113.4"/></g><g id="elem_acronym"><rect fill="#F1F1F1" height="30.3727" style="stroke:#181818;stroke-width:0.3;" width="43.8" x="401.7" y="94.014"/><text fill="#000000" font-family="sans-serif" font-size="7.2" font-style="italic" lengthAdjust="spacing" textLength="32.4" x="407.4" y="100.9749">&#171;Identity&#187;</text><text fill="#000000" font-family="sans-serif" font-size="8.4" lengthAdjust="spacing" textLength="35.4" x="405.9" y="111.8148">acronym</text><line style="stroke:#181818;stroke-width:0.3;" x1="402.3" x2="444.9" y1="114.7867" y2="114.7867"/></g><!--class designationStudent--><g id="elem_designationStudent"><rect codeLine="47" fill="#F1F1F1" height="43.7859" id="designationStudent" rx="1.5" ry="1.5" style="stroke:#181818;stroke-width:0.3;" width="46.8" x="400.2" y="359.106"/><rect fill="#444444" height="19.2" rx="1.5" ry="1.5" style="stroke:#444444;stroke-width:0.3;" width="46.8" x="400.2" y="359.106"/><rect fill="#444444" height="1.5" style="stroke:#444444;stroke-width:0.3;" width="46.8" x="400.2" y="376.806"/><rect codeLine="47" fill="none" height="43.7859" id="designationStudent" rx="1.5" ry="1.5" style="stroke:#181818;stroke-width:0.3;" width="46.8" x="400.2" y="359.106"/><ellipse cx="411.36" cy="368.706" fill="#ADD1B2" rx="6.6" ry="6.6" style="stroke:#181818;stroke-width:0.6;"/><path d="M413.8286,372.306 L409.1967,372.306 L409.1967,364.8702 L413.8286,364.8702 L413.8286,366.1651 L410.666,366.1651 L410.666,367.7688 L413.5297,367.7688 L413.5297,369.0637 L410.666,369.0637 L410.666,371.0111 L413.8286,371.0111 Z " fill="#000000"/><text fill="#FFFFFF" font-family="sans-serif" font-size="8.4" lengthAdjust="spacing" textLength="22.8" x="420.24" y="371.8806">name</text><line style="stroke:#181818;stroke-width:0.3;" x1="400.8" x2="446.4" y1="378.306" y2="378.306"/><text fill="#000000" font-family="sans-serif" font-size="8.4" lengthAdjust="spacing" textLength="39.6" x="403.8" y="388.8271">firstName</text><text fill="#000000" font-family="sans-serif" font-size="8.4" lengthAdjust="spacing" textLength="37.8" x="403.8" y="398.7201">lastName</text></g><!--class Student--><g id="elem_Student"><rect codeLine="52" fill="#F1F1F1" height="24" id="Student" rx="1.5" ry="1.5" style="stroke:#181818;stroke-width:0.3;" width="51" x="280.2" y="361.8"/><rect fill="#444444" height="19.2" rx="1.5" ry="1.5" style="stroke:#444444;stroke-width:0.3;" width="51" x="280.2" y="361.8"/><rect fill="#444444" height="1.5" style="stroke:#444444;stroke-width:0.3;" width="51" x="280.2" y="379.5"/><rect codeLine="52" fill="none" height="24" id="Student" rx="1.5" ry="1.5" style="stroke:#181818;stroke-width:0.3;" width="51" x="280.2" y="361.8"/><ellipse cx="289.2" cy="371.4" fill="#ADD1B2" rx="6.6" ry="6.6" style="stroke:#181818;stroke-width:0.6;"/><path d="M291.6686,375 L287.0367,375 L287.0367,367.5642 L291.6686,367.5642 L291.6686,368.8591 L288.506,368.8591 L288.506,370.4628 L291.3697,370.4628 L291.3697,371.7577 L288.506,371.7577 L288.506,373.7051 L291.6686,373.7051 Z " fill="#000000"/><text fill="#FFFFFF" font-family="sans-serif" font-size="8.4" lengthAdjust="spacing" textLength="31.8" x="297.6" y="374.5746">Student</text><line style="stroke:#181818;stroke-width:0.3;" x1="280.8" x2="330.6" y1="381" y2="381"/></g><g id="elem_mechanographicNumber"><rect fill="#F1F1F1" height="30.3727" style="stroke:#181818;stroke-width:0.3;" width="110.4" x="368.4" y="424.014"/><text fill="#000000" font-family="sans-serif" font-size="7.2" font-style="italic" lengthAdjust="spacing" textLength="32.4" x="407.4" y="430.9749">&#171;Identity&#187;</text><text fill="#000000" font-family="sans-serif" font-size="8.4" lengthAdjust="spacing" textLength="102" x="372.6" y="441.8148">mechanographicNumber</text><line style="stroke:#181818;stroke-width:0.3;" x1="369" x2="478.2" y1="444.7867" y2="444.7867"/></g><!--class Manager--><g id="elem_Manager"><rect codeLine="60" fill="#F1F1F1" height="24" id="Manager" rx="1.5" ry="1.5" style="stroke:#181818;stroke-width:0.3;" width="55.2" x="396" y="25.2"/><rect fill="#444444" height="19.2" rx="1.5" ry="1.5" style="stroke:#444444;stroke-width:0.3;" width="55.2" x="396" y="25.2"/><rect fill="#444444" height="1.5" style="stroke:#444444;stroke-width:0.3;" width="55.2" x="396" y="42.9"/><rect codeLine="60" fill="none" height="24" id="Manager" rx="1.5" ry="1.5" style="stroke:#181818;stroke-width:0.3;" width="55.2" x="396" y="25.2"/><ellipse cx="405" cy="34.8" fill="#ADD1B2" rx="6.6" ry="6.6" style="stroke:#181818;stroke-width:0.6;"/><path d="M407.4686,38.4 L402.8367,38.4 L402.8367,30.9642 L407.4686,30.9642 L407.4686,32.2591 L404.306,32.2591 L404.306,33.8628 L407.1697,33.8628 L407.1697,35.1577 L404.306,35.1577 L404.306,37.1051 L407.4686,37.1051 Z " fill="#000000"/><text fill="#FFFFFF" font-family="sans-serif" font-size="8.4" lengthAdjust="spacing" textLength="36" x="413.4" y="37.9746">Manager</text><line style="stroke:#181818;stroke-width:0.3;" x1="396.6" x2="450.6" y1="44.4" y2="44.4"/></g><!--class Board--><g id="elem_Board"><rect codeLine="66" fill="#F1F1F1" height="29.1727" id="Board" rx="1.5" ry="1.5" style="stroke:#181818;stroke-width:0.3;" width="43.2" x="17.4" y="316.614"/><rect fill="#444444" height="24.3727" rx="1.5" ry="1.5" style="stroke:#444444;stroke-width:0.3;" width="43.2" x="17.4" y="316.614"/><rect fill="#444444" height="1.5" style="stroke:#444444;stroke-width:0.3;" width="43.2" x="17.4" y="339.4867"/><rect codeLine="66" fill="none" height="29.1727" id="Board" rx="1.5" ry="1.5" style="stroke:#181818;stroke-width:0.3;" width="43.2" x="17.4" y="316.614"/><ellipse cx="26.4" cy="328.8003" fill="#ADD1B2" rx="6.6" ry="6.6" style="stroke:#181818;stroke-width:0.6;"/><path d="M28.8686,332.4003 L24.2367,332.4003 L24.2367,324.9645 L28.8686,324.9645 L28.8686,326.2594 L25.706,326.2594 L25.706,327.8631 L28.5697,327.8631 L28.5697,329.158 L25.706,329.158 L25.706,331.1054 L28.8686,331.1054 Z " fill="#000000"/><text fill="#000000" font-family="sans-serif" font-size="7.2" font-style="italic" lengthAdjust="spacing" textLength="22.8" x="35.4" y="326.5749">&#171;Root&#187;</text><text fill="#FFFFFF" font-family="sans-serif" font-size="8.4" lengthAdjust="spacing" textLength="24" x="34.8" y="336.2148">Board</text><line style="stroke:#181818;stroke-width:0.3;" x1="18" x2="60" y1="340.9867" y2="340.9867"/></g><!--class Post--><g id="elem_Post"><rect codeLine="70" fill="#F1F1F1" height="33.893" id="Post" rx="1.5" ry="1.5" style="stroke:#181818;stroke-width:0.3;" width="50.4" x="13.8" y="418.656"/><rect fill="#444444" height="19.2" rx="1.5" ry="1.5" style="stroke:#444444;stroke-width:0.3;" width="50.4" x="13.8" y="418.656"/><rect fill="#444444" height="1.5" style="stroke:#444444;stroke-width:0.3;" width="50.4" x="13.8" y="436.356"/><rect codeLine="70" fill="none" height="33.893" id="Post" rx="1.5" ry="1.5" style="stroke:#181818;stroke-width:0.3;" width="50.4" x="13.8" y="418.656"/><ellipse cx="29.01" cy="428.256" fill="#ADD1B2" rx="6.6" ry="6.6" style="stroke:#181818;stroke-width:0.6;"/><path d="M31.4786,431.856 L26.8467,431.856 L26.8467,424.4202 L31.4786,424.4202 L31.4786,425.7151 L28.316,425.7151 L28.316,427.3188 L31.1797,427.3188 L31.1797,428.6137 L28.316,428.6137 L28.316,430.5611 L31.4786,430.5611 Z " fill="#000000"/><text fill="#FFFFFF" font-family="sans-serif" font-size="8.4" lengthAdjust="spacing" textLength="17.4" x="38.79" y="431.4306">Post</text><line style="stroke:#181818;stroke-width:0.3;" x1="14.4" x2="63.6" y1="437.856" y2="437.856"/><text fill="#000000" font-family="sans-serif" font-size="8.4" lengthAdjust="spacing" textLength="43.2" x="17.4" y="448.3771">timestamp</text></g><g id="elem_Content"><rect fill="#F1F1F1" height="21.893" style="stroke:#181818;stroke-width:0.3;" width="41.4" x="119.1" y="446.856"/><text fill="#000000" font-family="sans-serif" font-size="8.4" lengthAdjust="spacing" textLength="33" x="123.3" y="456.1771">Content</text><line style="stroke:#181818;stroke-width:0.3;" x1="119.7" x2="159.9" y1="459.149" y2="459.149"/></g><!--class Cell--><g id="elem_Cell"><rect codeLine="78" fill="#F1F1F1" height="24" id="Cell" rx="1.5" ry="1.5" style="stroke:#181818;stroke-width:0.3;" width="34.8" x="122.4" y="402"/><rect fill="#444444" height="19.2" rx="1.5" ry="1.5" style="stroke:#444444;stroke-width:0.3;" width="34.8" x="122.4" y="402"/><rect fill="#444444" height="1.5" style="stroke:#444444;stroke-width:0.3;" width="34.8" x="122.4" y="419.7"/><rect codeLine="78" fill="none" height="24" id="Cell" rx="1.5" ry="1.5" style="stroke:#181818;stroke-width:0.3;" width="34.8" x="122.4" y="402"/><ellipse cx="131.4" cy="411.6" fill="#ADD1B2" rx="6.6" ry="6.6" style="stroke:#181818;stroke-width:0.6;"/><path d="M133.8686,415.2 L129.2367,415.2 L129.2367,407.7642 L133.8686,407.7642 L133.8686,409.0591 L130.706,409.0591 L130.706,410.6628 L133.5697,410.6628 L133.5697,411.9577 L130.706,411.9577 L130.706,413.9051 L133.8686,413.9051 Z " fill="#000000"/><text fill="#FFFFFF" font-family="sans-serif" font-size="8.4" lengthAdjust="spacing" textLength="15.6" x="139.8" y="414.7746">Cell</text><line style="stroke:#181818;stroke-width:0.3;" x1="123" x2="156.6" y1="421.2" y2="421.2"/></g><g id="elem_BoardID"><rect fill="#F1F1F1" height="21.893" style="stroke:#181818;stroke-width:0.3;" width="40.8" x="119.4" y="359.256"/><text fill="#000000" font-family="sans-serif" font-size="8.4" lengthAdjust="spacing" textLength="32.4" x="123.6" y="368.5771">BoardID</text><line style="stroke:#181818;stroke-width:0.3;" x1="120" x2="159.6" y1="371.549" y2="371.549"/></g><g id="elem_BoardTitle"><rect fill="#F1F1F1" height="30.3727" style="stroke:#181818;stroke-width:0.3;" width="50.4" x="13.8" y="367.014"/><text fill="#000000" font-family="sans-serif" font-size="7.2" font-style="italic" lengthAdjust="spacing" textLength="32.4" x="22.8" y="373.9749">&#171;Identity&#187;</text><text fill="#000000" font-family="sans-serif" font-size="8.4" lengthAdjust="spacing" textLength="42" x="18" y="384.8148">BoardTitle</text><line style="stroke:#181818;stroke-width:0.3;" x1="14.4" x2="63.6" y1="387.7867" y2="387.7867"/></g><g id="elem_CellTitle"><rect fill="#F1F1F1" height="30.3727" style="stroke:#181818;stroke-width:0.3;" width="42" x="198.6" y="398.814"/><text fill="#000000" font-family="sans-serif" font-size="7.2" font-style="italic" lengthAdjust="spacing" textLength="32.4" x="203.4" y="405.7749">&#171;Identity&#187;</text><text fill="#000000" font-family="sans-serif" font-size="8.4" lengthAdjust="spacing" textLength="33.6" x="202.8" y="416.6148">CellTitle</text><line style="stroke:#181818;stroke-width:0.3;" x1="199.2" x2="240" y1="419.5867" y2="419.5867"/></g><g id="elem_Changes"><rect fill="#F1F1F1" height="21.893" style="stroke:#181818;stroke-width:0.3;" width="44.4" x="117.6" y="316.656"/><text fill="#000000" font-family="sans-serif" font-size="8.4" lengthAdjust="spacing" textLength="36" x="121.8" y="325.9771">Changes</text><line style="stroke:#181818;stroke-width:0.3;" x1="118.2" x2="161.4" y1="328.949" y2="328.949"/></g><!--reverse link designationTeacher to Teacher--><g id="link_designationTeacher_Teacher"><path codeLine="42" d="M305.7,135.138 C305.7,129.546 305.7,123.948 305.7,118.356 " fill="none" id="designationTeacher-backto-Teacher" style="stroke:#181818;stroke-width:0.6;"/><polygon fill="#181818" points="305.7,138.018,308.1,132.618,305.7,135.018,303.3,132.618,305.7,138.018" style="stroke:#181818;stroke-width:0.6;"/><text fill="#000000" font-family="sans-serif" font-size="7.8" lengthAdjust="spacing" textLength="4.8" x="300.4725" y="132.4231">1</text><text fill="#000000" font-family="sans-serif" font-size="7.8" lengthAdjust="spacing" textLength="4.8" x="300.225" y="130.6077">1</text></g><!--reverse link User to Teacher--><g id="link_User_Teacher"><path codeLine="98" d="M400.662,227.088 C388.47,218.136 373.878,205.788 363.9,192 C354.468,178.962 357.666,172.758 350.4,158.4 C343.314,144.402 341.964,140.352 331.8,128.4 C328.836,124.914 325.308,121.488 321.84,118.416 " fill="none" id="User-backto-Teacher" style="stroke:#181818;stroke-width:0.6;"/><polygon fill="#181818" points="402.948,229.176,399.9742,224.0695,400.5155,227.4202,397.1648,227.9615,402.948,229.176" style="stroke:#181818;stroke-width:0.6;"/><text fill="#000000" font-family="sans-serif" font-size="7.8" lengthAdjust="spacing" textLength="4.8" x="394.1173" y="224.2043">1</text><text fill="#000000" font-family="sans-serif" font-size="7.8" lengthAdjust="spacing" textLength="4.8" x="320.7326" y="130.4745">1</text></g><!--link Student to User--><g id="link_Student_User"><path codeLine="99" d="M314.412,361.704 C323.766,347.466 339.288,322.908 350.4,300.6 C357.576,286.194 352.638,278.496 363.9,267 C373.746,256.95 388.236,250.68 400.404,246.912 " fill="none" id="Student-to-User" style="stroke:#181818;stroke-width:0.6;"/><polygon fill="#181818" points="403.17,245.916,397.3119,245.1401,400.2923,246.7639,398.6685,249.7444,403.17,245.916" style="stroke:#181818;stroke-width:0.6;"/><text fill="#000000" font-family="sans-serif" font-size="7.8" lengthAdjust="spacing" textLength="4.8" x="311.4661" y="355.3973">1</text><text fill="#000000" font-family="sans-serif" font-size="7.8" lengthAdjust="spacing" textLength="4.8" x="394.1072" y="255.3621">1</text></g><!--reverse link User to Manager--><g id="link_User_Manager"><path codeLine="100" d="M400.452,230.706 C382.416,220.656 358.686,203.97 347.85,181.5 C331.176,146.91 330.834,129.522 347.85,95.1 C358.08,74.4 379.656,59.064 397.17,49.398 " fill="none" id="User-backto-Manager" style="stroke:#181818;stroke-width:0.6;"/><polygon fill="#181818" points="402.918,232.386,399.333,227.6883,400.2863,230.9458,397.0288,231.8991,402.918,232.386" style="stroke:#181818;stroke-width:0.6;"/><text fill="#000000" font-family="sans-serif" font-size="7.8" lengthAdjust="spacing" textLength="4.8" x="394.0811" y="238.9327">1</text><text fill="#000000" font-family="sans-serif" font-size="7.8" lengthAdjust="spacing" textLength="4.8" x="386.4238" y="60.4022">1</text></g><!--link User to password--><g id="link_User_password"><path codeLine="101" d="M443.58,241.398 C462.588,241.002 491.73,240.402 513,239.958 " fill="none" id="User-to-password" style="stroke:#181818;stroke-width:0.6;"/><polygon fill="#181818" points="515.748,239.892,510.3011,237.6005,512.7486,239.952,510.3971,242.3995,515.748,239.892" style="stroke:#181818;stroke-width:0.6;"/><text fill="#000000" font-family="sans-serif" font-size="7.8" lengthAdjust="spacing" textLength="4.8" x="448.1959" y="238.9471">1</text><text fill="#000000" font-family="sans-serif" font-size="7.8" lengthAdjust="spacing" textLength="4.8" x="506.9672" y="248.3066">1</text></g><!--link Teacher to acronym--><g id="link_Teacher_acronym"><path codeLine="102" d="M331.908,106.86 C351.552,107.364 378.516,108.054 398.004,108.558 " fill="none" id="Teacher-to-acronym" style="stroke:#181818;stroke-width:0.6;"/><polygon fill="#181818" points="400.956,108.648,395.6195,106.11,397.957,108.5709,395.4961,110.9084,400.956,108.648" style="stroke:#181818;stroke-width:0.6;"/><text fill="#000000" font-family="sans-serif" font-size="7.8" lengthAdjust="spacing" textLength="4.8" x="336.6462" y="115.2711">1</text><text fill="#000000" font-family="sans-serif" font-size="7.8" lengthAdjust="spacing" textLength="4.8" x="392.0964" y="116.9593">1</text></g><!--link Student to mechanographicNumber--><g id="link_Student_mechanographicNumber"><path codeLine="103" d="M322.158,385.92 C333.438,394.242 349.152,405.21 363.9,413.4 C369.486,416.502 375.516,419.502 381.516,422.292 " fill="none" id="Student-to-mechanographicNumber" style="stroke:#181818;stroke-width:0.6;"/><polygon fill="#181818" points="384.048,423.732,380.1419,419.2978,381.3216,422.4803,378.1391,423.66,384.048,423.732" style="stroke:#181818;stroke-width:0.6;"/><text fill="#000000" font-family="sans-serif" font-size="7.8" lengthAdjust="spacing" textLength="4.8" x="321.3118" y="398.1616">1</text><text fill="#000000" font-family="sans-serif" font-size="7.8" lengthAdjust="spacing" textLength="4.8" x="370.2854" y="417.6769">1</text></g><!--link User to email--><g id="link_User_email"><path codeLine="104" d="M443.628,248.604 C457.512,253.536 476.586,260.46 493.2,267 C501.318,270.198 510.144,273.876 517.926,277.194 " fill="none" id="User-to-email" style="stroke:#181818;stroke-width:0.6;"/><polygon fill="#181818" points="520.59,278.586,516.572,274.2529,517.8326,277.4042,514.6812,278.6648,520.59,278.586" style="stroke:#181818;stroke-width:0.6;"/><text fill="#000000" font-family="sans-serif" font-size="7.8" lengthAdjust="spacing" textLength="4.8" x="448.2538" y="258.4956">1</text><text fill="#000000" font-family="sans-serif" font-size="7.8" lengthAdjust="spacing" textLength="4.8" x="511.8917" y="285.3802">1</text></g><!--link Student to designationStudent--><g id="link_Student_designationStudent"><path codeLine="106" d="M331.338,375.342 C350.502,376.53 376.884,378.156 396.42,379.362 " fill="none" id="Student-to-designationStudent" style="stroke:#181818;stroke-width:0.6;"/><polygon fill="#181818" points="399.39,379.578,394.1439,376.858,396.3954,379.3978,393.8556,381.6493,399.39,379.578" style="stroke:#181818;stroke-width:0.6;"/><text fill="#000000" font-family="sans-serif" font-size="7.8" lengthAdjust="spacing" textLength="4.8" x="335.9818" y="383.8992">1</text><text fill="#000000" font-family="sans-serif" font-size="7.8" lengthAdjust="spacing" textLength="4.8" x="390.557" y="387.6841">1</text></g><!--link Teacher to personaInformation--><g id="link_Teacher_personaInformation"><path codeLine="107" d="M323.25,118.26 C326.49,121.254 329.562,124.674 331.8,128.4 C364.362,182.598 324.51,217.536 363.9,267 C367.08,270.99 370.944,274.464 375.168,277.482 " fill="none" id="Teacher-to-personaInformation" style="stroke:#181818;stroke-width:0.6;"/><polygon fill="#181818" points="377.544,279.498,374.422,274.4807,375.0611,277.8141,371.7278,278.4533,377.544,279.498" style="stroke:#181818;stroke-width:0.6;"/><text fill="#000000" font-family="sans-serif" font-size="7.8" lengthAdjust="spacing" textLength="4.8" x="328.8609" y="130.4847">1</text><text fill="#000000" font-family="sans-serif" font-size="7.8" lengthAdjust="spacing" textLength="4.8" x="368.6332" y="285.8863">1</text></g><!--link Student to personaInformation--><g id="link_Student_personaInformation"><path codeLine="108" d="M324.534,361.614 C342.63,349.518 370.71,330.75 392.262,316.344 " fill="none" id="Student-to-personaInformation" style="stroke:#181818;stroke-width:0.6;"/><polygon fill="#181818" points="394.524,314.436,388.6996,315.4345,392.0278,316.1001,391.3622,319.4283,394.524,314.436" style="stroke:#181818;stroke-width:0.6;"/><text fill="#000000" font-family="sans-serif" font-size="7.8" lengthAdjust="spacing" textLength="4.8" x="324.5615" y="355.2809">1</text><text fill="#000000" font-family="sans-serif" font-size="7.8" lengthAdjust="spacing" textLength="4.8" x="384.2453" y="326.55">1</text></g><!--reverse link Board to User--><g id="link_Board_User"><path codeLine="112" d="M47.652,313.296 C61.788,284.922 93.912,232.8 139.2,232.8 C139.2,232.8 139.2,232.8 306.3,232.8 C340.644,232.8 380.502,236.724 403.626,239.388 " fill="none" id="Board-backto-User" style="stroke:#181818;stroke-width:0.6;"/><polygon fill="#181818" points="46.098,315.87,50.6259,312.0728,47.4156,313.1748,46.3136,309.9646,46.098,315.87" style="stroke:#181818;stroke-width:0.6;"/><text fill="#000000" font-family="sans-serif" font-size="7.8" lengthAdjust="spacing" textLength="27" x="206.1" y="230.741">creates</text><text fill="#000000" font-family="sans-serif" font-size="7.8" lengthAdjust="spacing" textLength="3.6" x="43.8556" y="310.1071">*</text><text fill="#000000" font-family="sans-serif" font-size="7.8" lengthAdjust="spacing" textLength="4.8" x="394.2114" y="247.3788">1</text></g><!--link User to Post--><g id="link_User_Post"><path codeLine="113" d="M403.602,249.822 C373.092,262.32 316.32,285 306.3,285 C139.2,285 139.2,285 139.2,285 C110.814,285 99.282,291.132 82.2,313.8 C56.544,347.838 83.064,369.774 64.2,408 C62.916,410.604 61.314,413.154 59.55,415.584 " fill="none" id="User-to-Post" style="stroke:#181818;stroke-width:0.6;"/><polygon fill="#181818" points="57.414,417.774,62.5969,414.9354,59.2332,415.3885,58.7801,412.0248,57.414,417.774" style="stroke:#181818;stroke-width:0.6;"/><text fill="#000000" font-family="sans-serif" font-size="7.8" lengthAdjust="spacing" textLength="27" x="206.1" y="282.941">creates</text><text fill="#000000" font-family="sans-serif" font-size="7.8" lengthAdjust="spacing" textLength="4.8" x="394.1824" y="259.9648">1</text><text fill="#000000" font-family="sans-serif" font-size="7.8" lengthAdjust="spacing" textLength="3.6" x="57.4483" y="412.1823">*</text></g><!--link Post to Content--><g id="link_Post_Content"><path codeLine="114" d="M64.476,441.144 C80.064,444.618 100.044,449.07 115.416,452.502 " fill="none" id="Post-to-Content" style="stroke:#181818;stroke-width:0.6;"/><polygon fill="#181818" points="118.224,453.258,113.4732,449.7437,115.2954,452.6072,112.432,454.4294,118.224,453.258" style="stroke:#181818;stroke-width:0.6;"/><text fill="#000000" font-family="sans-serif" font-size="7.8" lengthAdjust="spacing" textLength="13.2" x="84.3" y="443.141">has</text><text fill="#000000" font-family="sans-serif" font-size="7.8" lengthAdjust="spacing" textLength="4.8" x="68.9187" y="450.3002">1</text><text fill="#000000" font-family="sans-serif" font-size="7.8" lengthAdjust="spacing" textLength="14.4" x="99.9335" y="460.8068">0..1</text></g><!--link Board to Cell--><g id="link_Board_Cell"><path codeLine="115" d="M55.794,345.96 C63.672,353.04 73.332,361.572 82.2,369 C94.764,379.518 109.266,390.96 120.498,399.672 " fill="none" id="Board-to-Cell" style="stroke:#181818;stroke-width:0.6;"/><polygon fill="#181818" points="122.676,401.826,119.87,396.6254,120.302,399.9919,116.9354,400.4239,122.676,401.826" style="stroke:#181818;stroke-width:0.6;"/><text fill="#000000" font-family="sans-serif" font-size="7.8" lengthAdjust="spacing" textLength="13.2" x="84.3" y="366.941">has</text><text fill="#000000" font-family="sans-serif" font-size="7.8" lengthAdjust="spacing" textLength="4.8" x="54.5025" y="358.2183">1</text><text fill="#000000" font-family="sans-serif" font-size="7.8" lengthAdjust="spacing" textLength="13.2" x="104.4395" y="396.3254">1..*</text></g><!--link Board to BoardID--><g id="link_Board_BoardID"><path codeLine="116" d="M60.72,339.468 C76.89,345.804 99.174,354.528 115.866,361.062 " fill="none" id="Board-to-BoardID" style="stroke:#181818;stroke-width:0.6;"/><polygon fill="#181818" points="118.524,362.34,114.3747,358.1325,115.7315,361.2436,112.6204,362.6004,118.524,362.34" style="stroke:#181818;stroke-width:0.6;"/><text fill="#000000" font-family="sans-serif" font-size="7.8" lengthAdjust="spacing" textLength="4.8" x="65.4686" y="349.541">1</text><text fill="#000000" font-family="sans-serif" font-size="7.8" lengthAdjust="spacing" textLength="4.8" x="109.7809" y="369.2374">1</text></g><!--reverse link BoardTitle to Board--><g id="link_BoardTitle_Board"><path codeLine="117" d="M39,363.27 C39,357.504 39,351.732 39,345.966 " fill="none" id="BoardTitle-backto-Board" style="stroke:#181818;stroke-width:0.6;"/><polygon fill="#181818" points="39,366.258,41.4,360.858,39,363.258,36.6,360.858,39,366.258" style="stroke:#181818;stroke-width:0.6;"/><text fill="#000000" font-family="sans-serif" font-size="7.8" lengthAdjust="spacing" textLength="4.8" x="33.615" y="360.5852">1</text><text fill="#000000" font-family="sans-serif" font-size="7.8" lengthAdjust="spacing" textLength="4.8" x="33.615" y="358.2257">1</text></g><!--link Post to Cell--><g id="link_Post_Cell"><path codeLine="118" d="M64.476,430.206 C81.192,426.582 102.948,421.86 118.674,418.452 " fill="none" id="Post-to-Cell" style="stroke:#181818;stroke-width:0.6;"/><polygon fill="#181818" points="121.53,417.702,115.7412,416.5144,118.5996,418.3446,116.7694,421.203,121.53,417.702" style="stroke:#181818;stroke-width:0.6;"/><text fill="#000000" font-family="sans-serif" font-size="7.8" lengthAdjust="spacing" textLength="16.2" x="82.8" y="420.341">is in</text><text fill="#000000" font-family="sans-serif" font-size="7.8" lengthAdjust="spacing" textLength="4.8" x="68.9187" y="437.619">1</text><text fill="#000000" font-family="sans-serif" font-size="7.8" lengthAdjust="spacing" textLength="3.6" x="114.0276" y="427.1613">*</text></g><!--link Cell to CellTitle--><g id="link_Cell_CellTitle"><path codeLine="119" d="M157.458,414 C168.384,414 182.742,414 194.838,414 " fill="none" id="Cell-to-CellTitle" style="stroke:#181818;stroke-width:0.6;"/><polygon fill="#181818" points="197.748,414,192.348,411.6,194.748,414,192.348,416.4,197.748,414" style="stroke:#181818;stroke-width:0.6;"/><text fill="#000000" font-family="sans-serif" font-size="7.8" lengthAdjust="spacing" textLength="4.8" x="162.0964" y="422.6032">1</text><text fill="#000000" font-family="sans-serif" font-size="7.8" lengthAdjust="spacing" textLength="4.8" x="189.0393" y="422.4165">1</text></g><!--link Board to Changes--><g id="link_Board_Changes"><path codeLine="120" d="M60.72,330.438 C76.29,329.874 97.53,329.106 113.982,328.512 " fill="none" id="Board-to-Changes" style="stroke:#181818;stroke-width:0.6;"/><polygon fill="#181818" points="116.82,328.386,111.3346,326.1881,113.8221,328.4974,111.5128,330.9848,116.82,328.386" style="stroke:#181818;stroke-width:0.6;"/><text fill="#000000" font-family="sans-serif" font-size="7.8" lengthAdjust="spacing" textLength="13.2" x="84.3" y="326.741">has</text><text fill="#000000" font-family="sans-serif" font-size="7.8" lengthAdjust="spacing" textLength="4.8" x="65.4686" y="338.7332">1</text><text fill="#000000" font-family="sans-serif" font-size="7.8" lengthAdjust="spacing" textLength="3.6" x="109.2107" y="336.9519">*</text></g><!--SRC=[dLHTRzCm57tFhx320n9IkY7nD5MJjWAY3mn4nmzmazl4BB4h-qPGflvt_9awgREXHeeI-vvxxeVFTSCg81rW8ogLjR13We98LZT8AYQXH2PuffuOtrD9ErAsLAaxHCcsFSAw57p3_WAvda8-2uuhqGf9Q8-YeyZAAUGBq0haFIsVQYbwNZducmyHRg-Dj8OD7beW9XdAwnQoB7jxTLKKPo_vgK2IbCM-MURvI6w1TtKjeQO8-NEM4VryuiZmu5YMonz2uEqjURQceqDys_xIMH3eA6irP5s1TPc1xK4gmUcQxuGqBH3SmyopPHARIaSVTf3-UUYxBSWKbMxORo6h8SmngkOHQDcC2YBZYYfGhEOsWu2bYkISTgPs0zmngV11h-rA7yzfSHnH1VzKlRIKWX-wKMD6kE2Slyz9qHQtzkSykL5n6-mDsUnfHUu1UcbjmJzLMmTbGxce9Tqth7Jdb2mqplqhvVexLbeKBvWZrnbXtmiggnUKFKHqm4W8MiTXRWQL-l0E6uJkkphko7UXqAvFkaNMWKBQxHDDMkcfTmtqneXg1MqRKOqTRIhhZ_EsHuRw2dXruaoG_uNguwn1aNYYBhnM387563alYy9-WvOdnjPPlTIcLkciNXXZQ-7d9Lm5vnFb07uAhJaeElPFANaKIGCDpbvosIpD-TpD9PIu1sTP4z1BPsBIlRueR91tkVUy8QK4FICgqMODCjAVOEpMWBbUBFHlaFmDQQX3EVPJKOk5PZF2V06JXmcOMjlOR9MToEJ4pnHXhhbs8mumZ4Og0SFWvy4b-Gy0]--></g></svg>