<?xml version="1.0" encoding="us-ascii" standalone="no"?><svg xmlns="http://www.w3.org/2000/svg" xmlns:xlink="http://www.w3.org/1999/xlink" contentStyleType="text/css" height="637.8px" preserveAspectRatio="none" style="width:652px;height:637px;background:#FFFFFF;" version="1.1" viewBox="0 0 652 637" width="652.8px" zoomAndPan="magnify"><defs/><g><!--cluster User Aggregate--><g id="cluster_User Aggregate"><rect fill="none" height="117.6" rx="1.5" ry="1.5" style="stroke:#000000;stroke-width:0.8999999999999999;" width="275.7" x="129.3" y="137.4"/><text fill="#000000" font-family="sans-serif" font-size="8.4" font-weight="bold" lengthAdjust="spacing" textLength="66" x="234.15" y="146.7211">User Aggregate</text></g><!--cluster Teacher Aggregate--><g id="cluster_Teacher Aggregate"><rect fill="none" height="118.8" rx="1.5" ry="1.5" style="stroke:#000000;stroke-width:0.8999999999999999;" width="211.5" x="4.2" y="4.2"/><text fill="#000000" font-family="sans-serif" font-size="8.4" font-weight="bold" lengthAdjust="spacing" textLength="80.4" x="69.75" y="13.5211">Teacher Aggregate</text></g><!--cluster Exam Aggregate--><g id="cluster_Exam Aggregate"><rect fill="none" height="173.4" rx="1.5" ry="1.5" style="stroke:#181818;stroke-width:0.6;" width="501.3" x="147.9" y="269.4"/><text fill="#000000" font-family="sans-serif" font-size="8.4" font-weight="bold" lengthAdjust="spacing" textLength="69.6" x="363.75" y="278.7211">Exam Aggregate</text></g><!--cluster Course Aggregate--><g id="cluster_Course Aggregate"><rect fill="none" height="151.8" rx="1.5" ry="1.5" style="stroke:#181818;stroke-width:0.6;" width="433.8" x="121.8" y="457.2"/><text fill="#000000" font-family="sans-serif" font-size="8.4" font-weight="bold" lengthAdjust="spacing" textLength="76.8" x="300.3" y="466.5211">Course Aggregate</text></g><!--class User--><g id="elem_User"><rect codeLine="13" fill="#F1F1F1" height="29.1727" id="User" rx="1.5" ry="1.5" style="stroke:#181818;stroke-width:0.3;" width="39.6" x="164.4" y="216.414"/><rect fill="#444444" height="24.3727" rx="1.5" ry="1.5" style="stroke:#444444;stroke-width:0.3;" width="39.6" x="164.4" y="216.414"/><rect fill="#444444" height="1.5" style="stroke:#444444;stroke-width:0.3;" width="39.6" x="164.4" y="239.2867"/><rect codeLine="13" fill="none" height="29.1727" id="User" rx="1.5" ry="1.5" style="stroke:#181818;stroke-width:0.3;" width="39.6" x="164.4" y="216.414"/><ellipse cx="173.4" cy="228.6003" fill="#ADD1B2" rx="6.6" ry="6.6" style="stroke:#181818;stroke-width:0.6;"/><path d="M175.8686,232.2003 L171.2367,232.2003 L171.2367,224.7645 L175.8686,224.7645 L175.8686,226.0594 L172.706,226.0594 L172.706,227.6631 L175.5697,227.6631 L175.5697,228.958 L172.706,228.958 L172.706,230.9054 L175.8686,230.9054 Z " fill="#000000"/><text fill="#000000" font-family="sans-serif" font-size="7.2" font-style="italic" lengthAdjust="spacing" textLength="22.8" x="180.6" y="226.3749">&#171;Root&#187;</text><text fill="#FFFFFF" font-family="sans-serif" font-size="8.4" lengthAdjust="spacing" textLength="18.6" x="182.7" y="236.0148">User</text><line style="stroke:#181818;stroke-width:0.3;" x1="165" x2="203.4" y1="240.7867" y2="240.7867"/></g><g id="elem_email"><rect fill="#F1F1F1" height="30.3727" style="stroke:#181818;stroke-width:0.3;" width="38.4" x="352.2" y="215.214"/><text fill="#000000" font-family="sans-serif" font-size="7.2" font-style="italic" lengthAdjust="spacing" textLength="32.4" x="355.2" y="222.1749">&#171;Identity&#187;</text><text fill="#000000" font-family="sans-serif" font-size="8.4" lengthAdjust="spacing" textLength="22.2" x="360.3" y="233.0148">email</text><line style="stroke:#181818;stroke-width:0.3;" x1="352.8" x2="390" y1="235.9867" y2="235.9867"/></g><g id="elem_personaInformation"><rect fill="#F1F1F1" height="36.8789" style="stroke:#181818;stroke-width:0.3;" width="90.6" x="138.9" y="158.562"/><text fill="#000000" font-family="sans-serif" font-size="8.4" lengthAdjust="spacing" textLength="82.2" x="143.1" y="167.8831">personaInformation</text><line style="stroke:#181818;stroke-width:0.3;" x1="139.5" x2="228.9" y1="170.855" y2="170.855"/><text fill="#000000" font-family="sans-serif" font-size="8.4" lengthAdjust="spacing" textLength="37.8" x="142.5" y="181.3761">birthdate</text><text fill="#000000" font-family="sans-serif" font-size="8.4" lengthAdjust="spacing" textLength="46.2" x="142.5" y="191.269">taxNumber</text></g><g id="elem_password"><rect fill="#F1F1F1" height="21.893" style="stroke:#181818;stroke-width:0.3;" width="48" x="347.4" y="172.056"/><text fill="#000000" font-family="sans-serif" font-size="8.4" lengthAdjust="spacing" textLength="39.6" x="351.6" y="181.3771">password</text><line style="stroke:#181818;stroke-width:0.3;" x1="348" x2="394.8" y1="184.349" y2="184.349"/></g><!--class designationTeacher--><g id="elem_designationTeacher"><rect codeLine="31" fill="#F1F1F1" height="43.7859" id="designationTeacher" rx="1.5" ry="1.5" style="stroke:#181818;stroke-width:0.3;" width="46.8" x="16.5" y="69.912"/><rect fill="#444444" height="19.2" rx="1.5" ry="1.5" style="stroke:#444444;stroke-width:0.3;" width="46.8" x="16.5" y="69.912"/><rect fill="#444444" height="1.5" style="stroke:#444444;stroke-width:0.3;" width="46.8" x="16.5" y="87.612"/><rect codeLine="31" fill="none" height="43.7859" id="designationTeacher" rx="1.5" ry="1.5" style="stroke:#181818;stroke-width:0.3;" width="46.8" x="16.5" y="69.912"/><ellipse cx="27.66" cy="79.512" fill="#ADD1B2" rx="6.6" ry="6.6" style="stroke:#181818;stroke-width:0.6;"/><path d="M30.1286,83.112 L25.4967,83.112 L25.4967,75.6762 L30.1286,75.6762 L30.1286,76.9711 L26.966,76.9711 L26.966,78.5748 L29.8297,78.5748 L29.8297,79.8697 L26.966,79.8697 L26.966,81.8171 L30.1286,81.8171 Z " fill="#000000"/><text fill="#FFFFFF" font-family="sans-serif" font-size="8.4" lengthAdjust="spacing" textLength="22.8" x="36.54" y="82.6866">name</text><line style="stroke:#181818;stroke-width:0.3;" x1="17.1" x2="62.7" y1="89.112" y2="89.112"/><text fill="#000000" font-family="sans-serif" font-size="8.4" lengthAdjust="spacing" textLength="39.6" x="20.1" y="99.6331">firstName</text><text fill="#000000" font-family="sans-serif" font-size="8.4" lengthAdjust="spacing" textLength="37.8" x="20.1" y="109.5261">lastName</text></g><!--class Teacher--><g id="elem_Teacher"><rect codeLine="36" fill="#F1F1F1" height="24" id="Teacher" rx="1.5" ry="1.5" style="stroke:#181818;stroke-width:0.3;" width="52.2" x="13.8" y="25.2"/><rect fill="#444444" height="19.2" rx="1.5" ry="1.5" style="stroke:#444444;stroke-width:0.3;" width="52.2" x="13.8" y="25.2"/><rect fill="#444444" height="1.5" style="stroke:#444444;stroke-width:0.3;" width="52.2" x="13.8" y="42.9"/><rect codeLine="36" fill="none" height="24" id="Teacher" rx="1.5" ry="1.5" style="stroke:#181818;stroke-width:0.3;" width="52.2" x="13.8" y="25.2"/><ellipse cx="22.8" cy="34.8" fill="#ADD1B2" rx="6.6" ry="6.6" style="stroke:#181818;stroke-width:0.6;"/><path d="M25.2686,38.4 L20.6367,38.4 L20.6367,30.9642 L25.2686,30.9642 L25.2686,32.2591 L22.106,32.2591 L22.106,33.8628 L24.9697,33.8628 L24.9697,35.1577 L22.106,35.1577 L22.106,37.1051 L25.2686,37.1051 Z " fill="#000000"/><text fill="#FFFFFF" font-family="sans-serif" font-size="8.4" lengthAdjust="spacing" textLength="33" x="31.2" y="37.9746">Teacher</text><line style="stroke:#181818;stroke-width:0.3;" x1="14.4" x2="65.4" y1="44.4" y2="44.4"/></g><g id="elem_acronym"><rect fill="#F1F1F1" height="30.3727" style="stroke:#181818;stroke-width:0.3;" width="43.8" x="162.3" y="25.014"/><text fill="#000000" font-family="sans-serif" font-size="7.2" font-style="italic" lengthAdjust="spacing" textLength="32.4" x="168" y="31.9749">&#171;Identity&#187;</text><text fill="#000000" font-family="sans-serif" font-size="8.4" lengthAdjust="spacing" textLength="35.4" x="166.5" y="42.8148">acronym</text><line style="stroke:#181818;stroke-width:0.3;" x1="162.9" x2="205.5" y1="45.7867" y2="45.7867"/></g><!--class Exam--><g id="elem_Exam"><rect codeLine="49" fill="#F1F1F1" height="58.8516" id="Exam" rx="1.5" ry="1.5" style="stroke:#181818;stroke-width:0.3;" width="53.4" x="157.5" y="334.176"/><rect fill="#444444" height="24.3727" rx="1.5" ry="1.5" style="stroke:#444444;stroke-width:0.3;" width="53.4" x="157.5" y="334.176"/><rect fill="#444444" height="1.5" style="stroke:#444444;stroke-width:0.3;" width="53.4" x="157.5" y="357.0487"/><rect codeLine="49" fill="none" height="58.8516" id="Exam" rx="1.5" ry="1.5" style="stroke:#181818;stroke-width:0.3;" width="53.4" x="157.5" y="334.176"/><ellipse cx="171.63" cy="346.3623" fill="#ADD1B2" rx="6.6" ry="6.6" style="stroke:#181818;stroke-width:0.6;"/><path d="M174.0986,349.9623 L169.4667,349.9623 L169.4667,342.5265 L174.0986,342.5265 L174.0986,343.8214 L170.936,343.8214 L170.936,345.4251 L173.7997,345.4251 L173.7997,346.72 L170.936,346.72 L170.936,348.6674 L174.0986,348.6674 Z " fill="#000000"/><text fill="#000000" font-family="sans-serif" font-size="7.2" font-style="italic" lengthAdjust="spacing" textLength="22.8" x="181.17" y="344.1369">&#171;Root&#187;</text><text fill="#FFFFFF" font-family="sans-serif" font-size="8.4" lengthAdjust="spacing" textLength="22.8" x="181.17" y="353.7768">Exam</text><line style="stroke:#181818;stroke-width:0.3;" x1="158.1" x2="210.3" y1="358.5487" y2="358.5487"/><text fill="#000000" font-family="sans-serif" font-size="8.4" lengthAdjust="spacing" textLength="46.2" x="161.1" y="369.0698">description</text><text fill="#000000" font-family="sans-serif" font-size="8.4" lengthAdjust="spacing" textLength="39.6" x="161.1" y="378.9627">openDate</text><text fill="#000000" font-family="sans-serif" font-size="8.4" lengthAdjust="spacing" textLength="39.6" x="161.1" y="388.8557">closeDate</text></g><g id="elem_Title"><rect fill="#F1F1F1" height="30.3727" style="stroke:#181818;stroke-width:0.3;" width="38.4" x="352.2" y="403.014"/><text fill="#000000" font-family="sans-serif" font-size="7.2" font-style="italic" lengthAdjust="spacing" textLength="32.4" x="355.2" y="409.9749">&#171;Identity&#187;</text><text fill="#000000" font-family="sans-serif" font-size="8.4" lengthAdjust="spacing" textLength="18" x="362.4" y="420.8148">Title</text><line style="stroke:#181818;stroke-width:0.3;" x1="352.8" x2="390" y1="423.7867" y2="423.7867"/></g><g id="elem_Question"><rect fill="#F1F1F1" height="36.8789" style="stroke:#181818;stroke-width:0.3;" width="45.6" x="348.6" y="345.162"/><text fill="#000000" font-family="sans-serif" font-size="8.4" lengthAdjust="spacing" textLength="37.2" x="352.8" y="354.4831">Question</text><line style="stroke:#181818;stroke-width:0.3;" x1="349.2" x2="393.6" y1="357.455" y2="357.455"/><text fill="#000000" font-family="sans-serif" font-size="8.4" lengthAdjust="spacing" textLength="36" x="352.2" y="367.9761">question</text><text fill="#000000" font-family="sans-serif" font-size="8.4" lengthAdjust="spacing" textLength="33.6" x="352.2" y="377.869">solution</text></g><g id="elem_Feedback"><rect fill="#F1F1F1" height="21.893" style="stroke:#181818;stroke-width:0.3;" width="47.4" x="592.2" y="296.256"/><text fill="#000000" font-family="sans-serif" font-size="8.4" lengthAdjust="spacing" textLength="39" x="596.4" y="305.5771">Feedback</text><line style="stroke:#181818;stroke-width:0.3;" x1="592.8" x2="639" y1="308.549" y2="308.549"/></g><!--class ExamSubmission--><g id="elem_ExamSubmission"><rect codeLine="66" fill="#F1F1F1" height="33.893" id="ExamSubmission" rx="1.5" ry="1.5" style="stroke:#181818;stroke-width:0.3;" width="89.4" x="326.7" y="290.256"/><rect fill="#444444" height="19.2" rx="1.5" ry="1.5" style="stroke:#444444;stroke-width:0.3;" width="89.4" x="326.7" y="290.256"/><rect fill="#444444" height="1.5" style="stroke:#444444;stroke-width:0.3;" width="89.4" x="326.7" y="307.956"/><rect codeLine="66" fill="none" height="33.893" id="ExamSubmission" rx="1.5" ry="1.5" style="stroke:#181818;stroke-width:0.3;" width="89.4" x="326.7" y="290.256"/><ellipse cx="335.7" cy="299.856" fill="#ADD1B2" rx="6.6" ry="6.6" style="stroke:#181818;stroke-width:0.6;"/><path d="M338.1686,303.456 L333.5367,303.456 L333.5367,296.0202 L338.1686,296.0202 L338.1686,297.3151 L335.006,297.3151 L335.006,298.9188 L337.8697,298.9188 L337.8697,300.2137 L335.006,300.2137 L335.006,302.1611 L338.1686,302.1611 Z " fill="#000000"/><text fill="#FFFFFF" font-family="sans-serif" font-size="8.4" lengthAdjust="spacing" textLength="70.2" x="344.1" y="303.0306">ExamSubmission</text><line style="stroke:#181818;stroke-width:0.3;" x1="327.3" x2="415.5" y1="309.456" y2="309.456"/><text fill="#000000" font-family="sans-serif" font-size="8.4" lengthAdjust="spacing" textLength="24" x="330.3" y="319.9771">grade</text></g><g id="elem_Answer"><rect fill="#F1F1F1" height="21.893" style="stroke:#181818;stroke-width:0.3;" width="39" x="498.9" y="296.256"/><text fill="#000000" font-family="sans-serif" font-size="8.4" lengthAdjust="spacing" textLength="30.6" x="503.1" y="305.5771">Answer</text><line style="stroke:#181818;stroke-width:0.3;" x1="499.5" x2="537.3" y1="308.549" y2="308.549"/></g><!--class Course--><g id="elem_Course"><rect codeLine="78" fill="#F1F1F1" height="48.9586" id="Course" rx="1.5" ry="1.5" style="stroke:#181818;stroke-width:0.3;" width="49.2" x="346.8" y="529.326"/><rect fill="#444444" height="24.3727" rx="1.5" ry="1.5" style="stroke:#444444;stroke-width:0.3;" width="49.2" x="346.8" y="529.326"/><rect fill="#444444" height="1.5" style="stroke:#444444;stroke-width:0.3;" width="49.2" x="346.8" y="552.1987"/><rect codeLine="78" fill="none" height="48.9586" id="Course" rx="1.5" ry="1.5" style="stroke:#181818;stroke-width:0.3;" width="49.2" x="346.8" y="529.326"/><ellipse cx="356.07" cy="541.5123" fill="#ADD1B2" rx="6.6" ry="6.6" style="stroke:#181818;stroke-width:0.6;"/><path d="M358.5386,545.1123 L353.9067,545.1123 L353.9067,537.6765 L358.5386,537.6765 L358.5386,538.9714 L355.376,538.9714 L355.376,540.5751 L358.2397,540.5751 L358.2397,541.87 L355.376,541.87 L355.376,543.8174 L358.5386,543.8174 Z " fill="#000000"/><text fill="#000000" font-family="sans-serif" font-size="7.2" font-style="italic" lengthAdjust="spacing" textLength="22.8" x="367.83" y="539.2869">&#171;Root&#187;</text><text fill="#FFFFFF" font-family="sans-serif" font-size="8.4" lengthAdjust="spacing" textLength="29.4" x="364.53" y="548.9268">Course</text><line style="stroke:#181818;stroke-width:0.3;" x1="347.4" x2="395.4" y1="553.6987" y2="553.6987"/><text fill="#000000" font-family="sans-serif" font-size="8.4" lengthAdjust="spacing" textLength="42" x="350.4" y="564.2198">maxEnroll</text><text fill="#000000" font-family="sans-serif" font-size="8.4" lengthAdjust="spacing" textLength="39.6" x="350.4" y="574.1127">minEnroll</text></g><g id="elem_CourseID"><rect fill="#F1F1F1" height="30.3727" style="stroke:#181818;stroke-width:0.3;" width="46.2" x="495.3" y="569.214"/><text fill="#000000" font-family="sans-serif" font-size="7.2" font-style="italic" lengthAdjust="spacing" textLength="32.4" x="502.2" y="576.1749">&#171;Identity&#187;</text><text fill="#000000" font-family="sans-serif" font-size="8.4" lengthAdjust="spacing" textLength="37.8" x="499.5" y="587.0148">CourseID</text><line style="stroke:#181818;stroke-width:0.3;" x1="495.9" x2="540.9" y1="589.9867" y2="589.9867"/></g><g id="elem_Name"><rect fill="#F1F1F1" height="21.893" style="stroke:#181818;stroke-width:0.3;" width="31.8" x="502.5" y="526.056"/><text fill="#000000" font-family="sans-serif" font-size="8.4" lengthAdjust="spacing" textLength="23.4" x="506.7" y="535.3771">Name</text><line style="stroke:#181818;stroke-width:0.3;" x1="503.1" x2="533.7" y1="538.349" y2="538.349"/></g><g id="elem_CourseState"><rect fill="#F1F1F1" height="30.3727" style="stroke:#181818;stroke-width:0.3;" width="58.2" x="342.3" y="478.014"/><text fill="#000000" font-family="sans-serif" font-size="7.2" font-style="italic" lengthAdjust="spacing" textLength="26.4" x="358.2" y="484.9749">&#171;Enum&#187;</text><text fill="#000000" font-family="sans-serif" font-size="8.4" lengthAdjust="spacing" textLength="49.8" x="346.5" y="495.8148">CourseState</text><line style="stroke:#181818;stroke-width:0.3;" x1="342.9" x2="399.9" y1="498.7867" y2="498.7867"/></g><g id="elem_StudentEnrollmentState"><rect fill="#F1F1F1" height="30.3727" style="stroke:#181818;stroke-width:0.3;" width="105.6" x="131.4" y="478.014"/><text fill="#000000" font-family="sans-serif" font-size="7.2" font-style="italic" lengthAdjust="spacing" textLength="26.4" x="171" y="484.9749">&#171;enum&#187;</text><text fill="#000000" font-family="sans-serif" font-size="8.4" lengthAdjust="spacing" textLength="97.2" x="135.6" y="495.8148">StudentEnrollmentState</text><line style="stroke:#181818;stroke-width:0.3;" x1="132" x2="236.4" y1="498.7867" y2="498.7867"/></g><g id="elem_Description"><rect fill="#F1F1F1" height="21.893" style="stroke:#181818;stroke-width:0.3;" width="55.2" x="490.8" y="483.456"/><text fill="#000000" font-family="sans-serif" font-size="8.4" lengthAdjust="spacing" textLength="46.8" x="495" y="492.7771">Description</text><line style="stroke:#181818;stroke-width:0.3;" x1="491.4" x2="545.4" y1="495.749" y2="495.749"/></g><g id="elem_EnrolledStudents"><rect fill="#F1F1F1" height="21.893" style="stroke:#181818;stroke-width:0.3;" width="78.6" x="144.9" y="529.656"/><text fill="#000000" font-family="sans-serif" font-size="8.4" lengthAdjust="spacing" textLength="70.2" x="149.1" y="538.9771">EnrolledStudents</text><line style="stroke:#181818;stroke-width:0.3;" x1="145.5" x2="222.9" y1="541.949" y2="541.949"/></g><g id="elem_AssignedTeachers"><rect fill="#F1F1F1" height="26.9859" style="stroke:#181818;stroke-width:0.3;" width="83.4" x="142.5" y="572.712"/><text fill="#000000" font-family="sans-serif" font-size="8.4" lengthAdjust="spacing" textLength="75" x="146.7" y="582.0331">AssignedTeachers</text><line style="stroke:#181818;stroke-width:0.3;" x1="143.1" x2="225.3" y1="585.005" y2="585.005"/><text fill="#000000" font-family="sans-serif" font-size="8.4" lengthAdjust="spacing" textLength="44.4" x="146.1" y="595.5261">isInCharge</text></g><g id="elem_GMN49"><path d="M288.6,618.81 L288.6,633.9963 L454.2,633.9963 L454.2,624.81 L448.2,618.81 L288.6,618.81 " fill="#FEFFDD" style="stroke:#181818;stroke-width:0.3;"/><path d="M448.2,618.81 L448.2,624.81 L454.2,624.81 L448.2,618.81 " fill="#FEFFDD" style="stroke:#181818;stroke-width:0.6;"/><text fill="#000000" font-family="sans-serif" font-size="7.8" lengthAdjust="spacing" textLength="153" x="292.2" y="629.351">only one teacher is in charge of a course</text></g><!--reverse link designationTeacher to Teacher--><g id="link_designationTeacher_Teacher"><path codeLine="42" d="M39.9,66.138 C39.9,60.546 39.9,54.954 39.9,49.362 " fill="none" id="designationTeacher-backto-Teacher" style="stroke:#181818;stroke-width:0.6;"/><polygon fill="#181818" points="39.9,69.024,42.3,63.624,39.9,66.024,37.5,63.624,39.9,69.024" style="stroke:#181818;stroke-width:0.6;"/><text fill="#000000" font-family="sans-serif" font-size="7.8" lengthAdjust="spacing" textLength="4.8" x="34.6725" y="63.4291">1</text><text fill="#000000" font-family="sans-serif" font-size="7.8" lengthAdjust="spacing" textLength="4.8" x="34.425" y="61.6154">1</text></g><!--reverse link User to Teacher--><g id="link_User_Teacher"><path codeLine="114" d="M160.902,227.262 C146.682,223.854 128.862,217.488 117,205.8 C88.602,177.828 96.822,160.146 84,122.4 C74.634,94.83 81.624,83.976 66,59.4 C63.672,55.74 60.558,52.338 57.306,49.35 " fill="none" id="User-backto-Teacher" style="stroke:#181818;stroke-width:0.6;"/><polygon fill="#181818" points="163.65,228.024,158.9189,224.4833,160.7251,227.3569,157.8515,229.1632,163.65,228.024" style="stroke:#181818;stroke-width:0.6;"/><text fill="#000000" font-family="sans-serif" font-size="7.8" lengthAdjust="spacing" textLength="4.8" x="154.8403" y="235.8985">1</text><text fill="#000000" font-family="sans-serif" font-size="7.8" lengthAdjust="spacing" textLength="4.8" x="70.8884" y="57.3764">1</text></g><!--link User to password--><g id="link_User_password"><path codeLine="115" d="M204.18,226.002 C237.504,217.404 305.754,199.788 343.746,189.984 " fill="none" id="User-to-password" style="stroke:#181818;stroke-width:0.6;"/><polygon fill="#181818" points="346.5,189.12,340.6729,188.1377,343.5942,189.8657,341.8661,192.787,346.5,189.12" style="stroke:#181818;stroke-width:0.6;"/><text fill="#000000" font-family="sans-serif" font-size="7.8" lengthAdjust="spacing" textLength="4.8" x="208.7959" y="222.6032">1</text><text fill="#000000" font-family="sans-serif" font-size="7.8" lengthAdjust="spacing" textLength="4.8" x="337.8778" y="198.435">1</text></g><!--link Teacher to acronym--><g id="link_Teacher_acronym"><path codeLine="116" d="M66.246,37.74 C92.376,38.292 132.57,39.132 158.472,39.678 " fill="none" id="Teacher-to-acronym" style="stroke:#181818;stroke-width:0.6;"/><polygon fill="#181818" points="161.43,39.75,156.0863,37.2272,158.4308,39.6814,155.9766,42.026,161.43,39.75" style="stroke:#181818;stroke-width:0.6;"/><text fill="#000000" font-family="sans-serif" font-size="7.8" lengthAdjust="spacing" textLength="4.8" x="70.8274" y="46.0991">1</text><text fill="#000000" font-family="sans-serif" font-size="7.8" lengthAdjust="spacing" textLength="4.8" x="152.6999" y="48.0549">1</text></g><!--link User to email--><g id="link_User_email"><path codeLine="117" d="M204.18,230.94 C238.974,230.826 311.82,230.592 348.576,230.472 " fill="none" id="User-to-email" style="stroke:#181818;stroke-width:0.6;"/><polygon fill="#181818" points="351.42,230.466,346.0132,228.0814,348.42,230.4746,346.0269,232.8814,351.42,230.466" style="stroke:#181818;stroke-width:0.6;"/><text fill="#000000" font-family="sans-serif" font-size="7.8" lengthAdjust="spacing" textLength="4.8" x="208.7959" y="239.4159">1</text><text fill="#000000" font-family="sans-serif" font-size="7.8" lengthAdjust="spacing" textLength="4.8" x="342.7279" y="238.9679">1</text></g><!--link Teacher to personaInformation--><g id="link_Teacher_personaInformation"><path codeLine="119" d="M55.476,49.452 C59.04,52.578 62.748,56.016 66,59.4 C91.098,85.536 91.452,97.314 117,123 C128.76,134.826 142.98,146.64 155.256,156.192 " fill="none" id="Teacher-to-personaInformation" style="stroke:#181818;stroke-width:0.6;"/><polygon fill="#181818" points="157.41,158.322,154.6131,153.1165,155.0392,156.4837,151.6719,156.9098,157.41,158.322" style="stroke:#181818;stroke-width:0.6;"/><text fill="#000000" font-family="sans-serif" font-size="7.8" lengthAdjust="spacing" textLength="4.8" x="54.217" y="61.5202">1</text><text fill="#000000" font-family="sans-serif" font-size="7.8" lengthAdjust="spacing" textLength="4.8" x="147.3133" y="152.1015">1</text></g><!--link Exam to Question--><g id="link_Exam_Question"><path codeLine="123" d="M211.056,363.6 C246.588,363.6 309.588,363.6 344.922,363.6 " fill="none" id="Exam-to-Question" style="stroke:#181818;stroke-width:0.6;"/><polygon fill="#181818" points="347.862,363.6,342.462,361.2,344.862,363.6,342.462,366,347.862,363.6" style="stroke:#181818;stroke-width:0.6;"/><text fill="#000000" font-family="sans-serif" font-size="7.8" lengthAdjust="spacing" textLength="13.2" x="256.2" y="361.541">has</text><text fill="#000000" font-family="sans-serif" font-size="7.8" lengthAdjust="spacing" textLength="4.8" x="215.7187" y="361.4384">1</text><text fill="#000000" font-family="sans-serif" font-size="7.8" lengthAdjust="spacing" textLength="13.2" x="330.5544" y="371.8728">1..*</text></g><!--reverse link Exam to ExamSubmission--><g id="link_Exam_ExamSubmission"><path codeLine="124" d="M214.464,354.606 C244.65,345.456 291.78,331.164 326.406,320.664 " fill="none" id="Exam-backto-ExamSubmission" style="stroke:#181818;stroke-width:0.6;"/><polygon fill="#181818" points="211.656,355.644,217.5209,356.367,214.5259,354.7702,216.1228,351.7752,211.656,355.644" style="stroke:#181818;stroke-width:0.6;"/><text fill="#000000" font-family="sans-serif" font-size="7.8" lengthAdjust="spacing" textLength="14.4" x="255.6" y="336.941">of a</text><text fill="#000000" font-family="sans-serif" font-size="7.8" lengthAdjust="spacing" textLength="4.8" x="215.7187" y="352.2144">1</text><text fill="#000000" font-family="sans-serif" font-size="7.8" lengthAdjust="spacing" textLength="3.6" x="318.3459" y="329.9259">*</text></g><!--link Teacher to Exam--><g id="link_Teacher_Exam"><path codeLine="125" d="M58.032,49.326 C61.152,52.272 64.032,55.662 66,59.4 C98.406,120.918 59.988,149.55 84,214.8 C100.224,258.894 132,302.784 155.316,331.344 " fill="none" id="Teacher-to-Exam" style="stroke:#181818;stroke-width:0.6;"/><polygon fill="#181818" points="157.548,333.462,155.9826,327.7638,155.6469,331.1413,152.2694,330.8056,157.548,333.462" style="stroke:#181818;stroke-width:0.6;"/><text fill="#000000" font-family="sans-serif" font-size="7.8" lengthAdjust="spacing" textLength="27" x="84.6" y="212.741">creates</text><text fill="#000000" font-family="sans-serif" font-size="7.8" lengthAdjust="spacing" textLength="4.8" x="63.8066" y="61.5693">1</text><text fill="#000000" font-family="sans-serif" font-size="7.8" lengthAdjust="spacing" textLength="3.6" x="149.0578" y="337.3153">*</text></g><!--reverse link Answer to Feedback--><g id="link_Answer_Feedback"><path codeLine="126" d="M541.584,307.2 C556.77,307.2 576.738,307.2 592.062,307.2 " fill="none" id="Answer-backto-Feedback" style="stroke:#181818;stroke-width:0.6;"/><polygon fill="#181818" points="538.626,307.2,544.026,309.6,541.626,307.2,544.026,304.8,538.626,307.2" style="stroke:#181818;stroke-width:0.6;"/><text fill="#000000" font-family="sans-serif" font-size="7.8" lengthAdjust="spacing" textLength="7.8" x="565.8" y="305.141">of</text><text fill="#000000" font-family="sans-serif" font-size="7.8" lengthAdjust="spacing" textLength="4.8" x="542.5689" y="315.6878">1</text><text fill="#000000" font-family="sans-serif" font-size="7.8" lengthAdjust="spacing" textLength="4.8" x="582.5884" y="315.5587">1</text></g><!--link ExamSubmission to Answer--><g id="link_ExamSubmission_Answer"><path codeLine="127" d="M416.34,307.2 C442.392,307.2 474.234,307.2 495.216,307.2 " fill="none" id="ExamSubmission-to-Answer" style="stroke:#181818;stroke-width:0.6;"/><polygon fill="#181818" points="498.144,307.2,492.744,304.8,495.144,307.2,492.744,309.6,498.144,307.2" style="stroke:#181818;stroke-width:0.6;"/><text fill="#000000" font-family="sans-serif" font-size="7.8" lengthAdjust="spacing" textLength="4.8" x="420.8521" y="315.1786">1</text><text fill="#000000" font-family="sans-serif" font-size="7.8" lengthAdjust="spacing" textLength="13.2" x="480.8672" y="315.5587">1..*</text></g><!--link Exam to Course--><g id="link_Exam_Course"><path codeLine="128" d="M198.054,393.288 C214.74,427.692 246.414,484.104 288.6,519 C304.494,532.152 326.088,541.038 343.152,546.534 " fill="none" id="Exam-to-Course" style="stroke:#181818;stroke-width:0.6;"/><polygon fill="#181818" points="345.9,547.59,341.4683,543.681,343.0381,546.6903,340.0288,548.2601,345.9,547.59" style="stroke:#181818;stroke-width:0.6;"/><text fill="#000000" font-family="sans-serif" font-size="7.8" lengthAdjust="spacing" textLength="14.4" x="255.6" y="484.541">of a</text><text fill="#000000" font-family="sans-serif" font-size="7.8" lengthAdjust="spacing" textLength="3.6" x="196.0738" y="405.4353">*</text><text fill="#000000" font-family="sans-serif" font-size="7.8" lengthAdjust="spacing" textLength="4.8" x="337.1784" y="544.3717">1</text></g><!--link Exam to Title--><g id="link_Exam_Title"><path codeLine="129" d="M211.056,371.31 C247.842,382.11 314.088,401.556 348.57,411.678 " fill="none" id="Exam-to-Title" style="stroke:#181818;stroke-width:0.6;"/><polygon fill="#181818" points="351.408,412.686,346.9065,408.8576,348.5303,411.8381,345.5499,413.4619,351.408,412.686" style="stroke:#181818;stroke-width:0.6;"/><text fill="#000000" font-family="sans-serif" font-size="7.8" lengthAdjust="spacing" textLength="4.8" x="215.7187" y="380.8115">1</text><text fill="#000000" font-family="sans-serif" font-size="7.8" lengthAdjust="spacing" textLength="4.8" x="342.7134" y="420.037">1</text></g><!--link Teacher to AssignedTeachers--><g id="link_Teacher_AssignedTeachers"><path codeLine="133" d="M58.134,49.278 C61.248,52.224 64.098,55.632 66,59.4 C88.422,103.824 79.08,233.088 84,282.6 C96.366,407.118 39.18,464.22 117,562.2 C122.682,569.358 130.686,574.386 139.182,577.908 " fill="none" id="Teacher-to-AssignedTeachers" style="stroke:#181818;stroke-width:0.6;"/><polygon fill="#181818" points="141.726,579.144,137.5767,574.9365,138.9335,578.0476,135.8224,579.4044,141.726,579.144" style="stroke:#181818;stroke-width:0.6;"/><text fill="#000000" font-family="sans-serif" font-size="7.8" lengthAdjust="spacing" textLength="16.2" x="90" y="280.541">is in</text><text fill="#000000" font-family="sans-serif" font-size="7.8" lengthAdjust="spacing" textLength="4.8" x="57.7873" y="61.5078">1</text><text fill="#000000" font-family="sans-serif" font-size="7.8" lengthAdjust="spacing" textLength="3.6" x="134.2221" y="586.4305">*</text></g><!--reverse link AssignedTeachers to Course--><g id="link_AssignedTeachers_Course"><path codeLine="134" d="M229.596,578.4 C266.406,571.986 317.136,563.148 346.704,558 " fill="none" id="AssignedTeachers-backto-Course" style="stroke:#181818;stroke-width:0.6;"/><polygon fill="#181818" points="226.68,579.012,232.4154,580.4351,229.6342,578.4897,231.5797,575.7085,226.68,579.012" style="stroke:#181818;stroke-width:0.6;"/><text fill="#000000" font-family="sans-serif" font-size="7.8" lengthAdjust="spacing" textLength="13.2" x="256.2" y="570.341">has</text><text fill="#000000" font-family="sans-serif" font-size="7.8" lengthAdjust="spacing" textLength="3.6" x="230.5845" y="586.2849">*</text><text fill="#000000" font-family="sans-serif" font-size="7.8" lengthAdjust="spacing" textLength="4.8" x="337.2469" y="567.0514">1</text></g><!--reverse link EnrolledStudents to Course--><g id="link_EnrolledStudents_Course"><path codeLine="135" d="M227.316,543.618 C264.252,546.24 316.428,549.942 346.626,552.09 " fill="none" id="EnrolledStudents-backto-Course" style="stroke:#181818;stroke-width:0.6;"/><polygon fill="#181818" points="224.394,543.372,229.6087,546.1517,227.3863,543.5864,229.9517,541.364,224.394,543.372" style="stroke:#181818;stroke-width:0.6;"/><text fill="#000000" font-family="sans-serif" font-size="7.8" lengthAdjust="spacing" textLength="13.2" x="256.2" y="543.941">has</text><text fill="#000000" font-family="sans-serif" font-size="7.8" lengthAdjust="spacing" textLength="3.6" x="228.3215" y="551.7183">*</text><text fill="#000000" font-family="sans-serif" font-size="7.8" lengthAdjust="spacing" textLength="4.8" x="337.1555" y="560.1256">1</text></g><!--link Course to CourseState--><g id="link_Course_CourseState"><path codeLine="136" d="M371.4,529.182 C371.4,523.518 371.4,517.854 371.4,512.19 " fill="none" id="Course-to-CourseState" style="stroke:#181818;stroke-width:0.6;"/><polygon fill="#181818" points="371.4,509.262,369,514.662,371.4,512.262,373.8,514.662,371.4,509.262" style="stroke:#181818;stroke-width:0.6;"/><text fill="#000000" font-family="sans-serif" font-size="7.8" lengthAdjust="spacing" textLength="4.8" x="366.2025" y="522.9149">1</text><text fill="#000000" font-family="sans-serif" font-size="7.8" lengthAdjust="spacing" textLength="4.8" x="366.045" y="520.8407">1</text></g><!--link Course to CourseID--><g id="link_Course_CourseID"><path codeLine="137" d="M396.24,558.888 C422.64,564.432 464.718,573.264 491.79,578.946 " fill="none" id="Course-to-CourseID" style="stroke:#181818;stroke-width:0.6;"/><polygon fill="#181818" points="494.58,579.654,489.7882,576.1958,491.644,579.0377,488.8021,580.8935,494.58,579.654" style="stroke:#181818;stroke-width:0.6;"/><text fill="#000000" font-family="sans-serif" font-size="7.8" lengthAdjust="spacing" textLength="4.8" x="400.7516" y="568.0316">1</text><text fill="#000000" font-family="sans-serif" font-size="7.8" lengthAdjust="spacing" textLength="4.8" x="485.6563" y="587.1668">1</text></g><!--link Course to Name--><g id="link_Course_Name"><path codeLine="138" d="M396.24,551.01 C425.01,547.692 472.386,542.238 498.69,539.202 " fill="none" id="Course-to-Name" style="stroke:#181818;stroke-width:0.6;"/><polygon fill="#181818" points="501.66,538.794,496.0213,537.0263,498.6796,539.1366,496.5694,541.7949,501.66,538.794" style="stroke:#181818;stroke-width:0.6;"/><text fill="#000000" font-family="sans-serif" font-size="7.8" lengthAdjust="spacing" textLength="4.8" x="400.7516" y="548.3582">1</text><text fill="#000000" font-family="sans-serif" font-size="7.8" lengthAdjust="spacing" textLength="4.8" x="492.9409" y="547.8913">1</text></g><!--link Course to Description--><g id="link_Course_Description"><path codeLine="139" d="M396.24,543.93 C421.218,533.754 460.218,517.86 487.284,506.838 " fill="none" id="Course-to-Description" style="stroke:#181818;stroke-width:0.6;"/><polygon fill="#181818" points="489.924,505.518,484.0176,505.3328,487.1457,506.6499,485.8286,509.778,489.924,505.518" style="stroke:#181818;stroke-width:0.6;"/><text fill="#000000" font-family="sans-serif" font-size="7.8" lengthAdjust="spacing" textLength="4.8" x="400.7516" y="540.1055">1</text><text fill="#000000" font-family="sans-serif" font-size="7.8" lengthAdjust="spacing" textLength="4.8" x="481.2772" y="515.3662">1</text></g><!--link EnrolledStudents to StudentEnrollmentState--><g id="link_EnrolledStudents_StudentEnrollmentState"><path codeLine="140" d="M184.2,529.494 C184.2,523.65 184.2,517.8 184.2,511.956 " fill="none" id="EnrolledStudents-to-StudentEnrollmentState" style="stroke:#181818;stroke-width:0.6;"/><polygon fill="#181818" points="184.2,509.112,181.8,514.512,184.2,512.112,186.6,514.512,184.2,509.112" style="stroke:#181818;stroke-width:0.6;"/><text fill="#000000" font-family="sans-serif" font-size="7.8" lengthAdjust="spacing" textLength="4.8" x="178.665" y="523.2834">1</text><text fill="#000000" font-family="sans-serif" font-size="7.8" lengthAdjust="spacing" textLength="4.8" x="178.845" y="520.656">1</text></g><!--link AssignedTeachers to GMN49--><g id="link_AssignedTeachers_GMN49"><path d="M225.954,595.32 C245.004,599.52 267.948,604.548 288.6,609 C303.216,612.156 319.308,615.57 333.348,618.54 " fill="none" id="AssignedTeachers-GMN49" style="stroke:#181818;stroke-width:0.6;stroke-dasharray:7.0,7.0;"/></g><!--SRC=[dLRRRjim37ttLmZUmu02RZTWJqLH86rIB2yTjdGVeDYChTMMCab6cnNvzr4tNnGx6seW5uc7r24FgQHY1P06T2KAbTImqqGB8bbPQL8m2RbcWYVgcV4zbRGXUKsLMcWjsRRLiCu5tx0_G3x5a0V1zRseXIIqrQAXckKnv2lG0kGTpPzBALfUEFY7BmFS7esqX8q-r40C6ShB6f8a-NXrbMKdB_9JWIHJ5ljA4X-Ff1QuA4i99TMGlYK9mMV5DTC75-NcveSG-lQMl5dJqI6-RNyX2m8DPJL2rWLObndO7gGIdAxvJaXJ0i4zp3nR9dLLuEdTZgQlZssp1JaL2Wls8cJH7NCSPFC4DAz62P5nHWKeLdBB862f8YcdZSdT07TCAls8Qxj2UVh5SHGg-4_bItCf-A4P5MQ42yxfvvHaTNPhlvoICydDABnwnRRu7uKjS50Gr3FqZrLhc9F5HeAR1vdbaktj28GziGU-7AgMrq91jpCko1FJsBYpvV2exoseg3b- -wrkGucwxJR6xWy0nHRJ7aioI6tJRXkcL7z2AN7o9Y8jk7ePIZilmxrefO8pGdGwUEGv9JnLZmmw98v6GrzNN8gwTYl6_GgvUTRERxsCwjm3J2UJjnEFZKOww0IyRIoHOx1lT6i2kPCQ_3O13TXbtoDkFnYSDnG-c1fvBPJfUIXymokNArDhVbzHMS8isLLWa9pLvryNeJdDOim0tcIP_GpJDp9cVah31NGwnmxWPt_aZ2Q3iBTbCkSuSKk-U_fjunjC7__oyYBj9-oQL5IDOJPxn4IJSat4Zj1fqXwDc5m2wk8Y-kb158Oqs6umJQpkqC4PeKIMetCVSBleI-H7Oy0foZ9rLytxvtKsqRXJaGHJXBcBwCHeF48xTQIxaiSJSHRjDqoDfEkZmIH4YAXGwsKSmGNeVj965lEnZ6xwcAezGphizEtWAiW5JgdxzuHIJTHEyFg0Rq2qhxKj9idjr5jvIMx9_GK0]--></g></svg>