<?xml version="1.0" encoding="us-ascii" standalone="no"?><svg xmlns="http://www.w3.org/2000/svg" xmlns:xlink="http://www.w3.org/1999/xlink" contentStyleType="text/css" height="1264px" preserveAspectRatio="none" style="width:757px;height:1264px;background:#FFFFFF;" version="1.1" viewBox="0 0 757 1264" width="757px" zoomAndPan="magnify"><defs/><g><!--cluster ecourse--><g id="cluster_ecourse"><path d="M8.5,6 L64.5,6 A3.75,3.75 0 0 1 67,8.5 L74,28.4883 L747.5,28.4883 A2.5,2.5 0 0 1 750,30.9883 L750,1255.24 A2.5,2.5 0 0 1 747.5,1257.74 L8.5,1257.74 A2.5,2.5 0 0 1 6,1255.24 L6,8.5 A2.5,2.5 0 0 1 8.5,6 " fill="none" style="stroke:#000000;stroke-width:1.5;"/><line style="stroke:#000000;stroke-width:1.5;" x1="6" x2="74" y1="28.4883" y2="28.4883"/><text fill="#000000" font-family="sans-serif" font-size="14" font-weight="bold" lengthAdjust="spacing" textLength="55" x="10" y="21.5352">ecourse</text></g><!--cluster presentation--><g id="cluster_presentation"><path d="M206.5,49 L298.5,49 A3.75,3.75 0 0 1 301,51.5 L308,71.4883 L441.5,71.4883 A2.5,2.5 0 0 1 444,73.9883 L444,170.61 A2.5,2.5 0 0 1 441.5,173.11 L206.5,173.11 A2.5,2.5 0 0 1 204,170.61 L204,51.5 A2.5,2.5 0 0 1 206.5,49 " fill="none" style="stroke:#000000;stroke-width:1.5;"/><line style="stroke:#000000;stroke-width:1.5;" x1="204" x2="308" y1="71.4883" y2="71.4883"/><text fill="#000000" font-family="sans-serif" font-size="14" font-weight="bold" lengthAdjust="spacing" textLength="91" x="208" y="64.5352">presentation</text></g><!--cluster core--><g id="cluster_core"><path d="M32.5,206.11 L63.5,206.11 A3.75,3.75 0 0 1 66,208.61 L73,228.5983 L491.5,228.5983 A2.5,2.5 0 0 1 494,231.0983 L494,1231.24 A2.5,2.5 0 0 1 491.5,1233.74 L32.5,1233.74 A2.5,2.5 0 0 1 30,1231.24 L30,208.61 A2.5,2.5 0 0 1 32.5,206.11 " fill="none" style="stroke:#000000;stroke-width:1.5;"/><line style="stroke:#000000;stroke-width:1.5;" x1="30" x2="73" y1="228.5983" y2="228.5983"/><text fill="#000000" font-family="sans-serif" font-size="14" font-weight="bold" lengthAdjust="spacing" textLength="30" x="34" y="221.6452">core</text></g><!--cluster domain--><g id="cluster_domain"><path d="M56.5,878.19 L111.5,878.19 A3.75,3.75 0 0 1 114,880.69 L121,900.6783 L467.5,900.6783 A2.5,2.5 0 0 1 470,903.1783 L470,1207.24 A2.5,2.5 0 0 1 467.5,1209.74 L56.5,1209.74 A2.5,2.5 0 0 1 54,1207.24 L54,880.69 A2.5,2.5 0 0 1 56.5,878.19 " fill="none" style="stroke:#000000;stroke-width:1.5;"/><line style="stroke:#000000;stroke-width:1.5;" x1="54" x2="121" y1="900.6783" y2="900.6783"/><text fill="#000000" font-family="sans-serif" font-size="14" font-weight="bold" lengthAdjust="spacing" textLength="54" x="58" y="893.7252">domain</text></g><!--cluster authz--><g id="cluster_authz"><path d="M520.5,394.2 L561.5,394.2 A3.75,3.75 0 0 1 564,396.7 L571,416.6883 L723.5,416.6883 A2.5,2.5 0 0 1 726,419.1883 L726,816.13 A2.5,2.5 0 0 1 723.5,818.63 L520.5,818.63 A2.5,2.5 0 0 1 518,816.13 L518,396.7 A2.5,2.5 0 0 1 520.5,394.2 " fill="none" style="stroke:#000000;stroke-width:1.5;"/><line style="stroke:#000000;stroke-width:1.5;" x1="518" x2="571" y1="416.6883" y2="416.6883"/><text fill="#000000" font-family="sans-serif" font-size="14" font-weight="bold" lengthAdjust="spacing" textLength="40" x="522" y="409.7352">authz</text></g><!--class AcceptRejectEnrollmentUI--><g id="elem_AcceptRejectEnrollmentUI"><rect codeLine="5" fill="#F1F1F1" height="73.1094" id="AcceptRejectEnrollmentUI" rx="2.5" ry="2.5" style="stroke:#181818;stroke-width:0.5;" width="208" x="220" y="84"/><ellipse cx="235" cy="104.3105" fill="#ADD1B2" rx="11" ry="11" style="stroke:#181818;stroke-width:1.0;"/><path d="M237.9731,109.9536 Q237.3921,110.2524 236.7529,110.4019 Q236.1138,110.5513 235.4082,110.5513 Q232.9014,110.5513 231.5815,108.8994 Q230.2617,107.2476 230.2617,104.1265 Q230.2617,100.9971 231.5815,99.3452 Q232.9014,97.6934 235.4082,97.6934 Q236.1138,97.6934 236.7612,97.8428 Q237.4087,97.9922 237.9731,98.291 L237.9731,101.0137 Q237.3423,100.4326 236.7488,100.1628 Q236.1553,99.8931 235.5244,99.8931 Q234.1797,99.8931 233.4949,100.9597 Q232.8101,102.0264 232.8101,104.1265 Q232.8101,106.2183 233.4949,107.2849 Q234.1797,108.3516 235.5244,108.3516 Q236.1553,108.3516 236.7488,108.0818 Q237.3423,107.812 237.9731,107.231 Z " fill="#000000"/><text fill="#000000" font-family="sans-serif" font-size="12" font-style="italic" lengthAdjust="spacing" textLength="84" x="295" y="100.6016">&#171;presentation&#187;</text><text fill="#000000" font-family="sans-serif" font-size="14" lengthAdjust="spacing" textLength="176" x="249" y="116.668">AcceptRejectEnrollmentUI</text><line style="stroke:#181818;stroke-width:0.5;" x1="221" x2="427" y1="124.6211" y2="124.6211"/><line style="stroke:#181818;stroke-width:0.5;" x1="221" x2="427" y1="132.6211" y2="132.6211"/><text fill="#000000" font-family="sans-serif" font-size="14" lengthAdjust="spacing" textLength="65" x="226" y="150.1563">doShow()</text></g><!--class AcceptRejectEnrollmentController--><g id="elem_AcceptRejectEnrollmentController"><rect codeLine="12" fill="#F1F1F1" height="106.0859" id="AcceptRejectEnrollmentController" rx="2.5" ry="2.5" style="stroke:#181818;stroke-width:0.5;" width="307" x="170.5" y="241.11"/><ellipse cx="204.85" cy="261.4205" fill="#ADD1B2" rx="11" ry="11" style="stroke:#181818;stroke-width:1.0;"/><path d="M207.8231,267.0636 Q207.2421,267.3624 206.6029,267.5119 Q205.9638,267.6613 205.2582,267.6613 Q202.7514,267.6613 201.4315,266.0094 Q200.1117,264.3576 200.1117,261.2365 Q200.1117,258.1071 201.4315,256.4552 Q202.7514,254.8034 205.2582,254.8034 Q205.9638,254.8034 206.6112,254.9528 Q207.2587,255.1022 207.8231,255.401 L207.8231,258.1237 Q207.1923,257.5426 206.5988,257.2728 Q206.0053,257.0031 205.3744,257.0031 Q204.0297,257.0031 203.3449,258.0697 Q202.6601,259.1364 202.6601,261.2365 Q202.6601,263.3283 203.3449,264.3949 Q204.0297,265.4616 205.3744,265.4616 Q206.0053,265.4616 206.5988,265.1918 Q207.1923,264.922 207.8231,264.341 Z " fill="#000000"/><text fill="#000000" font-family="sans-serif" font-size="12" font-style="italic" lengthAdjust="spacing" textLength="75" x="301.65" y="257.7116">&#171;application&#187;</text><text fill="#000000" font-family="sans-serif" font-size="14" lengthAdjust="spacing" textLength="232" x="223.15" y="273.778">AcceptRejectEnrollmentController</text><line style="stroke:#181818;stroke-width:0.5;" x1="171.5" x2="476.5" y1="281.7311" y2="281.7311"/><line style="stroke:#181818;stroke-width:0.5;" x1="171.5" x2="476.5" y1="289.7311" y2="289.7311"/><text fill="#000000" font-family="sans-serif" font-size="14" lengthAdjust="spacing" textLength="295" x="176.5" y="307.2662">acceptRequest(EnrollmentRequest request)</text><text fill="#000000" font-family="sans-serif" font-size="14" lengthAdjust="spacing" textLength="289" x="176.5" y="323.7545">rejectRequest(EnrollmentRequest request)</text><text fill="#000000" font-family="sans-serif" font-size="14" lengthAdjust="spacing" textLength="150" x="176.5" y="340.2428">getPendingRequests()</text></g><!--class PersistenceContext--><g id="elem_PersistenceContext"><rect codeLine="39" fill="#F1F1F1" height="73.1094" id="PersistenceContext" rx="2.5" ry="2.5" style="stroke:#181818;stroke-width:0.5;" width="164" x="161" y="424.88"/><ellipse cx="176" cy="445.1905" fill="#ADD1B2" rx="11" ry="11" style="stroke:#181818;stroke-width:1.0;"/><path d="M178.9731,450.8336 Q178.3921,451.1324 177.7529,451.2819 Q177.1138,451.4313 176.4082,451.4313 Q173.9014,451.4313 172.5815,449.7794 Q171.2617,448.1276 171.2617,445.0065 Q171.2617,441.8771 172.5815,440.2252 Q173.9014,438.5734 176.4082,438.5734 Q177.1138,438.5734 177.7612,438.7228 Q178.4087,438.8722 178.9731,439.171 L178.9731,441.8937 Q178.3423,441.3126 177.7488,441.0428 Q177.1553,440.7731 176.5244,440.7731 Q175.1797,440.7731 174.4949,441.8397 Q173.8101,442.9064 173.8101,445.0065 Q173.8101,447.0983 174.4949,448.1649 Q175.1797,449.2316 176.5244,449.2316 Q177.1553,449.2316 177.7488,448.9618 Q178.3423,448.692 178.9731,448.111 Z " fill="#000000"/><text fill="#000000" font-family="sans-serif" font-size="12" font-style="italic" lengthAdjust="spacing" textLength="78" x="217" y="441.4816">&#171;persistence&#187;</text><text fill="#000000" font-family="sans-serif" font-size="14" lengthAdjust="spacing" textLength="132" x="190" y="457.548">PersistenceContext</text><line style="stroke:#181818;stroke-width:0.5;" x1="162" x2="324" y1="465.5011" y2="465.5011"/><line style="stroke:#181818;stroke-width:0.5;" x1="162" x2="324" y1="473.5011" y2="473.5011"/><text fill="#000000" font-family="sans-serif" font-size="14" lengthAdjust="spacing" textLength="92" x="167" y="491.0363">repositories()</text></g><!--class RepositoryFactory--><g id="elem_RepositoryFactory"><rect codeLine="43" fill="#F1F1F1" height="89.5977" id="RepositoryFactory" rx="2.5" ry="2.5" style="stroke:#181818;stroke-width:0.5;" width="159" x="163.5" y="574.99"/><ellipse cx="180.3" cy="595.3005" fill="#ADD1B2" rx="11" ry="11" style="stroke:#181818;stroke-width:1.0;"/><path d="M183.2731,600.9436 Q182.6921,601.2424 182.0529,601.3919 Q181.4138,601.5413 180.7082,601.5413 Q178.2014,601.5413 176.8815,599.8894 Q175.5617,598.2376 175.5617,595.1165 Q175.5617,591.9871 176.8815,590.3352 Q178.2014,588.6834 180.7082,588.6834 Q181.4138,588.6834 182.0612,588.8328 Q182.7087,588.9822 183.2731,589.281 L183.2731,592.0037 Q182.6423,591.4226 182.0488,591.1528 Q181.4553,590.8831 180.8244,590.8831 Q179.4797,590.8831 178.7949,591.9497 Q178.1101,593.0164 178.1101,595.1165 Q178.1101,597.2083 178.7949,598.2749 Q179.4797,599.3416 180.8244,599.3416 Q181.4553,599.3416 182.0488,599.0718 Q182.6423,598.802 183.2731,598.221 Z " fill="#000000"/><text fill="#000000" font-family="sans-serif" font-size="12" font-style="italic" lengthAdjust="spacing" textLength="51" x="230.7" y="591.5916">&#171;factory&#187;</text><text fill="#000000" font-family="sans-serif" font-size="14" lengthAdjust="spacing" textLength="123" x="194.7" y="607.658">RepositoryFactory</text><line style="stroke:#181818;stroke-width:0.5;" x1="164.5" x2="321.5" y1="615.6111" y2="615.6111"/><line style="stroke:#181818;stroke-width:0.5;" x1="164.5" x2="321.5" y1="623.6111" y2="623.6111"/><text fill="#000000" font-family="sans-serif" font-size="14" lengthAdjust="spacing" textLength="63" x="169.5" y="641.1463">courses()</text><text fill="#000000" font-family="sans-serif" font-size="14" lengthAdjust="spacing" textLength="147" x="169.5" y="657.6345">enrollmentRequests()</text></g><!--class CourseRepository--><g id="elem_CourseRepository"><rect codeLine="48" fill="#F1F1F1" height="73.1094" id="CourseRepository" rx="2.5" ry="2.5" style="stroke:#181818;stroke-width:0.5;" width="154" x="48" y="733.84"/><ellipse cx="63" cy="754.1505" fill="#ADD1B2" rx="11" ry="11" style="stroke:#181818;stroke-width:1.0;"/><path d="M65.9731,759.7936 Q65.3921,760.0924 64.7529,760.2419 Q64.1138,760.3913 63.4082,760.3913 Q60.9014,760.3913 59.5815,758.7394 Q58.2617,757.0876 58.2617,753.9665 Q58.2617,750.8371 59.5815,749.1852 Q60.9014,747.5334 63.4082,747.5334 Q64.1138,747.5334 64.7612,747.6828 Q65.4087,747.8322 65.9731,748.131 L65.9731,750.8537 Q65.3423,750.2726 64.7488,750.0028 Q64.1553,749.7331 63.5244,749.7331 Q62.1797,749.7331 61.4949,750.7997 Q60.8101,751.8664 60.8101,753.9665 Q60.8101,756.0583 61.4949,757.1249 Q62.1797,758.1916 63.5244,758.1916 Q64.1553,758.1916 64.7488,757.9218 Q65.3423,757.652 65.9731,757.071 Z " fill="#000000"/><text fill="#000000" font-family="sans-serif" font-size="12" font-style="italic" lengthAdjust="spacing" textLength="70" x="103" y="750.4416">&#171;repository&#187;</text><text fill="#000000" font-family="sans-serif" font-size="14" lengthAdjust="spacing" textLength="122" x="77" y="766.508">CourseRepository</text><line style="stroke:#181818;stroke-width:0.5;" x1="49" x2="201" y1="774.4611" y2="774.4611"/><line style="stroke:#181818;stroke-width:0.5;" x1="49" x2="201" y1="782.4611" y2="782.4611"/><text fill="#000000" font-family="sans-serif" font-size="14" lengthAdjust="spacing" textLength="139" x="54" y="799.9963">save(Course course)</text></g><!--class EnrollmentRequestRepository--><g id="elem_EnrollmentRequestRepository"><rect codeLine="52" fill="#F1F1F1" height="89.5977" id="EnrollmentRequestRepository" rx="2.5" ry="2.5" style="stroke:#181818;stroke-width:0.5;" width="238" x="237" y="725.59"/><ellipse cx="253.35" cy="745.9005" fill="#ADD1B2" rx="11" ry="11" style="stroke:#181818;stroke-width:1.0;"/><path d="M256.3231,751.5436 Q255.7421,751.8424 255.1029,751.9919 Q254.4638,752.1413 253.7582,752.1413 Q251.2514,752.1413 249.9315,750.4894 Q248.6117,748.8376 248.6117,745.7165 Q248.6117,742.5871 249.9315,740.9352 Q251.2514,739.2834 253.7582,739.2834 Q254.4638,739.2834 255.1112,739.4328 Q255.7587,739.5822 256.3231,739.881 L256.3231,742.6037 Q255.6923,742.0226 255.0988,741.7528 Q254.5053,741.4831 253.8744,741.4831 Q252.5297,741.4831 251.8449,742.5497 Q251.1601,743.6164 251.1601,745.7165 Q251.1601,747.8083 251.8449,748.8749 Q252.5297,749.9416 253.8744,749.9416 Q254.5053,749.9416 255.0988,749.6718 Q255.6923,749.402 256.3231,748.821 Z " fill="#000000"/><text fill="#000000" font-family="sans-serif" font-size="12" font-style="italic" lengthAdjust="spacing" textLength="70" x="334.15" y="742.1916">&#171;repository&#187;</text><text fill="#000000" font-family="sans-serif" font-size="14" lengthAdjust="spacing" textLength="203" x="267.65" y="758.258">EnrollmentRequestRepository</text><line style="stroke:#181818;stroke-width:0.5;" x1="238" x2="474" y1="766.2111" y2="766.2111"/><line style="stroke:#181818;stroke-width:0.5;" x1="238" x2="474" y1="774.2111" y2="774.2111"/><text fill="#000000" font-family="sans-serif" font-size="14" lengthAdjust="spacing" textLength="226" x="243" y="791.7463">save(EnrollmentRequest request)</text><text fill="#000000" font-family="sans-serif" font-size="14" lengthAdjust="spacing" textLength="155" x="243" y="808.2345">findPendingRequests()</text></g><!--class EnrollmentRequest--><g id="elem_EnrollmentRequest"><rect codeLine="19" fill="#F1F1F1" height="106.0859" id="EnrollmentRequest" rx="2.5" ry="2.5" style="stroke:#181818;stroke-width:0.5;" width="306" x="123" y="913.19"/><ellipse cx="206.75" cy="933.5005" fill="#ADD1B2" rx="11" ry="11" style="stroke:#181818;stroke-width:1.0;"/><path d="M209.7231,939.1436 Q209.1421,939.4424 208.5029,939.5919 Q207.8638,939.7413 207.1582,939.7413 Q204.6514,939.7413 203.3315,938.0894 Q202.0117,936.4376 202.0117,933.3165 Q202.0117,930.1871 203.3315,928.5352 Q204.6514,926.8834 207.1582,926.8834 Q207.8638,926.8834 208.5112,927.0328 Q209.1587,927.1822 209.7231,927.481 L209.7231,930.2037 Q209.0923,929.6226 208.4988,929.3528 Q207.9053,929.0831 207.2744,929.0831 Q205.9297,929.0831 205.2449,930.1497 Q204.5601,931.2164 204.5601,933.3165 Q204.5601,935.4083 205.2449,936.4749 Q205.9297,937.5416 207.2744,937.5416 Q207.9053,937.5416 208.4988,937.2718 Q209.0923,937.002 209.7231,936.421 Z " fill="#000000"/><text fill="#000000" font-family="sans-serif" font-size="12" font-style="italic" lengthAdjust="spacing" textLength="35" x="274.75" y="929.7916">&#171;root&#187;</text><text fill="#000000" font-family="sans-serif" font-size="14" lengthAdjust="spacing" textLength="130" x="227.25" y="945.858">EnrollmentRequest</text><line style="stroke:#181818;stroke-width:0.5;" x1="124" x2="428" y1="953.8111" y2="953.8111"/><line style="stroke:#181818;stroke-width:0.5;" x1="124" x2="428" y1="961.8111" y2="961.8111"/><text fill="#000000" font-family="sans-serif" font-size="14" lengthAdjust="spacing" textLength="294" x="129" y="979.3463">create(SystemUser student, Course course)</text><text fill="#000000" font-family="sans-serif" font-size="14" lengthAdjust="spacing" textLength="54" x="129" y="995.8345">accept()</text><text fill="#000000" font-family="sans-serif" font-size="14" lengthAdjust="spacing" textLength="48" x="129" y="1012.3228">reject()</text></g><!--class Course--><g id="elem_Course"><rect codeLine="25" fill="#F1F1F1" height="64.4883" id="Course" rx="2.5" ry="2.5" style="stroke:#181818;stroke-width:0.5;" width="81" x="70.5" y="1112.76"/><ellipse cx="85.5" cy="1128.76" fill="#ADD1B2" rx="11" ry="11" style="stroke:#181818;stroke-width:1.0;"/><path d="M88.4731,1134.4031 Q87.8921,1134.7019 87.2529,1134.8513 Q86.6138,1135.0007 85.9082,1135.0007 Q83.4014,1135.0007 82.0815,1133.3489 Q80.7617,1131.697 80.7617,1128.5759 Q80.7617,1125.4465 82.0815,1123.7947 Q83.4014,1122.1428 85.9082,1122.1428 Q86.6138,1122.1428 87.2612,1122.2922 Q87.9087,1122.4416 88.4731,1122.7405 L88.4731,1125.4631 Q87.8423,1124.8821 87.2488,1124.6123 Q86.6553,1124.3425 86.0244,1124.3425 Q84.6797,1124.3425 83.9949,1125.4092 Q83.3101,1126.4758 83.3101,1128.5759 Q83.3101,1130.6677 83.9949,1131.7344 Q84.6797,1132.801 86.0244,1132.801 Q86.6553,1132.801 87.2488,1132.5312 Q87.8423,1132.2615 88.4731,1131.6804 Z " fill="#000000"/><text fill="#000000" font-family="sans-serif" font-size="14" lengthAdjust="spacing" textLength="49" x="99.5" y="1134.051">Course</text><line style="stroke:#181818;stroke-width:0.5;" x1="71.5" x2="150.5" y1="1144.76" y2="1144.76"/><line style="stroke:#181818;stroke-width:0.5;" x1="71.5" x2="150.5" y1="1152.76" y2="1152.76"/><text fill="#000000" font-family="sans-serif" font-size="14" lengthAdjust="spacing" textLength="43" x="76.5" y="1170.2952">state()</text></g><!--class SystemUser--><g id="elem_SystemUser"><rect codeLine="29" fill="#F1F1F1" height="64.4883" id="SystemUser" rx="2.5" ry="2.5" style="stroke:#181818;stroke-width:0.5;" width="111" x="342.5" y="1112.76"/><ellipse cx="357.5" cy="1128.76" fill="#ADD1B2" rx="11" ry="11" style="stroke:#181818;stroke-width:1.0;"/><path d="M360.4731,1134.4031 Q359.8921,1134.7019 359.2529,1134.8513 Q358.6138,1135.0007 357.9082,1135.0007 Q355.4014,1135.0007 354.0815,1133.3489 Q352.7617,1131.697 352.7617,1128.5759 Q352.7617,1125.4465 354.0815,1123.7947 Q355.4014,1122.1428 357.9082,1122.1428 Q358.6138,1122.1428 359.2612,1122.2922 Q359.9087,1122.4416 360.4731,1122.7405 L360.4731,1125.4631 Q359.8423,1124.8821 359.2488,1124.6123 Q358.6553,1124.3425 358.0244,1124.3425 Q356.6797,1124.3425 355.9949,1125.4092 Q355.3101,1126.4758 355.3101,1128.5759 Q355.3101,1130.6677 355.9949,1131.7344 Q356.6797,1132.801 358.0244,1132.801 Q358.6553,1132.801 359.2488,1132.5312 Q359.8423,1132.2615 360.4731,1131.6804 Z " fill="#000000"/><text fill="#000000" font-family="sans-serif" font-size="14" lengthAdjust="spacing" textLength="79" x="371.5" y="1134.051">SystemUser</text><line style="stroke:#181818;stroke-width:0.5;" x1="343.5" x2="452.5" y1="1144.76" y2="1144.76"/><line style="stroke:#181818;stroke-width:0.5;" x1="343.5" x2="452.5" y1="1152.76" y2="1152.76"/><text fill="#000000" font-family="sans-serif" font-size="14" lengthAdjust="spacing" textLength="37" x="348.5" y="1170.2952">role()</text></g><!--class RequestState--><g id="elem_RequestState"><rect codeLine="33" fill="#F1F1F1" height="97.4648" id="RequestState" rx="2.5" ry="2.5" style="stroke:#181818;stroke-width:0.5;" width="121" x="186.5" y="1096.28"/><ellipse cx="201.5" cy="1112.28" fill="#EB937F" rx="11" ry="11" style="stroke:#181818;stroke-width:1.0;"/><path d="M205.6143,1118.28 L197.8945,1118.28 L197.8945,1105.8869 L205.6143,1105.8869 L205.6143,1108.0451 L200.3433,1108.0451 L200.3433,1110.718 L205.1162,1110.718 L205.1162,1112.8762 L200.3433,1112.8762 L200.3433,1116.1218 L205.6143,1116.1218 Z " fill="#000000"/><text fill="#000000" font-family="sans-serif" font-size="14" lengthAdjust="spacing" textLength="89" x="215.5" y="1117.571">RequestState</text><line style="stroke:#181818;stroke-width:0.5;" x1="187.5" x2="306.5" y1="1128.28" y2="1128.28"/><text fill="#000000" font-family="sans-serif" font-size="14" lengthAdjust="spacing" textLength="60" x="192.5" y="1145.8152">PENDING</text><text fill="#000000" font-family="sans-serif" font-size="14" lengthAdjust="spacing" textLength="73" x="192.5" y="1162.3034">ACCEPTED</text><text fill="#000000" font-family="sans-serif" font-size="14" lengthAdjust="spacing" textLength="67" x="192.5" y="1178.7917">DECLINED</text><line style="stroke:#181818;stroke-width:0.5;" x1="187.5" x2="306.5" y1="1185.7448" y2="1185.7448"/></g><!--class AuthorizationService--><g id="elem_AuthorizationService"><rect codeLine="59" fill="#F1F1F1" height="64.4883" id="AuthorizationService" rx="2.5" ry="2.5" style="stroke:#181818;stroke-width:0.5;" width="175" x="534.5" y="587.55"/><ellipse cx="549.5" cy="603.55" fill="#ADD1B2" rx="11" ry="11" style="stroke:#181818;stroke-width:1.0;"/><path d="M552.4731,609.1931 Q551.8921,609.4919 551.2529,609.6413 Q550.6138,609.7907 549.9082,609.7907 Q547.4014,609.7907 546.0815,608.1389 Q544.7617,606.487 544.7617,603.3659 Q544.7617,600.2365 546.0815,598.5847 Q547.4014,596.9328 549.9082,596.9328 Q550.6138,596.9328 551.2612,597.0822 Q551.9087,597.2316 552.4731,597.5305 L552.4731,600.2531 Q551.8423,599.6721 551.2488,599.4023 Q550.6553,599.1325 550.0244,599.1325 Q548.6797,599.1325 547.9949,600.1992 Q547.3101,601.2658 547.3101,603.3659 Q547.3101,605.4577 547.9949,606.5244 Q548.6797,607.591 550.0244,607.591 Q550.6553,607.591 551.2488,607.3212 Q551.8423,607.0515 552.4731,606.4704 Z " fill="#000000"/><text fill="#000000" font-family="sans-serif" font-size="14" lengthAdjust="spacing" textLength="143" x="563.5" y="608.841">AuthorizationService</text><line style="stroke:#181818;stroke-width:0.5;" x1="535.5" x2="708.5" y1="619.55" y2="619.55"/><line style="stroke:#181818;stroke-width:0.5;" x1="535.5" x2="708.5" y1="627.55" y2="627.55"/><text fill="#000000" font-family="sans-serif" font-size="14" lengthAdjust="spacing" textLength="61" x="540.5" y="645.0852">session()</text></g><!--class AuthzRegistry--><g id="elem_AuthzRegistry"><rect codeLine="63" fill="#F1F1F1" height="64.4883" id="AuthzRegistry" rx="2.5" ry="2.5" style="stroke:#181818;stroke-width:0.5;" width="163" x="537.5" y="429.2"/><ellipse cx="568.25" cy="445.2" fill="#ADD1B2" rx="11" ry="11" style="stroke:#181818;stroke-width:1.0;"/><path d="M571.2231,450.8431 Q570.6421,451.1419 570.0029,451.2913 Q569.3638,451.4407 568.6582,451.4407 Q566.1514,451.4407 564.8315,449.7889 Q563.5117,448.137 563.5117,445.0159 Q563.5117,441.8865 564.8315,440.2347 Q566.1514,438.5828 568.6582,438.5828 Q569.3638,438.5828 570.0112,438.7322 Q570.6587,438.8816 571.2231,439.1805 L571.2231,441.9031 Q570.5923,441.3221 569.9988,441.0523 Q569.4053,440.7825 568.7744,440.7825 Q567.4297,440.7825 566.7449,441.8492 Q566.0601,442.9158 566.0601,445.0159 Q566.0601,447.1077 566.7449,448.1744 Q567.4297,449.241 568.7744,449.241 Q569.4053,449.241 569.9988,448.9712 Q570.5923,448.7015 571.2231,448.1204 Z " fill="#000000"/><text fill="#000000" font-family="sans-serif" font-size="14" lengthAdjust="spacing" textLength="96" x="585.75" y="450.491">AuthzRegistry</text><line style="stroke:#181818;stroke-width:0.5;" x1="538.5" x2="699.5" y1="461.2" y2="461.2"/><line style="stroke:#181818;stroke-width:0.5;" x1="538.5" x2="699.5" y1="469.2" y2="469.2"/><text fill="#000000" font-family="sans-serif" font-size="14" lengthAdjust="spacing" textLength="151" x="543.5" y="486.7352">authorizationService()</text></g><!--class UserSession--><g id="elem_UserSession"><rect codeLine="67" fill="#F1F1F1" height="64.4883" id="UserSession" rx="2.5" ry="2.5" style="stroke:#181818;stroke-width:0.5;" width="147" x="541.5" y="738.15"/><ellipse cx="570.9" cy="754.15" fill="#ADD1B2" rx="11" ry="11" style="stroke:#181818;stroke-width:1.0;"/><path d="M573.8731,759.7931 Q573.2921,760.0919 572.6529,760.2413 Q572.0138,760.3907 571.3082,760.3907 Q568.8014,760.3907 567.4815,758.7389 Q566.1617,757.087 566.1617,753.9659 Q566.1617,750.8365 567.4815,749.1847 Q568.8014,747.5328 571.3082,747.5328 Q572.0138,747.5328 572.6612,747.6822 Q573.3087,747.8316 573.8731,748.1305 L573.8731,750.8531 Q573.2423,750.2721 572.6488,750.0023 Q572.0553,749.7325 571.4244,749.7325 Q570.0797,749.7325 569.3949,750.7992 Q568.7101,751.8658 568.7101,753.9659 Q568.7101,756.0577 569.3949,757.1244 Q570.0797,758.191 571.4244,758.191 Q572.0553,758.191 572.6488,757.9212 Q573.2423,757.6515 573.8731,757.0704 Z " fill="#000000"/><text fill="#000000" font-family="sans-serif" font-size="14" lengthAdjust="spacing" textLength="83" x="588.1" y="759.441">UserSession</text><line style="stroke:#181818;stroke-width:0.5;" x1="542.5" x2="687.5" y1="770.15" y2="770.15"/><line style="stroke:#181818;stroke-width:0.5;" x1="542.5" x2="687.5" y1="778.15" y2="778.15"/><text fill="#000000" font-family="sans-serif" font-size="14" lengthAdjust="spacing" textLength="135" x="547.5" y="795.6852">authenticatedUser()</text></g><!--link EnrollmentRequest to Course--><g id="link_EnrollmentRequest_Course"><path codeLine="71" d="M227.39,1019.31 C202.68,1045.78 173.07,1077.5 149.9,1102.33 " fill="none" id="EnrollmentRequest-to-Course" style="stroke:#181818;stroke-width:1.0;"/><polygon fill="#181818" points="141.4,1111.51,148.4186,1109.8548,149.5902,1102.7395,142.5716,1104.3947,141.4,1111.51" style="stroke:#181818;stroke-width:1.0;"/><text fill="#000000" font-family="sans-serif" font-size="13" lengthAdjust="spacing" textLength="13" x="199" y="1062.8484">of</text></g><!--link EnrollmentRequest to SystemUser--><g id="link_EnrollmentRequest_SystemUser"><path codeLine="72" d="M311.94,1019.31 C329.88,1045.31 351.32,1076.37 368.31,1100.99 " fill="none" id="EnrollmentRequest-to-SystemUser" style="stroke:#181818;stroke-width:1.0;"/><polygon fill="#181818" points="376.26,1111.51,376.1435,1104.2998,369.4432,1101.6342,369.5597,1108.8444,376.26,1111.51" style="stroke:#181818;stroke-width:1.0;"/><polygon fill="#000000" points="346.16,1053.8201,348.8788,1062.9338,353.7164,1059.5952,346.16,1053.8201" style="stroke:#000000;stroke-width:1.0;"/><text fill="#000000" font-family="sans-serif" font-size="13" lengthAdjust="spacing" textLength="41" x="358" y="1062.8484">makes</text></g><!--link EnrollmentRequest to RequestState--><g id="link_EnrollmentRequest_RequestState"><path codeLine="73" d="M267.46,1019.31 C264.23,1039.01 260.52,1061.61 257.15,1082.12 " fill="none" id="EnrollmentRequest-to-RequestState" style="stroke:#181818;stroke-width:1.0;"/><polygon fill="#181818" points="254.89,1094.92,259.8067,1089.645,256.8286,1083.0776,251.9118,1088.3526,254.89,1094.92" style="stroke:#181818;stroke-width:1.0;"/><text fill="#000000" font-family="sans-serif" font-size="13" lengthAdjust="spacing" textLength="22" x="263" y="1062.8484">has</text></g><!--link EnrollmentRequestRepository to EnrollmentRequest--><g id="link_EnrollmentRequestRepository_EnrollmentRequest"><path codeLine="75" d="M337.85,815.38 C326.61,842.61 312.05,877.89 299.88,907.38 " fill="none" id="EnrollmentRequestRepository-to-EnrollmentRequest" style="stroke:#181818;stroke-width:1.0;"/><polygon fill="#181818" points="297.63,911.81,304.766,905.022,299.5409,907.1896,297.3733,901.9645,297.63,911.81" style="stroke:#181818;stroke-width:1.0;"/><polygon fill="#000000" points="328.0925,858.4671,334.2599,851.2273,328.8266,848.9849,328.0925,858.4671" style="stroke:#000000;stroke-width:1.0;"/><text fill="#000000" font-family="sans-serif" font-size="13" lengthAdjust="spacing" textLength="39" x="339" y="858.7584">stores</text></g><!--link AcceptRejectEnrollmentUI to AcceptRejectEnrollmentController--><g id="link_AcceptRejectEnrollmentUI_AcceptRejectEnrollmentController"><path codeLine="77" d="M324,157.53 C324,179.91 324,209.22 324,234.86 " fill="none" id="AcceptRejectEnrollmentUI-to-AcceptRejectEnrollmentController" style="stroke:#181818;stroke-width:1.0;stroke-dasharray:7.0,7.0;"/><polygon fill="#181818" points="324,239.62,328,230.62,324,234.62,320,230.62,324,239.62" style="stroke:#181818;stroke-width:1.0;"/></g><!--link AcceptRejectEnrollmentController to AuthzRegistry--><g id="link_AcceptRejectEnrollmentController_AuthzRegistry"><path codeLine="79" d="M423.73,347.61 C446.91,360.07 471.4,373.44 494,386.2 C516.39,398.83 540.74,413.16 561.96,425.84 " fill="none" id="AcceptRejectEnrollmentController-to-AuthzRegistry" style="stroke:#181818;stroke-width:1.0;stroke-dasharray:7.0,7.0;"/><polygon fill="#181818" points="566,428.85,560.3405,420.7896,561.7125,426.2775,556.2246,427.6495,566,428.85" style="stroke:#181818;stroke-width:1.0;"/></g><!--link AcceptRejectEnrollmentController to AuthorizationService--><g id="link_AcceptRejectEnrollmentController_AuthorizationService"><path codeLine="80" d="M372.21,347.51 C433.06,413.59 536.12,525.52 588.81,582.75 " fill="none" id="AcceptRejectEnrollmentController-to-AuthorizationService" style="stroke:#181818;stroke-width:1.0;"/><polygon fill="#181818" points="591.83,586.11,588.6873,576.776,588.4475,582.4278,582.7957,582.188,591.83,586.11" style="stroke:#181818;stroke-width:1.0;"/></g><!--link AcceptRejectEnrollmentController to PersistenceContext--><g id="link_AcceptRejectEnrollmentController_PersistenceContext"><path codeLine="81" d="M298.37,347.45 C287,370.65 273.81,397.56 263.16,419.3 " fill="none" id="AcceptRejectEnrollmentController-to-PersistenceContext" style="stroke:#181818;stroke-width:1.0;stroke-dasharray:7.0,7.0;"/><polygon fill="#181818" points="260.65,423.42,268.2044,417.1009,262.8517,418.9308,261.0217,413.5782,260.65,423.42" style="stroke:#181818;stroke-width:1.0;"/></g><!--link PersistenceContext to RepositoryFactory--><g id="link_PersistenceContext_RepositoryFactory"><path codeLine="82" d="M243,498.31 C243,519.25 243,546 243,568.96 " fill="none" id="PersistenceContext-to-RepositoryFactory" style="stroke:#181818;stroke-width:1.0;stroke-dasharray:7.0,7.0;"/><polygon fill="#181818" points="243,573.72,247,564.72,243,568.72,239,564.72,243,573.72" style="stroke:#181818;stroke-width:1.0;"/></g><!--link RepositoryFactory to EnrollmentRequestRepository--><g id="link_RepositoryFactory_EnrollmentRequestRepository"><path codeLine="83" d="M276.6,664.97 C289.91,682.48 305.27,702.68 318.91,720.61 " fill="none" id="RepositoryFactory-to-EnrollmentRequestRepository" style="stroke:#181818;stroke-width:1.0;stroke-dasharray:7.0,7.0;"/><polygon fill="#181818" points="322.34,724.12,320.0632,714.5379,319.3081,720.1442,313.7018,719.389,322.34,724.12" style="stroke:#181818;stroke-width:1.0;"/></g><!--link RepositoryFactory to CourseRepository--><g id="link_RepositoryFactory_CourseRepository"><path codeLine="84" d="M207.92,664.97 C191.81,685.25 172.85,709.13 157.13,728.93 " fill="none" id="RepositoryFactory-to-CourseRepository" style="stroke:#181818;stroke-width:1.0;stroke-dasharray:7.0,7.0;"/><polygon fill="#181818" points="153.41,732.61,162.1436,728.0576,156.523,728.6973,155.8833,723.0767,153.41,732.61" style="stroke:#181818;stroke-width:1.0;"/></g><!--link AcceptRejectEnrollmentController to EnrollmentRequestRepository--><g id="link_AcceptRejectEnrollmentController_EnrollmentRequestRepository"><path codeLine="85" d="M336.5,347.37 C339.08,360.01 341.48,373.53 343,386.2 C357.33,505.19 357.93,646.37 357.03,719.65 " fill="none" id="AcceptRejectEnrollmentController-to-EnrollmentRequestRepository" style="stroke:#181818;stroke-width:1.0;"/><polygon fill="#181818" points="356.96,724.24,361.0626,715.2863,357.0171,719.2403,353.0631,715.1949,356.96,724.24" style="stroke:#181818;stroke-width:1.0;"/><text fill="#000000" font-family="sans-serif" font-size="13" lengthAdjust="spacing" textLength="64" x="355" y="541.5584">repository</text></g><!--link AcceptRejectEnrollmentController to CourseRepository--><g id="link_AcceptRejectEnrollmentController_CourseRepository"><path codeLine="86" d="M180.91,347.54 C166.09,358.24 152.86,371 143,386.2 C73.9,492.63 97.69,652.9 114.37,727.91 " fill="none" id="AcceptRejectEnrollmentController-to-CourseRepository" style="stroke:#181818;stroke-width:1.0;"/><polygon fill="#181818" points="115.66,732.6,117.5794,722.94,114.5587,727.7228,109.7759,724.7021,115.66,732.6" style="stroke:#181818;stroke-width:1.0;"/><text fill="#000000" font-family="sans-serif" font-size="13" lengthAdjust="spacing" textLength="64" x="99" y="541.5584">repository</text></g><!--link AuthzRegistry to AuthorizationService--><g id="link_AuthzRegistry_AuthorizationService"><path codeLine="88" d="M619.61,494.08 C620.09,519.3 620.77,554.68 621.28,581.31 " fill="none" id="AuthzRegistry-to-AuthorizationService" style="stroke:#181818;stroke-width:1.0;stroke-dasharray:7.0,7.0;"/><polygon fill="#181818" points="621.39,586.2,625.2351,577.1328,621.3043,581.2007,617.2363,577.2699,621.39,586.2" style="stroke:#181818;stroke-width:1.0;"/></g><!--link AuthorizationService to UserSession--><g id="link_AuthorizationService_UserSession"><path codeLine="89" d="M620.52,652.31 C619.42,675.57 617.92,707.33 616.77,731.9 " fill="none" id="AuthorizationService-to-UserSession" style="stroke:#181818;stroke-width:1.0;"/><polygon fill="#181818" points="616.49,736.67,620.8968,727.8621,616.7183,731.6752,612.9052,727.4967,616.49,736.67" style="stroke:#181818;stroke-width:1.0;"/></g><!--link UserSession to SystemUser--><g id="link_UserSession_SystemUser"><path codeLine="90" d="M596.69,802.84 C556.72,871.46 461.87,1034.33 419.31,1107.41 " fill="none" id="UserSession-to-SystemUser" style="stroke:#181818;stroke-width:1.0;"/><polygon fill="#181818" points="416.34,1111.51,424.3276,1105.7482,418.8576,1107.1901,417.4157,1101.7201,416.34,1111.51" style="stroke:#181818;stroke-width:1.0;"/></g><!--SRC=[ZLJRZjem47ttL_YjeIhx0IYAj0ffXLGXHBeVO3b3S3U9Ku-pBQ3zzzgv6f80y11xVEPuRiTVCZXegYLL8ZrgcWW5N0jPa9BnTvO21IuhXN3f3QK2X48pYxeGdZ54-ievb7eFlurpL2YPPRc1l6sexxlm8BWGQdw9Z8_ohxSWd-RV4tEfp3Lt6KDPQBi6PPXPMMQ2Nn6prkjF1QYzmQ-rKDLy5pLOrUHFWbFGEoWIKQJjCTRXzy4dCcUYhyUOpFULbBgBaojW6hpuX1hoDpJfeAuI0_z6mxhSjAdwmidASwDkBcyk2zi6sLFKbjSv7Ave02QkzXoAAgTjUB5rQm2xQBlUR7_KwzSmZ7Q_edMzMKVXpytMR6pJ6l8TA1I6l-1WEmF_R9xbOEpILL1A55eg0UW6j-_if- -CsuznFpIh8A1jgUhiiCqURWkBuqeChBRg_QOB1ja7U3TLxXb6ZPibemxRWzavY2AP79xFVdnOfO_dNarcOsfrhaSx1lKXUDTUG3GsDsSBFkyXDILNfrO54_wkYvs6k66YWuU9tge94dlSQdESs7BvjHlH5PM76OGps2kQitT0wiz0tGaqu2D3GkvrORaC9kIrCfDldW-a0I6pZz7BI_3mNPbpTrwUciQj-cCN6_HKLv-xR2mpCg4yYnm9YembPd5t2ZpZSIkjvtA-ryZLy2myoJQIznK5kUf9twLnoIUCDRqZ2-9An9uD0qt-0m00]--></g></svg>