<?xml version="1.0" encoding="us-ascii" standalone="no"?><svg xmlns="http://www.w3.org/2000/svg" xmlns:xlink="http://www.w3.org/1999/xlink" contentStyleType="text/css" height="1124px" preserveAspectRatio="none" style="width:1584px;height:1124px;background:#FFFFFF;" version="1.1" viewBox="0 0 1584 1124" width="1584px" zoomAndPan="magnify"><defs/><g><rect fill="#FFFFFF" height="23.4484" style="stroke:#181818;stroke-width:0.8000000000000002;" width="8" x="212.4" y="92.2297"/><rect fill="#FFFFFF" height="895.0938" style="stroke:#181818;stroke-width:0.8000000000000002;" width="8" x="212.4" y="139.1266"/><rect fill="#FFFFFF" height="801.3" style="stroke:#181818;stroke-width:0.8000000000000002;" width="8" x="369.2" y="209.4719"/><rect fill="#FFFFFF" height="23.4484" style="stroke:#181818;stroke-width:0.8000000000000002;" width="8" x="671.6" y="162.575"/><rect fill="#FFFFFF" height="23.4484" style="stroke:#181818;stroke-width:0.8000000000000002;" width="8" x="786.4" y="407.4594"/><rect fill="#FFFFFF" height="23.4484" style="stroke:#181818;stroke-width:0.8000000000000002;" width="8" x="915.6" y="232.9203"/><rect fill="#FFFFFF" height="23.4484" style="stroke:#181818;stroke-width:0.8000000000000002;" width="8" x="1036.8" y="279.8172"/><rect fill="#FFFFFF" height="23.4484" style="stroke:#181818;stroke-width:0.8000000000000002;" width="8" x="1036.8" y="326.7141"/><rect fill="#FFFFFF" height="23.4484" style="stroke:#181818;stroke-width:0.8000000000000002;" width="8" x="1293.6" y="963.875"/><rect fill="#FFFFFF" height="25.1906" style="stroke:#181818;stroke-width:0.8000000000000002;" width="8" x="1442.8" y="915.2359"/><rect fill="#FFFFFF" height="423.8313" style="stroke:#181818;stroke-width:0.8000000000000002;" width="8" x="1537.6" y="454.3563"/><rect fill="none" height="96.1578" style="stroke:#000000;stroke-width:1.2000000000000002;" width="1570.8" x="8" y="466.3563"/><rect fill="none" height="96.1578" style="stroke:#000000;stroke-width:1.2000000000000002;" width="1570.8" x="8" y="573.7141"/><rect fill="none" height="96.1578" style="stroke:#000000;stroke-width:1.2000000000000002;" width="1570.8" x="8" y="681.0719"/><rect fill="none" height="96.1578" style="stroke:#000000;stroke-width:1.2000000000000002;" width="1570.8" x="8" y="788.4297"/><line style="stroke:#181818;stroke-width:0.4000000000000001;stroke-dasharray:5.0,5.0;" x1="39.2" x2="39.2" y1="67.1813" y2="1048.6203"/><line style="stroke:#181818;stroke-width:0.4000000000000001;stroke-dasharray:5.0,5.0;" x1="216.4" x2="216.4" y1="67.1813" y2="1048.6203"/><line style="stroke:#181818;stroke-width:0.4000000000000001;stroke-dasharray:5.0,5.0;" x1="373.2" x2="373.2" y1="67.1813" y2="1048.6203"/><line style="stroke:#181818;stroke-width:0.4000000000000001;stroke-dasharray:5.0,5.0;" x1="675.6" x2="675.6" y1="67.1813" y2="1048.6203"/><line style="stroke:#181818;stroke-width:0.4000000000000001;stroke-dasharray:5.0,5.0;" x1="790" x2="790" y1="67.1813" y2="1048.6203"/><line style="stroke:#181818;stroke-width:0.4000000000000001;stroke-dasharray:5.0,5.0;" x1="919.6" x2="919.6" y1="67.1813" y2="1048.6203"/><line style="stroke:#181818;stroke-width:0.4000000000000001;stroke-dasharray:5.0,5.0;" x1="1040.4" x2="1040.4" y1="67.1813" y2="1048.6203"/><line style="stroke:#181818;stroke-width:0.4000000000000001;stroke-dasharray:5.0,5.0;" x1="1154.8" x2="1154.8" y1="67.1813" y2="1048.6203"/><line style="stroke:#181818;stroke-width:0.4000000000000001;stroke-dasharray:5.0,5.0;" x1="1297.2" x2="1297.2" y1="67.1813" y2="1048.6203"/><line style="stroke:#181818;stroke-width:0.4000000000000001;stroke-dasharray:5.0,5.0;" x1="1446.8" x2="1446.8" y1="914.7828" y2="1048.6203"/><line style="stroke:#181818;stroke-width:0.4000000000000001;stroke-dasharray:5.0,5.0;" x1="1541.2" x2="1541.2" y1="67.1813" y2="1048.6203"/><text fill="#000000" font-family="sans-serif" font-size="11.2" lengthAdjust="spacing" textLength="42.4" x="16" y="64.8188">Student</text><ellipse cx="39.6" cy="12.7906" fill="#E2E2F0" rx="6.4" ry="6.4" style="stroke:#181818;stroke-width:0.4000000000000001;"/><path d="M39.6,19.1906 L39.6,40.7906 M29.2,25.5906 L50,25.5906 M39.6,40.7906 L29.2,52.7906 M39.6,40.7906 L50,52.7906 " fill="none" style="stroke:#181818;stroke-width:0.4000000000000001;"/><text fill="#000000" font-family="sans-serif" font-size="11.2" lengthAdjust="spacing" textLength="42.4" x="16" y="1058.6484">Student</text><ellipse cx="39.6" cy="1067.8109" fill="#E2E2F0" rx="6.4" ry="6.4" style="stroke:#181818;stroke-width:0.4000000000000001;"/><path d="M39.6,1074.2109 L39.6,1095.8109 M29.2,1080.6109 L50,1080.6109 M39.6,1095.8109 L29.2,1107.8109 M39.6,1095.8109 L50,1107.8109 " fill="none" style="stroke:#181818;stroke-width:0.4000000000000001;"/><rect fill="#E2E2F0" height="37.5813" rx="2" ry="2" style="stroke:#181818;stroke-width:0.4000000000000001;" width="126.4" x="153.2" y="28.8"/><text fill="#000000" font-family="sans-serif" font-size="11.2" font-style="italic" lengthAdjust="spacing" textLength="80.8" x="176" y="45.2281">&#171;presentation&#187;</text><text fill="#000000" font-family="sans-serif" font-size="11.2" lengthAdjust="spacing" textLength="115.2" x="158.8" y="58.4188">RequestEnrollmentUI</text><rect fill="#E2E2F0" height="37.5813" rx="2" ry="2" style="stroke:#181818;stroke-width:0.4000000000000001;" width="126.4" x="153.2" y="1047.8203"/><text fill="#000000" font-family="sans-serif" font-size="11.2" font-style="italic" lengthAdjust="spacing" textLength="80.8" x="176" y="1064.2484">&#171;presentation&#187;</text><text fill="#000000" font-family="sans-serif" font-size="11.2" lengthAdjust="spacing" textLength="115.2" x="158.8" y="1077.4391">RequestEnrollmentUI</text><rect fill="#E2E2F0" height="37.5813" rx="2" ry="2" style="stroke:#181818;stroke-width:0.4000000000000001;" width="171.2" x="287.6" y="28.8"/><text fill="#000000" font-family="sans-serif" font-size="11.2" font-style="italic" lengthAdjust="spacing" textLength="72" x="337.2" y="45.2281">&#171;application&#187;</text><text fill="#000000" font-family="sans-serif" font-size="11.2" lengthAdjust="spacing" textLength="160" x="293.2" y="58.4188">RequestEnrollmentController</text><rect fill="#E2E2F0" height="37.5813" rx="2" ry="2" style="stroke:#181818;stroke-width:0.4000000000000001;" width="171.2" x="287.6" y="1047.8203"/><text fill="#000000" font-family="sans-serif" font-size="11.2" font-style="italic" lengthAdjust="spacing" textLength="72" x="337.2" y="1064.2484">&#171;application&#187;</text><text fill="#000000" font-family="sans-serif" font-size="11.2" lengthAdjust="spacing" textLength="160" x="293.2" y="1077.4391">RequestEnrollmentController</text><rect fill="#E2E2F0" height="24.3906" rx="2" ry="2" style="stroke:#181818;stroke-width:0.4000000000000001;" width="88" x="631.6" y="41.9906"/><text fill="#000000" font-family="sans-serif" font-size="11.2" lengthAdjust="spacing" textLength="76.8" x="637.2" y="58.4188">AuthzRegistry</text><rect fill="#E2E2F0" height="24.3906" rx="2" ry="2" style="stroke:#181818;stroke-width:0.4000000000000001;" width="88" x="631.6" y="1047.8203"/><text fill="#000000" font-family="sans-serif" font-size="11.2" lengthAdjust="spacing" textLength="76.8" x="637.2" y="1064.2484">AuthzRegistry</text><rect fill="#E2E2F0" height="37.5813" rx="2" ry="2" style="stroke:#181818;stroke-width:0.4000000000000001;" width="125.6" x="727.6" y="28.8"/><text fill="#000000" font-family="sans-serif" font-size="11.2" font-style="italic" lengthAdjust="spacing" textLength="48.8" x="766" y="45.2281">&#171;service&#187;</text><text fill="#000000" font-family="sans-serif" font-size="11.2" lengthAdjust="spacing" textLength="114.4" x="733.2" y="58.4188">AuthorizationService</text><rect fill="#E2E2F0" height="37.5813" rx="2" ry="2" style="stroke:#181818;stroke-width:0.4000000000000001;" width="125.6" x="727.6" y="1047.8203"/><text fill="#000000" font-family="sans-serif" font-size="11.2" font-style="italic" lengthAdjust="spacing" textLength="48.8" x="766" y="1064.2484">&#171;service&#187;</text><text fill="#000000" font-family="sans-serif" font-size="11.2" lengthAdjust="spacing" textLength="114.4" x="733.2" y="1077.4391">AuthorizationService</text><rect fill="#E2E2F0" height="37.5813" rx="2" ry="2" style="stroke:#181818;stroke-width:0.4000000000000001;" width="116.8" x="861.2" y="28.8"/><text fill="#000000" font-family="sans-serif" font-size="11.2" font-style="italic" lengthAdjust="spacing" textLength="73.6" x="882.8" y="45.2281">&#171;persistence&#187;</text><text fill="#000000" font-family="sans-serif" font-size="11.2" lengthAdjust="spacing" textLength="105.6" x="866.8" y="58.4188">PersistenceContext</text><rect fill="#E2E2F0" height="37.5813" rx="2" ry="2" style="stroke:#181818;stroke-width:0.4000000000000001;" width="116.8" x="861.2" y="1047.8203"/><text fill="#000000" font-family="sans-serif" font-size="11.2" font-style="italic" lengthAdjust="spacing" textLength="73.6" x="882.8" y="1064.2484">&#171;persistence&#187;</text><text fill="#000000" font-family="sans-serif" font-size="11.2" lengthAdjust="spacing" textLength="105.6" x="866.8" y="1077.4391">PersistenceContext</text><rect fill="#E2E2F0" height="37.5813" rx="2" ry="2" style="stroke:#181818;stroke-width:0.4000000000000001;" width="109.6" x="986" y="28.8"/><text fill="#000000" font-family="sans-serif" font-size="11.2" font-style="italic" lengthAdjust="spacing" textLength="48.8" x="1016.4" y="45.2281">&#171;factory&#187;</text><text fill="#000000" font-family="sans-serif" font-size="11.2" lengthAdjust="spacing" textLength="98.4" x="991.6" y="58.4188">RepositoryFactory</text><rect fill="#E2E2F0" height="37.5813" rx="2" ry="2" style="stroke:#181818;stroke-width:0.4000000000000001;" width="109.6" x="986" y="1047.8203"/><text fill="#000000" font-family="sans-serif" font-size="11.2" font-style="italic" lengthAdjust="spacing" textLength="48.8" x="1016.4" y="1064.2484">&#171;factory&#187;</text><text fill="#000000" font-family="sans-serif" font-size="11.2" lengthAdjust="spacing" textLength="98.4" x="991.6" y="1077.4391">RepositoryFactory</text><text fill="#000000" font-family="sans-serif" font-size="11.2" font-style="italic" lengthAdjust="spacing" textLength="67.2" x="1118.8" y="51.6281">&#171;repository&#187;</text><text fill="#000000" font-family="sans-serif" font-size="11.2" lengthAdjust="spacing" textLength="97.6" x="1103.6" y="64.8188">CourseRepository</text><path d="M1140.4,12 C1140.4,4 1154.8,4 1154.8,4 C1154.8,4 1169.2,4 1169.2,12 L1169.2,32.8 C1169.2,40.8 1154.8,40.8 1154.8,40.8 C1154.8,40.8 1140.4,40.8 1140.4,32.8 L1140.4,12 " fill="#E2E2F0" style="stroke:#181818;stroke-width:1.2000000000000002;"/><path d="M1140.4,12 C1140.4,20 1154.8,20 1154.8,20 C1154.8,20 1169.2,20 1169.2,12 " fill="none" style="stroke:#181818;stroke-width:1.2000000000000002;"/><text fill="#000000" font-family="sans-serif" font-size="11.2" font-style="italic" lengthAdjust="spacing" textLength="67.2" x="1118.8" y="1058.6484">&#171;repository&#187;</text><text fill="#000000" font-family="sans-serif" font-size="11.2" lengthAdjust="spacing" textLength="97.6" x="1103.6" y="1071.8391">CourseRepository</text><path d="M1140.4,1082.2016 C1140.4,1074.2016 1154.8,1074.2016 1154.8,1074.2016 C1154.8,1074.2016 1169.2,1074.2016 1169.2,1082.2016 L1169.2,1103.0016 C1169.2,1111.0016 1154.8,1111.0016 1154.8,1111.0016 C1154.8,1111.0016 1140.4,1111.0016 1140.4,1103.0016 L1140.4,1082.2016 " fill="#E2E2F0" style="stroke:#181818;stroke-width:1.2000000000000002;"/><path d="M1140.4,1082.2016 C1140.4,1090.2016 1154.8,1090.2016 1154.8,1090.2016 C1154.8,1090.2016 1169.2,1090.2016 1169.2,1082.2016 " fill="none" style="stroke:#181818;stroke-width:1.2000000000000002;"/><text fill="#000000" font-family="sans-serif" font-size="11.2" font-style="italic" lengthAdjust="spacing" textLength="67.2" x="1261.6" y="51.6281">&#171;repository&#187;</text><text fill="#000000" font-family="sans-serif" font-size="11.2" lengthAdjust="spacing" textLength="162.4" x="1214" y="64.8188">EnrollmentRequestRepository</text><path d="M1283.2,12 C1283.2,4 1297.6,4 1297.6,4 C1297.6,4 1312,4 1312,12 L1312,32.8 C1312,40.8 1297.6,40.8 1297.6,40.8 C1297.6,40.8 1283.2,40.8 1283.2,32.8 L1283.2,12 " fill="#E2E2F0" style="stroke:#181818;stroke-width:1.2000000000000002;"/><path d="M1283.2,12 C1283.2,20 1297.6,20 1297.6,20 C1297.6,20 1312,20 1312,12 " fill="none" style="stroke:#181818;stroke-width:1.2000000000000002;"/><text fill="#000000" font-family="sans-serif" font-size="11.2" font-style="italic" lengthAdjust="spacing" textLength="67.2" x="1261.6" y="1058.6484">&#171;repository&#187;</text><text fill="#000000" font-family="sans-serif" font-size="11.2" lengthAdjust="spacing" textLength="162.4" x="1214" y="1071.8391">EnrollmentRequestRepository</text><path d="M1283.2,1082.2016 C1283.2,1074.2016 1297.6,1074.2016 1297.6,1074.2016 C1297.6,1074.2016 1312,1074.2016 1312,1082.2016 L1312,1103.0016 C1312,1111.0016 1297.6,1111.0016 1297.6,1111.0016 C1297.6,1111.0016 1283.2,1111.0016 1283.2,1103.0016 L1283.2,1082.2016 " fill="#E2E2F0" style="stroke:#181818;stroke-width:1.2000000000000002;"/><path d="M1283.2,1082.2016 C1283.2,1090.2016 1297.6,1090.2016 1297.6,1090.2016 C1297.6,1090.2016 1312,1090.2016 1312,1082.2016 " fill="none" style="stroke:#181818;stroke-width:1.2000000000000002;"/><rect fill="#E2E2F0" height="24.3906" rx="2" ry="2" style="stroke:#181818;stroke-width:0.4000000000000001;" width="115.2" x="1389.2" y="1047.8203"/><text fill="#000000" font-family="sans-serif" font-size="11.2" lengthAdjust="spacing" textLength="104" x="1394.8" y="1064.2484">EnrollmentRequest</text><rect fill="#E2E2F0" height="24.3906" rx="2" ry="2" style="stroke:#181818;stroke-width:0.4000000000000001;" width="58.4" x="1512.4" y="41.9906"/><text fill="#000000" font-family="sans-serif" font-size="11.2" lengthAdjust="spacing" textLength="47.2" x="1518" y="58.4188">Optional</text><rect fill="#E2E2F0" height="24.3906" rx="2" ry="2" style="stroke:#181818;stroke-width:0.4000000000000001;" width="58.4" x="1512.4" y="1047.8203"/><text fill="#000000" font-family="sans-serif" font-size="11.2" lengthAdjust="spacing" textLength="47.2" x="1518" y="1064.2484">Optional</text><rect fill="#FFFFFF" height="23.4484" style="stroke:#181818;stroke-width:0.8000000000000002;" width="8" x="212.4" y="92.2297"/><rect fill="#FFFFFF" height="895.0938" style="stroke:#181818;stroke-width:0.8000000000000002;" width="8" x="212.4" y="139.1266"/><rect fill="#FFFFFF" height="801.3" style="stroke:#181818;stroke-width:0.8000000000000002;" width="8" x="369.2" y="209.4719"/><rect fill="#FFFFFF" height="23.4484" style="stroke:#181818;stroke-width:0.8000000000000002;" width="8" x="671.6" y="162.575"/><rect fill="#FFFFFF" height="23.4484" style="stroke:#181818;stroke-width:0.8000000000000002;" width="8" x="786.4" y="407.4594"/><rect fill="#FFFFFF" height="23.4484" style="stroke:#181818;stroke-width:0.8000000000000002;" width="8" x="915.6" y="232.9203"/><rect fill="#FFFFFF" height="23.4484" style="stroke:#181818;stroke-width:0.8000000000000002;" width="8" x="1036.8" y="279.8172"/><rect fill="#FFFFFF" height="23.4484" style="stroke:#181818;stroke-width:0.8000000000000002;" width="8" x="1036.8" y="326.7141"/><rect fill="#FFFFFF" height="23.4484" style="stroke:#181818;stroke-width:0.8000000000000002;" width="8" x="1293.6" y="963.875"/><rect fill="#FFFFFF" height="25.1906" style="stroke:#181818;stroke-width:0.8000000000000002;" width="8" x="1442.8" y="915.2359"/><rect fill="#FFFFFF" height="423.8313" style="stroke:#181818;stroke-width:0.8000000000000002;" width="8" x="1537.6" y="454.3563"/><polygon fill="#181818" points="202.8,89.0297,210.8,92.2297,202.8,95.4297,206,92.2297" style="stroke:#181818;stroke-width:0.8000000000000002;"/><line style="stroke:#181818;stroke-width:0.8000000000000002;" x1="39.6" x2="207.6" y1="92.2297" y2="92.2297"/><text fill="#000000" font-family="sans-serif" font-size="10.4" font-weight="bold" lengthAdjust="spacing" textLength="7.2" x="45.2" y="88.4359">1</text><text fill="#000000" font-family="sans-serif" font-size="10.4" lengthAdjust="spacing" textLength="141.6" x="55.6" y="88.4359">request to enroll in a course</text><polygon fill="#181818" points="48.4,112.4781,40.4,115.6781,48.4,118.8781,45.2,115.6781" style="stroke:#181818;stroke-width:0.8000000000000002;"/><line style="stroke:#181818;stroke-width:0.8000000000000002;stroke-dasharray:2.0,2.0;" x1="43.6" x2="215.6" y1="115.6781" y2="115.6781"/><text fill="#000000" font-family="sans-serif" font-size="10.4" font-weight="bold" lengthAdjust="spacing" textLength="7.2" x="53.2" y="111.8844">2</text><text fill="#000000" font-family="sans-serif" font-size="10.4" lengthAdjust="spacing" textLength="108" x="63.6" y="111.8844">asks for course name</text><polygon fill="#181818" points="202.8,135.9266,210.8,139.1266,202.8,142.3266,206,139.1266" style="stroke:#181818;stroke-width:0.8000000000000002;"/><line style="stroke:#181818;stroke-width:0.8000000000000002;" x1="39.6" x2="207.6" y1="139.1266" y2="139.1266"/><text fill="#000000" font-family="sans-serif" font-size="10.4" font-weight="bold" lengthAdjust="spacing" textLength="7.2" x="45.2" y="135.3328">3</text><text fill="#000000" font-family="sans-serif" font-size="10.4" lengthAdjust="spacing" textLength="104.8" x="55.6" y="135.3328">types requested data</text><polygon fill="#181818" points="662,159.375,670,162.575,662,165.775,665.2,162.575" style="stroke:#181818;stroke-width:0.8000000000000002;"/><line style="stroke:#181818;stroke-width:0.8000000000000002;" x1="220.4" x2="666.8" y1="162.575" y2="162.575"/><text fill="#000000" font-family="sans-serif" font-size="10.4" font-weight="bold" lengthAdjust="spacing" textLength="7.2" x="226" y="158.7813">4</text><text fill="#000000" font-family="sans-serif" font-size="10.4" lengthAdjust="spacing" textLength="108.8" x="236.4" y="158.7813">authorizationService()</text><polygon fill="#181818" points="229.2,182.8234,221.2,186.0234,229.2,189.2234,226,186.0234" style="stroke:#181818;stroke-width:0.8000000000000002;"/><line style="stroke:#181818;stroke-width:0.8000000000000002;stroke-dasharray:2.0,2.0;" x1="224.4" x2="674.8" y1="186.0234" y2="186.0234"/><text fill="#000000" font-family="sans-serif" font-size="10.4" font-weight="bold" lengthAdjust="spacing" textLength="7.2" x="234" y="182.2297">5</text><text fill="#000000" font-family="sans-serif" font-size="10.4" lengthAdjust="spacing" textLength="63.2" x="244.4" y="182.2297">authzService</text><polygon fill="#181818" points="359.6,206.2719,367.6,209.4719,359.6,212.6719,362.8,209.4719" style="stroke:#181818;stroke-width:0.8000000000000002;"/><line style="stroke:#181818;stroke-width:0.8000000000000002;" x1="220.4" x2="364.4" y1="209.4719" y2="209.4719"/><text fill="#000000" font-family="sans-serif" font-size="10.4" font-weight="bold" lengthAdjust="spacing" textLength="7.2" x="226" y="205.6781">6</text><text fill="#000000" font-family="sans-serif" font-size="10.4" lengthAdjust="spacing" textLength="36.8" x="236.4" y="205.6781">create()</text><polygon fill="#181818" points="906,229.7203,914,232.9203,906,236.1203,909.2,232.9203" style="stroke:#181818;stroke-width:0.8000000000000002;"/><line style="stroke:#181818;stroke-width:0.8000000000000002;" x1="377.2" x2="910.8" y1="232.9203" y2="232.9203"/><text fill="#000000" font-family="sans-serif" font-size="10.4" font-weight="bold" lengthAdjust="spacing" textLength="7.2" x="382.8" y="229.1266">7</text><text fill="#000000" font-family="sans-serif" font-size="10.4" lengthAdjust="spacing" textLength="66.4" x="393.2" y="229.1266">repositories()</text><polygon fill="#181818" points="386,253.1688,378,256.3688,386,259.5688,382.8,256.3688" style="stroke:#181818;stroke-width:0.8000000000000002;"/><line style="stroke:#181818;stroke-width:0.8000000000000002;stroke-dasharray:2.0,2.0;" x1="381.2" x2="918.8" y1="256.3688" y2="256.3688"/><text fill="#000000" font-family="sans-serif" font-size="10.4" font-weight="bold" lengthAdjust="spacing" textLength="7.2" x="390.8" y="252.575">8</text><text fill="#000000" font-family="sans-serif" font-size="10.4" lengthAdjust="spacing" textLength="88" x="401.2" y="252.575">repositoryFactory</text><polygon fill="#181818" points="1027.2,276.6172,1035.2,279.8172,1027.2,283.0172,1030.4,279.8172" style="stroke:#181818;stroke-width:0.8000000000000002;"/><line style="stroke:#181818;stroke-width:0.8000000000000002;" x1="377.2" x2="1032" y1="279.8172" y2="279.8172"/><text fill="#000000" font-family="sans-serif" font-size="10.4" font-weight="bold" lengthAdjust="spacing" textLength="7.2" x="382.8" y="276.0234">9</text><text fill="#000000" font-family="sans-serif" font-size="10.4" lengthAdjust="spacing" textLength="45.6" x="393.2" y="276.0234">courses()</text><polygon fill="#181818" points="386,300.0656,378,303.2656,386,306.4656,382.8,303.2656" style="stroke:#181818;stroke-width:0.8000000000000002;"/><line style="stroke:#181818;stroke-width:0.8000000000000002;stroke-dasharray:2.0,2.0;" x1="381.2" x2="1040" y1="303.2656" y2="303.2656"/><text fill="#000000" font-family="sans-serif" font-size="10.4" font-weight="bold" lengthAdjust="spacing" textLength="14.4" x="390.8" y="299.4719">10</text><text fill="#000000" font-family="sans-serif" font-size="10.4" lengthAdjust="spacing" textLength="87.2" x="408.4" y="299.4719">courseRepository</text><polygon fill="#181818" points="1027.2,323.5141,1035.2,326.7141,1027.2,329.9141,1030.4,326.7141" style="stroke:#181818;stroke-width:0.8000000000000002;"/><line style="stroke:#181818;stroke-width:0.8000000000000002;" x1="377.2" x2="1032" y1="326.7141" y2="326.7141"/><text fill="#000000" font-family="sans-serif" font-size="10.4" font-weight="bold" lengthAdjust="spacing" textLength="14.4" x="382.8" y="322.9203">11</text><text fill="#000000" font-family="sans-serif" font-size="10.4" lengthAdjust="spacing" textLength="106.4" x="400.4" y="322.9203">enrollmentRequests()</text><polygon fill="#181818" points="386,346.9625,378,350.1625,386,353.3625,382.8,350.1625" style="stroke:#181818;stroke-width:0.8000000000000002;"/><line style="stroke:#181818;stroke-width:0.8000000000000002;stroke-dasharray:2.0,2.0;" x1="381.2" x2="1040" y1="350.1625" y2="350.1625"/><text fill="#000000" font-family="sans-serif" font-size="10.4" font-weight="bold" lengthAdjust="spacing" textLength="14.4" x="390.8" y="346.3688">12</text><text fill="#000000" font-family="sans-serif" font-size="10.4" lengthAdjust="spacing" textLength="148" x="408.4" y="346.3688">enrollmentRequestRepository</text><line style="stroke:#181818;stroke-width:0.8000000000000002;stroke-dasharray:2.0,2.0;" x1="377.2" x2="410.8" y1="373.6109" y2="373.6109"/><line style="stroke:#181818;stroke-width:0.8000000000000002;stroke-dasharray:2.0,2.0;" x1="410.8" x2="410.8" y1="373.6109" y2="384.0109"/><line style="stroke:#181818;stroke-width:0.8000000000000002;stroke-dasharray:2.0,2.0;" x1="378" x2="410.8" y1="384.0109" y2="384.0109"/><polygon fill="#181818" points="386,380.8109,378,384.0109,386,387.2109,382.8,384.0109" style="stroke:#181818;stroke-width:0.8000000000000002;"/><text fill="#000000" font-family="sans-serif" font-size="10.4" font-weight="bold" lengthAdjust="spacing" textLength="14.4" x="382.8" y="369.8172">13</text><text fill="#000000" font-family="sans-serif" font-size="10.4" lengthAdjust="spacing" textLength="265.6" x="400.4" y="369.8172">course : courses.name().toString.equals(coursename)</text><polygon fill="#181818" points="776.8,404.2594,784.8,407.4594,776.8,410.6594,780,407.4594" style="stroke:#181818;stroke-width:0.8000000000000002;"/><line style="stroke:#181818;stroke-width:0.8000000000000002;" x1="377.2" x2="781.6" y1="407.4594" y2="407.4594"/><text fill="#000000" font-family="sans-serif" font-size="10.4" font-weight="bold" lengthAdjust="spacing" textLength="14.4" x="382.8" y="403.6656">14</text><text fill="#000000" font-family="sans-serif" font-size="10.4" lengthAdjust="spacing" textLength="44.8" x="400.4" y="403.6656">session()</text><polygon fill="#181818" points="386,427.7078,378,430.9078,386,434.1078,382.8,430.9078" style="stroke:#181818;stroke-width:0.8000000000000002;"/><line style="stroke:#181818;stroke-width:0.8000000000000002;stroke-dasharray:2.0,2.0;" x1="381.2" x2="789.6" y1="430.9078" y2="430.9078"/><text fill="#000000" font-family="sans-serif" font-size="10.4" font-weight="bold" lengthAdjust="spacing" textLength="14.4" x="390.8" y="427.1141">15</text><text fill="#000000" font-family="sans-serif" font-size="10.4" lengthAdjust="spacing" textLength="81.6" x="408.4" y="427.1141">sessionOptional</text><polygon fill="#181818" points="1528,451.1563,1536,454.3563,1528,457.5563,1531.2,454.3563" style="stroke:#181818;stroke-width:0.8000000000000002;"/><line style="stroke:#181818;stroke-width:0.8000000000000002;" x1="377.2" x2="1532.8" y1="454.3563" y2="454.3563"/><text fill="#000000" font-family="sans-serif" font-size="10.4" font-weight="bold" lengthAdjust="spacing" textLength="14.4" x="382.8" y="450.5625">16</text><text fill="#000000" font-family="sans-serif" font-size="10.4" lengthAdjust="spacing" textLength="68" x="400.4" y="450.5625">orElseThrow()</text><path d="M8,466.3563 L57.6,466.3563 L57.6,472.2047 L49.6,480.2047 L8,480.2047 L8,466.3563 " fill="#EEEEEE" style="stroke:#000000;stroke-width:1.2000000000000002;"/><rect fill="none" height="96.1578" style="stroke:#000000;stroke-width:1.2000000000000002;" width="1570.8" x="8" y="466.3563"/><text fill="#000000" font-family="sans-serif" font-size="10.4" font-weight="bold" lengthAdjust="spacing" textLength="13.6" x="20" y="477.2109">alt</text><text fill="#000000" font-family="sans-serif" font-size="8.8" font-weight="bold" lengthAdjust="spacing" textLength="88" x="69.6" y="476.4641">[user is not logged]</text><polygon fill="#181818" points="229.2,494.0531,221.2,497.2531,229.2,500.4531,226,497.2531" style="stroke:#181818;stroke-width:0.8000000000000002;"/><line style="stroke:#181818;stroke-width:0.8000000000000002;stroke-dasharray:2.0,2.0;" x1="224.4" x2="1536.8" y1="497.2531" y2="497.2531"/><text fill="#000000" font-family="sans-serif" font-size="10.4" font-weight="bold" lengthAdjust="spacing" textLength="14.4" x="234" y="493.4594">17</text><text fill="#000000" font-family="sans-serif" font-size="10.4" lengthAdjust="spacing" textLength="323.2" x="251.6" y="493.4594">throw new IllegalArgumentException("There is no user Logged.")</text><polygon fill="#181818" points="48.4,517.5016,40.4,520.7016,48.4,523.9016,45.2,520.7016" style="stroke:#181818;stroke-width:0.8000000000000002;"/><line style="stroke:#181818;stroke-width:0.8000000000000002;stroke-dasharray:2.0,2.0;" x1="43.6" x2="211.6" y1="520.7016" y2="520.7016"/><text fill="#000000" font-family="sans-serif" font-size="10.4" font-weight="bold" lengthAdjust="spacing" textLength="14.4" x="53.2" y="516.9078">18</text><text fill="#000000" font-family="sans-serif" font-size="10.4" lengthAdjust="spacing" textLength="91.2" x="70.8" y="516.9078">user is not logged</text><line style="stroke:#000000;stroke-width:0.8000000000000002;stroke-dasharray:2.0,2.0;" x1="8" x2="1578.8" y1="527.9016" y2="527.9016"/><text fill="#000000" font-family="sans-serif" font-size="8.8" font-weight="bold" lengthAdjust="spacing" textLength="70.4" x="12" y="536.4094">[user is logged]</text><polygon fill="#181818" points="386,552.9141,378,556.1141,386,559.3141,382.8,556.1141" style="stroke:#181818;stroke-width:0.8000000000000002;"/><line style="stroke:#181818;stroke-width:0.8000000000000002;stroke-dasharray:2.0,2.0;" x1="381.2" x2="1536.8" y1="556.1141" y2="556.1141"/><text fill="#000000" font-family="sans-serif" font-size="10.4" font-weight="bold" lengthAdjust="spacing" textLength="14.4" x="390.8" y="552.3203">19</text><text fill="#000000" font-family="sans-serif" font-size="10.4" lengthAdjust="spacing" textLength="38.4" x="408.4" y="552.3203">session</text><path d="M8,573.7141 L57.6,573.7141 L57.6,579.5625 L49.6,587.5625 L8,587.5625 L8,573.7141 " fill="#EEEEEE" style="stroke:#000000;stroke-width:1.2000000000000002;"/><rect fill="none" height="96.1578" style="stroke:#000000;stroke-width:1.2000000000000002;" width="1570.8" x="8" y="573.7141"/><text fill="#000000" font-family="sans-serif" font-size="10.4" font-weight="bold" lengthAdjust="spacing" textLength="13.6" x="20" y="584.5688">alt</text><text fill="#000000" font-family="sans-serif" font-size="8.8" font-weight="bold" lengthAdjust="spacing" textLength="101.6" x="69.6" y="583.8219">[course does not exist]</text><polygon fill="#181818" points="229.2,601.4109,221.2,604.6109,229.2,607.8109,226,604.6109" style="stroke:#181818;stroke-width:0.8000000000000002;"/><line style="stroke:#181818;stroke-width:0.8000000000000002;stroke-dasharray:2.0,2.0;" x1="224.4" x2="1536.8" y1="604.6109" y2="604.6109"/><text fill="#000000" font-family="sans-serif" font-size="10.4" font-weight="bold" lengthAdjust="spacing" textLength="14.4" x="234" y="600.8172">20</text><text fill="#000000" font-family="sans-serif" font-size="10.4" lengthAdjust="spacing" textLength="312.8" x="251.6" y="600.8172">throw new IllegalArgumentException("Course does not exist.")</text><polygon fill="#181818" points="48.4,624.8594,40.4,628.0594,48.4,631.2594,45.2,628.0594" style="stroke:#181818;stroke-width:0.8000000000000002;"/><line style="stroke:#181818;stroke-width:0.8000000000000002;stroke-dasharray:2.0,2.0;" x1="43.6" x2="211.6" y1="628.0594" y2="628.0594"/><text fill="#000000" font-family="sans-serif" font-size="10.4" font-weight="bold" lengthAdjust="spacing" textLength="14.4" x="53.2" y="624.2656">21</text><text fill="#000000" font-family="sans-serif" font-size="10.4" lengthAdjust="spacing" textLength="110.4" x="70.8" y="624.2656">no such course exists</text><line style="stroke:#000000;stroke-width:0.8000000000000002;stroke-dasharray:2.0,2.0;" x1="8" x2="1578.8" y1="635.2594" y2="635.2594"/><text fill="#000000" font-family="sans-serif" font-size="8.8" font-weight="bold" lengthAdjust="spacing" textLength="64.8" x="12" y="643.7672">[course exists]</text><polygon fill="#181818" points="386,660.2719,378,663.4719,386,666.6719,382.8,663.4719" style="stroke:#181818;stroke-width:0.8000000000000002;"/><line style="stroke:#181818;stroke-width:0.8000000000000002;stroke-dasharray:2.0,2.0;" x1="381.2" x2="1536.8" y1="663.4719" y2="663.4719"/><text fill="#000000" font-family="sans-serif" font-size="10.4" font-weight="bold" lengthAdjust="spacing" textLength="14.4" x="390.8" y="659.6781">22</text><text fill="#000000" font-family="sans-serif" font-size="10.4" lengthAdjust="spacing" textLength="33.6" x="408.4" y="659.6781">course</text><path d="M8,681.0719 L57.6,681.0719 L57.6,686.9203 L49.6,694.9203 L8,694.9203 L8,681.0719 " fill="#EEEEEE" style="stroke:#000000;stroke-width:1.2000000000000002;"/><rect fill="none" height="96.1578" style="stroke:#000000;stroke-width:1.2000000000000002;" width="1570.8" x="8" y="681.0719"/><text fill="#000000" font-family="sans-serif" font-size="10.4" font-weight="bold" lengthAdjust="spacing" textLength="13.6" x="20" y="691.9266">alt</text><text fill="#000000" font-family="sans-serif" font-size="8.8" font-weight="bold" lengthAdjust="spacing" textLength="155.2" x="69.6" y="691.1797">[course does not have enroll state]</text><polygon fill="#181818" points="229.2,708.7688,221.2,711.9688,229.2,715.1688,226,711.9688" style="stroke:#181818;stroke-width:0.8000000000000002;"/><line style="stroke:#181818;stroke-width:0.8000000000000002;stroke-dasharray:2.0,2.0;" x1="224.4" x2="1536.8" y1="711.9688" y2="711.9688"/><text fill="#000000" font-family="sans-serif" font-size="10.4" font-weight="bold" lengthAdjust="spacing" textLength="14.4" x="234" y="708.175">23</text><text fill="#000000" font-family="sans-serif" font-size="10.4" lengthAdjust="spacing" textLength="444.8" x="251.6" y="708.175">throw new IllegalArgumentException("Course is not taking enrollments at the moment.")</text><polygon fill="#181818" points="48.4,732.2172,40.4,735.4172,48.4,738.6172,45.2,735.4172" style="stroke:#181818;stroke-width:0.8000000000000002;"/><line style="stroke:#181818;stroke-width:0.8000000000000002;stroke-dasharray:2.0,2.0;" x1="43.6" x2="211.6" y1="735.4172" y2="735.4172"/><text fill="#000000" font-family="sans-serif" font-size="10.4" font-weight="bold" lengthAdjust="spacing" textLength="14.4" x="53.2" y="731.6234">24</text><text fill="#000000" font-family="sans-serif" font-size="10.4" lengthAdjust="spacing" textLength="124" x="70.8" y="731.6234">no enrollments accepted</text><line style="stroke:#000000;stroke-width:0.8000000000000002;stroke-dasharray:2.0,2.0;" x1="8" x2="1578.8" y1="742.6172" y2="742.6172"/><text fill="#000000" font-family="sans-serif" font-size="8.8" font-weight="bold" lengthAdjust="spacing" textLength="64.8" x="12" y="751.125">[course exists]</text><polygon fill="#181818" points="386,767.6297,378,770.8297,386,774.0297,382.8,770.8297" style="stroke:#181818;stroke-width:0.8000000000000002;"/><line style="stroke:#181818;stroke-width:0.8000000000000002;stroke-dasharray:2.0,2.0;" x1="381.2" x2="1536.8" y1="770.8297" y2="770.8297"/><text fill="#000000" font-family="sans-serif" font-size="10.4" font-weight="bold" lengthAdjust="spacing" textLength="14.4" x="390.8" y="767.0359">25</text><text fill="#000000" font-family="sans-serif" font-size="10.4" lengthAdjust="spacing" textLength="33.6" x="408.4" y="767.0359">course</text><path d="M8,788.4297 L57.6,788.4297 L57.6,794.2781 L49.6,802.2781 L8,802.2781 L8,788.4297 " fill="#EEEEEE" style="stroke:#000000;stroke-width:1.2000000000000002;"/><rect fill="none" height="96.1578" style="stroke:#000000;stroke-width:1.2000000000000002;" width="1570.8" x="8" y="788.4297"/><text fill="#000000" font-family="sans-serif" font-size="10.4" font-weight="bold" lengthAdjust="spacing" textLength="13.6" x="20" y="799.2844">alt</text><text fill="#000000" font-family="sans-serif" font-size="8.8" font-weight="bold" lengthAdjust="spacing" textLength="103.2" x="69.6" y="798.5375">[request already exists]</text><polygon fill="#181818" points="229.2,816.1266,221.2,819.3266,229.2,822.5266,226,819.3266" style="stroke:#181818;stroke-width:0.8000000000000002;"/><line style="stroke:#181818;stroke-width:0.8000000000000002;stroke-dasharray:2.0,2.0;" x1="224.4" x2="1536.8" y1="819.3266" y2="819.3266"/><text fill="#000000" font-family="sans-serif" font-size="10.4" font-weight="bold" lengthAdjust="spacing" textLength="14.4" x="234" y="815.5328">26</text><text fill="#000000" font-family="sans-serif" font-size="10.4" lengthAdjust="spacing" textLength="424" x="251.6" y="815.5328">throw new IllegalArgumentException("This enroll request has already been created.")</text><polygon fill="#181818" points="48.4,839.575,40.4,842.775,48.4,845.975,45.2,842.775" style="stroke:#181818;stroke-width:0.8000000000000002;"/><line style="stroke:#181818;stroke-width:0.8000000000000002;stroke-dasharray:2.0,2.0;" x1="43.6" x2="211.6" y1="842.775" y2="842.775"/><text fill="#000000" font-family="sans-serif" font-size="10.4" font-weight="bold" lengthAdjust="spacing" textLength="14.4" x="53.2" y="838.9813">27</text><text fill="#000000" font-family="sans-serif" font-size="10.4" lengthAdjust="spacing" textLength="116" x="70.8" y="838.9813">no duplicates accepted</text><line style="stroke:#000000;stroke-width:0.8000000000000002;stroke-dasharray:2.0,2.0;" x1="8" x2="1578.8" y1="849.975" y2="849.975"/><text fill="#000000" font-family="sans-serif" font-size="8.8" font-weight="bold" lengthAdjust="spacing" textLength="64.8" x="12" y="858.4828">[course exists]</text><polygon fill="#181818" points="386,874.9875,378,878.1875,386,881.3875,382.8,878.1875" style="stroke:#181818;stroke-width:0.8000000000000002;"/><line style="stroke:#181818;stroke-width:0.8000000000000002;stroke-dasharray:2.0,2.0;" x1="381.2" x2="1540.8" y1="878.1875" y2="878.1875"/><text fill="#000000" font-family="sans-serif" font-size="10.4" font-weight="bold" lengthAdjust="spacing" textLength="14.4" x="390.8" y="874.3938">28</text><text fill="#000000" font-family="sans-serif" font-size="10.4" lengthAdjust="spacing" textLength="33.6" x="408.4" y="874.3938">course</text><polygon fill="#181818" points="1379.6,904.0359,1387.6,907.2359,1379.6,910.4359,1382.8,907.2359" style="stroke:#181818;stroke-width:0.8000000000000002;"/><line style="stroke:#181818;stroke-width:0.8000000000000002;" x1="377.2" x2="1384.4" y1="907.2359" y2="907.2359"/><text fill="#000000" font-family="sans-serif" font-size="10.4" font-weight="bold" lengthAdjust="spacing" textLength="14.4" x="382.8" y="903.4422">29</text><text fill="#000000" font-family="sans-serif" font-size="10.4" lengthAdjust="spacing" textLength="115.2" x="400.4" y="903.4422">create(student, course)</text><rect fill="#E2E2F0" height="24.3906" rx="2" ry="2" style="stroke:#181818;stroke-width:0.4000000000000001;" width="115.2" x="1389.2" y="890.1875"/><text fill="#000000" font-family="sans-serif" font-size="11.2" lengthAdjust="spacing" textLength="104" x="1394.8" y="906.6156">EnrollmentRequest</text><polygon fill="#181818" points="386,937.2266,378,940.4266,386,943.6266,382.8,940.4266" style="stroke:#181818;stroke-width:0.8000000000000002;"/><line style="stroke:#181818;stroke-width:0.8000000000000002;stroke-dasharray:2.0,2.0;" x1="381.2" x2="1446" y1="940.4266" y2="940.4266"/><text fill="#000000" font-family="sans-serif" font-size="10.4" font-weight="bold" lengthAdjust="spacing" textLength="14.4" x="390.8" y="936.6328">30</text><text fill="#000000" font-family="sans-serif" font-size="10.4" lengthAdjust="spacing" textLength="37.6" x="408.4" y="936.6328">request</text><polygon fill="#181818" points="1284,960.675,1292,963.875,1284,967.075,1287.2,963.875" style="stroke:#181818;stroke-width:0.8000000000000002;"/><line style="stroke:#181818;stroke-width:0.8000000000000002;" x1="377.2" x2="1288.8" y1="963.875" y2="963.875"/><text fill="#000000" font-family="sans-serif" font-size="10.4" font-weight="bold" lengthAdjust="spacing" textLength="14.4" x="382.8" y="960.0813">31</text><text fill="#000000" font-family="sans-serif" font-size="10.4" lengthAdjust="spacing" textLength="62.4" x="400.4" y="960.0813">add(request)</text><polygon fill="#181818" points="386,984.1234,378,987.3234,386,990.5234,382.8,987.3234" style="stroke:#181818;stroke-width:0.8000000000000002;"/><line style="stroke:#181818;stroke-width:0.8000000000000002;stroke-dasharray:2.0,2.0;" x1="381.2" x2="1296.8" y1="987.3234" y2="987.3234"/><text fill="#000000" font-family="sans-serif" font-size="10.4" font-weight="bold" lengthAdjust="spacing" textLength="14.4" x="390.8" y="983.5297">32</text><text fill="#000000" font-family="sans-serif" font-size="10.4" lengthAdjust="spacing" textLength="3.2" x="408.4" y="983.5297">&#160;</text><polygon fill="#181818" points="229.2,1007.5719,221.2,1010.7719,229.2,1013.9719,226,1010.7719" style="stroke:#181818;stroke-width:0.8000000000000002;"/><line style="stroke:#181818;stroke-width:0.8000000000000002;stroke-dasharray:2.0,2.0;" x1="224.4" x2="372.4" y1="1010.7719" y2="1010.7719"/><text fill="#000000" font-family="sans-serif" font-size="10.4" font-weight="bold" lengthAdjust="spacing" textLength="14.4" x="234" y="1006.9781">33</text><text fill="#000000" font-family="sans-serif" font-size="10.4" lengthAdjust="spacing" textLength="3.2" x="251.6" y="1006.9781">&#160;</text><polygon fill="#181818" points="48.4,1031.0203,40.4,1034.2203,48.4,1037.4203,45.2,1034.2203" style="stroke:#181818;stroke-width:0.8000000000000002;"/><line style="stroke:#181818;stroke-width:0.8000000000000002;stroke-dasharray:2.0,2.0;" x1="43.6" x2="215.6" y1="1034.2203" y2="1034.2203"/><text fill="#000000" font-family="sans-serif" font-size="10.4" font-weight="bold" lengthAdjust="spacing" textLength="14.4" x="53.2" y="1030.4266">34</text><text fill="#000000" font-family="sans-serif" font-size="10.4" lengthAdjust="spacing" textLength="136" x="70.8" y="1030.4266">displays operation success</text><!--SRC=[fLLRRjim4FpdAOXysK7j0mY6WS18WG05MYJf0MXfOn6HHPMaaZYdxovVeYJ7RLD_qSkTuGurt1MzLMr_t8DcJ9HMQVvW-mfQouNXnYzP9xILfUm4Xk_XLm_6thPQDSqHTt_UKMel-MRJQJ0O4LQgThkz3Dkfrj8QDC5Bgnia45tNoF8S_gQtzViz7AIn-aG87TQpBANbksDu0FqYIw1aGMZaDpuquVu1sY0Nj2LGLV3cn7SO9Kt3vanIfup4ApjzTJSNokfK_BlPFFaL0YjXnLuOu3lLQmC3rgbFCSJej9N3XeiBDpbcq4DmIf6NF6CXB4o38yZtZkvID9IfEijOC0LVRV6Z5_5aRbKWuhBb8aWYIyaNOG5J6LfaXQ20Bv3msV0dT9pFvQqu0giWXqmFiwSEabYeE5tFw0nto3QPet1VVkg8nNB091l5XQkHpdAU2OYyh8JmHv5p2rvgmBsScEBCsHgJo4G5Jvz5WibJQPSvkwqIePwQAo_10I9tvhWYNAKPAqpxB7VdS5OviUHOxO0-V-JCFlzuEdpix3yK4YXuL90MParUMYpNLZrOBTl36fb5OnP-cpQNWnhteGkEC8CUoOjtEymtZw7Wa1WVHbwa1qHYV2u5L_gsCV1OQ_MQKxkd91hBU-n9N1hUAiiRTJX0nJZ-S3yvqHAOj_3Axx1V7aHpemyzNTZjMmckYiNLOmqQF8-d_EQurbTBHpTzUsTE1ImpnSzKCXBFeAqubkyaXDkl57X2UCC7yYaLktDC7sb0fQOlwtYyopLUnZWqLn6wqoKHjNY1sD4CZZJu7q7XfgruHZDcZiV9XD4Q-57HtmjAHvYI-ECd-uJMsBD5WsshEft3_htlP9mWYRQcYHkezm1jw8xL1NbLxmS_V58TRMJla5vN59oUuwpHN5-dnXrg-HBuieSwduwpoAXj-voibZb1raTJmyDvKrMB41ZrpvJ2yY4VZnoto25tQ94u5RCSXvcDuagQhX4dcl2WtQYafrNYMvyEPCP-0m00]--></g></svg>