<?xml version="1.0" encoding="us-ascii" standalone="no"?><svg xmlns="http://www.w3.org/2000/svg" xmlns:xlink="http://www.w3.org/1999/xlink" contentStyleType="text/css" height="1005px" preserveAspectRatio="none" style="width:948px;height:1005px;background:#FFFFFF;" version="1.1" viewBox="0 0 948 1005" width="948px" zoomAndPan="magnify"><defs/><g><!--cluster User Aggregate--><g id="cluster_User Aggregate"><rect fill="none" height="196" rx="2.5" ry="2.5" style="stroke:#000000;stroke-width:1.5;" width="457.5" x="233.5" y="229"/><text fill="#000000" font-family="sans-serif" font-size="14" font-weight="bold" lengthAdjust="spacing" textLength="110" x="407.25" y="244.5352">User Aggregate</text></g><!--cluster Teacher Aggregate--><g id="cluster_Teacher Aggregate"><rect fill="none" height="198" rx="2.5" ry="2.5" style="stroke:#000000;stroke-width:1.5;" width="370.5" x="7" y="7"/><text fill="#000000" font-family="sans-serif" font-size="14" font-weight="bold" lengthAdjust="spacing" textLength="134" x="125.25" y="22.5352">Teacher Aggregate</text></g><!--cluster Course Aggregate--><g id="cluster_Course Aggregate"><rect fill="none" height="253" rx="2.5" ry="2.5" style="stroke:#181818;stroke-width:1.0;" width="721" x="221" y="704"/><text fill="#000000" font-family="sans-serif" font-size="14" font-weight="bold" lengthAdjust="spacing" textLength="128" x="517.5" y="719.5352">Course Aggregate</text></g><!--cluster Class Aggregate--><g id="cluster_Class Aggregate"><rect fill="none" height="231" rx="2.5" ry="2.5" style="stroke:#181818;stroke-width:1.0;" width="136" x="257" y="449"/><text fill="#000000" font-family="sans-serif" font-size="14" font-weight="bold" lengthAdjust="spacing" textLength="117" x="266.5" y="464.5352">Class Aggregate</text></g><!--class User--><g id="elem_User"><rect codeLine="13" fill="#F1F1F1" height="48.6211" id="User" rx="2.5" ry="2.5" style="stroke:#181818;stroke-width:0.5;" width="66" x="292" y="360.69"/><rect fill="#444444" height="40.6211" rx="2.5" ry="2.5" style="stroke:#444444;stroke-width:0.5;" width="66" x="292" y="360.69"/><rect fill="#444444" height="2.5" style="stroke:#444444;stroke-width:0.5;" width="66" x="292" y="398.8111"/><rect codeLine="13" fill="none" height="48.6211" id="User" rx="2.5" ry="2.5" style="stroke:#181818;stroke-width:0.5;" width="66" x="292" y="360.69"/><ellipse cx="307" cy="381.0005" fill="#ADD1B2" rx="11" ry="11" style="stroke:#181818;stroke-width:1.0;"/><path d="M311.1143,387.0005 L303.3945,387.0005 L303.3945,374.6075 L311.1143,374.6075 L311.1143,376.7657 L305.8433,376.7657 L305.8433,379.4385 L310.6162,379.4385 L310.6162,381.5967 L305.8433,381.5967 L305.8433,384.8423 L311.1143,384.8423 Z " fill="#000000"/><text fill="#000000" font-family="sans-serif" font-size="12" font-style="italic" lengthAdjust="spacing" textLength="38" x="319" y="377.2916">&#171;Root&#187;</text><text fill="#FFFFFF" font-family="sans-serif" font-size="14" lengthAdjust="spacing" textLength="31" x="322.5" y="393.358">User</text><line style="stroke:#181818;stroke-width:0.5;" x1="293" x2="357" y1="401.3111" y2="401.3111"/></g><g id="elem_email"><rect fill="#F1F1F1" height="50.6211" style="stroke:#181818;stroke-width:0.5;" width="64" x="603" y="358.69"/><text fill="#000000" font-family="sans-serif" font-size="12" font-style="italic" lengthAdjust="spacing" textLength="54" x="608" y="370.2916">&#171;Identity&#187;</text><text fill="#000000" font-family="sans-serif" font-size="14" lengthAdjust="spacing" textLength="37" x="616.5" y="388.358">email</text><line style="stroke:#181818;stroke-width:0.5;" x1="604" x2="666" y1="393.3111" y2="393.3111"/></g><g id="elem_personaInformation"><rect fill="#F1F1F1" height="61.4648" style="stroke:#181818;stroke-width:0.5;" width="151" x="249.5" y="264.27"/><text fill="#000000" font-family="sans-serif" font-size="14" lengthAdjust="spacing" textLength="137" x="256.5" y="279.8052">personaInformation</text><line style="stroke:#181818;stroke-width:0.5;" x1="250.5" x2="399.5" y1="284.7583" y2="284.7583"/><text fill="#000000" font-family="sans-serif" font-size="14" lengthAdjust="spacing" textLength="63" x="255.5" y="302.2934">birthdate</text><text fill="#000000" font-family="sans-serif" font-size="14" lengthAdjust="spacing" textLength="77" x="255.5" y="318.7817">taxNumber</text></g><g id="elem_password"><rect fill="#F1F1F1" height="36.4883" style="stroke:#181818;stroke-width:0.5;" width="80" x="595" y="286.76"/><text fill="#000000" font-family="sans-serif" font-size="14" lengthAdjust="spacing" textLength="66" x="602" y="302.2952">password</text><line style="stroke:#181818;stroke-width:0.5;" x1="596" x2="674" y1="307.2483" y2="307.2483"/></g><!--class designationTeacher--><g id="elem_designationTeacher"><rect codeLine="31" fill="#F1F1F1" height="72.9766" id="designationTeacher" rx="2.5" ry="2.5" style="stroke:#181818;stroke-width:0.5;" width="78" x="27.5" y="116.52"/><rect fill="#444444" height="32" rx="2.5" ry="2.5" style="stroke:#444444;stroke-width:0.5;" width="78" x="27.5" y="116.52"/><rect fill="#444444" height="2.5" style="stroke:#444444;stroke-width:0.5;" width="78" x="27.5" y="146.02"/><rect codeLine="31" fill="none" height="72.9766" id="designationTeacher" rx="2.5" ry="2.5" style="stroke:#181818;stroke-width:0.5;" width="78" x="27.5" y="116.52"/><ellipse cx="46.1" cy="132.52" fill="#ADD1B2" rx="11" ry="11" style="stroke:#181818;stroke-width:1.0;"/><path d="M50.2143,138.52 L42.4945,138.52 L42.4945,126.1269 L50.2143,126.1269 L50.2143,128.2851 L44.9433,128.2851 L44.9433,130.958 L49.7162,130.958 L49.7162,133.1162 L44.9433,133.1162 L44.9433,136.3618 L50.2143,136.3618 Z " fill="#000000"/><text fill="#FFFFFF" font-family="sans-serif" font-size="14" lengthAdjust="spacing" textLength="38" x="60.9" y="137.811">name</text><line style="stroke:#181818;stroke-width:0.5;" x1="28.5" x2="104.5" y1="148.52" y2="148.52"/><text fill="#000000" font-family="sans-serif" font-size="14" lengthAdjust="spacing" textLength="66" x="33.5" y="166.0552">firstName</text><text fill="#000000" font-family="sans-serif" font-size="14" lengthAdjust="spacing" textLength="63" x="33.5" y="182.5434">lastName</text></g><!--class Teacher--><g id="elem_Teacher"><rect codeLine="36" fill="#F1F1F1" height="40" id="Teacher" rx="2.5" ry="2.5" style="stroke:#181818;stroke-width:0.5;" width="87" x="23" y="42"/><rect fill="#444444" height="32" rx="2.5" ry="2.5" style="stroke:#444444;stroke-width:0.5;" width="87" x="23" y="42"/><rect fill="#444444" height="2.5" style="stroke:#444444;stroke-width:0.5;" width="87" x="23" y="71.5"/><rect codeLine="36" fill="none" height="40" id="Teacher" rx="2.5" ry="2.5" style="stroke:#181818;stroke-width:0.5;" width="87" x="23" y="42"/><ellipse cx="38" cy="58" fill="#ADD1B2" rx="11" ry="11" style="stroke:#181818;stroke-width:1.0;"/><path d="M42.1143,64 L34.3945,64 L34.3945,51.6069 L42.1143,51.6069 L42.1143,53.7651 L36.8433,53.7651 L36.8433,56.438 L41.6162,56.438 L41.6162,58.5962 L36.8433,58.5962 L36.8433,61.8418 L42.1143,61.8418 Z " fill="#000000"/><text fill="#FFFFFF" font-family="sans-serif" font-size="14" lengthAdjust="spacing" textLength="55" x="52" y="63.291">Teacher</text><line style="stroke:#181818;stroke-width:0.5;" x1="24" x2="109" y1="74" y2="74"/></g><g id="elem_acronym"><rect fill="#F1F1F1" height="50.6211" style="stroke:#181818;stroke-width:0.5;" width="73" x="288.5" y="41.69"/><text fill="#000000" font-family="sans-serif" font-size="12" font-style="italic" lengthAdjust="spacing" textLength="54" x="298" y="53.2916">&#171;Identity&#187;</text><text fill="#000000" font-family="sans-serif" font-size="14" lengthAdjust="spacing" textLength="59" x="295.5" y="71.358">acronym</text><line style="stroke:#181818;stroke-width:0.5;" x1="289.5" x2="360.5" y1="76.3111" y2="76.3111"/></g><!--class Course--><g id="elem_Course"><rect codeLine="48" fill="#F1F1F1" height="81.5977" id="Course" rx="2.5" ry="2.5" style="stroke:#181818;stroke-width:0.5;" width="82" x="594" y="824.21"/><rect fill="#444444" height="40.6211" rx="2.5" ry="2.5" style="stroke:#444444;stroke-width:0.5;" width="82" x="594" y="824.21"/><rect fill="#444444" height="2.5" style="stroke:#444444;stroke-width:0.5;" width="82" x="594" y="862.3311"/><rect codeLine="48" fill="none" height="81.5977" id="Course" rx="2.5" ry="2.5" style="stroke:#181818;stroke-width:0.5;" width="82" x="594" y="824.21"/><ellipse cx="609.45" cy="844.5205" fill="#ADD1B2" rx="11" ry="11" style="stroke:#181818;stroke-width:1.0;"/><path d="M613.5643,850.5205 L605.8445,850.5205 L605.8445,838.1275 L613.5643,838.1275 L613.5643,840.2857 L608.2933,840.2857 L608.2933,842.9585 L613.0662,842.9585 L613.0662,845.1167 L608.2933,845.1167 L608.2933,848.3623 L613.5643,848.3623 Z " fill="#000000"/><text fill="#000000" font-family="sans-serif" font-size="12" font-style="italic" lengthAdjust="spacing" textLength="38" x="629.05" y="840.8116">&#171;Root&#187;</text><text fill="#FFFFFF" font-family="sans-serif" font-size="14" lengthAdjust="spacing" textLength="49" x="623.55" y="856.878">Course</text><line style="stroke:#181818;stroke-width:0.5;" x1="595" x2="675" y1="864.8311" y2="864.8311"/><text fill="#000000" font-family="sans-serif" font-size="14" lengthAdjust="spacing" textLength="70" x="600" y="882.3662">maxEnroll</text><text fill="#000000" font-family="sans-serif" font-size="14" lengthAdjust="spacing" textLength="66" x="600" y="898.8545">minEnroll</text></g><g id="elem_CourseID"><rect fill="#F1F1F1" height="50.6211" style="stroke:#181818;stroke-width:0.5;" width="77" x="841.5" y="890.69"/><text fill="#000000" font-family="sans-serif" font-size="12" font-style="italic" lengthAdjust="spacing" textLength="54" x="853" y="902.2916">&#171;Identity&#187;</text><text fill="#000000" font-family="sans-serif" font-size="14" lengthAdjust="spacing" textLength="63" x="848.5" y="920.358">CourseID</text><line style="stroke:#181818;stroke-width:0.5;" x1="842.5" x2="917.5" y1="925.3111" y2="925.3111"/></g><g id="elem_Name"><rect fill="#F1F1F1" height="36.4883" style="stroke:#181818;stroke-width:0.5;" width="53" x="853.5" y="818.76"/><text fill="#000000" font-family="sans-serif" font-size="14" lengthAdjust="spacing" textLength="39" x="860.5" y="834.2952">Name</text><line style="stroke:#181818;stroke-width:0.5;" x1="854.5" x2="905.5" y1="839.2483" y2="839.2483"/></g><g id="elem_CourseState"><rect fill="#F1F1F1" height="50.6211" style="stroke:#181818;stroke-width:0.5;" width="97" x="586.5" y="738.69"/><text fill="#000000" font-family="sans-serif" font-size="12" font-style="italic" lengthAdjust="spacing" textLength="44" x="613" y="750.2916">&#171;Enum&#187;</text><text fill="#000000" font-family="sans-serif" font-size="14" lengthAdjust="spacing" textLength="83" x="593.5" y="768.358">CourseState</text><line style="stroke:#181818;stroke-width:0.5;" x1="587.5" x2="682.5" y1="773.3111" y2="773.3111"/></g><g id="elem_StudentEnrollmentState"><rect fill="#F1F1F1" height="50.6211" style="stroke:#181818;stroke-width:0.5;" width="176" x="237" y="738.69"/><text fill="#000000" font-family="sans-serif" font-size="12" font-style="italic" lengthAdjust="spacing" textLength="44" x="303" y="750.2916">&#171;enum&#187;</text><text fill="#000000" font-family="sans-serif" font-size="14" lengthAdjust="spacing" textLength="162" x="244" y="768.358">StudentEnrollmentState</text><line style="stroke:#181818;stroke-width:0.5;" x1="238" x2="412" y1="773.3111" y2="773.3111"/></g><g id="elem_Description"><rect fill="#F1F1F1" height="36.4883" style="stroke:#181818;stroke-width:0.5;" width="92" x="834" y="747.76"/><text fill="#000000" font-family="sans-serif" font-size="14" lengthAdjust="spacing" textLength="78" x="841" y="763.2952">Description</text><line style="stroke:#181818;stroke-width:0.5;" x1="835" x2="925" y1="768.2483" y2="768.2483"/></g><g id="elem_EnrolledStudents"><rect fill="#F1F1F1" height="36.4883" style="stroke:#181818;stroke-width:0.5;" width="131" x="259.5" y="824.76"/><text fill="#000000" font-family="sans-serif" font-size="14" lengthAdjust="spacing" textLength="117" x="266.5" y="840.2952">EnrolledStudents</text><line style="stroke:#181818;stroke-width:0.5;" x1="260.5" x2="389.5" y1="845.2483" y2="845.2483"/></g><g id="elem_AssignedTeachers"><rect fill="#F1F1F1" height="44.9766" style="stroke:#181818;stroke-width:0.5;" width="139" x="255.5" y="896.52"/><text fill="#000000" font-family="sans-serif" font-size="14" lengthAdjust="spacing" textLength="125" x="262.5" y="912.0552">AssignedTeachers</text><line style="stroke:#181818;stroke-width:0.5;" x1="256.5" x2="393.5" y1="917.0083" y2="917.0083"/><text fill="#000000" font-family="sans-serif" font-size="14" lengthAdjust="spacing" textLength="74" x="261.5" y="934.5434">isInCharge</text></g><!--class Class--><g id="elem_Class"><rect codeLine="83" fill="#F1F1F1" height="72.9766" id="Class" rx="2.5" ry="2.5" style="stroke:#181818;stroke-width:0.5;" width="71" x="289.5" y="483.52"/><rect fill="#444444" height="32" rx="2.5" ry="2.5" style="stroke:#444444;stroke-width:0.5;" width="71" x="289.5" y="483.52"/><rect fill="#444444" height="2.5" style="stroke:#444444;stroke-width:0.5;" width="71" x="289.5" y="513.02"/><rect codeLine="83" fill="none" height="72.9766" id="Class" rx="2.5" ry="2.5" style="stroke:#181818;stroke-width:0.5;" width="71" x="289.5" y="483.52"/><ellipse cx="305.85" cy="499.52" fill="#ADD1B2" rx="11" ry="11" style="stroke:#181818;stroke-width:1.0;"/><path d="M309.9643,505.52 L302.2445,505.52 L302.2445,493.1269 L309.9643,493.1269 L309.9643,495.2851 L304.6933,495.2851 L304.6933,497.958 L309.4662,497.958 L309.4662,500.1162 L304.6933,500.1162 L304.6933,503.3618 L309.9643,503.3618 Z " fill="#000000"/><text fill="#FFFFFF" font-family="sans-serif" font-size="14" lengthAdjust="spacing" textLength="36" x="320.15" y="504.811">Class</text><line style="stroke:#181818;stroke-width:0.5;" x1="290.5" x2="359.5" y1="515.52" y2="515.52"/><text fill="#000000" font-family="sans-serif" font-size="14" lengthAdjust="spacing" textLength="30" x="295.5" y="533.0552">date</text><text fill="#000000" font-family="sans-serif" font-size="14" lengthAdjust="spacing" textLength="59" x="295.5" y="549.5434">duration</text></g><!--class ExtraClass--><g id="elem_ExtraClass"><rect codeLine="89" fill="#F1F1F1" height="72.9766" id="ExtraClass" rx="2.5" ry="2.5" style="stroke:#181818;stroke-width:0.5;" width="104" x="273" y="591.52"/><rect fill="#444444" height="32" rx="2.5" ry="2.5" style="stroke:#444444;stroke-width:0.5;" width="104" x="273" y="591.52"/><rect fill="#444444" height="2.5" style="stroke:#444444;stroke-width:0.5;" width="104" x="273" y="621.02"/><rect codeLine="89" fill="none" height="72.9766" id="ExtraClass" rx="2.5" ry="2.5" style="stroke:#181818;stroke-width:0.5;" width="104" x="273" y="591.52"/><ellipse cx="288" cy="607.52" fill="#ADD1B2" rx="11" ry="11" style="stroke:#181818;stroke-width:1.0;"/><path d="M292.1143,613.52 L284.3945,613.52 L284.3945,601.1269 L292.1143,601.1269 L292.1143,603.2851 L286.8433,603.2851 L286.8433,605.958 L291.6162,605.958 L291.6162,608.1162 L286.8433,608.1162 L286.8433,611.3618 L292.1143,611.3618 Z " fill="#000000"/><text fill="#FFFFFF" font-family="sans-serif" font-size="14" lengthAdjust="spacing" textLength="72" x="302" y="612.811">ExtraClass</text><line style="stroke:#181818;stroke-width:0.5;" x1="274" x2="376" y1="623.52" y2="623.52"/><text fill="#000000" font-family="sans-serif" font-size="14" lengthAdjust="spacing" textLength="30" x="279" y="641.0552">date</text><text fill="#000000" font-family="sans-serif" font-size="14" lengthAdjust="spacing" textLength="59" x="279" y="657.5434">duration</text></g><g id="elem_GMN43"><path d="M497,973.35 L497,998.6605 L773,998.6605 L773,983.35 L763,973.35 L497,973.35 " fill="#FEFFDD" style="stroke:#181818;stroke-width:0.5;"/><path d="M763,973.35 L763,983.35 L773,983.35 L763,973.35 " fill="#FEFFDD" style="stroke:#181818;stroke-width:1.0;"/><text fill="#000000" font-family="sans-serif" font-size="13" lengthAdjust="spacing" textLength="255" x="503" y="990.9184">only one teacher is in charge of a course</text></g><!--reverse link designationTeacher to Teacher--><g id="link_designationTeacher_Teacher"><path codeLine="42" d="M66.5,110.23 C66.5,100.91 66.5,91.59 66.5,82.27 " fill="none" id="designationTeacher-backto-Teacher" style="stroke:#181818;stroke-width:1.0;"/><polygon fill="#181818" points="66.5,115.04,70.5,106.04,66.5,110.04,62.5,106.04,66.5,115.04" style="stroke:#181818;stroke-width:1.0;"/><text fill="#000000" font-family="sans-serif" font-size="13" lengthAdjust="spacing" textLength="8" x="57.7875" y="105.7151">1</text><text fill="#000000" font-family="sans-serif" font-size="13" lengthAdjust="spacing" textLength="8" x="57.375" y="102.6923">1</text></g><!--reverse link User to Teacher--><g id="link_User_Teacher"><path codeLine="100" d="M285.87,377.74 C262.62,371.69 233.54,361.07 213,343 C161.2,297.44 165.69,270.04 140,206 C121.61,160.17 136.4,140.75 110,99 C106.13,92.89 100.95,87.21 95.53,82.24 " fill="none" id="User-backto-Teacher" style="stroke:#181818;stroke-width:1.0;"/><polygon fill="#181818" points="290.64,379.17,282.8831,373.1012,285.7901,377.954,280.9374,380.861,290.64,379.17" style="stroke:#181818;stroke-width:1.0;"/><text fill="#000000" font-family="sans-serif" font-size="13" lengthAdjust="spacing" textLength="8" x="275.9345" y="392.1147">1</text><text fill="#000000" font-family="sans-serif" font-size="13" lengthAdjust="spacing" textLength="8" x="118.1918" y="95.6051">1</text></g><!--link User to password--><g id="link_User_password"><path codeLine="102" d="M358.38,376.59 C413.7,362.23 526.51,332.92 589.3,316.61 " fill="none" id="User-to-password" style="stroke:#181818;stroke-width:1.0;"/><polygon fill="#181818" points="593.85,315.17,584.1337,313.5597,589.0104,316.4263,586.1438,321.303,593.85,315.17" style="stroke:#181818;stroke-width:1.0;"/><text fill="#000000" font-family="sans-serif" font-size="13" lengthAdjust="spacing" textLength="8" x="366.0896" y="370.9088">1</text><text fill="#000000" font-family="sans-serif" font-size="13" lengthAdjust="spacing" textLength="8" x="578.9858" y="330.9127">1</text></g><!--link Teacher to acronym--><g id="link_Teacher_acronym"><path codeLine="103" d="M110.43,62.84 C158.3,63.77 235.19,65.27 282.48,66.2 " fill="none" id="Teacher-to-acronym" style="stroke:#181818;stroke-width:1.0;"/><polygon fill="#181818" points="287.38,66.31,278.4499,62.1563,282.3807,66.2243,278.3128,70.1551,287.38,66.31" style="stroke:#181818;stroke-width:1.0;"/><text fill="#000000" font-family="sans-serif" font-size="13" lengthAdjust="spacing" textLength="8" x="118.0688" y="76.7623">1</text><text fill="#000000" font-family="sans-serif" font-size="13" lengthAdjust="spacing" textLength="8" x="272.3829" y="80.2495">1</text></g><!--link User to email--><g id="link_User_email"><path codeLine="104" d="M358.38,384.9 C415.98,384.71 535.92,384.32 596.81,384.13 " fill="none" id="User-to-email" style="stroke:#181818;stroke-width:1.0;"/><polygon fill="#181818" points="601.51,384.11,592.4986,380.1357,596.51,384.1243,592.5215,388.1357,601.51,384.11" style="stroke:#181818;stroke-width:1.0;"/><text fill="#000000" font-family="sans-serif" font-size="13" lengthAdjust="spacing" textLength="8" x="366.0896" y="399.0265">1</text><text fill="#000000" font-family="sans-serif" font-size="13" lengthAdjust="spacing" textLength="8" x="586.9839" y="398.2798">1</text></g><!--link Teacher to personaInformation--><g id="link_Teacher_personaInformation"><path codeLine="106" d="M91.64,82.4 C97.72,87.71 104.17,93.49 110,99 C157.7,144.17 164.51,160.69 213,205 C233.86,224.07 258.12,243.98 278.64,260.22 " fill="none" id="Teacher-to-personaInformation" style="stroke:#181818;stroke-width:1.0;"/><polygon fill="#181818" points="282.23,263.83,277.623,255.1251,278.2979,260.7415,272.6815,261.4164,282.23,263.83" style="stroke:#181818;stroke-width:1.0;"/><text fill="#000000" font-family="sans-serif" font-size="13" lengthAdjust="spacing" textLength="8" x="89.3214" y="102.5082">1</text><text fill="#000000" font-family="sans-serif" font-size="13" lengthAdjust="spacing" textLength="8" x="265.7899" y="253.4542">1</text></g><!--link Course to Class--><g id="link_Course_Class"><path codeLine="116" d="M593.59,857.09 C563.28,849.19 522.75,834.2 497,807 C478.08,787.02 430.32,595.39 413,574 C400.53,558.6 382.42,546.38 365.96,537.48 " fill="none" id="Course-to-Class" style="stroke:#181818;stroke-width:1.0;"/><polygon fill="#181818" points="361.91,534.83,368.0144,542.559,366.3355,537.157,371.7375,535.4781,361.91,534.83" style="stroke:#181818;stroke-width:1.0;"/><text fill="#000000" font-family="sans-serif" font-size="13" lengthAdjust="spacing" textLength="22" x="444" y="656.5684">has</text><text fill="#000000" font-family="sans-serif" font-size="13" lengthAdjust="spacing" textLength="8" x="578.069" y="869.6147">1</text><text fill="#000000" font-family="sans-serif" font-size="13" lengthAdjust="spacing" textLength="6" x="368.5704" y="551.8235">*</text></g><!--reverse link ExtraClass to Course--><g id="link_ExtraClass_Course"><path codeLine="117" d="M363.62,669.11 C409.17,718.6 481.72,796.46 497,807 C526.86,827.63 565.21,843.08 593.74,852.83 " fill="none" id="ExtraClass-backto-Course" style="stroke:#181818;stroke-width:1.0;"/><polygon fill="#181818" points="360.57,665.7,363.7127,675.034,363.9525,669.3822,369.6043,669.622,360.57,665.7" style="stroke:#181818;stroke-width:1.0;"/><text fill="#000000" font-family="sans-serif" font-size="13" lengthAdjust="spacing" textLength="22" x="444" y="753.5684">has</text><text fill="#000000" font-family="sans-serif" font-size="13" lengthAdjust="spacing" textLength="6" x="359.1934" y="685.1677">*</text><text fill="#000000" font-family="sans-serif" font-size="13" lengthAdjust="spacing" textLength="8" x="577.9609" y="847.0427">1</text></g><!--link Teacher to Class--><g id="link_Teacher_Class"><path codeLine="118" d="M96.72,82.21 C101.92,87.12 106.72,92.77 110,99 C164.38,202.33 86.2,256.38 140,360 C172.49,422.59 240.61,471.47 284.23,497.99 " fill="none" id="Teacher-to-Class" style="stroke:#181818;stroke-width:1.0;"/><polygon fill="#181818" points="288.16,500.95,282.5203,492.8757,283.8788,498.367,278.3875,499.7256,288.16,500.95" style="stroke:#181818;stroke-width:1.0;"/><text fill="#000000" font-family="sans-serif" font-size="13" lengthAdjust="spacing" textLength="63" x="141" y="356.5684">schedules</text><text fill="#000000" font-family="sans-serif" font-size="13" lengthAdjust="spacing" textLength="8" x="96.0944" y="102.6155">1</text><text fill="#000000" font-family="sans-serif" font-size="13" lengthAdjust="spacing" textLength="6" x="275.5134" y="511.2734">*</text></g><!--link Teacher to ExtraClass--><g id="link_Teacher_ExtraClass"><path codeLine="119" d="M96.88,82.13 C102.07,87.04 106.82,92.72 110,99 C183.09,243.45 87.54,308.86 140,462 C159.26,518.22 168.45,534.69 213,574 C228.79,587.94 248.81,599.13 267.49,607.63 " fill="none" id="Teacher-to-ExtraClass" style="stroke:#181818;stroke-width:1.0;"/><polygon fill="#181818" points="271.72,609.96,265.116,602.6533,267.1498,607.932,261.8711,609.9657,271.72,609.96" style="stroke:#181818;stroke-width:1.0;"/><text fill="#000000" font-family="sans-serif" font-size="13" lengthAdjust="spacing" textLength="63" x="141" y="458.5684">schedules</text><text fill="#000000" font-family="sans-serif" font-size="13" lengthAdjust="spacing" textLength="8" x="106.5494" y="102.513">1</text><text fill="#000000" font-family="sans-serif" font-size="13" lengthAdjust="spacing" textLength="6" x="258.9463" y="621.0668">*</text></g><!--link Teacher to AssignedTeachers--><g id="link_Teacher_AssignedTeachers"><path codeLine="120" d="M97.41,82.49 C102.42,87.31 106.97,92.86 110,99 C158.31,197.07 123.21,481.99 140,590 C160.35,720.91 124.05,780.83 213,879 C222.9,889.93 236,897.87 249.72,903.64 " fill="none" id="Teacher-to-AssignedTeachers" style="stroke:#181818;stroke-width:1.0;"/><polygon fill="#181818" points="254.21,905.83,247.3132,898.7991,249.5608,903.9903,244.3696,906.2379,254.21,905.83" style="stroke:#181818;stroke-width:1.0;"/><text fill="#000000" font-family="sans-serif" font-size="13" lengthAdjust="spacing" textLength="27" x="159" y="586.5684">is in</text><text fill="#000000" font-family="sans-serif" font-size="13" lengthAdjust="spacing" textLength="8" x="106.7921" y="102.6224">1</text><text fill="#000000" font-family="sans-serif" font-size="13" lengthAdjust="spacing" textLength="6" x="241.7035" y="917.8288">*</text></g><!--reverse link AssignedTeachers to Course--><g id="link_AssignedTeachers_Course"><path codeLine="121" d="M400.55,905.93 C461.33,895.28 544.85,880.63 593.76,872.06 " fill="none" id="AssignedTeachers-backto-Course" style="stroke:#181818;stroke-width:1.0;"/><polygon fill="#181818" points="395.74,906.95,405.2934,909.3441,400.6656,906.0909,403.9188,901.4631,395.74,906.95" style="stroke:#181818;stroke-width:1.0;"/><text fill="#000000" font-family="sans-serif" font-size="13" lengthAdjust="spacing" textLength="22" x="444" y="892.5684">has</text><text fill="#000000" font-family="sans-serif" font-size="13" lengthAdjust="spacing" textLength="6" x="402.6959" y="919.0368">*</text><text fill="#000000" font-family="sans-serif" font-size="13" lengthAdjust="spacing" textLength="8" x="577.9844" y="887.156">1</text></g><!--reverse link EnrolledStudents to Course--><g id="link_EnrolledStudents_Course"><path codeLine="122" d="M396.77,848.06 C457.76,852.42 543.67,858.55 593.62,862.12 " fill="none" id="EnrolledStudents-backto-Course" style="stroke:#181818;stroke-width:1.0;"/><polygon fill="#181818" points="391.94,847.64,400.6453,852.2463,396.9283,847.9821,401.1926,844.2651,391.94,847.64" style="stroke:#181818;stroke-width:1.0;"/><text fill="#000000" font-family="sans-serif" font-size="13" lengthAdjust="spacing" textLength="22" x="444" y="848.5684">has</text><text fill="#000000" font-family="sans-serif" font-size="13" lengthAdjust="spacing" textLength="6" x="398.4803" y="861.5527">*</text><text fill="#000000" font-family="sans-serif" font-size="13" lengthAdjust="spacing" textLength="8" x="578.1039" y="857.9934">1</text></g><!--link Course to CourseState--><g id="link_Course_CourseState"><path codeLine="123" d="M635,823.97 C635,814.53 635,805.09 635,795.65 " fill="none" id="Course-to-CourseState" style="stroke:#181818;stroke-width:1.0;"/><polygon fill="#181818" points="635,790.77,631,799.77,635,795.77,639,799.77,635,790.77" style="stroke:#181818;stroke-width:1.0;"/><text fill="#000000" font-family="sans-serif" font-size="13" lengthAdjust="spacing" textLength="8" x="626.3375" y="813.5248">1</text><text fill="#000000" font-family="sans-serif" font-size="13" lengthAdjust="spacing" textLength="8" x="626.075" y="810.0678">1</text></g><!--link Course to CourseID--><g id="link_Course_CourseID"><path codeLine="124" d="M676.4,873.48 C720.4,882.72 790.53,897.44 835.65,906.91 " fill="none" id="Course-to-CourseID" style="stroke:#181818;stroke-width:1.0;"/><polygon fill="#181818" points="840.3,908.09,832.3137,902.3264,835.4066,907.0628,830.6702,910.1558,840.3,908.09" style="stroke:#181818;stroke-width:1.0;"/><text fill="#000000" font-family="sans-serif" font-size="13" lengthAdjust="spacing" textLength="8" x="683.9194" y="888.7193">1</text><text fill="#000000" font-family="sans-serif" font-size="13" lengthAdjust="spacing" textLength="8" x="825.4272" y="920.6113">1</text></g><!--link Course to Name--><g id="link_Course_Name"><path codeLine="125" d="M676.4,860.35 C724.35,854.82 803.31,845.73 847.15,840.67 " fill="none" id="Course-to-Name" style="stroke:#181818;stroke-width:1.0;"/><polygon fill="#181818" points="852.1,839.99,842.7021,837.0439,847.1327,840.561,843.6156,844.9916,852.1,839.99" style="stroke:#181818;stroke-width:1.0;"/><text fill="#000000" font-family="sans-serif" font-size="13" lengthAdjust="spacing" textLength="8" x="683.9194" y="855.9303">1</text><text fill="#000000" font-family="sans-serif" font-size="13" lengthAdjust="spacing" textLength="8" x="837.5681" y="855.1521">1</text></g><!--link Course to Description--><g id="link_Course_Description"><path codeLine="126" d="M676.4,848.55 C718.03,831.59 783.03,805.1 828.14,786.73 " fill="none" id="Course-to-Description" style="stroke:#181818;stroke-width:1.0;"/><polygon fill="#181818" points="832.54,784.53,822.696,784.2213,827.9095,786.4165,825.7144,791.63,832.54,784.53" style="stroke:#181818;stroke-width:1.0;"/><text fill="#000000" font-family="sans-serif" font-size="13" lengthAdjust="spacing" textLength="8" x="683.9194" y="842.1759">1</text><text fill="#000000" font-family="sans-serif" font-size="13" lengthAdjust="spacing" textLength="8" x="818.1287" y="800.9437">1</text></g><!--link EnrolledStudents to StudentEnrollmentState--><g id="link_EnrolledStudents_StudentEnrollmentState"><path codeLine="127" d="M325,824.49 C325,814.75 325,805 325,795.26 " fill="none" id="EnrolledStudents-to-StudentEnrollmentState" style="stroke:#181818;stroke-width:1.0;"/><polygon fill="#181818" points="325,790.52,321,799.52,325,795.52,329,799.52,325,790.52" style="stroke:#181818;stroke-width:1.0;"/><text fill="#000000" font-family="sans-serif" font-size="13" lengthAdjust="spacing" textLength="8" x="315.775" y="814.1391">1</text><text fill="#000000" font-family="sans-serif" font-size="13" lengthAdjust="spacing" textLength="8" x="316.075" y="809.76">1</text></g><!--link AssignedTeachers to GMN43--><g id="link_AssignedTeachers_GMN43"><path d="M394.61,934.42 C425.83,941.39 463.27,949.69 497,957 C521.23,962.26 547.91,967.93 571.23,972.86 " fill="none" id="AssignedTeachers-GMN43" style="stroke:#181818;stroke-width:1.0;stroke-dasharray:7.0,7.0;"/></g><!--SRC=[dLRRRXen47ttLrZqeLAbLLgfJn6AH0XLUMWgbVO3p7hOTRDhex5NXKRyUts5lT8M90BUEMSybpD3Ii61rc1AnJMfO6UeKHH5KHhA1K9kX994lmYvPyXgcbTCwuKnABQDWNMkv4Ry1lg-3_caf5cgIY5bZL4rCoBlGpu3uu2FB7yfK3MI1_YRZotStXfP0Hjph82wO9WiAY24lBsxoxB1c_xGW7JCuj-4H7zqve6Bea0ec87PAo7KlbRI27CCNkRpRqgPXmVwwasdWFYw_McZe50pKLd8ceEdJC3sW5f9jfOxXQu4IaQOUsq5cfBRsyzF33iyD_KMSCoLBTWlXVnypQcLpNTWUTb9Y7Opug158Nq42SiqdKbMkzmTS2TGcsTxzYVRdilXr76L-6FviXoLFDQTmdHmYJpxCADPbJtuByFWN78J7Lwg1ZLSwV6vA17PgebjQPAGRnY9AKLawZW98TVii9AegYgSX8md6rjCD_3MJxryBm1NGlewO6oC3SUIG3Qr3-IKx1lJE4VXfjf-6u4cx1Fe7CK-gie-JuR01XwTwGvheLsnWSTAwv2hq6kvB1aMC1diAaL0Uk9Rkbc-LkQMU3pMFxZCGMS4U8DU22F2MnqCilzrq1NIpNl3EVCOfzTvbldF9DQkDOkgJWCxr7q0n5dfaAt98Vns8LF4aQqocTVgO9VebRmcQ8-A8R-1zmN025dSmFphMFjg1AdDtlaULA4BaNbFInQ4ST59GexZ1gMru42xfzfQU5F1DB9rox_0-sDdIK9J4MGwC5wDUp3ULz7nWHCN1dMrnhg7E2iiBRQ-X-3W_CFGiRYFraeQ3TNVWG4xlkf2dwMoAoVy3w9sOxLJiZhQFq1DhBKl9itz2dCSHdCVt1y0]--></g></svg>