<?xml version="1.0" encoding="UTF-8" standalone="no"?>
<!DOCTYPE svg PUBLIC "-//W3C//DTD SVG 1.1//EN"
 "http://www.w3.org/Graphics/SVG/1.1/DTD/svg11.dtd">
<!-- Generated by graphviz version 2.44.1 (20200629.0846)
 -->
<!-- Title: g Pages: 1 -->
<svg width="412pt" height="959pt"
 viewBox="0.00 0.00 412.00 959.40" xmlns="http://www.w3.org/2000/svg" xmlns:xlink="http://www.w3.org/1999/xlink">
<g id="graph0" class="graph" transform="scale(1 1) rotate(0) translate(4 955.4)">
<title>g</title>
<polygon fill="white" stroke="transparent" points="-4,4 -4,-955.4 408,-955.4 408,4 -4,4"/>
<g id="clust1" class="cluster">
<title>cluster_1911013184</title>
<polygon fill="#ececec" stroke="black" points="8,-8 8,-943.4 396,-943.4 396,-8 8,-8"/>
<text text-anchor="middle" x="37.37" y="-926.8" font-family="Times New Roman,serif" font-size="14.00">ecourse</text>
</g>
<g id="clust2" class="cluster">
<title>cluster_1386234867</title>
<polygon fill="#d8d8d8" stroke="black" points="81,-675.8 81,-910.6 323,-910.6 323,-675.8 81,-675.8"/>
<text text-anchor="middle" x="99.11" y="-894" font-family="Times New Roman,serif" font-size="14.00">app</text>
</g>
<g id="clust3" class="cluster">
<title>cluster_489743759</title>
<polygon fill="#d8d8d8" stroke="black" points="16,-16 16,-154.8 388,-154.8 388,-16 16,-16"/>
<text text-anchor="middle" x="55.09" y="-138.2" font-family="Times New Roman,serif" font-size="14.00">persistence</text>
</g>
<g id="clust4" class="cluster">
<title>cluster_861892108</title>
<polygon fill="#d8d8d8" stroke="black" points="56,-173.8 56,-624.2 348,-624.2 348,-173.8 56,-173.8"/>
<text text-anchor="middle" x="118.03" y="-607.6" font-family="Times New Roman,serif" font-size="14.00">coursemanagement</text>
</g>
<!-- ListCourseUI707486463 -->
<g id="node1" class="node">
<title>ListCourseUI707486463</title>
<polygon fill="#ffffff" stroke="transparent" points="314.5,-877.8 89.5,-877.8 89.5,-683.8 314.5,-683.8 314.5,-877.8"/>
<text text-anchor="start" x="95" y="-860.2" font-family="Times New Roman,serif" font-size="14.00">(C)ListCourseUI</text>
<text text-anchor="start" x="94.61" y="-836.2" font-family="Times New Roman,serif" font-size="14.00">&#45; &#160;&#160;controller: ListCourseController [1]</text>
<text text-anchor="start" x="95" y="-812.2" font-family="Times New Roman,serif" font-size="14.00"># elementName(): String</text>
<text text-anchor="start" x="95" y="-788.2" font-family="Times New Roman,serif" font-size="14.00"># elementPrinter(): Visitor&lt;Course&gt;</text>
<text text-anchor="start" x="95" y="-764.2" font-family="Times New Roman,serif" font-size="14.00"># elements(): Iterable&lt;Course&gt;</text>
<text text-anchor="start" x="95" y="-740.2" font-family="Times New Roman,serif" font-size="14.00"># emptyMessage(): String</text>
<text text-anchor="start" x="95" y="-716.2" font-family="Times New Roman,serif" font-size="14.00">+ headline(): String</text>
<text text-anchor="start" x="95" y="-692.2" font-family="Times New Roman,serif" font-size="14.00"># listHeader(): String</text>
<polygon fill="black" stroke="black" points="90,-852.8 90,-852.8 315,-852.8 315,-852.8 90,-852.8"/>
<polygon fill="black" stroke="black" points="90,-828.8 90,-828.8 315,-828.8 315,-828.8 90,-828.8"/>
<polygon fill="none" stroke="black" points="89.5,-683.8 89.5,-877.8 314.5,-877.8 314.5,-683.8 89.5,-683.8"/>
</g>
<!-- ListCourseController427251605 -->
<g id="node3" class="node">
<title>ListCourseController427251605</title>
<polygon fill="#ffffff" stroke="transparent" points="299.5,-591.4 104.5,-591.4 104.5,-517.4 299.5,-517.4 299.5,-591.4"/>
<text text-anchor="start" x="110" y="-573.8" font-family="Times New Roman,serif" font-size="14.00">(C)ListCourseController</text>
<text text-anchor="start" x="109.79" y="-549.8" font-family="Times New Roman,serif" font-size="14.00">&#45; &#160;&#160;service: ListCourseService [1]</text>
<text text-anchor="start" x="109.8" y="-525.8" font-family="Times New Roman,serif" font-size="14.00">+ allCourses(): Iterable&lt;Course&gt;</text>
<polygon fill="black" stroke="black" points="105,-566.4 105,-566.4 300,-566.4 300,-566.4 105,-566.4"/>
<polygon fill="black" stroke="black" points="105,-542.4 105,-542.4 300,-542.4 300,-542.4 105,-542.4"/>
<polygon fill="none" stroke="black" points="104.5,-517.4 104.5,-591.4 299.5,-591.4 299.5,-517.4 104.5,-517.4"/>
</g>
<!-- ListCourseUI707486463&#45;&gt;ListCourseController427251605 -->
<g id="edge3" class="edge">
<title>ListCourseUI707486463&#45;&gt;ListCourseController427251605</title>
<path fill="none" stroke="black" d="M202,-683.66C202,-655.27 202,-625.47 202,-601.75"/>
<polygon fill="black" stroke="black" points="205.5,-601.65 202,-591.65 198.5,-601.65 205.5,-601.65"/>
<text text-anchor="middle" x="229.21" y="-653.2" font-family="Times New Roman,serif" font-size="14.00">controller</text>
<text text-anchor="middle" x="229.21" y="-636.4" font-family="Times New Roman,serif" font-size="14.00">[1]</text>
</g>
<!-- JpaCourseRepository1852613913 -->
<g id="node2" class="node">
<title>JpaCourseRepository1852613913</title>
<polygon fill="#ffffff" stroke="transparent" points="380,-122 24,-122 24,-24 380,-24 380,-122"/>
<text text-anchor="start" x="29" y="-104.4" font-family="Times New Roman,serif" font-size="14.00">(C)JpaCourseRepository</text>
<text text-anchor="start" x="29" y="-80.4" font-family="Times New Roman,serif" font-size="14.00">+ findAllCoursesOpenOrEnrollState(): Iterable&lt;Course&gt;</text>
<text text-anchor="start" x="29" y="-56.4" font-family="Times New Roman,serif" font-size="14.00">+ findAllCoursesWithState(state: State): Iterable&lt;Course&gt;</text>
<text text-anchor="start" x="28.62" y="-32.4" font-family="Times New Roman,serif" font-size="14.00">+ findAllCoursesWithoutState(state: State): Iterable&lt;Course&gt;</text>
<polygon fill="black" stroke="black" points="24,-97 24,-97 380,-97 380,-97 24,-97"/>
<polygon fill="none" stroke="black" points="24,-24 24,-122 380,-122 380,-24 24,-24"/>
</g>
<!-- ListCourseService427251605 -->
<g id="node4" class="node">
<title>ListCourseService427251605</title>
<polygon fill="#ffffff" stroke="transparent" points="339.5,-447.8 64.5,-447.8 64.5,-181.8 339.5,-181.8 339.5,-447.8"/>
<text text-anchor="start" x="70" y="-430.2" font-family="Times New Roman,serif" font-size="14.00">(C)ListCourseService</text>
<text text-anchor="start" x="70" y="-406.2" font-family="Times New Roman,serif" font-size="14.00">&#45; &#160;&#160;authz: AuthorizationService [1]</text>
<text text-anchor="start" x="70" y="-382.2" font-family="Times New Roman,serif" font-size="14.00">&#45; &#160;&#160;courseRepository: CourseRepository [1]</text>
<text text-anchor="start" x="70" y="-358.2" font-family="Times New Roman,serif" font-size="14.00">+ allClosedCourses(): Iterable&lt;Course&gt;</text>
<text text-anchor="start" x="70" y="-334.2" font-family="Times New Roman,serif" font-size="14.00">+ allCourses(): Iterable&lt;Course&gt;</text>
<text text-anchor="start" x="69.76" y="-310.2" font-family="Times New Roman,serif" font-size="14.00">+ allCoursesOpenOrEnroll(): Iterable&lt;Course&gt;</text>
<text text-anchor="start" x="70" y="-286.2" font-family="Times New Roman,serif" font-size="14.00">+ allEnrollCourses(): Iterable&lt;Course&gt;</text>
<text text-anchor="start" x="70" y="-262.2" font-family="Times New Roman,serif" font-size="14.00">+ allNotClosedCourses(): Iterable&lt;Course&gt;</text>
<text text-anchor="start" x="70" y="-238.2" font-family="Times New Roman,serif" font-size="14.00">+ allNotEnrollCourses(): Iterable&lt;Course&gt;</text>
<text text-anchor="start" x="70" y="-214.2" font-family="Times New Roman,serif" font-size="14.00">+ allOpenCourses(): Iterable&lt;Course&gt;</text>
<text text-anchor="start" x="70" y="-190.2" font-family="Times New Roman,serif" font-size="14.00">+ allProgressCourses(): Iterable&lt;Course&gt;</text>
<polygon fill="black" stroke="black" points="65,-422.8 65,-422.8 340,-422.8 340,-422.8 65,-422.8"/>
<polygon fill="black" stroke="black" points="65,-374.8 65,-374.8 340,-374.8 340,-374.8 65,-374.8"/>
<polygon fill="none" stroke="black" points="64.5,-181.8 64.5,-447.8 339.5,-447.8 339.5,-181.8 64.5,-181.8"/>
</g>
<!-- ListCourseController427251605&#45;&gt;ListCourseService427251605 -->
<g id="edge1" class="edge">
<title>ListCourseController427251605&#45;&gt;ListCourseService427251605</title>
<path fill="none" stroke="black" d="M202,-517.31C202,-500.76 202,-479.96 202,-458.06"/>
<polygon fill="black" stroke="black" points="205.5,-457.92 202,-447.92 198.5,-457.92 205.5,-457.92"/>
<text text-anchor="middle" x="221.82" y="-486.8" font-family="Times New Roman,serif" font-size="14.00">service</text>
<text text-anchor="middle" x="221.82" y="-470" font-family="Times New Roman,serif" font-size="14.00">[1]</text>
</g>
<!-- ListCourseService427251605&#45;&gt;JpaCourseRepository1852613913 -->
<g id="edge2" class="edge">
<title>ListCourseService427251605&#45;&gt;JpaCourseRepository1852613913</title>
<path fill="none" stroke="black" d="M202,-181.62C202,-160.34 202,-139.58 202,-122.07"/>
</g>
</g>
</svg>
