<?xml version="1.0" encoding="us-ascii" standalone="no"?><svg xmlns="http://www.w3.org/2000/svg" xmlns:xlink="http://www.w3.org/1999/xlink" contentStyleType="text/css" height="430px" preserveAspectRatio="none" style="width:734px;height:430px;background:#FFFFFF;" version="1.1" viewBox="0 0 734 430" width="734px" zoomAndPan="magnify"><defs/><g><rect fill="#FFFFFF" height="212.4551" style="stroke:#181818;stroke-width:1.0;" width="10" x="166" y="116.9121"/><rect fill="#FFFFFF" height="149.873" style="stroke:#181818;stroke-width:1.0;" width="10" x="302.5" y="148.2031"/><rect fill="#FFFFFF" height="104.582" style="stroke:#181818;stroke-width:1.0;" width="10" x="449" y="179.4941"/><rect fill="#FFFFFF" height="59.291" style="stroke:#181818;stroke-width:1.0;" width="10" x="587.5" y="210.7852"/><rect fill="#FFFFFF" height="14" style="stroke:#181818;stroke-width:1.0;" width="10" x="694" y="242.0762"/><line style="stroke:#181818;stroke-width:0.5;stroke-dasharray:5.0,5.0;" x1="36" x2="36" y1="83.6211" y2="347.3672"/><line style="stroke:#181818;stroke-width:0.5;stroke-dasharray:5.0,5.0;" x1="170.5" x2="170.5" y1="83.6211" y2="347.3672"/><line style="stroke:#181818;stroke-width:0.5;stroke-dasharray:5.0,5.0;" x1="307.5" x2="307.5" y1="83.6211" y2="347.3672"/><line style="stroke:#181818;stroke-width:0.5;stroke-dasharray:5.0,5.0;" x1="453.5" x2="453.5" y1="83.6211" y2="347.3672"/><line style="stroke:#181818;stroke-width:0.5;stroke-dasharray:5.0,5.0;" x1="592.5" x2="592.5" y1="83.6211" y2="347.3672"/><line style="stroke:#181818;stroke-width:0.5;stroke-dasharray:5.0,5.0;" x1="698.5" x2="698.5" y1="83.6211" y2="347.3672"/><text fill="#000000" font-family="sans-serif" font-size="14" lengthAdjust="spacing" textLength="56" x="5" y="80.1074">Manager</text><ellipse cx="36" cy="13.5" fill="#E2E2F0" rx="8" ry="8" style="stroke:#181818;stroke-width:0.5;"/><path d="M36,21.5 L36,48.5 M23,29.5 L49,29.5 M36,48.5 L23,63.5 M36,48.5 L49,63.5 " fill="none" style="stroke:#181818;stroke-width:0.5;"/><text fill="#000000" font-family="sans-serif" font-size="14" lengthAdjust="spacing" textLength="56" x="5" y="361.4746">Manager</text><ellipse cx="36" cy="373.4883" fill="#E2E2F0" rx="8" ry="8" style="stroke:#181818;stroke-width:0.5;"/><path d="M36,381.4883 L36,408.4883 M23,389.4883 L49,389.4883 M36,408.4883 L23,423.4883 M36,408.4883 L49,423.4883 " fill="none" style="stroke:#181818;stroke-width:0.5;"/><rect fill="#E2E2F0" height="51.2422" rx="2.5" ry="2.5" style="stroke:#181818;stroke-width:0.5;" width="109" x="116.5" y="31.3789"/><text fill="#000000" font-family="sans-serif" font-size="14" font-style="italic" lengthAdjust="spacing" textLength="95" x="123.5" y="53.4863">&#171;presentation&#187;</text><text fill="#000000" font-family="sans-serif" font-size="14" lengthAdjust="spacing" textLength="80" x="131" y="72.1074">ListCourseUI</text><rect fill="#E2E2F0" height="51.2422" rx="2.5" ry="2.5" style="stroke:#181818;stroke-width:0.5;" width="109" x="116.5" y="346.3672"/><text fill="#000000" font-family="sans-serif" font-size="14" font-style="italic" lengthAdjust="spacing" textLength="95" x="123.5" y="368.4746">&#171;presentation&#187;</text><text fill="#000000" font-family="sans-serif" font-size="14" lengthAdjust="spacing" textLength="80" x="131" y="387.0957">ListCourseUI</text><rect fill="#E2E2F0" height="51.2422" rx="2.5" ry="2.5" style="stroke:#181818;stroke-width:0.5;" width="144" x="235.5" y="31.3789"/><text fill="#000000" font-family="sans-serif" font-size="14" font-style="italic" lengthAdjust="spacing" textLength="75" x="270" y="53.4863">&#171;controller&#187;</text><text fill="#000000" font-family="sans-serif" font-size="14" lengthAdjust="spacing" textLength="130" x="242.5" y="72.1074">ListCourseController</text><rect fill="#E2E2F0" height="51.2422" rx="2.5" ry="2.5" style="stroke:#181818;stroke-width:0.5;" width="144" x="235.5" y="346.3672"/><text fill="#000000" font-family="sans-serif" font-size="14" font-style="italic" lengthAdjust="spacing" textLength="75" x="270" y="368.4746">&#171;controller&#187;</text><text fill="#000000" font-family="sans-serif" font-size="14" lengthAdjust="spacing" textLength="130" x="242.5" y="387.0957">ListCourseController</text><rect fill="#E2E2F0" height="51.2422" rx="2.5" ry="2.5" style="stroke:#181818;stroke-width:0.5;" width="129" x="389.5" y="31.3789"/><text fill="#000000" font-family="sans-serif" font-size="14" font-style="italic" lengthAdjust="spacing" textLength="60" x="424" y="53.4863">&#171;service&#187;</text><text fill="#000000" font-family="sans-serif" font-size="14" lengthAdjust="spacing" textLength="115" x="396.5" y="72.1074">ListCourseService</text><rect fill="#E2E2F0" height="51.2422" rx="2.5" ry="2.5" style="stroke:#181818;stroke-width:0.5;" width="129" x="389.5" y="346.3672"/><text fill="#000000" font-family="sans-serif" font-size="14" font-style="italic" lengthAdjust="spacing" textLength="60" x="424" y="368.4746">&#171;service&#187;</text><text fill="#000000" font-family="sans-serif" font-size="14" lengthAdjust="spacing" textLength="115" x="396.5" y="387.0957">ListCourseService</text><rect fill="#E2E2F0" height="51.2422" rx="2.5" ry="2.5" style="stroke:#181818;stroke-width:0.5;" width="128" x="528.5" y="31.3789"/><text fill="#000000" font-family="sans-serif" font-size="14" font-style="italic" lengthAdjust="spacing" textLength="79" x="553" y="53.4863">&#171;repository&#187;</text><text fill="#000000" font-family="sans-serif" font-size="14" lengthAdjust="spacing" textLength="114" x="535.5" y="72.1074">CourseRepository</text><rect fill="#E2E2F0" height="51.2422" rx="2.5" ry="2.5" style="stroke:#181818;stroke-width:0.5;" width="128" x="528.5" y="346.3672"/><text fill="#000000" font-family="sans-serif" font-size="14" font-style="italic" lengthAdjust="spacing" textLength="79" x="553" y="368.4746">&#171;repository&#187;</text><text fill="#000000" font-family="sans-serif" font-size="14" lengthAdjust="spacing" textLength="114" x="535.5" y="387.0957">CourseRepository</text><text fill="#000000" font-family="sans-serif" font-size="14" lengthAdjust="spacing" textLength="59" x="666.5" y="80.1074">database</text><path d="M681,29 C681,19 699,19 699,19 C699,19 717,19 717,29 L717,55 C717,65 699,65 699,65 C699,65 681,65 681,55 L681,29 " fill="#E2E2F0" style="stroke:#181818;stroke-width:1.5;"/><path d="M681,29 C681,39 699,39 699,39 C699,39 717,39 717,29 " fill="none" style="stroke:#181818;stroke-width:1.5;"/><text fill="#000000" font-family="sans-serif" font-size="14" lengthAdjust="spacing" textLength="59" x="666.5" y="361.4746">database</text><path d="M681,374.9883 C681,364.9883 699,364.9883 699,364.9883 C699,364.9883 717,364.9883 717,374.9883 L717,400.9883 C717,410.9883 699,410.9883 699,410.9883 C699,410.9883 681,410.9883 681,400.9883 L681,374.9883 " fill="#E2E2F0" style="stroke:#181818;stroke-width:1.5;"/><path d="M681,374.9883 C681,384.9883 699,384.9883 699,384.9883 C699,384.9883 717,384.9883 717,374.9883 " fill="none" style="stroke:#181818;stroke-width:1.5;"/><rect fill="#FFFFFF" height="212.4551" style="stroke:#181818;stroke-width:1.0;" width="10" x="166" y="116.9121"/><rect fill="#FFFFFF" height="149.873" style="stroke:#181818;stroke-width:1.0;" width="10" x="302.5" y="148.2031"/><rect fill="#FFFFFF" height="104.582" style="stroke:#181818;stroke-width:1.0;" width="10" x="449" y="179.4941"/><rect fill="#FFFFFF" height="59.291" style="stroke:#181818;stroke-width:1.0;" width="10" x="587.5" y="210.7852"/><rect fill="#FFFFFF" height="14" style="stroke:#181818;stroke-width:1.0;" width="10" x="694" y="242.0762"/><polygon fill="#181818" points="154,112.9121,164,116.9121,154,120.9121,158,116.9121" style="stroke:#181818;stroke-width:1.0;"/><line style="stroke:#181818;stroke-width:1.0;" x1="36" x2="160" y1="116.9121" y2="116.9121"/><text fill="#000000" font-family="sans-serif" font-size="13" lengthAdjust="spacing" textLength="111" x="43" y="111.6494">ask to see courses</text><polygon fill="#181818" points="290.5,144.2031,300.5,148.2031,290.5,152.2031,294.5,148.2031" style="stroke:#181818;stroke-width:1.0;"/><line style="stroke:#181818;stroke-width:1.0;" x1="176" x2="296.5" y1="148.2031" y2="148.2031"/><text fill="#000000" font-family="sans-serif" font-size="13" lengthAdjust="spacing" textLength="61" x="183" y="142.9404">allCourses</text><polygon fill="#181818" points="437,175.4941,447,179.4941,437,183.4941,441,179.4941" style="stroke:#181818;stroke-width:1.0;"/><line style="stroke:#181818;stroke-width:1.0;" x1="312.5" x2="443" y1="179.4941" y2="179.4941"/><text fill="#000000" font-family="sans-serif" font-size="13" lengthAdjust="spacing" textLength="61" x="319.5" y="174.2314">allCourses</text><polygon fill="#181818" points="575.5,206.7852,585.5,210.7852,575.5,214.7852,579.5,210.7852" style="stroke:#181818;stroke-width:1.0;"/><line style="stroke:#181818;stroke-width:1.0;" x1="459" x2="581.5" y1="210.7852" y2="210.7852"/><text fill="#000000" font-family="sans-serif" font-size="13" lengthAdjust="spacing" textLength="61" x="466" y="205.5225">allCourses</text><polygon fill="#181818" points="682,238.0762,692,242.0762,682,246.0762,686,242.0762" style="stroke:#181818;stroke-width:1.0;"/><line style="stroke:#181818;stroke-width:1.0;" x1="597.5" x2="688" y1="242.0762" y2="242.0762"/><text fill="#000000" font-family="sans-serif" font-size="13" lengthAdjust="spacing" textLength="61" x="604.5" y="236.8135">allCourses</text><polygon fill="#181818" points="608.5,252.0762,598.5,256.0762,608.5,260.0762,604.5,256.0762" style="stroke:#181818;stroke-width:1.0;"/><line style="stroke:#181818;stroke-width:1.0;stroke-dasharray:2.0,2.0;" x1="602.5" x2="698" y1="256.0762" y2="256.0762"/><polygon fill="#181818" points="470,266.0762,460,270.0762,470,274.0762,466,270.0762" style="stroke:#181818;stroke-width:1.0;"/><line style="stroke:#181818;stroke-width:1.0;stroke-dasharray:2.0,2.0;" x1="464" x2="591.5" y1="270.0762" y2="270.0762"/><polygon fill="#181818" points="323.5,280.0762,313.5,284.0762,323.5,288.0762,319.5,284.0762" style="stroke:#181818;stroke-width:1.0;"/><line style="stroke:#181818;stroke-width:1.0;stroke-dasharray:2.0,2.0;" x1="317.5" x2="453" y1="284.0762" y2="284.0762"/><polygon fill="#181818" points="187,294.0762,177,298.0762,187,302.0762,183,298.0762" style="stroke:#181818;stroke-width:1.0;"/><line style="stroke:#181818;stroke-width:1.0;stroke-dasharray:2.0,2.0;" x1="181" x2="306.5" y1="298.0762" y2="298.0762"/><polygon fill="#181818" points="47,325.3672,37,329.3672,47,333.3672,43,329.3672" style="stroke:#181818;stroke-width:1.0;"/><line style="stroke:#181818;stroke-width:1.0;stroke-dasharray:2.0,2.0;" x1="41" x2="170" y1="329.3672" y2="329.3672"/><text fill="#000000" font-family="sans-serif" font-size="13" lengthAdjust="spacing" textLength="67" x="53" y="324.1045">list courses</text><!--SRC=[XP91RWCX34NtdC8No0KYD58qtLHgDwrw09TO5Ig2aN4YzVPbCfa93D3kiFd_6JwSZ0I6L_JuHGmOuJGtr8GirjW9lS2BZJA62qVwU9uLHQtrn1J92ueDVXWwpZ5uuU3SCgFPrzfiHPVpJdorXah8sjGwBgkTVL6zqHIYJPVxcTrLJslUYkHNjnpWC9JNFIRlDqY0I0JcreqAZTWh2XLILVWAJdRfn7Dkx7CUKjNq5zmrX_-WTvsgdGbN1TEcxMNg2GK_CHASxmjLaH9ztUnGD- -cEpIEfCvKE-ffhMnoQuLjvD5vjnppLwxvI-s-KXkHZM2I2tjmQM_zQRy0]--></g></svg>