<?xml version="1.0" encoding="us-ascii" standalone="no"?><svg xmlns="http://www.w3.org/2000/svg" xmlns:xlink="http://www.w3.org/1999/xlink" contentStyleType="text/css" height="889px" preserveAspectRatio="none" style="width:912px;height:889px;background:#FFFFFF;" version="1.1" viewBox="0 0 912 889" width="912px" zoomAndPan="magnify"><defs/><g><!--cluster User Aggregate--><g id="cluster_User Aggregate"><rect fill="none" height="196" rx="2.5" ry="2.5" style="stroke:#000000;stroke-width:1.5;" width="457.5" x="197.5" y="229"/><text fill="#000000" font-family="sans-serif" font-size="14" font-weight="bold" lengthAdjust="spacing" textLength="110" x="371.25" y="244.5352">User Aggregate</text></g><!--cluster Teacher Aggregate--><g id="cluster_Teacher Aggregate"><rect fill="none" height="198" rx="2.5" ry="2.5" style="stroke:#000000;stroke-width:1.5;" width="334.5" x="7" y="7"/><text fill="#000000" font-family="sans-serif" font-size="14" font-weight="bold" lengthAdjust="spacing" textLength="134" x="107.25" y="22.5352">Teacher Aggregate</text></g><!--cluster Course Aggregate--><g id="cluster_Course Aggregate"><rect fill="none" height="253" rx="2.5" ry="2.5" style="stroke:#181818;stroke-width:1.0;" width="721" x="185" y="449"/><text fill="#000000" font-family="sans-serif" font-size="14" font-weight="bold" lengthAdjust="spacing" textLength="128" x="481.5" y="464.5352">Course Aggregate</text></g><!--cluster Class Aggregate--><g id="cluster_Class Aggregate"><rect fill="none" height="123" rx="2.5" ry="2.5" style="stroke:#181818;stroke-width:1.0;" width="133" x="532.5" y="760"/><text fill="#000000" font-family="sans-serif" font-size="14" font-weight="bold" lengthAdjust="spacing" textLength="117" x="540.5" y="775.5352">Class Aggregate</text></g><!--class User--><g id="elem_User"><rect codeLine="12" fill="#F1F1F1" height="48.6211" id="User" rx="2.5" ry="2.5" style="stroke:#181818;stroke-width:0.5;" width="66" x="256" y="360.69"/><rect fill="#444444" height="40.6211" rx="2.5" ry="2.5" style="stroke:#444444;stroke-width:0.5;" width="66" x="256" y="360.69"/><rect fill="#444444" height="2.5" style="stroke:#444444;stroke-width:0.5;" width="66" x="256" y="398.8111"/><rect codeLine="12" fill="none" height="48.6211" id="User" rx="2.5" ry="2.5" style="stroke:#181818;stroke-width:0.5;" width="66" x="256" y="360.69"/><ellipse cx="271" cy="381.0005" fill="#ADD1B2" rx="11" ry="11" style="stroke:#181818;stroke-width:1.0;"/><path d="M275.1143,387.0005 L267.3945,387.0005 L267.3945,374.6075 L275.1143,374.6075 L275.1143,376.7657 L269.8433,376.7657 L269.8433,379.4385 L274.6162,379.4385 L274.6162,381.5967 L269.8433,381.5967 L269.8433,384.8423 L275.1143,384.8423 Z " fill="#000000"/><text fill="#000000" font-family="sans-serif" font-size="12" font-style="italic" lengthAdjust="spacing" textLength="38" x="283" y="377.2916">&#171;Root&#187;</text><text fill="#FFFFFF" font-family="sans-serif" font-size="14" lengthAdjust="spacing" textLength="31" x="286.5" y="393.358">User</text><line style="stroke:#181818;stroke-width:0.5;" x1="257" x2="321" y1="401.3111" y2="401.3111"/></g><g id="elem_email"><rect fill="#F1F1F1" height="50.6211" style="stroke:#181818;stroke-width:0.5;" width="64" x="567" y="358.69"/><text fill="#000000" font-family="sans-serif" font-size="12" font-style="italic" lengthAdjust="spacing" textLength="54" x="572" y="370.2916">&#171;Identity&#187;</text><text fill="#000000" font-family="sans-serif" font-size="14" lengthAdjust="spacing" textLength="37" x="580.5" y="388.358">email</text><line style="stroke:#181818;stroke-width:0.5;" x1="568" x2="630" y1="393.3111" y2="393.3111"/></g><g id="elem_personaInformation"><rect fill="#F1F1F1" height="61.4648" style="stroke:#181818;stroke-width:0.5;" width="151" x="213.5" y="264.27"/><text fill="#000000" font-family="sans-serif" font-size="14" lengthAdjust="spacing" textLength="137" x="220.5" y="279.8052">personaInformation</text><line style="stroke:#181818;stroke-width:0.5;" x1="214.5" x2="363.5" y1="284.7583" y2="284.7583"/><text fill="#000000" font-family="sans-serif" font-size="14" lengthAdjust="spacing" textLength="63" x="219.5" y="302.2934">birthdate</text><text fill="#000000" font-family="sans-serif" font-size="14" lengthAdjust="spacing" textLength="77" x="219.5" y="318.7817">taxNumber</text></g><g id="elem_password"><rect fill="#F1F1F1" height="36.4883" style="stroke:#181818;stroke-width:0.5;" width="80" x="559" y="286.76"/><text fill="#000000" font-family="sans-serif" font-size="14" lengthAdjust="spacing" textLength="66" x="566" y="302.2952">password</text><line style="stroke:#181818;stroke-width:0.5;" x1="560" x2="638" y1="307.2483" y2="307.2483"/></g><!--class designationTeacher--><g id="elem_designationTeacher"><rect codeLine="30" fill="#F1F1F1" height="72.9766" id="designationTeacher" rx="2.5" ry="2.5" style="stroke:#181818;stroke-width:0.5;" width="78" x="27.5" y="116.51"/><rect fill="#444444" height="32" rx="2.5" ry="2.5" style="stroke:#444444;stroke-width:0.5;" width="78" x="27.5" y="116.51"/><rect fill="#444444" height="2.5" style="stroke:#444444;stroke-width:0.5;" width="78" x="27.5" y="146.01"/><rect codeLine="30" fill="none" height="72.9766" id="designationTeacher" rx="2.5" ry="2.5" style="stroke:#181818;stroke-width:0.5;" width="78" x="27.5" y="116.51"/><ellipse cx="46.1" cy="132.51" fill="#ADD1B2" rx="11" ry="11" style="stroke:#181818;stroke-width:1.0;"/><path d="M50.2143,138.51 L42.4945,138.51 L42.4945,126.1169 L50.2143,126.1169 L50.2143,128.2751 L44.9433,128.2751 L44.9433,130.948 L49.7162,130.948 L49.7162,133.1062 L44.9433,133.1062 L44.9433,136.3518 L50.2143,136.3518 Z " fill="#000000"/><text fill="#FFFFFF" font-family="sans-serif" font-size="14" lengthAdjust="spacing" textLength="38" x="60.9" y="137.801">name</text><line style="stroke:#181818;stroke-width:0.5;" x1="28.5" x2="104.5" y1="148.51" y2="148.51"/><text fill="#000000" font-family="sans-serif" font-size="14" lengthAdjust="spacing" textLength="66" x="33.5" y="166.0452">firstName</text><text fill="#000000" font-family="sans-serif" font-size="14" lengthAdjust="spacing" textLength="63" x="33.5" y="182.5334">lastName</text></g><!--class Teacher--><g id="elem_Teacher"><rect codeLine="35" fill="#F1F1F1" height="40" id="Teacher" rx="2.5" ry="2.5" style="stroke:#181818;stroke-width:0.5;" width="87" x="23" y="42"/><rect fill="#444444" height="32" rx="2.5" ry="2.5" style="stroke:#444444;stroke-width:0.5;" width="87" x="23" y="42"/><rect fill="#444444" height="2.5" style="stroke:#444444;stroke-width:0.5;" width="87" x="23" y="71.5"/><rect codeLine="35" fill="none" height="40" id="Teacher" rx="2.5" ry="2.5" style="stroke:#181818;stroke-width:0.5;" width="87" x="23" y="42"/><ellipse cx="38" cy="58" fill="#ADD1B2" rx="11" ry="11" style="stroke:#181818;stroke-width:1.0;"/><path d="M42.1143,64 L34.3945,64 L34.3945,51.6069 L42.1143,51.6069 L42.1143,53.7651 L36.8433,53.7651 L36.8433,56.438 L41.6162,56.438 L41.6162,58.5962 L36.8433,58.5962 L36.8433,61.8418 L42.1143,61.8418 Z " fill="#000000"/><text fill="#FFFFFF" font-family="sans-serif" font-size="14" lengthAdjust="spacing" textLength="55" x="52" y="63.291">Teacher</text><line style="stroke:#181818;stroke-width:0.5;" x1="24" x2="109" y1="74" y2="74"/></g><g id="elem_acronym"><rect fill="#F1F1F1" height="50.6211" style="stroke:#181818;stroke-width:0.5;" width="73" x="252.5" y="41.69"/><text fill="#000000" font-family="sans-serif" font-size="12" font-style="italic" lengthAdjust="spacing" textLength="54" x="262" y="53.2916">&#171;Identity&#187;</text><text fill="#000000" font-family="sans-serif" font-size="14" lengthAdjust="spacing" textLength="59" x="259.5" y="71.358">acronym</text><line style="stroke:#181818;stroke-width:0.5;" x1="253.5" x2="324.5" y1="76.3111" y2="76.3111"/></g><!--class Course--><g id="elem_Course"><rect codeLine="48" fill="#F1F1F1" height="81.5977" id="Course" rx="2.5" ry="2.5" style="stroke:#181818;stroke-width:0.5;" width="82" x="558" y="602.2"/><rect fill="#444444" height="40.6211" rx="2.5" ry="2.5" style="stroke:#444444;stroke-width:0.5;" width="82" x="558" y="602.2"/><rect fill="#444444" height="2.5" style="stroke:#444444;stroke-width:0.5;" width="82" x="558" y="640.3211"/><rect codeLine="48" fill="none" height="81.5977" id="Course" rx="2.5" ry="2.5" style="stroke:#181818;stroke-width:0.5;" width="82" x="558" y="602.2"/><ellipse cx="573.45" cy="622.5105" fill="#ADD1B2" rx="11" ry="11" style="stroke:#181818;stroke-width:1.0;"/><path d="M577.5643,628.5105 L569.8445,628.5105 L569.8445,616.1175 L577.5643,616.1175 L577.5643,618.2757 L572.2933,618.2757 L572.2933,620.9485 L577.0662,620.9485 L577.0662,623.1067 L572.2933,623.1067 L572.2933,626.3523 L577.5643,626.3523 Z " fill="#000000"/><text fill="#000000" font-family="sans-serif" font-size="12" font-style="italic" lengthAdjust="spacing" textLength="38" x="593.05" y="618.8016">&#171;Root&#187;</text><text fill="#FFFFFF" font-family="sans-serif" font-size="14" lengthAdjust="spacing" textLength="49" x="587.55" y="634.868">Course</text><line style="stroke:#181818;stroke-width:0.5;" x1="559" x2="639" y1="642.8211" y2="642.8211"/><text fill="#000000" font-family="sans-serif" font-size="14" lengthAdjust="spacing" textLength="70" x="564" y="660.3563">maxEnroll</text><text fill="#000000" font-family="sans-serif" font-size="14" lengthAdjust="spacing" textLength="66" x="564" y="676.8445">minEnroll</text></g><g id="elem_CourseID"><rect fill="#F1F1F1" height="50.6211" style="stroke:#181818;stroke-width:0.5;" width="77" x="805.5" y="635.69"/><text fill="#000000" font-family="sans-serif" font-size="12" font-style="italic" lengthAdjust="spacing" textLength="54" x="817" y="647.2916">&#171;Identity&#187;</text><text fill="#000000" font-family="sans-serif" font-size="14" lengthAdjust="spacing" textLength="63" x="812.5" y="665.358">CourseID</text><line style="stroke:#181818;stroke-width:0.5;" x1="806.5" x2="881.5" y1="670.3111" y2="670.3111"/></g><g id="elem_Name"><rect fill="#F1F1F1" height="36.4883" style="stroke:#181818;stroke-width:0.5;" width="53" x="817.5" y="563.76"/><text fill="#000000" font-family="sans-serif" font-size="14" lengthAdjust="spacing" textLength="39" x="824.5" y="579.2952">Name</text><line style="stroke:#181818;stroke-width:0.5;" x1="818.5" x2="869.5" y1="584.2483" y2="584.2483"/></g><g id="elem_CourseState"><rect fill="#F1F1F1" height="50.6211" style="stroke:#181818;stroke-width:0.5;" width="97" x="550.5" y="516.69"/><text fill="#000000" font-family="sans-serif" font-size="12" font-style="italic" lengthAdjust="spacing" textLength="44" x="577" y="528.2916">&#171;Enum&#187;</text><text fill="#000000" font-family="sans-serif" font-size="14" lengthAdjust="spacing" textLength="83" x="557.5" y="546.358">CourseState</text><line style="stroke:#181818;stroke-width:0.5;" x1="551.5" x2="646.5" y1="551.3111" y2="551.3111"/></g><g id="elem_StudentEnrollmentState"><rect fill="#F1F1F1" height="50.6211" style="stroke:#181818;stroke-width:0.5;" width="176" x="201" y="483.69"/><text fill="#000000" font-family="sans-serif" font-size="12" font-style="italic" lengthAdjust="spacing" textLength="44" x="267" y="495.2916">&#171;enum&#187;</text><text fill="#000000" font-family="sans-serif" font-size="14" lengthAdjust="spacing" textLength="162" x="208" y="513.358">StudentEnrollmentState</text><line style="stroke:#181818;stroke-width:0.5;" x1="202" x2="376" y1="518.3111" y2="518.3111"/></g><g id="elem_Description"><rect fill="#F1F1F1" height="36.4883" style="stroke:#181818;stroke-width:0.5;" width="92" x="798" y="492.76"/><text fill="#000000" font-family="sans-serif" font-size="14" lengthAdjust="spacing" textLength="78" x="805" y="508.2952">Description</text><line style="stroke:#181818;stroke-width:0.5;" x1="799" x2="889" y1="513.2483" y2="513.2483"/></g><g id="elem_EnrolledStudents"><rect fill="#F1F1F1" height="36.4883" style="stroke:#181818;stroke-width:0.5;" width="131" x="223.5" y="569.76"/><text fill="#000000" font-family="sans-serif" font-size="14" lengthAdjust="spacing" textLength="117" x="230.5" y="585.2952">EnrolledStudents</text><line style="stroke:#181818;stroke-width:0.5;" x1="224.5" x2="353.5" y1="590.2483" y2="590.2483"/></g><g id="elem_AssignedTeachers"><rect fill="#F1F1F1" height="44.9766" style="stroke:#181818;stroke-width:0.5;" width="139" x="219.5" y="641.51"/><text fill="#000000" font-family="sans-serif" font-size="14" lengthAdjust="spacing" textLength="125" x="226.5" y="657.0452">AssignedTeachers</text><line style="stroke:#181818;stroke-width:0.5;" x1="220.5" x2="357.5" y1="661.9983" y2="661.9983"/><text fill="#000000" font-family="sans-serif" font-size="14" lengthAdjust="spacing" textLength="74" x="225.5" y="679.5334">isInCharge</text></g><!--class Class--><g id="elem_Class"><rect codeLine="83" fill="#F1F1F1" height="72.9766" id="Class" rx="2.5" ry="2.5" style="stroke:#181818;stroke-width:0.5;" width="71" x="563.5" y="794.51"/><rect fill="#444444" height="32" rx="2.5" ry="2.5" style="stroke:#444444;stroke-width:0.5;" width="71" x="563.5" y="794.51"/><rect fill="#444444" height="2.5" style="stroke:#444444;stroke-width:0.5;" width="71" x="563.5" y="824.01"/><rect codeLine="83" fill="none" height="72.9766" id="Class" rx="2.5" ry="2.5" style="stroke:#181818;stroke-width:0.5;" width="71" x="563.5" y="794.51"/><ellipse cx="579.85" cy="810.51" fill="#ADD1B2" rx="11" ry="11" style="stroke:#181818;stroke-width:1.0;"/><path d="M583.9643,816.51 L576.2445,816.51 L576.2445,804.1169 L583.9643,804.1169 L583.9643,806.2751 L578.6933,806.2751 L578.6933,808.948 L583.4662,808.948 L583.4662,811.1062 L578.6933,811.1062 L578.6933,814.3518 L583.9643,814.3518 Z " fill="#000000"/><text fill="#FFFFFF" font-family="sans-serif" font-size="14" lengthAdjust="spacing" textLength="36" x="594.15" y="815.801">Class</text><line style="stroke:#181818;stroke-width:0.5;" x1="564.5" x2="633.5" y1="826.51" y2="826.51"/><text fill="#000000" font-family="sans-serif" font-size="14" lengthAdjust="spacing" textLength="30" x="569.5" y="844.0452">date</text><text fill="#000000" font-family="sans-serif" font-size="14" lengthAdjust="spacing" textLength="59" x="569.5" y="860.5334">duration</text></g><g id="elem_GMN40"><path d="M461,718.34 L461,743.6505 L737,743.6505 L737,728.34 L727,718.34 L461,718.34 " fill="#FEFFDD" style="stroke:#181818;stroke-width:0.5;"/><path d="M727,718.34 L727,728.34 L737,728.34 L727,718.34 " fill="#FEFFDD" style="stroke:#181818;stroke-width:1.0;"/><text fill="#000000" font-family="sans-serif" font-size="13" lengthAdjust="spacing" textLength="255" x="467" y="735.9084">only one teacher is in charge of a course</text></g><!--reverse link designationTeacher to Teacher--><g id="link_designationTeacher_Teacher"><path codeLine="41" d="M66.5,110.23 C66.5,100.91 66.5,91.58 66.5,82.26 " fill="none" id="designationTeacher-backto-Teacher" style="stroke:#181818;stroke-width:1.0;"/><polygon fill="#181818" points="66.5,115.03,70.5,106.03,66.5,110.03,62.5,106.03,66.5,115.03" style="stroke:#181818;stroke-width:1.0;"/><text fill="#000000" font-family="sans-serif" font-size="13" lengthAdjust="spacing" textLength="8" x="57.7875" y="105.7051">1</text><text fill="#000000" font-family="sans-serif" font-size="13" lengthAdjust="spacing" textLength="8" x="57.375" y="102.6795">1</text></g><!--reverse link User to Teacher--><g id="link_User_Teacher"><path codeLine="94" d="M249.93,379.58 C225.85,374.22 195.81,363.66 177,343 C101.29,259.84 169.85,194.21 110,99 C106.15,92.87 100.97,87.19 95.56,82.22 " fill="none" id="User-backto-Teacher" style="stroke:#181818;stroke-width:1.0;"/><polygon fill="#181818" points="254.6,380.77,246.6137,375.0064,249.7066,379.7428,244.9702,382.8358,254.6,380.77" style="stroke:#181818;stroke-width:1.0;"/><text fill="#000000" font-family="sans-serif" font-size="13" lengthAdjust="spacing" textLength="8" x="239.8863" y="394.0447">1</text><text fill="#000000" font-family="sans-serif" font-size="13" lengthAdjust="spacing" textLength="8" x="118.2585" y="95.5606">1</text></g><!--link User to password--><g id="link_User_password"><path codeLine="95" d="M322.38,376.59 C377.7,362.22 490.51,332.92 553.3,316.61 " fill="none" id="User-to-password" style="stroke:#181818;stroke-width:1.0;"/><polygon fill="#181818" points="557.85,315.17,548.1337,313.5597,553.0104,316.4263,550.1438,321.303,557.85,315.17" style="stroke:#181818;stroke-width:1.0;"/><text fill="#000000" font-family="sans-serif" font-size="13" lengthAdjust="spacing" textLength="8" x="330.0896" y="370.9088">1</text><text fill="#000000" font-family="sans-serif" font-size="13" lengthAdjust="spacing" textLength="8" x="542.9858" y="330.9127">1</text></g><!--link Teacher to acronym--><g id="link_Teacher_acronym"><path codeLine="96" d="M110.28,62.97 C149.67,63.86 207.73,65.18 246.66,66.06 " fill="none" id="Teacher-to-acronym" style="stroke:#181818;stroke-width:1.0;"/><polygon fill="#181818" points="251.26,66.19,242.3538,61.9854,246.2613,66.0757,242.1709,69.9833,251.26,66.19" style="stroke:#181818;stroke-width:1.0;"/><text fill="#000000" font-family="sans-serif" font-size="13" lengthAdjust="spacing" textLength="8" x="117.8949" y="76.913">1</text><text fill="#000000" font-family="sans-serif" font-size="13" lengthAdjust="spacing" textLength="8" x="236.4939" y="80.0631">1</text></g><!--link User to email--><g id="link_User_email"><path codeLine="98" d="M322.38,384.89 C379.98,384.71 499.92,384.32 560.81,384.12 " fill="none" id="User-to-email" style="stroke:#181818;stroke-width:1.0;"/><polygon fill="#181818" points="565.51,384.1,556.4986,380.1257,560.51,384.1143,556.5215,388.1257,565.51,384.1" style="stroke:#181818;stroke-width:1.0;"/><text fill="#000000" font-family="sans-serif" font-size="13" lengthAdjust="spacing" textLength="8" x="330.0896" y="399.0145">1</text><text fill="#000000" font-family="sans-serif" font-size="13" lengthAdjust="spacing" textLength="8" x="550.9839" y="398.2678">1</text></g><!--link Teacher to personaInformation--><g id="link_Teacher_personaInformation"><path codeLine="100" d="M93.36,82.39 C99.15,87.51 105.03,93.21 110,99 C146.29,141.3 139.98,163.34 177,205 C195.08,225.34 218.05,244.78 238.4,260.35 " fill="none" id="Teacher-to-personaInformation" style="stroke:#181818;stroke-width:1.0;"/><polygon fill="#181818" points="241.96,263.81,237.2141,255.18,237.9789,260.7849,232.374,261.5498,241.96,263.81" style="stroke:#181818;stroke-width:1.0;"/><text fill="#000000" font-family="sans-serif" font-size="13" lengthAdjust="spacing" textLength="8" x="91.5036" y="102.4955">1</text><text fill="#000000" font-family="sans-serif" font-size="13" lengthAdjust="spacing" textLength="8" x="224.6393" y="253.4301">1</text></g><!--link Course to Class--><g id="link_Course_Class"><path codeLine="104" d="M557.62,640.39 C519.59,640.52 465.01,647.62 437,683.5 C393.83,738.79 496.95,790.97 557.97,815.83 " fill="none" id="Course-to-Class" style="stroke:#181818;stroke-width:1.0;"/><polygon fill="#181818" points="562.38,818,555.528,810.9254,557.7426,816.1308,552.5372,818.3453,562.38,818" style="stroke:#181818;stroke-width:1.0;"/><text fill="#000000" font-family="sans-serif" font-size="13" lengthAdjust="spacing" textLength="22" x="408" y="697.0684">has</text><text fill="#000000" font-family="sans-serif" font-size="13" lengthAdjust="spacing" textLength="8" x="542.1039" y="653.7942">1</text><text fill="#000000" font-family="sans-serif" font-size="13" lengthAdjust="spacing" textLength="6" x="549.4146" y="811.3726">*</text></g><!--link Teacher to Class--><g id="link_Teacher_Class"><path codeLine="105" d="M97.43,82.48 C102.44,87.3 106.98,92.85 110,99 C171.02,223.42 74.34,625.91 177,719 C286.7,818.48 474.87,831.3 557.31,831.84 " fill="none" id="Teacher-to-Class" style="stroke:#181818;stroke-width:1.0;"/><polygon fill="#181818" points="562.06,831.85,553.0715,827.8243,557.06,831.8357,553.0486,835.8243,562.06,831.85" style="stroke:#181818;stroke-width:1.0;"/><text fill="#000000" font-family="sans-serif" font-size="13" lengthAdjust="spacing" textLength="63" x="257.5" y="715.5684">schedules</text><text fill="#000000" font-family="sans-serif" font-size="13" lengthAdjust="spacing" textLength="8" x="96.6674" y="102.6097">1</text><text fill="#000000" font-family="sans-serif" font-size="13" lengthAdjust="spacing" textLength="6" x="549.3937" y="846.0932">*</text></g><!--link Teacher to AssignedTeachers--><g id="link_Teacher_AssignedTeachers"><path codeLine="106" d="M96.72,82.21 C101.92,87.11 106.72,92.77 110,99 C164.8,203.07 102.88,532.68 177,624 C186.54,635.76 199.83,644.06 213.9,649.92 " fill="none" id="Teacher-to-AssignedTeachers" style="stroke:#181818;stroke-width:1.0;"/><polygon fill="#181818" points="218.12,651.97,211.2232,644.9391,213.4708,650.1303,208.2796,652.3779,218.12,651.97" style="stroke:#181818;stroke-width:1.0;"/><text fill="#000000" font-family="sans-serif" font-size="13" lengthAdjust="spacing" textLength="27" x="141" y="486.5684">is in</text><text fill="#000000" font-family="sans-serif" font-size="13" lengthAdjust="spacing" textLength="8" x="106.3444" y="102.6155">1</text><text fill="#000000" font-family="sans-serif" font-size="13" lengthAdjust="spacing" textLength="6" x="205.6043" y="664.0874">*</text></g><!--reverse link AssignedTeachers to Course--><g id="link_AssignedTeachers_Course"><path codeLine="107" d="M364.55,658.92 C425.33,654.77 508.85,649.08 557.76,645.74 " fill="none" id="AssignedTeachers-backto-Course" style="stroke:#181818;stroke-width:1.0;"/><polygon fill="#181818" points="359.74,659.31,368.9932,662.6831,364.7282,658.967,368.4444,654.702,359.74,659.31" style="stroke:#181818;stroke-width:1.0;"/><text fill="#000000" font-family="sans-serif" font-size="13" lengthAdjust="spacing" textLength="22" x="408" y="651.5684">has</text><text fill="#000000" font-family="sans-serif" font-size="13" lengthAdjust="spacing" textLength="6" x="366.6959" y="672.2029">*</text><text fill="#000000" font-family="sans-serif" font-size="13" lengthAdjust="spacing" textLength="8" x="541.9844" y="660.0952">1</text></g><!--reverse link EnrolledStudents to Course--><g id="link_EnrolledStudents_Course"><path codeLine="108" d="M360.77,600.64 C421.76,611.53 507.67,626.87 557.62,635.79 " fill="none" id="EnrolledStudents-backto-Course" style="stroke:#181818;stroke-width:1.0;"/><polygon fill="#181818" points="355.94,599.6,364.1061,605.1059,360.8636,600.4706,365.499,597.2281,355.94,599.6" style="stroke:#181818;stroke-width:1.0;"/><text fill="#000000" font-family="sans-serif" font-size="13" lengthAdjust="spacing" textLength="22" x="408" y="605.5684">has</text><text fill="#000000" font-family="sans-serif" font-size="13" lengthAdjust="spacing" textLength="6" x="362.4803" y="614.274">*</text><text fill="#000000" font-family="sans-serif" font-size="13" lengthAdjust="spacing" textLength="8" x="542.1039" y="630.9479">1</text></g><!--link Course to CourseState--><g id="link_Course_CourseState"><path codeLine="109" d="M599,601.97 C599,592.53 599,583.09 599,573.65 " fill="none" id="Course-to-CourseState" style="stroke:#181818;stroke-width:1.0;"/><polygon fill="#181818" points="599,568.77,595,577.77,599,573.77,603,577.77,599,568.77" style="stroke:#181818;stroke-width:1.0;"/><text fill="#000000" font-family="sans-serif" font-size="13" lengthAdjust="spacing" textLength="8" x="590.3375" y="591.5265">1</text><text fill="#000000" font-family="sans-serif" font-size="13" lengthAdjust="spacing" textLength="8" x="590.075" y="588.0678">1</text></g><!--link Course to CourseID--><g id="link_Course_CourseID"><path codeLine="110" d="M640.4,645.99 C684.31,649.25 754.24,654.43 799.38,657.77 " fill="none" id="Course-to-CourseID" style="stroke:#181818;stroke-width:1.0;"/><polygon fill="#181818" points="804.3,658.21,795.622,653.5524,799.3138,657.8385,795.0277,661.5303,804.3,658.21" style="stroke:#181818;stroke-width:1.0;"/><text fill="#000000" font-family="sans-serif" font-size="13" lengthAdjust="spacing" textLength="8" x="647.9194" y="660.3217">1</text><text fill="#000000" font-family="sans-serif" font-size="13" lengthAdjust="spacing" textLength="8" x="789.4272" y="671.6753">1</text></g><!--link Course to Name--><g id="link_Course_Name"><path codeLine="111" d="M640.4,632.86 C688.45,620.8 767.63,600.92 811.42,589.93 " fill="none" id="Course-to-Name" style="stroke:#181818;stroke-width:1.0;"/><polygon fill="#181818" points="816.1,588.5,806.3986,586.8023,811.2493,589.7127,808.3389,594.5634,816.1,588.5" style="stroke:#181818;stroke-width:1.0;"/><text fill="#000000" font-family="sans-serif" font-size="13" lengthAdjust="spacing" textLength="8" x="647.9194" y="627.5326">1</text><text fill="#000000" font-family="sans-serif" font-size="13" lengthAdjust="spacing" textLength="8" x="801.5681" y="604.5177">1</text></g><!--link Course to Description--><g id="link_Course_Description"><path codeLine="112" d="M640.3,628.5 C668.16,617.86 705.69,602.31 737,585 C764.76,569.66 794.17,548.7 814.95,533.01 " fill="none" id="Course-to-Description" style="stroke:#181818;stroke-width:1.0;"/><polygon fill="#181818" points="818.51,529.54,808.9279,531.8168,814.5342,532.5719,813.779,538.1782,818.51,529.54" style="stroke:#181818;stroke-width:1.0;"/><text fill="#000000" font-family="sans-serif" font-size="13" lengthAdjust="spacing" textLength="8" x="648.0859" y="639.8921">1</text><text fill="#000000" font-family="sans-serif" font-size="13" lengthAdjust="spacing" textLength="8" x="803.1411" y="549.802">1</text></g><!--link EnrolledStudents to StudentEnrollmentState--><g id="link_EnrolledStudents_StudentEnrollmentState"><path codeLine="113" d="M289,569.48 C289,559.74 289,550 289,540.25 " fill="none" id="EnrolledStudents-to-StudentEnrollmentState" style="stroke:#181818;stroke-width:1.0;"/><polygon fill="#181818" points="289,535.52,285,544.52,289,540.52,293,544.52,289,535.52" style="stroke:#181818;stroke-width:1.0;"/><text fill="#000000" font-family="sans-serif" font-size="13" lengthAdjust="spacing" textLength="8" x="279.775" y="559.126">1</text><text fill="#000000" font-family="sans-serif" font-size="13" lengthAdjust="spacing" textLength="8" x="280.075" y="554.76">1</text></g><!--link AssignedTeachers to GMN40--><g id="link_AssignedTeachers_GMN40"><path d="M324.73,686.93 C347.19,700.44 377.62,716.33 407,724 C424.1,728.46 442.35,731.37 460.53,733.18 " fill="none" id="AssignedTeachers-GMN40" style="stroke:#181818;stroke-width:1.0;stroke-dasharray:7.0,7.0;"/></g><!--SRC=[dLNRYjim47tNLmpkGw5WjeK-BI6GpQRKBrjesWzGh8cjhYm5IQQRXlnxTNFYM_Am1iUMvynevimPfUOCeK5RAsQ8mBq5gq3pghR0kCRISYM9UUNoG3Lje1JKc9MrckzQYqMfv9R_G_WyXdnJqgwLK1feQrL3BI_7aEz86UedMhvMMhMIHVY7hptSmHbfXLjx50W-6IehWOHyV7Z8yyaDlmrgcBE4cv0K3h80N5MLnefQp4w4WBisqd9xZ54MYvzAsUKIJi5qZeWVkpyk2S26Sk4W1SFWSWDsG6sKf8NSA-qPK3B1_BNZsjRCxNxvOkdRIzliKC-5SdpzLPfTjZdtglc5jAm71S6m8eQ6Lp9aq66fWKpInjVkWNkkZNrnwx1otRakpeDGdVzSlRJKIXwR0J43NEUSVSaW5_aol4oJyyNTQl5QjThWdIPVM4d87Yckfvs4GiT8gYaXkvQJc7D3tpPIAo7YYikqSicbUgDVyJmg-0hm7C9fuh6rBXtdXB9jGYBdphwrhGyKTshSsmoqmpwZAJK_95bvof8XUYDBmSp0QsKysyWIrIRMoaqXrpNL5TvCTjDbG4RgM_jPlaTpJpq16pvS1s4m0wpLGGb9DUU13juzzpvOm7YzBV8yF3kn3Onv4cKtRrFPHa2I-Z2qitb8E1t8BS-PK-7zOW-Rn0Padq9f8XQNF1-XfcO-4mUFZezWd8Mr0cyZnwfnJjm0ZssQ65CgyubCr7aNdJvuSdLajwVA4UB2S3UNumWnmELW6rZyepTHiwc6FNJ4pazgR8XKRcBYNwZQpt6df3Yw7mIRk0vaGXacqFjGA4Do_m40]--></g></svg>