<?xml version="1.0" encoding="us-ascii" standalone="no"?><svg xmlns="http://www.w3.org/2000/svg" xmlns:xlink="http://www.w3.org/1999/xlink" contentStyleType="text/css" height="1029px" preserveAspectRatio="none" style="width:1226px;height:1029px;background:#FFFFFF;" version="1.1" viewBox="0 0 1226 1029" width="1226px" zoomAndPan="magnify"><defs/><g><!--class ListExamGrades--><g id="elem_ListExamGrades"><rect codeLine="6" fill="#F1F1F1" height="73.1094" id="ListExamGrades" rx="2.5" ry="2.5" style="stroke:#181818;stroke-width:0.5;" width="141" x="750" y="7"/><ellipse cx="765" cy="27.3105" fill="#ADD1B2" rx="11" ry="11" style="stroke:#181818;stroke-width:1.0;"/><path d="M767.9731,32.9536 Q767.3921,33.2524 766.7529,33.4019 Q766.1138,33.5513 765.4082,33.5513 Q762.9014,33.5513 761.5815,31.8994 Q760.2617,30.2476 760.2617,27.1265 Q760.2617,23.9971 761.5815,22.3452 Q762.9014,20.6934 765.4082,20.6934 Q766.1138,20.6934 766.7612,20.8428 Q767.4087,20.9922 767.9731,21.291 L767.9731,24.0137 Q767.3423,23.4326 766.7488,23.1628 Q766.1553,22.8931 765.5244,22.8931 Q764.1797,22.8931 763.4949,23.9597 Q762.8101,25.0264 762.8101,27.1265 Q762.8101,29.2183 763.4949,30.2849 Q764.1797,31.3516 765.5244,31.3516 Q766.1553,31.3516 766.7488,31.0818 Q767.3423,30.812 767.9731,30.231 Z " fill="#000000"/><text fill="#000000" font-family="FG Virgil" font-size="12" font-style="italic" lengthAdjust="spacing" textLength="84" x="791.5" y="23.6016">&#171;presentation&#187;</text><text fill="#000000" font-family="FG Virgil" font-size="14" lengthAdjust="spacing" textLength="109" x="779" y="39.668">ListExamGrades</text><line style="stroke:#181818;stroke-width:0.5;" x1="751" x2="890" y1="47.6211" y2="47.6211"/><line style="stroke:#181818;stroke-width:0.5;" x1="751" x2="890" y1="55.6211" y2="55.6211"/><text fill="#000000" font-family="FG Virgil" font-size="14" lengthAdjust="spacing" textLength="65" x="756" y="73.1563">doShow()</text></g><!--class ListTeacherExamGradesController--><g id="elem_ListTeacherExamGradesController"><rect codeLine="10" fill="#F1F1F1" height="106.0859" id="ListTeacherExamGradesController" rx="2.5" ry="2.5" style="stroke:#181818;stroke-width:0.5;" width="282" x="679.5" y="157.11"/><ellipse cx="701.7" cy="177.4205" fill="#ADD1B2" rx="11" ry="11" style="stroke:#181818;stroke-width:1.0;"/><path d="M704.6731,183.0636 Q704.0921,183.3624 703.4529,183.5119 Q702.8138,183.6613 702.1082,183.6613 Q699.6014,183.6613 698.2815,182.0094 Q696.9617,180.3576 696.9617,177.2365 Q696.9617,174.1071 698.2815,172.4552 Q699.6014,170.8034 702.1082,170.8034 Q702.8138,170.8034 703.4612,170.9528 Q704.1087,171.1022 704.6731,171.401 L704.6731,174.1237 Q704.0423,173.5426 703.4488,173.2728 Q702.8553,173.0031 702.2244,173.0031 Q700.8797,173.0031 700.1949,174.0697 Q699.5101,175.1364 699.5101,177.2365 Q699.5101,179.3283 700.1949,180.3949 Q700.8797,181.4616 702.2244,181.4616 Q702.8553,181.4616 703.4488,181.1918 Q704.0423,180.922 704.6731,180.341 Z " fill="#000000"/><text fill="#000000" font-family="FG Virgil" font-size="12" font-style="italic" lengthAdjust="spacing" textLength="75" x="796.8" y="173.7116">&#171;application&#187;</text><text fill="#000000" font-family="FG Virgil" font-size="14" lengthAdjust="spacing" textLength="234" x="717.3" y="189.778">ListTeacherExamGradesController</text><line style="stroke:#181818;stroke-width:0.5;" x1="680.5" x2="960.5" y1="197.7311" y2="197.7311"/><line style="stroke:#181818;stroke-width:0.5;" x1="680.5" x2="960.5" y1="205.7311" y2="205.7311"/><text fill="#000000" font-family="FG Virgil" font-size="14" lengthAdjust="spacing" textLength="270" x="685.5" y="223.2663">allCoursesTeacherIsAssigned(acronym)</text><text fill="#000000" font-family="FG Virgil" font-size="14" lengthAdjust="spacing" textLength="124" x="685.5" y="239.7545">getUserAcronym()</text><text fill="#000000" font-family="FG Virgil" font-size="14" lengthAdjust="spacing" textLength="170" x="685.5" y="256.2428">listCourseExams(course)</text></g><!--class AuthorizationService--><g id="elem_AuthorizationService"><rect codeLine="16" fill="#F1F1F1" height="89.5977" id="AuthorizationService" rx="2.5" ry="2.5" style="stroke:#181818;stroke-width:0.5;" width="327" x="763" y="340.2"/><ellipse cx="850.75" cy="360.5105" fill="#ADD1B2" rx="11" ry="11" style="stroke:#181818;stroke-width:1.0;"/><path d="M853.7231,366.1536 Q853.1421,366.4524 852.5029,366.6019 Q851.8638,366.7513 851.1582,366.7513 Q848.6514,366.7513 847.3315,365.0994 Q846.0117,363.4476 846.0117,360.3265 Q846.0117,357.1971 847.3315,355.5452 Q848.6514,353.8934 851.1582,353.8934 Q851.8638,353.8934 852.5112,354.0428 Q853.1587,354.1922 853.7231,354.491 L853.7231,357.2137 Q853.0923,356.6326 852.4988,356.3628 Q851.9053,356.0931 851.2744,356.0931 Q849.9297,356.0931 849.2449,357.1597 Q848.5601,358.2264 848.5601,360.3265 Q848.5601,362.4183 849.2449,363.4849 Q849.9297,364.5516 851.2744,364.5516 Q851.9053,364.5516 852.4988,364.2818 Q853.0923,364.012 853.7231,363.431 Z " fill="#000000"/><text fill="#000000" font-family="FG Virgil" font-size="12" font-style="italic" lengthAdjust="spacing" textLength="52" x="916.75" y="356.8016">&#171;service&#187;</text><text fill="#000000" font-family="FG Virgil" font-size="14" lengthAdjust="spacing" textLength="143" x="871.25" y="372.868">AuthorizationService</text><line style="stroke:#181818;stroke-width:0.5;" x1="764" x2="1089" y1="380.8211" y2="380.8211"/><line style="stroke:#181818;stroke-width:0.5;" x1="764" x2="1089" y1="388.8211" y2="388.8211"/><text fill="#000000" font-family="FG Virgil" font-size="14" lengthAdjust="spacing" textLength="315" x="769" y="406.3563">ensureAuthenticatedUserHasAnyOf(TEACHER)</text><text fill="#000000" font-family="FG Virgil" font-size="14" lengthAdjust="spacing" textLength="61" x="769" y="422.8445">session()</text></g><!--class UserSession--><g id="elem_UserSession"><rect codeLine="21" fill="#F1F1F1" height="64.4883" id="UserSession" rx="2.5" ry="2.5" style="stroke:#181818;stroke-width:0.5;" width="147" x="853" y="506.8"/><ellipse cx="882.4" cy="522.8" fill="#ADD1B2" rx="11" ry="11" style="stroke:#181818;stroke-width:1.0;"/><path d="M885.3731,528.4431 Q884.7921,528.7419 884.1529,528.8913 Q883.5138,529.0407 882.8082,529.0407 Q880.3014,529.0407 878.9815,527.3889 Q877.6617,525.737 877.6617,522.6159 Q877.6617,519.4865 878.9815,517.8347 Q880.3014,516.1828 882.8082,516.1828 Q883.5138,516.1828 884.1612,516.3322 Q884.8087,516.4816 885.3731,516.7805 L885.3731,519.5031 Q884.7423,518.9221 884.1488,518.6523 Q883.5553,518.3825 882.9244,518.3825 Q881.5797,518.3825 880.8949,519.4492 Q880.2101,520.5158 880.2101,522.6159 Q880.2101,524.7077 880.8949,525.7744 Q881.5797,526.841 882.9244,526.841 Q883.5553,526.841 884.1488,526.5712 Q884.7423,526.3015 885.3731,525.7204 Z " fill="#000000"/><text fill="#000000" font-family="FG Virgil" font-size="14" lengthAdjust="spacing" textLength="83" x="899.6" y="528.091">UserSession</text><line style="stroke:#181818;stroke-width:0.5;" x1="854" x2="999" y1="538.8" y2="538.8"/><line style="stroke:#181818;stroke-width:0.5;" x1="854" x2="999" y1="546.8" y2="546.8"/><text fill="#000000" font-family="FG Virgil" font-size="14" lengthAdjust="spacing" textLength="135" x="859" y="564.3352">authenticatedUser()</text></g><!--class Course--><g id="elem_Course"><rect codeLine="25" fill="#F1F1F1" height="89.5977" id="Course" rx="2.5" ry="2.5" style="stroke:#181818;stroke-width:0.5;" width="319" x="9" y="648.29"/><ellipse cx="138.75" cy="668.6005" fill="#ADD1B2" rx="11" ry="11" style="stroke:#181818;stroke-width:1.0;"/><path d="M141.7231,674.2436 Q141.1421,674.5424 140.5029,674.6919 Q139.8638,674.8413 139.1582,674.8413 Q136.6514,674.8413 135.3315,673.1894 Q134.0117,671.5376 134.0117,668.4165 Q134.0117,665.2871 135.3315,663.6352 Q136.6514,661.9834 139.1582,661.9834 Q139.8638,661.9834 140.5112,662.1328 Q141.1587,662.2822 141.7231,662.581 L141.7231,665.3037 Q141.0923,664.7226 140.4988,664.4528 Q139.9053,664.1831 139.2744,664.1831 Q137.9297,664.1831 137.2449,665.2497 Q136.5601,666.3164 136.5601,668.4165 Q136.5601,670.5083 137.2449,671.5749 Q137.9297,672.6416 139.2744,672.6416 Q139.9053,672.6416 140.4988,672.3718 Q141.0923,672.102 141.7231,671.521 Z " fill="#000000"/><text fill="#000000" font-family="FG Virgil" font-size="12" font-style="italic" lengthAdjust="spacing" textLength="55" x="157.25" y="664.8916">&#171;domain&#187;</text><text fill="#000000" font-family="FG Virgil" font-size="14" lengthAdjust="spacing" textLength="49" x="160.25" y="680.958">Course</text><line style="stroke:#181818;stroke-width:0.5;" x1="10" x2="327" y1="688.9111" y2="688.9111"/><line style="stroke:#181818;stroke-width:0.5;" x1="10" x2="327" y1="696.9111" y2="696.9111"/><text fill="#000000" font-family="FG Virgil" font-size="14" lengthAdjust="spacing" textLength="307" x="15" y="714.4463">Course(Name, Description, EnrollLimit, State)</text><text fill="#000000" font-family="FG Virgil" font-size="14" lengthAdjust="spacing" textLength="77" x="15" y="730.9345">getExams()</text></g><!--class Exam--><g id="elem_Exam"><rect codeLine="29" fill="#F1F1F1" height="89.5977" id="Exam" rx="2.5" ry="2.5" style="stroke:#181818;stroke-width:0.5;" width="323" x="7" y="798.88"/><ellipse cx="138.75" cy="819.1905" fill="#ADD1B2" rx="11" ry="11" style="stroke:#181818;stroke-width:1.0;"/><path d="M141.7231,824.8336 Q141.1421,825.1324 140.5029,825.2819 Q139.8638,825.4313 139.1582,825.4313 Q136.6514,825.4313 135.3315,823.7794 Q134.0117,822.1276 134.0117,819.0065 Q134.0117,815.8771 135.3315,814.2252 Q136.6514,812.5734 139.1582,812.5734 Q139.8638,812.5734 140.5112,812.7228 Q141.1587,812.8722 141.7231,813.171 L141.7231,815.8937 Q141.0923,815.3126 140.4988,815.0428 Q139.9053,814.7731 139.2744,814.7731 Q137.9297,814.7731 137.2449,815.8397 Q136.5601,816.9064 136.5601,819.0065 Q136.5601,821.0983 137.2449,822.1649 Q137.9297,823.2316 139.2744,823.2316 Q139.9053,823.2316 140.4988,822.9618 Q141.0923,822.692 141.7231,822.111 Z " fill="#000000"/><text fill="#000000" font-family="FG Virgil" font-size="12" font-style="italic" lengthAdjust="spacing" textLength="55" x="157.25" y="815.4816">&#171;domain&#187;</text><text fill="#000000" font-family="FG Virgil" font-size="14" lengthAdjust="spacing" textLength="38" x="165.75" y="831.548">Exam</text><line style="stroke:#181818;stroke-width:0.5;" x1="8" x2="329" y1="839.5011" y2="839.5011"/><line style="stroke:#181818;stroke-width:0.5;" x1="8" x2="329" y1="847.5011" y2="847.5011"/><text fill="#000000" font-family="FG Virgil" font-size="14" lengthAdjust="spacing" textLength="311" x="13" y="865.0363">Exam(Designation, Description, Setting, Date)</text><text fill="#000000" font-family="FG Virgil" font-size="14" lengthAdjust="spacing" textLength="80" x="13" y="881.5245">getGrades()</text></g><!--class Grade--><g id="elem_Grade"><rect codeLine="33" fill="#F1F1F1" height="73.1094" id="Grade" rx="2.5" ry="2.5" style="stroke:#181818;stroke-width:0.5;" width="112" x="112.5" y="949.48"/><ellipse cx="140.55" cy="969.7905" fill="#ADD1B2" rx="11" ry="11" style="stroke:#181818;stroke-width:1.0;"/><path d="M143.5231,975.4336 Q142.9421,975.7324 142.3029,975.8819 Q141.6638,976.0313 140.9582,976.0313 Q138.4514,976.0313 137.1315,974.3794 Q135.8117,972.7276 135.8117,969.6065 Q135.8117,966.4771 137.1315,964.8252 Q138.4514,963.1734 140.9582,963.1734 Q141.6638,963.1734 142.3112,963.3228 Q142.9587,963.4722 143.5231,963.771 L143.5231,966.4937 Q142.8923,965.9126 142.2988,965.6428 Q141.7053,965.3731 141.0744,965.3731 Q139.7297,965.3731 139.0449,966.4397 Q138.3601,967.5064 138.3601,969.6065 Q138.3601,971.6983 139.0449,972.7649 Q139.7297,973.8316 141.0744,973.8316 Q141.7053,973.8316 142.2988,973.5618 Q142.8923,973.292 143.5231,972.711 Z " fill="#000000"/><text fill="#000000" font-family="FG Virgil" font-size="12" font-style="italic" lengthAdjust="spacing" textLength="55" x="155.45" y="966.0816">&#171;domain&#187;</text><text fill="#000000" font-family="FG Virgil" font-size="14" lengthAdjust="spacing" textLength="41" x="162.45" y="982.148">Grade</text><line style="stroke:#181818;stroke-width:0.5;" x1="113.5" x2="223.5" y1="990.1011" y2="990.1011"/><line style="stroke:#181818;stroke-width:0.5;" x1="113.5" x2="223.5" y1="998.1011" y2="998.1011"/><text fill="#000000" font-family="FG Virgil" font-size="14" lengthAdjust="spacing" textLength="100" x="118.5" y="1015.6363">Grade(Double)</text></g><!--class CourseRepository--><g id="elem_CourseRepository"><rect codeLine="37" fill="#F1F1F1" height="73.1094" id="CourseRepository" rx="2.5" ry="2.5" style="stroke:#181818;stroke-width:0.5;" width="154" x="692.5" y="656.53"/><ellipse cx="707.5" cy="676.8405" fill="#ADD1B2" rx="11" ry="11" style="stroke:#181818;stroke-width:1.0;"/><path d="M710.4731,682.4836 Q709.8921,682.7824 709.2529,682.9319 Q708.6138,683.0813 707.9082,683.0813 Q705.4014,683.0813 704.0815,681.4294 Q702.7617,679.7776 702.7617,676.6565 Q702.7617,673.5271 704.0815,671.8752 Q705.4014,670.2234 707.9082,670.2234 Q708.6138,670.2234 709.2612,670.3728 Q709.9087,670.5222 710.4731,670.821 L710.4731,673.5437 Q709.8423,672.9626 709.2488,672.6928 Q708.6553,672.4231 708.0244,672.4231 Q706.6797,672.4231 705.9949,673.4897 Q705.3101,674.5564 705.3101,676.6565 Q705.3101,678.7483 705.9949,679.8149 Q706.6797,680.8816 708.0244,680.8816 Q708.6553,680.8816 709.2488,680.6118 Q709.8423,680.342 710.4731,679.761 Z " fill="#000000"/><text fill="#000000" font-family="FG Virgil" font-size="12" font-style="italic" lengthAdjust="spacing" textLength="70" x="747.5" y="673.1316">&#171;repository&#187;</text><text fill="#000000" font-family="FG Virgil" font-size="14" lengthAdjust="spacing" textLength="122" x="721.5" y="689.198">CourseRepository</text><line style="stroke:#181818;stroke-width:0.5;" x1="693.5" x2="845.5" y1="697.1511" y2="697.1511"/><line style="stroke:#181818;stroke-width:0.5;" x1="693.5" x2="845.5" y1="705.1511" y2="705.1511"/><text fill="#000000" font-family="FG Virgil" font-size="14" lengthAdjust="spacing" textLength="40" x="698.5" y="722.6863">save()</text></g><!--class PersistenceContext--><g id="elem_PersistenceContext"><rect codeLine="43" fill="#F1F1F1" height="73.1094" id="PersistenceContext" rx="2.5" ry="2.5" style="stroke:#181818;stroke-width:0.5;" width="164" x="563.5" y="348.44"/><ellipse cx="578.5" cy="368.7505" fill="#ADD1B2" rx="11" ry="11" style="stroke:#181818;stroke-width:1.0;"/><path d="M581.4731,374.3936 Q580.8921,374.6924 580.2529,374.8419 Q579.6138,374.9913 578.9082,374.9913 Q576.4014,374.9913 575.0815,373.3394 Q573.7617,371.6876 573.7617,368.5665 Q573.7617,365.4371 575.0815,363.7852 Q576.4014,362.1334 578.9082,362.1334 Q579.6138,362.1334 580.2612,362.2828 Q580.9087,362.4322 581.4731,362.731 L581.4731,365.4537 Q580.8423,364.8726 580.2488,364.6028 Q579.6553,364.3331 579.0244,364.3331 Q577.6797,364.3331 576.9949,365.3997 Q576.3101,366.4664 576.3101,368.5665 Q576.3101,370.6583 576.9949,371.7249 Q577.6797,372.7916 579.0244,372.7916 Q579.6553,372.7916 580.2488,372.5218 Q580.8423,372.252 581.4731,371.671 Z " fill="#000000"/><text fill="#000000" font-family="FG Virgil" font-size="12" font-style="italic" lengthAdjust="spacing" textLength="78" x="619.5" y="365.0416">&#171;persistence&#187;</text><text fill="#000000" font-family="FG Virgil" font-size="14" lengthAdjust="spacing" textLength="132" x="592.5" y="381.108">PersistenceContext</text><line style="stroke:#181818;stroke-width:0.5;" x1="564.5" x2="726.5" y1="389.0611" y2="389.0611"/><line style="stroke:#181818;stroke-width:0.5;" x1="564.5" x2="726.5" y1="397.0611" y2="397.0611"/><text fill="#000000" font-family="FG Virgil" font-size="14" lengthAdjust="spacing" textLength="92" x="569.5" y="414.5963">repositories()</text></g><!--class RepositoryFactory--><g id="elem_RepositoryFactory"><rect codeLine="47" fill="#F1F1F1" height="56.6211" id="RepositoryFactory" rx="2.5" ry="2.5" style="stroke:#181818;stroke-width:0.5;" width="155" x="618" y="510.73"/><ellipse cx="633" cy="531.0405" fill="#ADD1B2" rx="11" ry="11" style="stroke:#181818;stroke-width:1.0;"/><path d="M635.9731,536.6836 Q635.3921,536.9824 634.7529,537.1319 Q634.1138,537.2813 633.4082,537.2813 Q630.9014,537.2813 629.5815,535.6294 Q628.2617,533.9776 628.2617,530.8565 Q628.2617,527.7271 629.5815,526.0752 Q630.9014,524.4234 633.4082,524.4234 Q634.1138,524.4234 634.7612,524.5728 Q635.4087,524.7222 635.9731,525.021 L635.9731,527.7437 Q635.3423,527.1626 634.7488,526.8928 Q634.1553,526.6231 633.5244,526.6231 Q632.1797,526.6231 631.4949,527.6897 Q630.8101,528.7564 630.8101,530.8565 Q630.8101,532.9483 631.4949,534.0149 Q632.1797,535.0816 633.5244,535.0816 Q634.1553,535.0816 634.7488,534.8118 Q635.3423,534.542 635.9731,533.961 Z " fill="#000000"/><text fill="#000000" font-family="FG Virgil" font-size="12" font-style="italic" lengthAdjust="spacing" textLength="51" x="683" y="527.3316">&#171;factory&#187;</text><text fill="#000000" font-family="FG Virgil" font-size="14" lengthAdjust="spacing" textLength="123" x="647" y="543.398">RepositoryFactory</text><line style="stroke:#181818;stroke-width:0.5;" x1="619" x2="772" y1="551.3511" y2="551.3511"/><line style="stroke:#181818;stroke-width:0.5;" x1="619" x2="772" y1="559.3511" y2="559.3511"/></g><!--class TeacherUserRepository--><g id="elem_TeacherUserRepository"><rect codeLine="50" fill="#F1F1F1" height="73.1094" id="TeacherUserRepository" rx="2.5" ry="2.5" style="stroke:#181818;stroke-width:0.5;" width="275" x="944" y="656.53"/><ellipse cx="997.75" cy="676.8405" fill="#ADD1B2" rx="11" ry="11" style="stroke:#181818;stroke-width:1.0;"/><path d="M1000.7231,682.4836 Q1000.1421,682.7824 999.5029,682.9319 Q998.8638,683.0813 998.1582,683.0813 Q995.6514,683.0813 994.3315,681.4294 Q993.0117,679.7776 993.0117,676.6565 Q993.0117,673.5271 994.3315,671.8752 Q995.6514,670.2234 998.1582,670.2234 Q998.8638,670.2234 999.5112,670.3728 Q1000.1587,670.5222 1000.7231,670.821 L1000.7231,673.5437 Q1000.0923,672.9626 999.4988,672.6928 Q998.9053,672.4231 998.2744,672.4231 Q996.9297,672.4231 996.2449,673.4897 Q995.5601,674.5564 995.5601,676.6565 Q995.5601,678.7483 996.2449,679.8149 Q996.9297,680.8816 998.2744,680.8816 Q998.9053,680.8816 999.4988,680.6118 Q1000.0923,680.342 1000.7231,679.761 Z " fill="#000000"/><text fill="#000000" font-family="FG Virgil" font-size="12" font-style="italic" lengthAdjust="spacing" textLength="70" x="1062.75" y="673.1316">&#171;repository&#187;</text><text fill="#000000" font-family="FG Virgil" font-size="14" lengthAdjust="spacing" textLength="159" x="1018.25" y="689.198">TeacherUserRepository</text><line style="stroke:#181818;stroke-width:0.5;" x1="945" x2="1218" y1="697.1511" y2="697.1511"/><line style="stroke:#181818;stroke-width:0.5;" x1="945" x2="1218" y1="705.1511" y2="705.1511"/><text fill="#000000" font-family="FG Virgil" font-size="14" lengthAdjust="spacing" textLength="263" x="950" y="722.6863">getTeacherUserFromSystemUser(user)</text></g><!--class TeacherInCourseRepository--><g id="elem_TeacherInCourseRepository"><rect codeLine="54" fill="#F1F1F1" height="73.1094" id="TeacherInCourseRepository" rx="2.5" ry="2.5" style="stroke:#181818;stroke-width:0.5;" width="294" x="363.5" y="656.53"/><ellipse cx="411.25" cy="676.8405" fill="#ADD1B2" rx="11" ry="11" style="stroke:#181818;stroke-width:1.0;"/><path d="M414.2231,682.4836 Q413.6421,682.7824 413.0029,682.9319 Q412.3638,683.0813 411.6582,683.0813 Q409.1514,683.0813 407.8315,681.4294 Q406.5117,679.7776 406.5117,676.6565 Q406.5117,673.5271 407.8315,671.8752 Q409.1514,670.2234 411.6582,670.2234 Q412.3638,670.2234 413.0112,670.3728 Q413.6587,670.5222 414.2231,670.821 L414.2231,673.5437 Q413.5923,672.9626 412.9988,672.6928 Q412.4053,672.4231 411.7744,672.4231 Q410.4297,672.4231 409.7449,673.4897 Q409.0601,674.5564 409.0601,676.6565 Q409.0601,678.7483 409.7449,679.8149 Q410.4297,680.8816 411.7744,680.8816 Q412.4053,680.8816 412.9988,680.6118 Q413.5923,680.342 414.2231,679.761 Z " fill="#000000"/><text fill="#000000" font-family="FG Virgil" font-size="12" font-style="italic" lengthAdjust="spacing" textLength="70" x="491.75" y="673.1316">&#171;repository&#187;</text><text fill="#000000" font-family="FG Virgil" font-size="14" lengthAdjust="spacing" textLength="190" x="431.75" y="689.198">TeacherInCourseRepository</text><line style="stroke:#181818;stroke-width:0.5;" x1="364.5" x2="656.5" y1="697.1511" y2="697.1511"/><line style="stroke:#181818;stroke-width:0.5;" x1="364.5" x2="656.5" y1="705.1511" y2="705.1511"/><text fill="#000000" font-family="FG Virgil" font-size="14" lengthAdjust="spacing" textLength="282" x="369.5" y="722.6863">findAllCoursesTeacherIsAssign(acronym)</text></g><!--class ExamRepository--><g id="elem_ExamRepository"><rect codeLine="58" fill="#F1F1F1" height="73.1094" id="ExamRepository" rx="2.5" ry="2.5" style="stroke:#181818;stroke-width:0.5;" width="143" x="365" y="807.13"/><ellipse cx="380" cy="827.4405" fill="#ADD1B2" rx="11" ry="11" style="stroke:#181818;stroke-width:1.0;"/><path d="M382.9731,833.0836 Q382.3921,833.3824 381.7529,833.5319 Q381.1138,833.6813 380.4082,833.6813 Q377.9014,833.6813 376.5815,832.0294 Q375.2617,830.3776 375.2617,827.2565 Q375.2617,824.1271 376.5815,822.4752 Q377.9014,820.8234 380.4082,820.8234 Q381.1138,820.8234 381.7612,820.9728 Q382.4087,821.1222 382.9731,821.421 L382.9731,824.1437 Q382.3423,823.5626 381.7488,823.2928 Q381.1553,823.0231 380.5244,823.0231 Q379.1797,823.0231 378.4949,824.0897 Q377.8101,825.1564 377.8101,827.2565 Q377.8101,829.3483 378.4949,830.4149 Q379.1797,831.4816 380.5244,831.4816 Q381.1553,831.4816 381.7488,831.2118 Q382.3423,830.942 382.9731,830.361 Z " fill="#000000"/><text fill="#000000" font-family="FG Virgil" font-size="12" font-style="italic" lengthAdjust="spacing" textLength="70" x="414.5" y="823.7316">&#171;repository&#187;</text><text fill="#000000" font-family="FG Virgil" font-size="14" lengthAdjust="spacing" textLength="111" x="394" y="839.798">ExamRepository</text><line style="stroke:#181818;stroke-width:0.5;" x1="366" x2="507" y1="847.7511" y2="847.7511"/><line style="stroke:#181818;stroke-width:0.5;" x1="366" x2="507" y1="855.7511" y2="855.7511"/><text fill="#000000" font-family="FG Virgil" font-size="14" lengthAdjust="spacing" textLength="40" x="371" y="873.2863">save()</text></g><!--class GradeRepository--><g id="elem_GradeRepository"><rect codeLine="62" fill="#F1F1F1" height="73.1094" id="GradeRepository" rx="2.5" ry="2.5" style="stroke:#181818;stroke-width:0.5;" width="146" x="259.5" y="949.48"/><ellipse cx="274.5" cy="969.7905" fill="#ADD1B2" rx="11" ry="11" style="stroke:#181818;stroke-width:1.0;"/><path d="M277.4731,975.4336 Q276.8921,975.7324 276.2529,975.8819 Q275.6138,976.0313 274.9082,976.0313 Q272.4014,976.0313 271.0815,974.3794 Q269.7617,972.7276 269.7617,969.6065 Q269.7617,966.4771 271.0815,964.8252 Q272.4014,963.1734 274.9082,963.1734 Q275.6138,963.1734 276.2612,963.3228 Q276.9087,963.4722 277.4731,963.771 L277.4731,966.4937 Q276.8423,965.9126 276.2488,965.6428 Q275.6553,965.3731 275.0244,965.3731 Q273.6797,965.3731 272.9949,966.4397 Q272.3101,967.5064 272.3101,969.6065 Q272.3101,971.6983 272.9949,972.7649 Q273.6797,973.8316 275.0244,973.8316 Q275.6553,973.8316 276.2488,973.5618 Q276.8423,973.292 277.4731,972.711 Z " fill="#000000"/><text fill="#000000" font-family="FG Virgil" font-size="12" font-style="italic" lengthAdjust="spacing" textLength="70" x="310.5" y="966.0816">&#171;repository&#187;</text><text fill="#000000" font-family="FG Virgil" font-size="14" lengthAdjust="spacing" textLength="114" x="288.5" y="982.148">GradeRepository</text><line style="stroke:#181818;stroke-width:0.5;" x1="260.5" x2="404.5" y1="990.1011" y2="990.1011"/><line style="stroke:#181818;stroke-width:0.5;" x1="260.5" x2="404.5" y1="998.1011" y2="998.1011"/><text fill="#000000" font-family="FG Virgil" font-size="14" lengthAdjust="spacing" textLength="40" x="265.5" y="1015.6363">save()</text></g><!--link Course to Exam--><g id="link_Course_Exam"><path codeLine="68" d="M168.5,738.27 C168.5,755.33 168.5,774.94 168.5,792.53 " fill="none" id="Course-to-Exam" style="stroke:#181818;stroke-width:1.0;"/><polygon fill="#181818" points="168.5,797.41,172.5,788.41,168.5,792.41,164.5,788.41,168.5,797.41" style="stroke:#181818;stroke-width:1.0;"/></g><!--link ListTeacherExamGradesController to AuthorizationService--><g id="link_ListTeacherExamGradesController_AuthorizationService"><path codeLine="69" d="M852.59,263.48 C866.47,286.11 882.63,312.46 896.29,334.74 " fill="none" id="ListTeacherExamGradesController-to-AuthorizationService" style="stroke:#181818;stroke-width:1.0;"/><polygon fill="#181818" points="899.34,338.72,898.0389,328.9575,896.7235,334.4593,891.2217,333.1439,899.34,338.72" style="stroke:#181818;stroke-width:1.0;"/><text fill="#000000" font-family="FG Virgil" font-size="13" lengthAdjust="spacing" textLength="35" x="881.5" y="306.7684">authz</text></g><!--link AuthorizationService to UserSession--><g id="link_AuthorizationService_UserSession"><path codeLine="70" d="M926.5,429.98 C926.5,452.42 926.5,479.43 926.5,500.83 " fill="none" id="AuthorizationService-to-UserSession" style="stroke:#181818;stroke-width:1.0;"/><polygon fill="#181818" points="926.5,505.71,930.5,496.71,926.5,500.71,922.5,496.71,926.5,505.71" style="stroke:#181818;stroke-width:1.0;"/><text fill="#000000" font-family="FG Virgil" font-size="13" lengthAdjust="spacing" textLength="48" x="927.5" y="473.3684">session</text></g><!--link PersistenceContext to RepositoryFactory--><g id="link_PersistenceContext_RepositoryFactory"><path codeLine="71" d="M657.35,422.03 C665.62,447.18 676.57,480.48 684.62,504.95 " fill="none" id="PersistenceContext-to-RepositoryFactory" style="stroke:#181818;stroke-width:1.0;"/><polygon fill="#181818" points="686.39,509.35,687.383,499.5513,684.8303,504.5995,679.7822,502.0468,686.39,509.35" style="stroke:#181818;stroke-width:1.0;"/><text fill="#000000" font-family="FG Virgil" font-size="13" lengthAdjust="spacing" textLength="44" x="676.5" y="473.3684">factory</text></g><!--link ListTeacherExamGradesController to PersistenceContext--><g id="link_ListTeacherExamGradesController_PersistenceContext"><path codeLine="72" d="M767.52,263.48 C741.37,289.31 710.32,319.98 686.08,343.92 " fill="none" id="ListTeacherExamGradesController-to-PersistenceContext" style="stroke:#181818;stroke-width:1.0;"/><polygon fill="#181818" points="682.95,347,692.1636,343.5202,686.5069,343.486,686.5412,337.8292,682.95,347" style="stroke:#181818;stroke-width:1.0;"/><text fill="#000000" font-family="FG Virgil" font-size="13" lengthAdjust="spacing" textLength="72" x="734.5" y="306.7684">persistence</text></g><!--link ListExamGrades to ListTeacherExamGradesController--><g id="link_ListExamGrades_ListTeacherExamGradesController"><path codeLine="73" d="M820.5,80.27 C820.5,100.84 820.5,127.2 820.5,150.72 " fill="none" id="ListExamGrades-to-ListTeacherExamGradesController" style="stroke:#181818;stroke-width:1.0;"/><polygon fill="#181818" points="820.5,155.63,824.5,146.63,820.5,150.63,816.5,146.63,820.5,155.63" style="stroke:#181818;stroke-width:1.0;"/><text fill="#000000" font-family="FG Virgil" font-size="13" lengthAdjust="spacing" textLength="61" x="821.5" y="123.6784">controller</text></g><!--link Course to CourseRepository--><g id="link_Course_CourseRepository"><path codeLine="74" d="M275.1,647.85 C311.64,634.55 353.22,621.8 392.5,615.17 C433.82,608.19 551.23,612.08 674.5,648.29 C680.01,649.9 685.6,651.8 691.18,653.89 " fill="none" id="Course-to-CourseRepository" style="stroke:#181818;stroke-width:1.0;"/><polygon fill="#181818" points="695.74,656.03,688.7801,649.0615,691.0744,654.2322,685.9037,656.5265,695.74,656.03" style="stroke:#181818;stroke-width:1.0;"/><text fill="#000000" font-family="FG Virgil" font-size="13" lengthAdjust="spacing" textLength="28" x="393.5" y="614.8584">save</text></g><!--link RepositoryFactory to CourseRepository--><g id="link_RepositoryFactory_CourseRepository"><path codeLine="75" d="M708.9,567.57 C720.22,590.84 736.61,624.51 749.49,650.97 " fill="none" id="RepositoryFactory-to-CourseRepository" style="stroke:#181818;stroke-width:1.0;"/><polygon fill="#181818" points="752.01,655.16,751.6506,645.3177,749.8139,650.6681,744.4636,648.8314,752.01,655.16" style="stroke:#181818;stroke-width:1.0;"/><text fill="#000000" font-family="FG Virgil" font-size="13" lengthAdjust="spacing" textLength="64" x="733.5" y="614.8584">repository</text></g><!--link RepositoryFactory to TeacherUserRepository--><g id="link_RepositoryFactory_TeacherUserRepository"><path codeLine="76" d="M765.85,567.75 C827.2,591.92 916.79,627.21 984.87,654.02 " fill="none" id="RepositoryFactory-to-TeacherUserRepository" style="stroke:#181818;stroke-width:1.0;"/><polygon fill="#181818" points="989.14,656.1,982.2245,649.0874,984.4859,654.2726,979.3007,656.534,989.14,656.1" style="stroke:#181818;stroke-width:1.0;"/><text fill="#000000" font-family="FG Virgil" font-size="13" lengthAdjust="spacing" textLength="64" x="889.5" y="614.8584">repository</text></g><!--link RepositoryFactory to TeacherInCourseRepository--><g id="link_RepositoryFactory_TeacherInCourseRepository"><path codeLine="77" d="M662,567.57 C633.1,591.33 591.01,625.91 558.53,652.61 " fill="none" id="RepositoryFactory-to-TeacherInCourseRepository" style="stroke:#181818;stroke-width:1.0;"/><polygon fill="#181818" points="555.22,656.16,564.7123,653.5338,559.0821,652.9845,559.6314,647.3543,555.22,656.16" style="stroke:#181818;stroke-width:1.0;"/><text fill="#000000" font-family="FG Virgil" font-size="13" lengthAdjust="spacing" textLength="64" x="621.5" y="614.8584">repository</text></g><!--link ListTeacherExamGradesController to TeacherUserRepository--><g id="link_ListTeacherExamGradesController_TeacherUserRepository"><path codeLine="78" d="M961.85,239.83 C1017.02,258.68 1074.79,289.63 1107.5,340.2 C1169.92,436.7 1126.88,580.75 1099.44,650.83 " fill="none" id="ListTeacherExamGradesController-to-TeacherUserRepository" style="stroke:#181818;stroke-width:1.0;stroke-dasharray:7.0,7.0;"/><polygon fill="#181818" points="1097.33,655.15,1104.3609,648.2532,1099.1697,650.5008,1096.9221,645.3096,1097.33,655.15" style="stroke:#181818;stroke-width:1.0;"/><text fill="#000000" font-family="FG Virgil" font-size="13" lengthAdjust="spacing" textLength="64" x="1140.5" y="473.3684">repository</text></g><!--link ListTeacherExamGradesController to TeacherInCourseRepository--><g id="link_ListTeacherExamGradesController_TeacherInCourseRepository"><path codeLine="79" d="M679.35,245.83 C629.24,265.3 577.4,295.1 545.5,340.2 C478.95,434.29 491.18,579.6 502.44,650.42 " fill="none" id="ListTeacherExamGradesController-to-TeacherInCourseRepository" style="stroke:#181818;stroke-width:1.0;stroke-dasharray:7.0,7.0;"/><polygon fill="#181818" points="503.38,655.22,505.8907,645.6965,502.5811,650.2842,497.9934,646.9747,503.38,655.22" style="stroke:#181818;stroke-width:1.0;"/><text fill="#000000" font-family="FG Virgil" font-size="13" lengthAdjust="spacing" textLength="64" x="501.5" y="473.3684">repository</text></g><!--link Exam to Grade--><g id="link_Exam_Grade"><path codeLine="80" d="M168.5,888.71 C168.5,906.18 168.5,926.19 168.5,943.42 " fill="none" id="Exam-to-Grade" style="stroke:#181818;stroke-width:1.0;"/><polygon fill="#181818" points="168.5,948.15,172.5,939.15,168.5,943.15,164.5,939.15,168.5,948.15" style="stroke:#181818;stroke-width:1.0;"/></g><!--link Exam to ExamRepository--><g id="link_Exam_ExamRepository"><path codeLine="81" d="M330.24,843.68 C339.75,843.68 349.26,843.68 358.77,843.68 " fill="none" id="Exam-to-ExamRepository" style="stroke:#181818;stroke-width:1.0;"/><polygon fill="#181818" points="363.69,843.68,354.69,839.68,358.69,843.68,354.69,847.68,363.69,843.68" style="stroke:#181818;stroke-width:1.0;"/></g><!--link Grade to GradeRepository--><g id="link_Grade_GradeRepository"><path codeLine="82" d="M224.87,986.04 C234.39,986.04 243.91,986.04 253.42,986.04 " fill="none" id="Grade-to-GradeRepository" style="stroke:#181818;stroke-width:1.0;"/><polygon fill="#181818" points="258.35,986.04,249.35,982.04,253.35,986.04,249.35,990.04,258.35,986.04" style="stroke:#181818;stroke-width:1.0;"/></g><!--SRC=[bLJ1Rjim3BtxAtHqWBGV41G1Z3Hf2nJRK7UxQpAJ29KbGvJRfiF-VPJaE4hiDbaEWKNpFJwIJyONgHjkUSqQBbxu1agtKy0i29TX_ww2DM-LMndjll4QsEgE_P9s8rMIWrjUcJUfDspD5KAM2SKHsQD4jtpdzPtb5I2xkMai86Z7dJHwFcT_CaQ_ofHRyvPFihyfxXcus88zm1Sam1gbm18HRnebnJ4FLsfXMek07VO12qIvqL3bN5YZT_Ka96x0_KImHOpbCQYePeJxafYBy9o8AbgtDLP-XA8bs5SfW9HWVEfLWCRMWa-cHhr4g7onUuw5tdrVvy_BOd6_V8f5IIiIMzgxJovZUD_NALUQ7YMJZihKNCPXn5ZkjpLbju32oiQBdhAbzXDybBLqKrRI7gX1caRisBD6Kdy-flGwV3GdEfeeZtH7t2KuHmwWQA3j1Xrtbt27m90yXFDRq_vMC6Zl2Hg3qXcx8w3j3m6C_1NYGFQO7s2HbWbQWFSCl3lll4EmhzapoKvXHt0ej-AYgxgEJm7R9tO-yplvIYAD8SbSMLENEv9IXrssz3SPK3xeyvslfQwAppn_S7nFxVTtsIIJJLqw-iw7LrVpK2SxTuLzukYDcWM_VsIZBpqglI2p_GtAHfRkauUhdB5kbHT97A6TiSHBsSadpcFEySwOw0_ztEP3grDpDE1isCBLUFPXEvzWnkrwEN34b4VWSurVNr-auJzepYaA7pBVGI3fZlEJcv35Jz8-Atdn3m00]--></g></svg>