<?xml version="1.0" encoding="us-ascii" standalone="no"?><svg xmlns="http://www.w3.org/2000/svg" xmlns:xlink="http://www.w3.org/1999/xlink" contentStyleType="text/css" height="704px" preserveAspectRatio="none" style="width:1143px;height:704px;background:#FFFFFF;" version="1.1" viewBox="0 0 1143 704" width="1143px" zoomAndPan="magnify"><defs/><g><!--class ScheduleClassUI--><g id="elem_ScheduleClassUI"><rect codeLine="6" fill="#F1F1F1" height="73.1094" id="ScheduleClassUI" rx="2.5" ry="2.5" style="stroke:#181818;stroke-width:0.5;" width="144" x="139.56" y="7"/><ellipse cx="154.56" cy="27.3105" fill="#ADD1B2" rx="11" ry="11" style="stroke:#181818;stroke-width:1.0;"/><path d="M157.5331,32.9536 Q156.9521,33.2524 156.3129,33.4019 Q155.6738,33.5513 154.9682,33.5513 Q152.4614,33.5513 151.1415,31.8994 Q149.8217,30.2476 149.8217,27.1265 Q149.8217,23.9971 151.1415,22.3452 Q152.4614,20.6934 154.9682,20.6934 Q155.6738,20.6934 156.3212,20.8428 Q156.9687,20.9922 157.5331,21.291 L157.5331,24.0137 Q156.9023,23.4326 156.3088,23.1628 Q155.7153,22.8931 155.0844,22.8931 Q153.7397,22.8931 153.0549,23.9597 Q152.3701,25.0264 152.3701,27.1265 Q152.3701,29.2183 153.0549,30.2849 Q153.7397,31.3516 155.0844,31.3516 Q155.7153,31.3516 156.3088,31.0818 Q156.9023,30.812 157.5331,30.231 Z " fill="#000000"/><text fill="#000000" font-family="FG Virgil" font-size="12" font-style="italic" lengthAdjust="spacing" textLength="84" x="182.56" y="23.6016">&#171;presentation&#187;</text><text fill="#000000" font-family="FG Virgil" font-size="14" lengthAdjust="spacing" textLength="112" x="168.56" y="39.668">ScheduleClassUI</text><line style="stroke:#181818;stroke-width:0.5;" x1="140.56" x2="282.56" y1="47.6211" y2="47.6211"/><line style="stroke:#181818;stroke-width:0.5;" x1="140.56" x2="282.56" y1="55.6211" y2="55.6211"/><text fill="#000000" font-family="FG Virgil" font-size="14" lengthAdjust="spacing" textLength="65" x="145.56" y="73.1563">doShow()</text></g><!--class ScheduleClassController--><g id="elem_ScheduleClassController"><rect codeLine="9" fill="#F1F1F1" height="73.1094" id="ScheduleClassController" rx="2.5" ry="2.5" style="stroke:#181818;stroke-width:0.5;" width="347" x="38.06" y="157.11"/><ellipse cx="123.31" cy="177.4205" fill="#ADD1B2" rx="11" ry="11" style="stroke:#181818;stroke-width:1.0;"/><path d="M126.2831,183.0636 Q125.7021,183.3624 125.0629,183.5119 Q124.4238,183.6613 123.7182,183.6613 Q121.2114,183.6613 119.8915,182.0094 Q118.5717,180.3576 118.5717,177.2365 Q118.5717,174.1071 119.8915,172.4552 Q121.2114,170.8034 123.7182,170.8034 Q124.4238,170.8034 125.0712,170.9528 Q125.7187,171.1022 126.2831,171.401 L126.2831,174.1237 Q125.6523,173.5426 125.0588,173.2728 Q124.4653,173.0031 123.8344,173.0031 Q122.4897,173.0031 121.8049,174.0697 Q121.1201,175.1364 121.1201,177.2365 Q121.1201,179.3283 121.8049,180.3949 Q122.4897,181.4616 123.8344,181.4616 Q124.4653,181.4616 125.0588,181.1918 Q125.6523,180.922 126.2831,180.341 Z " fill="#000000"/><text fill="#000000" font-family="FG Virgil" font-size="12" font-style="italic" lengthAdjust="spacing" textLength="75" x="190.31" y="173.7116">&#171;application&#187;</text><text fill="#000000" font-family="FG Virgil" font-size="14" lengthAdjust="spacing" textLength="168" x="143.81" y="189.778">ScheduleClassController</text><line style="stroke:#181818;stroke-width:0.5;" x1="39.06" x2="384.06" y1="197.7311" y2="197.7311"/><line style="stroke:#181818;stroke-width:0.5;" x1="39.06" x2="384.06" y1="205.7311" y2="205.7311"/><text fill="#000000" font-family="FG Virgil" font-size="14" lengthAdjust="spacing" textLength="335" x="44.06" y="223.2663">scheduleClass(Course, date, startTime, endTime)</text></g><!--class AuthorizationService--><g id="elem_AuthorizationService"><rect codeLine="13" fill="#F1F1F1" height="89.5977" id="AuthorizationService" rx="2.5" ry="2.5" style="stroke:#181818;stroke-width:0.5;" width="327" x="393.06" y="307.22"/><ellipse cx="480.81" cy="327.5305" fill="#ADD1B2" rx="11" ry="11" style="stroke:#181818;stroke-width:1.0;"/><path d="M483.7831,333.1736 Q483.2021,333.4724 482.5629,333.6219 Q481.9238,333.7713 481.2182,333.7713 Q478.7114,333.7713 477.3915,332.1194 Q476.0717,330.4676 476.0717,327.3465 Q476.0717,324.2171 477.3915,322.5652 Q478.7114,320.9134 481.2182,320.9134 Q481.9238,320.9134 482.5712,321.0628 Q483.2187,321.2122 483.7831,321.511 L483.7831,324.2337 Q483.1523,323.6526 482.5588,323.3828 Q481.9653,323.1131 481.3344,323.1131 Q479.9897,323.1131 479.3049,324.1797 Q478.6201,325.2464 478.6201,327.3465 Q478.6201,329.4383 479.3049,330.5049 Q479.9897,331.5716 481.3344,331.5716 Q481.9653,331.5716 482.5588,331.3018 Q483.1523,331.032 483.7831,330.451 Z " fill="#000000"/><text fill="#000000" font-family="FG Virgil" font-size="12" font-style="italic" lengthAdjust="spacing" textLength="52" x="546.81" y="323.8216">&#171;service&#187;</text><text fill="#000000" font-family="FG Virgil" font-size="14" lengthAdjust="spacing" textLength="143" x="501.31" y="339.888">AuthorizationService</text><line style="stroke:#181818;stroke-width:0.5;" x1="394.06" x2="719.06" y1="347.8411" y2="347.8411"/><line style="stroke:#181818;stroke-width:0.5;" x1="394.06" x2="719.06" y1="355.8411" y2="355.8411"/><text fill="#000000" font-family="FG Virgil" font-size="14" lengthAdjust="spacing" textLength="315" x="399.06" y="373.3762">ensureAuthenticatedUserHasAnyOf(TEACHER)</text><text fill="#000000" font-family="FG Virgil" font-size="14" lengthAdjust="spacing" textLength="61" x="399.06" y="389.8645">session()</text></g><!--class UserSession--><g id="elem_UserSession"><rect codeLine="18" fill="#F1F1F1" height="64.4883" id="UserSession" rx="2.5" ry="2.5" style="stroke:#181818;stroke-width:0.5;" width="147" x="483.06" y="478.13"/><ellipse cx="512.46" cy="494.13" fill="#ADD1B2" rx="11" ry="11" style="stroke:#181818;stroke-width:1.0;"/><path d="M515.4331,499.7731 Q514.8521,500.0719 514.2129,500.2213 Q513.5738,500.3707 512.8682,500.3707 Q510.3614,500.3707 509.0415,498.7189 Q507.7217,497.067 507.7217,493.9459 Q507.7217,490.8165 509.0415,489.1647 Q510.3614,487.5128 512.8682,487.5128 Q513.5738,487.5128 514.2212,487.6622 Q514.8687,487.8116 515.4331,488.1105 L515.4331,490.8331 Q514.8023,490.2521 514.2088,489.9823 Q513.6153,489.7125 512.9844,489.7125 Q511.6397,489.7125 510.9549,490.7792 Q510.2701,491.8458 510.2701,493.9459 Q510.2701,496.0377 510.9549,497.1044 Q511.6397,498.171 512.9844,498.171 Q513.6153,498.171 514.2088,497.9012 Q514.8023,497.6315 515.4331,497.0504 Z " fill="#000000"/><text fill="#000000" font-family="FG Virgil" font-size="14" lengthAdjust="spacing" textLength="83" x="529.66" y="499.421">UserSession</text><line style="stroke:#181818;stroke-width:0.5;" x1="484.06" x2="629.06" y1="510.13" y2="510.13"/><line style="stroke:#181818;stroke-width:0.5;" x1="484.06" x2="629.06" y1="518.13" y2="518.13"/><text fill="#000000" font-family="FG Virgil" font-size="14" lengthAdjust="spacing" textLength="135" x="489.06" y="535.6652">authenticatedUser()</text></g><!--class Course--><g id="elem_Course"><rect codeLine="22" fill="#F1F1F1" height="56.6211" id="Course" rx="2.5" ry="2.5" style="stroke:#181818;stroke-width:0.5;" width="83" x="794.06" y="165.36"/><ellipse cx="809.06" cy="185.6705" fill="#ADD1B2" rx="11" ry="11" style="stroke:#181818;stroke-width:1.0;"/><path d="M812.0331,191.3136 Q811.4521,191.6124 810.8129,191.7619 Q810.1738,191.9113 809.4682,191.9113 Q806.9614,191.9113 805.6415,190.2594 Q804.3217,188.6076 804.3217,185.4865 Q804.3217,182.3571 805.6415,180.7052 Q806.9614,179.0534 809.4682,179.0534 Q810.1738,179.0534 810.8212,179.2028 Q811.4687,179.3522 812.0331,179.651 L812.0331,182.3737 Q811.4023,181.7926 810.8088,181.5228 Q810.2153,181.2531 809.5844,181.2531 Q808.2397,181.2531 807.5549,182.3197 Q806.8701,183.3864 806.8701,185.4865 Q806.8701,187.5783 807.5549,188.6449 Q808.2397,189.7116 809.5844,189.7116 Q810.2153,189.7116 810.8088,189.4418 Q811.4023,189.172 812.0331,188.591 Z " fill="#000000"/><text fill="#000000" font-family="FG Virgil" font-size="12" font-style="italic" lengthAdjust="spacing" textLength="55" x="821.06" y="181.9616">&#171;domain&#187;</text><text fill="#000000" font-family="FG Virgil" font-size="14" lengthAdjust="spacing" textLength="49" x="824.06" y="198.028">Course</text><line style="stroke:#181818;stroke-width:0.5;" x1="795.06" x2="876.06" y1="205.9811" y2="205.9811"/><line style="stroke:#181818;stroke-width:0.5;" x1="795.06" x2="876.06" y1="213.9811" y2="213.9811"/></g><!--class ClassFactory--><g id="elem_ClassFactory"><rect codeLine="25" fill="#F1F1F1" height="56.6211" id="ClassFactory" rx="2.5" ry="2.5" style="stroke:#181818;stroke-width:0.5;" width="118" x="239.56" y="323.71"/><ellipse cx="254.56" cy="344.0205" fill="#ADD1B2" rx="11" ry="11" style="stroke:#181818;stroke-width:1.0;"/><path d="M257.5331,349.6636 Q256.9521,349.9624 256.3129,350.1119 Q255.6738,350.2613 254.9682,350.2613 Q252.4614,350.2613 251.1415,348.6094 Q249.8217,346.9576 249.8217,343.8365 Q249.8217,340.7071 251.1415,339.0552 Q252.4614,337.4034 254.9682,337.4034 Q255.6738,337.4034 256.3212,337.5528 Q256.9687,337.7022 257.5331,338.001 L257.5331,340.7237 Q256.9023,340.1426 256.3088,339.8728 Q255.7153,339.6031 255.0844,339.6031 Q253.7397,339.6031 253.0549,340.6697 Q252.3701,341.7364 252.3701,343.8365 Q252.3701,345.9283 253.0549,346.9949 Q253.7397,348.0616 255.0844,348.0616 Q255.7153,348.0616 256.3088,347.7918 Q256.9023,347.522 257.5331,346.941 Z " fill="#000000"/><text fill="#000000" font-family="FG Virgil" font-size="12" font-style="italic" lengthAdjust="spacing" textLength="51" x="286.06" y="340.3116">&#171;factory&#187;</text><text fill="#000000" font-family="FG Virgil" font-size="14" lengthAdjust="spacing" textLength="86" x="268.56" y="356.378">ClassFactory</text><line style="stroke:#181818;stroke-width:0.5;" x1="240.56" x2="356.56" y1="364.3311" y2="364.3311"/><line style="stroke:#181818;stroke-width:0.5;" x1="240.56" x2="356.56" y1="372.3311" y2="372.3311"/></g><!--class SchClass--><g id="elem_SchClass"><rect codeLine="28" fill="#F1F1F1" height="73.1094" id="SchClass" rx="2.5" ry="2.5" style="stroke:#181818;stroke-width:0.5;" width="310" x="826.56" y="315.47"/><ellipse cx="947.31" cy="335.7805" fill="#ADD1B2" rx="11" ry="11" style="stroke:#181818;stroke-width:1.0;"/><path d="M950.2831,341.4236 Q949.7021,341.7224 949.0629,341.8719 Q948.4238,342.0213 947.7182,342.0213 Q945.2114,342.0213 943.8915,340.3694 Q942.5717,338.7176 942.5717,335.5965 Q942.5717,332.4671 943.8915,330.8152 Q945.2114,329.1634 947.7182,329.1634 Q948.4238,329.1634 949.0712,329.3128 Q949.7187,329.4622 950.2831,329.761 L950.2831,332.4837 Q949.6523,331.9026 949.0588,331.6328 Q948.4653,331.3631 947.8344,331.3631 Q946.4897,331.3631 945.8049,332.4297 Q945.1201,333.4964 945.1201,335.5965 Q945.1201,337.6883 945.8049,338.7549 Q946.4897,339.8216 947.8344,339.8216 Q948.4653,339.8216 949.0588,339.5518 Q949.6523,339.282 950.2831,338.701 Z " fill="#000000"/><text fill="#000000" font-family="FG Virgil" font-size="12" font-style="italic" lengthAdjust="spacing" textLength="55" x="970.31" y="332.0716">&#171;domain&#187;</text><text fill="#000000" font-family="FG Virgil" font-size="14" lengthAdjust="spacing" textLength="60" x="967.81" y="348.138">SchClass</text><line style="stroke:#181818;stroke-width:0.5;" x1="827.56" x2="1135.56" y1="356.0911" y2="356.0911"/><line style="stroke:#181818;stroke-width:0.5;" x1="827.56" x2="1135.56" y1="364.0911" y2="364.0911"/><text fill="#000000" font-family="FG Virgil" font-size="14" lengthAdjust="spacing" textLength="298" x="832.56" y="381.6262">SchClass(Course, date, startTime, endTime)</text></g><!--class PersistenceContext--><g id="elem_PersistenceContext"><rect codeLine="32" fill="#F1F1F1" height="73.1094" id="PersistenceContext" rx="2.5" ry="2.5" style="stroke:#181818;stroke-width:0.5;" width="164" x="40.56" y="315.47"/><ellipse cx="55.56" cy="335.7805" fill="#ADD1B2" rx="11" ry="11" style="stroke:#181818;stroke-width:1.0;"/><path d="M58.5331,341.4236 Q57.9521,341.7224 57.3129,341.8719 Q56.6738,342.0213 55.9682,342.0213 Q53.4614,342.0213 52.1415,340.3694 Q50.8217,338.7176 50.8217,335.5965 Q50.8217,332.4671 52.1415,330.8152 Q53.4614,329.1634 55.9682,329.1634 Q56.6738,329.1634 57.3212,329.3128 Q57.9687,329.4622 58.5331,329.761 L58.5331,332.4837 Q57.9023,331.9026 57.3088,331.6328 Q56.7153,331.3631 56.0844,331.3631 Q54.7397,331.3631 54.0549,332.4297 Q53.3701,333.4964 53.3701,335.5965 Q53.3701,337.6883 54.0549,338.7549 Q54.7397,339.8216 56.0844,339.8216 Q56.7153,339.8216 57.3088,339.5518 Q57.9023,339.282 58.5331,338.701 Z " fill="#000000"/><text fill="#000000" font-family="FG Virgil" font-size="12" font-style="italic" lengthAdjust="spacing" textLength="78" x="96.56" y="332.0716">&#171;persistence&#187;</text><text fill="#000000" font-family="FG Virgil" font-size="14" lengthAdjust="spacing" textLength="132" x="69.56" y="348.138">PersistenceContext</text><line style="stroke:#181818;stroke-width:0.5;" x1="41.56" x2="203.56" y1="356.0911" y2="356.0911"/><line style="stroke:#181818;stroke-width:0.5;" x1="41.56" x2="203.56" y1="364.0911" y2="364.0911"/><text fill="#000000" font-family="FG Virgil" font-size="14" lengthAdjust="spacing" textLength="92" x="46.56" y="381.6262">repositories()</text></g><!--class RepositoryFactory--><g id="elem_RepositoryFactory"><rect codeLine="36" fill="#F1F1F1" height="73.1094" id="RepositoryFactory" rx="2.5" ry="2.5" style="stroke:#181818;stroke-width:0.5;" width="224" x="40.56" y="473.82"/><ellipse cx="86.81" cy="494.1305" fill="#ADD1B2" rx="11" ry="11" style="stroke:#181818;stroke-width:1.0;"/><path d="M89.7831,499.7736 Q89.2021,500.0724 88.5629,500.2219 Q87.9238,500.3713 87.2182,500.3713 Q84.7114,500.3713 83.3915,498.7194 Q82.0717,497.0676 82.0717,493.9465 Q82.0717,490.8171 83.3915,489.1652 Q84.7114,487.5134 87.2182,487.5134 Q87.9238,487.5134 88.5712,487.6628 Q89.2187,487.8122 89.7831,488.111 L89.7831,490.8337 Q89.1523,490.2526 88.5588,489.9828 Q87.9653,489.7131 87.3344,489.7131 Q85.9897,489.7131 85.3049,490.7797 Q84.6201,491.8464 84.6201,493.9465 Q84.6201,496.0383 85.3049,497.1049 Q85.9897,498.1716 87.3344,498.1716 Q87.9653,498.1716 88.5588,497.9018 Q89.1523,497.632 89.7831,497.051 Z " fill="#000000"/><text fill="#000000" font-family="FG Virgil" font-size="12" font-style="italic" lengthAdjust="spacing" textLength="51" x="143.31" y="490.4216">&#171;factory&#187;</text><text fill="#000000" font-family="FG Virgil" font-size="14" lengthAdjust="spacing" textLength="123" x="107.31" y="506.488">RepositoryFactory</text><line style="stroke:#181818;stroke-width:0.5;" x1="41.56" x2="263.56" y1="514.4411" y2="514.4411"/><line style="stroke:#181818;stroke-width:0.5;" x1="41.56" x2="263.56" y1="522.4411" y2="522.4411"/><text fill="#000000" font-family="FG Virgil" font-size="14" lengthAdjust="spacing" textLength="212" x="46.56" y="539.9762">findAllCoursesWithState(OPEN)</text></g><!--class CourseRepository--><g id="elem_CourseRepository"><rect codeLine="40" fill="#F1F1F1" height="73.1094" id="CourseRepository" rx="2.5" ry="2.5" style="stroke:#181818;stroke-width:0.5;" width="154" x="75.56" y="623.93"/><ellipse cx="90.56" cy="644.2405" fill="#ADD1B2" rx="11" ry="11" style="stroke:#181818;stroke-width:1.0;"/><path d="M93.5331,649.8836 Q92.9521,650.1824 92.3129,650.3319 Q91.6738,650.4813 90.9682,650.4813 Q88.4614,650.4813 87.1415,648.8294 Q85.8217,647.1776 85.8217,644.0565 Q85.8217,640.9271 87.1415,639.2752 Q88.4614,637.6234 90.9682,637.6234 Q91.6738,637.6234 92.3212,637.7728 Q92.9687,637.9222 93.5331,638.221 L93.5331,640.9437 Q92.9023,640.3626 92.3088,640.0928 Q91.7153,639.8231 91.0844,639.8231 Q89.7397,639.8231 89.0549,640.8897 Q88.3701,641.9564 88.3701,644.0565 Q88.3701,646.1483 89.0549,647.2149 Q89.7397,648.2816 91.0844,648.2816 Q91.7153,648.2816 92.3088,648.0118 Q92.9023,647.742 93.5331,647.161 Z " fill="#000000"/><text fill="#000000" font-family="FG Virgil" font-size="12" font-style="italic" lengthAdjust="spacing" textLength="70" x="130.56" y="640.5316">&#171;repository&#187;</text><text fill="#000000" font-family="FG Virgil" font-size="14" lengthAdjust="spacing" textLength="122" x="104.56" y="656.598">CourseRepository</text><line style="stroke:#181818;stroke-width:0.5;" x1="76.56" x2="228.56" y1="664.5511" y2="664.5511"/><line style="stroke:#181818;stroke-width:0.5;" x1="76.56" x2="228.56" y1="672.5511" y2="672.5511"/><text fill="#000000" font-family="FG Virgil" font-size="14" lengthAdjust="spacing" textLength="100" x="81.56" y="690.0863">save(SchClass)</text></g><!--link Course to SchClass--><g id="link_Course_SchClass"><path codeLine="44" d="M861.32,222.26 C884.24,246.81 918.06,283.02 943.99,310.8 " fill="none" id="Course-to-SchClass" style="stroke:#181818;stroke-width:1.0;"/><polygon fill="#181818" points="947.08,314.18,943.8621,304.8717,943.6679,310.5252,938.0144,310.331,947.08,314.18" style="stroke:#181818;stroke-width:1.0;"/></g><!--link ScheduleClassController to AuthorizationService--><g id="link_ScheduleClassController_AuthorizationService"><path codeLine="45" d="M290.71,230.54 C339.08,252.46 401.46,280.73 453.64,304.38 " fill="none" id="ScheduleClassController-to-AuthorizationService" style="stroke:#181818;stroke-width:1.0;"/><polygon fill="#181818" points="457.98,306.8,451.4228,299.4513,453.4228,304.7428,448.1313,306.7429,457.98,306.8" style="stroke:#181818;stroke-width:1.0;"/><text fill="#000000" font-family="FG Virgil" font-size="13" lengthAdjust="spacing" textLength="35" x="385.56" y="273.7884">authz</text></g><!--link ScheduleClassController to CourseRepository--><g id="link_ScheduleClassController_CourseRepository"><path codeLine="46" d="M110.55,230.58 C76.38,248.13 41.99,273.03 22.56,307.22 C11.13,327.33 6,508.66 23.56,546.93 C37.09,576.43 62.55,601.25 87.3,620 " fill="none" id="ScheduleClassController-to-CourseRepository" style="stroke:#181818;stroke-width:1.0;"/><polygon fill="#181818" points="90.91,623.43,86.0903,614.841,86.9031,620.4392,81.305,621.252,90.91,623.43" style="stroke:#181818;stroke-width:1.0;"/><text fill="#000000" font-family="FG Virgil" font-size="13" lengthAdjust="spacing" textLength="64" x="13.56" y="440.3884">repository</text></g><!--link AuthorizationService to UserSession--><g id="link_AuthorizationService_UserSession"><path codeLine="47" d="M556.56,396.99 C556.56,420.71 556.56,449.65 556.56,472.22 " fill="none" id="AuthorizationService-to-UserSession" style="stroke:#181818;stroke-width:1.0;"/><polygon fill="#181818" points="556.56,477.12,560.56,468.12,556.56,472.12,552.56,468.12,556.56,477.12" style="stroke:#181818;stroke-width:1.0;"/><text fill="#000000" font-family="FG Virgil" font-size="13" lengthAdjust="spacing" textLength="48" x="557.56" y="440.3884">session</text></g><!--link PersistenceContext to RepositoryFactory--><g id="link_PersistenceContext_RepositoryFactory"><path codeLine="48" d="M129.44,388.89 C133.94,412.35 139.83,443.07 144.54,467.62 " fill="none" id="PersistenceContext-to-RepositoryFactory" style="stroke:#181818;stroke-width:1.0;"/><polygon fill="#181818" points="145.65,472.4,147.8825,462.8075,144.7079,467.4896,140.0258,464.3149,145.65,472.4" style="stroke:#181818;stroke-width:1.0;"/><text fill="#000000" font-family="FG Virgil" font-size="13" lengthAdjust="spacing" textLength="44" x="140.56" y="440.3884">factory</text></g><!--link ScheduleClassController to PersistenceContext--><g id="link_ScheduleClassController_PersistenceContext"><path codeLine="49" d="M186.94,230.62 C180.73,240.12 174.22,250.45 168.56,260.22 C159.33,276.16 149.99,294.17 142.16,309.93 " fill="none" id="ScheduleClassController-to-PersistenceContext" style="stroke:#181818;stroke-width:1.0;"/><polygon fill="#181818" points="139.57,314.17,147.1405,307.8703,141.7832,309.6865,139.9669,304.3291,139.57,314.17" style="stroke:#181818;stroke-width:1.0;"/><text fill="#000000" font-family="FG Virgil" font-size="13" lengthAdjust="spacing" textLength="72" x="169.56" y="273.7884">persistence</text></g><!--link ScheduleClassUI to ScheduleClassController--><g id="link_ScheduleClassUI_ScheduleClassController"><path codeLine="50" d="M211.56,80.41 C211.56,101.63 211.56,128.61 211.56,150.81 " fill="none" id="ScheduleClassUI-to-ScheduleClassController" style="stroke:#181818;stroke-width:1.0;"/><polygon fill="#181818" points="211.56,155.63,215.56,146.63,211.56,150.63,207.56,146.63,211.56,155.63" style="stroke:#181818;stroke-width:1.0;"/><text fill="#000000" font-family="FG Virgil" font-size="13" lengthAdjust="spacing" textLength="61" x="212.56" y="123.6784">controller</text></g><!--link ClassFactory to SchClass--><g id="link_ClassFactory_SchClass"><path codeLine="51" d="M321.17,323.29 C338.47,303.79 364.21,279.62 393.06,268.72 C554.79,207.62 612.54,234.75 782.06,268.72 C825.02,277.33 870.3,295.42 906.83,312.54 " fill="none" id="ClassFactory-to-SchClass" style="stroke:#181818;stroke-width:1.0;"/><polygon fill="#181818" points="911.16,315.06,904.7357,307.5949,906.6404,312.9214,901.3139,314.8262,911.16,315.06" style="stroke:#181818;stroke-width:1.0;"/></g><!--link Course to CourseRepository--><g id="link_Course_CourseRepository"><path codeLine="52" d="M829.55,222.34 C813.33,289.95 761.92,464.05 647.56,546.93 C582.49,594.09 358.95,631.17 235.73,648.61 " fill="none" id="Course-to-CourseRepository" style="stroke:#181818;stroke-width:1.0;"/><polygon fill="#181818" points="230.94,649.42,240.4109,652.1223,235.8909,648.7209,239.2923,644.2009,230.94,649.42" style="stroke:#181818;stroke-width:1.0;"/><text fill="#000000" font-family="FG Virgil" font-size="13" lengthAdjust="spacing" textLength="28" x="749.56" y="440.3884">save</text></g><!--link ScheduleClassController to ClassFactory--><g id="link_ScheduleClassController_ClassFactory"><path codeLine="53" d="M231.52,230.54 C246.28,257.08 266.23,292.93 280.52,318.61 " fill="none" id="ScheduleClassController-to-ClassFactory" style="stroke:#181818;stroke-width:1.0;"/><polygon fill="#181818" points="283.3,322.6,282.4014,312.7922,280.8609,318.2353,275.4178,316.6948,283.3,322.6" style="stroke:#181818;stroke-width:1.0;"/><text fill="#000000" font-family="FG Virgil" font-size="13" lengthAdjust="spacing" textLength="44" x="256.56" y="273.7884">factory</text></g><!--link RepositoryFactory to CourseRepository--><g id="link_RepositoryFactory_CourseRepository"><path codeLine="54" d="M152.56,547.23 C152.56,568.45 152.56,595.43 152.56,617.62 " fill="none" id="RepositoryFactory-to-CourseRepository" style="stroke:#181818;stroke-width:1.0;"/><polygon fill="#181818" points="152.56,622.45,156.56,613.45,152.56,617.45,148.56,613.45,152.56,622.45" style="stroke:#181818;stroke-width:1.0;"/><text fill="#000000" font-family="FG Virgil" font-size="13" lengthAdjust="spacing" textLength="64" x="153.56" y="590.4984">repository</text></g><!--SRC=[bLFBRjim4BppAtYKWUG7XC20OTXDBx4H9UrvGQui8ZGfSAaaIj5_Bsczw5XnK1q8FcPdTcTNzA9C3GwEl0Rn0WSiVAkHEnIUqVWciOH6-wqr_W6EoBS_-2_b3aed6Af0sZTb3hm4JSYOq4342r6XR3Iku-dv9x-xgnqI6WzUMRDSyZ-CXq_Qeh9lsOBzdOjR1s5djKONug6kjHBduPIYixLj7E4Db-33IXwSVrB7i4KZuoQgz3AhnbVMgOyJNO7kLGaC6jJjHduqr3YCu91v54Vv733tG2lJxihiQRDQtsyU5rqoI1JOiaGcWelkkcU4prmfl2iWv27j4LHNvlGOroq8RrqR86MtEyS4zqwmSugeExpyZqbxTAJ8en4OEu7lFhPnkXp97TQML4X78QNrF0xtxNpUCRPKHgwqxjAYtyfNHPWHp7RxpSE5DHDXO1fL9pA2Lyo6Ka_HlQMtjylH0lRLZ4NGx63afxPzN0syI32VR6dPB6qCIoSa7qQ8pJWVmPT-vhptysfkCtGvJnh9Fl-jlLspX3aNuu6T3MNgyU3xh36nJTVDJ6cd6Y_h_zxvVm00]--></g></svg>