<?xml version="1.0" encoding="us-ascii" standalone="no"?><svg xmlns="http://www.w3.org/2000/svg" xmlns:xlink="http://www.w3.org/1999/xlink" contentStyleType="text/css" height="459.2px" preserveAspectRatio="none" style="width:754px;height:459px;background:#FFFFFF;" version="1.1" viewBox="0 0 754 459" width="754.4px" zoomAndPan="magnify"><defs/><g><rect fill="#FFFFFF" height="35.6969" style="stroke:#181818;stroke-width:0.8000000000000002;" width="8" x="219.6" y="90.2391"/><rect fill="#FFFFFF" height="231.0719" style="stroke:#181818;stroke-width:0.8000000000000002;" width="8" x="219.6" y="149.3844"/><rect fill="#FFFFFF" height="184.175" style="stroke:#181818;stroke-width:0.8000000000000002;" width="8" x="350.8" y="172.8328"/><rect fill="#FFFFFF" height="59.9813" style="stroke:#181818;stroke-width:0.8000000000000002;" width="8" x="534.8" y="216.5297"/><rect fill="#FFFFFF" height="45.8484" style="stroke:#181818;stroke-width:0.8000000000000002;" width="8" x="630.8" y="299.9594"/><rect fill="#FFFFFF" height="11.2" style="stroke:#181818;stroke-width:0.8000000000000002;" width="8" x="722.4" y="323.4078"/><line style="stroke:#181818;stroke-width:0.4000000000000001;stroke-dasharray:5.0,5.0;" x1="28" x2="28" y1="65.1906" y2="394.8563"/><line style="stroke:#181818;stroke-width:0.4000000000000001;stroke-dasharray:5.0,5.0;" x1="223.6" x2="223.6" y1="65.1906" y2="394.8563"/><line style="stroke:#181818;stroke-width:0.4000000000000001;stroke-dasharray:5.0,5.0;" x1="354.8" x2="354.8" y1="65.1906" y2="394.8563"/><line style="stroke:#181818;stroke-width:0.4000000000000001;stroke-dasharray:5.0,5.0;" x1="538.8" x2="538.8" y1="210.4234" y2="394.8563"/><line style="stroke:#181818;stroke-width:0.4000000000000001;stroke-dasharray:5.0,5.0;" x1="634.8" x2="634.8" y1="65.1906" y2="394.8563"/><line style="stroke:#181818;stroke-width:0.4000000000000001;stroke-dasharray:5.0,5.0;" x1="726" x2="726" y1="65.1906" y2="394.8563"/><text fill="#000000" font-family="sans-serif" font-size="11.2" lengthAdjust="spacing" textLength="44" x="4" y="62.8281">Teacher</text><ellipse cx="28.4" cy="10.8" fill="#E2E2F0" rx="6.4" ry="6.4" style="stroke:#181818;stroke-width:0.4000000000000001;"/><path d="M28.4,17.2 L28.4,38.8 M18,23.6 L38.8,23.6 M28.4,38.8 L18,50.8 M28.4,38.8 L38.8,50.8 " fill="none" style="stroke:#181818;stroke-width:0.4000000000000001;"/><text fill="#000000" font-family="sans-serif" font-size="11.2" lengthAdjust="spacing" textLength="44" x="4" y="404.8844">Teacher</text><ellipse cx="28.4" cy="414.0469" fill="#E2E2F0" rx="6.4" ry="6.4" style="stroke:#181818;stroke-width:0.4000000000000001;"/><path d="M28.4,420.4469 L28.4,442.0469 M18,426.8469 L38.8,426.8469 M28.4,442.0469 L18,454.0469 M28.4,442.0469 L38.8,454.0469 " fill="none" style="stroke:#181818;stroke-width:0.4000000000000001;"/><rect fill="#E2E2F0" height="37.5813" rx="2" ry="2" style="stroke:#181818;stroke-width:0.4000000000000001;" width="100.8" x="173.2" y="26.8094"/><text fill="#000000" font-family="sans-serif" font-size="11.2" font-style="italic" lengthAdjust="spacing" textLength="80.8" x="183.2" y="43.2375">&#171;presentation&#187;</text><text fill="#000000" font-family="sans-serif" font-size="11.2" lengthAdjust="spacing" textLength="89.6" x="178.8" y="56.4281">ScheduleClassUI</text><rect fill="#E2E2F0" height="37.5813" rx="2" ry="2" style="stroke:#181818;stroke-width:0.4000000000000001;" width="100.8" x="173.2" y="394.0563"/><text fill="#000000" font-family="sans-serif" font-size="11.2" font-style="italic" lengthAdjust="spacing" textLength="80.8" x="183.2" y="410.4844">&#171;presentation&#187;</text><text fill="#000000" font-family="sans-serif" font-size="11.2" lengthAdjust="spacing" textLength="89.6" x="178.8" y="423.675">ScheduleClassUI</text><rect fill="#E2E2F0" height="37.5813" rx="2" ry="2" style="stroke:#181818;stroke-width:0.4000000000000001;" width="145.6" x="282" y="26.8094"/><text fill="#000000" font-family="sans-serif" font-size="11.2" font-style="italic" lengthAdjust="spacing" textLength="72" x="318.8" y="43.2375">&#171;application&#187;</text><text fill="#000000" font-family="sans-serif" font-size="11.2" lengthAdjust="spacing" textLength="134.4" x="287.6" y="56.4281">ScheduleClassController</text><rect fill="#E2E2F0" height="37.5813" rx="2" ry="2" style="stroke:#181818;stroke-width:0.4000000000000001;" width="145.6" x="282" y="394.0563"/><text fill="#000000" font-family="sans-serif" font-size="11.2" font-style="italic" lengthAdjust="spacing" textLength="72" x="318.8" y="410.4844">&#171;application&#187;</text><text fill="#000000" font-family="sans-serif" font-size="11.2" lengthAdjust="spacing" textLength="134.4" x="287.6" y="423.675">ScheduleClassController</text><rect fill="#E2E2F0" height="37.5813" rx="2" ry="2" style="stroke:#181818;stroke-width:0.4000000000000001;" width="64" x="506.8" y="394.0563"/><text fill="#000000" font-family="sans-serif" font-size="11.2" font-style="italic" lengthAdjust="spacing" textLength="52.8" x="512.4" y="410.4844">&#171;domain&#187;</text><text fill="#000000" font-family="sans-serif" font-size="11.2" lengthAdjust="spacing" textLength="48" x="514.8" y="423.675">SchClass</text><rect fill="#E2E2F0" height="37.5813" rx="2" ry="2" style="stroke:#181818;stroke-width:0.4000000000000001;" width="112" x="578.8" y="26.8094"/><text fill="#000000" font-family="sans-serif" font-size="11.2" font-style="italic" lengthAdjust="spacing" textLength="67.2" x="601.2" y="43.2375">&#171;repository&#187;</text><text fill="#000000" font-family="sans-serif" font-size="11.2" lengthAdjust="spacing" textLength="100.8" x="584.4" y="56.4281">DomainRepository</text><rect fill="#E2E2F0" height="37.5813" rx="2" ry="2" style="stroke:#181818;stroke-width:0.4000000000000001;" width="112" x="578.8" y="394.0563"/><text fill="#000000" font-family="sans-serif" font-size="11.2" font-style="italic" lengthAdjust="spacing" textLength="67.2" x="601.2" y="410.4844">&#171;repository&#187;</text><text fill="#000000" font-family="sans-serif" font-size="11.2" lengthAdjust="spacing" textLength="100.8" x="584.4" y="423.675">DomainRepository</text><text fill="#000000" font-family="sans-serif" font-size="11.2" lengthAdjust="spacing" textLength="50.4" x="698.8" y="62.8281">Database</text><path d="M712,23.2 C712,15.2 726.4,15.2 726.4,15.2 C726.4,15.2 740.8,15.2 740.8,23.2 L740.8,44 C740.8,52 726.4,52 726.4,52 C726.4,52 712,52 712,44 L712,23.2 " fill="#E2E2F0" style="stroke:#181818;stroke-width:1.2000000000000002;"/><path d="M712,23.2 C712,31.2 726.4,31.2 726.4,31.2 C726.4,31.2 740.8,31.2 740.8,23.2 " fill="none" style="stroke:#181818;stroke-width:1.2000000000000002;"/><text fill="#000000" font-family="sans-serif" font-size="11.2" lengthAdjust="spacing" textLength="50.4" x="698.8" y="404.8844">Database</text><path d="M712,415.2469 C712,407.2469 726.4,407.2469 726.4,407.2469 C726.4,407.2469 740.8,407.2469 740.8,415.2469 L740.8,436.0469 C740.8,444.0469 726.4,444.0469 726.4,444.0469 C726.4,444.0469 712,444.0469 712,436.0469 L712,415.2469 " fill="#E2E2F0" style="stroke:#181818;stroke-width:1.2000000000000002;"/><path d="M712,415.2469 C712,423.2469 726.4,423.2469 726.4,423.2469 C726.4,423.2469 740.8,423.2469 740.8,415.2469 " fill="none" style="stroke:#181818;stroke-width:1.2000000000000002;"/><rect fill="#FFFFFF" height="35.6969" style="stroke:#181818;stroke-width:0.8000000000000002;" width="8" x="219.6" y="90.2391"/><rect fill="#FFFFFF" height="231.0719" style="stroke:#181818;stroke-width:0.8000000000000002;" width="8" x="219.6" y="149.3844"/><rect fill="#FFFFFF" height="184.175" style="stroke:#181818;stroke-width:0.8000000000000002;" width="8" x="350.8" y="172.8328"/><rect fill="#FFFFFF" height="59.9813" style="stroke:#181818;stroke-width:0.8000000000000002;" width="8" x="534.8" y="216.5297"/><rect fill="#FFFFFF" height="45.8484" style="stroke:#181818;stroke-width:0.8000000000000002;" width="8" x="630.8" y="299.9594"/><rect fill="#FFFFFF" height="11.2" style="stroke:#181818;stroke-width:0.8000000000000002;" width="8" x="722.4" y="323.4078"/><polygon fill="#181818" points="210,87.0391,218,90.2391,210,93.4391,213.2,90.2391" style="stroke:#181818;stroke-width:0.8000000000000002;"/><line style="stroke:#181818;stroke-width:0.8000000000000002;" x1="28.4" x2="214.8" y1="90.2391" y2="90.2391"/><text fill="#000000" font-family="sans-serif" font-size="10.4" lengthAdjust="spacing" textLength="116.8" x="34" y="86.4453">ask to schedule a class</text><polygon fill="#181818" points="37.2,122.7359,29.2,125.9359,37.2,129.1359,34,125.9359" style="stroke:#181818;stroke-width:0.8000000000000002;"/><line style="stroke:#181818;stroke-width:0.8000000000000002;stroke-dasharray:2.0,2.0;" x1="32.4" x2="222.8" y1="125.9359" y2="125.9359"/><text fill="#000000" font-family="sans-serif" font-size="10.4" lengthAdjust="spacing" textLength="88.8" x="42" y="109.8938">ask for class data</text><text fill="#000000" font-family="sans-serif" font-size="10.4" lengthAdjust="spacing" textLength="172" x="42" y="122.1422">(course, date, startTime, endTime)</text><polygon fill="#181818" points="210,146.1844,218,149.3844,210,152.5844,213.2,149.3844" style="stroke:#181818;stroke-width:0.8000000000000002;"/><line style="stroke:#181818;stroke-width:0.8000000000000002;" x1="28.4" x2="214.8" y1="149.3844" y2="149.3844"/><text fill="#000000" font-family="sans-serif" font-size="10.4" lengthAdjust="spacing" textLength="78.4" x="34" y="145.5906">introduces data</text><polygon fill="#181818" points="341.2,169.6328,349.2,172.8328,341.2,176.0328,344.4,172.8328" style="stroke:#181818;stroke-width:0.8000000000000002;"/><line style="stroke:#181818;stroke-width:0.8000000000000002;" x1="227.6" x2="346" y1="172.8328" y2="172.8328"/><text fill="#000000" font-family="sans-serif" font-size="10.4" lengthAdjust="spacing" textLength="72" x="233.2" y="169.0391">scheduleClass</text><polygon fill="#181818" points="497.2,205.3297,505.2,208.5297,497.2,211.7297,500.4,208.5297" style="stroke:#181818;stroke-width:0.8000000000000002;"/><line style="stroke:#181818;stroke-width:0.8000000000000002;" x1="358.8" x2="502" y1="208.5297" y2="208.5297"/><text fill="#000000" font-family="sans-serif" font-size="10.4" lengthAdjust="spacing" textLength="108" x="364.4" y="192.4875">new SchClass(course,</text><text fill="#000000" font-family="sans-serif" font-size="10.4" lengthAdjust="spacing" textLength="128.8" x="364.4" y="204.7359">date, startTime, endTime)</text><rect fill="#E2E2F0" height="37.5813" rx="2" ry="2" style="stroke:#181818;stroke-width:0.4000000000000001;" width="64" x="506.8" y="179.2328"/><text fill="#000000" font-family="sans-serif" font-size="11.2" font-style="italic" lengthAdjust="spacing" textLength="52.8" x="512.4" y="195.6609">&#171;domain&#187;</text><text fill="#000000" font-family="sans-serif" font-size="11.2" lengthAdjust="spacing" textLength="48" x="514.8" y="208.8516">SchClass</text><line style="stroke:#181818;stroke-width:0.8000000000000002;" x1="542.8" x2="576.4" y1="242.6625" y2="242.6625"/><line style="stroke:#181818;stroke-width:0.8000000000000002;" x1="576.4" x2="576.4" y1="242.6625" y2="253.0625"/><line style="stroke:#181818;stroke-width:0.8000000000000002;" x1="543.6" x2="576.4" y1="253.0625" y2="253.0625"/><polygon fill="#181818" points="551.6,249.8625,543.6,253.0625,551.6,256.2625,548.4,253.0625" style="stroke:#181818;stroke-width:0.8000000000000002;"/><text fill="#000000" font-family="sans-serif" font-size="10.4" lengthAdjust="spacing" textLength="64" x="548.4" y="238.8688">validate data</text><polygon fill="#181818" points="367.6,273.3109,359.6,276.5109,367.6,279.7109,364.4,276.5109" style="stroke:#181818;stroke-width:0.8000000000000002;"/><line style="stroke:#181818;stroke-width:0.8000000000000002;" x1="362.8" x2="538" y1="276.5109" y2="276.5109"/><text fill="#000000" font-family="sans-serif" font-size="10.4" lengthAdjust="spacing" textLength="44.8" x="372.4" y="272.7172">SchClass</text><polygon fill="#181818" points="621.2,296.7594,629.2,299.9594,621.2,303.1594,624.4,299.9594" style="stroke:#181818;stroke-width:0.8000000000000002;"/><line style="stroke:#181818;stroke-width:0.8000000000000002;" x1="358.8" x2="626" y1="299.9594" y2="299.9594"/><text fill="#000000" font-family="sans-serif" font-size="10.4" lengthAdjust="spacing" textLength="22.4" x="364.4" y="296.1656">save</text><polygon fill="#181818" points="712.8,320.2078,720.8,323.4078,712.8,326.6078,716,323.4078" style="stroke:#181818;stroke-width:0.8000000000000002;"/><line style="stroke:#181818;stroke-width:0.8000000000000002;" x1="638.8" x2="717.6" y1="323.4078" y2="323.4078"/><text fill="#000000" font-family="sans-serif" font-size="10.4" lengthAdjust="spacing" textLength="22.4" x="644.4" y="319.6141">save</text><polygon fill="#181818" points="647.6,331.4078,639.6,334.6078,647.6,337.8078,644.4,334.6078" style="stroke:#181818;stroke-width:0.8000000000000002;"/><line style="stroke:#181818;stroke-width:0.8000000000000002;stroke-dasharray:2.0,2.0;" x1="642.8" x2="725.6" y1="334.6078" y2="334.6078"/><polygon fill="#181818" points="367.6,342.6078,359.6,345.8078,367.6,349.0078,364.4,345.8078" style="stroke:#181818;stroke-width:0.8000000000000002;"/><line style="stroke:#181818;stroke-width:0.8000000000000002;" x1="362.8" x2="634" y1="345.8078" y2="345.8078"/><polygon fill="#181818" points="236.4,353.8078,228.4,357.0078,236.4,360.2078,233.2,357.0078" style="stroke:#181818;stroke-width:0.8000000000000002;"/><line style="stroke:#181818;stroke-width:0.8000000000000002;" x1="231.6" x2="354" y1="357.0078" y2="357.0078"/><polygon fill="#181818" points="37.2,377.2563,29.2,380.4563,37.2,383.6563,34,380.4563" style="stroke:#181818;stroke-width:0.8000000000000002;"/><line style="stroke:#181818;stroke-width:0.8000000000000002;" x1="32.4" x2="222.8" y1="380.4563" y2="380.4563"/><text fill="#000000" font-family="sans-serif" font-size="10.4" lengthAdjust="spacing" textLength="133.6" x="42" y="376.6625">informs operation success</text><!--SRC=[bLJ1RiCW3Btp5HmtQVs12aMQiadRjUjklNZ4qz1IG40wxUzdGafJKYBj4e7jzsm_cu0Cnl4zWln2ny7p_VDZ-_AyOnPSK59Pq86_aRCRUcnxyFxzDOQL9Y6iGuywG516DqqTtneTdEdxbAxc4WAixPMiq8tX4pwTXUZC4LGP-pGQTsYDLzJfRyGiR4AuV24ycpJWcsRHvvO8ldamt4yE3bn67mCPr0a2bX1MKco8zfmXqNtI24OIta60WxwJPd0U7-ALlZvGGtjrf2FgBXxkMOVLVAlLgwXmDqXCkVvHTLETrJQBqQueSG4m9XrE_eIeCQUaQS1Rhl4dNxD41rqNQLv8JfJOhfbFqAj8apGfWYezPyxhKIGRMsjfiNya89pmKcuPm69P7-39CntOWYFodgCMV1brZjZSA6FUo6gUsbZd-9ARhKjIRbzjlMVPRYpevLKfJM_gwBcnwCPV2FU3fANtQm_d3m00]--></g></svg>