<?xml version="1.0" encoding="us-ascii" standalone="no"?><svg xmlns="http://www.w3.org/2000/svg" xmlns:xlink="http://www.w3.org/1999/xlink" contentStyleType="text/css" height="456.6px" preserveAspectRatio="none" style="width:741px;height:456px;background:#FFFFFF;" version="1.1" viewBox="0 0 741 456" width="741.6px" zoomAndPan="magnify"><defs/><g><!--cluster User Aggregate--><g id="cluster_User Aggregate"><rect fill="none" height="117.6" rx="1.5" ry="1.5" style="stroke:#000000;stroke-width:0.8999999999999999;" width="299.7" x="101.7" y="144"/><text fill="#000000" font-family="sans-serif" font-size="8.4" font-weight="bold" lengthAdjust="spacing" textLength="66" x="218.55" y="153.3211">User Aggregate</text></g><!--cluster Student Aggregate--><g id="cluster_Student Aggregate"><rect fill="none" height="125.4" rx="1.5" ry="1.5" style="stroke:#000000;stroke-width:0.8999999999999999;" width="217.2" x="4.2" y="4.2"/><text fill="#000000" font-family="sans-serif" font-size="8.4" font-weight="bold" lengthAdjust="spacing" textLength="79.8" x="72.9" y="13.5211">Student Aggregate</text></g><!--cluster Manager Aggregate--><g id="cluster_Manager Aggregate"><rect fill="none" height="54.6" rx="1.5" ry="1.5" style="stroke:#000000;stroke-width:0.8999999999999999;" width="92.4" x="110.4" y="319.2"/><text fill="#000000" font-family="sans-serif" font-size="8.4" font-weight="bold" lengthAdjust="spacing" textLength="83.4" x="114.9" y="328.5211">Manager Aggregate</text></g><!--cluster Course Aggregate--><g id="cluster_Course Aggregate"><rect fill="none" height="151.8" rx="1.5" ry="1.5" style="stroke:#181818;stroke-width:0.6;" width="432.6" x="305.4" y="276"/><text fill="#000000" font-family="sans-serif" font-size="8.4" font-weight="bold" lengthAdjust="spacing" textLength="76.8" x="483.3" y="285.3211">Course Aggregate</text></g><!--class User--><g id="elem_User"><rect codeLine="13" fill="#F1F1F1" height="29.1727" id="User" rx="1.5" ry="1.5" style="stroke:#181818;stroke-width:0.3;" width="39.6" x="136.8" y="223.014"/><rect fill="#444444" height="24.3727" rx="1.5" ry="1.5" style="stroke:#444444;stroke-width:0.3;" width="39.6" x="136.8" y="223.014"/><rect fill="#444444" height="1.5" style="stroke:#444444;stroke-width:0.3;" width="39.6" x="136.8" y="245.8867"/><rect codeLine="13" fill="none" height="29.1727" id="User" rx="1.5" ry="1.5" style="stroke:#181818;stroke-width:0.3;" width="39.6" x="136.8" y="223.014"/><ellipse cx="145.8" cy="235.2003" fill="#ADD1B2" rx="6.6" ry="6.6" style="stroke:#181818;stroke-width:0.6;"/><path d="M148.2686,238.8003 L143.6367,238.8003 L143.6367,231.3645 L148.2686,231.3645 L148.2686,232.6594 L145.106,232.6594 L145.106,234.2631 L147.9697,234.2631 L147.9697,235.558 L145.106,235.558 L145.106,237.5054 L148.2686,237.5054 Z " fill="#000000"/><text fill="#000000" font-family="sans-serif" font-size="7.2" font-style="italic" lengthAdjust="spacing" textLength="22.8" x="153" y="232.9749">&#171;Root&#187;</text><text fill="#FFFFFF" font-family="sans-serif" font-size="8.4" lengthAdjust="spacing" textLength="18.6" x="155.1" y="242.6148">User</text><line style="stroke:#181818;stroke-width:0.3;" x1="137.4" x2="175.8" y1="247.3867" y2="247.3867"/></g><g id="elem_email"><rect fill="#F1F1F1" height="30.3727" style="stroke:#181818;stroke-width:0.3;" width="38.4" x="348.6" y="221.814"/><text fill="#000000" font-family="sans-serif" font-size="7.2" font-style="italic" lengthAdjust="spacing" textLength="32.4" x="351.6" y="228.7749">&#171;Identity&#187;</text><text fill="#000000" font-family="sans-serif" font-size="8.4" lengthAdjust="spacing" textLength="22.2" x="356.7" y="239.6148">email</text><line style="stroke:#181818;stroke-width:0.3;" x1="349.2" x2="386.4" y1="242.5867" y2="242.5867"/></g><g id="elem_personaInformation"><rect fill="#F1F1F1" height="36.8789" style="stroke:#181818;stroke-width:0.3;" width="90.6" x="111.3" y="165.162"/><text fill="#000000" font-family="sans-serif" font-size="8.4" lengthAdjust="spacing" textLength="82.2" x="115.5" y="174.4831">personaInformation</text><line style="stroke:#181818;stroke-width:0.3;" x1="111.9" x2="201.3" y1="177.455" y2="177.455"/><text fill="#000000" font-family="sans-serif" font-size="8.4" lengthAdjust="spacing" textLength="37.8" x="114.9" y="187.9761">birthdate</text><text fill="#000000" font-family="sans-serif" font-size="8.4" lengthAdjust="spacing" textLength="46.2" x="114.9" y="197.869">taxNumber</text></g><g id="elem_password"><rect fill="#F1F1F1" height="21.893" style="stroke:#181818;stroke-width:0.3;" width="48" x="343.8" y="178.656"/><text fill="#000000" font-family="sans-serif" font-size="8.4" lengthAdjust="spacing" textLength="39.6" x="348" y="187.9771">password</text><line style="stroke:#181818;stroke-width:0.3;" x1="344.4" x2="391.2" y1="190.949" y2="190.949"/></g><!--class designationStudent--><g id="elem_designationStudent"><rect codeLine="31" fill="#F1F1F1" height="43.7859" id="designationStudent" rx="1.5" ry="1.5" style="stroke:#181818;stroke-width:0.3;" width="46.8" x="133.2" y="24.912"/><rect fill="#444444" height="19.2" rx="1.5" ry="1.5" style="stroke:#444444;stroke-width:0.3;" width="46.8" x="133.2" y="24.912"/><rect fill="#444444" height="1.5" style="stroke:#444444;stroke-width:0.3;" width="46.8" x="133.2" y="42.612"/><rect codeLine="31" fill="none" height="43.7859" id="designationStudent" rx="1.5" ry="1.5" style="stroke:#181818;stroke-width:0.3;" width="46.8" x="133.2" y="24.912"/><ellipse cx="144.36" cy="34.512" fill="#ADD1B2" rx="6.6" ry="6.6" style="stroke:#181818;stroke-width:0.6;"/><path d="M146.8286,38.112 L142.1967,38.112 L142.1967,30.6762 L146.8286,30.6762 L146.8286,31.9711 L143.666,31.9711 L143.666,33.5748 L146.5297,33.5748 L146.5297,34.8697 L143.666,34.8697 L143.666,36.8171 L146.8286,36.8171 Z " fill="#000000"/><text fill="#FFFFFF" font-family="sans-serif" font-size="8.4" lengthAdjust="spacing" textLength="22.8" x="153.24" y="37.6866">name</text><line style="stroke:#181818;stroke-width:0.3;" x1="133.8" x2="179.4" y1="44.112" y2="44.112"/><text fill="#000000" font-family="sans-serif" font-size="8.4" lengthAdjust="spacing" textLength="39.6" x="136.8" y="54.6331">firstName</text><text fill="#000000" font-family="sans-serif" font-size="8.4" lengthAdjust="spacing" textLength="37.8" x="136.8" y="64.5261">lastName</text></g><!--class Student--><g id="elem_Student"><rect codeLine="36" fill="#F1F1F1" height="24" id="Student" rx="1.5" ry="1.5" style="stroke:#181818;stroke-width:0.3;" width="51" x="13.8" y="96"/><rect fill="#444444" height="19.2" rx="1.5" ry="1.5" style="stroke:#444444;stroke-width:0.3;" width="51" x="13.8" y="96"/><rect fill="#444444" height="1.5" style="stroke:#444444;stroke-width:0.3;" width="51" x="13.8" y="113.7"/><rect codeLine="36" fill="none" height="24" id="Student" rx="1.5" ry="1.5" style="stroke:#181818;stroke-width:0.3;" width="51" x="13.8" y="96"/><ellipse cx="22.8" cy="105.6" fill="#ADD1B2" rx="6.6" ry="6.6" style="stroke:#181818;stroke-width:0.6;"/><path d="M25.2686,109.2 L20.6367,109.2 L20.6367,101.7642 L25.2686,101.7642 L25.2686,103.0591 L22.106,103.0591 L22.106,104.6628 L24.9697,104.6628 L24.9697,105.9577 L22.106,105.9577 L22.106,107.9051 L25.2686,107.9051 Z " fill="#000000"/><text fill="#FFFFFF" font-family="sans-serif" font-size="8.4" lengthAdjust="spacing" textLength="31.8" x="31.2" y="108.7746">Student</text><line style="stroke:#181818;stroke-width:0.3;" x1="14.4" x2="64.2" y1="115.2" y2="115.2"/></g><g id="elem_mechanographicNumber"><rect fill="#F1F1F1" height="30.3727" style="stroke:#181818;stroke-width:0.3;" width="110.4" x="101.4" y="89.814"/><text fill="#000000" font-family="sans-serif" font-size="7.2" font-style="italic" lengthAdjust="spacing" textLength="32.4" x="140.4" y="96.7749">&#171;Identity&#187;</text><text fill="#000000" font-family="sans-serif" font-size="8.4" lengthAdjust="spacing" textLength="102" x="105.6" y="107.6148">mechanographicNumber</text><line style="stroke:#181818;stroke-width:0.3;" x1="102" x2="211.2" y1="110.5867" y2="110.5867"/></g><!--class Manager--><g id="elem_Manager"><rect codeLine="44" fill="#F1F1F1" height="24" id="Manager" rx="1.5" ry="1.5" style="stroke:#181818;stroke-width:0.3;" width="55.2" x="129" y="340.2"/><rect fill="#444444" height="19.2" rx="1.5" ry="1.5" style="stroke:#444444;stroke-width:0.3;" width="55.2" x="129" y="340.2"/><rect fill="#444444" height="1.5" style="stroke:#444444;stroke-width:0.3;" width="55.2" x="129" y="357.9"/><rect codeLine="44" fill="none" height="24" id="Manager" rx="1.5" ry="1.5" style="stroke:#181818;stroke-width:0.3;" width="55.2" x="129" y="340.2"/><ellipse cx="138" cy="349.8" fill="#ADD1B2" rx="6.6" ry="6.6" style="stroke:#181818;stroke-width:0.6;"/><path d="M140.4686,353.4 L135.8367,353.4 L135.8367,345.9642 L140.4686,345.9642 L140.4686,347.2591 L137.306,347.2591 L137.306,348.8628 L140.1697,348.8628 L140.1697,350.1577 L137.306,350.1577 L137.306,352.1051 L140.4686,352.1051 Z " fill="#000000"/><text fill="#FFFFFF" font-family="sans-serif" font-size="8.4" lengthAdjust="spacing" textLength="36" x="146.4" y="352.9746">Manager</text><line style="stroke:#181818;stroke-width:0.3;" x1="129.6" x2="183.6" y1="359.4" y2="359.4"/></g><!--class Course--><g id="elem_Course"><rect codeLine="51" fill="#F1F1F1" height="48.9586" id="Course" rx="1.5" ry="1.5" style="stroke:#181818;stroke-width:0.3;" width="49.2" x="529.2" y="348.126"/><rect fill="#444444" height="24.3727" rx="1.5" ry="1.5" style="stroke:#444444;stroke-width:0.3;" width="49.2" x="529.2" y="348.126"/><rect fill="#444444" height="1.5" style="stroke:#444444;stroke-width:0.3;" width="49.2" x="529.2" y="370.9987"/><rect codeLine="51" fill="none" height="48.9586" id="Course" rx="1.5" ry="1.5" style="stroke:#181818;stroke-width:0.3;" width="49.2" x="529.2" y="348.126"/><ellipse cx="538.47" cy="360.3123" fill="#ADD1B2" rx="6.6" ry="6.6" style="stroke:#181818;stroke-width:0.6;"/><path d="M540.9386,363.9123 L536.3067,363.9123 L536.3067,356.4765 L540.9386,356.4765 L540.9386,357.7714 L537.776,357.7714 L537.776,359.3751 L540.6397,359.3751 L540.6397,360.67 L537.776,360.67 L537.776,362.6174 L540.9386,362.6174 Z " fill="#000000"/><text fill="#000000" font-family="sans-serif" font-size="7.2" font-style="italic" lengthAdjust="spacing" textLength="22.8" x="550.23" y="358.0869">&#171;Root&#187;</text><text fill="#FFFFFF" font-family="sans-serif" font-size="8.4" lengthAdjust="spacing" textLength="29.4" x="546.93" y="367.7268">Course</text><line style="stroke:#181818;stroke-width:0.3;" x1="529.8" x2="577.8" y1="372.4987" y2="372.4987"/><text fill="#000000" font-family="sans-serif" font-size="8.4" lengthAdjust="spacing" textLength="42" x="532.8" y="383.0197">maxEnroll</text><text fill="#000000" font-family="sans-serif" font-size="8.4" lengthAdjust="spacing" textLength="39.6" x="532.8" y="392.9127">minEnroll</text></g><g id="elem_CourseID"><rect fill="#F1F1F1" height="30.3727" style="stroke:#181818;stroke-width:0.3;" width="46.2" x="677.7" y="388.014"/><text fill="#000000" font-family="sans-serif" font-size="7.2" font-style="italic" lengthAdjust="spacing" textLength="32.4" x="684.6" y="394.9749">&#171;Identity&#187;</text><text fill="#000000" font-family="sans-serif" font-size="8.4" lengthAdjust="spacing" textLength="37.8" x="681.9" y="405.8148">CourseID</text><line style="stroke:#181818;stroke-width:0.3;" x1="678.3" x2="723.3" y1="408.7867" y2="408.7867"/></g><g id="elem_Name"><rect fill="#F1F1F1" height="21.893" style="stroke:#181818;stroke-width:0.3;" width="31.8" x="684.9" y="344.856"/><text fill="#000000" font-family="sans-serif" font-size="8.4" lengthAdjust="spacing" textLength="23.4" x="689.1" y="354.1771">Name</text><line style="stroke:#181818;stroke-width:0.3;" x1="685.5" x2="716.1" y1="357.149" y2="357.149"/></g><g id="elem_CourseState"><rect fill="#F1F1F1" height="30.3727" style="stroke:#181818;stroke-width:0.3;" width="58.2" x="524.7" y="296.814"/><text fill="#000000" font-family="sans-serif" font-size="7.2" font-style="italic" lengthAdjust="spacing" textLength="26.4" x="540.6" y="303.7749">&#171;Enum&#187;</text><text fill="#000000" font-family="sans-serif" font-size="8.4" lengthAdjust="spacing" textLength="49.8" x="528.9" y="314.6148">CourseState</text><line style="stroke:#181818;stroke-width:0.3;" x1="525.3" x2="582.3" y1="317.5867" y2="317.5867"/></g><g id="elem_StudentEnrollmentState"><rect fill="#F1F1F1" height="30.3727" style="stroke:#181818;stroke-width:0.3;" width="105.6" x="315" y="340.014"/><text fill="#000000" font-family="sans-serif" font-size="7.2" font-style="italic" lengthAdjust="spacing" textLength="26.4" x="354.6" y="346.9749">&#171;enum&#187;</text><text fill="#000000" font-family="sans-serif" font-size="8.4" lengthAdjust="spacing" textLength="97.2" x="319.2" y="357.8148">StudentEnrollmentState</text><line style="stroke:#181818;stroke-width:0.3;" x1="315.6" x2="420" y1="360.7867" y2="360.7867"/></g><g id="elem_Description"><rect fill="#F1F1F1" height="21.893" style="stroke:#181818;stroke-width:0.3;" width="55.2" x="673.2" y="302.256"/><text fill="#000000" font-family="sans-serif" font-size="8.4" lengthAdjust="spacing" textLength="46.8" x="677.4" y="311.5771">Description</text><line style="stroke:#181818;stroke-width:0.3;" x1="673.8" x2="727.8" y1="314.549" y2="314.549"/></g><g id="elem_EnrolledStudents"><rect fill="#F1F1F1" height="21.893" style="stroke:#181818;stroke-width:0.3;" width="78.6" x="328.5" y="296.856"/><text fill="#000000" font-family="sans-serif" font-size="8.4" lengthAdjust="spacing" textLength="70.2" x="332.7" y="306.1771">EnrolledStudents</text><line style="stroke:#181818;stroke-width:0.3;" x1="329.1" x2="406.5" y1="309.149" y2="309.149"/></g><g id="elem_AssignedTeachers"><rect fill="#F1F1F1" height="26.9859" style="stroke:#181818;stroke-width:0.3;" width="83.4" x="326.1" y="391.512"/><text fill="#000000" font-family="sans-serif" font-size="8.4" lengthAdjust="spacing" textLength="75" x="330.3" y="400.8331">AssignedTeachers</text><line style="stroke:#181818;stroke-width:0.3;" x1="326.7" x2="408.9" y1="403.805" y2="403.805"/><text fill="#000000" font-family="sans-serif" font-size="8.4" lengthAdjust="spacing" textLength="44.4" x="329.7" y="414.3261">isInCharge</text></g><g id="elem_GMN39"><path d="M471,437.61 L471,452.7963 L636.6,452.7963 L636.6,443.61 L630.6,437.61 L471,437.61 " fill="#FEFFDD" style="stroke:#181818;stroke-width:0.3;"/><path d="M630.6,437.61 L630.6,443.61 L636.6,443.61 L630.6,437.61 " fill="#FEFFDD" style="stroke:#181818;stroke-width:0.6;"/><text fill="#000000" font-family="sans-serif" font-size="7.8" lengthAdjust="spacing" textLength="153" x="474.6" y="448.151">only one teacher is in charge of a course</text></g><!--link Student to User--><g id="link_Student_User"><path codeLine="87" d="M43.572,120.15 C50.616,141.534 67.926,186.102 96.9,212.4 C107.166,221.724 121.398,227.934 133.326,231.858 " fill="none" id="Student-to-User" style="stroke:#181818;stroke-width:0.6;"/><polygon fill="#181818" points="136.02,232.902,131.599,228.981,133.1605,231.9945,130.147,233.5561,136.02,232.902" style="stroke:#181818;stroke-width:0.6;"/><text fill="#000000" font-family="sans-serif" font-size="7.8" lengthAdjust="spacing" textLength="4.8" x="45.4485" y="132.4">1</text><text fill="#000000" font-family="sans-serif" font-size="7.8" lengthAdjust="spacing" textLength="4.8" x="127.2041" y="240.4213">1</text></g><!--reverse link User to Manager--><g id="link_User_Manager"><path codeLine="88" d="M133.29,243.336 C115.2,249.18 91.476,260.256 80.85,279.9 C66.666,306.126 101.742,328.422 128.79,341.064 " fill="none" id="User-backto-Manager" style="stroke:#181818;stroke-width:0.6;"/><polygon fill="#181818" points="135.996,242.304,130.1266,241.6179,133.1316,243.1959,131.5537,246.2009,135.996,242.304" style="stroke:#181818;stroke-width:0.6;"/><text fill="#000000" font-family="sans-serif" font-size="7.8" lengthAdjust="spacing" textLength="4.8" x="127.1752" y="251.7625">1</text><text fill="#000000" font-family="sans-serif" font-size="7.8" lengthAdjust="spacing" textLength="4.8" x="119.3641" y="347.6031">1</text></g><!--link User to password--><g id="link_User_password"><path codeLine="89" d="M176.58,233.172 C214.236,224.568 297.342,205.572 340.308,195.75 " fill="none" id="User-to-password" style="stroke:#181818;stroke-width:0.6;"/><polygon fill="#181818" points="342.984,195,337.1848,193.8645,340.0595,195.6689,338.2551,198.5437,342.984,195" style="stroke:#181818;stroke-width:0.6;"/><text fill="#000000" font-family="sans-serif" font-size="7.8" lengthAdjust="spacing" textLength="4.8" x="181.1959" y="229.8908">1</text><text fill="#000000" font-family="sans-serif" font-size="7.8" lengthAdjust="spacing" textLength="4.8" x="334.2094" y="204.2582">1</text></g><!--link Student to mechanographicNumber--><g id="link_Student_mechanographicNumber"><path codeLine="90" d="M65.094,107.352 C74.76,107.1 86.244,106.806 97.74,106.506 " fill="none" id="Student-to-mechanographicNumber" style="stroke:#181818;stroke-width:0.6;"/><polygon fill="#181818" points="100.71,106.416,95.2501,104.1556,97.711,106.4931,95.3735,108.954,100.71,106.416" style="stroke:#181818;stroke-width:0.6;"/><text fill="#000000" font-family="sans-serif" font-size="7.8" lengthAdjust="spacing" textLength="4.8" x="69.5874" y="115.5218">1</text><text fill="#000000" font-family="sans-serif" font-size="7.8" lengthAdjust="spacing" textLength="4.8" x="91.7325" y="114.4546">1</text></g><!--link User to email--><g id="link_User_email"><path codeLine="91" d="M176.58,237.546 C215.64,237.438 303.612,237.186 344.946,237.066 " fill="none" id="User-to-email" style="stroke:#181818;stroke-width:0.6;"/><polygon fill="#181818" points="347.724,237.054,342.3172,234.6694,344.724,237.0626,342.3309,239.4694,347.724,237.054" style="stroke:#181818;stroke-width:0.6;"/><text fill="#000000" font-family="sans-serif" font-size="7.8" lengthAdjust="spacing" textLength="4.8" x="181.1959" y="246.0232">1</text><text fill="#000000" font-family="sans-serif" font-size="7.8" lengthAdjust="spacing" textLength="4.8" x="339.0121" y="245.5534">1</text></g><!--link Student to designationStudent--><g id="link_Student_designationStudent"><path codeLine="93" d="M63.114,95.766 C82.398,85.602 109.824,71.148 129.87,60.576 " fill="none" id="Student-to-designationStudent" style="stroke:#181818;stroke-width:0.6;"/><polygon fill="#181818" points="132.42,58.914,126.5235,59.3029,129.7647,60.3102,128.7574,63.5514,132.42,58.914" style="stroke:#181818;stroke-width:0.6;"/><text fill="#000000" font-family="sans-serif" font-size="7.8" lengthAdjust="spacing" textLength="4.8" x="64.3367" y="89.6268">1</text><text fill="#000000" font-family="sans-serif" font-size="7.8" lengthAdjust="spacing" textLength="4.8" x="123.5923" y="69.4301">1</text></g><!--link Student to personaInformation--><g id="link_Student_personaInformation"><path codeLine="94" d="M58.554,120.15 C76.344,131.736 103.482,149.406 124.602,163.158 " fill="none" id="Student-to-personaInformation" style="stroke:#181818;stroke-width:0.6;"/><polygon fill="#181818" points="126.81,164.988,123.5892,160.0336,124.2943,163.3536,120.9742,164.0587,126.81,164.988" style="stroke:#181818;stroke-width:0.6;"/><text fill="#000000" font-family="sans-serif" font-size="7.8" lengthAdjust="spacing" textLength="4.8" x="58.4942" y="132.4">1</text><text fill="#000000" font-family="sans-serif" font-size="7.8" lengthAdjust="spacing" textLength="4.8" x="116.0946" y="158.7811">1</text></g><!--link Manager to StudentEnrollmentState--><g id="link_Manager_StudentEnrollmentState"><path codeLine="98" d="M184.44,352.59 C216.444,353.052 270.378,353.82 311.382,354.408 " fill="none" id="Manager-to-StudentEnrollmentState" style="stroke:#181818;stroke-width:0.6;"/><polygon fill="#181818" points="314.214,354.456,308.8488,351.9791,311.2143,354.4131,308.7803,356.7786,314.214,354.456" style="stroke:#181818;stroke-width:0.6;"/><text fill="#000000" font-family="sans-serif" font-size="7.8" lengthAdjust="spacing" textLength="63.6" x="231.6" y="351.341">approves/rejects</text><text fill="#000000" font-family="sans-serif" font-size="7.8" lengthAdjust="spacing" textLength="4.8" x="189.0705" y="360.8941">1</text><text fill="#000000" font-family="sans-serif" font-size="7.8" lengthAdjust="spacing" textLength="3.6" x="306.677" y="362.3157">*</text></g><!--reverse link AssignedTeachers to Course--><g id="link_AssignedTeachers_Course"><path codeLine="99" d="M413.13,397.158 C449.598,390.768 499.71,381.978 529.056,376.836 " fill="none" id="AssignedTeachers-backto-Course" style="stroke:#181818;stroke-width:0.6;"/><polygon fill="#181818" points="410.244,397.77,415.9801,399.1903,413.1979,397.2462,415.142,394.464,410.244,397.77" style="stroke:#181818;stroke-width:0.6;"/><text fill="#000000" font-family="sans-serif" font-size="7.8" lengthAdjust="spacing" textLength="13.2" x="439.2" y="389.141">has</text><text fill="#000000" font-family="sans-serif" font-size="7.8" lengthAdjust="spacing" textLength="3.6" x="414.4176" y="405.0221">*</text><text fill="#000000" font-family="sans-serif" font-size="7.8" lengthAdjust="spacing" textLength="4.8" x="519.5906" y="385.8936">1</text></g><!--reverse link EnrolledStudents to Course--><g id="link_EnrolledStudents_Course"><path codeLine="100" d="M403.65,320.166 C440.388,333.042 496.968,352.884 528.972,364.104 " fill="none" id="EnrolledStudents-backto-Course" style="stroke:#181818;stroke-width:0.6;"/><polygon fill="#181818" points="400.98,319.014,405.2785,323.069,403.8102,320.0089,406.8703,318.5406,400.98,319.014" style="stroke:#181818;stroke-width:0.6;"/><text fill="#000000" font-family="sans-serif" font-size="7.8" lengthAdjust="spacing" textLength="13.2" x="439.2" y="330.941">has</text><text fill="#000000" font-family="sans-serif" font-size="7.8" lengthAdjust="spacing" textLength="3.6" x="405.4369" y="331.0001">*</text><text fill="#000000" font-family="sans-serif" font-size="7.8" lengthAdjust="spacing" textLength="4.8" x="519.6624" y="370.9977">1</text></g><!--link Course to CourseState--><g id="link_Course_CourseState"><path codeLine="101" d="M553.8,347.982 C553.8,342.318 553.8,336.654 553.8,330.99 " fill="none" id="Course-to-CourseState" style="stroke:#181818;stroke-width:0.6;"/><polygon fill="#181818" points="553.8,328.062,551.4,333.462,553.8,331.062,556.2,333.462,553.8,328.062" style="stroke:#181818;stroke-width:0.6;"/><text fill="#000000" font-family="sans-serif" font-size="7.8" lengthAdjust="spacing" textLength="4.8" x="548.6025" y="341.7149">1</text><text fill="#000000" font-family="sans-serif" font-size="7.8" lengthAdjust="spacing" textLength="4.8" x="548.445" y="339.6407">1</text></g><!--link Course to CourseID--><g id="link_Course_CourseID"><path codeLine="102" d="M578.64,377.688 C605.04,383.232 647.118,392.064 674.19,397.746 " fill="none" id="Course-to-CourseID" style="stroke:#181818;stroke-width:0.6;"/><polygon fill="#181818" points="676.98,398.454,672.1882,394.9958,674.044,397.8377,671.2021,399.6935,676.98,398.454" style="stroke:#181818;stroke-width:0.6;"/><text fill="#000000" font-family="sans-serif" font-size="7.8" lengthAdjust="spacing" textLength="4.8" x="583.1516" y="386.8316">1</text><text fill="#000000" font-family="sans-serif" font-size="7.8" lengthAdjust="spacing" textLength="4.8" x="668.0563" y="405.9668">1</text></g><!--link Course to Name--><g id="link_Course_Name"><path codeLine="103" d="M578.64,369.81 C607.41,366.492 654.786,361.038 681.09,358.002 " fill="none" id="Course-to-Name" style="stroke:#181818;stroke-width:0.6;"/><polygon fill="#181818" points="684.06,357.594,678.4213,355.8263,681.0796,357.9366,678.9694,360.5949,684.06,357.594" style="stroke:#181818;stroke-width:0.6;"/><text fill="#000000" font-family="sans-serif" font-size="7.8" lengthAdjust="spacing" textLength="4.8" x="583.1516" y="367.1582">1</text><text fill="#000000" font-family="sans-serif" font-size="7.8" lengthAdjust="spacing" textLength="4.8" x="675.3409" y="366.6913">1</text></g><!--link Course to Description--><g id="link_Course_Description"><path codeLine="104" d="M578.64,362.73 C603.618,352.554 642.618,336.66 669.684,325.638 " fill="none" id="Course-to-Description" style="stroke:#181818;stroke-width:0.6;"/><polygon fill="#181818" points="672.324,324.318,666.4176,324.1328,669.5457,325.4499,668.2286,328.578,672.324,324.318" style="stroke:#181818;stroke-width:0.6;"/><text fill="#000000" font-family="sans-serif" font-size="7.8" lengthAdjust="spacing" textLength="4.8" x="583.1516" y="358.9055">1</text><text fill="#000000" font-family="sans-serif" font-size="7.8" lengthAdjust="spacing" textLength="4.8" x="663.6772" y="334.1662">1</text></g><!--link Student to EnrolledStudents--><g id="link_Student_EnrolledStudents"><path codeLine="105" d="M40.092,120.27 C41.292,151.224 49.068,232.788 96.9,271.8 C162.006,324.9 266.742,321.684 324.876,314.712 " fill="none" id="Student-to-EnrolledStudents" style="stroke:#181818;stroke-width:0.6;"/><polygon fill="#181818" points="327.69,314.286,322.0407,312.5523,324.7117,314.6465,322.6175,317.3175,327.69,314.286" style="stroke:#181818;stroke-width:0.6;"/><text fill="#000000" font-family="sans-serif" font-size="7.8" lengthAdjust="spacing" textLength="32.4" x="140.4" y="269.741">requests</text><text fill="#000000" font-family="sans-serif" font-size="7.8" lengthAdjust="spacing" textLength="4.8" x="34.8598" y="132.343">1</text><text fill="#000000" font-family="sans-serif" font-size="7.8" lengthAdjust="spacing" textLength="4.8" x="318.9061" y="323.0385">1</text></g><!--link EnrolledStudents to StudentEnrollmentState--><g id="link_EnrolledStudents_StudentEnrollmentState"><path codeLine="106" d="M367.8,318.816 C367.8,324.672 367.8,330.528 367.8,336.384 " fill="none" id="EnrolledStudents-to-StudentEnrollmentState" style="stroke:#181818;stroke-width:0.6;"/><polygon fill="#181818" points="367.8,339.234,370.2,333.834,367.8,336.234,365.4,333.834,367.8,339.234" style="stroke:#181818;stroke-width:0.6;"/><text fill="#000000" font-family="sans-serif" font-size="7.8" lengthAdjust="spacing" textLength="4.8" x="362.265" y="331.1366">1</text><text fill="#000000" font-family="sans-serif" font-size="7.8" lengthAdjust="spacing" textLength="4.8" x="362.415" y="333.5553">1</text></g><!--link AssignedTeachers to GMN39--><g id="link_AssignedTeachers_GMN39"><path d="M409.566,414.252 C428.298,418.434 450.762,423.414 471,427.8 C485.538,430.956 501.546,434.358 515.538,437.316 " fill="none" id="AssignedTeachers-GMN39" style="stroke:#181818;stroke-width:0.6;stroke-dasharray:7.0,7.0;"/></g><!--SRC=[dLNRZjCm47ttLrZb0GafAaWyLLMbqYsY3omIXGzmasbYDh73s84jLVyTNzDSzs4Z9OuzPsREt9A2Pq0hq8NC52dXhAcM57bUQ9fnX5HpAOXwug9co2gQbaofhTR8Jus6Goh5aVy3-du8-Io5tibI8cMDbXNJF1r2lW3B03-nz2b7sOZCmzzyxE1g8sGv7FMb16h9C96NG0XvkrmcoUYcFnKWdPAucv1WZouSS9ld23dJiBWIGisr5vhhYxUoNd-NKcyszEf4Du_uTlfbM52e62yDv921Kvc1rO1A2dOGPuas1L84cBrE77MH6U_jYMRFZqrr0fmoPHBsLsBMkhbreZdgnXAP3IW3nNFX24GeKtGXM6MH5dZcgFIZsRkTgSvzS-kPYlfJuLQG5ap875bTyDI7qajILEfo_yg4MVl5wFYBuexgJErtia45BrI_THcGTu-ssB6vN2b9y1wGiHU8Pr6nvxr0MPP-nqNO6MuX4rxly328_WwmsQNNaSPH6pf62KHJEIAtA0zvzvugypO1ZTW7K2doElIREOy2hmrPCAPwMbjbcmIo7y3ImZIkZvMhWzWL37EO9RkF38XlorVEflNcC8iFfY19cRYNG7KeHIyDtT6N9id6hN5ad3JsRHSmrQyzKmPeSMxQoQoPyNJDGiSVXDUtitCInwDrycunroehokeQvHzGImHRHkKi3ClkJAmJdzz0OaKBfi9K3ZheHNGui9b4dyfEvmmGROxYx0mjU0FjPwadiKkdwuVv3uWH-PNvf_nkGEdfu1mhzBhJIVL54DAar_yovNcSq1MLehoO1r3jpynKKIvewkRAwZ2Qkd3-0m00]--></g></svg>