<?xml version="1.0" encoding="us-ascii" standalone="no"?><svg xmlns="http://www.w3.org/2000/svg" xmlns:xlink="http://www.w3.org/1999/xlink" contentStyleType="text/css" height="1065px" preserveAspectRatio="none" style="width:1937px;height:1065px;background:#FFFFFF;" version="1.1" viewBox="0 0 1937 1065" width="1937px" zoomAndPan="magnify"><defs/><g><rect fill="#FFFFFF" height="76.582" style="stroke:#181818;stroke-width:1.0;" width="10" x="260" y="116.9121"/><rect fill="#FFFFFF" height="197.1641" style="stroke:#181818;stroke-width:1.0;" width="10" x="260" y="224.7852"/><rect fill="#FFFFFF" height="520.5215" style="stroke:#181818;stroke-width:1.0;" width="10" x="260" y="453.2402"/><rect fill="#FFFFFF" height="106.582" style="stroke:#181818;stroke-width:1.0;" width="10" x="433.5" y="148.2031"/><rect fill="#FFFFFF" height="104.582" style="stroke:#181818;stroke-width:1.0;" width="10" x="632" y="286.0762"/><rect fill="#FFFFFF" height="418.9395" style="stroke:#181818;stroke-width:1.0;" width="10" x="632" y="514.5313"/><rect fill="#FFFFFF" height="59.291" style="stroke:#181818;stroke-width:1.0;" width="10" x="849" y="317.3672"/><rect fill="#FFFFFF" height="14" style="stroke:#181818;stroke-width:1.0;" width="10" x="1065" y="348.6582"/><rect fill="#FFFFFF" height="273.0664" style="stroke:#181818;stroke-width:1.0;" width="10" x="1222.5" y="555.8223"/><rect fill="#FFFFFF" height="14" style="stroke:#181818;stroke-width:1.0;" width="10" x="1336" y="608.0645"/><rect fill="#FFFFFF" height="85.291" style="stroke:#181818;stroke-width:1.0;" width="10" x="1432" y="653.3555"/><rect fill="#FFFFFF" height="25" style="stroke:#181818;stroke-width:1.0;" width="10" x="1437" y="692.6465"/><rect fill="#FFFFFF" height="34.9512" style="stroke:#181818;stroke-width:1.0;" width="10" x="1567.5" y="779.9375"/><rect fill="#FFFFFF" height="59.291" style="stroke:#181818;stroke-width:1.0;" width="10" x="1754.5" y="860.1797"/><rect fill="#FFFFFF" height="14" style="stroke:#181818;stroke-width:1.0;" width="10" x="1897.5" y="891.4707"/><line style="stroke:#181818;stroke-width:0.5;stroke-dasharray:5.0,5.0;" x1="36" x2="36" y1="83.6211" y2="982.7617"/><line style="stroke:#181818;stroke-width:0.5;stroke-dasharray:5.0,5.0;" x1="265" x2="265" y1="83.6211" y2="982.7617"/><line style="stroke:#181818;stroke-width:0.5;stroke-dasharray:5.0,5.0;" x1="438" x2="438" y1="83.6211" y2="982.7617"/><line style="stroke:#181818;stroke-width:0.5;stroke-dasharray:5.0,5.0;" x1="637" x2="637" y1="83.6211" y2="982.7617"/><line style="stroke:#181818;stroke-width:0.5;stroke-dasharray:5.0,5.0;" x1="853.5" x2="853.5" y1="83.6211" y2="982.7617"/><line style="stroke:#181818;stroke-width:0.5;stroke-dasharray:5.0,5.0;" x1="1070" x2="1070" y1="83.6211" y2="982.7617"/><line style="stroke:#181818;stroke-width:0.5;stroke-dasharray:5.0,5.0;" x1="1227" x2="1227" y1="563.6523" y2="982.7617"/><line style="stroke:#181818;stroke-width:0.5;stroke-dasharray:5.0,5.0;" x1="1341" x2="1341" y1="83.6211" y2="982.7617"/><line style="stroke:#181818;stroke-width:0.5;stroke-dasharray:5.0,5.0;" x1="1437" x2="1437" y1="83.6211" y2="982.7617"/><line style="stroke:#181818;stroke-width:0.5;stroke-dasharray:5.0,5.0;" x1="1572" x2="1572" y1="787.7676" y2="982.7617"/><line style="stroke:#181818;stroke-width:0.5;stroke-dasharray:5.0,5.0;" x1="1759" x2="1759" y1="83.6211" y2="982.7617"/><line style="stroke:#181818;stroke-width:0.5;stroke-dasharray:5.0,5.0;" x1="1902" x2="1902" y1="83.6211" y2="982.7617"/><text fill="#000000" font-family="sans-serif" font-size="14" lengthAdjust="spacing" textLength="56" x="5" y="80.1074">Manager</text><ellipse cx="36" cy="13.5" fill="#E2E2F0" rx="8" ry="8" style="stroke:#181818;stroke-width:0.5;"/><path d="M36,21.5 L36,48.5 M23,29.5 L49,29.5 M36,48.5 L23,63.5 M36,48.5 L49,63.5 " fill="none" style="stroke:#181818;stroke-width:0.5;"/><text fill="#000000" font-family="sans-serif" font-size="14" lengthAdjust="spacing" textLength="56" x="5" y="996.8691">Manager</text><ellipse cx="36" cy="1008.8828" fill="#E2E2F0" rx="8" ry="8" style="stroke:#181818;stroke-width:0.5;"/><path d="M36,1016.8828 L36,1043.8828 M23,1024.8828 L49,1024.8828 M36,1043.8828 L23,1058.8828 M36,1043.8828 L49,1058.8828 " fill="none" style="stroke:#181818;stroke-width:0.5;"/><rect fill="#E2E2F0" height="51.2422" rx="2.5" ry="2.5" style="stroke:#181818;stroke-width:0.5;" width="184" x="173" y="31.3789"/><text fill="#000000" font-family="sans-serif" font-size="14" font-style="italic" lengthAdjust="spacing" textLength="95" x="217.5" y="53.4863">&#171;presentation&#187;</text><text fill="#000000" font-family="sans-serif" font-size="14" lengthAdjust="spacing" textLength="170" x="180" y="72.1074">AssignTeacherToCourseUI</text><rect fill="#E2E2F0" height="51.2422" rx="2.5" ry="2.5" style="stroke:#181818;stroke-width:0.5;" width="184" x="173" y="981.7617"/><text fill="#000000" font-family="sans-serif" font-size="14" font-style="italic" lengthAdjust="spacing" textLength="95" x="217.5" y="1003.8691">&#171;presentation&#187;</text><text fill="#000000" font-family="sans-serif" font-size="14" lengthAdjust="spacing" textLength="170" x="180" y="1022.4902">AssignTeacherToCourseUI</text><rect fill="#E2E2F0" height="51.2422" rx="2.5" ry="2.5" style="stroke:#181818;stroke-width:0.5;" width="143" x="367" y="31.3789"/><text fill="#000000" font-family="sans-serif" font-size="14" font-style="italic" lengthAdjust="spacing" textLength="95" x="391" y="53.4863">&#171;presentation&#187;</text><text fill="#000000" font-family="sans-serif" font-size="14" lengthAdjust="spacing" textLength="129" x="374" y="72.1074">SelectCourseWidget</text><rect fill="#E2E2F0" height="51.2422" rx="2.5" ry="2.5" style="stroke:#181818;stroke-width:0.5;" width="143" x="367" y="981.7617"/><text fill="#000000" font-family="sans-serif" font-size="14" font-style="italic" lengthAdjust="spacing" textLength="95" x="391" y="1003.8691">&#171;presentation&#187;</text><text fill="#000000" font-family="sans-serif" font-size="14" lengthAdjust="spacing" textLength="129" x="374" y="1022.4902">SelectCourseWidget</text><rect fill="#E2E2F0" height="51.2422" rx="2.5" ry="2.5" style="stroke:#181818;stroke-width:0.5;" width="234" x="520" y="31.3789"/><text fill="#000000" font-family="sans-serif" font-size="14" font-style="italic" lengthAdjust="spacing" textLength="75" x="599.5" y="53.4863">&#171;controller&#187;</text><text fill="#000000" font-family="sans-serif" font-size="14" lengthAdjust="spacing" textLength="220" x="527" y="72.1074">AssignTeacherToCourseController</text><rect fill="#E2E2F0" height="51.2422" rx="2.5" ry="2.5" style="stroke:#181818;stroke-width:0.5;" width="234" x="520" y="981.7617"/><text fill="#000000" font-family="sans-serif" font-size="14" font-style="italic" lengthAdjust="spacing" textLength="75" x="599.5" y="1003.8691">&#171;controller&#187;</text><text fill="#000000" font-family="sans-serif" font-size="14" lengthAdjust="spacing" textLength="220" x="527" y="1022.4902">AssignTeacherToCourseController</text><rect fill="#E2E2F0" height="51.2422" rx="2.5" ry="2.5" style="stroke:#181818;stroke-width:0.5;" width="143" x="782.5" y="31.3789"/><text fill="#000000" font-family="sans-serif" font-size="14" font-style="italic" lengthAdjust="spacing" textLength="60" x="824" y="53.4863">&#171;service&#187;</text><text fill="#000000" font-family="sans-serif" font-size="14" lengthAdjust="spacing" textLength="129" x="789.5" y="72.1074">ListTeachersService</text><rect fill="#E2E2F0" height="51.2422" rx="2.5" ry="2.5" style="stroke:#181818;stroke-width:0.5;" width="143" x="782.5" y="981.7617"/><text fill="#000000" font-family="sans-serif" font-size="14" font-style="italic" lengthAdjust="spacing" textLength="60" x="824" y="1003.8691">&#171;service&#187;</text><text fill="#000000" font-family="sans-serif" font-size="14" lengthAdjust="spacing" textLength="129" x="789.5" y="1022.4902">ListTeachersService</text><rect fill="#E2E2F0" height="51.2422" rx="2.5" ry="2.5" style="stroke:#181818;stroke-width:0.5;" width="164" x="988" y="31.3789"/><text fill="#000000" font-family="sans-serif" font-size="14" font-style="italic" lengthAdjust="spacing" textLength="79" x="1030.5" y="53.4863">&#171;repository&#187;</text><text fill="#000000" font-family="sans-serif" font-size="14" lengthAdjust="spacing" textLength="150" x="995" y="72.1074">TeacherUserRepository</text><rect fill="#E2E2F0" height="51.2422" rx="2.5" ry="2.5" style="stroke:#181818;stroke-width:0.5;" width="164" x="988" y="981.7617"/><text fill="#000000" font-family="sans-serif" font-size="14" font-style="italic" lengthAdjust="spacing" textLength="79" x="1030.5" y="1003.8691">&#171;repository&#187;</text><text fill="#000000" font-family="sans-serif" font-size="14" lengthAdjust="spacing" textLength="150" x="995" y="1022.4902">TeacherUserRepository</text><rect fill="#E2E2F0" height="51.2422" rx="2.5" ry="2.5" style="stroke:#181818;stroke-width:0.5;" width="131" x="1162" y="981.7617"/><text fill="#000000" font-family="sans-serif" font-size="14" font-style="italic" lengthAdjust="spacing" textLength="62" x="1196.5" y="1003.8691">&#171;domain&#187;</text><text fill="#000000" font-family="sans-serif" font-size="14" lengthAdjust="spacing" textLength="117" x="1169" y="1022.4902">TeachersInCourse</text><rect fill="#E2E2F0" height="51.2422" rx="2.5" ry="2.5" style="stroke:#181818;stroke-width:0.5;" width="76" x="1303" y="31.3789"/><text fill="#000000" font-family="sans-serif" font-size="14" font-style="italic" lengthAdjust="spacing" textLength="62" x="1310" y="53.4863">&#171;domain&#187;</text><text fill="#000000" font-family="sans-serif" font-size="14" lengthAdjust="spacing" textLength="46" x="1318" y="72.1074">Course</text><rect fill="#E2E2F0" height="51.2422" rx="2.5" ry="2.5" style="stroke:#181818;stroke-width:0.5;" width="76" x="1303" y="981.7617"/><text fill="#000000" font-family="sans-serif" font-size="14" font-style="italic" lengthAdjust="spacing" textLength="62" x="1310" y="1003.8691">&#171;domain&#187;</text><text fill="#000000" font-family="sans-serif" font-size="14" lengthAdjust="spacing" textLength="46" x="1318" y="1022.4902">Course</text><rect fill="#E2E2F0" height="51.2422" rx="2.5" ry="2.5" style="stroke:#181818;stroke-width:0.5;" width="96" x="1389" y="31.3789"/><text fill="#000000" font-family="sans-serif" font-size="14" font-style="italic" lengthAdjust="spacing" textLength="62" x="1406" y="53.4863">&#171;domain&#187;</text><text fill="#000000" font-family="sans-serif" font-size="14" lengthAdjust="spacing" textLength="82" x="1396" y="72.1074">TeacherUser</text><rect fill="#E2E2F0" height="51.2422" rx="2.5" ry="2.5" style="stroke:#181818;stroke-width:0.5;" width="96" x="1389" y="981.7617"/><text fill="#000000" font-family="sans-serif" font-size="14" font-style="italic" lengthAdjust="spacing" textLength="62" x="1406" y="1003.8691">&#171;domain&#187;</text><text fill="#000000" font-family="sans-serif" font-size="14" lengthAdjust="spacing" textLength="82" x="1396" y="1022.4902">TeacherUser</text><rect fill="#E2E2F0" height="51.2422" rx="2.5" ry="2.5" style="stroke:#181818;stroke-width:0.5;" width="155" x="1495" y="981.7617"/><text fill="#000000" font-family="sans-serif" font-size="14" font-style="italic" lengthAdjust="spacing" textLength="62" x="1541.5" y="1003.8691">&#171;domain&#187;</text><text fill="#000000" font-family="sans-serif" font-size="14" lengthAdjust="spacing" textLength="141" x="1502" y="1022.4902">TeachersInCourseKey</text><rect fill="#E2E2F0" height="51.2422" rx="2.5" ry="2.5" style="stroke:#181818;stroke-width:0.5;" width="199" x="1660" y="31.3789"/><text fill="#000000" font-family="sans-serif" font-size="14" font-style="italic" lengthAdjust="spacing" textLength="79" x="1720" y="53.4863">&#171;repository&#187;</text><text fill="#000000" font-family="sans-serif" font-size="14" lengthAdjust="spacing" textLength="185" x="1667" y="72.1074">TeachersInCourseRepository</text><rect fill="#E2E2F0" height="51.2422" rx="2.5" ry="2.5" style="stroke:#181818;stroke-width:0.5;" width="199" x="1660" y="981.7617"/><text fill="#000000" font-family="sans-serif" font-size="14" font-style="italic" lengthAdjust="spacing" textLength="79" x="1720" y="1003.8691">&#171;repository&#187;</text><text fill="#000000" font-family="sans-serif" font-size="14" lengthAdjust="spacing" textLength="185" x="1667" y="1022.4902">TeachersInCourseRepository</text><text fill="#000000" font-family="sans-serif" font-size="14" lengthAdjust="spacing" textLength="61" x="1869" y="80.1074">Database</text><path d="M1884.5,29 C1884.5,19 1902.5,19 1902.5,19 C1902.5,19 1920.5,19 1920.5,29 L1920.5,55 C1920.5,65 1902.5,65 1902.5,65 C1902.5,65 1884.5,65 1884.5,55 L1884.5,29 " fill="#E2E2F0" style="stroke:#181818;stroke-width:1.5;"/><path d="M1884.5,29 C1884.5,39 1902.5,39 1902.5,39 C1902.5,39 1920.5,39 1920.5,29 " fill="none" style="stroke:#181818;stroke-width:1.5;"/><text fill="#000000" font-family="sans-serif" font-size="14" lengthAdjust="spacing" textLength="61" x="1869" y="996.8691">Database</text><path d="M1884.5,1010.3828 C1884.5,1000.3828 1902.5,1000.3828 1902.5,1000.3828 C1902.5,1000.3828 1920.5,1000.3828 1920.5,1010.3828 L1920.5,1036.3828 C1920.5,1046.3828 1902.5,1046.3828 1902.5,1046.3828 C1902.5,1046.3828 1884.5,1046.3828 1884.5,1036.3828 L1884.5,1010.3828 " fill="#E2E2F0" style="stroke:#181818;stroke-width:1.5;"/><path d="M1884.5,1010.3828 C1884.5,1020.3828 1902.5,1020.3828 1902.5,1020.3828 C1902.5,1020.3828 1920.5,1020.3828 1920.5,1010.3828 " fill="none" style="stroke:#181818;stroke-width:1.5;"/><rect fill="#FFFFFF" height="76.582" style="stroke:#181818;stroke-width:1.0;" width="10" x="260" y="116.9121"/><rect fill="#FFFFFF" height="197.1641" style="stroke:#181818;stroke-width:1.0;" width="10" x="260" y="224.7852"/><rect fill="#FFFFFF" height="520.5215" style="stroke:#181818;stroke-width:1.0;" width="10" x="260" y="453.2402"/><rect fill="#FFFFFF" height="106.582" style="stroke:#181818;stroke-width:1.0;" width="10" x="433.5" y="148.2031"/><rect fill="#FFFFFF" height="104.582" style="stroke:#181818;stroke-width:1.0;" width="10" x="632" y="286.0762"/><rect fill="#FFFFFF" height="418.9395" style="stroke:#181818;stroke-width:1.0;" width="10" x="632" y="514.5313"/><rect fill="#FFFFFF" height="59.291" style="stroke:#181818;stroke-width:1.0;" width="10" x="849" y="317.3672"/><rect fill="#FFFFFF" height="14" style="stroke:#181818;stroke-width:1.0;" width="10" x="1065" y="348.6582"/><rect fill="#FFFFFF" height="273.0664" style="stroke:#181818;stroke-width:1.0;" width="10" x="1222.5" y="555.8223"/><rect fill="#FFFFFF" height="14" style="stroke:#181818;stroke-width:1.0;" width="10" x="1336" y="608.0645"/><rect fill="#FFFFFF" height="85.291" style="stroke:#181818;stroke-width:1.0;" width="10" x="1432" y="653.3555"/><rect fill="#FFFFFF" height="25" style="stroke:#181818;stroke-width:1.0;" width="10" x="1437" y="692.6465"/><rect fill="#FFFFFF" height="34.9512" style="stroke:#181818;stroke-width:1.0;" width="10" x="1567.5" y="779.9375"/><rect fill="#FFFFFF" height="59.291" style="stroke:#181818;stroke-width:1.0;" width="10" x="1754.5" y="860.1797"/><rect fill="#FFFFFF" height="14" style="stroke:#181818;stroke-width:1.0;" width="10" x="1897.5" y="891.4707"/><polygon fill="#181818" points="248,112.9121,258,116.9121,248,120.9121,252,116.9121" style="stroke:#181818;stroke-width:1.0;"/><line style="stroke:#181818;stroke-width:1.0;" x1="36" x2="254" y1="116.9121" y2="116.9121"/><text fill="#000000" font-family="sans-serif" font-size="13" lengthAdjust="spacing" textLength="205" x="43" y="111.6494">ask to assign a teacher to a course</text><polygon fill="#181818" points="421.5,144.2031,431.5,148.2031,421.5,152.2031,425.5,148.2031" style="stroke:#181818;stroke-width:1.0;"/><line style="stroke:#181818;stroke-width:1.0;" x1="270" x2="427.5" y1="148.2031" y2="148.2031"/><text fill="#000000" font-family="sans-serif" font-size="13" lengthAdjust="spacing" textLength="76" x="277" y="142.9404">selectCourse</text><polygon fill="#181818" points="281,158.2031,271,162.2031,281,166.2031,277,162.2031" style="stroke:#181818;stroke-width:1.0;"/><line style="stroke:#181818;stroke-width:1.0;stroke-dasharray:2.0,2.0;" x1="275" x2="432.5" y1="162.2031" y2="162.2031"/><polygon fill="#181818" points="47,189.4941,37,193.4941,47,197.4941,43,193.4941" style="stroke:#181818;stroke-width:1.0;"/><line style="stroke:#181818;stroke-width:1.0;stroke-dasharray:2.0,2.0;" x1="41" x2="264" y1="193.4941" y2="193.4941"/><text fill="#000000" font-family="sans-serif" font-size="13" lengthAdjust="spacing" textLength="195" x="53" y="188.2314">shows and ask to select a course</text><polygon fill="#181818" points="248,220.7852,258,224.7852,248,228.7852,252,224.7852" style="stroke:#181818;stroke-width:1.0;"/><line style="stroke:#181818;stroke-width:1.0;" x1="36" x2="254" y1="224.7852" y2="224.7852"/><text fill="#000000" font-family="sans-serif" font-size="13" lengthAdjust="spacing" textLength="96" x="43" y="219.5225">selects a course</text><polygon fill="#181818" points="620,282.0762,630,286.0762,620,290.0762,624,286.0762" style="stroke:#181818;stroke-width:1.0;"/><line style="stroke:#181818;stroke-width:1.0;" x1="270" x2="626" y1="286.0762" y2="286.0762"/><text fill="#000000" font-family="sans-serif" font-size="13" lengthAdjust="spacing" textLength="188" x="277" y="280.8135">allTeachersJoinWithSystemUser</text><polygon fill="#181818" points="837,313.3672,847,317.3672,837,321.3672,841,317.3672" style="stroke:#181818;stroke-width:1.0;"/><line style="stroke:#181818;stroke-width:1.0;" x1="642" x2="843" y1="317.3672" y2="317.3672"/><text fill="#000000" font-family="sans-serif" font-size="13" lengthAdjust="spacing" textLength="188" x="649" y="312.1045">allTeachersJoinWithSystemUser</text><polygon fill="#181818" points="1053,344.6582,1063,348.6582,1053,352.6582,1057,348.6582" style="stroke:#181818;stroke-width:1.0;"/><line style="stroke:#181818;stroke-width:1.0;" x1="859" x2="1059" y1="348.6582" y2="348.6582"/><text fill="#000000" font-family="sans-serif" font-size="13" lengthAdjust="spacing" textLength="187" x="866" y="343.3955">joinAllTeachersWithSystemUser</text><polygon fill="#181818" points="870,358.6582,860,362.6582,870,366.6582,866,362.6582" style="stroke:#181818;stroke-width:1.0;"/><line style="stroke:#181818;stroke-width:1.0;stroke-dasharray:2.0,2.0;" x1="864" x2="1069" y1="362.6582" y2="362.6582"/><polygon fill="#181818" points="653,372.6582,643,376.6582,653,380.6582,649,376.6582" style="stroke:#181818;stroke-width:1.0;"/><line style="stroke:#181818;stroke-width:1.0;stroke-dasharray:2.0,2.0;" x1="647" x2="853" y1="376.6582" y2="376.6582"/><polygon fill="#181818" points="281,386.6582,271,390.6582,281,394.6582,277,390.6582" style="stroke:#181818;stroke-width:1.0;"/><line style="stroke:#181818;stroke-width:1.0;stroke-dasharray:2.0,2.0;" x1="275" x2="636" y1="390.6582" y2="390.6582"/><polygon fill="#181818" points="47,417.9492,37,421.9492,47,425.9492,43,421.9492" style="stroke:#181818;stroke-width:1.0;"/><line style="stroke:#181818;stroke-width:1.0;stroke-dasharray:2.0,2.0;" x1="41" x2="264" y1="421.9492" y2="421.9492"/><text fill="#000000" font-family="sans-serif" font-size="13" lengthAdjust="spacing" textLength="199" x="53" y="416.6865">shows and ask to select a teacher</text><polygon fill="#181818" points="248,449.2402,258,453.2402,248,457.2402,252,453.2402" style="stroke:#181818;stroke-width:1.0;"/><line style="stroke:#181818;stroke-width:1.0;" x1="36" x2="254" y1="453.2402" y2="453.2402"/><text fill="#000000" font-family="sans-serif" font-size="13" lengthAdjust="spacing" textLength="100" x="43" y="447.9775">selects a teacher</text><polygon fill="#181818" points="620,510.5313,630,514.5313,620,518.5313,624,514.5313" style="stroke:#181818;stroke-width:1.0;"/><line style="stroke:#181818;stroke-width:1.0;" x1="270" x2="626" y1="514.5313" y2="514.5313"/><text fill="#000000" font-family="sans-serif" font-size="13" lengthAdjust="spacing" textLength="139" x="277" y="509.2686">assignTeacherToCourse</text><polygon fill="#181818" points="1150,541.8223,1160,545.8223,1150,549.8223,1154,545.8223" style="stroke:#181818;stroke-width:1.0;"/><line style="stroke:#181818;stroke-width:1.0;" x1="642" x2="1156" y1="545.8223" y2="545.8223"/><text fill="#000000" font-family="sans-serif" font-size="13" lengthAdjust="spacing" textLength="23" x="649" y="540.5596">new</text><rect fill="#E2E2F0" height="51.2422" rx="2.5" ry="2.5" style="stroke:#181818;stroke-width:0.5;" width="131" x="1162" y="522.5313"/><text fill="#000000" font-family="sans-serif" font-size="14" font-style="italic" lengthAdjust="spacing" textLength="62" x="1196.5" y="544.6387">&#171;domain&#187;</text><text fill="#000000" font-family="sans-serif" font-size="14" lengthAdjust="spacing" textLength="117" x="1169" y="563.2598">TeachersInCourse</text><polygon fill="#181818" points="1324,604.0645,1334,608.0645,1324,612.0645,1328,608.0645" style="stroke:#181818;stroke-width:1.0;"/><line style="stroke:#181818;stroke-width:1.0;" x1="1232.5" x2="1330" y1="608.0645" y2="608.0645"/><text fill="#000000" font-family="sans-serif" font-size="13" lengthAdjust="spacing" textLength="69" x="1239.5" y="602.8018">getCourseId</text><polygon fill="#181818" points="1243.5,618.0645,1233.5,622.0645,1243.5,626.0645,1239.5,622.0645" style="stroke:#181818;stroke-width:1.0;"/><line style="stroke:#181818;stroke-width:1.0;stroke-dasharray:2.0,2.0;" x1="1237.5" x2="1340" y1="622.0645" y2="622.0645"/><polygon fill="#181818" points="1420,649.3555,1430,653.3555,1420,657.3555,1424,653.3555" style="stroke:#181818;stroke-width:1.0;"/><line style="stroke:#181818;stroke-width:1.0;" x1="1232.5" x2="1426" y1="653.3555" y2="653.3555"/><text fill="#000000" font-family="sans-serif" font-size="13" lengthAdjust="spacing" textLength="50" x="1239.5" y="648.0928">acronym</text><line style="stroke:#181818;stroke-width:1.0;" x1="1442" x2="1489" y1="679.6465" y2="679.6465"/><line style="stroke:#181818;stroke-width:1.0;" x1="1489" x2="1489" y1="679.6465" y2="692.6465"/><line style="stroke:#181818;stroke-width:1.0;" x1="1448" x2="1489" y1="692.6465" y2="692.6465"/><polygon fill="#181818" points="1458,688.6465,1448,692.6465,1458,696.6465,1454,692.6465" style="stroke:#181818;stroke-width:1.0;"/><text fill="#000000" font-family="sans-serif" font-size="13" lengthAdjust="spacing" textLength="42" x="1454" y="674.3838">identity</text><line style="stroke:#181818;stroke-width:1.0;stroke-dasharray:2.0,2.0;" x1="1447" x2="1489" y1="716.6465" y2="716.6465"/><line style="stroke:#181818;stroke-width:1.0;stroke-dasharray:2.0,2.0;" x1="1489" x2="1489" y1="716.6465" y2="729.6465"/><line style="stroke:#181818;stroke-width:1.0;stroke-dasharray:2.0,2.0;" x1="1442" x2="1489" y1="729.6465" y2="729.6465"/><polygon fill="#181818" points="1452,725.6465,1442,729.6465,1452,733.6465,1448,729.6465" style="stroke:#181818;stroke-width:1.0;"/><polygon fill="#181818" points="1243.5,734.6465,1233.5,738.6465,1243.5,742.6465,1239.5,738.6465" style="stroke:#181818;stroke-width:1.0;"/><line style="stroke:#181818;stroke-width:1.0;stroke-dasharray:2.0,2.0;" x1="1237.5" x2="1436" y1="738.6465" y2="738.6465"/><polygon fill="#181818" points="1483,765.9375,1493,769.9375,1483,773.9375,1487,769.9375" style="stroke:#181818;stroke-width:1.0;"/><line style="stroke:#181818;stroke-width:1.0;" x1="1232.5" x2="1489" y1="769.9375" y2="769.9375"/><text fill="#000000" font-family="sans-serif" font-size="13" lengthAdjust="spacing" textLength="23" x="1239.5" y="764.6748">new</text><rect fill="#E2E2F0" height="51.2422" rx="2.5" ry="2.5" style="stroke:#181818;stroke-width:0.5;" width="155" x="1495" y="746.6465"/><text fill="#000000" font-family="sans-serif" font-size="14" font-style="italic" lengthAdjust="spacing" textLength="62" x="1541.5" y="768.7539">&#171;domain&#187;</text><text fill="#000000" font-family="sans-serif" font-size="14" lengthAdjust="spacing" textLength="141" x="1502" y="787.375">TeachersInCourseKey</text><polygon fill="#181818" points="1243.5,810.8887,1233.5,814.8887,1243.5,818.8887,1239.5,814.8887" style="stroke:#181818;stroke-width:1.0;"/><line style="stroke:#181818;stroke-width:1.0;stroke-dasharray:2.0,2.0;" x1="1237.5" x2="1571.5" y1="814.8887" y2="814.8887"/><polygon fill="#181818" points="653,824.8887,643,828.8887,653,832.8887,649,828.8887" style="stroke:#181818;stroke-width:1.0;"/><line style="stroke:#181818;stroke-width:1.0;stroke-dasharray:2.0,2.0;" x1="647" x2="1226.5" y1="828.8887" y2="828.8887"/><polygon fill="#181818" points="1742.5,856.1797,1752.5,860.1797,1742.5,864.1797,1746.5,860.1797" style="stroke:#181818;stroke-width:1.0;"/><line style="stroke:#181818;stroke-width:1.0;" x1="642" x2="1748.5" y1="860.1797" y2="860.1797"/><text fill="#000000" font-family="sans-serif" font-size="13" lengthAdjust="spacing" textLength="26" x="649" y="854.917">save</text><polygon fill="#181818" points="1885.5,887.4707,1895.5,891.4707,1885.5,895.4707,1889.5,891.4707" style="stroke:#181818;stroke-width:1.0;"/><line style="stroke:#181818;stroke-width:1.0;" x1="1764.5" x2="1891.5" y1="891.4707" y2="891.4707"/><text fill="#000000" font-family="sans-serif" font-size="13" lengthAdjust="spacing" textLength="26" x="1771.5" y="886.208">save</text><polygon fill="#181818" points="1775.5,901.4707,1765.5,905.4707,1775.5,909.4707,1771.5,905.4707" style="stroke:#181818;stroke-width:1.0;"/><line style="stroke:#181818;stroke-width:1.0;stroke-dasharray:2.0,2.0;" x1="1769.5" x2="1901.5" y1="905.4707" y2="905.4707"/><polygon fill="#181818" points="653,915.4707,643,919.4707,653,923.4707,649,919.4707" style="stroke:#181818;stroke-width:1.0;"/><line style="stroke:#181818;stroke-width:1.0;stroke-dasharray:2.0,2.0;" x1="647" x2="1758.5" y1="919.4707" y2="919.4707"/><polygon fill="#181818" points="281,929.4707,271,933.4707,281,937.4707,277,933.4707" style="stroke:#181818;stroke-width:1.0;"/><line style="stroke:#181818;stroke-width:1.0;stroke-dasharray:2.0,2.0;" x1="275" x2="636" y1="933.4707" y2="933.4707"/><polygon fill="#181818" points="47,960.7617,37,964.7617,47,968.7617,43,964.7617" style="stroke:#181818;stroke-width:1.0;"/><line style="stroke:#181818;stroke-width:1.0;stroke-dasharray:2.0,2.0;" x1="41" x2="259" y1="964.7617" y2="964.7617"/><text fill="#000000" font-family="sans-serif" font-size="13" lengthAdjust="spacing" textLength="152" x="53" y="959.499">informs operation success</text><!--SRC=[lLTDSziW4BtpAxZrv3_WOJpZII_knwLE9cU2jZQj31eWpkZV1trZQH4upVHa2VQzjxliBlANYXidXQouSlG89GZte5-DXMTPdC1HRf5LiXTE6_gJAtu2qzYq2oJasbihJ-eHk3Y3UTGT_EdG6aUs6AiCM52EEwdLRaS-ujiw2ohze9KpkYpxK18cZ8dnPSR-GrhN0-qHp5KAQ1YnPSPizpIZwEsU_EulgBILFgzrGu9lC6R65vp97bGNGa0ohJ5Mw0kNypHDY7MxmAcPZmd4wC5tg377ckLC1ZHDsEuiLwIluiqkMf1Rp_YNEkr_6WFAgUjisZKgMZl2XPDNxY16GsBqNXcftosrmUB4ZhGXWjx4mudxqM3QN7ZjitwpbAjY2BrpPegsW7IyYRmE4TexSXZ8OlCedk5KE_ipBikXQhvfgPwbEnzhw-3Ir772iuc8f8IyBzWWoDP7m0GZz3huhDZIFvv-Fwd5b50umKatU5ZXUU5qgElfymg9CTtaAQpqHwgqKuUTtKhz5FcCNg9XCmsyztJJXoFDQYtC8h-bX86WWCQPdjDgYvjkInMyBMfyubm0FCa8zJEcUpuK4qKF7CmHqJ3FApBXjUbp9enMzGLjnx09bqXP-AyUwUeCw2qsqgqn21fVY8kScx_Kr-A_kVmJnuLHDR1CBnCktJU6FgCyRyQqvLU8XnxCq88x_iAznr_x1xB2wrK7iuN6Y1yjDgjEXk5dQVzRHd7X-_F-_sQ_LB-rkLYgAp3j_n1gNuK0Qzy1]--></g></svg>