<?xml version="1.0" encoding="us-ascii" standalone="no"?><svg xmlns="http://www.w3.org/2000/svg" xmlns:xlink="http://www.w3.org/1999/xlink" contentStyleType="text/css" height="841px" preserveAspectRatio="none" style="width:1818px;height:841px;background:#FFFFFF;" version="1.1" viewBox="0 0 1818 841" width="1818px" zoomAndPan="magnify"><defs/><g><rect fill="#FFFFFF" height="613.2109" style="stroke:#181818;stroke-width:1.0;" width="10" x="226.5" y="115.2871"/><rect fill="#FFFFFF" height="525.2793" style="stroke:#181818;stroke-width:1.0;" width="10" x="413.5" y="173.9082"/><rect fill="#FFFFFF" height="58.6211" style="stroke:#181818;stroke-width:1.0;" width="10" x="812.5" y="261.8398"/><rect fill="#FFFFFF" height="29.3105" style="stroke:#181818;stroke-width:1.0;" width="10" x="952.5" y="349.7715"/><rect fill="#FFFFFF" height="58.6211" style="stroke:#181818;stroke-width:1.0;" width="10" x="1084" y="408.3926"/><rect fill="#FFFFFF" height="29.3105" style="stroke:#181818;stroke-width:1.0;" width="10" x="1389" y="496.3242"/><rect fill="#FFFFFF" height="114.9316" style="stroke:#181818;stroke-width:1.0;" width="10" x="1574.5" y="554.9453"/><rect fill="#FFFFFF" height="71.6211" style="stroke:#181818;stroke-width:1.0;" width="10" x="1725" y="568.9453"/><line style="stroke:#181818;stroke-width:0.5;stroke-dasharray:5.0,5.0;" x1="34" x2="34" y1="83.9766" y2="746.498"/><line style="stroke:#181818;stroke-width:0.5;stroke-dasharray:5.0,5.0;" x1="231" x2="231" y1="83.9766" y2="746.498"/><line style="stroke:#181818;stroke-width:0.5;stroke-dasharray:5.0,5.0;" x1="418" x2="418" y1="83.9766" y2="746.498"/><line style="stroke:#181818;stroke-width:0.5;stroke-dasharray:5.0,5.0;" x1="817" x2="817" y1="83.9766" y2="746.498"/><line style="stroke:#181818;stroke-width:0.5;stroke-dasharray:5.0,5.0;" x1="957" x2="957" y1="83.9766" y2="746.498"/><line style="stroke:#181818;stroke-width:0.5;stroke-dasharray:5.0,5.0;" x1="1089" x2="1089" y1="83.9766" y2="746.498"/><line style="stroke:#181818;stroke-width:0.5;stroke-dasharray:5.0,5.0;" x1="1240" x2="1240" y1="83.9766" y2="746.498"/><line style="stroke:#181818;stroke-width:0.5;stroke-dasharray:5.0,5.0;" x1="1394" x2="1394" y1="83.9766" y2="746.498"/><line style="stroke:#181818;stroke-width:0.5;stroke-dasharray:5.0,5.0;" x1="1579" x2="1579" y1="83.9766" y2="746.498"/><line style="stroke:#181818;stroke-width:0.5;stroke-dasharray:5.0,5.0;" x1="1730" x2="1730" y1="83.9766" y2="746.498"/><text fill="#000000" font-family="FG Virgil" font-size="14" lengthAdjust="spacing" textLength="53" x="5" y="81.0234">Student</text><ellipse cx="34.5" cy="15.9883" fill="#E3E3E3" rx="8" ry="8" style="stroke:#181818;stroke-width:0.5;"/><path d="M34.5,23.9883 L34.5,50.9883 M21.5,31.9883 L47.5,31.9883 M34.5,50.9883 L21.5,65.9883 M34.5,50.9883 L47.5,65.9883 " fill="none" style="stroke:#181818;stroke-width:0.5;"/><text fill="#000000" font-family="FG Virgil" font-size="14" lengthAdjust="spacing" textLength="53" x="5" y="759.0332">Student</text><ellipse cx="34.5" cy="770.4863" fill="#E3E3E3" rx="8" ry="8" style="stroke:#181818;stroke-width:0.5;"/><path d="M34.5,778.4863 L34.5,805.4863 M21.5,786.4863 L47.5,786.4863 M34.5,805.4863 L21.5,820.4863 M34.5,805.4863 L47.5,820.4863 " fill="none" style="stroke:#181818;stroke-width:0.5;"/><rect fill="#E3E3E3" height="46.9766" rx="2.5" ry="2.5" style="stroke:#181818;stroke-width:0.5;" width="149" x="157" y="36"/><text fill="#000000" font-family="FG Virgil" font-size="14" font-style="italic" lengthAdjust="spacing" textLength="101" x="181" y="56.5352">&#171;presentation&#187;</text><text fill="#000000" font-family="FG Virgil" font-size="14" lengthAdjust="spacing" textLength="135" x="164" y="73.0234">ListStudentExamsUI</text><rect fill="#E3E3E3" height="46.9766" rx="2.5" ry="2.5" style="stroke:#181818;stroke-width:0.5;" width="149" x="157" y="745.498"/><text fill="#000000" font-family="FG Virgil" font-size="14" font-style="italic" lengthAdjust="spacing" textLength="101" x="181" y="766.0332">&#171;presentation&#187;</text><text fill="#000000" font-family="FG Virgil" font-size="14" lengthAdjust="spacing" textLength="135" x="164" y="782.5215">ListStudentExamsUI</text><rect fill="#E3E3E3" height="30.4883" rx="2.5" ry="2.5" style="stroke:#181818;stroke-width:0.5;" width="205" x="316" y="52.4883"/><text fill="#000000" font-family="FG Virgil" font-size="14" lengthAdjust="spacing" textLength="191" x="323" y="73.0234">ListStudentExamsController</text><rect fill="#E3E3E3" height="30.4883" rx="2.5" ry="2.5" style="stroke:#181818;stroke-width:0.5;" width="205" x="316" y="745.498"/><text fill="#000000" font-family="FG Virgil" font-size="14" lengthAdjust="spacing" textLength="191" x="323" y="766.0332">ListStudentExamsController</text><rect fill="#E3E3E3" height="46.9766" rx="2.5" ry="2.5" style="stroke:#181818;stroke-width:0.5;" width="163" x="736" y="36"/><text fill="#000000" font-family="FG Virgil" font-size="14" font-style="italic" lengthAdjust="spacing" textLength="61" x="787" y="56.5352">&#171;service&#187;</text><text fill="#000000" font-family="FG Virgil" font-size="14" lengthAdjust="spacing" textLength="149" x="743" y="73.0234">AuthenticationService</text><rect fill="#E3E3E3" height="46.9766" rx="2.5" ry="2.5" style="stroke:#181818;stroke-width:0.5;" width="163" x="736" y="745.498"/><text fill="#000000" font-family="FG Virgil" font-size="14" font-style="italic" lengthAdjust="spacing" textLength="61" x="787" y="766.0332">&#171;service&#187;</text><text fill="#000000" font-family="FG Virgil" font-size="14" lengthAdjust="spacing" textLength="149" x="743" y="782.5215">AuthenticationService</text><rect fill="#E3E3E3" height="46.9766" rx="2.5" ry="2.5" style="stroke:#181818;stroke-width:0.5;" width="97" x="909" y="36"/><text fill="#000000" font-family="FG Virgil" font-size="14" font-style="italic" lengthAdjust="spacing" textLength="65" x="925" y="56.5352">&#171;session&#187;</text><text fill="#000000" font-family="FG Virgil" font-size="14" lengthAdjust="spacing" textLength="83" x="916" y="73.0234">UserSession</text><rect fill="#E3E3E3" height="46.9766" rx="2.5" ry="2.5" style="stroke:#181818;stroke-width:0.5;" width="97" x="909" y="745.498"/><text fill="#000000" font-family="FG Virgil" font-size="14" font-style="italic" lengthAdjust="spacing" textLength="65" x="925" y="766.0332">&#171;session&#187;</text><text fill="#000000" font-family="FG Virgil" font-size="14" lengthAdjust="spacing" textLength="83" x="916" y="782.5215">UserSession</text><rect fill="#E3E3E3" height="46.9766" rx="2.5" ry="2.5" style="stroke:#181818;stroke-width:0.5;" width="146" x="1016" y="36"/><text fill="#000000" font-family="FG Virgil" font-size="14" font-style="italic" lengthAdjust="spacing" textLength="92" x="1043" y="56.5352">&#171;persistence&#187;</text><text fill="#000000" font-family="FG Virgil" font-size="14" lengthAdjust="spacing" textLength="132" x="1023" y="73.0234">PersistenceContext</text><rect fill="#E3E3E3" height="46.9766" rx="2.5" ry="2.5" style="stroke:#181818;stroke-width:0.5;" width="146" x="1016" y="745.498"/><text fill="#000000" font-family="FG Virgil" font-size="14" font-style="italic" lengthAdjust="spacing" textLength="92" x="1043" y="766.0332">&#171;persistence&#187;</text><text fill="#000000" font-family="FG Virgil" font-size="14" lengthAdjust="spacing" textLength="132" x="1023" y="782.5215">PersistenceContext</text><rect fill="#E3E3E3" height="46.9766" rx="2.5" ry="2.5" style="stroke:#181818;stroke-width:0.5;" width="137" x="1172" y="36"/><text fill="#000000" font-family="FG Virgil" font-size="14" font-style="italic" lengthAdjust="spacing" textLength="61" x="1210" y="56.5352">&#171;factory&#187;</text><text fill="#000000" font-family="FG Virgil" font-size="14" lengthAdjust="spacing" textLength="123" x="1179" y="73.0234">RepositoryFactory</text><rect fill="#E3E3E3" height="46.9766" rx="2.5" ry="2.5" style="stroke:#181818;stroke-width:0.5;" width="137" x="1172" y="745.498"/><text fill="#000000" font-family="FG Virgil" font-size="14" font-style="italic" lengthAdjust="spacing" textLength="61" x="1210" y="766.0332">&#171;factory&#187;</text><text fill="#000000" font-family="FG Virgil" font-size="14" lengthAdjust="spacing" textLength="123" x="1179" y="782.5215">RepositoryFactory</text><text fill="#000000" font-family="FG Virgil" font-size="14" font-style="italic" lengthAdjust="spacing" textLength="84" x="1349" y="64.5352">&#171;repository&#187;</text><text fill="#000000" font-family="FG Virgil" font-size="14" lengthAdjust="spacing" textLength="144" x="1319" y="81.0234">ClientUserRepository</text><path d="M1376,15 C1376,5 1394,5 1394,5 C1394,5 1412,5 1412,15 L1412,41 C1412,51 1394,51 1394,51 C1394,51 1376,51 1376,41 L1376,15 " fill="#E3E3E3" style="stroke:#181818;stroke-width:1.5;"/><path d="M1376,15 C1376,25 1394,25 1394,25 C1394,25 1412,25 1412,15 " fill="none" style="stroke:#181818;stroke-width:1.5;"/><text fill="#000000" font-family="FG Virgil" font-size="14" font-style="italic" lengthAdjust="spacing" textLength="84" x="1349" y="759.0332">&#171;repository&#187;</text><text fill="#000000" font-family="FG Virgil" font-size="14" lengthAdjust="spacing" textLength="144" x="1319" y="775.5215">ClientUserRepository</text><path d="M1376,788.4746 C1376,778.4746 1394,778.4746 1394,778.4746 C1394,778.4746 1412,778.4746 1412,788.4746 L1412,814.4746 C1412,824.4746 1394,824.4746 1394,824.4746 C1394,824.4746 1376,824.4746 1376,814.4746 L1376,788.4746 " fill="#E3E3E3" style="stroke:#181818;stroke-width:1.5;"/><path d="M1376,788.4746 C1376,798.4746 1394,798.4746 1394,798.4746 C1394,798.4746 1412,798.4746 1412,788.4746 " fill="none" style="stroke:#181818;stroke-width:1.5;"/><text fill="#000000" font-family="FG Virgil" font-size="14" font-style="italic" lengthAdjust="spacing" textLength="84" x="1534.5" y="64.5352">&#171;repository&#187;</text><text fill="#000000" font-family="FG Virgil" font-size="14" lengthAdjust="spacing" textLength="195" x="1479" y="81.0234">StudentsInCourseRepository</text><path d="M1561.5,15 C1561.5,5 1579.5,5 1579.5,5 C1579.5,5 1597.5,5 1597.5,15 L1597.5,41 C1597.5,51 1579.5,51 1579.5,51 C1579.5,51 1561.5,51 1561.5,41 L1561.5,15 " fill="#E3E3E3" style="stroke:#181818;stroke-width:1.5;"/><path d="M1561.5,15 C1561.5,25 1579.5,25 1579.5,25 C1579.5,25 1597.5,25 1597.5,15 " fill="none" style="stroke:#181818;stroke-width:1.5;"/><text fill="#000000" font-family="FG Virgil" font-size="14" font-style="italic" lengthAdjust="spacing" textLength="84" x="1534.5" y="759.0332">&#171;repository&#187;</text><text fill="#000000" font-family="FG Virgil" font-size="14" lengthAdjust="spacing" textLength="195" x="1479" y="775.5215">StudentsInCourseRepository</text><path d="M1561.5,788.4746 C1561.5,778.4746 1579.5,778.4746 1579.5,778.4746 C1579.5,778.4746 1597.5,778.4746 1597.5,788.4746 L1597.5,814.4746 C1597.5,824.4746 1579.5,824.4746 1579.5,824.4746 C1579.5,824.4746 1561.5,824.4746 1561.5,814.4746 L1561.5,788.4746 " fill="#E3E3E3" style="stroke:#181818;stroke-width:1.5;"/><path d="M1561.5,788.4746 C1561.5,798.4746 1579.5,798.4746 1579.5,798.4746 C1579.5,798.4746 1597.5,798.4746 1597.5,788.4746 " fill="none" style="stroke:#181818;stroke-width:1.5;"/><rect fill="#E3E3E3" height="46.9766" rx="2.5" ry="2.5" style="stroke:#181818;stroke-width:0.5;" width="80" x="1690" y="36"/><text fill="#000000" font-family="FG Virgil" font-size="14" font-style="italic" lengthAdjust="spacing" textLength="66" x="1697" y="56.5352">&#171;domain&#187;</text><text fill="#000000" font-family="FG Virgil" font-size="14" lengthAdjust="spacing" textLength="49" x="1705.5" y="73.0234">Course</text><rect fill="#E3E3E3" height="46.9766" rx="2.5" ry="2.5" style="stroke:#181818;stroke-width:0.5;" width="80" x="1690" y="745.498"/><text fill="#000000" font-family="FG Virgil" font-size="14" font-style="italic" lengthAdjust="spacing" textLength="66" x="1697" y="766.0332">&#171;domain&#187;</text><text fill="#000000" font-family="FG Virgil" font-size="14" lengthAdjust="spacing" textLength="49" x="1705.5" y="782.5215">Course</text><rect fill="#FFFFFF" height="613.2109" style="stroke:#181818;stroke-width:1.0;" width="10" x="226.5" y="115.2871"/><rect fill="#FFFFFF" height="525.2793" style="stroke:#181818;stroke-width:1.0;" width="10" x="413.5" y="173.9082"/><rect fill="#FFFFFF" height="58.6211" style="stroke:#181818;stroke-width:1.0;" width="10" x="812.5" y="261.8398"/><rect fill="#FFFFFF" height="29.3105" style="stroke:#181818;stroke-width:1.0;" width="10" x="952.5" y="349.7715"/><rect fill="#FFFFFF" height="58.6211" style="stroke:#181818;stroke-width:1.0;" width="10" x="1084" y="408.3926"/><rect fill="#FFFFFF" height="29.3105" style="stroke:#181818;stroke-width:1.0;" width="10" x="1389" y="496.3242"/><rect fill="#FFFFFF" height="114.9316" style="stroke:#181818;stroke-width:1.0;" width="10" x="1574.5" y="554.9453"/><rect fill="#FFFFFF" height="71.6211" style="stroke:#181818;stroke-width:1.0;" width="10" x="1725" y="568.9453"/><polygon fill="#181818" points="214.5,111.2871,224.5,115.2871,214.5,119.2871,218.5,115.2871" style="stroke:#181818;stroke-width:1.0;"/><line style="stroke:#181818;stroke-width:1.0;stroke-dasharray:2.0,2.0;" x1="34.5" x2="220.5" y1="115.2871" y2="115.2871"/><text fill="#000000" font-family="FG Virgil" font-size="13" lengthAdjust="spacing" textLength="157" x="41.5" y="110.5449">asks to list future exams</text><polygon fill="#181818" points="406.5,140.5977,416.5,144.5977,406.5,148.5977,410.5,144.5977" style="stroke:#181818;stroke-width:1.0;"/><line style="stroke:#181818;stroke-width:1.0;" x1="236.5" x2="412.5" y1="144.5977" y2="144.5977"/><text fill="#000000" font-family="FG Virgil" font-size="13" lengthAdjust="spacing" textLength="46" x="243.5" y="139.8555">create()</text><polygon fill="#181818" points="401.5,169.9082,411.5,173.9082,401.5,177.9082,405.5,173.9082" style="stroke:#181818;stroke-width:1.0;"/><line style="stroke:#181818;stroke-width:1.0;" x1="236.5" x2="407.5" y1="173.9082" y2="173.9082"/><text fill="#000000" font-family="FG Virgil" font-size="13" lengthAdjust="spacing" textLength="69" x="243.5" y="169.166">listExams()</text><polygon fill="#181818" points="805.5,199.2188,815.5,203.2188,805.5,207.2188,809.5,203.2188" style="stroke:#181818;stroke-width:1.0;"/><line style="stroke:#181818;stroke-width:1.0;" x1="423.5" x2="811.5" y1="203.2188" y2="203.2188"/><text fill="#000000" font-family="FG Virgil" font-size="13" lengthAdjust="spacing" textLength="46" x="430.5" y="198.4766">create()</text><polygon fill="#181818" points="805.5,228.5293,815.5,232.5293,805.5,236.5293,809.5,232.5293" style="stroke:#181818;stroke-width:1.0;"/><line style="stroke:#181818;stroke-width:1.0;" x1="423.5" x2="811.5" y1="232.5293" y2="232.5293"/><text fill="#000000" font-family="FG Virgil" font-size="13" lengthAdjust="spacing" textLength="370" x="430.5" y="227.7871">ensureAuthenticatedUserHasAnyOf(CourseRoles.STUDENT)</text><polygon fill="#181818" points="945.5,257.8398,955.5,261.8398,945.5,265.8398,949.5,261.8398" style="stroke:#181818;stroke-width:1.0;"/><line style="stroke:#181818;stroke-width:1.0;" x1="822.5" x2="951.5" y1="261.8398" y2="261.8398"/><text fill="#000000" font-family="FG Virgil" font-size="13" lengthAdjust="spacing" textLength="46" x="829.5" y="257.0977">create()</text><polygon fill="#181818" points="800.5,287.1504,810.5,291.1504,800.5,295.1504,804.5,291.1504" style="stroke:#181818;stroke-width:1.0;"/><line style="stroke:#181818;stroke-width:1.0;" x1="423.5" x2="806.5" y1="291.1504" y2="291.1504"/><text fill="#000000" font-family="FG Virgil" font-size="13" lengthAdjust="spacing" textLength="56" x="430.5" y="286.4082">session()</text><polygon fill="#181818" points="434.5,316.4609,424.5,320.4609,434.5,324.4609,430.5,320.4609" style="stroke:#181818;stroke-width:1.0;"/><line style="stroke:#181818;stroke-width:1.0;" x1="428.5" x2="816.5" y1="320.4609" y2="320.4609"/><text fill="#000000" font-family="FG Virgil" font-size="13" lengthAdjust="spacing" textLength="48" x="440.5" y="315.7188">session</text><polygon fill="#181818" points="940.5,345.7715,950.5,349.7715,940.5,353.7715,944.5,349.7715" style="stroke:#181818;stroke-width:1.0;"/><line style="stroke:#181818;stroke-width:1.0;" x1="423.5" x2="946.5" y1="349.7715" y2="349.7715"/><text fill="#000000" font-family="FG Virgil" font-size="13" lengthAdjust="spacing" textLength="122" x="430.5" y="345.0293">authenticatedUser()</text><polygon fill="#181818" points="434.5,375.082,424.5,379.082,434.5,383.082,430.5,379.082" style="stroke:#181818;stroke-width:1.0;"/><line style="stroke:#181818;stroke-width:1.0;" x1="428.5" x2="956.5" y1="379.082" y2="379.082"/><text fill="#000000" font-family="FG Virgil" font-size="13" lengthAdjust="spacing" textLength="27" x="440.5" y="374.3398">user</text><polygon fill="#181818" points="1072,404.3926,1082,408.3926,1072,412.3926,1076,408.3926" style="stroke:#181818;stroke-width:1.0;"/><line style="stroke:#181818;stroke-width:1.0;" x1="423.5" x2="1078" y1="408.3926" y2="408.3926"/><text fill="#000000" font-family="FG Virgil" font-size="13" lengthAdjust="spacing" textLength="83" x="430.5" y="403.6504">repositories()</text><polygon fill="#181818" points="1228.5,433.7031,1238.5,437.7031,1228.5,441.7031,1232.5,437.7031" style="stroke:#181818;stroke-width:1.0;"/><line style="stroke:#181818;stroke-width:1.0;" x1="1094" x2="1234.5" y1="437.7031" y2="437.7031"/><text fill="#000000" font-family="FG Virgil" font-size="13" lengthAdjust="spacing" textLength="46" x="1101" y="432.9609">create()</text><polygon fill="#181818" points="434.5,463.0137,424.5,467.0137,434.5,471.0137,430.5,467.0137" style="stroke:#181818;stroke-width:1.0;"/><line style="stroke:#181818;stroke-width:1.0;" x1="428.5" x2="1088" y1="467.0137" y2="467.0137"/><text fill="#000000" font-family="FG Virgil" font-size="13" lengthAdjust="spacing" textLength="44" x="440.5" y="462.2715">factory</text><polygon fill="#181818" points="1377,492.3242,1387,496.3242,1377,500.3242,1381,496.3242" style="stroke:#181818;stroke-width:1.0;"/><line style="stroke:#181818;stroke-width:1.0;" x1="423.5" x2="1383" y1="496.3242" y2="496.3242"/><text fill="#000000" font-family="FG Virgil" font-size="13" lengthAdjust="spacing" textLength="109" x="430.5" y="491.582">findByUsername()</text><polygon fill="#181818" points="434.5,521.6348,424.5,525.6348,434.5,529.6348,430.5,525.6348" style="stroke:#181818;stroke-width:1.0;"/><line style="stroke:#181818;stroke-width:1.0;" x1="428.5" x2="1393" y1="525.6348" y2="525.6348"/><text fill="#000000" font-family="FG Virgil" font-size="13" lengthAdjust="spacing" textLength="76" x="440.5" y="520.8926">studentUser</text><polygon fill="#181818" points="1562.5,550.9453,1572.5,554.9453,1562.5,558.9453,1566.5,554.9453" style="stroke:#181818;stroke-width:1.0;"/><line style="stroke:#181818;stroke-width:1.0;" x1="423.5" x2="1568.5" y1="554.9453" y2="554.9453"/><text fill="#000000" font-family="FG Virgil" font-size="13" lengthAdjust="spacing" textLength="279" x="430.5" y="550.2031">findAllCoursesStudentIsAssign(studentUser)</text><polygon fill="#181818" points="1713,564.9453,1723,568.9453,1713,572.9453,1717,568.9453" style="stroke:#181818;stroke-width:1.0;"/><line style="stroke:#181818;stroke-width:1.0;" x1="1584.5" x2="1719" y1="568.9453" y2="568.9453"/><line style="stroke:#181818;stroke-width:1.0;" x1="1735" x2="1777" y1="598.2559" y2="598.2559"/><line style="stroke:#181818;stroke-width:1.0;" x1="1777" x2="1777" y1="598.2559" y2="611.2559"/><line style="stroke:#181818;stroke-width:1.0;" x1="1736" x2="1777" y1="611.2559" y2="611.2559"/><polygon fill="#181818" points="1746,607.2559,1736,611.2559,1746,615.2559,1742,611.2559" style="stroke:#181818;stroke-width:1.0;"/><text fill="#000000" font-family="FG Virgil" font-size="13" lengthAdjust="spacing" textLength="69" x="1742" y="593.5137">getExams()</text><polygon fill="#181818" points="1595.5,636.5664,1585.5,640.5664,1595.5,644.5664,1591.5,640.5664" style="stroke:#181818;stroke-width:1.0;"/><line style="stroke:#181818;stroke-width:1.0;" x1="1589.5" x2="1729" y1="640.5664" y2="640.5664"/><text fill="#000000" font-family="FG Virgil" font-size="13" lengthAdjust="spacing" textLength="41" x="1601.5" y="635.8242">exams</text><polygon fill="#181818" points="434.5,665.877,424.5,669.877,434.5,673.877,430.5,669.877" style="stroke:#181818;stroke-width:1.0;"/><line style="stroke:#181818;stroke-width:1.0;" x1="428.5" x2="1578.5" y1="669.877" y2="669.877"/><text fill="#000000" font-family="FG Virgil" font-size="13" lengthAdjust="spacing" textLength="41" x="440.5" y="665.1348">exams</text><polygon fill="#181818" points="247.5,695.1875,237.5,699.1875,247.5,703.1875,243.5,699.1875" style="stroke:#181818;stroke-width:1.0;"/><line style="stroke:#181818;stroke-width:1.0;stroke-dasharray:2.0,2.0;" x1="241.5" x2="417.5" y1="699.1875" y2="699.1875"/><text fill="#000000" font-family="FG Virgil" font-size="13" lengthAdjust="spacing" textLength="41" x="253.5" y="694.4453">exams</text><polygon fill="#181818" points="45.5,724.498,35.5,728.498,45.5,732.498,41.5,728.498" style="stroke:#181818;stroke-width:1.0;"/><line style="stroke:#181818;stroke-width:1.0;" x1="39.5" x2="230.5" y1="728.498" y2="728.498"/><text fill="#000000" font-family="FG Virgil" font-size="13" lengthAdjust="spacing" textLength="168" x="51.5" y="723.7559">shows list of future exams</text><!--SRC=[VLHDRzim3BthL-YO7heV41W1igpP0WpTC3UxQpQJ276aG9JRPhz-bEGFIcrtCMIHZtny98LdRQxAgOkyM6ERaxCNaDxr872oN5LpLaUe_Qq3wQ3npDR2GVMTtrhZ7nL1jr_bR-sEkcC-U5AjVT7cA0-gGn12DTuwMVk-1UEbGhaE5uAylMxqLT7bTur-S7XuLHVSxu8VVQlgwW3fMdbjpMhrNzI6Q3dRTU02UlxBGElUdmYWcnYn1lUi6uYiUl_tH0anNHMvzdHT0o9X8ZNs6o3nL41-WaDY2AQ1m0LU_KWh7AcosLuWVy7LeYQHRjietYq0nsDL7TA9GAtowez2a9jEKr61rOoDsVRilwhSzCF1WuQuCnlREuGyHBtRV1o3iqxWL6CyLLLhBqe7NMBBvVtzAZHrIJvdbDxAZkgNXzxt3YI45iPfqS_A0paAyYK4Q-jIDWx8kBWJxnb3k3W9mJu5OeF0l0cREivYlcy6WyIFpGsqGUXl2jVczkEm64Ip7U2d-cd_vU7nwKuaSAYNJGgdFz6BdX-a7WPhmU9b1GzsqK8HheYNar1bAHH_bdrs5HnMfkx9nlDoN95z7Fcbd6P7mziUaOiONGarpdlHdy6QSHaMWjCP0vPKs3uGJflsyoqmD_IQSHMudyYMACjD7KYxio_KoF05XsoX4ebrrwKfmc4NTxWcAOzcmU8pUba8aMze91XYSNNZ_x2MamCfTuHfOMPhGJ0jPgPj3FTEsbcNDw2SSgx9-2mCJq3Hnc5tqxwdXuHqFzaNJE-7FHHF29_AdVW7]--></g></svg>