<?xml version="1.0" encoding="us-ascii" standalone="no"?><svg xmlns="http://www.w3.org/2000/svg" xmlns:xlink="http://www.w3.org/1999/xlink" contentStyleType="text/css" height="783px" preserveAspectRatio="none" style="width:807px;height:783px;background:#FFFFFF;" version="1.1" viewBox="0 0 807 783" width="807px" zoomAndPan="magnify"><defs/><g><!--cluster ecourse--><g id="cluster_ecourse"><path d="M8.5,6 L64.5,6 A3.75,3.75 0 0 1 67,8.5 L74,28.4883 L797.5,28.4883 A2.5,2.5 0 0 1 800,30.9883 L800,774.43 A2.5,2.5 0 0 1 797.5,776.93 L8.5,776.93 A2.5,2.5 0 0 1 6,774.43 L6,8.5 A2.5,2.5 0 0 1 8.5,6 " fill="none" style="stroke:#000000;stroke-width:1.5;"/><line style="stroke:#000000;stroke-width:1.5;" x1="6" x2="74" y1="28.4883" y2="28.4883"/><text fill="#000000" font-family="sans-serif" font-size="14" font-weight="bold" lengthAdjust="spacing" textLength="55" x="10" y="21.5352">ecourse</text></g><!--cluster presentation--><g id="cluster_presentation"><path d="M380.5,49 L472.5,49 A3.75,3.75 0 0 1 475,51.5 L482,71.4883 L573.5,71.4883 A2.5,2.5 0 0 1 576,73.9883 L576,170.61 A2.5,2.5 0 0 1 573.5,173.11 L380.5,173.11 A2.5,2.5 0 0 1 378,170.61 L378,51.5 A2.5,2.5 0 0 1 380.5,49 " fill="none" style="stroke:#000000;stroke-width:1.5;"/><line style="stroke:#000000;stroke-width:1.5;" x1="378" x2="482" y1="71.4883" y2="71.4883"/><text fill="#000000" font-family="sans-serif" font-size="14" font-weight="bold" lengthAdjust="spacing" textLength="91" x="382" y="64.5352">presentation</text></g><!--cluster exammanagement--><g id="cluster_exammanagement"><path d="M328.5,197.11 L460.5,197.11 A3.75,3.75 0 0 1 463,199.61 L470,219.5983 L773.5,219.5983 A2.5,2.5 0 0 1 776,222.0983 L776,452.72 A2.5,2.5 0 0 1 773.5,455.22 L328.5,455.22 A2.5,2.5 0 0 1 326,452.72 L326,199.61 A2.5,2.5 0 0 1 328.5,197.11 " fill="none" style="stroke:#000000;stroke-width:1.5;"/><line style="stroke:#000000;stroke-width:1.5;" x1="326" x2="470" y1="219.5983" y2="219.5983"/><text fill="#000000" font-family="sans-serif" font-size="14" font-weight="bold" lengthAdjust="spacing" textLength="131" x="330" y="212.6452">exammanagement</text></g><!--cluster application--><g id="cluster_application"><path d="M352.5,240.11 L433.5,240.11 A3.75,3.75 0 0 1 436,242.61 L443,262.5983 L749.5,262.5983 A2.5,2.5 0 0 1 752,265.0983 L752,428.72 A2.5,2.5 0 0 1 749.5,431.22 L352.5,431.22 A2.5,2.5 0 0 1 350,428.72 L350,242.61 A2.5,2.5 0 0 1 352.5,240.11 " fill="none" style="stroke:#000000;stroke-width:1.5;"/><line style="stroke:#000000;stroke-width:1.5;" x1="350" x2="443" y1="262.5983" y2="262.5983"/><text fill="#000000" font-family="sans-serif" font-size="14" font-weight="bold" lengthAdjust="spacing" textLength="80" x="354" y="255.6452">application</text></g><!--cluster domain--><g id="cluster_domain"><path d="M610.5,283.11 L665.5,283.11 A3.75,3.75 0 0 1 668,285.61 L675,305.5983 L725.5,305.5983 A2.5,2.5 0 0 1 728,308.0983 L728,404.72 A2.5,2.5 0 0 1 725.5,407.22 L610.5,407.22 A2.5,2.5 0 0 1 608,404.72 L608,285.61 A2.5,2.5 0 0 1 610.5,283.11 " fill="none" style="stroke:#000000;stroke-width:1.5;"/><line style="stroke:#000000;stroke-width:1.5;" x1="608" x2="675" y1="305.5983" y2="305.5983"/><text fill="#000000" font-family="sans-serif" font-size="14" font-weight="bold" lengthAdjust="spacing" textLength="54" x="612" y="298.6452">domain</text></g><!--cluster authz--><g id="cluster_authz"><path d="M381.5,479.22 L422.5,479.22 A3.75,3.75 0 0 1 425,481.72 L432,501.7083 L712.5,501.7083 A2.5,2.5 0 0 1 715,504.2083 L715,746.12 A2.5,2.5 0 0 1 712.5,748.62 L381.5,748.62 A2.5,2.5 0 0 1 379,746.12 L379,481.72 A2.5,2.5 0 0 1 381.5,479.22 " fill="none" style="stroke:#000000;stroke-width:1.5;"/><line style="stroke:#000000;stroke-width:1.5;" x1="379" x2="432" y1="501.7083" y2="501.7083"/><text fill="#000000" font-family="sans-serif" font-size="14" font-weight="bold" lengthAdjust="spacing" textLength="40" x="383" y="494.7552">authz</text></g><!--cluster persistence--><g id="cluster_persistence"><path d="M32.5,49 L115.5,49 A3.75,3.75 0 0 1 118,51.5 L125,71.4883 L299.5,71.4883 A2.5,2.5 0 0 1 302,73.9883 L302,750.43 A2.5,2.5 0 0 1 299.5,752.93 L32.5,752.93 A2.5,2.5 0 0 1 30,750.43 L30,51.5 A2.5,2.5 0 0 1 32.5,49 " fill="none" style="stroke:#000000;stroke-width:1.5;"/><line style="stroke:#000000;stroke-width:1.5;" x1="30" x2="125" y1="71.4883" y2="71.4883"/><text fill="#000000" font-family="sans-serif" font-size="14" font-weight="bold" lengthAdjust="spacing" textLength="82" x="34" y="64.5352">persistence</text></g><!--class ListStudentExamsUI--><g id="elem_ListStudentExamsUI"><rect codeLine="3" fill="#F1F1F1" height="73.1094" id="ListStudentExamsUI" rx="2.5" ry="2.5" style="stroke:#181818;stroke-width:0.5;" width="167" x="393.5" y="84"/><ellipse cx="408.5" cy="104.3105" fill="#ADD1B2" rx="11" ry="11" style="stroke:#181818;stroke-width:1.0;"/><path d="M411.4731,109.9536 Q410.8921,110.2524 410.2529,110.4019 Q409.6138,110.5513 408.9082,110.5513 Q406.4014,110.5513 405.0815,108.8994 Q403.7617,107.2476 403.7617,104.1265 Q403.7617,100.9971 405.0815,99.3452 Q406.4014,97.6934 408.9082,97.6934 Q409.6138,97.6934 410.2612,97.8428 Q410.9087,97.9922 411.4731,98.291 L411.4731,101.0137 Q410.8423,100.4326 410.2488,100.1628 Q409.6553,99.8931 409.0244,99.8931 Q407.6797,99.8931 406.9949,100.9597 Q406.3101,102.0264 406.3101,104.1265 Q406.3101,106.2183 406.9949,107.2849 Q407.6797,108.3516 409.0244,108.3516 Q409.6553,108.3516 410.2488,108.0818 Q410.8423,107.812 411.4731,107.231 Z " fill="#000000"/><text fill="#000000" font-family="sans-serif" font-size="12" font-style="italic" lengthAdjust="spacing" textLength="84" x="448" y="100.6016">&#171;presentation&#187;</text><text fill="#000000" font-family="sans-serif" font-size="14" lengthAdjust="spacing" textLength="135" x="422.5" y="116.668">ListStudentExamsUI</text><line style="stroke:#181818;stroke-width:0.5;" x1="394.5" x2="559.5" y1="124.6211" y2="124.6211"/><line style="stroke:#181818;stroke-width:0.5;" x1="394.5" x2="559.5" y1="132.6211" y2="132.6211"/><text fill="#000000" font-family="sans-serif" font-size="14" lengthAdjust="spacing" textLength="65" x="399.5" y="150.1563">doShow()</text></g><!--class ListStudentExamsController--><g id="elem_ListStudentExamsController"><rect codeLine="9" fill="#F1F1F1" height="73.1094" id="ListStudentExamsController" rx="2.5" ry="2.5" style="stroke:#181818;stroke-width:0.5;" width="223" x="365.5" y="318.11"/><ellipse cx="380.5" cy="338.4205" fill="#ADD1B2" rx="11" ry="11" style="stroke:#181818;stroke-width:1.0;"/><path d="M383.4731,344.0636 Q382.8921,344.3624 382.2529,344.5119 Q381.6138,344.6613 380.9082,344.6613 Q378.4014,344.6613 377.0815,343.0094 Q375.7617,341.3576 375.7617,338.2365 Q375.7617,335.1071 377.0815,333.4552 Q378.4014,331.8034 380.9082,331.8034 Q381.6138,331.8034 382.2612,331.9528 Q382.9087,332.1022 383.4731,332.401 L383.4731,335.1237 Q382.8423,334.5426 382.2488,334.2728 Q381.6553,334.0031 381.0244,334.0031 Q379.6797,334.0031 378.9949,335.0697 Q378.3101,336.1364 378.3101,338.2365 Q378.3101,340.3283 378.9949,341.3949 Q379.6797,342.4616 381.0244,342.4616 Q381.6553,342.4616 382.2488,342.1918 Q382.8423,341.922 383.4731,341.341 Z " fill="#000000"/><text fill="#000000" font-family="sans-serif" font-size="12" font-style="italic" lengthAdjust="spacing" textLength="75" x="452.5" y="334.7116">&#171;application&#187;</text><text fill="#000000" font-family="sans-serif" font-size="14" lengthAdjust="spacing" textLength="191" x="394.5" y="350.778">ListStudentExamsController</text><line style="stroke:#181818;stroke-width:0.5;" x1="366.5" x2="587.5" y1="358.7311" y2="358.7311"/><line style="stroke:#181818;stroke-width:0.5;" x1="366.5" x2="587.5" y1="366.7311" y2="366.7311"/><text fill="#000000" font-family="sans-serif" font-size="14" lengthAdjust="spacing" textLength="75" x="371.5" y="384.2662">listExams()</text></g><!--class Course--><g id="elem_Course"><rect codeLine="13" fill="#F1F1F1" height="73.1094" id="Course" rx="2.5" ry="2.5" style="stroke:#181818;stroke-width:0.5;" width="89" x="623.5" y="318.11"/><ellipse cx="641.2" cy="338.4205" fill="#ADD1B2" rx="11" ry="11" style="stroke:#181818;stroke-width:1.0;"/><path d="M644.1731,344.0636 Q643.5921,344.3624 642.9529,344.5119 Q642.3138,344.6613 641.6082,344.6613 Q639.1014,344.6613 637.7815,343.0094 Q636.4617,341.3576 636.4617,338.2365 Q636.4617,335.1071 637.7815,333.4552 Q639.1014,331.8034 641.6082,331.8034 Q642.3138,331.8034 642.9612,331.9528 Q643.6087,332.1022 644.1731,332.401 L644.1731,335.1237 Q643.5423,334.5426 642.9488,334.2728 Q642.3553,334.0031 641.7244,334.0031 Q640.3797,334.0031 639.6949,335.0697 Q639.0101,336.1364 639.0101,338.2365 Q639.0101,340.3283 639.6949,341.3949 Q640.3797,342.4616 641.7244,342.4616 Q642.3553,342.4616 642.9488,342.1918 Q643.5423,341.922 644.1731,341.341 Z " fill="#000000"/><text fill="#000000" font-family="sans-serif" font-size="12" font-style="italic" lengthAdjust="spacing" textLength="55" x="653.8" y="334.7116">&#171;domain&#187;</text><text fill="#000000" font-family="sans-serif" font-size="14" lengthAdjust="spacing" textLength="49" x="656.8" y="350.778">Course</text><line style="stroke:#181818;stroke-width:0.5;" x1="624.5" x2="711.5" y1="358.7311" y2="358.7311"/><line style="stroke:#181818;stroke-width:0.5;" x1="624.5" x2="711.5" y1="366.7311" y2="366.7311"/><text fill="#000000" font-family="sans-serif" font-size="14" lengthAdjust="spacing" textLength="77" x="629.5" y="384.2662">getExams()</text></g><!--class AuthorizationService--><g id="elem_AuthorizationService"><rect codeLine="20" fill="#F1F1F1" height="89.5977" id="AuthorizationService" rx="2.5" ry="2.5" style="stroke:#181818;stroke-width:0.5;" width="305" x="394.5" y="514.22"/><ellipse cx="471.25" cy="534.5305" fill="#ADD1B2" rx="11" ry="11" style="stroke:#181818;stroke-width:1.0;"/><path d="M474.2231,540.1736 Q473.6421,540.4724 473.0029,540.6219 Q472.3638,540.7713 471.6582,540.7713 Q469.1514,540.7713 467.8315,539.1194 Q466.5117,537.4676 466.5117,534.3465 Q466.5117,531.2171 467.8315,529.5652 Q469.1514,527.9134 471.6582,527.9134 Q472.3638,527.9134 473.0112,528.0628 Q473.6587,528.2122 474.2231,528.511 L474.2231,531.2337 Q473.5923,530.6526 472.9988,530.3828 Q472.4053,530.1131 471.7744,530.1131 Q470.4297,530.1131 469.7449,531.1797 Q469.0601,532.2464 469.0601,534.3465 Q469.0601,536.4383 469.7449,537.5049 Q470.4297,538.5716 471.7744,538.5716 Q472.4053,538.5716 472.9988,538.3018 Q473.5923,538.032 474.2231,537.451 Z " fill="#000000"/><text fill="#000000" font-family="sans-serif" font-size="12" font-style="italic" lengthAdjust="spacing" textLength="52" x="537.25" y="530.8216">&#171;service&#187;</text><text fill="#000000" font-family="sans-serif" font-size="14" lengthAdjust="spacing" textLength="143" x="491.75" y="546.888">AuthorizationService</text><line style="stroke:#181818;stroke-width:0.5;" x1="395.5" x2="698.5" y1="554.8411" y2="554.8411"/><line style="stroke:#181818;stroke-width:0.5;" x1="395.5" x2="698.5" y1="562.8411" y2="562.8411"/><text fill="#000000" font-family="sans-serif" font-size="14" lengthAdjust="spacing" textLength="293" x="400.5" y="580.3762">ensureAuthenticatedUserHasAnyOf(Role...)</text><text fill="#000000" font-family="sans-serif" font-size="14" lengthAdjust="spacing" textLength="61" x="400.5" y="596.8645">session()</text></g><!--class UserSession--><g id="elem_UserSession"><rect codeLine="25" fill="#F1F1F1" height="64.4883" id="UserSession" rx="2.5" ry="2.5" style="stroke:#181818;stroke-width:0.5;" width="147" x="473.5" y="668.13"/><ellipse cx="502.9" cy="684.13" fill="#ADD1B2" rx="11" ry="11" style="stroke:#181818;stroke-width:1.0;"/><path d="M505.8731,689.7731 Q505.2921,690.0719 504.6529,690.2213 Q504.0138,690.3707 503.3082,690.3707 Q500.8014,690.3707 499.4815,688.7189 Q498.1617,687.067 498.1617,683.9459 Q498.1617,680.8165 499.4815,679.1647 Q500.8014,677.5128 503.3082,677.5128 Q504.0138,677.5128 504.6612,677.6622 Q505.3087,677.8116 505.8731,678.1105 L505.8731,680.8331 Q505.2423,680.2521 504.6488,679.9823 Q504.0553,679.7125 503.4244,679.7125 Q502.0797,679.7125 501.3949,680.7792 Q500.7101,681.8458 500.7101,683.9459 Q500.7101,686.0377 501.3949,687.1044 Q502.0797,688.171 503.4244,688.171 Q504.0553,688.171 504.6488,687.9012 Q505.2423,687.6315 505.8731,687.0504 Z " fill="#000000"/><text fill="#000000" font-family="sans-serif" font-size="14" lengthAdjust="spacing" textLength="83" x="520.1" y="689.421">UserSession</text><line style="stroke:#181818;stroke-width:0.5;" x1="474.5" x2="619.5" y1="700.13" y2="700.13"/><line style="stroke:#181818;stroke-width:0.5;" x1="474.5" x2="619.5" y1="708.13" y2="708.13"/><text fill="#000000" font-family="sans-serif" font-size="14" lengthAdjust="spacing" textLength="135" x="479.5" y="725.6652">authenticatedUser()</text></g><!--class PersistenceContext--><g id="elem_PersistenceContext"><rect codeLine="30" fill="#F1F1F1" height="73.1094" id="PersistenceContext" rx="2.5" ry="2.5" style="stroke:#181818;stroke-width:0.5;" width="164" x="119" y="84"/><ellipse cx="134" cy="104.3105" fill="#ADD1B2" rx="11" ry="11" style="stroke:#181818;stroke-width:1.0;"/><path d="M136.9731,109.9536 Q136.3921,110.2524 135.7529,110.4019 Q135.1138,110.5513 134.4082,110.5513 Q131.9014,110.5513 130.5815,108.8994 Q129.2617,107.2476 129.2617,104.1265 Q129.2617,100.9971 130.5815,99.3452 Q131.9014,97.6934 134.4082,97.6934 Q135.1138,97.6934 135.7612,97.8428 Q136.4087,97.9922 136.9731,98.291 L136.9731,101.0137 Q136.3423,100.4326 135.7488,100.1628 Q135.1553,99.8931 134.5244,99.8931 Q133.1797,99.8931 132.4949,100.9597 Q131.8101,102.0264 131.8101,104.1265 Q131.8101,106.2183 132.4949,107.2849 Q133.1797,108.3516 134.5244,108.3516 Q135.1553,108.3516 135.7488,108.0818 Q136.3423,107.812 136.9731,107.231 Z " fill="#000000"/><text fill="#000000" font-family="sans-serif" font-size="12" font-style="italic" lengthAdjust="spacing" textLength="78" x="175" y="100.6016">&#171;persistence&#187;</text><text fill="#000000" font-family="sans-serif" font-size="14" lengthAdjust="spacing" textLength="132" x="148" y="116.668">PersistenceContext</text><line style="stroke:#181818;stroke-width:0.5;" x1="120" x2="282" y1="124.6211" y2="124.6211"/><line style="stroke:#181818;stroke-width:0.5;" x1="120" x2="282" y1="132.6211" y2="132.6211"/><text fill="#000000" font-family="sans-serif" font-size="14" lengthAdjust="spacing" textLength="92" x="125" y="150.1563">repositories()</text></g><!--class RepositoryFactory--><g id="elem_RepositoryFactory"><rect codeLine="34" fill="#F1F1F1" height="56.6211" id="RepositoryFactory" rx="2.5" ry="2.5" style="stroke:#181818;stroke-width:0.5;" width="155" x="120.5" y="326.36"/><ellipse cx="135.5" cy="346.6705" fill="#ADD1B2" rx="11" ry="11" style="stroke:#181818;stroke-width:1.0;"/><path d="M138.4731,352.3136 Q137.8921,352.6124 137.2529,352.7619 Q136.6138,352.9113 135.9082,352.9113 Q133.4014,352.9113 132.0815,351.2594 Q130.7617,349.6076 130.7617,346.4865 Q130.7617,343.3571 132.0815,341.7052 Q133.4014,340.0534 135.9082,340.0534 Q136.6138,340.0534 137.2612,340.2028 Q137.9087,340.3522 138.4731,340.651 L138.4731,343.3737 Q137.8423,342.7926 137.2488,342.5228 Q136.6553,342.2531 136.0244,342.2531 Q134.6797,342.2531 133.9949,343.3197 Q133.3101,344.3864 133.3101,346.4865 Q133.3101,348.5783 133.9949,349.6449 Q134.6797,350.7116 136.0244,350.7116 Q136.6553,350.7116 137.2488,350.4418 Q137.8423,350.172 138.4731,349.591 Z " fill="#000000"/><text fill="#000000" font-family="sans-serif" font-size="12" font-style="italic" lengthAdjust="spacing" textLength="51" x="185.5" y="342.9616">&#171;factory&#187;</text><text fill="#000000" font-family="sans-serif" font-size="14" lengthAdjust="spacing" textLength="123" x="149.5" y="359.028">RepositoryFactory</text><line style="stroke:#181818;stroke-width:0.5;" x1="121.5" x2="274.5" y1="366.9811" y2="366.9811"/><line style="stroke:#181818;stroke-width:0.5;" x1="121.5" x2="274.5" y1="374.9811" y2="374.9811"/></g><!--class StudentsInCourseRepository--><g id="elem_StudentsInCourseRepository"><rect codeLine="37" fill="#F1F1F1" height="73.1094" id="StudentsInCourseRepository" rx="2.5" ry="2.5" style="stroke:#181818;stroke-width:0.5;" width="240" x="46" y="663.82"/><ellipse cx="66.85" cy="684.1305" fill="#ADD1B2" rx="11" ry="11" style="stroke:#181818;stroke-width:1.0;"/><path d="M69.8231,689.7736 Q69.2421,690.0724 68.6029,690.2219 Q67.9638,690.3713 67.2582,690.3713 Q64.7514,690.3713 63.4315,688.7194 Q62.1117,687.0676 62.1117,683.9465 Q62.1117,680.8171 63.4315,679.1652 Q64.7514,677.5134 67.2582,677.5134 Q67.9638,677.5134 68.6112,677.6628 Q69.2587,677.8122 69.8231,678.111 L69.8231,680.8337 Q69.1923,680.2526 68.5988,679.9828 Q68.0053,679.7131 67.3744,679.7131 Q66.0297,679.7131 65.3449,680.7797 Q64.6601,681.8464 64.6601,683.9465 Q64.6601,686.0383 65.3449,687.1049 Q66.0297,688.1716 67.3744,688.1716 Q68.0053,688.1716 68.5988,687.9018 Q69.1923,687.632 69.8231,687.051 Z " fill="#000000"/><text fill="#000000" font-family="sans-serif" font-size="12" font-style="italic" lengthAdjust="spacing" textLength="70" x="144.65" y="680.4216">&#171;repository&#187;</text><text fill="#000000" font-family="sans-serif" font-size="14" lengthAdjust="spacing" textLength="195" x="82.15" y="696.488">StudentsInCourseRepository</text><line style="stroke:#181818;stroke-width:0.5;" x1="47" x2="285" y1="704.4411" y2="704.4411"/><line style="stroke:#181818;stroke-width:0.5;" x1="47" x2="285" y1="712.4411" y2="712.4411"/><text fill="#000000" font-family="sans-serif" font-size="14" lengthAdjust="spacing" textLength="228" x="52" y="729.9762">findAllCoursesStudentsIsAssign()</text></g><!--class ClientUserRepository--><g id="elem_ClientUserRepository"><rect codeLine="40" fill="#F1F1F1" height="73.1094" id="ClientUserRepository" rx="2.5" ry="2.5" style="stroke:#181818;stroke-width:0.5;" width="176" x="110" y="522.47"/><ellipse cx="125" cy="542.7805" fill="#ADD1B2" rx="11" ry="11" style="stroke:#181818;stroke-width:1.0;"/><path d="M127.9731,548.4236 Q127.3921,548.7224 126.7529,548.8719 Q126.1138,549.0213 125.4082,549.0213 Q122.9014,549.0213 121.5815,547.3694 Q120.2617,545.7176 120.2617,542.5965 Q120.2617,539.4671 121.5815,537.8152 Q122.9014,536.1634 125.4082,536.1634 Q126.1138,536.1634 126.7612,536.3128 Q127.4087,536.4622 127.9731,536.761 L127.9731,539.4837 Q127.3423,538.9026 126.7488,538.6328 Q126.1553,538.3631 125.5244,538.3631 Q124.1797,538.3631 123.4949,539.4297 Q122.8101,540.4964 122.8101,542.5965 Q122.8101,544.6883 123.4949,545.7549 Q124.1797,546.8216 125.5244,546.8216 Q126.1553,546.8216 126.7488,546.5518 Q127.3423,546.282 127.9731,545.701 Z " fill="#000000"/><text fill="#000000" font-family="sans-serif" font-size="12" font-style="italic" lengthAdjust="spacing" textLength="70" x="176" y="539.0716">&#171;repository&#187;</text><text fill="#000000" font-family="sans-serif" font-size="14" lengthAdjust="spacing" textLength="144" x="139" y="555.138">ClientUserRepository</text><line style="stroke:#181818;stroke-width:0.5;" x1="111" x2="285" y1="563.0911" y2="563.0911"/><line style="stroke:#181818;stroke-width:0.5;" x1="111" x2="285" y1="571.0911" y2="571.0911"/><text fill="#000000" font-family="sans-serif" font-size="14" lengthAdjust="spacing" textLength="121" x="116" y="588.6262">findByUsername()</text></g><!--link ListStudentExamsUI to ListStudentExamsController--><g id="link_ListStudentExamsUI_ListStudentExamsController"><path codeLine="46" d="M477,157.57 C477,199.37 477,268.18 477,312.18 " fill="none" id="ListStudentExamsUI-to-ListStudentExamsController" style="stroke:#181818;stroke-width:1.0;"/><polygon fill="#181818" points="477,316.95,481,307.95,477,311.95,473,307.95,477,316.95" style="stroke:#181818;stroke-width:1.0;"/></g><!--link ListStudentExamsController to AuthorizationService--><g id="link_ListStudentExamsController_AuthorizationService"><path codeLine="47" d="M489.35,391.38 C500.61,423.93 517.35,472.32 529.9,508.59 " fill="none" id="ListStudentExamsController-to-AuthorizationService" style="stroke:#181818;stroke-width:1.0;"/><polygon fill="#181818" points="531.72,512.84,532.5712,503.028,530.0918,508.1125,525.0073,505.6331,531.72,512.84" style="stroke:#181818;stroke-width:1.0;"/></g><!--link ListStudentExamsController to PersistenceContext--><g id="link_ListStudentExamsController_PersistenceContext"><path codeLine="48" d="M442.37,317.82 C408.14,283.21 353.56,230.14 302,189.11 C289.8,179.4 276.22,169.67 263.08,160.73 " fill="none" id="ListStudentExamsController-to-PersistenceContext" style="stroke:#181818;stroke-width:1.0;"/><polygon fill="#181818" points="259.26,157.48,264.4768,165.8337,263.4026,160.2798,268.9565,159.2056,259.26,157.48" style="stroke:#181818;stroke-width:1.0;"/></g><!--link AuthorizationService to UserSession--><g id="link_AuthorizationService_UserSession"><path codeLine="49" d="M547,604.11 C547,622.74 547,644.2 547,662.03 " fill="none" id="AuthorizationService-to-UserSession" style="stroke:#181818;stroke-width:1.0;"/><polygon fill="#181818" points="547,666.93,551,657.93,547,661.93,543,657.93,547,666.93" style="stroke:#181818;stroke-width:1.0;"/></g><!--link PersistenceContext to RepositoryFactory--><g id="link_PersistenceContext_RepositoryFactory"><path codeLine="50" d="M200.53,157.57 C199.96,201.96 198.99,276.81 198.43,320.06 " fill="none" id="PersistenceContext-to-RepositoryFactory" style="stroke:#181818;stroke-width:1.0;"/><polygon fill="#181818" points="198.36,324.95,202.4626,315.9963,198.4171,319.9503,194.4631,315.9049,198.36,324.95" style="stroke:#181818;stroke-width:1.0;"/></g><!--link RepositoryFactory to StudentsInCourseRepository--><g id="link_RepositoryFactory_StudentsInCourseRepository"><path codeLine="51" d="M161.55,383.32 C137.02,404.36 106.73,435.7 93,471.22 C71.76,526.19 74.12,548 93,603.82 C99.85,624.07 112.89,643.4 126.08,659.31 " fill="none" id="RepositoryFactory-to-StudentsInCourseRepository" style="stroke:#181818;stroke-width:1.0;"/><polygon fill="#181818" points="129.8,662.71,127.0385,653.2562,126.5696,658.8936,120.9323,658.4248,129.8,662.71" style="stroke:#181818;stroke-width:1.0;"/></g><!--link ListStudentExamsController to StudentsInCourseRepository--><g id="link_ListStudentExamsController_StudentsInCourseRepository"><path codeLine="52" d="M426.84,391.6 C400.9,412.36 370.46,440.44 350,471.22 C315.39,523.3 340.9,554.09 303,603.82 C286.02,626.11 262.33,645.18 239.43,660.3 " fill="none" id="ListStudentExamsController-to-StudentsInCourseRepository" style="stroke:#181818;stroke-width:1.0;stroke-dasharray:7.0,7.0;"/><polygon fill="#181818" points="235.56,663.46,245.2863,661.9112,239.7529,660.7361,240.928,655.2026,235.56,663.46" style="stroke:#181818;stroke-width:1.0;"/></g><!--link RepositoryFactory to ClientUserRepository--><g id="link_RepositoryFactory_ClientUserRepository"><path codeLine="53" d="M198,383.38 C198,417.74 198,476.61 198,516.4 " fill="none" id="RepositoryFactory-to-ClientUserRepository" style="stroke:#181818;stroke-width:1.0;"/><polygon fill="#181818" points="198,521.13,202,512.13,198,516.13,194,512.13,198,521.13" style="stroke:#181818;stroke-width:1.0;"/></g><!--link ListStudentExamsController to ClientUserRepository--><g id="link_ListStudentExamsController_ClientUserRepository"><path codeLine="54" d="M424.99,391.67 C392.59,414.25 350.14,444.13 313,471.22 C292.05,486.5 269.21,503.64 249.45,518.63 " fill="none" id="ListStudentExamsController-to-ClientUserRepository" style="stroke:#181818;stroke-width:1.0;stroke-dasharray:7.0,7.0;"/><polygon fill="#181818" points="246.02,521.99,255.606,519.7298,250.0011,518.9649,250.7659,513.36,246.02,521.99" style="stroke:#181818;stroke-width:1.0;"/></g><!--link ClientUserRepository to StudentsInCourseRepository--><g id="link_ClientUserRepository_StudentsInCourseRepository"><path codeLine="55" d="M189.76,595.91 C185.41,614.85 180.05,638.18 175.53,657.89 " fill="none" id="ClientUserRepository-to-StudentsInCourseRepository" style="stroke:#181818;stroke-width:1.0;"/><polygon fill="#181818" points="174.21,662.61,180.1161,654.7285,175.3249,657.7359,172.3175,652.9447,174.21,662.61" style="stroke:#181818;stroke-width:1.0;"/></g><!--link StudentsInCourseRepository to Course--><g id="link_StudentsInCourseRepository_Course"><path codeLine="56" d="M257.44,663.34 C285.54,648.5 314.45,628.81 335,603.82 C374.44,555.87 329.26,508.39 379,471.22 C400.46,455.18 597.77,478.18 620,463.22 C642.15,448.33 654.19,420.66 660.67,397.11 " fill="none" id="StudentsInCourseRepository-to-Course" style="stroke:#181818;stroke-width:1.0;"/><polygon fill="#181818" points="662.13,392.54,655.997,400.2462,660.8737,397.3796,663.7403,402.2563,662.13,392.54" style="stroke:#181818;stroke-width:1.0;"/></g><!--SRC=[ZLBTRe8m5BxlKt2f5_84neIPBJDPiaNY0pHmr6Qb9JsmYSPttsc1mhJ3oONbyFsSq- -KFFla1uWWqxL1kB2oAvG645J5Aw7LXMMI8qPl0gkqgdEgFvzuWRjDj5oEWQjLT64H_NAT7lNtRCwkzFIIG9o2ApeMH1YiU5bAaKqwhRMgZ9OI33cEyDvG4i4XdMUldEk22o-wTYEIG5lst0ECgDTVBVEwEfvxVa8lseYpSqx1V8dCgc5xydAWi3PWmTIzxHFo7M5UEIQgUT_Fjbf27CTp1qP093LdtTbOSDgMEqL-gtLpiIKOfFb1PT3t-Z6KxDt1gR9H3KNVhO5IewXeBi1n5zk-thpmpFuHVz-U7DS3kvXmezhx7OZ4yEgDDzmBbITIjc3qR4neuaDx4LrSKj0NE-v_99yQYrIy01yZ2-phOh6QM2usiNUM6Tg0Hvpx95XmaIns53qB96WXTxcm-wGixkzOfXgEuqbcs2eKr2EJ82UO-8DX9jRFzUQAZFq0]--></g></svg>