<?xml version="1.0" encoding="us-ascii" standalone="no"?><svg xmlns="http://www.w3.org/2000/svg" xmlns:xlink="http://www.w3.org/1999/xlink" contentStyleType="text/css" height="663px" preserveAspectRatio="none" style="width:1201px;height:663px;background:#FFFFFF;" version="1.1" viewBox="0 0 1201 663" width="1201px" zoomAndPan="magnify"><defs/><g><rect fill="#FFFFFF" height="445.6191" style="stroke:#181818;stroke-width:1.0;" width="10" x="220.5" y="116.9121"/><rect fill="#FFFFFF" height="383.0371" style="stroke:#181818;stroke-width:1.0;" width="10" x="428.5" y="148.2031"/><rect fill="#FFFFFF" height="115.582" style="stroke:#181818;stroke-width:1.0;" width="10" x="433.5" y="187.4941"/><rect fill="#FFFFFF" height="59.291" style="stroke:#181818;stroke-width:1.0;" width="10" x="655.5" y="223.7852"/><rect fill="#FFFFFF" height="85.291" style="stroke:#181818;stroke-width:1.0;" width="10" x="795.5" y="341.3672"/><rect fill="#FFFFFF" height="25" style="stroke:#181818;stroke-width:1.0;" width="10" x="800.5" y="380.6582"/><rect fill="#FFFFFF" height="59.291" style="stroke:#181818;stroke-width:1.0;" width="10" x="953" y="457.9492"/><rect fill="#FFFFFF" height="14" style="stroke:#181818;stroke-width:1.0;" width="10" x="1161" y="255.0762"/><rect fill="#FFFFFF" height="14" style="stroke:#181818;stroke-width:1.0;" width="10" x="1161" y="489.2402"/><line style="stroke:#181818;stroke-width:0.5;stroke-dasharray:5.0,5.0;" x1="34" x2="34" y1="83.6211" y2="580.5313"/><line style="stroke:#181818;stroke-width:0.5;stroke-dasharray:5.0,5.0;" x1="225" x2="225" y1="83.6211" y2="580.5313"/><line style="stroke:#181818;stroke-width:0.5;stroke-dasharray:5.0,5.0;" x1="433.5" x2="433.5" y1="83.6211" y2="580.5313"/><line style="stroke:#181818;stroke-width:0.5;stroke-dasharray:5.0,5.0;" x1="660.5" x2="660.5" y1="83.6211" y2="580.5313"/><line style="stroke:#181818;stroke-width:0.5;stroke-dasharray:5.0,5.0;" x1="800.5" x2="800.5" y1="83.6211" y2="580.5313"/><line style="stroke:#181818;stroke-width:0.5;stroke-dasharray:5.0,5.0;" x1="957.5" x2="957.5" y1="83.6211" y2="580.5313"/><line style="stroke:#181818;stroke-width:0.5;stroke-dasharray:5.0,5.0;" x1="1165.5" x2="1165.5" y1="83.6211" y2="580.5313"/><text fill="#000000" font-family="sans-serif" font-size="14" lengthAdjust="spacing" textLength="53" x="5" y="80.1074">Teacher</text><ellipse cx="34.5" cy="13.5" fill="#E2E2F0" rx="8" ry="8" style="stroke:#181818;stroke-width:0.5;"/><path d="M34.5,21.5 L34.5,48.5 M21.5,29.5 L47.5,29.5 M34.5,48.5 L21.5,63.5 M34.5,48.5 L47.5,63.5 " fill="none" style="stroke:#181818;stroke-width:0.5;"/><text fill="#000000" font-family="sans-serif" font-size="14" lengthAdjust="spacing" textLength="53" x="5" y="594.6387">Teacher</text><ellipse cx="34.5" cy="606.6523" fill="#E2E2F0" rx="8" ry="8" style="stroke:#181818;stroke-width:0.5;"/><path d="M34.5,614.6523 L34.5,641.6523 M21.5,622.6523 L47.5,622.6523 M34.5,641.6523 L21.5,656.6523 M34.5,641.6523 L47.5,656.6523 " fill="none" style="stroke:#181818;stroke-width:0.5;"/><rect fill="#E2E2F0" height="51.2422" rx="2.5" ry="2.5" style="stroke:#181818;stroke-width:0.5;" width="143" x="154" y="31.3789"/><text fill="#000000" font-family="sans-serif" font-size="14" font-style="italic" lengthAdjust="spacing" textLength="95" x="178" y="53.4863">&#171;presentation&#187;</text><text fill="#000000" font-family="sans-serif" font-size="14" lengthAdjust="spacing" textLength="129" x="161" y="72.1074">ListAssignCoursesUI</text><rect fill="#E2E2F0" height="51.2422" rx="2.5" ry="2.5" style="stroke:#181818;stroke-width:0.5;" width="143" x="154" y="579.5313"/><text fill="#000000" font-family="sans-serif" font-size="14" font-style="italic" lengthAdjust="spacing" textLength="95" x="178" y="601.6387">&#171;presentation&#187;</text><text fill="#000000" font-family="sans-serif" font-size="14" lengthAdjust="spacing" textLength="129" x="161" y="620.2598">ListAssignCoursesUI</text><rect fill="#E2E2F0" height="51.2422" rx="2.5" ry="2.5" style="stroke:#181818;stroke-width:0.5;" width="204" x="331.5" y="31.3789"/><text fill="#000000" font-family="sans-serif" font-size="14" font-style="italic" lengthAdjust="spacing" textLength="75" x="396" y="53.4863">&#171;controller&#187;</text><text fill="#000000" font-family="sans-serif" font-size="14" lengthAdjust="spacing" textLength="190" x="338.5" y="72.1074">ListTeacherCoursesController</text><rect fill="#E2E2F0" height="51.2422" rx="2.5" ry="2.5" style="stroke:#181818;stroke-width:0.5;" width="204" x="331.5" y="579.5313"/><text fill="#000000" font-family="sans-serif" font-size="14" font-style="italic" lengthAdjust="spacing" textLength="75" x="396" y="601.6387">&#171;controller&#187;</text><text fill="#000000" font-family="sans-serif" font-size="14" lengthAdjust="spacing" textLength="190" x="338.5" y="620.2598">ListTeacherCoursesController</text><rect fill="#E2E2F0" height="51.2422" rx="2.5" ry="2.5" style="stroke:#181818;stroke-width:0.5;" width="164" x="578.5" y="31.3789"/><text fill="#000000" font-family="sans-serif" font-size="14" font-style="italic" lengthAdjust="spacing" textLength="84" x="618.5" y="53.4863">&#171;Repository&#187;</text><text fill="#000000" font-family="sans-serif" font-size="14" lengthAdjust="spacing" textLength="150" x="585.5" y="72.1074">TeacherUserRepository</text><rect fill="#E2E2F0" height="51.2422" rx="2.5" ry="2.5" style="stroke:#181818;stroke-width:0.5;" width="164" x="578.5" y="579.5313"/><text fill="#000000" font-family="sans-serif" font-size="14" font-style="italic" lengthAdjust="spacing" textLength="84" x="618.5" y="601.6387">&#171;Repository&#187;</text><text fill="#000000" font-family="sans-serif" font-size="14" lengthAdjust="spacing" textLength="150" x="585.5" y="620.2598">TeacherUserRepository</text><rect fill="#E2E2F0" height="51.2422" rx="2.5" ry="2.5" style="stroke:#181818;stroke-width:0.5;" width="96" x="752.5" y="31.3789"/><text fill="#000000" font-family="sans-serif" font-size="14" font-style="italic" lengthAdjust="spacing" textLength="62" x="769.5" y="53.4863">&#171;domain&#187;</text><text fill="#000000" font-family="sans-serif" font-size="14" lengthAdjust="spacing" textLength="82" x="759.5" y="72.1074">TeacherUser</text><rect fill="#E2E2F0" height="51.2422" rx="2.5" ry="2.5" style="stroke:#181818;stroke-width:0.5;" width="96" x="752.5" y="579.5313"/><text fill="#000000" font-family="sans-serif" font-size="14" font-style="italic" lengthAdjust="spacing" textLength="62" x="769.5" y="601.6387">&#171;domain&#187;</text><text fill="#000000" font-family="sans-serif" font-size="14" lengthAdjust="spacing" textLength="82" x="759.5" y="620.2598">TeacherUser</text><rect fill="#E2E2F0" height="51.2422" rx="2.5" ry="2.5" style="stroke:#181818;stroke-width:0.5;" width="199" x="858.5" y="31.3789"/><text fill="#000000" font-family="sans-serif" font-size="14" font-style="italic" lengthAdjust="spacing" textLength="84" x="916" y="53.4863">&#171;Repository&#187;</text><text fill="#000000" font-family="sans-serif" font-size="14" lengthAdjust="spacing" textLength="185" x="865.5" y="72.1074">TeachersInCourseRepository</text><rect fill="#E2E2F0" height="51.2422" rx="2.5" ry="2.5" style="stroke:#181818;stroke-width:0.5;" width="199" x="858.5" y="579.5313"/><text fill="#000000" font-family="sans-serif" font-size="14" font-style="italic" lengthAdjust="spacing" textLength="84" x="916" y="601.6387">&#171;Repository&#187;</text><text fill="#000000" font-family="sans-serif" font-size="14" lengthAdjust="spacing" textLength="185" x="865.5" y="620.2598">TeachersInCourseRepository</text><text fill="#000000" font-family="sans-serif" font-size="14" lengthAdjust="spacing" textLength="59" x="1133.5" y="80.1074">database</text><path d="M1148,29 C1148,19 1166,19 1166,19 C1166,19 1184,19 1184,29 L1184,55 C1184,65 1166,65 1166,65 C1166,65 1148,65 1148,55 L1148,29 " fill="#E2E2F0" style="stroke:#181818;stroke-width:1.5;"/><path d="M1148,29 C1148,39 1166,39 1166,39 C1166,39 1184,39 1184,29 " fill="none" style="stroke:#181818;stroke-width:1.5;"/><text fill="#000000" font-family="sans-serif" font-size="14" lengthAdjust="spacing" textLength="59" x="1133.5" y="594.6387">database</text><path d="M1148,608.1523 C1148,598.1523 1166,598.1523 1166,598.1523 C1166,598.1523 1184,598.1523 1184,608.1523 L1184,634.1523 C1184,644.1523 1166,644.1523 1166,644.1523 C1166,644.1523 1148,644.1523 1148,634.1523 L1148,608.1523 " fill="#E2E2F0" style="stroke:#181818;stroke-width:1.5;"/><path d="M1148,608.1523 C1148,618.1523 1166,618.1523 1166,618.1523 C1166,618.1523 1184,618.1523 1184,608.1523 " fill="none" style="stroke:#181818;stroke-width:1.5;"/><rect fill="#FFFFFF" height="445.6191" style="stroke:#181818;stroke-width:1.0;" width="10" x="220.5" y="116.9121"/><rect fill="#FFFFFF" height="383.0371" style="stroke:#181818;stroke-width:1.0;" width="10" x="428.5" y="148.2031"/><rect fill="#FFFFFF" height="115.582" style="stroke:#181818;stroke-width:1.0;" width="10" x="433.5" y="187.4941"/><rect fill="#FFFFFF" height="59.291" style="stroke:#181818;stroke-width:1.0;" width="10" x="655.5" y="223.7852"/><rect fill="#FFFFFF" height="85.291" style="stroke:#181818;stroke-width:1.0;" width="10" x="795.5" y="341.3672"/><rect fill="#FFFFFF" height="25" style="stroke:#181818;stroke-width:1.0;" width="10" x="800.5" y="380.6582"/><rect fill="#FFFFFF" height="59.291" style="stroke:#181818;stroke-width:1.0;" width="10" x="953" y="457.9492"/><rect fill="#FFFFFF" height="14" style="stroke:#181818;stroke-width:1.0;" width="10" x="1161" y="255.0762"/><rect fill="#FFFFFF" height="14" style="stroke:#181818;stroke-width:1.0;" width="10" x="1161" y="489.2402"/><polygon fill="#181818" points="208.5,112.9121,218.5,116.9121,208.5,120.9121,212.5,116.9121" style="stroke:#181818;stroke-width:1.0;"/><line style="stroke:#181818;stroke-width:1.0;" x1="34.5" x2="214.5" y1="116.9121" y2="116.9121"/><text fill="#000000" font-family="sans-serif" font-size="13" lengthAdjust="spacing" textLength="167" x="41.5" y="111.6494">ask to see assigned courses</text><polygon fill="#181818" points="416.5,144.2031,426.5,148.2031,416.5,152.2031,420.5,148.2031" style="stroke:#181818;stroke-width:1.0;"/><line style="stroke:#181818;stroke-width:1.0;" x1="230.5" x2="422.5" y1="148.2031" y2="148.2031"/><text fill="#000000" font-family="sans-serif" font-size="13" lengthAdjust="spacing" textLength="179" x="237.5" y="142.9404">findAllCoursesTeacherIsAssign</text><line style="stroke:#181818;stroke-width:1.0;" x1="438.5" x2="485.5" y1="174.4941" y2="174.4941"/><line style="stroke:#181818;stroke-width:1.0;" x1="485.5" x2="485.5" y1="174.4941" y2="187.4941"/><line style="stroke:#181818;stroke-width:1.0;" x1="444.5" x2="485.5" y1="187.4941" y2="187.4941"/><polygon fill="#181818" points="454.5,183.4941,444.5,187.4941,454.5,191.4941,450.5,187.4941" style="stroke:#181818;stroke-width:1.0;"/><text fill="#000000" font-family="sans-serif" font-size="13" lengthAdjust="spacing" textLength="97" x="450.5" y="169.2314">getUserAcronym</text><polygon fill="#181818" points="643.5,219.7852,653.5,223.7852,643.5,227.7852,647.5,223.7852" style="stroke:#181818;stroke-width:1.0;"/><line style="stroke:#181818;stroke-width:1.0;" x1="443.5" x2="649.5" y1="223.7852" y2="223.7852"/><text fill="#000000" font-family="sans-serif" font-size="13" lengthAdjust="spacing" textLength="193" x="450.5" y="218.5225">getTeacherUserFromSystemUser</text><polygon fill="#181818" points="1149,251.0762,1159,255.0762,1149,259.0762,1153,255.0762" style="stroke:#181818;stroke-width:1.0;"/><line style="stroke:#181818;stroke-width:1.0;" x1="665.5" x2="1155" y1="255.0762" y2="255.0762"/><text fill="#000000" font-family="sans-serif" font-size="13" lengthAdjust="spacing" textLength="193" x="672.5" y="249.8135">getTeacherUserFromSystemUser</text><polygon fill="#181818" points="676.5,265.0762,666.5,269.0762,676.5,273.0762,672.5,269.0762" style="stroke:#181818;stroke-width:1.0;"/><line style="stroke:#181818;stroke-width:1.0;stroke-dasharray:2.0,2.0;" x1="670.5" x2="1165" y1="269.0762" y2="269.0762"/><polygon fill="#181818" points="454.5,279.0762,444.5,283.0762,454.5,287.0762,450.5,283.0762" style="stroke:#181818;stroke-width:1.0;"/><line style="stroke:#181818;stroke-width:1.0;stroke-dasharray:2.0,2.0;" x1="448.5" x2="659.5" y1="283.0762" y2="283.0762"/><line style="stroke:#181818;stroke-width:1.0;stroke-dasharray:2.0,2.0;" x1="443.5" x2="485.5" y1="302.0762" y2="302.0762"/><line style="stroke:#181818;stroke-width:1.0;stroke-dasharray:2.0,2.0;" x1="485.5" x2="485.5" y1="302.0762" y2="315.0762"/><line style="stroke:#181818;stroke-width:1.0;stroke-dasharray:2.0,2.0;" x1="438.5" x2="485.5" y1="315.0762" y2="315.0762"/><polygon fill="#181818" points="448.5,311.0762,438.5,315.0762,448.5,319.0762,444.5,315.0762" style="stroke:#181818;stroke-width:1.0;"/><polygon fill="#181818" points="783.5,337.3672,793.5,341.3672,783.5,345.3672,787.5,341.3672" style="stroke:#181818;stroke-width:1.0;"/><line style="stroke:#181818;stroke-width:1.0;" x1="438.5" x2="789.5" y1="341.3672" y2="341.3672"/><text fill="#000000" font-family="sans-serif" font-size="13" lengthAdjust="spacing" textLength="50" x="445.5" y="336.1045">acronym</text><line style="stroke:#181818;stroke-width:1.0;" x1="805.5" x2="852.5" y1="367.6582" y2="367.6582"/><line style="stroke:#181818;stroke-width:1.0;" x1="852.5" x2="852.5" y1="367.6582" y2="380.6582"/><line style="stroke:#181818;stroke-width:1.0;" x1="811.5" x2="852.5" y1="380.6582" y2="380.6582"/><polygon fill="#181818" points="821.5,376.6582,811.5,380.6582,821.5,384.6582,817.5,380.6582" style="stroke:#181818;stroke-width:1.0;"/><text fill="#000000" font-family="sans-serif" font-size="13" lengthAdjust="spacing" textLength="42" x="817.5" y="362.3955">identity</text><line style="stroke:#181818;stroke-width:1.0;stroke-dasharray:2.0,2.0;" x1="810.5" x2="852.5" y1="404.6582" y2="404.6582"/><line style="stroke:#181818;stroke-width:1.0;stroke-dasharray:2.0,2.0;" x1="852.5" x2="852.5" y1="404.6582" y2="417.6582"/><line style="stroke:#181818;stroke-width:1.0;stroke-dasharray:2.0,2.0;" x1="805.5" x2="852.5" y1="417.6582" y2="417.6582"/><polygon fill="#181818" points="815.5,413.6582,805.5,417.6582,815.5,421.6582,811.5,417.6582" style="stroke:#181818;stroke-width:1.0;"/><polygon fill="#181818" points="449.5,422.6582,439.5,426.6582,449.5,430.6582,445.5,426.6582" style="stroke:#181818;stroke-width:1.0;"/><line style="stroke:#181818;stroke-width:1.0;stroke-dasharray:2.0,2.0;" x1="443.5" x2="799.5" y1="426.6582" y2="426.6582"/><polygon fill="#181818" points="941,453.9492,951,457.9492,941,461.9492,945,457.9492" style="stroke:#181818;stroke-width:1.0;"/><line style="stroke:#181818;stroke-width:1.0;" x1="438.5" x2="947" y1="457.9492" y2="457.9492"/><text fill="#000000" font-family="sans-serif" font-size="13" lengthAdjust="spacing" textLength="179" x="445.5" y="452.6865">findAllCoursesTeacherIsAssign</text><polygon fill="#181818" points="1149,485.2402,1159,489.2402,1149,493.2402,1153,489.2402" style="stroke:#181818;stroke-width:1.0;"/><line style="stroke:#181818;stroke-width:1.0;" x1="963" x2="1155" y1="489.2402" y2="489.2402"/><text fill="#000000" font-family="sans-serif" font-size="13" lengthAdjust="spacing" textLength="179" x="970" y="483.9775">findAllCoursesTeacherIsAssign</text><polygon fill="#181818" points="974,499.2402,964,503.2402,974,507.2402,970,503.2402" style="stroke:#181818;stroke-width:1.0;"/><line style="stroke:#181818;stroke-width:1.0;stroke-dasharray:2.0,2.0;" x1="968" x2="1165" y1="503.2402" y2="503.2402"/><polygon fill="#181818" points="449.5,513.2402,439.5,517.2402,449.5,521.2402,445.5,517.2402" style="stroke:#181818;stroke-width:1.0;"/><line style="stroke:#181818;stroke-width:1.0;stroke-dasharray:2.0,2.0;" x1="443.5" x2="957" y1="517.2402" y2="517.2402"/><polygon fill="#181818" points="241.5,527.2402,231.5,531.2402,241.5,535.2402,237.5,531.2402" style="stroke:#181818;stroke-width:1.0;"/><line style="stroke:#181818;stroke-width:1.0;stroke-dasharray:2.0,2.0;" x1="235.5" x2="432.5" y1="531.2402" y2="531.2402"/><polygon fill="#181818" points="45.5,558.5313,35.5,562.5313,45.5,566.5313,41.5,562.5313" style="stroke:#181818;stroke-width:1.0;"/><line style="stroke:#181818;stroke-width:1.0;stroke-dasharray:2.0,2.0;" x1="39.5" x2="224.5" y1="562.5313" y2="562.5313"/><text fill="#000000" font-family="sans-serif" font-size="13" lengthAdjust="spacing" textLength="143" x="51.5" y="557.2686">shows assigned courses</text><!--SRC=[hLHHRiCW3Ftd55oW5wYYIb6dIPNsjQq7OCHhqHA8iBifjrzeMPic9gLJ_m3ptZFFngKcv-KxABq7BnNACXo8LdaoshJAadmnI2MYsTcrEtW4t6x2HUwuA5eF29OK6MTNgmbF58g8jRFaNLsVb6VZHQ7Fcn5ln6mH_2kq3at_W2uGye6Yk6pIJ2DyZwfSeupb4RY99h09SD5H5k99aVfG2BAA2t4iX5oiMAENFVsN92SHe5-685HId-92QJBVYe232eukgYJTNyfFOwkohcCeNjpWYUXQCCKYPYLkfx032gKejNUsQnwaoVV8KMmGUlQkUUkGe0cxYpIB5ZndB_PNssp-SpESaOjKpgA2AIoHoGslXrIyrhohTz0_gdRXGupxOX0U6Z55cggVM8Qw3EWrDc7K1F8FitCVpysMxD-QvX0pzDUDd2arsybS0ZFjp2PrlysSQbPZZoTgRZzxe8Et4lVk1oT3-nS0]--></g></svg>