<?xml version="1.0" encoding="UTF-8" standalone="no"?>
<!DOCTYPE svg PUBLIC "-//W3C//DTD SVG 1.1//EN"
 "http://www.w3.org/Graphics/SVG/1.1/DTD/svg11.dtd">
<!-- Generated by graphviz version 2.44.1 (20200629.0846)
 -->
<!-- Title: g Pages: 1 -->
<svg width="1568pt" height="1160pt"
 viewBox="0.00 0.00 1568.00 1160.00" xmlns="http://www.w3.org/2000/svg" xmlns:xlink="http://www.w3.org/1999/xlink">
<g id="graph0" class="graph" transform="scale(1 1) rotate(0) translate(4 1156)">
<title>g</title>
<polygon fill="white" stroke="transparent" points="-4,4 -4,-1156 1564,-1156 1564,4 -4,4"/>
<g id="clust1" class="cluster">
<title>cluster_1911013184</title>
<polygon fill="#ececec" stroke="black" points="8,-8 8,-1144 1552,-1144 1552,-8 8,-8"/>
<text text-anchor="middle" x="37.37" y="-1127.4" font-family="Times New Roman,serif" font-size="14.00">ecourse</text>
</g>
<g id="clust2" class="cluster">
<title>cluster_1386234867</title>
<polygon fill="#d8d8d8" stroke="black" points="584,-876.4 584,-1111.2 876,-1111.2 876,-876.4 584,-876.4"/>
<text text-anchor="middle" x="602.11" y="-1094.6" font-family="Times New Roman,serif" font-size="14.00">app</text>
</g>
<g id="clust3" class="cluster">
<title>cluster_489743759</title>
<polygon fill="#d8d8d8" stroke="black" points="16,-279.6 16,-394.4 912,-394.4 912,-279.6 16,-279.6"/>
<text text-anchor="middle" x="55.09" y="-377.8" font-family="Times New Roman,serif" font-size="14.00">persistence</text>
</g>
<g id="clust5" class="cluster">
<title>cluster_925774986</title>
<polygon fill="#d8d8d8" stroke="black" points="920,-16 920,-514.4 1544,-514.4 1544,-16 920,-16"/>
<text text-anchor="middle" x="987.48" y="-497.8" font-family="Times New Roman,serif" font-size="14.00">usertypemanagement</text>
</g>
<g id="clust4" class="cluster">
<title>cluster_861892108</title>
<polygon fill="#d8d8d8" stroke="black" points="535,-566 535,-824.8 1149,-824.8 1149,-566 535,-566"/>
<text text-anchor="middle" x="597.03" y="-808.2" font-family="Times New Roman,serif" font-size="14.00">coursemanagement</text>
</g>
<!-- ListAssignCoursesUI1343459916 -->
<g id="node1" class="node">
<title>ListAssignCoursesUI1343459916</title>
<polygon fill="#ffffff" stroke="transparent" points="868,-1078.4 592,-1078.4 592,-884.4 868,-884.4 868,-1078.4"/>
<text text-anchor="start" x="597" y="-1060.8" font-family="Times New Roman,serif" font-size="14.00">(C)ListAssignCoursesUI</text>
<text text-anchor="start" x="596.86" y="-1036.8" font-family="Times New Roman,serif" font-size="14.00">&#45; &#160;&#160;controller: ListTeacherCoursesController [1]</text>
<text text-anchor="start" x="597" y="-1012.8" font-family="Times New Roman,serif" font-size="14.00"># elementName(): String</text>
<text text-anchor="start" x="597" y="-988.8" font-family="Times New Roman,serif" font-size="14.00"># elementPrinter(): Visitor&lt;Course&gt;</text>
<text text-anchor="start" x="597" y="-964.8" font-family="Times New Roman,serif" font-size="14.00"># elements(): Iterable&lt;Course&gt;</text>
<text text-anchor="start" x="597" y="-940.8" font-family="Times New Roman,serif" font-size="14.00"># emptyMessage(): String</text>
<text text-anchor="start" x="597" y="-916.8" font-family="Times New Roman,serif" font-size="14.00">+ headline(): String</text>
<text text-anchor="start" x="597" y="-892.8" font-family="Times New Roman,serif" font-size="14.00"># listHeader(): String</text>
<polygon fill="black" stroke="black" points="592,-1053.4 592,-1053.4 868,-1053.4 868,-1053.4 592,-1053.4"/>
<polygon fill="black" stroke="black" points="592,-1029.4 592,-1029.4 868,-1029.4 868,-1029.4 592,-1029.4"/>
<polygon fill="none" stroke="black" points="592,-884.4 592,-1078.4 868,-1078.4 868,-884.4 592,-884.4"/>
</g>
<!-- ListTeacherCoursesController427251605 -->
<g id="node4" class="node">
<title>ListTeacherCoursesController427251605</title>
<polygon fill="#ffffff" stroke="transparent" points="917,-744 543,-744 543,-622 917,-622 917,-744"/>
<text text-anchor="start" x="548" y="-726.4" font-family="Times New Roman,serif" font-size="14.00">(C)ListTeacherCoursesController</text>
<text text-anchor="start" x="548" y="-702.4" font-family="Times New Roman,serif" font-size="14.00">&#45; &#160;&#160;authz: AuthorizationService [1]</text>
<text text-anchor="start" x="548" y="-678.4" font-family="Times New Roman,serif" font-size="14.00">&#45; &#160;&#160;teacherUserRepository: TeacherUserRepository [1]</text>
<text text-anchor="start" x="547.87" y="-654.4" font-family="Times New Roman,serif" font-size="14.00">&#45; &#160;&#160;teachersInCourseRepository: TeachersInCourseRepository [1]</text>
<text text-anchor="start" x="548" y="-630.4" font-family="Times New Roman,serif" font-size="14.00">+ findAllCoursesTeacherIsAssign(): Iterable&lt;Course&gt;</text>
<polygon fill="black" stroke="black" points="543,-719 543,-719 917,-719 917,-719 543,-719"/>
<polygon fill="black" stroke="black" points="543,-647 543,-647 917,-647 917,-647 543,-647"/>
<polygon fill="none" stroke="black" points="543,-622 543,-744 917,-744 917,-622 543,-622"/>
</g>
<!-- ListAssignCoursesUI1343459916&#45;&gt;ListTeacherCoursesController427251605 -->
<g id="edge1" class="edge">
<title>ListAssignCoursesUI1343459916&#45;&gt;ListTeacherCoursesController427251605</title>
<path fill="none" stroke="black" d="M730,-884.17C730,-841.96 730,-793.32 730,-754.55"/>
<polygon fill="black" stroke="black" points="733.5,-754.41 730,-744.41 726.5,-754.41 733.5,-754.41"/>
<text text-anchor="middle" x="757.21" y="-853.8" font-family="Times New Roman,serif" font-size="14.00">controller</text>
<text text-anchor="middle" x="757.21" y="-837" font-family="Times New Roman,serif" font-size="14.00">[1]</text>
</g>
<!-- JpaTeacherUserRepository1852613913 -->
<g id="node2" class="node">
<title>JpaTeacherUserRepository1852613913</title>
<polygon fill="#ffffff" stroke="transparent" points="460,-361.6 24,-361.6 24,-287.6 460,-287.6 460,-361.6"/>
<text text-anchor="start" x="29" y="-344" font-family="Times New Roman,serif" font-size="14.00">(C)JpaTeacherUserRepository</text>
<text text-anchor="start" x="28.73" y="-320" font-family="Times New Roman,serif" font-size="14.00">+ getTeacherUserFromSystemUser(systemUser: SystemUser): TeacherUser</text>
<text text-anchor="start" x="29" y="-296" font-family="Times New Roman,serif" font-size="14.00">+ joinAllTeachersWithSystemUser(): Iterable&lt;TeacherUser&gt;</text>
<polygon fill="black" stroke="black" points="24,-336.6 24,-336.6 460,-336.6 460,-336.6 24,-336.6"/>
<polygon fill="none" stroke="black" points="24,-287.6 24,-361.6 460,-361.6 460,-287.6 24,-287.6"/>
</g>
<!-- JpaTeachersInCourseRepository1852613913 -->
<g id="node3" class="node">
<title>JpaTeachersInCourseRepository1852613913</title>
<polygon fill="#ffffff" stroke="transparent" points="903.5,-349.6 478.5,-349.6 478.5,-299.6 903.5,-299.6 903.5,-349.6"/>
<text text-anchor="start" x="484" y="-332" font-family="Times New Roman,serif" font-size="14.00">(C)JpaTeachersInCourseRepository</text>
<text text-anchor="start" x="483.93" y="-308" font-family="Times New Roman,serif" font-size="14.00">+ findAllCoursesTeacherIsAssign(acronym: Acronym): Iterable&lt;Course&gt;</text>
<polygon fill="black" stroke="black" points="479,-324.6 479,-324.6 904,-324.6 904,-324.6 479,-324.6"/>
<polygon fill="none" stroke="black" points="478.5,-299.6 478.5,-349.6 903.5,-349.6 903.5,-299.6 478.5,-299.6"/>
</g>
<!-- ListTeacherCoursesController427251605&#45;&gt;JpaTeacherUserRepository1852613913 -->
<g id="edge2" class="edge">
<title>ListTeacherCoursesController427251605&#45;&gt;JpaTeacherUserRepository1852613913</title>
<path fill="none" stroke="black" d="M636.87,-621.97C562.26,-573.87 470,-514.4 470,-514.4 470,-514.4 351.89,-416.6 285.69,-361.78"/>
</g>
<!-- ListTeacherCoursesController427251605&#45;&gt;JpaTeachersInCourseRepository1852613913 -->
<g id="edge3" class="edge">
<title>ListTeacherCoursesController427251605&#45;&gt;JpaTeachersInCourseRepository1852613913</title>
<path fill="none" stroke="black" d="M723.43,-621.94C714.7,-542.2 699.69,-404.99 693.64,-349.72"/>
</g>
<!-- TeacherUser1814895075 -->
<g id="node9" class="node">
<title>TeacherUser1814895075</title>
<polygon fill="#ffffff" stroke="transparent" points="1232,-481.6 928,-481.6 928,-167.6 1232,-167.6 1232,-481.6"/>
<text text-anchor="start" x="933" y="-464" font-family="Times New Roman,serif" font-size="14.00">(C)TeacherUser</text>
<text text-anchor="start" x="933" y="-440" font-family="Times New Roman,serif" font-size="14.00">&#45; &#160;&#160;acronym: Acronym [1]</text>
<text text-anchor="start" x="933" y="-416" font-family="Times New Roman,serif" font-size="14.00">&#45; &#160;&#160;birthDate: BirthDate [1]</text>
<text text-anchor="start" x="933" y="-392" font-family="Times New Roman,serif" font-size="14.00">&#45; &#160;&#160;systemUser: SystemUser [1]</text>
<text text-anchor="start" x="933" y="-368" font-family="Times New Roman,serif" font-size="14.00">&#45; &#160;&#160;taxPayerNumber: TaxPayerNumber [1]</text>
<text text-anchor="start" x="932.75" y="-344" font-family="Times New Roman,serif" font-size="14.00">&#45; &#160;&#160;teachersInCourses: Set&lt;TeachersInCourse&gt; [0..*]</text>
<text text-anchor="start" x="933" y="-320" font-family="Times New Roman,serif" font-size="14.00">&#45; &#160;&#160;version: Long [1]</text>
<text text-anchor="start" x="933" y="-296" font-family="Times New Roman,serif" font-size="14.00">+ acronym(): Acronym</text>
<text text-anchor="start" x="933" y="-272" font-family="Times New Roman,serif" font-size="14.00">+ birthDate(): BirthDate</text>
<text text-anchor="start" x="933" y="-248" font-family="Times New Roman,serif" font-size="14.00">+ identity(): Acronym</text>
<text text-anchor="start" x="933" y="-224" font-family="Times New Roman,serif" font-size="14.00">+ sameAs(other: Object): boolean</text>
<text text-anchor="start" x="933" y="-200" font-family="Times New Roman,serif" font-size="14.00">+ taxPayerNumber(): TaxPayerNumber</text>
<text text-anchor="start" x="933" y="-176" font-family="Times New Roman,serif" font-size="14.00">+ user(): SystemUser</text>
<polygon fill="black" stroke="black" points="928,-456.6 928,-456.6 1232,-456.6 1232,-456.6 928,-456.6"/>
<polygon fill="black" stroke="black" points="928,-312.6 928,-312.6 1232,-312.6 1232,-312.6 928,-312.6"/>
<polygon fill="none" stroke="black" points="928,-167.6 928,-481.6 1232,-481.6 1232,-167.6 928,-167.6"/>
</g>
<!-- ListTeacherCoursesController427251605&#45;&gt;TeacherUser1814895075 -->
<g id="edge4" class="edge">
<title>ListTeacherCoursesController427251605&#45;&gt;TeacherUser1814895075</title>
<path fill="none" stroke="black" d="M750.12,-621.66C765.19,-576.47 783.22,-522.4 783.22,-522.4 783.22,-522.4 916,-514.4 916,-514.4 916,-514.4 924.42,-504.71 937.45,-489.71"/>
<polygon fill="black" stroke="black" points="940.28,-491.79 944.19,-481.94 934.99,-487.2 940.28,-491.79"/>
<text text-anchor="middle" x="916.39" y="-535" font-family="Times New Roman,serif" font-size="14.00">findAllCoursesTeacherIsAssign() &#45;&gt; acronym()</text>
</g>
<!-- TeachersInCourse1854509879 -->
<g id="node5" class="node">
<title>TeachersInCourse1854509879</title>
<polygon fill="#ffffff" stroke="transparent" points="1141,-792 935,-792 935,-574 1141,-574 1141,-792"/>
<text text-anchor="start" x="940" y="-774.4" font-family="Times New Roman,serif" font-size="14.00">(C)TeachersInCourse</text>
<text text-anchor="start" x="940" y="-750.4" font-family="Times New Roman,serif" font-size="14.00">&#45; &#160;&#160;course: Course [1]</text>
<text text-anchor="start" x="940" y="-726.4" font-family="Times New Roman,serif" font-size="14.00"># &#160;&#160;id: TeachersInCourseKey [1]</text>
<text text-anchor="start" x="940" y="-702.4" font-family="Times New Roman,serif" font-size="14.00">&#45; &#160;&#160;isInCharge: boolean [1]</text>
<text text-anchor="start" x="940" y="-678.4" font-family="Times New Roman,serif" font-size="14.00">&#45; &#160;&#160;teacher: TeacherUser [1]</text>
<text text-anchor="start" x="940" y="-654.4" font-family="Times New Roman,serif" font-size="14.00">+ course(): Course</text>
<text text-anchor="start" x="939.98" y="-630.4" font-family="Times New Roman,serif" font-size="14.00">+ identity(): TeachersInCourseKey</text>
<text text-anchor="start" x="940" y="-606.4" font-family="Times New Roman,serif" font-size="14.00">+ sameAs(other: Object): boolean</text>
<text text-anchor="start" x="940" y="-582.4" font-family="Times New Roman,serif" font-size="14.00">+ teacher(): TeacherUser</text>
<polygon fill="black" stroke="black" points="935,-767 935,-767 1141,-767 1141,-767 935,-767"/>
<polygon fill="black" stroke="black" points="935,-671 935,-671 1141,-671 1141,-671 935,-671"/>
<polygon fill="none" stroke="black" points="935,-574 935,-792 1141,-792 1141,-574 935,-574"/>
</g>
<!-- Acronym1814895075 -->
<g id="node6" class="node">
<title>Acronym1814895075</title>
<polygon fill="#ffffff" stroke="transparent" points="1111.5,-98 928.5,-98 928.5,-24 1111.5,-24 1111.5,-98"/>
<text text-anchor="start" x="934" y="-80.4" font-family="Times New Roman,serif" font-size="14.00">(C)Acronym</text>
<text text-anchor="start" x="934" y="-56.4" font-family="Times New Roman,serif" font-size="14.00">&#45; &#160;&#160;acronym: String [1]</text>
<text text-anchor="start" x="933.55" y="-32.4" font-family="Times New Roman,serif" font-size="14.00">+ compareTo(o: Acronym): int</text>
<polygon fill="black" stroke="black" points="929,-73 929,-73 1112,-73 1112,-73 929,-73"/>
<polygon fill="black" stroke="black" points="929,-49 929,-49 1112,-49 1112,-49 929,-49"/>
<polygon fill="none" stroke="black" points="928.5,-24 928.5,-98 1111.5,-98 1111.5,-24 928.5,-24"/>
</g>
<!-- BirthDate2032408415 -->
<g id="node7" class="node">
<title>BirthDate2032408415</title>
<polygon fill="#ffffff" stroke="transparent" points="1288,-86 1130,-86 1130,-36 1288,-36 1288,-86"/>
<text text-anchor="start" x="1135" y="-68.4" font-family="Times New Roman,serif" font-size="14.00">(C)BirthDate</text>
<text text-anchor="start" x="1134.94" y="-44.4" font-family="Times New Roman,serif" font-size="14.00"># &#160;&#160;birthDate: Calendar [1]</text>
<polygon fill="black" stroke="black" points="1130,-61 1130,-61 1288,-61 1288,-61 1130,-61"/>
<polygon fill="none" stroke="black" points="1130,-36 1130,-86 1288,-86 1288,-36 1130,-36"/>
</g>
<!-- TaxPayerNumber2032408415 -->
<g id="node8" class="node">
<title>TaxPayerNumber2032408415</title>
<polygon fill="#ffffff" stroke="transparent" points="1536,-98 1306,-98 1306,-24 1536,-24 1536,-98"/>
<text text-anchor="start" x="1311" y="-80.4" font-family="Times New Roman,serif" font-size="14.00">(C)TaxPayerNumber</text>
<text text-anchor="start" x="1311" y="-56.4" font-family="Times New Roman,serif" font-size="14.00">&#45; &#160;&#160;taxPayerNumber: String [1]</text>
<text text-anchor="start" x="1310.73" y="-32.4" font-family="Times New Roman,serif" font-size="14.00">+ compareTo(o: TaxPayerNumber): int</text>
<polygon fill="black" stroke="black" points="1306,-73 1306,-73 1536,-73 1536,-73 1306,-73"/>
<polygon fill="black" stroke="black" points="1306,-49 1306,-49 1536,-49 1536,-49 1306,-49"/>
<polygon fill="none" stroke="black" points="1306,-24 1306,-98 1536,-98 1536,-24 1306,-24"/>
</g>
<!-- TeacherUser1814895075&#45;&gt;TeachersInCourse1854509879 -->
<g id="edge8" class="edge">
<title>TeacherUser1814895075&#45;&gt;TeachersInCourse1854509879</title>
<path fill="none" stroke="black" d="M1061.6,-481.73C1058.36,-509.22 1055.04,-537.42 1051.95,-563.66"/>
<polygon fill="black" stroke="black" points="1048.47,-563.28 1050.77,-573.62 1055.42,-564.1 1048.47,-563.28"/>
<text text-anchor="middle" x="1107.31" y="-543.4" font-family="Times New Roman,serif" font-size="14.00">teachersInCourses</text>
<text text-anchor="middle" x="1107.31" y="-526.6" font-family="Times New Roman,serif" font-size="14.00">[0..*]</text>
</g>
<!-- TeacherUser1814895075&#45;&gt;Acronym1814895075 -->
<g id="edge5" class="edge">
<title>TeacherUser1814895075&#45;&gt;Acronym1814895075</title>
<path fill="none" stroke="black" d="M1044.14,-167.27C1039.25,-145.95 1034.58,-125.56 1030.67,-108.51"/>
<polygon fill="black" stroke="black" points="1033.98,-107.31 1028.34,-98.34 1027.16,-108.87 1033.98,-107.31"/>
<text text-anchor="middle" x="1063.49" y="-137" font-family="Times New Roman,serif" font-size="14.00">acronym</text>
<text text-anchor="middle" x="1063.49" y="-120.2" font-family="Times New Roman,serif" font-size="14.00">[1]</text>
</g>
<!-- TeacherUser1814895075&#45;&gt;BirthDate2032408415 -->
<g id="edge6" class="edge">
<title>TeacherUser1814895075&#45;&gt;BirthDate2032408415</title>
<path fill="none" stroke="black" d="M1157.09,-167.27C1170.44,-140.2 1183.04,-114.65 1192.48,-95.5"/>
<polygon fill="black" stroke="black" points="1195.7,-96.88 1196.99,-86.36 1189.42,-93.78 1195.7,-96.88"/>
<text text-anchor="middle" x="1207.43" y="-137" font-family="Times New Roman,serif" font-size="14.00">birthDate</text>
<text text-anchor="middle" x="1207.43" y="-120.2" font-family="Times New Roman,serif" font-size="14.00">[1]</text>
</g>
<!-- TeacherUser1814895075&#45;&gt;TaxPayerNumber2032408415 -->
<g id="edge7" class="edge">
<title>TeacherUser1814895075&#45;&gt;TaxPayerNumber2032408415</title>
<path fill="none" stroke="black" d="M1232.05,-206.95C1279.77,-170.35 1329.44,-132.24 1365.87,-104.29"/>
<polygon fill="black" stroke="black" points="1368.1,-107 1373.9,-98.13 1363.84,-101.44 1368.1,-107"/>
<text text-anchor="middle" x="1394.42" y="-137" font-family="Times New Roman,serif" font-size="14.00">taxPayerNumber</text>
<text text-anchor="middle" x="1394.42" y="-120.2" font-family="Times New Roman,serif" font-size="14.00">[1]</text>
</g>
</g>
</svg>
