<?xml version="1.0" encoding="us-ascii" standalone="no"?><svg xmlns="http://www.w3.org/2000/svg" xmlns:xlink="http://www.w3.org/1999/xlink" contentStyleType="text/css" height="1105px" preserveAspectRatio="none" style="width:1983px;height:1105px;background:#FFFFFF;" version="1.1" viewBox="0 0 1983 1105" width="1983px" zoomAndPan="magnify"><defs/><g><rect fill="#FFFFFF" height="862.0059" style="stroke:#181818;stroke-width:1.0;" width="10" x="217.5" y="130.5977"/><rect fill="#FFFFFF" height="758.7637" style="stroke:#181818;stroke-width:1.0;" width="10" x="420" y="189.2188"/><rect fill="#FFFFFF" height="58.6211" style="stroke:#181818;stroke-width:1.0;" width="10" x="818" y="277.1504"/><rect fill="#FFFFFF" height="29.3105" style="stroke:#181818;stroke-width:1.0;" width="10" x="958" y="365.082"/><rect fill="#FFFFFF" height="58.6211" style="stroke:#181818;stroke-width:1.0;" width="10" x="1089.5" y="508.3242"/><rect fill="#FFFFFF" height="87.9316" style="stroke:#181818;stroke-width:1.0;" width="10" x="1241" y="596.2559"/><rect fill="#FFFFFF" height="87.9316" style="stroke:#181818;stroke-width:1.0;" width="10" x="1241" y="713.498"/><rect fill="#FFFFFF" height="58.6211" style="stroke:#181818;stroke-width:1.0;" width="10" x="1359.5" y="830.7402"/><rect fill="#FFFFFF" height="29.3105" style="stroke:#181818;stroke-width:1.0;" width="10" x="1459.5" y="889.3613"/><rect fill="#FFFFFF" height="29.3105" style="stroke:#181818;stroke-width:1.0;" width="10" x="1701" y="742.8086"/><rect fill="#FFFFFF" height="29.3105" style="stroke:#181818;stroke-width:1.0;" width="10" x="1895" y="625.5664"/><line style="stroke:#181818;stroke-width:0.5;stroke-dasharray:5.0,5.0;" x1="39" x2="39" y1="83.9766" y2="1010.6035"/><line style="stroke:#181818;stroke-width:0.5;stroke-dasharray:5.0,5.0;" x1="222" x2="222" y1="83.9766" y2="1010.6035"/><line style="stroke:#181818;stroke-width:0.5;stroke-dasharray:5.0,5.0;" x1="425" x2="425" y1="83.9766" y2="1010.6035"/><line style="stroke:#181818;stroke-width:0.5;stroke-dasharray:5.0,5.0;" x1="822.5" x2="822.5" y1="83.9766" y2="1010.6035"/><line style="stroke:#181818;stroke-width:0.5;stroke-dasharray:5.0,5.0;" x1="962.5" x2="962.5" y1="83.9766" y2="1010.6035"/><line style="stroke:#181818;stroke-width:0.5;stroke-dasharray:5.0,5.0;" x1="1094.5" x2="1094.5" y1="83.9766" y2="1010.6035"/><line style="stroke:#181818;stroke-width:0.5;stroke-dasharray:5.0,5.0;" x1="1245.5" x2="1245.5" y1="83.9766" y2="1010.6035"/><line style="stroke:#181818;stroke-width:0.5;stroke-dasharray:5.0,5.0;" x1="1364.5" x2="1364.5" y1="83.9766" y2="1010.6035"/><line style="stroke:#181818;stroke-width:0.5;stroke-dasharray:5.0,5.0;" x1="1464.5" x2="1464.5" y1="83.9766" y2="1010.6035"/><line style="stroke:#181818;stroke-width:0.5;stroke-dasharray:5.0,5.0;" x1="1554.5" x2="1554.5" y1="83.9766" y2="1010.6035"/><line style="stroke:#181818;stroke-width:0.5;stroke-dasharray:5.0,5.0;" x1="1705.5" x2="1705.5" y1="83.9766" y2="1010.6035"/><line style="stroke:#181818;stroke-width:0.5;stroke-dasharray:5.0,5.0;" x1="1899.5" x2="1899.5" y1="83.9766" y2="1010.6035"/><rect fill="#E2E2F0" height="30.4883" rx="2.5" ry="2.5" style="stroke:#181818;stroke-width:0.5;" width="69" x="5" y="52.4883"/><text fill="#000000" font-family="sans-serif" font-size="14" lengthAdjust="spacing" textLength="55" x="12" y="73.0234">Teacher</text><rect fill="#E2E2F0" height="30.4883" rx="2.5" ry="2.5" style="stroke:#181818;stroke-width:0.5;" width="69" x="5" y="1009.6035"/><text fill="#000000" font-family="sans-serif" font-size="14" lengthAdjust="spacing" textLength="55" x="12" y="1030.1387">Teacher</text><rect fill="#E2E2F0" height="46.9766" rx="2.5" ry="2.5" style="stroke:#181818;stroke-width:0.5;" width="137" x="154" y="36"/><text fill="#000000" font-family="sans-serif" font-size="14" font-style="italic" lengthAdjust="spacing" textLength="101" x="172" y="56.5352">&#171;presentation&#187;</text><text fill="#000000" font-family="sans-serif" font-size="14" lengthAdjust="spacing" textLength="123" x="161" y="73.0234">ListExamGradesUI</text><rect fill="#E2E2F0" height="46.9766" rx="2.5" ry="2.5" style="stroke:#181818;stroke-width:0.5;" width="137" x="154" y="1009.6035"/><text fill="#000000" font-family="sans-serif" font-size="14" font-style="italic" lengthAdjust="spacing" textLength="101" x="172" y="1030.1387">&#171;presentation&#187;</text><text fill="#000000" font-family="sans-serif" font-size="14" lengthAdjust="spacing" textLength="123" x="161" y="1046.627">ListExamGradesUI</text><rect fill="#E2E2F0" height="46.9766" rx="2.5" ry="2.5" style="stroke:#181818;stroke-width:0.5;" width="248" x="301" y="36"/><text fill="#000000" font-family="sans-serif" font-size="14" font-style="italic" lengthAdjust="spacing" textLength="90" x="380" y="56.5352">&#171;application&#187;</text><text fill="#000000" font-family="sans-serif" font-size="14" lengthAdjust="spacing" textLength="234" x="308" y="73.0234">ListTeacherExamGradesController</text><rect fill="#E2E2F0" height="46.9766" rx="2.5" ry="2.5" style="stroke:#181818;stroke-width:0.5;" width="248" x="301" y="1009.6035"/><text fill="#000000" font-family="sans-serif" font-size="14" font-style="italic" lengthAdjust="spacing" textLength="90" x="380" y="1030.1387">&#171;application&#187;</text><text fill="#000000" font-family="sans-serif" font-size="14" lengthAdjust="spacing" textLength="234" x="308" y="1046.627">ListTeacherExamGradesController</text><rect fill="#E2E2F0" height="46.9766" rx="2.5" ry="2.5" style="stroke:#181818;stroke-width:0.5;" width="163" x="741.5" y="36"/><text fill="#000000" font-family="sans-serif" font-size="14" font-style="italic" lengthAdjust="spacing" textLength="61" x="792.5" y="56.5352">&#171;service&#187;</text><text fill="#000000" font-family="sans-serif" font-size="14" lengthAdjust="spacing" textLength="149" x="748.5" y="73.0234">AuthenticationService</text><rect fill="#E2E2F0" height="46.9766" rx="2.5" ry="2.5" style="stroke:#181818;stroke-width:0.5;" width="163" x="741.5" y="1009.6035"/><text fill="#000000" font-family="sans-serif" font-size="14" font-style="italic" lengthAdjust="spacing" textLength="61" x="792.5" y="1030.1387">&#171;service&#187;</text><text fill="#000000" font-family="sans-serif" font-size="14" lengthAdjust="spacing" textLength="149" x="748.5" y="1046.627">AuthenticationService</text><rect fill="#E2E2F0" height="46.9766" rx="2.5" ry="2.5" style="stroke:#181818;stroke-width:0.5;" width="97" x="914.5" y="36"/><text fill="#000000" font-family="sans-serif" font-size="14" font-style="italic" lengthAdjust="spacing" textLength="65" x="930.5" y="56.5352">&#171;session&#187;</text><text fill="#000000" font-family="sans-serif" font-size="14" lengthAdjust="spacing" textLength="83" x="921.5" y="73.0234">UserSession</text><rect fill="#E2E2F0" height="46.9766" rx="2.5" ry="2.5" style="stroke:#181818;stroke-width:0.5;" width="97" x="914.5" y="1009.6035"/><text fill="#000000" font-family="sans-serif" font-size="14" font-style="italic" lengthAdjust="spacing" textLength="65" x="930.5" y="1030.1387">&#171;session&#187;</text><text fill="#000000" font-family="sans-serif" font-size="14" lengthAdjust="spacing" textLength="83" x="921.5" y="1046.627">UserSession</text><rect fill="#E2E2F0" height="46.9766" rx="2.5" ry="2.5" style="stroke:#181818;stroke-width:0.5;" width="146" x="1021.5" y="36"/><text fill="#000000" font-family="sans-serif" font-size="14" font-style="italic" lengthAdjust="spacing" textLength="92" x="1048.5" y="56.5352">&#171;persistence&#187;</text><text fill="#000000" font-family="sans-serif" font-size="14" lengthAdjust="spacing" textLength="132" x="1028.5" y="73.0234">PersistenceContext</text><rect fill="#E2E2F0" height="46.9766" rx="2.5" ry="2.5" style="stroke:#181818;stroke-width:0.5;" width="146" x="1021.5" y="1009.6035"/><text fill="#000000" font-family="sans-serif" font-size="14" font-style="italic" lengthAdjust="spacing" textLength="92" x="1048.5" y="1030.1387">&#171;persistence&#187;</text><text fill="#000000" font-family="sans-serif" font-size="14" lengthAdjust="spacing" textLength="132" x="1028.5" y="1046.627">PersistenceContext</text><rect fill="#E2E2F0" height="46.9766" rx="2.5" ry="2.5" style="stroke:#181818;stroke-width:0.5;" width="137" x="1177.5" y="36"/><text fill="#000000" font-family="sans-serif" font-size="14" font-style="italic" lengthAdjust="spacing" textLength="61" x="1215.5" y="56.5352">&#171;factory&#187;</text><text fill="#000000" font-family="sans-serif" font-size="14" lengthAdjust="spacing" textLength="123" x="1184.5" y="73.0234">RepositoryFactory</text><rect fill="#E2E2F0" height="46.9766" rx="2.5" ry="2.5" style="stroke:#181818;stroke-width:0.5;" width="137" x="1177.5" y="1009.6035"/><text fill="#000000" font-family="sans-serif" font-size="14" font-style="italic" lengthAdjust="spacing" textLength="61" x="1215.5" y="1030.1387">&#171;factory&#187;</text><text fill="#000000" font-family="sans-serif" font-size="14" lengthAdjust="spacing" textLength="123" x="1184.5" y="1046.627">RepositoryFactory</text><rect fill="#E2E2F0" height="46.9766" rx="2.5" ry="2.5" style="stroke:#181818;stroke-width:0.5;" width="80" x="1324.5" y="36"/><text fill="#000000" font-family="sans-serif" font-size="14" font-style="italic" lengthAdjust="spacing" textLength="66" x="1331.5" y="56.5352">&#171;domain&#187;</text><text fill="#000000" font-family="sans-serif" font-size="14" lengthAdjust="spacing" textLength="49" x="1340" y="73.0234">Course</text><rect fill="#E2E2F0" height="46.9766" rx="2.5" ry="2.5" style="stroke:#181818;stroke-width:0.5;" width="80" x="1324.5" y="1009.6035"/><text fill="#000000" font-family="sans-serif" font-size="14" font-style="italic" lengthAdjust="spacing" textLength="66" x="1331.5" y="1030.1387">&#171;domain&#187;</text><text fill="#000000" font-family="sans-serif" font-size="14" lengthAdjust="spacing" textLength="49" x="1340" y="1046.627">Course</text><rect fill="#E2E2F0" height="46.9766" rx="2.5" ry="2.5" style="stroke:#181818;stroke-width:0.5;" width="80" x="1424.5" y="36"/><text fill="#000000" font-family="sans-serif" font-size="14" font-style="italic" lengthAdjust="spacing" textLength="66" x="1431.5" y="56.5352">&#171;domain&#187;</text><text fill="#000000" font-family="sans-serif" font-size="14" lengthAdjust="spacing" textLength="38" x="1445.5" y="73.0234">Exam</text><rect fill="#E2E2F0" height="46.9766" rx="2.5" ry="2.5" style="stroke:#181818;stroke-width:0.5;" width="80" x="1424.5" y="1009.6035"/><text fill="#000000" font-family="sans-serif" font-size="14" font-style="italic" lengthAdjust="spacing" textLength="66" x="1431.5" y="1030.1387">&#171;domain&#187;</text><text fill="#000000" font-family="sans-serif" font-size="14" lengthAdjust="spacing" textLength="38" x="1445.5" y="1046.627">Exam</text><rect fill="#E2E2F0" height="46.9766" rx="2.5" ry="2.5" style="stroke:#181818;stroke-width:0.5;" width="80" x="1514.5" y="36"/><text fill="#000000" font-family="sans-serif" font-size="14" font-style="italic" lengthAdjust="spacing" textLength="66" x="1521.5" y="56.5352">&#171;domain&#187;</text><text fill="#000000" font-family="sans-serif" font-size="14" lengthAdjust="spacing" textLength="41" x="1534" y="73.0234">Grade</text><rect fill="#E2E2F0" height="46.9766" rx="2.5" ry="2.5" style="stroke:#181818;stroke-width:0.5;" width="80" x="1514.5" y="1009.6035"/><text fill="#000000" font-family="sans-serif" font-size="14" font-style="italic" lengthAdjust="spacing" textLength="66" x="1521.5" y="1030.1387">&#171;domain&#187;</text><text fill="#000000" font-family="sans-serif" font-size="14" lengthAdjust="spacing" textLength="41" x="1534" y="1046.627">Grade</text><text fill="#000000" font-family="sans-serif" font-size="14" font-style="italic" lengthAdjust="spacing" textLength="84" x="1661" y="64.5352">&#171;repository&#187;</text><text fill="#000000" font-family="sans-serif" font-size="14" lengthAdjust="spacing" textLength="197" x="1604.5" y="81.0234">TeachersInCourseRepository</text><path d="M1688,15 C1688,5 1706,5 1706,5 C1706,5 1724,5 1724,15 L1724,41 C1724,51 1706,51 1706,51 C1706,51 1688,51 1688,41 L1688,15 " fill="#E2E2F0" style="stroke:#181818;stroke-width:1.5;"/><path d="M1688,15 C1688,25 1706,25 1706,25 C1706,25 1724,25 1724,15 " fill="none" style="stroke:#181818;stroke-width:1.5;"/><text fill="#000000" font-family="sans-serif" font-size="14" font-style="italic" lengthAdjust="spacing" textLength="84" x="1661" y="1023.1387">&#171;repository&#187;</text><text fill="#000000" font-family="sans-serif" font-size="14" lengthAdjust="spacing" textLength="197" x="1604.5" y="1039.627">TeachersInCourseRepository</text><path d="M1688,1052.5801 C1688,1042.5801 1706,1042.5801 1706,1042.5801 C1706,1042.5801 1724,1042.5801 1724,1052.5801 L1724,1078.5801 C1724,1088.5801 1706,1088.5801 1706,1088.5801 C1706,1088.5801 1688,1088.5801 1688,1078.5801 L1688,1052.5801 " fill="#E2E2F0" style="stroke:#181818;stroke-width:1.5;"/><path d="M1688,1052.5801 C1688,1062.5801 1706,1062.5801 1706,1062.5801 C1706,1062.5801 1724,1062.5801 1724,1052.5801 " fill="none" style="stroke:#181818;stroke-width:1.5;"/><text fill="#000000" font-family="sans-serif" font-size="14" font-style="italic" lengthAdjust="spacing" textLength="84" x="1855" y="64.5352">&#171;repository&#187;</text><text fill="#000000" font-family="sans-serif" font-size="14" lengthAdjust="spacing" textLength="159" x="1817.5" y="81.0234">TeacherUserRepository</text><path d="M1882,15 C1882,5 1900,5 1900,5 C1900,5 1918,5 1918,15 L1918,41 C1918,51 1900,51 1900,51 C1900,51 1882,51 1882,41 L1882,15 " fill="#E2E2F0" style="stroke:#181818;stroke-width:1.5;"/><path d="M1882,15 C1882,25 1900,25 1900,25 C1900,25 1918,25 1918,15 " fill="none" style="stroke:#181818;stroke-width:1.5;"/><text fill="#000000" font-family="sans-serif" font-size="14" font-style="italic" lengthAdjust="spacing" textLength="84" x="1855" y="1023.1387">&#171;repository&#187;</text><text fill="#000000" font-family="sans-serif" font-size="14" lengthAdjust="spacing" textLength="159" x="1817.5" y="1039.627">TeacherUserRepository</text><path d="M1882,1052.5801 C1882,1042.5801 1900,1042.5801 1900,1042.5801 C1900,1042.5801 1918,1042.5801 1918,1052.5801 L1918,1078.5801 C1918,1088.5801 1900,1088.5801 1900,1088.5801 C1900,1088.5801 1882,1088.5801 1882,1078.5801 L1882,1052.5801 " fill="#E2E2F0" style="stroke:#181818;stroke-width:1.5;"/><path d="M1882,1052.5801 C1882,1062.5801 1900,1062.5801 1900,1062.5801 C1900,1062.5801 1918,1062.5801 1918,1052.5801 " fill="none" style="stroke:#181818;stroke-width:1.5;"/><rect fill="#FFFFFF" height="862.0059" style="stroke:#181818;stroke-width:1.0;" width="10" x="217.5" y="130.5977"/><rect fill="#FFFFFF" height="758.7637" style="stroke:#181818;stroke-width:1.0;" width="10" x="420" y="189.2188"/><rect fill="#FFFFFF" height="58.6211" style="stroke:#181818;stroke-width:1.0;" width="10" x="818" y="277.1504"/><rect fill="#FFFFFF" height="29.3105" style="stroke:#181818;stroke-width:1.0;" width="10" x="958" y="365.082"/><rect fill="#FFFFFF" height="58.6211" style="stroke:#181818;stroke-width:1.0;" width="10" x="1089.5" y="508.3242"/><rect fill="#FFFFFF" height="87.9316" style="stroke:#181818;stroke-width:1.0;" width="10" x="1241" y="596.2559"/><rect fill="#FFFFFF" height="87.9316" style="stroke:#181818;stroke-width:1.0;" width="10" x="1241" y="713.498"/><rect fill="#FFFFFF" height="58.6211" style="stroke:#181818;stroke-width:1.0;" width="10" x="1359.5" y="830.7402"/><rect fill="#FFFFFF" height="29.3105" style="stroke:#181818;stroke-width:1.0;" width="10" x="1459.5" y="889.3613"/><rect fill="#FFFFFF" height="29.3105" style="stroke:#181818;stroke-width:1.0;" width="10" x="1701" y="742.8086"/><rect fill="#FFFFFF" height="29.3105" style="stroke:#181818;stroke-width:1.0;" width="10" x="1895" y="625.5664"/><polygon fill="#181818" points="205.5,126.5977,215.5,130.5977,205.5,134.5977,209.5,130.5977" style="stroke:#181818;stroke-width:1.0;"/><line style="stroke:#181818;stroke-width:1.0;stroke-dasharray:2.0,2.0;" x1="39.5" x2="211.5" y1="130.5977" y2="130.5977"/><text fill="#000000" font-family="sans-serif" font-size="13" lengthAdjust="spacing" textLength="133" x="46.5" y="110.5449">asks to list grades of</text><text fill="#000000" font-family="sans-serif" font-size="13" lengthAdjust="spacing" textLength="159" x="46.5" y="125.8555">all exams available to me</text><polygon fill="#181818" points="413,155.9082,423,159.9082,413,163.9082,417,159.9082" style="stroke:#181818;stroke-width:1.0;"/><line style="stroke:#181818;stroke-width:1.0;" x1="227.5" x2="419" y1="159.9082" y2="159.9082"/><text fill="#000000" font-family="sans-serif" font-size="13" lengthAdjust="spacing" textLength="46" x="234.5" y="155.166">create()</text><polygon fill="#181818" points="408,185.2188,418,189.2188,408,193.2188,412,189.2188" style="stroke:#181818;stroke-width:1.0;"/><line style="stroke:#181818;stroke-width:1.0;" x1="227.5" x2="414" y1="189.2188" y2="189.2188"/><text fill="#000000" font-family="sans-serif" font-size="13" lengthAdjust="spacing" textLength="113" x="234.5" y="184.4766">listCourseExams()</text><polygon fill="#181818" points="811,214.5293,821,218.5293,811,222.5293,815,218.5293" style="stroke:#181818;stroke-width:1.0;"/><line style="stroke:#181818;stroke-width:1.0;" x1="430" x2="817" y1="218.5293" y2="218.5293"/><text fill="#000000" font-family="sans-serif" font-size="13" lengthAdjust="spacing" textLength="46" x="437" y="213.7871">create()</text><polygon fill="#181818" points="811,243.8398,821,247.8398,811,251.8398,815,247.8398" style="stroke:#181818;stroke-width:1.0;"/><line style="stroke:#181818;stroke-width:1.0;" x1="430" x2="817" y1="247.8398" y2="247.8398"/><text fill="#000000" font-family="sans-serif" font-size="13" lengthAdjust="spacing" textLength="369" x="437" y="243.0977">ensureAuthenticatedUserHasAnyOf(CourseRoles.TEACHER)</text><polygon fill="#181818" points="951,273.1504,961,277.1504,951,281.1504,955,277.1504" style="stroke:#181818;stroke-width:1.0;"/><line style="stroke:#181818;stroke-width:1.0;" x1="828" x2="957" y1="277.1504" y2="277.1504"/><text fill="#000000" font-family="sans-serif" font-size="13" lengthAdjust="spacing" textLength="46" x="835" y="272.4082">create()</text><polygon fill="#181818" points="806,302.4609,816,306.4609,806,310.4609,810,306.4609" style="stroke:#181818;stroke-width:1.0;"/><line style="stroke:#181818;stroke-width:1.0;" x1="430" x2="812" y1="306.4609" y2="306.4609"/><text fill="#000000" font-family="sans-serif" font-size="13" lengthAdjust="spacing" textLength="56" x="437" y="301.7188">session()</text><polygon fill="#181818" points="441,331.7715,431,335.7715,441,339.7715,437,335.7715" style="stroke:#181818;stroke-width:1.0;"/><line style="stroke:#181818;stroke-width:1.0;" x1="435" x2="822" y1="335.7715" y2="335.7715"/><text fill="#000000" font-family="sans-serif" font-size="13" lengthAdjust="spacing" textLength="48" x="447" y="331.0293">session</text><polygon fill="#181818" points="946,361.082,956,365.082,946,369.082,950,365.082" style="stroke:#181818;stroke-width:1.0;"/><line style="stroke:#181818;stroke-width:1.0;" x1="430" x2="952" y1="365.082" y2="365.082"/><text fill="#000000" font-family="sans-serif" font-size="13" lengthAdjust="spacing" textLength="122" x="437" y="360.3398">authenticatedUser()</text><polygon fill="#181818" points="441,390.3926,431,394.3926,441,398.3926,437,394.3926" style="stroke:#181818;stroke-width:1.0;"/><line style="stroke:#181818;stroke-width:1.0;" x1="435" x2="962" y1="394.3926" y2="394.3926"/><text fill="#000000" font-family="sans-serif" font-size="13" lengthAdjust="spacing" textLength="27" x="447" y="389.6504">user</text><line style="stroke:#181818;stroke-width:1.0;" x1="430" x2="472" y1="423.7031" y2="423.7031"/><line style="stroke:#181818;stroke-width:1.0;" x1="472" x2="472" y1="423.7031" y2="436.7031"/><line style="stroke:#181818;stroke-width:1.0;" x1="431" x2="472" y1="436.7031" y2="436.7031"/><polygon fill="#181818" points="441,432.7031,431,436.7031,441,440.7031,437,436.7031" style="stroke:#181818;stroke-width:1.0;"/><text fill="#000000" font-family="sans-serif" font-size="13" lengthAdjust="spacing" textLength="46" x="437" y="418.9609">create()</text><line style="stroke:#181818;stroke-width:1.0;" x1="430" x2="472" y1="466.0137" y2="466.0137"/><line style="stroke:#181818;stroke-width:1.0;" x1="472" x2="472" y1="466.0137" y2="479.0137"/><line style="stroke:#181818;stroke-width:1.0;" x1="431" x2="472" y1="479.0137" y2="479.0137"/><polygon fill="#181818" points="441,475.0137,431,479.0137,441,483.0137,437,479.0137" style="stroke:#181818;stroke-width:1.0;"/><text fill="#000000" font-family="sans-serif" font-size="13" lengthAdjust="spacing" textLength="113" x="437" y="461.2715">listCourseExams()</text><polygon fill="#181818" points="1077.5,504.3242,1087.5,508.3242,1077.5,512.3242,1081.5,508.3242" style="stroke:#181818;stroke-width:1.0;"/><line style="stroke:#181818;stroke-width:1.0;" x1="430" x2="1083.5" y1="508.3242" y2="508.3242"/><text fill="#000000" font-family="sans-serif" font-size="13" lengthAdjust="spacing" textLength="83" x="437" y="503.582">repositories()</text><polygon fill="#181818" points="1234,533.6348,1244,537.6348,1234,541.6348,1238,537.6348" style="stroke:#181818;stroke-width:1.0;"/><line style="stroke:#181818;stroke-width:1.0;" x1="1099.5" x2="1240" y1="537.6348" y2="537.6348"/><text fill="#000000" font-family="sans-serif" font-size="13" lengthAdjust="spacing" textLength="46" x="1106.5" y="532.8926">create()</text><polygon fill="#181818" points="441,562.9453,431,566.9453,441,570.9453,437,566.9453" style="stroke:#181818;stroke-width:1.0;"/><line style="stroke:#181818;stroke-width:1.0;" x1="435" x2="1093.5" y1="566.9453" y2="566.9453"/><text fill="#000000" font-family="sans-serif" font-size="13" lengthAdjust="spacing" textLength="44" x="447" y="562.2031">factory</text><polygon fill="#181818" points="1229,592.2559,1239,596.2559,1229,600.2559,1233,596.2559" style="stroke:#181818;stroke-width:1.0;"/><line style="stroke:#181818;stroke-width:1.0;" x1="430" x2="1235" y1="596.2559" y2="596.2559"/><text fill="#000000" font-family="sans-serif" font-size="13" lengthAdjust="spacing" textLength="112" x="437" y="591.5137">getUserAcronym()</text><polygon fill="#181818" points="1883,621.5664,1893,625.5664,1883,629.5664,1887,625.5664" style="stroke:#181818;stroke-width:1.0;"/><line style="stroke:#181818;stroke-width:1.0;" x1="1251" x2="1889" y1="625.5664" y2="625.5664"/><text fill="#000000" font-family="sans-serif" font-size="13" lengthAdjust="spacing" textLength="237" x="1258" y="620.8242">getTeacherUserFromSystemUser(user)</text><polygon fill="#181818" points="1262,650.877,1252,654.877,1262,658.877,1258,654.877" style="stroke:#181818;stroke-width:1.0;"/><line style="stroke:#181818;stroke-width:1.0;" x1="1256" x2="1899" y1="654.877" y2="654.877"/><text fill="#000000" font-family="sans-serif" font-size="13" lengthAdjust="spacing" textLength="54" x="1268" y="650.1348">acronym</text><polygon fill="#181818" points="441,680.1875,431,684.1875,441,688.1875,437,684.1875" style="stroke:#181818;stroke-width:1.0;"/><line style="stroke:#181818;stroke-width:1.0;" x1="435" x2="1245" y1="684.1875" y2="684.1875"/><text fill="#000000" font-family="sans-serif" font-size="13" lengthAdjust="spacing" textLength="54" x="447" y="679.4453">acronym</text><polygon fill="#181818" points="1229,709.498,1239,713.498,1229,717.498,1233,713.498" style="stroke:#181818;stroke-width:1.0;"/><line style="stroke:#181818;stroke-width:1.0;" x1="430" x2="1235" y1="713.498" y2="713.498"/><text fill="#000000" font-family="sans-serif" font-size="13" lengthAdjust="spacing" textLength="192" x="437" y="708.7559">allCoursesTeacherIsAssigned()</text><polygon fill="#181818" points="1689,738.8086,1699,742.8086,1689,746.8086,1693,742.8086" style="stroke:#181818;stroke-width:1.0;"/><line style="stroke:#181818;stroke-width:1.0;" x1="1251" x2="1695" y1="742.8086" y2="742.8086"/><text fill="#000000" font-family="sans-serif" font-size="13" lengthAdjust="spacing" textLength="266" x="1258" y="738.0664">findAllCoursesTeacherIsAssign(acronym)()</text><polygon fill="#181818" points="1262,768.1191,1252,772.1191,1262,776.1191,1258,772.1191" style="stroke:#181818;stroke-width:1.0;"/><line style="stroke:#181818;stroke-width:1.0;" x1="1256" x2="1705" y1="772.1191" y2="772.1191"/><text fill="#000000" font-family="sans-serif" font-size="13" lengthAdjust="spacing" textLength="49" x="1268" y="767.377">courses</text><polygon fill="#181818" points="441,797.4297,431,801.4297,441,805.4297,437,801.4297" style="stroke:#181818;stroke-width:1.0;"/><line style="stroke:#181818;stroke-width:1.0;" x1="435" x2="1245" y1="801.4297" y2="801.4297"/><text fill="#000000" font-family="sans-serif" font-size="13" lengthAdjust="spacing" textLength="49" x="447" y="796.6875">courses</text><polygon fill="#181818" points="1347.5,826.7402,1357.5,830.7402,1347.5,834.7402,1351.5,830.7402" style="stroke:#181818;stroke-width:1.0;"/><line style="stroke:#181818;stroke-width:1.0;" x1="430" x2="1353.5" y1="830.7402" y2="830.7402"/><text fill="#000000" font-family="sans-serif" font-size="13" lengthAdjust="spacing" textLength="69" x="437" y="825.998">getExams()</text><polygon fill="#181818" points="441,856.0508,431,860.0508,441,864.0508,437,860.0508" style="stroke:#181818;stroke-width:1.0;"/><line style="stroke:#181818;stroke-width:1.0;" x1="435" x2="1358.5" y1="860.0508" y2="860.0508"/><text fill="#000000" font-family="sans-serif" font-size="13" lengthAdjust="spacing" textLength="41" x="447" y="855.3086">exams</text><polygon fill="#181818" points="1447.5,885.3613,1457.5,889.3613,1447.5,893.3613,1451.5,889.3613" style="stroke:#181818;stroke-width:1.0;"/><line style="stroke:#181818;stroke-width:1.0;" x1="1364.5" x2="1453.5" y1="889.3613" y2="889.3613"/><text fill="#000000" font-family="sans-serif" font-size="13" lengthAdjust="spacing" textLength="71" x="1371.5" y="884.6191">getGrades()</text><polygon fill="#181818" points="441,914.6719,431,918.6719,441,922.6719,437,918.6719" style="stroke:#181818;stroke-width:1.0;"/><line style="stroke:#181818;stroke-width:1.0;" x1="435" x2="1463.5" y1="918.6719" y2="918.6719"/><text fill="#000000" font-family="sans-serif" font-size="13" lengthAdjust="spacing" textLength="42" x="447" y="913.9297">grades</text><polygon fill="#181818" points="238.5,943.9824,228.5,947.9824,238.5,951.9824,234.5,947.9824" style="stroke:#181818;stroke-width:1.0;"/><line style="stroke:#181818;stroke-width:1.0;stroke-dasharray:2.0,2.0;" x1="232.5" x2="424" y1="947.9824" y2="947.9824"/><text fill="#000000" font-family="sans-serif" font-size="13" lengthAdjust="spacing" textLength="42" x="244.5" y="943.2402">grades</text><polygon fill="#181818" points="50.5,988.6035,40.5,992.6035,50.5,996.6035,46.5,992.6035" style="stroke:#181818;stroke-width:1.0;"/><line style="stroke:#181818;stroke-width:1.0;" x1="44.5" x2="221.5" y1="992.6035" y2="992.6035"/><text fill="#000000" font-family="sans-serif" font-size="13" lengthAdjust="spacing" textLength="120" x="56.5" y="972.5508">show list of grades</text><text fill="#000000" font-family="sans-serif" font-size="13" lengthAdjust="spacing" textLength="149" x="56.5" y="987.8613">of courses user teaches</text><!--SRC=[VLNBRjim4BppAtYq3-a76881mN0Q0mLQnCaj5qPQsqGbKY1fD-xNT_cGlAAaNXBAEpEx72wNdJ1ELh8Jol4t4DK531UMbvNJXdKa-4DQj_yIxNSZQh3l1u_2lqNH6R2Wd71Ig-rsmacY3-fEAsTqqyH4vAieHDSriffJAg_kWabIy0Zc9Yi8XLxTtmjIRVmfextZpqUm5ZcXNlBfAM6LKNw1iLWsg0fyRV3b-ZBz4hVxY6VCL-YqbUZR_Lbu- -wUs2-BuXHN6McdhyP2J15MHL7hLiYyBE-VHuN_2vZWhmV51K7LmebFWUhfDEn1nNIFcZqlHIUXeZ33nuoQjtLMQ5c2XGRZJqzRtqGRvFost6dUeBNy7Fg4wzE74at30RTikRW9sOZF1Zoi1OPkofjmW7o64YX4Mcd3AmCONAtPND1dYPlqTbf43MeF76E4WmgnquZoV1YKlHeW_Ggrz-T5s5BTVvvMoLpTWFtsjYztB_lNDOjaRmRfKBg9eRw0N4YT6df5z4RRJd5MGoQNwOsB4FbMg5q4oYWjJtt56CrBULds-MFy3sPwcdEI_lPk-D244kp8rmHXFHHP_TNDgaZHKGdfRjCTze9PAG_HCpZlGbaPhUxjg9W4OZqOUTCR5HJ83NmskZtUSJAruP2yu-IW9dmsLHoL9s9TT4jJ3LBWo8yPSh-dPKFmhiTZj2dHmPRO8MS5DMsvPNCcSmiFHggwND9TfJBNgwbHkHPRoZ5kb9XdnhI9tf9rCnA3TNbNUsHeWvanvcCilIbvZZ1HIJ0yAa4eFj6eDEhae3LyUpGBb5mt3cxA3TXnuVt8duBfxEtdTdmdS7PTz9_uEkXJedueN2Qxme3XBdWzqiJNuHy0]--></g></svg>