<?xml version="1.0" encoding="us-ascii" standalone="no"?><svg xmlns="http://www.w3.org/2000/svg" xmlns:xlink="http://www.w3.org/1999/xlink" contentStyleType="text/css" height="761px" preserveAspectRatio="none" style="width:1236px;height:761px;background:#FFFFFF;" version="1.1" viewBox="0 0 1236 761" width="1236px" zoomAndPan="magnify"><defs/><g><!--cluster User Aggregate--><g id="cluster_User Aggregate"><rect fill="none" height="196" rx="2.5" ry="2.5" style="stroke:#000000;stroke-width:1.5;" width="499.5" x="169.5" y="240"/><text fill="#000000" font-family="sans-serif" font-size="14" font-weight="bold" lengthAdjust="spacing" textLength="110" x="364.25" y="255.5352">User Aggregate</text></g><!--cluster Student Aggregate--><g id="cluster_Student Aggregate"><rect fill="none" height="209" rx="2.5" ry="2.5" style="stroke:#000000;stroke-width:1.5;" width="362" x="7" y="7"/><text fill="#000000" font-family="sans-serif" font-size="14" font-weight="bold" lengthAdjust="spacing" textLength="133" x="121.5" y="22.5352">Student Aggregate</text></g><!--cluster Manager Aggregate--><g id="cluster_Manager Aggregate"><rect fill="none" height="91" rx="2.5" ry="2.5" style="stroke:#000000;stroke-width:1.5;" width="154" x="184" y="532"/><text fill="#000000" font-family="sans-serif" font-size="14" font-weight="bold" lengthAdjust="spacing" textLength="139" x="191.5" y="547.5352">Manager Aggregate</text></g><!--cluster Course Aggregate--><g id="cluster_Course Aggregate"><rect fill="none" height="253" rx="2.5" ry="2.5" style="stroke:#181818;stroke-width:1.0;" width="721" x="509" y="460"/><text fill="#000000" font-family="sans-serif" font-size="14" font-weight="bold" lengthAdjust="spacing" textLength="128" x="805.5" y="475.5352">Course Aggregate</text></g><!--class User--><g id="elem_User"><rect codeLine="13" fill="#F1F1F1" height="48.6211" id="User" rx="2.5" ry="2.5" style="stroke:#181818;stroke-width:0.5;" width="66" x="228" y="371.69"/><rect fill="#444444" height="40.6211" rx="2.5" ry="2.5" style="stroke:#444444;stroke-width:0.5;" width="66" x="228" y="371.69"/><rect fill="#444444" height="2.5" style="stroke:#444444;stroke-width:0.5;" width="66" x="228" y="409.8111"/><rect codeLine="13" fill="none" height="48.6211" id="User" rx="2.5" ry="2.5" style="stroke:#181818;stroke-width:0.5;" width="66" x="228" y="371.69"/><ellipse cx="243" cy="392.0005" fill="#ADD1B2" rx="11" ry="11" style="stroke:#181818;stroke-width:1.0;"/><path d="M247.1143,398.0005 L239.3945,398.0005 L239.3945,385.6075 L247.1143,385.6075 L247.1143,387.7657 L241.8433,387.7657 L241.8433,390.4385 L246.6162,390.4385 L246.6162,392.5967 L241.8433,392.5967 L241.8433,395.8423 L247.1143,395.8423 Z " fill="#000000"/><text fill="#000000" font-family="sans-serif" font-size="12" font-style="italic" lengthAdjust="spacing" textLength="38" x="255" y="388.2916">&#171;Root&#187;</text><text fill="#FFFFFF" font-family="sans-serif" font-size="14" lengthAdjust="spacing" textLength="31" x="258.5" y="404.358">User</text><line style="stroke:#181818;stroke-width:0.5;" x1="229" x2="293" y1="412.3111" y2="412.3111"/></g><g id="elem_email"><rect fill="#F1F1F1" height="50.6211" style="stroke:#181818;stroke-width:0.5;" width="64" x="581" y="369.69"/><text fill="#000000" font-family="sans-serif" font-size="12" font-style="italic" lengthAdjust="spacing" textLength="54" x="586" y="381.2916">&#171;Identity&#187;</text><text fill="#000000" font-family="sans-serif" font-size="14" lengthAdjust="spacing" textLength="37" x="594.5" y="399.358">email</text><line style="stroke:#181818;stroke-width:0.5;" x1="582" x2="644" y1="404.3111" y2="404.3111"/></g><g id="elem_personaInformation"><rect fill="#F1F1F1" height="61.4648" style="stroke:#181818;stroke-width:0.5;" width="151" x="185.5" y="275.27"/><text fill="#000000" font-family="sans-serif" font-size="14" lengthAdjust="spacing" textLength="137" x="192.5" y="290.8052">personaInformation</text><line style="stroke:#181818;stroke-width:0.5;" x1="186.5" x2="335.5" y1="295.7583" y2="295.7583"/><text fill="#000000" font-family="sans-serif" font-size="14" lengthAdjust="spacing" textLength="63" x="191.5" y="313.2934">birthdate</text><text fill="#000000" font-family="sans-serif" font-size="14" lengthAdjust="spacing" textLength="77" x="191.5" y="329.7817">taxNumber</text></g><g id="elem_password"><rect fill="#F1F1F1" height="36.4883" style="stroke:#181818;stroke-width:0.5;" width="80" x="573" y="297.76"/><text fill="#000000" font-family="sans-serif" font-size="14" lengthAdjust="spacing" textLength="66" x="580" y="313.2952">password</text><line style="stroke:#181818;stroke-width:0.5;" x1="574" x2="652" y1="318.2483" y2="318.2483"/></g><!--class designationStudent--><g id="elem_designationStudent"><rect codeLine="31" fill="#F1F1F1" height="72.9766" id="designationStudent" rx="2.5" ry="2.5" style="stroke:#181818;stroke-width:0.5;" width="78" x="222" y="41.52"/><rect fill="#444444" height="32" rx="2.5" ry="2.5" style="stroke:#444444;stroke-width:0.5;" width="78" x="222" y="41.52"/><rect fill="#444444" height="2.5" style="stroke:#444444;stroke-width:0.5;" width="78" x="222" y="71.02"/><rect codeLine="31" fill="none" height="72.9766" id="designationStudent" rx="2.5" ry="2.5" style="stroke:#181818;stroke-width:0.5;" width="78" x="222" y="41.52"/><ellipse cx="240.6" cy="57.52" fill="#ADD1B2" rx="11" ry="11" style="stroke:#181818;stroke-width:1.0;"/><path d="M244.7143,63.52 L236.9945,63.52 L236.9945,51.1269 L244.7143,51.1269 L244.7143,53.2851 L239.4433,53.2851 L239.4433,55.958 L244.2162,55.958 L244.2162,58.1162 L239.4433,58.1162 L239.4433,61.3618 L244.7143,61.3618 Z " fill="#000000"/><text fill="#FFFFFF" font-family="sans-serif" font-size="14" lengthAdjust="spacing" textLength="38" x="255.4" y="62.811">name</text><line style="stroke:#181818;stroke-width:0.5;" x1="223" x2="299" y1="73.52" y2="73.52"/><text fill="#000000" font-family="sans-serif" font-size="14" lengthAdjust="spacing" textLength="66" x="228" y="91.0552">firstName</text><text fill="#000000" font-family="sans-serif" font-size="14" lengthAdjust="spacing" textLength="63" x="228" y="107.5434">lastName</text></g><!--class Student--><g id="elem_Student"><rect codeLine="36" fill="#F1F1F1" height="40" id="Student" rx="2.5" ry="2.5" style="stroke:#181818;stroke-width:0.5;" width="85" x="23" y="160"/><rect fill="#444444" height="32" rx="2.5" ry="2.5" style="stroke:#444444;stroke-width:0.5;" width="85" x="23" y="160"/><rect fill="#444444" height="2.5" style="stroke:#444444;stroke-width:0.5;" width="85" x="23" y="189.5"/><rect codeLine="36" fill="none" height="40" id="Student" rx="2.5" ry="2.5" style="stroke:#181818;stroke-width:0.5;" width="85" x="23" y="160"/><ellipse cx="38" cy="176" fill="#ADD1B2" rx="11" ry="11" style="stroke:#181818;stroke-width:1.0;"/><path d="M42.1143,182 L34.3945,182 L34.3945,169.6069 L42.1143,169.6069 L42.1143,171.7651 L36.8433,171.7651 L36.8433,174.438 L41.6162,174.438 L41.6162,176.5962 L36.8433,176.5962 L36.8433,179.8418 L42.1143,179.8418 Z " fill="#000000"/><text fill="#FFFFFF" font-family="sans-serif" font-size="14" lengthAdjust="spacing" textLength="53" x="52" y="181.291">Student</text><line style="stroke:#181818;stroke-width:0.5;" x1="24" x2="107" y1="192" y2="192"/></g><g id="elem_mechanographicNumber"><rect fill="#F1F1F1" height="50.6211" style="stroke:#181818;stroke-width:0.5;" width="184" x="169" y="149.69"/><text fill="#000000" font-family="sans-serif" font-size="12" font-style="italic" lengthAdjust="spacing" textLength="54" x="234" y="161.2916">&#171;Identity&#187;</text><text fill="#000000" font-family="sans-serif" font-size="14" lengthAdjust="spacing" textLength="170" x="176" y="179.358">mechanographicNumber</text><line style="stroke:#181818;stroke-width:0.5;" x1="170" x2="352" y1="184.3111" y2="184.3111"/></g><!--class Manager--><g id="elem_Manager"><rect codeLine="44" fill="#F1F1F1" height="40" id="Manager" rx="2.5" ry="2.5" style="stroke:#181818;stroke-width:0.5;" width="92" x="215" y="567"/><rect fill="#444444" height="32" rx="2.5" ry="2.5" style="stroke:#444444;stroke-width:0.5;" width="92" x="215" y="567"/><rect fill="#444444" height="2.5" style="stroke:#444444;stroke-width:0.5;" width="92" x="215" y="596.5"/><rect codeLine="44" fill="none" height="40" id="Manager" rx="2.5" ry="2.5" style="stroke:#181818;stroke-width:0.5;" width="92" x="215" y="567"/><ellipse cx="230" cy="583" fill="#ADD1B2" rx="11" ry="11" style="stroke:#181818;stroke-width:1.0;"/><path d="M234.1143,589 L226.3945,589 L226.3945,576.6069 L234.1143,576.6069 L234.1143,578.7651 L228.8433,578.7651 L228.8433,581.438 L233.6162,581.438 L233.6162,583.5962 L228.8433,583.5962 L228.8433,586.8418 L234.1143,586.8418 Z " fill="#000000"/><text fill="#FFFFFF" font-family="sans-serif" font-size="14" lengthAdjust="spacing" textLength="60" x="244" y="588.291">Manager</text><line style="stroke:#181818;stroke-width:0.5;" x1="216" x2="306" y1="599" y2="599"/></g><!--class Course--><g id="elem_Course"><rect codeLine="51" fill="#F1F1F1" height="81.5977" id="Course" rx="2.5" ry="2.5" style="stroke:#181818;stroke-width:0.5;" width="82" x="882" y="580.21"/><rect fill="#444444" height="40.6211" rx="2.5" ry="2.5" style="stroke:#444444;stroke-width:0.5;" width="82" x="882" y="580.21"/><rect fill="#444444" height="2.5" style="stroke:#444444;stroke-width:0.5;" width="82" x="882" y="618.3311"/><rect codeLine="51" fill="none" height="81.5977" id="Course" rx="2.5" ry="2.5" style="stroke:#181818;stroke-width:0.5;" width="82" x="882" y="580.21"/><ellipse cx="897.45" cy="600.5205" fill="#ADD1B2" rx="11" ry="11" style="stroke:#181818;stroke-width:1.0;"/><path d="M901.5643,606.5205 L893.8445,606.5205 L893.8445,594.1275 L901.5643,594.1275 L901.5643,596.2857 L896.2933,596.2857 L896.2933,598.9585 L901.0662,598.9585 L901.0662,601.1167 L896.2933,601.1167 L896.2933,604.3623 L901.5643,604.3623 Z " fill="#000000"/><text fill="#000000" font-family="sans-serif" font-size="12" font-style="italic" lengthAdjust="spacing" textLength="38" x="917.05" y="596.8116">&#171;Root&#187;</text><text fill="#FFFFFF" font-family="sans-serif" font-size="14" lengthAdjust="spacing" textLength="49" x="911.55" y="612.878">Course</text><line style="stroke:#181818;stroke-width:0.5;" x1="883" x2="963" y1="620.8311" y2="620.8311"/><text fill="#000000" font-family="sans-serif" font-size="14" lengthAdjust="spacing" textLength="70" x="888" y="638.3662">maxEnroll</text><text fill="#000000" font-family="sans-serif" font-size="14" lengthAdjust="spacing" textLength="66" x="888" y="654.8545">minEnroll</text></g><g id="elem_CourseID"><rect fill="#F1F1F1" height="50.6211" style="stroke:#181818;stroke-width:0.5;" width="77" x="1129.5" y="646.69"/><text fill="#000000" font-family="sans-serif" font-size="12" font-style="italic" lengthAdjust="spacing" textLength="54" x="1141" y="658.2916">&#171;Identity&#187;</text><text fill="#000000" font-family="sans-serif" font-size="14" lengthAdjust="spacing" textLength="63" x="1136.5" y="676.358">CourseID</text><line style="stroke:#181818;stroke-width:0.5;" x1="1130.5" x2="1205.5" y1="681.3111" y2="681.3111"/></g><g id="elem_Name"><rect fill="#F1F1F1" height="36.4883" style="stroke:#181818;stroke-width:0.5;" width="53" x="1141.5" y="574.76"/><text fill="#000000" font-family="sans-serif" font-size="14" lengthAdjust="spacing" textLength="39" x="1148.5" y="590.2952">Name</text><line style="stroke:#181818;stroke-width:0.5;" x1="1142.5" x2="1193.5" y1="595.2483" y2="595.2483"/></g><g id="elem_CourseState"><rect fill="#F1F1F1" height="50.6211" style="stroke:#181818;stroke-width:0.5;" width="97" x="874.5" y="494.69"/><text fill="#000000" font-family="sans-serif" font-size="12" font-style="italic" lengthAdjust="spacing" textLength="44" x="901" y="506.2916">&#171;Enum&#187;</text><text fill="#000000" font-family="sans-serif" font-size="14" lengthAdjust="spacing" textLength="83" x="881.5" y="524.358">CourseState</text><line style="stroke:#181818;stroke-width:0.5;" x1="875.5" x2="970.5" y1="529.3111" y2="529.3111"/></g><g id="elem_StudentEnrollmentState"><rect fill="#F1F1F1" height="50.6211" style="stroke:#181818;stroke-width:0.5;" width="176" x="525" y="566.69"/><text fill="#000000" font-family="sans-serif" font-size="12" font-style="italic" lengthAdjust="spacing" textLength="44" x="591" y="578.2916">&#171;enum&#187;</text><text fill="#000000" font-family="sans-serif" font-size="14" lengthAdjust="spacing" textLength="162" x="532" y="596.358">StudentEnrollmentState</text><line style="stroke:#181818;stroke-width:0.5;" x1="526" x2="700" y1="601.3111" y2="601.3111"/></g><g id="elem_Description"><rect fill="#F1F1F1" height="36.4883" style="stroke:#181818;stroke-width:0.5;" width="92" x="1122" y="503.76"/><text fill="#000000" font-family="sans-serif" font-size="14" lengthAdjust="spacing" textLength="78" x="1129" y="519.2952">Description</text><line style="stroke:#181818;stroke-width:0.5;" x1="1123" x2="1213" y1="524.2483" y2="524.2483"/></g><g id="elem_EnrolledStudents"><rect fill="#F1F1F1" height="36.4883" style="stroke:#181818;stroke-width:0.5;" width="131" x="547.5" y="494.76"/><text fill="#000000" font-family="sans-serif" font-size="14" lengthAdjust="spacing" textLength="117" x="554.5" y="510.2952">EnrolledStudents</text><line style="stroke:#181818;stroke-width:0.5;" x1="548.5" x2="677.5" y1="515.2483" y2="515.2483"/></g><g id="elem_AssignedTeachers"><rect fill="#F1F1F1" height="44.9766" style="stroke:#181818;stroke-width:0.5;" width="139" x="543.5" y="652.52"/><text fill="#000000" font-family="sans-serif" font-size="14" lengthAdjust="spacing" textLength="125" x="550.5" y="668.0552">AssignedTeachers</text><line style="stroke:#181818;stroke-width:0.5;" x1="544.5" x2="681.5" y1="673.0083" y2="673.0083"/><text fill="#000000" font-family="sans-serif" font-size="14" lengthAdjust="spacing" textLength="74" x="549.5" y="690.5434">isInCharge</text></g><g id="elem_GMN39"><path d="M785,729.35 L785,754.6605 L1061,754.6605 L1061,739.35 L1051,729.35 L785,729.35 " fill="#FEFFDD" style="stroke:#181818;stroke-width:0.5;"/><path d="M1051,729.35 L1051,739.35 L1061,739.35 L1051,729.35 " fill="#FEFFDD" style="stroke:#181818;stroke-width:1.0;"/><text fill="#000000" font-family="sans-serif" font-size="13" lengthAdjust="spacing" textLength="255" x="791" y="746.9184">only one teacher is in charge of a course</text></g><!--link Student to User--><g id="link_Student_User"><path codeLine="87" d="M72.62,200.25 C84.36,235.89 113.21,310.17 161.5,354 C178.61,369.54 202.33,379.89 222.21,386.43 " fill="none" id="Student-to-User" style="stroke:#181818;stroke-width:1.0;"/><polygon fill="#181818" points="226.7,388.17,219.3316,381.6349,221.9342,386.6575,216.9117,389.2601,226.7,388.17" style="stroke:#181818;stroke-width:1.0;"/><text fill="#000000" font-family="sans-serif" font-size="13" lengthAdjust="spacing" textLength="8" x="75.7475" y="220.6667">1</text><text fill="#000000" font-family="sans-serif" font-size="13" lengthAdjust="spacing" textLength="8" x="212.0069" y="400.7022">1</text></g><!--reverse link User to Manager--><g id="link_User_Manager"><path codeLine="88" d="M222.15,405.56 C192,415.3 152.46,433.76 134.75,466.5 C111.11,510.21 169.57,547.37 214.65,568.44 " fill="none" id="User-backto-Manager" style="stroke:#181818;stroke-width:1.0;"/><polygon fill="#181818" points="226.66,403.84,216.8777,402.6965,221.8861,405.3265,219.2561,410.3348,226.66,403.84" style="stroke:#181818;stroke-width:1.0;"/><text fill="#000000" font-family="sans-serif" font-size="13" lengthAdjust="spacing" textLength="8" x="211.9586" y="419.6041">1</text><text fill="#000000" font-family="sans-serif" font-size="13" lengthAdjust="spacing" textLength="8" x="198.9402" y="579.3386">1</text></g><!--link User to password--><g id="link_User_password"><path codeLine="89" d="M294.3,388.62 C357.06,374.28 495.57,342.62 567.18,326.25 " fill="none" id="User-to-password" style="stroke:#181818;stroke-width:1.0;"/><polygon fill="#181818" points="571.64,325,561.9747,323.1075,566.7659,326.1149,563.7585,330.9061,571.64,325" style="stroke:#181818;stroke-width:1.0;"/><text fill="#000000" font-family="sans-serif" font-size="13" lengthAdjust="spacing" textLength="8" x="301.9931" y="383.1513">1</text><text fill="#000000" font-family="sans-serif" font-size="13" lengthAdjust="spacing" textLength="8" x="557.0156" y="340.4303">1</text></g><!--link Student to mechanographicNumber--><g id="link_Student_mechanographicNumber"><path codeLine="90" d="M108.49,178.92 C124.6,178.5 143.74,178.01 162.9,177.51 " fill="none" id="Student-to-mechanographicNumber" style="stroke:#181818;stroke-width:1.0;"/><polygon fill="#181818" points="167.85,177.36,158.7502,173.5927,162.8517,177.4885,158.9558,181.59,167.85,177.36" style="stroke:#181818;stroke-width:1.0;"/><text fill="#000000" font-family="sans-serif" font-size="13" lengthAdjust="spacing" textLength="8" x="115.979" y="192.5363">1</text><text fill="#000000" font-family="sans-serif" font-size="13" lengthAdjust="spacing" textLength="8" x="152.8876" y="190.7577">1</text></g><!--link User to email--><g id="link_User_email"><path codeLine="91" d="M294.3,395.91 C359.4,395.73 506.02,395.31 574.91,395.11 " fill="none" id="User-to-email" style="stroke:#181818;stroke-width:1.0;"/><polygon fill="#181818" points="579.54,395.09,570.5286,391.1157,574.54,395.1043,570.5515,399.1157,579.54,395.09" style="stroke:#181818;stroke-width:1.0;"/><text fill="#000000" font-family="sans-serif" font-size="13" lengthAdjust="spacing" textLength="8" x="301.9931" y="410.0386">1</text><text fill="#000000" font-family="sans-serif" font-size="13" lengthAdjust="spacing" textLength="8" x="565.0201" y="409.2557">1</text></g><!--link Student to designationStudent--><g id="link_Student_designationStudent"><path codeLine="93" d="M105.19,159.61 C137.33,142.67 183.04,118.58 216.45,100.96 " fill="none" id="Student-to-designationStudent" style="stroke:#181818;stroke-width:1.0;"/><polygon fill="#181818" points="220.7,98.19,210.8725,98.8381,216.2745,100.517,214.5956,105.919,220.7,98.19" style="stroke:#181818;stroke-width:1.0;"/><text fill="#000000" font-family="sans-serif" font-size="13" lengthAdjust="spacing" textLength="8" x="107.2278" y="149.378">1</text><text fill="#000000" font-family="sans-serif" font-size="13" lengthAdjust="spacing" textLength="8" x="205.9872" y="115.7168">1</text></g><!--link Student to personaInformation--><g id="link_Student_personaInformation"><path codeLine="94" d="M97.59,200.25 C127.24,219.56 172.47,249.01 207.67,271.93 " fill="none" id="Student-to-personaInformation" style="stroke:#181818;stroke-width:1.0;"/><polygon fill="#181818" points="211.35,274.98,205.982,266.7226,207.1571,272.2561,201.6237,273.4312,211.35,274.98" style="stroke:#181818;stroke-width:1.0;"/><text fill="#000000" font-family="sans-serif" font-size="13" lengthAdjust="spacing" textLength="8" x="97.4903" y="220.6667">1</text><text fill="#000000" font-family="sans-serif" font-size="13" lengthAdjust="spacing" textLength="8" x="193.4909" y="264.6351">1</text></g><!--link Manager to StudentEnrollmentState--><g id="link_Manager_StudentEnrollmentState"><path codeLine="98" d="M307.4,587.65 C360.74,588.42 450.63,589.7 518.97,590.68 " fill="none" id="Manager-to-StudentEnrollmentState" style="stroke:#181818;stroke-width:1.0;"/><polygon fill="#181818" points="523.69,590.76,514.7481,586.6318,518.6905,590.6886,514.6338,594.631,523.69,590.76" style="stroke:#181818;stroke-width:1.0;"/><text fill="#000000" font-family="sans-serif" font-size="13" lengthAdjust="spacing" textLength="106" x="386" y="585.5684">approves/rejects</text><text fill="#000000" font-family="sans-serif" font-size="13" lengthAdjust="spacing" textLength="8" x="315.1175" y="601.4901">1</text><text fill="#000000" font-family="sans-serif" font-size="13" lengthAdjust="spacing" textLength="6" x="511.1284" y="603.8596">*</text></g><!--reverse link AssignedTeachers to Course--><g id="link_AssignedTeachers_Course"><path codeLine="99" d="M688.55,661.93 C749.33,651.28 832.85,636.63 881.76,628.06 " fill="none" id="AssignedTeachers-backto-Course" style="stroke:#181818;stroke-width:1.0;"/><polygon fill="#181818" points="683.74,662.95,693.3002,665.3171,688.6632,662.077,691.9033,657.44,683.74,662.95" style="stroke:#181818;stroke-width:1.0;"/><text fill="#000000" font-family="sans-serif" font-size="13" lengthAdjust="spacing" textLength="22" x="732" y="648.5684">has</text><text fill="#000000" font-family="sans-serif" font-size="13" lengthAdjust="spacing" textLength="6" x="690.6959" y="675.0368">*</text><text fill="#000000" font-family="sans-serif" font-size="13" lengthAdjust="spacing" textLength="8" x="865.9844" y="643.156">1</text></g><!--reverse link EnrolledStudents to Course--><g id="link_EnrolledStudents_Course"><path codeLine="100" d="M672.75,533.61 C733.98,555.07 828.28,588.14 881.62,606.84 " fill="none" id="EnrolledStudents-backto-Course" style="stroke:#181818;stroke-width:1.0;"/><polygon fill="#181818" points="668.3,531.69,675.4642,538.4483,673.0171,533.3481,678.1172,530.901,668.3,531.69" style="stroke:#181818;stroke-width:1.0;"/><text fill="#000000" font-family="sans-serif" font-size="13" lengthAdjust="spacing" textLength="22" x="732" y="551.5684">has</text><text fill="#000000" font-family="sans-serif" font-size="13" lengthAdjust="spacing" textLength="6" x="675.7281" y="551.6668">*</text><text fill="#000000" font-family="sans-serif" font-size="13" lengthAdjust="spacing" textLength="8" x="866.1039" y="618.3296">1</text></g><!--link Course to CourseState--><g id="link_Course_CourseState"><path codeLine="101" d="M923,579.97 C923,570.53 923,561.09 923,551.65 " fill="none" id="Course-to-CourseState" style="stroke:#181818;stroke-width:1.0;"/><polygon fill="#181818" points="923,546.77,919,555.77,923,551.77,927,555.77,923,546.77" style="stroke:#181818;stroke-width:1.0;"/><text fill="#000000" font-family="sans-serif" font-size="13" lengthAdjust="spacing" textLength="8" x="914.3375" y="569.5248">1</text><text fill="#000000" font-family="sans-serif" font-size="13" lengthAdjust="spacing" textLength="8" x="914.075" y="566.0678">1</text></g><!--link Course to CourseID--><g id="link_Course_CourseID"><path codeLine="102" d="M964.4,629.48 C1008.4,638.72 1078.53,653.44 1123.65,662.91 " fill="none" id="Course-to-CourseID" style="stroke:#181818;stroke-width:1.0;"/><polygon fill="#181818" points="1128.3,664.09,1120.3137,658.3264,1123.4066,663.0628,1118.6702,666.1558,1128.3,664.09" style="stroke:#181818;stroke-width:1.0;"/><text fill="#000000" font-family="sans-serif" font-size="13" lengthAdjust="spacing" textLength="8" x="971.9194" y="644.7193">1</text><text fill="#000000" font-family="sans-serif" font-size="13" lengthAdjust="spacing" textLength="8" x="1113.4272" y="676.6113">1</text></g><!--link Course to Name--><g id="link_Course_Name"><path codeLine="103" d="M964.4,616.35 C1012.35,610.82 1091.31,601.73 1135.15,596.67 " fill="none" id="Course-to-Name" style="stroke:#181818;stroke-width:1.0;"/><polygon fill="#181818" points="1140.1,595.99,1130.7021,593.0439,1135.1327,596.561,1131.6156,600.9916,1140.1,595.99" style="stroke:#181818;stroke-width:1.0;"/><text fill="#000000" font-family="sans-serif" font-size="13" lengthAdjust="spacing" textLength="8" x="971.9194" y="611.9303">1</text><text fill="#000000" font-family="sans-serif" font-size="13" lengthAdjust="spacing" textLength="8" x="1125.5681" y="611.1521">1</text></g><!--link Course to Description--><g id="link_Course_Description"><path codeLine="104" d="M964.4,604.55 C1006.03,587.59 1071.03,561.1 1116.14,542.73 " fill="none" id="Course-to-Description" style="stroke:#181818;stroke-width:1.0;"/><polygon fill="#181818" points="1120.54,540.53,1110.696,540.2213,1115.9095,542.4165,1113.7144,547.63,1120.54,540.53" style="stroke:#181818;stroke-width:1.0;"/><text fill="#000000" font-family="sans-serif" font-size="13" lengthAdjust="spacing" textLength="8" x="971.9194" y="598.1759">1</text><text fill="#000000" font-family="sans-serif" font-size="13" lengthAdjust="spacing" textLength="8" x="1106.1287" y="556.9437">1</text></g><!--link Student to EnrolledStudents--><g id="link_Student_EnrolledStudents"><path codeLine="105" d="M66.82,200.45 C68.82,252.04 81.78,387.98 161.5,453 C270.01,541.5 444.57,536.14 541.46,524.52 " fill="none" id="Student-to-EnrolledStudents" style="stroke:#181818;stroke-width:1.0;"/><polygon fill="#181818" points="546.15,523.81,536.7346,520.9204,541.1862,524.4108,537.6959,528.8625,546.15,523.81" style="stroke:#181818;stroke-width:1.0;"/><text fill="#000000" font-family="sans-serif" font-size="13" lengthAdjust="spacing" textLength="54" x="234" y="449.5684">requests</text><text fill="#000000" font-family="sans-serif" font-size="13" lengthAdjust="spacing" textLength="8" x="58.0997" y="220.5717">1</text><text fill="#000000" font-family="sans-serif" font-size="13" lengthAdjust="spacing" textLength="8" x="531.5102" y="538.3975">1</text></g><!--link EnrolledStudents to StudentEnrollmentState--><g id="link_EnrolledStudents_StudentEnrollmentState"><path codeLine="106" d="M613,531.36 C613,541.12 613,550.88 613,560.64 " fill="none" id="EnrolledStudents-to-StudentEnrollmentState" style="stroke:#181818;stroke-width:1.0;"/><polygon fill="#181818" points="613,565.39,617,556.39,613,560.39,609,556.39,613,565.39" style="stroke:#181818;stroke-width:1.0;"/><text fill="#000000" font-family="sans-serif" font-size="13" lengthAdjust="spacing" textLength="8" x="603.775" y="551.8943">1</text><text fill="#000000" font-family="sans-serif" font-size="13" lengthAdjust="spacing" textLength="8" x="604.025" y="555.9255">1</text></g><!--link AssignedTeachers to GMN39--><g id="link_AssignedTeachers_GMN39"><path d="M682.61,690.42 C713.83,697.39 751.27,705.69 785,713 C809.23,718.26 835.91,723.93 859.23,728.86 " fill="none" id="AssignedTeachers-GMN39" style="stroke:#181818;stroke-width:1.0;stroke-dasharray:7.0,7.0;"/></g><!--SRC=[dLNRZjCm47ttLrZb0GafAaWyLLMbqYsY3omIXGzmasbYDh73s84jLVyTNzDSzs4Z9OuzPsREt9A2Pq0hq8NC52dXhAcM57bUQ9fnX5HpAOXwug9co2gQbaofhTR8Jus6Goh5aVy3-du8-Io5tibI8cMDbXNJF1r2lW3B03-nz2b7sOZCmzzyxE1g8sGv7FMb16h9C96NG0XvkrmcoUYcFnKWdPAucv1WZouSS9ld23dJiBWIGisr5vhhYxUoNd-NKcyszEf4Du_uTlfbM52e62yDv921Kvc1rO1A2dOGPuas1L84cBrE77MH6U_jYMRFZqrr0fmoPHBsLsBMkhbreZdgnXAP3IW3nNFX24GeKtGXM6MH5dZcgFIZsRkTgSvzS-kPYlfJuLQG5ap875bTyDI7qajILEfo_yg4MVl5wFYBuexgJErtia45BrI_THcGTu-ssB6vN2b9y1wGiHU8Pr6nvxr0MPP-nqNO6MuX4rxly328_WwmsQNNaSPH6pf62KHJEIAtA0zvzvugypO1ZTW7K2doElIREOy2hmrPCAPwMbjbcmIo7y3ImZIkZvMhWzWL37EO9RkF38XlorVEflNcC8iFfY19cRYNG7KeHIyDtT6N9id6hN5ad3JsRHSmrQyzKmPeSMxQoQoPyNJDGiSVXDUtitCInwDrycunroehokeQvHzGImHRHkKi3ClkJAmJdzz0OaKBfi9K3ZheHNGui9b4dyfEvmmGROxYx0mjU0FjPwadiKkdwuVv3uWH-PNvf_nkGEdfu1mhzBhJIVL54DAar_yovNcSq1MLehoO1r3jpynKKIvewkRAwZ2Qkd3-0m00]--></g></svg>