<?xml version="1.0" encoding="UTF-8" standalone="no"?>
<!DOCTYPE svg PUBLIC "-//W3C//DTD SVG 1.1//EN"
 "http://www.w3.org/Graphics/SVG/1.1/DTD/svg11.dtd">
<!-- Generated by graphviz version 2.44.1 (20200629.0846)
 -->
<!-- Title: g Pages: 1 -->
<svg width="1752pt" height="1136pt"
 viewBox="0.00 0.00 1752.00 1136.00" xmlns="http://www.w3.org/2000/svg" xmlns:xlink="http://www.w3.org/1999/xlink">
<g id="graph0" class="graph" transform="scale(1 1) rotate(0) translate(4 1132)">
<title>g</title>
<polygon fill="white" stroke="transparent" points="-4,4 -4,-1132 1748,-1132 1748,4 -4,4"/>
<g id="clust1" class="cluster">
<title>cluster_1911013184</title>
<polygon fill="#ececec" stroke="black" points="8,-8 8,-1120 1736,-1120 1736,-8 8,-8"/>
<text text-anchor="middle" x="37.37" y="-1103.4" font-family="Times New Roman,serif" font-size="14.00">ecourse</text>
</g>
<g id="clust2" class="cluster">
<title>cluster_1386234867</title>
<polygon fill="#d8d8d8" stroke="black" points="309,-698 309,-1087.2 629,-1087.2 629,-698 309,-698"/>
<text text-anchor="middle" x="327.11" y="-1070.6" font-family="Times New Roman,serif" font-size="14.00">app</text>
</g>
<g id="clust3" class="cluster">
<title>cluster_489743759</title>
<polygon fill="#d8d8d8" stroke="black" points="756,-52 756,-190.8 1728,-190.8 1728,-52 756,-52"/>
<text text-anchor="middle" x="795.09" y="-174.2" font-family="Times New Roman,serif" font-size="14.00">persistence</text>
</g>
<g id="clust4" class="cluster">
<title>cluster_861892108</title>
<polygon fill="#d8d8d8" stroke="black" points="16,-16 16,-586.4 748,-586.4 748,-16 16,-16"/>
<text text-anchor="middle" x="78.03" y="-569.8" font-family="Times New Roman,serif" font-size="14.00">coursemanagement</text>
</g>
<g id="clust5" class="cluster">
<title>cluster_925774986</title>
<polygon fill="#d8d8d8" stroke="black" points="756,-339.6 756,-872.8 1482,-872.8 1482,-339.6 756,-339.6"/>
<text text-anchor="middle" x="823.48" y="-856.2" font-family="Times New Roman,serif" font-size="14.00">usertypemanagement</text>
</g>
<!-- AssignTeacherToCourseUI1581224925 -->
<g id="node1" class="node">
<title>AssignTeacherToCourseUI1581224925</title>
<polygon fill="#ffffff" stroke="transparent" points="620.5,-1054.4 317.5,-1054.4 317.5,-932.4 620.5,-932.4 620.5,-1054.4"/>
<text text-anchor="start" x="323" y="-1036.8" font-family="Times New Roman,serif" font-size="14.00">(C)AssignTeacherToCourseUI</text>
<text text-anchor="start" x="322.75" y="-1012.8" font-family="Times New Roman,serif" font-size="14.00">&#45; &#160;&#160;controller: AssignTeacherToCourseController [1]</text>
<text text-anchor="start" x="323" y="-988.8" font-family="Times New Roman,serif" font-size="14.00">&#45; &#160;&#160;courseWidget: SelectCourseWidget [1]</text>
<text text-anchor="start" x="323" y="-964.8" font-family="Times New Roman,serif" font-size="14.00"># doShow(): boolean</text>
<text text-anchor="start" x="323" y="-940.8" font-family="Times New Roman,serif" font-size="14.00">+ headline(): String</text>
<polygon fill="black" stroke="black" points="318,-1029.4 318,-1029.4 621,-1029.4 621,-1029.4 318,-1029.4"/>
<polygon fill="black" stroke="black" points="318,-981.4 318,-981.4 621,-981.4 621,-981.4 318,-981.4"/>
<polygon fill="none" stroke="black" points="317.5,-932.4 317.5,-1054.4 620.5,-1054.4 620.5,-932.4 317.5,-932.4"/>
</g>
<!-- SelectCourseWidget375150821 -->
<g id="node2" class="node">
<title>SelectCourseWidget375150821</title>
<polygon fill="#ffffff" stroke="transparent" points="537,-780 345,-780 345,-706 537,-706 537,-780"/>
<text text-anchor="start" x="350" y="-762.4" font-family="Times New Roman,serif" font-size="14.00">(C)SelectCourseWidget</text>
<text text-anchor="start" x="349.73" y="-738.4" font-family="Times New Roman,serif" font-size="14.00">&#45; &#160;&#160;courses: Iterable&lt;Course&gt; [1]</text>
<text text-anchor="start" x="350" y="-714.4" font-family="Times New Roman,serif" font-size="14.00">+ selectCourse(): Course</text>
<polygon fill="black" stroke="black" points="345,-755 345,-755 537,-755 537,-755 345,-755"/>
<polygon fill="black" stroke="black" points="345,-731 345,-731 537,-731 537,-731 345,-731"/>
<polygon fill="none" stroke="black" points="345,-706 345,-780 537,-780 537,-706 345,-706"/>
</g>
<!-- AssignTeacherToCourseUI1581224925&#45;&gt;SelectCourseWidget375150821 -->
<g id="edge5" class="edge">
<title>AssignTeacherToCourseUI1581224925&#45;&gt;SelectCourseWidget375150821</title>
<path fill="none" stroke="black" d="M462.22,-932.27C457.29,-888.55 450.72,-830.24 446.2,-790.16"/>
<polygon fill="black" stroke="black" points="449.67,-789.68 445.07,-780.13 442.72,-790.46 449.67,-789.68"/>
<text text-anchor="middle" x="497.87" y="-901.8" font-family="Times New Roman,serif" font-size="14.00">courseWidget</text>
<text text-anchor="middle" x="497.87" y="-885" font-family="Times New Roman,serif" font-size="14.00">[1]</text>
</g>
<!-- AssignTeacherToCourseController124183447 -->
<g id="node12" class="node">
<title>AssignTeacherToCourseController124183447</title>
<polygon fill="#ffffff" stroke="transparent" points="1473.5,-840 988.5,-840 988.5,-646 1473.5,-646 1473.5,-840"/>
<text text-anchor="start" x="994" y="-822.4" font-family="Times New Roman,serif" font-size="14.00">(C)AssignTeacherToCourseController</text>
<text text-anchor="start" x="994" y="-798.4" font-family="Times New Roman,serif" font-size="14.00">&#45; &#160;&#160;authz: AuthorizationService [1]</text>
<text text-anchor="start" x="994" y="-774.4" font-family="Times New Roman,serif" font-size="14.00">&#45; &#160;&#160;courseService: ListCourseService [1]</text>
<text text-anchor="start" x="994" y="-750.4" font-family="Times New Roman,serif" font-size="14.00">&#45; &#160;&#160;teachersInCourseRepository: TeachersInCourseRepository [1]</text>
<text text-anchor="start" x="994" y="-726.4" font-family="Times New Roman,serif" font-size="14.00">&#45; &#160;&#160;teachersService: ListTeachersService [1]</text>
<text text-anchor="start" x="994" y="-702.4" font-family="Times New Roman,serif" font-size="14.00">+ allNotClosedCourses(): Iterable&lt;Course&gt;</text>
<text text-anchor="start" x="994" y="-678.4" font-family="Times New Roman,serif" font-size="14.00">+ allTeachersJoinWithSystemUser(): Iterable&lt;TeacherUser&gt;</text>
<text text-anchor="start" x="993.95" y="-654.4" font-family="Times New Roman,serif" font-size="14.00">+ assignTeacherToCourse(teacher: TeacherUser, course: Course): TeachersInCourse</text>
<polygon fill="black" stroke="black" points="989,-815 989,-815 1474,-815 1474,-815 989,-815"/>
<polygon fill="black" stroke="black" points="989,-719 989,-719 1474,-719 1474,-719 989,-719"/>
<polygon fill="none" stroke="black" points="988.5,-646 988.5,-840 1473.5,-840 1473.5,-646 988.5,-646"/>
</g>
<!-- AssignTeacherToCourseUI1581224925&#45;&gt;AssignTeacherToCourseController124183447 -->
<g id="edge4" class="edge">
<title>AssignTeacherToCourseUI1581224925&#45;&gt;AssignTeacherToCourseController124183447</title>
<path fill="none" stroke="black" d="M620.64,-956.84C770.97,-921.59 979,-872.8 979,-872.8 979,-872.8 1001.8,-861.14 1033.69,-844.85"/>
<polygon fill="black" stroke="black" points="1035.6,-847.8 1042.92,-840.13 1032.42,-841.57 1035.6,-847.8"/>
<text text-anchor="middle" x="971.21" y="-901.8" font-family="Times New Roman,serif" font-size="14.00">controller</text>
<text text-anchor="middle" x="971.21" y="-885" font-family="Times New Roman,serif" font-size="14.00">[1]</text>
</g>
<!-- Course1854509879 -->
<g id="node6" class="node">
<title>Course1854509879</title>
<polygon fill="#ffffff" stroke="transparent" points="446,-553.6 142,-553.6 142,-263.6 446,-263.6 446,-553.6"/>
<text text-anchor="start" x="147" y="-536" font-family="Times New Roman,serif" font-size="14.00">(C)Course</text>
<text text-anchor="start" x="147" y="-512" font-family="Times New Roman,serif" font-size="14.00">&#45; &#160;&#160;courseId: Long [1]</text>
<text text-anchor="start" x="147" y="-488" font-family="Times New Roman,serif" font-size="14.00">&#45; &#160;&#160;description: Description [1]</text>
<text text-anchor="start" x="147" y="-464" font-family="Times New Roman,serif" font-size="14.00">&#45; &#160;&#160;enrollLimit: EnrollLimit [0..1]</text>
<text text-anchor="start" x="147" y="-440" font-family="Times New Roman,serif" font-size="14.00">&#45; &#160;&#160;name: Name [1]</text>
<text text-anchor="start" x="147" y="-416" font-family="Times New Roman,serif" font-size="14.00">&#45; &#160;&#160;state: State [1]</text>
<text text-anchor="start" x="146.75" y="-392" font-family="Times New Roman,serif" font-size="14.00">&#45; &#160;&#160;teachersInCourses: Set&lt;TeachersInCourse&gt; [0..*]</text>
<text text-anchor="start" x="147" y="-368" font-family="Times New Roman,serif" font-size="14.00">&#45; checkActivity()</text>
<text text-anchor="start" x="147" y="-344" font-family="Times New Roman,serif" font-size="14.00">+ identity(): Name</text>
<text text-anchor="start" x="147" y="-320" font-family="Times New Roman,serif" font-size="14.00">+ sameAs(other: Object): boolean</text>
<text text-anchor="start" x="147" y="-296" font-family="Times New Roman,serif" font-size="14.00">+ toggleOpenClose()</text>
<text text-anchor="start" x="147" y="-272" font-family="Times New Roman,serif" font-size="14.00">+ toggleOpenCloseEnroll()</text>
<polygon fill="black" stroke="black" points="142,-528.6 142,-528.6 446,-528.6 446,-528.6 142,-528.6"/>
<polygon fill="black" stroke="black" points="142,-384.6 142,-384.6 446,-384.6 446,-384.6 142,-384.6"/>
<polygon fill="none" stroke="black" points="142,-263.6 142,-553.6 446,-553.6 446,-263.6 142,-263.6"/>
</g>
<!-- SelectCourseWidget375150821&#45;&gt;Course1854509879 -->
<g id="edge13" class="edge">
<title>SelectCourseWidget375150821&#45;&gt;Course1854509879</title>
<path fill="none" stroke="black" d="M424.99,-705.79C409.62,-671.04 385.33,-616.12 361.82,-562.96"/>
<polygon fill="black" stroke="black" points="365,-561.49 357.75,-553.76 358.6,-564.32 365,-561.49"/>
<text text-anchor="middle" x="409.99" y="-615.4" font-family="Times New Roman,serif" font-size="14.00">courses</text>
<text text-anchor="middle" x="409.99" y="-598.6" font-family="Times New Roman,serif" font-size="14.00">[1]</text>
</g>
<!-- JpaCourseRepository1852613913 -->
<g id="node3" class="node">
<title>JpaCourseRepository1852613913</title>
<polygon fill="#ffffff" stroke="transparent" points="1120,-158 764,-158 764,-60 1120,-60 1120,-158"/>
<text text-anchor="start" x="769" y="-140.4" font-family="Times New Roman,serif" font-size="14.00">(C)JpaCourseRepository</text>
<text text-anchor="start" x="769" y="-116.4" font-family="Times New Roman,serif" font-size="14.00">+ findAllCoursesOpenOrEnrollState(): Iterable&lt;Course&gt;</text>
<text text-anchor="start" x="769" y="-92.4" font-family="Times New Roman,serif" font-size="14.00">+ findAllCoursesWithState(state: State): Iterable&lt;Course&gt;</text>
<text text-anchor="start" x="768.62" y="-68.4" font-family="Times New Roman,serif" font-size="14.00">+ findAllCoursesWithoutState(state: State): Iterable&lt;Course&gt;</text>
<polygon fill="black" stroke="black" points="764,-133 764,-133 1120,-133 1120,-133 764,-133"/>
<polygon fill="none" stroke="black" points="764,-60 764,-158 1120,-158 1120,-60 764,-60"/>
</g>
<!-- JpaTeacherUserRepository1852613913 -->
<g id="node4" class="node">
<title>JpaTeacherUserRepository1852613913</title>
<polygon fill="#ffffff" stroke="transparent" points="1719.5,-134 1366.5,-134 1366.5,-84 1719.5,-84 1719.5,-134"/>
<text text-anchor="start" x="1372" y="-116.4" font-family="Times New Roman,serif" font-size="14.00">(C)JpaTeacherUserRepository</text>
<text text-anchor="start" x="1371.51" y="-92.4" font-family="Times New Roman,serif" font-size="14.00">+ joinAllTeachersWithSystemUser(): Iterable&lt;TeacherUser&gt;</text>
<polygon fill="black" stroke="black" points="1367,-109 1367,-109 1720,-109 1720,-109 1367,-109"/>
<polygon fill="none" stroke="black" points="1366.5,-84 1366.5,-134 1719.5,-134 1719.5,-84 1366.5,-84"/>
</g>
<!-- JpaTeachersInCourseRepository1852613913 -->
<g id="node5" class="node">
<title>JpaTeachersInCourseRepository1852613913</title>
<polygon fill="#ffffff" stroke="transparent" points="1348,-127 1138,-127 1138,-91 1348,-91 1348,-127"/>
<text text-anchor="start" x="1142.71" y="-104.4" font-family="Times New Roman,serif" font-size="14.00">(C)JpaTeachersInCourseRepository</text>
<polygon fill="none" stroke="black" points="1138,-96 1138,-122 1348,-122 1348,-96 1138,-96"/>
</g>
<!-- Description1854509879 -->
<g id="node7" class="node">
<title>Description1854509879</title>
<polygon fill="#ffffff" stroke="transparent" points="172,-134 24,-134 24,-84 172,-84 172,-134"/>
<text text-anchor="start" x="29" y="-116.4" font-family="Times New Roman,serif" font-size="14.00">(C)Description</text>
<text text-anchor="start" x="28.6" y="-92.4" font-family="Times New Roman,serif" font-size="14.00">&#45; &#160;&#160;description: String [1]</text>
<polygon fill="black" stroke="black" points="24,-109 24,-109 172,-109 172,-109 24,-109"/>
<polygon fill="none" stroke="black" points="24,-84 24,-134 172,-134 172,-84 24,-84"/>
</g>
<!-- Course1854509879&#45;&gt;Description1854509879 -->
<g id="edge6" class="edge">
<title>Course1854509879&#45;&gt;Description1854509879</title>
<path fill="none" stroke="black" d="M199.16,-263.59C169.32,-218.28 139.08,-172.38 119.54,-142.71"/>
<polygon fill="black" stroke="black" points="122.26,-140.47 113.83,-134.04 116.41,-144.32 122.26,-140.47"/>
<text text-anchor="middle" x="215.1" y="-233" font-family="Times New Roman,serif" font-size="14.00">description</text>
<text text-anchor="middle" x="215.1" y="-216.2" font-family="Times New Roman,serif" font-size="14.00">[1]</text>
</g>
<!-- EnrollLimit1854509879 -->
<g id="node8" class="node">
<title>EnrollLimit1854509879</title>
<polygon fill="#ffffff" stroke="transparent" points="355.5,-146 190.5,-146 190.5,-72 355.5,-72 355.5,-146"/>
<text text-anchor="start" x="196" y="-128.4" font-family="Times New Roman,serif" font-size="14.00">(C)EnrollLimit</text>
<text text-anchor="start" x="195.94" y="-104.4" font-family="Times New Roman,serif" font-size="14.00">&#45; &#160;&#160;maxEnroll: Integer [0..1]</text>
<text text-anchor="start" x="196" y="-80.4" font-family="Times New Roman,serif" font-size="14.00">&#45; &#160;&#160;minEnroll: Integer [0..1]</text>
<polygon fill="black" stroke="black" points="191,-121 191,-121 356,-121 356,-121 191,-121"/>
<polygon fill="none" stroke="black" points="190.5,-72 190.5,-146 355.5,-146 355.5,-72 190.5,-72"/>
</g>
<!-- Course1854509879&#45;&gt;EnrollLimit1854509879 -->
<g id="edge7" class="edge">
<title>Course1854509879&#45;&gt;EnrollLimit1854509879</title>
<path fill="none" stroke="black" d="M283.84,-263.59C281.1,-224.75 278.32,-185.46 276.27,-156.35"/>
<polygon fill="black" stroke="black" points="279.74,-155.83 275.55,-146.1 272.76,-156.32 279.74,-155.83"/>
<text text-anchor="middle" x="313.89" y="-233" font-family="Times New Roman,serif" font-size="14.00">enrollLimit</text>
<text text-anchor="middle" x="313.89" y="-216.2" font-family="Times New Roman,serif" font-size="14.00">[0..1]</text>
</g>
<!-- Name1854509879 -->
<g id="node10" class="node">
<title>Name1854509879</title>
<polygon fill="#ffffff" stroke="transparent" points="538,-146 374,-146 374,-72 538,-72 538,-146"/>
<text text-anchor="start" x="379" y="-128.4" font-family="Times New Roman,serif" font-size="14.00">(C)Name</text>
<text text-anchor="start" x="379" y="-104.4" font-family="Times New Roman,serif" font-size="14.00">&#45; &#160;&#160;name: String [1]</text>
<text text-anchor="start" x="378.77" y="-80.4" font-family="Times New Roman,serif" font-size="14.00">+ compareTo(o: Name): int</text>
<polygon fill="black" stroke="black" points="374,-121 374,-121 538,-121 538,-121 374,-121"/>
<polygon fill="black" stroke="black" points="374,-97 374,-97 538,-97 538,-97 374,-97"/>
<polygon fill="none" stroke="black" points="374,-72 374,-146 538,-146 538,-72 374,-72"/>
</g>
<!-- Course1854509879&#45;&gt;Name1854509879 -->
<g id="edge8" class="edge">
<title>Course1854509879&#45;&gt;Name1854509879</title>
<path fill="none" stroke="black" d="M372.39,-263.59C393.82,-224.23 415.49,-184.43 431.39,-155.2"/>
<polygon fill="black" stroke="black" points="434.64,-156.56 436.35,-146.1 428.49,-153.21 434.64,-156.56"/>
<text text-anchor="middle" x="413.16" y="-233" font-family="Times New Roman,serif" font-size="14.00">name</text>
<text text-anchor="middle" x="413.16" y="-216.2" font-family="Times New Roman,serif" font-size="14.00">[1]</text>
</g>
<!-- State1854509879 -->
<g id="node11" class="node">
<title>State1854509879</title>
<polygon fill="#dcfbd5" stroke="transparent" points="739.5,-194 556.5,-194 556.5,-24 739.5,-24 739.5,-194"/>
<text text-anchor="start" x="562" y="-176.4" font-family="Times New Roman,serif" font-size="14.00">(E)State</text>
<text text-anchor="start" x="562" y="-152.4" font-family="Times New Roman,serif" font-size="14.00">+ &#160;&#160;CLOSED: State [1]</text>
<text text-anchor="start" x="562" y="-128.4" font-family="Times New Roman,serif" font-size="14.00">+ &#160;&#160;ENROLL: State [1]</text>
<text text-anchor="start" x="562" y="-104.4" font-family="Times New Roman,serif" font-size="14.00">+ &#160;&#160;OPEN: State [1]</text>
<text text-anchor="start" x="562" y="-80.4" font-family="Times New Roman,serif" font-size="14.00">+ &#160;&#160;PROGRESS: State [1]</text>
<text text-anchor="start" x="561.94" y="-56.4" font-family="Times New Roman,serif" font-size="14.00">+ valueOf(name: String): State</text>
<text text-anchor="start" x="562" y="-32.4" font-family="Times New Roman,serif" font-size="14.00">+ values(): State[]</text>
<polygon fill="black" stroke="black" points="557,-169 557,-169 740,-169 740,-169 557,-169"/>
<polygon fill="black" stroke="black" points="557,-73 557,-73 740,-73 740,-73 557,-73"/>
<polygon fill="none" stroke="black" points="556.5,-24 556.5,-194 739.5,-194 739.5,-24 556.5,-24"/>
</g>
<!-- Course1854509879&#45;&gt;State1854509879 -->
<g id="edge9" class="edge">
<title>Course1854509879&#45;&gt;State1854509879</title>
<path fill="none" stroke="black" d="M446.35,-272.18C452.43,-266.77 456,-263.6 456,-263.6 456,-263.6 547,-194 547,-194 547,-194 547.5,-193.58 548.43,-192.81"/>
<polygon fill="black" stroke="black" points="550.87,-195.33 556.32,-186.25 546.39,-189.95 550.87,-195.33"/>
<text text-anchor="middle" x="534.83" y="-233" font-family="Times New Roman,serif" font-size="14.00">state</text>
<text text-anchor="middle" x="534.83" y="-216.2" font-family="Times New Roman,serif" font-size="14.00">[1]</text>
</g>
<!-- TeachersInCourse1814895075 -->
<g id="node14" class="node">
<title>TeachersInCourse1814895075</title>
<polygon fill="#ffffff" stroke="transparent" points="970,-828 764,-828 764,-658 970,-658 970,-828"/>
<text text-anchor="start" x="769" y="-810.4" font-family="Times New Roman,serif" font-size="14.00">(C)TeachersInCourse</text>
<text text-anchor="start" x="769" y="-786.4" font-family="Times New Roman,serif" font-size="14.00">&#45; &#160;&#160;course: Course [1]</text>
<text text-anchor="start" x="769" y="-762.4" font-family="Times New Roman,serif" font-size="14.00"># &#160;&#160;id: TeachersInCourseKey [1]</text>
<text text-anchor="start" x="769" y="-738.4" font-family="Times New Roman,serif" font-size="14.00">&#45; &#160;&#160;isInCharge: boolean [1]</text>
<text text-anchor="start" x="769" y="-714.4" font-family="Times New Roman,serif" font-size="14.00">&#45; &#160;&#160;teacher: TeacherUser [1]</text>
<text text-anchor="start" x="768.98" y="-690.4" font-family="Times New Roman,serif" font-size="14.00">+ identity(): TeachersInCourseKey</text>
<text text-anchor="start" x="769" y="-666.4" font-family="Times New Roman,serif" font-size="14.00">+ sameAs(other: Object): boolean</text>
<polygon fill="black" stroke="black" points="764,-803 764,-803 970,-803 970,-803 764,-803"/>
<polygon fill="black" stroke="black" points="764,-707 764,-707 970,-707 970,-707 764,-707"/>
<polygon fill="none" stroke="black" points="764,-658 764,-828 970,-828 970,-658 764,-658"/>
</g>
<!-- Course1854509879&#45;&gt;TeachersInCourse1814895075 -->
<g id="edge10" class="edge">
<title>Course1854509879&#45;&gt;TeachersInCourse1814895075</title>
<path fill="none" stroke="black" d="M426.29,-553.97C443.89,-573.18 456,-586.4 456,-586.4 456,-586.4 633,-646 633,-646 633,-646 694.27,-671.14 754.1,-695.68"/>
<polygon fill="black" stroke="black" points="753.1,-699.06 763.68,-699.61 755.76,-692.58 753.1,-699.06"/>
<text text-anchor="middle" x="626.31" y="-615.4" font-family="Times New Roman,serif" font-size="14.00">teachersInCourses</text>
<text text-anchor="middle" x="626.31" y="-598.6" font-family="Times New Roman,serif" font-size="14.00">[0..*]</text>
</g>
<!-- ListCourseService427251605 -->
<g id="node9" class="node">
<title>ListCourseService427251605</title>
<polygon fill="#ffffff" stroke="transparent" points="739.5,-541.6 464.5,-541.6 464.5,-275.6 739.5,-275.6 739.5,-541.6"/>
<text text-anchor="start" x="470" y="-524" font-family="Times New Roman,serif" font-size="14.00">(C)ListCourseService</text>
<text text-anchor="start" x="470" y="-500" font-family="Times New Roman,serif" font-size="14.00">&#45; &#160;&#160;authz: AuthorizationService [1]</text>
<text text-anchor="start" x="470" y="-476" font-family="Times New Roman,serif" font-size="14.00">&#45; &#160;&#160;courseRepository: CourseRepository [1]</text>
<text text-anchor="start" x="470" y="-452" font-family="Times New Roman,serif" font-size="14.00">+ allClosedCourses(): Iterable&lt;Course&gt;</text>
<text text-anchor="start" x="470" y="-428" font-family="Times New Roman,serif" font-size="14.00">+ allCourses(): Iterable&lt;Course&gt;</text>
<text text-anchor="start" x="469.76" y="-404" font-family="Times New Roman,serif" font-size="14.00">+ allCoursesOpenOrEnroll(): Iterable&lt;Course&gt;</text>
<text text-anchor="start" x="470" y="-380" font-family="Times New Roman,serif" font-size="14.00">+ allEnrollCourses(): Iterable&lt;Course&gt;</text>
<text text-anchor="start" x="470" y="-356" font-family="Times New Roman,serif" font-size="14.00">+ allNotClosedCourses(): Iterable&lt;Course&gt;</text>
<text text-anchor="start" x="470" y="-332" font-family="Times New Roman,serif" font-size="14.00">+ allNotEnrollCourses(): Iterable&lt;Course&gt;</text>
<text text-anchor="start" x="470" y="-308" font-family="Times New Roman,serif" font-size="14.00">+ allOpenCourses(): Iterable&lt;Course&gt;</text>
<text text-anchor="start" x="470" y="-284" font-family="Times New Roman,serif" font-size="14.00">+ allProgressCourses(): Iterable&lt;Course&gt;</text>
<polygon fill="black" stroke="black" points="465,-516.6 465,-516.6 740,-516.6 740,-516.6 465,-516.6"/>
<polygon fill="black" stroke="black" points="465,-468.6 465,-468.6 740,-468.6 740,-468.6 465,-468.6"/>
<polygon fill="none" stroke="black" points="464.5,-275.6 464.5,-541.6 739.5,-541.6 739.5,-275.6 464.5,-275.6"/>
</g>
<!-- ListCourseService427251605&#45;&gt;JpaCourseRepository1852613913 -->
<g id="edge11" class="edge">
<title>ListCourseService427251605&#45;&gt;JpaCourseRepository1852613913</title>
<path fill="none" stroke="black" d="M739.72,-275.38C747.37,-268.05 752,-263.6 752,-263.6 752,-263.6 826.68,-203.22 882.4,-158.18"/>
</g>
<!-- AssignTeacherToCourseController124183447&#45;&gt;JpaTeachersInCourseRepository1852613913 -->
<g id="edge1" class="edge">
<title>AssignTeacherToCourseController124183447&#45;&gt;JpaTeachersInCourseRepository1852613913</title>
<path fill="none" stroke="black" d="M1158.57,-645.67C1134.63,-613.84 1114,-586.4 1114,-586.4 1114,-586.4 1114,-263.6 1114,-263.6 1114,-263.6 1195.12,-167.02 1228.7,-127.02"/>
</g>
<!-- AssignTeacherToCourseController124183447&#45;&gt;ListCourseService427251605 -->
<g id="edge2" class="edge">
<title>AssignTeacherToCourseController124183447&#45;&gt;ListCourseService427251605</title>
<path fill="none" stroke="black" d="M988.27,-649.53C982.35,-647.27 979,-646 979,-646 979,-646 752,-586.4 752,-586.4 752,-586.4 739.08,-571.17 720.82,-549.65"/>
<polygon fill="black" stroke="black" points="723.29,-547.15 714.15,-541.79 717.95,-551.68 723.29,-547.15"/>
<text text-anchor="middle" x="944.26" y="-615.4" font-family="Times New Roman,serif" font-size="14.00">courseService</text>
<text text-anchor="middle" x="944.26" y="-598.6" font-family="Times New Roman,serif" font-size="14.00">[1]</text>
</g>
<!-- ListTeachersService124183447 -->
<g id="node13" class="node">
<title>ListTeachersService124183447</title>
<polygon fill="#ffffff" stroke="transparent" points="1473.5,-469.6 1122.5,-469.6 1122.5,-347.6 1473.5,-347.6 1473.5,-469.6"/>
<text text-anchor="start" x="1128" y="-452" font-family="Times New Roman,serif" font-size="14.00">(C)ListTeachersService</text>
<text text-anchor="start" x="1128" y="-428" font-family="Times New Roman,serif" font-size="14.00">&#45; &#160;&#160;authz: AuthorizationService [0..1]</text>
<text text-anchor="start" x="1128" y="-404" font-family="Times New Roman,serif" font-size="14.00">&#45; &#160;&#160;teacherUserRepository: TeacherUserRepository [0..1]</text>
<text text-anchor="start" x="1128" y="-380" font-family="Times New Roman,serif" font-size="14.00">+ allTeacherUsers(): Iterable&lt;TeacherUser&gt;</text>
<text text-anchor="start" x="1127.68" y="-356" font-family="Times New Roman,serif" font-size="14.00">+ allTeachersJoinWithSystemUser(): Iterable&lt;TeacherUser&gt;</text>
<polygon fill="black" stroke="black" points="1123,-444.6 1123,-444.6 1474,-444.6 1474,-444.6 1123,-444.6"/>
<polygon fill="black" stroke="black" points="1123,-396.6 1123,-396.6 1474,-396.6 1474,-396.6 1123,-396.6"/>
<polygon fill="none" stroke="black" points="1122.5,-347.6 1122.5,-469.6 1473.5,-469.6 1473.5,-347.6 1122.5,-347.6"/>
</g>
<!-- AssignTeacherToCourseController124183447&#45;&gt;ListTeachersService124183447 -->
<g id="edge3" class="edge">
<title>AssignTeacherToCourseController124183447&#45;&gt;ListTeachersService124183447</title>
<path fill="none" stroke="black" d="M1250.38,-645.86C1261.06,-592.87 1274.08,-528.26 1283.81,-480"/>
<polygon fill="black" stroke="black" points="1287.29,-480.46 1285.83,-469.96 1280.43,-479.07 1287.29,-480.46"/>
<text text-anchor="middle" x="1303.92" y="-615.4" font-family="Times New Roman,serif" font-size="14.00">teachersService</text>
<text text-anchor="middle" x="1303.92" y="-598.6" font-family="Times New Roman,serif" font-size="14.00">[1]</text>
</g>
<!-- ListTeachersService124183447&#45;&gt;JpaTeacherUserRepository1852613913 -->
<g id="edge12" class="edge">
<title>ListTeachersService124183447&#45;&gt;JpaTeacherUserRepository1852613913</title>
<path fill="none" stroke="black" d="M1347.58,-347.38C1401.55,-281.82 1485.22,-180.19 1523.13,-134.14"/>
</g>
</g>
</svg>
