<?xml version="1.0" encoding="us-ascii" standalone="no"?><svg xmlns="http://www.w3.org/2000/svg" xmlns:xlink="http://www.w3.org/1999/xlink" contentStyleType="text/css" height="1133px" preserveAspectRatio="none" style="width:2036px;height:1133px;background:#FFFFFF;" version="1.1" viewBox="0 0 2036 1133" width="2036px" zoomAndPan="magnify"><defs/><g><rect fill="#FFFFFF" height="905.3164" style="stroke:#181818;stroke-width:1.0;" width="10" x="294.5" y="115.2871"/><rect fill="#FFFFFF" height="29.3105" style="stroke:#181818;stroke-width:1.0;" width="10" x="452" y="844.7402"/><rect fill="#FFFFFF" height="641.5215" style="stroke:#181818;stroke-width:1.0;" width="10" x="637.5" y="173.9082"/><rect fill="#FFFFFF" height="87.9316" style="stroke:#181818;stroke-width:1.0;" width="10" x="637.5" y="903.3613"/><rect fill="#FFFFFF" height="58.6211" style="stroke:#181818;stroke-width:1.0;" width="10" x="1035.5" y="261.8398"/><rect fill="#FFFFFF" height="29.3105" style="stroke:#181818;stroke-width:1.0;" width="10" x="1175.5" y="349.7715"/><rect fill="#FFFFFF" height="58.6211" style="stroke:#181818;stroke-width:1.0;" width="10" x="1307" y="493.0137"/><rect fill="#FFFFFF" height="87.9316" style="stroke:#181818;stroke-width:1.0;" width="10" x="1458.5" y="580.9453"/><rect fill="#FFFFFF" height="87.9316" style="stroke:#181818;stroke-width:1.0;" width="10" x="1458.5" y="698.1875"/><rect fill="#FFFFFF" height="29.3105" style="stroke:#181818;stroke-width:1.0;" width="10" x="1577" y="932.6719"/><rect fill="#FFFFFF" height="29.3105" style="stroke:#181818;stroke-width:1.0;" width="10" x="1753.5" y="727.498"/><rect fill="#FFFFFF" height="29.3105" style="stroke:#181818;stroke-width:1.0;" width="10" x="1947.5" y="610.2559"/><line style="stroke:#181818;stroke-width:0.5;stroke-dasharray:5.0,5.0;" x1="39" x2="39" y1="83.9766" y2="1038.6035"/><line style="stroke:#181818;stroke-width:0.5;stroke-dasharray:5.0,5.0;" x1="299" x2="299" y1="83.9766" y2="1038.6035"/><line style="stroke:#181818;stroke-width:0.5;stroke-dasharray:5.0,5.0;" x1="457" x2="457" y1="83.9766" y2="1038.6035"/><line style="stroke:#181818;stroke-width:0.5;stroke-dasharray:5.0,5.0;" x1="642" x2="642" y1="83.9766" y2="1038.6035"/><line style="stroke:#181818;stroke-width:0.5;stroke-dasharray:5.0,5.0;" x1="1040" x2="1040" y1="83.9766" y2="1038.6035"/><line style="stroke:#181818;stroke-width:0.5;stroke-dasharray:5.0,5.0;" x1="1180" x2="1180" y1="83.9766" y2="1038.6035"/><line style="stroke:#181818;stroke-width:0.5;stroke-dasharray:5.0,5.0;" x1="1312" x2="1312" y1="83.9766" y2="1038.6035"/><line style="stroke:#181818;stroke-width:0.5;stroke-dasharray:5.0,5.0;" x1="1463" x2="1463" y1="83.9766" y2="1038.6035"/><line style="stroke:#181818;stroke-width:0.5;stroke-dasharray:5.0,5.0;" x1="1582" x2="1582" y1="83.9766" y2="1038.6035"/><line style="stroke:#181818;stroke-width:0.5;stroke-dasharray:5.0,5.0;" x1="1758" x2="1758" y1="83.9766" y2="1038.6035"/><line style="stroke:#181818;stroke-width:0.5;stroke-dasharray:5.0,5.0;" x1="1952" x2="1952" y1="83.9766" y2="1038.6035"/><rect fill="#E2E2F0" height="30.4883" rx="2.5" ry="2.5" style="stroke:#181818;stroke-width:0.5;" width="69" x="5" y="52.4883"/><text fill="#000000" font-family="sans-serif" font-size="14" lengthAdjust="spacing" textLength="55" x="12" y="73.0234">Teacher</text><rect fill="#E2E2F0" height="30.4883" rx="2.5" ry="2.5" style="stroke:#181818;stroke-width:0.5;" width="69" x="5" y="1037.6035"/><text fill="#000000" font-family="sans-serif" font-size="14" lengthAdjust="spacing" textLength="55" x="12" y="1058.1387">Teacher</text><rect fill="#E2E2F0" height="46.9766" rx="2.5" ry="2.5" style="stroke:#181818;stroke-width:0.5;" width="145" x="227" y="36"/><text fill="#000000" font-family="sans-serif" font-size="14" font-style="italic" lengthAdjust="spacing" textLength="101" x="249" y="56.5352">&#171;presentation&#187;</text><text fill="#000000" font-family="sans-serif" font-size="14" lengthAdjust="spacing" textLength="131" x="234" y="73.0234">ListCourseExamsUI</text><rect fill="#E2E2F0" height="46.9766" rx="2.5" ry="2.5" style="stroke:#181818;stroke-width:0.5;" width="145" x="227" y="1037.6035"/><text fill="#000000" font-family="sans-serif" font-size="14" font-style="italic" lengthAdjust="spacing" textLength="101" x="249" y="1058.1387">&#171;presentation&#187;</text><text fill="#000000" font-family="sans-serif" font-size="14" lengthAdjust="spacing" textLength="131" x="234" y="1074.627">ListCourseExamsUI</text><rect fill="#E2E2F0" height="46.9766" rx="2.5" ry="2.5" style="stroke:#181818;stroke-width:0.5;" width="150" x="382" y="36"/><text fill="#000000" font-family="sans-serif" font-size="14" font-style="italic" lengthAdjust="spacing" textLength="101" x="406.5" y="56.5352">&#171;presentation&#187;</text><text fill="#000000" font-family="sans-serif" font-size="14" lengthAdjust="spacing" textLength="136" x="389" y="73.0234">SelectCourseWidget</text><rect fill="#E2E2F0" height="46.9766" rx="2.5" ry="2.5" style="stroke:#181818;stroke-width:0.5;" width="150" x="382" y="1037.6035"/><text fill="#000000" font-family="sans-serif" font-size="14" font-style="italic" lengthAdjust="spacing" textLength="101" x="406.5" y="1058.1387">&#171;presentation&#187;</text><text fill="#000000" font-family="sans-serif" font-size="14" lengthAdjust="spacing" textLength="136" x="389" y="1074.627">SelectCourseWidget</text><rect fill="#E2E2F0" height="30.4883" rx="2.5" ry="2.5" style="stroke:#181818;stroke-width:0.5;" width="201" x="542" y="52.4883"/><text fill="#000000" font-family="sans-serif" font-size="14" lengthAdjust="spacing" textLength="187" x="549" y="73.0234">ListCourseExamsController</text><rect fill="#E2E2F0" height="30.4883" rx="2.5" ry="2.5" style="stroke:#181818;stroke-width:0.5;" width="201" x="542" y="1037.6035"/><text fill="#000000" font-family="sans-serif" font-size="14" lengthAdjust="spacing" textLength="187" x="549" y="1058.1387">ListCourseExamsController</text><rect fill="#E2E2F0" height="46.9766" rx="2.5" ry="2.5" style="stroke:#181818;stroke-width:0.5;" width="163" x="959" y="36"/><text fill="#000000" font-family="sans-serif" font-size="14" font-style="italic" lengthAdjust="spacing" textLength="61" x="1010" y="56.5352">&#171;service&#187;</text><text fill="#000000" font-family="sans-serif" font-size="14" lengthAdjust="spacing" textLength="149" x="966" y="73.0234">AuthenticationService</text><rect fill="#E2E2F0" height="46.9766" rx="2.5" ry="2.5" style="stroke:#181818;stroke-width:0.5;" width="163" x="959" y="1037.6035"/><text fill="#000000" font-family="sans-serif" font-size="14" font-style="italic" lengthAdjust="spacing" textLength="61" x="1010" y="1058.1387">&#171;service&#187;</text><text fill="#000000" font-family="sans-serif" font-size="14" lengthAdjust="spacing" textLength="149" x="966" y="1074.627">AuthenticationService</text><rect fill="#E2E2F0" height="46.9766" rx="2.5" ry="2.5" style="stroke:#181818;stroke-width:0.5;" width="97" x="1132" y="36"/><text fill="#000000" font-family="sans-serif" font-size="14" font-style="italic" lengthAdjust="spacing" textLength="65" x="1148" y="56.5352">&#171;session&#187;</text><text fill="#000000" font-family="sans-serif" font-size="14" lengthAdjust="spacing" textLength="83" x="1139" y="73.0234">UserSession</text><rect fill="#E2E2F0" height="46.9766" rx="2.5" ry="2.5" style="stroke:#181818;stroke-width:0.5;" width="97" x="1132" y="1037.6035"/><text fill="#000000" font-family="sans-serif" font-size="14" font-style="italic" lengthAdjust="spacing" textLength="65" x="1148" y="1058.1387">&#171;session&#187;</text><text fill="#000000" font-family="sans-serif" font-size="14" lengthAdjust="spacing" textLength="83" x="1139" y="1074.627">UserSession</text><rect fill="#E2E2F0" height="46.9766" rx="2.5" ry="2.5" style="stroke:#181818;stroke-width:0.5;" width="146" x="1239" y="36"/><text fill="#000000" font-family="sans-serif" font-size="14" font-style="italic" lengthAdjust="spacing" textLength="92" x="1266" y="56.5352">&#171;persistence&#187;</text><text fill="#000000" font-family="sans-serif" font-size="14" lengthAdjust="spacing" textLength="132" x="1246" y="73.0234">PersistenceContext</text><rect fill="#E2E2F0" height="46.9766" rx="2.5" ry="2.5" style="stroke:#181818;stroke-width:0.5;" width="146" x="1239" y="1037.6035"/><text fill="#000000" font-family="sans-serif" font-size="14" font-style="italic" lengthAdjust="spacing" textLength="92" x="1266" y="1058.1387">&#171;persistence&#187;</text><text fill="#000000" font-family="sans-serif" font-size="14" lengthAdjust="spacing" textLength="132" x="1246" y="1074.627">PersistenceContext</text><rect fill="#E2E2F0" height="46.9766" rx="2.5" ry="2.5" style="stroke:#181818;stroke-width:0.5;" width="137" x="1395" y="36"/><text fill="#000000" font-family="sans-serif" font-size="14" font-style="italic" lengthAdjust="spacing" textLength="61" x="1433" y="56.5352">&#171;factory&#187;</text><text fill="#000000" font-family="sans-serif" font-size="14" lengthAdjust="spacing" textLength="123" x="1402" y="73.0234">RepositoryFactory</text><rect fill="#E2E2F0" height="46.9766" rx="2.5" ry="2.5" style="stroke:#181818;stroke-width:0.5;" width="137" x="1395" y="1037.6035"/><text fill="#000000" font-family="sans-serif" font-size="14" font-style="italic" lengthAdjust="spacing" textLength="61" x="1433" y="1058.1387">&#171;factory&#187;</text><text fill="#000000" font-family="sans-serif" font-size="14" lengthAdjust="spacing" textLength="123" x="1402" y="1074.627">RepositoryFactory</text><rect fill="#E2E2F0" height="46.9766" rx="2.5" ry="2.5" style="stroke:#181818;stroke-width:0.5;" width="80" x="1542" y="36"/><text fill="#000000" font-family="sans-serif" font-size="14" font-style="italic" lengthAdjust="spacing" textLength="66" x="1549" y="56.5352">&#171;domain&#187;</text><text fill="#000000" font-family="sans-serif" font-size="14" lengthAdjust="spacing" textLength="49" x="1557.5" y="73.0234">Course</text><rect fill="#E2E2F0" height="46.9766" rx="2.5" ry="2.5" style="stroke:#181818;stroke-width:0.5;" width="80" x="1542" y="1037.6035"/><text fill="#000000" font-family="sans-serif" font-size="14" font-style="italic" lengthAdjust="spacing" textLength="66" x="1549" y="1058.1387">&#171;domain&#187;</text><text fill="#000000" font-family="sans-serif" font-size="14" lengthAdjust="spacing" textLength="49" x="1557.5" y="1074.627">Course</text><text fill="#000000" font-family="sans-serif" font-size="14" font-style="italic" lengthAdjust="spacing" textLength="84" x="1713.5" y="64.5352">&#171;repository&#187;</text><text fill="#000000" font-family="sans-serif" font-size="14" lengthAdjust="spacing" textLength="197" x="1657" y="81.0234">TeachersInCourseRepository</text><path d="M1740.5,15 C1740.5,5 1758.5,5 1758.5,5 C1758.5,5 1776.5,5 1776.5,15 L1776.5,41 C1776.5,51 1758.5,51 1758.5,51 C1758.5,51 1740.5,51 1740.5,41 L1740.5,15 " fill="#E2E2F0" style="stroke:#181818;stroke-width:1.5;"/><path d="M1740.5,15 C1740.5,25 1758.5,25 1758.5,25 C1758.5,25 1776.5,25 1776.5,15 " fill="none" style="stroke:#181818;stroke-width:1.5;"/><text fill="#000000" font-family="sans-serif" font-size="14" font-style="italic" lengthAdjust="spacing" textLength="84" x="1713.5" y="1051.1387">&#171;repository&#187;</text><text fill="#000000" font-family="sans-serif" font-size="14" lengthAdjust="spacing" textLength="197" x="1657" y="1067.627">TeachersInCourseRepository</text><path d="M1740.5,1080.5801 C1740.5,1070.5801 1758.5,1070.5801 1758.5,1070.5801 C1758.5,1070.5801 1776.5,1070.5801 1776.5,1080.5801 L1776.5,1106.5801 C1776.5,1116.5801 1758.5,1116.5801 1758.5,1116.5801 C1758.5,1116.5801 1740.5,1116.5801 1740.5,1106.5801 L1740.5,1080.5801 " fill="#E2E2F0" style="stroke:#181818;stroke-width:1.5;"/><path d="M1740.5,1080.5801 C1740.5,1090.5801 1758.5,1090.5801 1758.5,1090.5801 C1758.5,1090.5801 1776.5,1090.5801 1776.5,1080.5801 " fill="none" style="stroke:#181818;stroke-width:1.5;"/><text fill="#000000" font-family="sans-serif" font-size="14" font-style="italic" lengthAdjust="spacing" textLength="84" x="1907.5" y="64.5352">&#171;repository&#187;</text><text fill="#000000" font-family="sans-serif" font-size="14" lengthAdjust="spacing" textLength="159" x="1870" y="81.0234">TeacherUserRepository</text><path d="M1934.5,15 C1934.5,5 1952.5,5 1952.5,5 C1952.5,5 1970.5,5 1970.5,15 L1970.5,41 C1970.5,51 1952.5,51 1952.5,51 C1952.5,51 1934.5,51 1934.5,41 L1934.5,15 " fill="#E2E2F0" style="stroke:#181818;stroke-width:1.5;"/><path d="M1934.5,15 C1934.5,25 1952.5,25 1952.5,25 C1952.5,25 1970.5,25 1970.5,15 " fill="none" style="stroke:#181818;stroke-width:1.5;"/><text fill="#000000" font-family="sans-serif" font-size="14" font-style="italic" lengthAdjust="spacing" textLength="84" x="1907.5" y="1051.1387">&#171;repository&#187;</text><text fill="#000000" font-family="sans-serif" font-size="14" lengthAdjust="spacing" textLength="159" x="1870" y="1067.627">TeacherUserRepository</text><path d="M1934.5,1080.5801 C1934.5,1070.5801 1952.5,1070.5801 1952.5,1070.5801 C1952.5,1070.5801 1970.5,1070.5801 1970.5,1080.5801 L1970.5,1106.5801 C1970.5,1116.5801 1952.5,1116.5801 1952.5,1116.5801 C1952.5,1116.5801 1934.5,1116.5801 1934.5,1106.5801 L1934.5,1080.5801 " fill="#E2E2F0" style="stroke:#181818;stroke-width:1.5;"/><path d="M1934.5,1080.5801 C1934.5,1090.5801 1952.5,1090.5801 1952.5,1090.5801 C1952.5,1090.5801 1970.5,1090.5801 1970.5,1080.5801 " fill="none" style="stroke:#181818;stroke-width:1.5;"/><rect fill="#FFFFFF" height="905.3164" style="stroke:#181818;stroke-width:1.0;" width="10" x="294.5" y="115.2871"/><rect fill="#FFFFFF" height="29.3105" style="stroke:#181818;stroke-width:1.0;" width="10" x="452" y="844.7402"/><rect fill="#FFFFFF" height="641.5215" style="stroke:#181818;stroke-width:1.0;" width="10" x="637.5" y="173.9082"/><rect fill="#FFFFFF" height="87.9316" style="stroke:#181818;stroke-width:1.0;" width="10" x="637.5" y="903.3613"/><rect fill="#FFFFFF" height="58.6211" style="stroke:#181818;stroke-width:1.0;" width="10" x="1035.5" y="261.8398"/><rect fill="#FFFFFF" height="29.3105" style="stroke:#181818;stroke-width:1.0;" width="10" x="1175.5" y="349.7715"/><rect fill="#FFFFFF" height="58.6211" style="stroke:#181818;stroke-width:1.0;" width="10" x="1307" y="493.0137"/><rect fill="#FFFFFF" height="87.9316" style="stroke:#181818;stroke-width:1.0;" width="10" x="1458.5" y="580.9453"/><rect fill="#FFFFFF" height="87.9316" style="stroke:#181818;stroke-width:1.0;" width="10" x="1458.5" y="698.1875"/><rect fill="#FFFFFF" height="29.3105" style="stroke:#181818;stroke-width:1.0;" width="10" x="1577" y="932.6719"/><rect fill="#FFFFFF" height="29.3105" style="stroke:#181818;stroke-width:1.0;" width="10" x="1753.5" y="727.498"/><rect fill="#FFFFFF" height="29.3105" style="stroke:#181818;stroke-width:1.0;" width="10" x="1947.5" y="610.2559"/><polygon fill="#181818" points="282.5,111.2871,292.5,115.2871,282.5,119.2871,286.5,115.2871" style="stroke:#181818;stroke-width:1.0;"/><line style="stroke:#181818;stroke-width:1.0;stroke-dasharray:2.0,2.0;" x1="39.5" x2="288.5" y1="115.2871" y2="115.2871"/><text fill="#000000" font-family="sans-serif" font-size="13" lengthAdjust="spacing" textLength="189" x="46.5" y="110.5449">asks to list exams of a course</text><polygon fill="#181818" points="630.5,140.5977,640.5,144.5977,630.5,148.5977,634.5,144.5977" style="stroke:#181818;stroke-width:1.0;"/><line style="stroke:#181818;stroke-width:1.0;" x1="304.5" x2="636.5" y1="144.5977" y2="144.5977"/><text fill="#000000" font-family="sans-serif" font-size="13" lengthAdjust="spacing" textLength="46" x="311.5" y="139.8555">create()</text><polygon fill="#181818" points="625.5,169.9082,635.5,173.9082,625.5,177.9082,629.5,173.9082" style="stroke:#181818;stroke-width:1.0;"/><line style="stroke:#181818;stroke-width:1.0;" x1="304.5" x2="631.5" y1="173.9082" y2="173.9082"/><text fill="#000000" font-family="sans-serif" font-size="13" lengthAdjust="spacing" textLength="113" x="311.5" y="169.166">listCourseExams()</text><polygon fill="#181818" points="1028.5,199.2188,1038.5,203.2188,1028.5,207.2188,1032.5,203.2188" style="stroke:#181818;stroke-width:1.0;"/><line style="stroke:#181818;stroke-width:1.0;" x1="647.5" x2="1034.5" y1="203.2188" y2="203.2188"/><text fill="#000000" font-family="sans-serif" font-size="13" lengthAdjust="spacing" textLength="46" x="654.5" y="198.4766">create()</text><polygon fill="#181818" points="1028.5,228.5293,1038.5,232.5293,1028.5,236.5293,1032.5,232.5293" style="stroke:#181818;stroke-width:1.0;"/><line style="stroke:#181818;stroke-width:1.0;" x1="647.5" x2="1034.5" y1="232.5293" y2="232.5293"/><text fill="#000000" font-family="sans-serif" font-size="13" lengthAdjust="spacing" textLength="369" x="654.5" y="227.7871">ensureAuthenticatedUserHasAnyOf(CourseRoles.TEACHER)</text><polygon fill="#181818" points="1168.5,257.8398,1178.5,261.8398,1168.5,265.8398,1172.5,261.8398" style="stroke:#181818;stroke-width:1.0;"/><line style="stroke:#181818;stroke-width:1.0;" x1="1045.5" x2="1174.5" y1="261.8398" y2="261.8398"/><text fill="#000000" font-family="sans-serif" font-size="13" lengthAdjust="spacing" textLength="46" x="1052.5" y="257.0977">create()</text><polygon fill="#181818" points="1023.5,287.1504,1033.5,291.1504,1023.5,295.1504,1027.5,291.1504" style="stroke:#181818;stroke-width:1.0;"/><line style="stroke:#181818;stroke-width:1.0;" x1="647.5" x2="1029.5" y1="291.1504" y2="291.1504"/><text fill="#000000" font-family="sans-serif" font-size="13" lengthAdjust="spacing" textLength="56" x="654.5" y="286.4082">session()</text><polygon fill="#181818" points="658.5,316.4609,648.5,320.4609,658.5,324.4609,654.5,320.4609" style="stroke:#181818;stroke-width:1.0;"/><line style="stroke:#181818;stroke-width:1.0;" x1="652.5" x2="1039.5" y1="320.4609" y2="320.4609"/><text fill="#000000" font-family="sans-serif" font-size="13" lengthAdjust="spacing" textLength="48" x="664.5" y="315.7188">session</text><polygon fill="#181818" points="1163.5,345.7715,1173.5,349.7715,1163.5,353.7715,1167.5,349.7715" style="stroke:#181818;stroke-width:1.0;"/><line style="stroke:#181818;stroke-width:1.0;" x1="647.5" x2="1169.5" y1="349.7715" y2="349.7715"/><text fill="#000000" font-family="sans-serif" font-size="13" lengthAdjust="spacing" textLength="122" x="654.5" y="345.0293">authenticatedUser()</text><polygon fill="#181818" points="658.5,375.082,648.5,379.082,658.5,383.082,654.5,379.082" style="stroke:#181818;stroke-width:1.0;"/><line style="stroke:#181818;stroke-width:1.0;" x1="652.5" x2="1179.5" y1="379.082" y2="379.082"/><text fill="#000000" font-family="sans-serif" font-size="13" lengthAdjust="spacing" textLength="27" x="664.5" y="374.3398">user</text><line style="stroke:#181818;stroke-width:1.0;" x1="647.5" x2="689.5" y1="408.3926" y2="408.3926"/><line style="stroke:#181818;stroke-width:1.0;" x1="689.5" x2="689.5" y1="408.3926" y2="421.3926"/><line style="stroke:#181818;stroke-width:1.0;" x1="648.5" x2="689.5" y1="421.3926" y2="421.3926"/><polygon fill="#181818" points="658.5,417.3926,648.5,421.3926,658.5,425.3926,654.5,421.3926" style="stroke:#181818;stroke-width:1.0;"/><text fill="#000000" font-family="sans-serif" font-size="13" lengthAdjust="spacing" textLength="46" x="654.5" y="403.6504">create()</text><line style="stroke:#181818;stroke-width:1.0;" x1="647.5" x2="689.5" y1="450.7031" y2="450.7031"/><line style="stroke:#181818;stroke-width:1.0;" x1="689.5" x2="689.5" y1="450.7031" y2="463.7031"/><line style="stroke:#181818;stroke-width:1.0;" x1="648.5" x2="689.5" y1="463.7031" y2="463.7031"/><polygon fill="#181818" points="658.5,459.7031,648.5,463.7031,658.5,467.7031,654.5,463.7031" style="stroke:#181818;stroke-width:1.0;"/><text fill="#000000" font-family="sans-serif" font-size="13" lengthAdjust="spacing" textLength="113" x="654.5" y="445.9609">listCourseExams()</text><polygon fill="#181818" points="1295,489.0137,1305,493.0137,1295,497.0137,1299,493.0137" style="stroke:#181818;stroke-width:1.0;"/><line style="stroke:#181818;stroke-width:1.0;" x1="647.5" x2="1301" y1="493.0137" y2="493.0137"/><text fill="#000000" font-family="sans-serif" font-size="13" lengthAdjust="spacing" textLength="83" x="654.5" y="488.2715">repositories()</text><polygon fill="#181818" points="1451.5,518.3242,1461.5,522.3242,1451.5,526.3242,1455.5,522.3242" style="stroke:#181818;stroke-width:1.0;"/><line style="stroke:#181818;stroke-width:1.0;" x1="1317" x2="1457.5" y1="522.3242" y2="522.3242"/><text fill="#000000" font-family="sans-serif" font-size="13" lengthAdjust="spacing" textLength="46" x="1324" y="517.582">create()</text><polygon fill="#181818" points="658.5,547.6348,648.5,551.6348,658.5,555.6348,654.5,551.6348" style="stroke:#181818;stroke-width:1.0;"/><line style="stroke:#181818;stroke-width:1.0;" x1="652.5" x2="1311" y1="551.6348" y2="551.6348"/><text fill="#000000" font-family="sans-serif" font-size="13" lengthAdjust="spacing" textLength="44" x="664.5" y="546.8926">factory</text><polygon fill="#181818" points="1446.5,576.9453,1456.5,580.9453,1446.5,584.9453,1450.5,580.9453" style="stroke:#181818;stroke-width:1.0;"/><line style="stroke:#181818;stroke-width:1.0;" x1="647.5" x2="1452.5" y1="580.9453" y2="580.9453"/><text fill="#000000" font-family="sans-serif" font-size="13" lengthAdjust="spacing" textLength="112" x="654.5" y="576.2031">getUserAcronym()</text><polygon fill="#181818" points="1935.5,606.2559,1945.5,610.2559,1935.5,614.2559,1939.5,610.2559" style="stroke:#181818;stroke-width:1.0;"/><line style="stroke:#181818;stroke-width:1.0;" x1="1468.5" x2="1941.5" y1="610.2559" y2="610.2559"/><text fill="#000000" font-family="sans-serif" font-size="13" lengthAdjust="spacing" textLength="237" x="1475.5" y="605.5137">getTeacherUserFromSystemUser(user)</text><polygon fill="#181818" points="1479.5,635.5664,1469.5,639.5664,1479.5,643.5664,1475.5,639.5664" style="stroke:#181818;stroke-width:1.0;"/><line style="stroke:#181818;stroke-width:1.0;" x1="1473.5" x2="1951.5" y1="639.5664" y2="639.5664"/><text fill="#000000" font-family="sans-serif" font-size="13" lengthAdjust="spacing" textLength="54" x="1485.5" y="634.8242">acronym</text><polygon fill="#181818" points="658.5,664.877,648.5,668.877,658.5,672.877,654.5,668.877" style="stroke:#181818;stroke-width:1.0;"/><line style="stroke:#181818;stroke-width:1.0;" x1="652.5" x2="1462.5" y1="668.877" y2="668.877"/><text fill="#000000" font-family="sans-serif" font-size="13" lengthAdjust="spacing" textLength="54" x="664.5" y="664.1348">acronym</text><polygon fill="#181818" points="1446.5,694.1875,1456.5,698.1875,1446.5,702.1875,1450.5,698.1875" style="stroke:#181818;stroke-width:1.0;"/><line style="stroke:#181818;stroke-width:1.0;" x1="647.5" x2="1452.5" y1="698.1875" y2="698.1875"/><text fill="#000000" font-family="sans-serif" font-size="13" lengthAdjust="spacing" textLength="192" x="654.5" y="693.4453">allCoursesTeacherIsAssigned()</text><polygon fill="#181818" points="1741.5,723.498,1751.5,727.498,1741.5,731.498,1745.5,727.498" style="stroke:#181818;stroke-width:1.0;"/><line style="stroke:#181818;stroke-width:1.0;" x1="1468.5" x2="1747.5" y1="727.498" y2="727.498"/><text fill="#000000" font-family="sans-serif" font-size="13" lengthAdjust="spacing" textLength="266" x="1475.5" y="722.7559">findAllCoursesTeacherIsAssign(acronym)()</text><polygon fill="#181818" points="1479.5,752.8086,1469.5,756.8086,1479.5,760.8086,1475.5,756.8086" style="stroke:#181818;stroke-width:1.0;"/><line style="stroke:#181818;stroke-width:1.0;" x1="1473.5" x2="1757.5" y1="756.8086" y2="756.8086"/><text fill="#000000" font-family="sans-serif" font-size="13" lengthAdjust="spacing" textLength="49" x="1485.5" y="752.0664">courses</text><polygon fill="#181818" points="658.5,782.1191,648.5,786.1191,658.5,790.1191,654.5,786.1191" style="stroke:#181818;stroke-width:1.0;"/><line style="stroke:#181818;stroke-width:1.0;" x1="652.5" x2="1462.5" y1="786.1191" y2="786.1191"/><text fill="#000000" font-family="sans-serif" font-size="13" lengthAdjust="spacing" textLength="49" x="664.5" y="781.377">courses</text><polygon fill="#181818" points="315.5,811.4297,305.5,815.4297,315.5,819.4297,311.5,815.4297" style="stroke:#181818;stroke-width:1.0;"/><line style="stroke:#181818;stroke-width:1.0;stroke-dasharray:2.0,2.0;" x1="309.5" x2="641.5" y1="815.4297" y2="815.4297"/><text fill="#000000" font-family="sans-serif" font-size="13" lengthAdjust="spacing" textLength="105" x="321.5" y="810.6875">listCourseExams</text><polygon fill="#181818" points="440,840.7402,450,844.7402,440,848.7402,444,844.7402" style="stroke:#181818;stroke-width:1.0;"/><line style="stroke:#181818;stroke-width:1.0;" x1="304.5" x2="446" y1="844.7402" y2="844.7402"/><text fill="#000000" font-family="sans-serif" font-size="13" lengthAdjust="spacing" textLength="89" x="311.5" y="839.998">selectCourse()</text><polygon fill="#181818" points="315.5,870.0508,305.5,874.0508,315.5,878.0508,311.5,874.0508" style="stroke:#181818;stroke-width:1.0;"/><line style="stroke:#181818;stroke-width:1.0;stroke-dasharray:2.0,2.0;" x1="309.5" x2="456" y1="874.0508" y2="874.0508"/><text fill="#000000" font-family="sans-serif" font-size="13" lengthAdjust="spacing" textLength="96" x="321.5" y="869.3086">selectedCourse</text><polygon fill="#181818" points="625.5,899.3613,635.5,903.3613,625.5,907.3613,629.5,903.3613" style="stroke:#181818;stroke-width:1.0;"/><line style="stroke:#181818;stroke-width:1.0;stroke-dasharray:2.0,2.0;" x1="304.5" x2="631.5" y1="903.3613" y2="903.3613"/><text fill="#000000" font-family="sans-serif" font-size="13" lengthAdjust="spacing" textLength="209" x="311.5" y="898.6191">listCourseExams(selectedCourse)</text><polygon fill="#181818" points="1565,928.6719,1575,932.6719,1565,936.6719,1569,932.6719" style="stroke:#181818;stroke-width:1.0;"/><line style="stroke:#181818;stroke-width:1.0;" x1="647.5" x2="1571" y1="932.6719" y2="932.6719"/><text fill="#000000" font-family="sans-serif" font-size="13" lengthAdjust="spacing" textLength="192" x="654.5" y="927.9297">listCourseExams = getExams()</text><polygon fill="#181818" points="658.5,957.9824,648.5,961.9824,658.5,965.9824,654.5,961.9824" style="stroke:#181818;stroke-width:1.0;"/><line style="stroke:#181818;stroke-width:1.0;stroke-dasharray:2.0,2.0;" x1="652.5" x2="1581" y1="961.9824" y2="961.9824"/><text fill="#000000" font-family="sans-serif" font-size="13" lengthAdjust="spacing" textLength="105" x="664.5" y="957.2402">listCourseExams</text><polygon fill="#181818" points="315.5,987.293,305.5,991.293,315.5,995.293,311.5,991.293" style="stroke:#181818;stroke-width:1.0;"/><line style="stroke:#181818;stroke-width:1.0;stroke-dasharray:2.0,2.0;" x1="309.5" x2="641.5" y1="991.293" y2="991.293"/><text fill="#000000" font-family="sans-serif" font-size="13" lengthAdjust="spacing" textLength="105" x="321.5" y="986.5508">listCourseExams</text><polygon fill="#181818" points="50.5,1016.6035,40.5,1020.6035,50.5,1024.6035,46.5,1020.6035" style="stroke:#181818;stroke-width:1.0;"/><line style="stroke:#181818;stroke-width:1.0;" x1="44.5" x2="298.5" y1="1020.6035" y2="1020.6035"/><text fill="#000000" font-family="sans-serif" font-size="13" lengthAdjust="spacing" textLength="231" x="56.5" y="1015.8613">show list of exams of chosen course</text><!--SRC=[dLRBRjim4BppAtYq3-a71Ae1mKWG0mLQn0bwPgLDJ5GM3P9Eutvzbm_9ouSIe1T3qkxCpWwNf4z2Mzd9anWjVmBH7K1pONZRMQNPYGI_IMEtwgmDtBsBetdUkJJyRPgJ1WEZ5LQgSRD9G7iOe8kmdx9_1UjGbQy5oqUrjsgqMWr3a7fzIp3jsHwGJtQUSG_wJNRWMplRlmSiQCAdJF4pVjw3COZn3P9N1_5F6UG7Q8C2OUp0QO5tEyboZzZPDPuX7-6aZ4IdB_V26NvnmEcnQLx2KmOAHeGI_gbfUdKKqidgXHM_17wBIsbsOqYwLdB062r2JQFdbmgRCwDAj4p1_23ncvkDcvLRnFmst2e-e24St69ozS85xxmKXWtBDs41andc8ugizItlD61mjMQru90E2MRDR6H46C4WGnW6mbmFmsZE6iX8GU_CU12c7I_VNrRHIJM0-V9qrsuVxXxNB81TvsI8Q1EpFf-vK3hEt8hm9Mt7EEiXeyluKX4YRuNQHL8PXUMbpnYZTIakgrvVnWzoojMiKReDTildYPDW4bzZ2fjI4JNjhan5Z2OIulQZ7Kw4cPGhAPvbpeMsqsgy71CnCObDoOWhjuzd8DljNglZ_eA7nz4ladESB5I1PoLZ8ay4NRIbaeC8JFoeWAUUbWqHmn2MqSH2EzFYXBoEqDEHMpQdEAHmOUJOjqkygoXplIgDohdOKerqK4ATYca5tv9r5OhPEkhST4ncqv-Fu7IMXLEmSfswO-7waJfH9hCAVXOIQA0FKQgZGkJrVBQHKyRw8PrlT7_D5LJygziibSFUIusep_IaraRaVoz8N95mwQ5x1_KdN7LuoSstNNTG-4zdklBe-RbZ_m00]--></g></svg>