<?xml version="1.0" encoding="us-ascii" standalone="no"?><svg xmlns="http://www.w3.org/2000/svg" xmlns:xlink="http://www.w3.org/1999/xlink" contentStyleType="text/css" height="1264px" preserveAspectRatio="none" style="width:816px;height:1264px;background:#FFFFFF;" version="1.1" viewBox="0 0 816 1264" width="816px" zoomAndPan="magnify"><defs/><g><!--cluster ecourse--><g id="cluster_ecourse"><path d="M8.5,6 L64.5,6 A3.75,3.75 0 0 1 67,8.5 L74,28.4883 L806.5,28.4883 A2.5,2.5 0 0 1 809,30.9883 L809,1254.98 A2.5,2.5 0 0 1 806.5,1257.48 L8.5,1257.48 A2.5,2.5 0 0 1 6,1254.98 L6,8.5 A2.5,2.5 0 0 1 8.5,6 " fill="none" style="stroke:#000000;stroke-width:1.5;"/><line style="stroke:#000000;stroke-width:1.5;" x1="6" x2="74" y1="28.4883" y2="28.4883"/><text fill="#000000" font-family="sans-serif" font-size="14" font-weight="bold" lengthAdjust="spacing" textLength="55" x="10" y="21.5352">ecourse</text></g><!--cluster presentation--><g id="cluster_presentation"><path d="M271.5,49 L363.5,49 A3.75,3.75 0 0 1 366,51.5 L373,71.4883 L474.5,71.4883 A2.5,2.5 0 0 1 477,73.9883 L477,145.5 A2.5,2.5 0 0 1 474.5,148 L271.5,148 A2.5,2.5 0 0 1 269,145.5 L269,51.5 A2.5,2.5 0 0 1 271.5,49 " fill="none" style="stroke:#000000;stroke-width:1.5;"/><line style="stroke:#000000;stroke-width:1.5;" x1="269" x2="373" y1="71.4883" y2="71.4883"/><text fill="#000000" font-family="sans-serif" font-size="14" font-weight="bold" lengthAdjust="spacing" textLength="91" x="273" y="64.5352">presentation</text></g><!--cluster core--><g id="cluster_core"><path d="M32.5,197 L63.5,197 A3.75,3.75 0 0 1 66,199.5 L73,219.4883 L532.5,219.4883 A2.5,2.5 0 0 1 535,221.9883 L535,1230.98 A2.5,2.5 0 0 1 532.5,1233.48 L32.5,1233.48 A2.5,2.5 0 0 1 30,1230.98 L30,199.5 A2.5,2.5 0 0 1 32.5,197 " fill="none" style="stroke:#000000;stroke-width:1.5;"/><line style="stroke:#000000;stroke-width:1.5;" x1="30" x2="73" y1="219.4883" y2="219.4883"/><text fill="#000000" font-family="sans-serif" font-size="14" font-weight="bold" lengthAdjust="spacing" textLength="30" x="34" y="212.5352">core</text></g><!--cluster application--><g id="cluster_application"><path d="M237.5,240 L318.5,240 A3.75,3.75 0 0 1 321,242.5 L328,262.4883 L508.5,262.4883 A2.5,2.5 0 0 1 511,264.9883 L511,361.61 A2.5,2.5 0 0 1 508.5,364.11 L237.5,364.11 A2.5,2.5 0 0 1 235,361.61 L235,242.5 A2.5,2.5 0 0 1 237.5,240 " fill="none" style="stroke:#000000;stroke-width:1.5;"/><line style="stroke:#000000;stroke-width:1.5;" x1="235" x2="328" y1="262.4883" y2="262.4883"/><text fill="#000000" font-family="sans-serif" font-size="14" font-weight="bold" lengthAdjust="spacing" textLength="80" x="239" y="255.5352">application</text></g><!--cluster domain--><g id="cluster_domain"><path d="M127.5,893.93 L182.5,893.93 A3.75,3.75 0 0 1 185,896.43 L192,916.4183 L508.5,916.4183 A2.5,2.5 0 0 1 511,918.9183 L511,1206.98 A2.5,2.5 0 0 1 508.5,1209.48 L127.5,1209.48 A2.5,2.5 0 0 1 125,1206.98 L125,896.43 A2.5,2.5 0 0 1 127.5,893.93 " fill="none" style="stroke:#000000;stroke-width:1.5;"/><line style="stroke:#000000;stroke-width:1.5;" x1="125" x2="192" y1="916.4183" y2="916.4183"/><text fill="#000000" font-family="sans-serif" font-size="14" font-weight="bold" lengthAdjust="spacing" textLength="54" x="129" y="909.4652">domain</text></g><!--cluster persistence--><g id="cluster_persistence"><path d="M126.5,397.11 L209.5,397.11 A3.75,3.75 0 0 1 212,399.61 L219,419.5983 L317.5,419.5983 A2.5,2.5 0 0 1 320,422.0983 L320,685.32 A2.5,2.5 0 0 1 317.5,687.82 L126.5,687.82 A2.5,2.5 0 0 1 124,685.32 L124,399.61 A2.5,2.5 0 0 1 126.5,397.11 " fill="none" style="stroke:#000000;stroke-width:1.5;"/><line style="stroke:#000000;stroke-width:1.5;" x1="124" x2="219" y1="419.5983" y2="419.5983"/><text fill="#000000" font-family="sans-serif" font-size="14" font-weight="bold" lengthAdjust="spacing" textLength="82" x="128" y="412.6452">persistence</text></g><!--cluster repositories--><g id="cluster_repositories"><path d="M56.5,720.82 L144.5,720.82 A3.75,3.75 0 0 1 147,723.32 L154,743.3083 L508.5,743.3083 A2.5,2.5 0 0 1 511,745.8083 L511,842.43 A2.5,2.5 0 0 1 508.5,844.93 L56.5,844.93 A2.5,2.5 0 0 1 54,842.43 L54,723.32 A2.5,2.5 0 0 1 56.5,720.82 " fill="none" style="stroke:#000000;stroke-width:1.5;"/><line style="stroke:#000000;stroke-width:1.5;" x1="54" x2="154" y1="743.3083" y2="743.3083"/><text fill="#000000" font-family="sans-serif" font-size="14" font-weight="bold" lengthAdjust="spacing" textLength="87" x="58" y="736.3552">repositories</text></g><!--cluster authz--><g id="cluster_authz"><path d="M561.5,409.67 L602.5,409.67 A3.75,3.75 0 0 1 605,412.17 L612,432.1583 L782.5,432.1583 A2.5,2.5 0 0 1 785,434.6583 L785,1023.41 A2.5,2.5 0 0 1 782.5,1025.91 L561.5,1025.91 A2.5,2.5 0 0 1 559,1023.41 L559,412.17 A2.5,2.5 0 0 1 561.5,409.67 " fill="none" style="stroke:#000000;stroke-width:1.5;"/><line style="stroke:#000000;stroke-width:1.5;" x1="559" x2="612" y1="432.1583" y2="432.1583"/><text fill="#000000" font-family="sans-serif" font-size="14" font-weight="bold" lengthAdjust="spacing" textLength="40" x="563" y="425.2052">authz</text></g><!--class RequestEnrollmentUI--><g id="elem_RequestEnrollmentUI"><rect codeLine="4" fill="#F1F1F1" height="48" id="RequestEnrollmentUI" rx="2.5" ry="2.5" style="stroke:#181818;stroke-width:0.5;" width="176" x="285" y="84"/><ellipse cx="300" cy="100" fill="#ADD1B2" rx="11" ry="11" style="stroke:#181818;stroke-width:1.0;"/><path d="M302.9731,105.6431 Q302.3921,105.9419 301.7529,106.0913 Q301.1138,106.2407 300.4082,106.2407 Q297.9014,106.2407 296.5815,104.5889 Q295.2617,102.937 295.2617,99.8159 Q295.2617,96.6865 296.5815,95.0347 Q297.9014,93.3828 300.4082,93.3828 Q301.1138,93.3828 301.7612,93.5322 Q302.4087,93.6816 302.9731,93.9805 L302.9731,96.7031 Q302.3423,96.1221 301.7488,95.8523 Q301.1553,95.5825 300.5244,95.5825 Q299.1797,95.5825 298.4949,96.6492 Q297.8101,97.7158 297.8101,99.8159 Q297.8101,101.9077 298.4949,102.9744 Q299.1797,104.041 300.5244,104.041 Q301.1553,104.041 301.7488,103.7712 Q302.3423,103.5015 302.9731,102.9204 Z " fill="#000000"/><text fill="#000000" font-family="sans-serif" font-size="14" lengthAdjust="spacing" textLength="144" x="314" y="105.291">RequestEnrollmentUI</text><line style="stroke:#181818;stroke-width:0.5;" x1="286" x2="460" y1="116" y2="116"/><line style="stroke:#181818;stroke-width:0.5;" x1="286" x2="460" y1="124" y2="124"/></g><!--class RequestEnrollmentController--><g id="elem_RequestEnrollmentController"><rect codeLine="10" fill="#F1F1F1" height="73.1094" id="RequestEnrollmentController" rx="2.5" ry="2.5" style="stroke:#181818;stroke-width:0.5;" width="244" x="251" y="275"/><ellipse cx="271.4" cy="295.3105" fill="#ADD1B2" rx="11" ry="11" style="stroke:#181818;stroke-width:1.0;"/><path d="M274.3731,300.9536 Q273.7921,301.2524 273.1529,301.4019 Q272.5138,301.5513 271.8082,301.5513 Q269.3014,301.5513 267.9815,299.8994 Q266.6617,298.2476 266.6617,295.1265 Q266.6617,291.9971 267.9815,290.3452 Q269.3014,288.6934 271.8082,288.6934 Q272.5138,288.6934 273.1612,288.8428 Q273.8087,288.9922 274.3731,289.291 L274.3731,292.0137 Q273.7423,291.4326 273.1488,291.1628 Q272.5553,290.8931 271.9244,290.8931 Q270.5797,290.8931 269.8949,291.9597 Q269.2101,293.0264 269.2101,295.1265 Q269.2101,297.2183 269.8949,298.2849 Q270.5797,299.3516 271.9244,299.3516 Q272.5553,299.3516 273.1488,299.0818 Q273.7423,298.812 274.3731,298.231 Z " fill="#000000"/><text fill="#000000" font-family="sans-serif" font-size="12" font-style="italic" lengthAdjust="spacing" textLength="75" x="349.1" y="291.6016">&#171;application&#187;</text><text fill="#000000" font-family="sans-serif" font-size="14" lengthAdjust="spacing" textLength="200" x="286.6" y="307.668">RequestEnrollmentController</text><line style="stroke:#181818;stroke-width:0.5;" x1="252" x2="494" y1="315.6211" y2="315.6211"/><line style="stroke:#181818;stroke-width:0.5;" x1="252" x2="494" y1="323.6211" y2="323.6211"/><text fill="#000000" font-family="sans-serif" font-size="14" lengthAdjust="spacing" textLength="232" x="257" y="341.1563">attemptEnroll(String coursename)</text></g><!--class Course--><g id="elem_Course"><rect codeLine="16" fill="#F1F1F1" height="64.4883" id="Course" rx="2.5" ry="2.5" style="stroke:#181818;stroke-width:0.5;" width="81" x="220.5" y="1108.19"/><ellipse cx="235.5" cy="1124.19" fill="#ADD1B2" rx="11" ry="11" style="stroke:#181818;stroke-width:1.0;"/><path d="M238.4731,1129.8331 Q237.8921,1130.1319 237.2529,1130.2813 Q236.6138,1130.4307 235.9082,1130.4307 Q233.4014,1130.4307 232.0815,1128.7789 Q230.7617,1127.127 230.7617,1124.0059 Q230.7617,1120.8765 232.0815,1119.2247 Q233.4014,1117.5728 235.9082,1117.5728 Q236.6138,1117.5728 237.2612,1117.7222 Q237.9087,1117.8716 238.4731,1118.1705 L238.4731,1120.8931 Q237.8423,1120.3121 237.2488,1120.0423 Q236.6553,1119.7725 236.0244,1119.7725 Q234.6797,1119.7725 233.9949,1120.8392 Q233.3101,1121.9058 233.3101,1124.0059 Q233.3101,1126.0977 233.9949,1127.1644 Q234.6797,1128.231 236.0244,1128.231 Q236.6553,1128.231 237.2488,1127.9612 Q237.8423,1127.6915 238.4731,1127.1104 Z " fill="#000000"/><text fill="#000000" font-family="sans-serif" font-size="14" lengthAdjust="spacing" textLength="49" x="249.5" y="1129.481">Course</text><line style="stroke:#181818;stroke-width:0.5;" x1="221.5" x2="300.5" y1="1140.19" y2="1140.19"/><line style="stroke:#181818;stroke-width:0.5;" x1="221.5" x2="300.5" y1="1148.19" y2="1148.19"/><text fill="#000000" font-family="sans-serif" font-size="14" lengthAdjust="spacing" textLength="43" x="226.5" y="1165.7252">state()</text></g><!--class EnrollmentRequest--><g id="elem_EnrollmentRequest"><rect codeLine="19" fill="#F1F1F1" height="97.4648" id="EnrollmentRequest" rx="2.5" ry="2.5" style="stroke:#181818;stroke-width:0.5;" width="354" x="141" y="928.93"/><ellipse cx="248.75" cy="944.93" fill="#ADD1B2" rx="11" ry="11" style="stroke:#181818;stroke-width:1.0;"/><path d="M251.7231,950.5731 Q251.1421,950.8719 250.5029,951.0213 Q249.8638,951.1707 249.1582,951.1707 Q246.6514,951.1707 245.3315,949.5189 Q244.0117,947.867 244.0117,944.7459 Q244.0117,941.6165 245.3315,939.9647 Q246.6514,938.3128 249.1582,938.3128 Q249.8638,938.3128 250.5112,938.4622 Q251.1587,938.6116 251.7231,938.9105 L251.7231,941.6331 Q251.0923,941.0521 250.4988,940.7823 Q249.9053,940.5125 249.2744,940.5125 Q247.9297,940.5125 247.2449,941.5792 Q246.5601,942.6458 246.5601,944.7459 Q246.5601,946.8377 247.2449,947.9044 Q247.9297,948.971 249.2744,948.971 Q249.9053,948.971 250.4988,948.7012 Q251.0923,948.4315 251.7231,947.8504 Z " fill="#000000"/><text fill="#000000" font-family="sans-serif" font-size="14" lengthAdjust="spacing" textLength="130" x="269.25" y="950.221">EnrollmentRequest</text><line style="stroke:#181818;stroke-width:0.5;" x1="142" x2="494" y1="960.93" y2="960.93"/><line style="stroke:#181818;stroke-width:0.5;" x1="142" x2="494" y1="968.93" y2="968.93"/><text fill="#000000" font-family="sans-serif" font-size="14" lengthAdjust="spacing" textLength="342" x="147" y="986.4652">create(SystemSystemUser student, Course course)</text><text fill="#000000" font-family="sans-serif" font-size="14" lengthAdjust="spacing" textLength="54" x="147" y="1002.9534">accept()</text><text fill="#000000" font-family="sans-serif" font-size="14" lengthAdjust="spacing" textLength="48" x="147" y="1019.4417">reject()</text></g><!--class RequestState--><g id="elem_RequestState"><rect codeLine="25" fill="#F1F1F1" height="106.0859" id="RequestState" rx="2.5" ry="2.5" style="stroke:#181818;stroke-width:0.5;" width="121" x="336.5" y="1087.39"/><ellipse cx="351.5" cy="1107.7005" fill="#EB937F" rx="11" ry="11" style="stroke:#181818;stroke-width:1.0;"/><path d="M355.6143,1113.7005 L347.8945,1113.7005 L347.8945,1101.3075 L355.6143,1101.3075 L355.6143,1103.4657 L350.3433,1103.4657 L350.3433,1106.1385 L355.1162,1106.1385 L355.1162,1108.2967 L350.3433,1108.2967 L350.3433,1111.5423 L355.6143,1111.5423 Z " fill="#000000"/><text fill="#000000" font-family="sans-serif" font-size="12" font-style="italic" lengthAdjust="spacing" textLength="44" x="388" y="1103.9916">&#171;enum&#187;</text><text fill="#000000" font-family="sans-serif" font-size="14" lengthAdjust="spacing" textLength="89" x="365.5" y="1120.058">RequestState</text><line style="stroke:#181818;stroke-width:0.5;" x1="337.5" x2="456.5" y1="1128.0111" y2="1128.0111"/><text fill="#000000" font-family="sans-serif" font-size="14" lengthAdjust="spacing" textLength="60" x="342.5" y="1145.5463">PENDING</text><text fill="#000000" font-family="sans-serif" font-size="14" lengthAdjust="spacing" textLength="73" x="342.5" y="1162.0345">ACCEPTED</text><text fill="#000000" font-family="sans-serif" font-size="14" lengthAdjust="spacing" textLength="67" x="342.5" y="1178.5228">DECLINED</text><line style="stroke:#181818;stroke-width:0.5;" x1="337.5" x2="456.5" y1="1185.4759" y2="1185.4759"/></g><!--class PersistenceContext--><g id="elem_PersistenceContext"><rect codeLine="34" fill="#F1F1F1" height="73.1094" id="PersistenceContext" rx="2.5" ry="2.5" style="stroke:#181818;stroke-width:0.5;" width="164" x="140" y="432.11"/><ellipse cx="155" cy="452.4205" fill="#ADD1B2" rx="11" ry="11" style="stroke:#181818;stroke-width:1.0;"/><path d="M157.9731,458.0636 Q157.3921,458.3624 156.7529,458.5119 Q156.1138,458.6613 155.4082,458.6613 Q152.9014,458.6613 151.5815,457.0094 Q150.2617,455.3576 150.2617,452.2365 Q150.2617,449.1071 151.5815,447.4552 Q152.9014,445.8034 155.4082,445.8034 Q156.1138,445.8034 156.7612,445.9528 Q157.4087,446.1022 157.9731,446.401 L157.9731,449.1237 Q157.3423,448.5426 156.7488,448.2728 Q156.1553,448.0031 155.5244,448.0031 Q154.1797,448.0031 153.4949,449.0697 Q152.8101,450.1364 152.8101,452.2365 Q152.8101,454.3283 153.4949,455.3949 Q154.1797,456.4616 155.5244,456.4616 Q156.1553,456.4616 156.7488,456.1918 Q157.3423,455.922 157.9731,455.341 Z " fill="#000000"/><text fill="#000000" font-family="sans-serif" font-size="12" font-style="italic" lengthAdjust="spacing" textLength="78" x="196" y="448.7116">&#171;persistence&#187;</text><text fill="#000000" font-family="sans-serif" font-size="14" lengthAdjust="spacing" textLength="132" x="169" y="464.778">PersistenceContext</text><line style="stroke:#181818;stroke-width:0.5;" x1="141" x2="303" y1="472.7311" y2="472.7311"/><line style="stroke:#181818;stroke-width:0.5;" x1="141" x2="303" y1="480.7311" y2="480.7311"/><text fill="#000000" font-family="sans-serif" font-size="14" lengthAdjust="spacing" textLength="92" x="146" y="498.2663">repositories()</text></g><!--class RepositoryFactory--><g id="elem_RepositoryFactory"><rect codeLine="38" fill="#F1F1F1" height="89.5977" id="RepositoryFactory" rx="2.5" ry="2.5" style="stroke:#181818;stroke-width:0.5;" width="159" x="142.5" y="582.22"/><ellipse cx="159.3" cy="602.5305" fill="#ADD1B2" rx="11" ry="11" style="stroke:#181818;stroke-width:1.0;"/><path d="M162.2731,608.1736 Q161.6921,608.4724 161.0529,608.6219 Q160.4138,608.7713 159.7082,608.7713 Q157.2014,608.7713 155.8815,607.1194 Q154.5617,605.4676 154.5617,602.3465 Q154.5617,599.2171 155.8815,597.5652 Q157.2014,595.9134 159.7082,595.9134 Q160.4138,595.9134 161.0612,596.0628 Q161.7087,596.2122 162.2731,596.511 L162.2731,599.2337 Q161.6423,598.6526 161.0488,598.3828 Q160.4553,598.1131 159.8244,598.1131 Q158.4797,598.1131 157.7949,599.1797 Q157.1101,600.2464 157.1101,602.3465 Q157.1101,604.4383 157.7949,605.5049 Q158.4797,606.5716 159.8244,606.5716 Q160.4553,606.5716 161.0488,606.3018 Q161.6423,606.032 162.2731,605.451 Z " fill="#000000"/><text fill="#000000" font-family="sans-serif" font-size="12" font-style="italic" lengthAdjust="spacing" textLength="51" x="209.7" y="598.8216">&#171;factory&#187;</text><text fill="#000000" font-family="sans-serif" font-size="14" lengthAdjust="spacing" textLength="123" x="173.7" y="614.888">RepositoryFactory</text><line style="stroke:#181818;stroke-width:0.5;" x1="143.5" x2="300.5" y1="622.8411" y2="622.8411"/><line style="stroke:#181818;stroke-width:0.5;" x1="143.5" x2="300.5" y1="630.8411" y2="630.8411"/><text fill="#000000" font-family="sans-serif" font-size="14" lengthAdjust="spacing" textLength="63" x="148.5" y="648.3763">courses()</text><text fill="#000000" font-family="sans-serif" font-size="14" lengthAdjust="spacing" textLength="147" x="148.5" y="664.8645">enrollmentRequests()</text></g><!--class CourseRepository--><g id="elem_CourseRepository"><rect codeLine="45" fill="#F1F1F1" height="56.6211" id="CourseRepository" rx="2.5" ry="2.5" style="stroke:#181818;stroke-width:0.5;" width="154" x="70" y="764.06"/><ellipse cx="85" cy="784.3705" fill="#ADD1B2" rx="11" ry="11" style="stroke:#181818;stroke-width:1.0;"/><path d="M87.9731,790.0136 Q87.3921,790.3124 86.7529,790.4619 Q86.1138,790.6113 85.4082,790.6113 Q82.9014,790.6113 81.5815,788.9594 Q80.2617,787.3076 80.2617,784.1865 Q80.2617,781.0571 81.5815,779.4052 Q82.9014,777.7534 85.4082,777.7534 Q86.1138,777.7534 86.7612,777.9028 Q87.4087,778.0522 87.9731,778.351 L87.9731,781.0737 Q87.3423,780.4926 86.7488,780.2228 Q86.1553,779.9531 85.5244,779.9531 Q84.1797,779.9531 83.4949,781.0197 Q82.8101,782.0864 82.8101,784.1865 Q82.8101,786.2783 83.4949,787.3449 Q84.1797,788.4116 85.5244,788.4116 Q86.1553,788.4116 86.7488,788.1418 Q87.3423,787.872 87.9731,787.291 Z " fill="#000000"/><text fill="#000000" font-family="sans-serif" font-size="12" font-style="italic" lengthAdjust="spacing" textLength="70" x="125" y="780.6616">&#171;repository&#187;</text><text fill="#000000" font-family="sans-serif" font-size="14" lengthAdjust="spacing" textLength="122" x="99" y="796.728">CourseRepository</text><line style="stroke:#181818;stroke-width:0.5;" x1="71" x2="223" y1="804.6811" y2="804.6811"/><line style="stroke:#181818;stroke-width:0.5;" x1="71" x2="223" y1="812.6811" y2="812.6811"/></g><!--class EnrollmentRequestRepository--><g id="elem_EnrollmentRequestRepository"><rect codeLine="48" fill="#F1F1F1" height="73.1094" id="EnrollmentRequestRepository" rx="2.5" ry="2.5" style="stroke:#181818;stroke-width:0.5;" width="235" x="259.5" y="755.82"/><ellipse cx="274.5" cy="776.1305" fill="#ADD1B2" rx="11" ry="11" style="stroke:#181818;stroke-width:1.0;"/><path d="M277.4731,781.7736 Q276.8921,782.0724 276.2529,782.2219 Q275.6138,782.3713 274.9082,782.3713 Q272.4014,782.3713 271.0815,780.7194 Q269.7617,779.0676 269.7617,775.9465 Q269.7617,772.8171 271.0815,771.1652 Q272.4014,769.5134 274.9082,769.5134 Q275.6138,769.5134 276.2612,769.6628 Q276.9087,769.8122 277.4731,770.111 L277.4731,772.8337 Q276.8423,772.2526 276.2488,771.9828 Q275.6553,771.7131 275.0244,771.7131 Q273.6797,771.7131 272.9949,772.7797 Q272.3101,773.8464 272.3101,775.9465 Q272.3101,778.0383 272.9949,779.1049 Q273.6797,780.1716 275.0244,780.1716 Q275.6553,780.1716 276.2488,779.9018 Q276.8423,779.632 277.4731,779.051 Z " fill="#000000"/><text fill="#000000" font-family="sans-serif" font-size="12" font-style="italic" lengthAdjust="spacing" textLength="70" x="355" y="772.4216">&#171;repository&#187;</text><text fill="#000000" font-family="sans-serif" font-size="14" lengthAdjust="spacing" textLength="203" x="288.5" y="788.488">EnrollmentRequestRepository</text><line style="stroke:#181818;stroke-width:0.5;" x1="260.5" x2="493.5" y1="796.4411" y2="796.4411"/><line style="stroke:#181818;stroke-width:0.5;" x1="260.5" x2="493.5" y1="804.4411" y2="804.4411"/><text fill="#000000" font-family="sans-serif" font-size="14" lengthAdjust="spacing" textLength="222" x="265.5" y="821.9763">add(EnrollmentRequest request)</text></g><!--class AuthorizationService--><g id="elem_AuthorizationService"><rect codeLine="55" fill="#F1F1F1" height="73.1094" id="AuthorizationService" rx="2.5" ry="2.5" style="stroke:#181818;stroke-width:0.5;" width="175" x="575.5" y="590.47"/><ellipse cx="590.5" cy="610.7805" fill="#ADD1B2" rx="11" ry="11" style="stroke:#181818;stroke-width:1.0;"/><path d="M593.4731,616.4236 Q592.8921,616.7224 592.2529,616.8719 Q591.6138,617.0213 590.9082,617.0213 Q588.4014,617.0213 587.0815,615.3694 Q585.7617,613.7176 585.7617,610.5965 Q585.7617,607.4671 587.0815,605.8152 Q588.4014,604.1634 590.9082,604.1634 Q591.6138,604.1634 592.2612,604.3128 Q592.9087,604.4622 593.4731,604.761 L593.4731,607.4837 Q592.8423,606.9026 592.2488,606.6328 Q591.6553,606.3631 591.0244,606.3631 Q589.6797,606.3631 588.9949,607.4297 Q588.3101,608.4964 588.3101,610.5965 Q588.3101,612.6883 588.9949,613.7549 Q589.6797,614.8216 591.0244,614.8216 Q591.6553,614.8216 592.2488,614.5518 Q592.8423,614.282 593.4731,613.701 Z " fill="#000000"/><text fill="#000000" font-family="sans-serif" font-size="12" font-style="italic" lengthAdjust="spacing" textLength="52" x="650" y="607.0716">&#171;service&#187;</text><text fill="#000000" font-family="sans-serif" font-size="14" lengthAdjust="spacing" textLength="143" x="604.5" y="623.138">AuthorizationService</text><line style="stroke:#181818;stroke-width:0.5;" x1="576.5" x2="749.5" y1="631.0911" y2="631.0911"/><line style="stroke:#181818;stroke-width:0.5;" x1="576.5" x2="749.5" y1="639.0911" y2="639.0911"/><text fill="#000000" font-family="sans-serif" font-size="14" lengthAdjust="spacing" textLength="61" x="581.5" y="656.6263">session()</text></g><!--class AuthzRegistry--><g id="elem_AuthzRegistry"><rect codeLine="59" fill="#F1F1F1" height="48" id="AuthzRegistry" rx="2.5" ry="2.5" style="stroke:#181818;stroke-width:0.5;" width="128" x="587" y="444.67"/><ellipse cx="602" cy="460.67" fill="#ADD1B2" rx="11" ry="11" style="stroke:#181818;stroke-width:1.0;"/><path d="M604.9731,466.3131 Q604.3921,466.6119 603.7529,466.7613 Q603.1138,466.9107 602.4082,466.9107 Q599.9014,466.9107 598.5815,465.2589 Q597.2617,463.607 597.2617,460.4859 Q597.2617,457.3565 598.5815,455.7047 Q599.9014,454.0528 602.4082,454.0528 Q603.1138,454.0528 603.7612,454.2022 Q604.4087,454.3516 604.9731,454.6505 L604.9731,457.3731 Q604.3423,456.7921 603.7488,456.5223 Q603.1553,456.2525 602.5244,456.2525 Q601.1797,456.2525 600.4949,457.3192 Q599.8101,458.3858 599.8101,460.4859 Q599.8101,462.5777 600.4949,463.6444 Q601.1797,464.711 602.5244,464.711 Q603.1553,464.711 603.7488,464.4412 Q604.3423,464.1715 604.9731,463.5904 Z " fill="#000000"/><text fill="#000000" font-family="sans-serif" font-size="14" lengthAdjust="spacing" textLength="96" x="616" y="465.961">AuthzRegistry</text><line style="stroke:#181818;stroke-width:0.5;" x1="588" x2="714" y1="476.67" y2="476.67"/><line style="stroke:#181818;stroke-width:0.5;" x1="588" x2="714" y1="484.67" y2="484.67"/></g><!--class SystemUser--><g id="elem_SystemUser"><rect codeLine="61" fill="#F1F1F1" height="64.4883" id="SystemUser" rx="2.5" ry="2.5" style="stroke:#181818;stroke-width:0.5;" width="111" x="616.5" y="945.42"/><ellipse cx="631.5" cy="961.42" fill="#ADD1B2" rx="11" ry="11" style="stroke:#181818;stroke-width:1.0;"/><path d="M634.4731,967.0631 Q633.8921,967.3619 633.2529,967.5113 Q632.6138,967.6607 631.9082,967.6607 Q629.4014,967.6607 628.0815,966.0089 Q626.7617,964.357 626.7617,961.2359 Q626.7617,958.1065 628.0815,956.4547 Q629.4014,954.8028 631.9082,954.8028 Q632.6138,954.8028 633.2612,954.9522 Q633.9087,955.1016 634.4731,955.4005 L634.4731,958.1231 Q633.8423,957.5421 633.2488,957.2723 Q632.6553,957.0025 632.0244,957.0025 Q630.6797,957.0025 629.9949,958.0692 Q629.3101,959.1358 629.3101,961.2359 Q629.3101,963.3277 629.9949,964.3944 Q630.6797,965.461 632.0244,965.461 Q632.6553,965.461 633.2488,965.1912 Q633.8423,964.9215 634.4731,964.3404 Z " fill="#000000"/><text fill="#000000" font-family="sans-serif" font-size="14" lengthAdjust="spacing" textLength="79" x="645.5" y="966.711">SystemUser</text><line style="stroke:#181818;stroke-width:0.5;" x1="617.5" x2="726.5" y1="977.42" y2="977.42"/><line style="stroke:#181818;stroke-width:0.5;" x1="617.5" x2="726.5" y1="985.42" y2="985.42"/><text fill="#000000" font-family="sans-serif" font-size="14" lengthAdjust="spacing" textLength="37" x="622.5" y="1002.9552">role()</text></g><!--class UserSession--><g id="elem_UserSession"><rect codeLine="65" fill="#F1F1F1" height="64.4883" id="UserSession" rx="2.5" ry="2.5" style="stroke:#181818;stroke-width:0.5;" width="195" x="574.5" y="760.13"/><ellipse cx="626.25" cy="776.13" fill="#ADD1B2" rx="11" ry="11" style="stroke:#181818;stroke-width:1.0;"/><path d="M629.2231,781.7731 Q628.6421,782.0719 628.0029,782.2213 Q627.3638,782.3707 626.6582,782.3707 Q624.1514,782.3707 622.8315,780.7189 Q621.5117,779.067 621.5117,775.9459 Q621.5117,772.8165 622.8315,771.1647 Q624.1514,769.5128 626.6582,769.5128 Q627.3638,769.5128 628.0112,769.6622 Q628.6587,769.8116 629.2231,770.1105 L629.2231,772.8331 Q628.5923,772.2521 627.9988,771.9823 Q627.4053,771.7125 626.7744,771.7125 Q625.4297,771.7125 624.7449,772.7792 Q624.0601,773.8458 624.0601,775.9459 Q624.0601,778.0377 624.7449,779.1044 Q625.4297,780.171 626.7744,780.171 Q627.4053,780.171 627.9988,779.9012 Q628.5923,779.6315 629.2231,779.0504 Z " fill="#000000"/><text fill="#000000" font-family="sans-serif" font-size="14" lengthAdjust="spacing" textLength="83" x="646.75" y="781.421">UserSession</text><line style="stroke:#181818;stroke-width:0.5;" x1="575.5" x2="768.5" y1="792.13" y2="792.13"/><line style="stroke:#181818;stroke-width:0.5;" x1="575.5" x2="768.5" y1="800.13" y2="800.13"/><text fill="#000000" font-family="sans-serif" font-size="14" lengthAdjust="spacing" textLength="183" x="580.5" y="817.6652">authenticatedSystemUser()</text></g><!--link EnrollmentRequest to Course--><g id="link_EnrollmentRequest_Course"><path codeLine="70" d="M301.05,1026.46 C293.37,1048.13 284.34,1073.6 276.8,1094.87 " fill="none" id="EnrollmentRequest-to-Course" style="stroke:#181818;stroke-width:1.0;"/><polygon fill="#181818" points="272.21,1106.82,277.9842,1102.5004,276.2176,1095.509,270.4435,1099.8286,272.21,1106.82" style="stroke:#181818;stroke-width:1.0;"/></g><!--link EnrollmentRequest to RequestState--><g id="link_EnrollmentRequest_RequestState"><path codeLine="71" d="M341.49,1026.46 C348.95,1041.66 357.34,1058.72 365.29,1074.9 " fill="none" id="EnrollmentRequest-to-RequestState" style="stroke:#181818;stroke-width:1.0;"/><polygon fill="#181818" points="371.26,1086.05,372.2071,1078.9014,365.9727,1075.2776,365.0256,1082.4262,371.26,1086.05" style="stroke:#181818;stroke-width:1.0;"/></g><!--link EnrollmentRequestRepository to EnrollmentRequest--><g id="link_EnrollmentRequestRepository_EnrollmentRequest"><path codeLine="73" d="M365.48,829.15 C356.9,855.83 345.02,892.72 335.3,922.93 " fill="none" id="EnrollmentRequestRepository-to-EnrollmentRequest" style="stroke:#181818;stroke-width:1.0;"/><polygon fill="#181818" points="333.51,927.49,340.0914,920.163,335.0525,922.7339,332.4817,917.695,333.51,927.49" style="stroke:#181818;stroke-width:1.0;"/><text fill="#000000" font-family="sans-serif" font-size="13" lengthAdjust="spacing" textLength="39" x="355" y="874.4984">stores</text></g><!--link RequestEnrollmentUI to RequestEnrollmentController--><g id="link_RequestEnrollmentUI_RequestEnrollmentController"><path codeLine="75" d="M373,132.12 C373,165.44 373,227.47 373,268.89 " fill="none" id="RequestEnrollmentUI-to-RequestEnrollmentController" style="stroke:#181818;stroke-width:1.0;stroke-dasharray:7.0,7.0;"/><polygon fill="#181818" points="373,273.85,377,264.85,373,268.85,369,264.85,373,273.85" style="stroke:#181818;stroke-width:1.0;"/><polygon fill="#000000" points="378,177.6553,380.9389,168.6102,375.0611,168.6102,378,177.6553" style="stroke:#000000;stroke-width:1.0;"/><text fill="#000000" font-family="sans-serif" font-size="13" lengthAdjust="spacing" textLength="61" x="387" y="177.5684">controller</text></g><!--link RequestEnrollmentController to PersistenceContext--><g id="link_RequestEnrollmentController_PersistenceContext"><path codeLine="77" d="M337.98,348.53 C315,372.14 284.92,403.03 261.15,427.45 " fill="none" id="RequestEnrollmentController-to-PersistenceContext" style="stroke:#181818;stroke-width:1.0;stroke-dasharray:7.0,7.0;"/><polygon fill="#181818" points="258.09,430.62,267.2315,426.9548,261.5752,427.0348,261.4952,421.3785,258.09,430.62" style="stroke:#181818;stroke-width:1.0;"/></g><!--link RequestEnrollmentController to EnrollmentRequestRepository--><g id="link_RequestEnrollmentController_EnrollmentRequestRepository"><path codeLine="78" d="M373.3,348.55 C374.03,435.59 375.88,657.12 376.65,749.71 " fill="none" id="RequestEnrollmentController-to-EnrollmentRequestRepository" style="stroke:#181818;stroke-width:1.0;"/><polygon fill="#181818" points="376.7,754.62,380.6227,745.586,376.6571,749.6202,372.623,745.6546,376.7,754.62" style="stroke:#181818;stroke-width:1.0;"/></g><!--link RequestEnrollmentController to CourseRepository--><g id="link_RequestEnrollmentController_CourseRepository"><path codeLine="79" d="M368.57,348.61 C356.91,442.79 325.9,689.44 320,695.82 C295.9,721.86 273.91,697.3 242,712.82 C218.05,724.47 194.93,743.36 177.5,759.69 " fill="none" id="RequestEnrollmentController-to-CourseRepository" style="stroke:#181818;stroke-width:1.0;"/><polygon fill="#181818" points="174.19,762.79,183.472,759.497,177.8171,759.3485,177.9656,753.6936,174.19,762.79" style="stroke:#181818;stroke-width:1.0;"/></g><!--link PersistenceContext to RepositoryFactory--><g id="link_PersistenceContext_RepositoryFactory"><path codeLine="81" d="M222,505.54 C222,526.48 222,553.23 222,576.19 " fill="none" id="PersistenceContext-to-RepositoryFactory" style="stroke:#181818;stroke-width:1.0;stroke-dasharray:7.0,7.0;"/><polygon fill="#181818" points="222,580.94,226,571.94,222,575.94,218,571.94,222,580.94" style="stroke:#181818;stroke-width:1.0;"/><polygon fill="#000000" points="227,548.8753,229.9389,539.8302,224.0611,539.8302,227,548.8753" style="stroke:#000000;stroke-width:1.0;"/><text fill="#000000" font-family="sans-serif" font-size="13" lengthAdjust="spacing" textLength="44" x="236" y="548.7884">factory</text></g><!--link RepositoryFactory to EnrollmentRequestRepository--><g id="link_RepositoryFactory_EnrollmentRequestRepository"><path codeLine="84" d="M263.95,672.23 C287.34,696.88 316.25,727.35 338.98,751.3 " fill="none" id="RepositoryFactory-to-EnrollmentRequestRepository" style="stroke:#181818;stroke-width:1.0;stroke-dasharray:7.0,7.0;"/><polygon fill="#181818" points="341.86,754.39,338.567,745.108,338.4185,750.7629,332.7636,750.6144,341.86,754.39" style="stroke:#181818;stroke-width:1.0;"/></g><!--link RepositoryFactory to CourseRepository--><g id="link_RepositoryFactory_CourseRepository"><path codeLine="85" d="M201.7,672.23 C189.15,699.57 173.31,734.07 161.91,758.9 " fill="none" id="RepositoryFactory-to-CourseRepository" style="stroke:#181818;stroke-width:1.0;stroke-dasharray:7.0,7.0;"/><polygon fill="#181818" points="159.55,763.05,166.9404,756.5398,161.6362,758.506,159.67,753.2019,159.55,763.05" style="stroke:#181818;stroke-width:1.0;"/></g><!--link AuthzRegistry to AuthorizationService--><g id="link_AuthzRegistry_AuthorizationService"><path codeLine="89" d="M652.8,493.08 C654.65,517.19 657.57,555.29 659.82,584.53 " fill="none" id="AuthzRegistry-to-AuthorizationService" style="stroke:#181818;stroke-width:1.0;stroke-dasharray:7.0,7.0;"/><polygon fill="#181818" points="660.26,589.26,663.5803,579.9877,659.8885,584.2738,655.6024,580.582,660.26,589.26" style="stroke:#181818;stroke-width:1.0;"/></g><!--link AuthorizationService to UserSession--><g id="link_AuthorizationService_UserSession"><path codeLine="90" d="M664.98,663.87 C666.44,690.5 668.44,726.74 669.93,753.78 " fill="none" id="AuthorizationService-to-UserSession" style="stroke:#181818;stroke-width:1.0;"/><polygon fill="#181818" points="670.26,758.75,673.7648,749.5459,669.9882,753.7574,665.7767,749.9808,670.26,758.75" style="stroke:#181818;stroke-width:1.0;"/></g><!--link UserSession to SystemUser--><g id="link_UserSession_SystemUser"><path codeLine="91" d="M672,824.88 C672,856.62 672,905.58 672,939.26 " fill="none" id="UserSession-to-SystemUser" style="stroke:#181818;stroke-width:1.0;"/><polygon fill="#181818" points="672,943.95,676,934.95,672,938.95,668,934.95,672,943.95" style="stroke:#181818;stroke-width:1.0;"/></g><!--link RequestEnrollmentController to AuthzRegistry--><g id="link_RequestEnrollmentController_AuthzRegistry"><path codeLine="93" d="M437.48,348.53 C488.29,376.88 557.97,415.76 603.71,441.28 " fill="none" id="RequestEnrollmentController-to-AuthzRegistry" style="stroke:#181818;stroke-width:1.0;stroke-dasharray:7.0,7.0;"/><polygon fill="#181818" points="607.89,444.17,601.9958,436.2796,603.5287,441.7248,598.0835,443.2577,607.89,444.17" style="stroke:#181818;stroke-width:1.0;"/></g><!--link RequestEnrollmentController to AuthorizationService--><g id="link_RequestEnrollmentController_AuthorizationService"><path codeLine="94" d="M406.27,348.52 C460.75,407.41 568.64,524.02 625.66,585.66 " fill="none" id="RequestEnrollmentController-to-AuthorizationService" style="stroke:#181818;stroke-width:1.0;"/><polygon fill="#181818" points="628.68,589,625.4815,579.685,625.2756,585.3381,619.6224,585.1321,628.68,589" style="stroke:#181818;stroke-width:1.0;"/></g><!--SRC=[XLFjZfim4Fplf_1Fhchk0Q8JqedGAj8fYexU0rXccwC5pDccQeBwxjt51fp0aKHA_B6pExCxReJyBKx0GQfM6-XOumyQ3GPgAsoXwex9KXZ3N-6Z1MFJMgkohF3sRT-nV_WTKLBf88TechAGwoaILLjQW-PFJm4WZZl6yIEiXQhnW2YpkgXFt96jHGKFr_LpLObYB9PuJPJ7e1I8ADpTJGmy9HScDL1STZPOrls-6UHcR9jZx5UVqpDuS1IbXCP6RgFX5qZR5s9GjzMWEAFwA97EufYxQiVqiDiVllVhvoH9Zp_INR_PfSdB_e2RNjqq5D2cG4wrX47ZSJgYLi9VYqM2kA6F6Xfb2gjq0SQn6mRYpy_VXAG_XFzqgv6c4skyGhZjdCiNJ26iTJsBgHgM6SFEH79aD9lCfo1FJ-HvD0CXYVxVKGl8YTQ-NmPMpxX1cfVUSXdeFuMa8Hct6YkWU8C1OTy8UNc54xPPdxlHLfDbVDjL2I6CRZANRM2FYP0ssHxo2HuDnEVADfillfsVN8QMOsojdvjDFEyttwBTyI4RnXPUF7zyZ5UVyHRzCcxYXHn1BEMQEtWLiaXvadGNUsj4nXQUaDDu-pAstByCaiNczuHQfxQ4c1DYxCfTVTIIKzcYVKbaO3CMMexk9e_TdyqLZxkjNUJu7m00]--></g></svg>