<?xml version="1.0" encoding="us-ascii" standalone="no"?><svg xmlns="http://www.w3.org/2000/svg" xmlns:xlink="http://www.w3.org/1999/xlink" contentStyleType="text/css" height="681px" preserveAspectRatio="none" style="width:856px;height:681px;background:#FFFFFF;" version="1.1" viewBox="0 0 856 681" width="856px" zoomAndPan="magnify"><defs/><g><rect fill="#FFFFFF" height="71.0469" style="stroke:#181818;stroke-width:1.0;" width="10" x="255" y="111.1641"/><rect fill="#FFFFFF" height="372.9531" style="stroke:#181818;stroke-width:1.0;" width="10" x="255" y="210.7344"/><rect fill="#FFFFFF" height="14" style="stroke:#181818;stroke-width:1.0;" width="10" x="408" y="139.6875"/><rect fill="#FFFFFF" height="315.9063" style="stroke:#181818;stroke-width:1.0;" width="10" x="586" y="239.2578"/><rect fill="#FFFFFF" height="273.3828" style="stroke:#181818;stroke-width:1.0;" width="10" x="730.5" y="267.7813"/><rect fill="#FFFFFF" height="28" style="stroke:#181818;stroke-width:1.0;" width="10" x="735.5" y="327.8281"/><rect fill="#FFFFFF" height="28" style="stroke:#181818;stroke-width:1.0;" width="10" x="735.5" y="413.6406"/><rect fill="#FFFFFF" height="28" style="stroke:#181818;stroke-width:1.0;" width="10" x="735.5" y="485.1641"/><rect fill="none" height="245.3828" style="stroke:#000000;stroke-width:1.5;" width="162" x="687.5" y="282.7813"/><line style="stroke:#181818;stroke-width:0.5;stroke-dasharray:5.0,5.0;" x1="36" x2="36" y1="80.6406" y2="601.6875"/><line style="stroke:#181818;stroke-width:0.5;stroke-dasharray:5.0,5.0;" x1="259.5" x2="259.5" y1="80.6406" y2="601.6875"/><line style="stroke:#181818;stroke-width:0.5;stroke-dasharray:5.0,5.0;" x1="412.5" x2="412.5" y1="80.6406" y2="601.6875"/><line style="stroke:#181818;stroke-width:0.5;stroke-dasharray:5.0,5.0;" x1="590.5" x2="590.5" y1="80.6406" y2="601.6875"/><line style="stroke:#181818;stroke-width:0.5;stroke-dasharray:5.0,5.0;" x1="735.5" x2="735.5" y1="80.6406" y2="601.6875"/><text fill="#000000" font-family="sans-serif" font-size="14" lengthAdjust="spacing" textLength="56" x="5" y="77.6738">Manager</text><ellipse cx="36" cy="13.5" fill="#E2E2F0" rx="8" ry="8" style="stroke:#181818;stroke-width:0.5;"/><path d="M36,21.5 L36,48.5 M23,29.5 L49,29.5 M36,48.5 L23,63.5 M36,48.5 L49,63.5 " fill="none" style="stroke:#181818;stroke-width:0.5;"/><text fill="#000000" font-family="sans-serif" font-size="14" lengthAdjust="spacing" textLength="56" x="5" y="613.3613">Manager</text><ellipse cx="36" cy="624.8281" fill="#E2E2F0" rx="8" ry="8" style="stroke:#181818;stroke-width:0.5;"/><path d="M36,632.8281 L36,659.8281 M23,640.8281 L49,640.8281 M36,659.8281 L23,674.8281 M36,659.8281 L49,674.8281 " fill="none" style="stroke:#181818;stroke-width:0.5;"/><rect fill="#E2E2F0" height="45.2813" rx="2.5" ry="2.5" style="stroke:#181818;stroke-width:0.5;" width="143" x="188.5" y="34.3594"/><text fill="#000000" font-family="sans-serif" font-size="14" font-style="italic" lengthAdjust="spacing" textLength="95" x="212.5" y="54.0332">&#171;presentation&#187;</text><text fill="#000000" font-family="sans-serif" font-size="14" lengthAdjust="spacing" textLength="129" x="195.5" y="69.6738">OpenCloseCourseUI</text><rect fill="#E2E2F0" height="45.2813" rx="2.5" ry="2.5" style="stroke:#181818;stroke-width:0.5;" width="143" x="188.5" y="600.6875"/><text fill="#000000" font-family="sans-serif" font-size="14" font-style="italic" lengthAdjust="spacing" textLength="95" x="212.5" y="620.3613">&#171;presentation&#187;</text><text fill="#000000" font-family="sans-serif" font-size="14" lengthAdjust="spacing" textLength="129" x="195.5" y="636.002">OpenCloseCourseUI</text><rect fill="#E2E2F0" height="45.2813" rx="2.5" ry="2.5" style="stroke:#181818;stroke-width:0.5;" width="143" x="341.5" y="34.3594"/><text fill="#000000" font-family="sans-serif" font-size="14" font-style="italic" lengthAdjust="spacing" textLength="95" x="365.5" y="54.0332">&#171;presentation&#187;</text><text fill="#000000" font-family="sans-serif" font-size="14" lengthAdjust="spacing" textLength="129" x="348.5" y="69.6738">SelectCourseWidget</text><rect fill="#E2E2F0" height="45.2813" rx="2.5" ry="2.5" style="stroke:#181818;stroke-width:0.5;" width="143" x="341.5" y="600.6875"/><text fill="#000000" font-family="sans-serif" font-size="14" font-style="italic" lengthAdjust="spacing" textLength="95" x="365.5" y="620.3613">&#171;presentation&#187;</text><text fill="#000000" font-family="sans-serif" font-size="14" lengthAdjust="spacing" textLength="129" x="348.5" y="636.002">SelectCourseWidget</text><rect fill="#E2E2F0" height="45.2813" rx="2.5" ry="2.5" style="stroke:#181818;stroke-width:0.5;" width="193" x="494.5" y="34.3594"/><text fill="#000000" font-family="sans-serif" font-size="14" font-style="italic" lengthAdjust="spacing" textLength="84" x="549" y="54.0332">&#171;application&#187;</text><text fill="#000000" font-family="sans-serif" font-size="14" lengthAdjust="spacing" textLength="179" x="501.5" y="69.6738">OpenCloseCourseController</text><rect fill="#E2E2F0" height="45.2813" rx="2.5" ry="2.5" style="stroke:#181818;stroke-width:0.5;" width="193" x="494.5" y="600.6875"/><text fill="#000000" font-family="sans-serif" font-size="14" font-style="italic" lengthAdjust="spacing" textLength="84" x="549" y="620.3613">&#171;application&#187;</text><text fill="#000000" font-family="sans-serif" font-size="14" lengthAdjust="spacing" textLength="179" x="501.5" y="636.002">OpenCloseCourseController</text><rect fill="#E2E2F0" height="45.2813" rx="2.5" ry="2.5" style="stroke:#181818;stroke-width:0.5;" width="76" x="697.5" y="34.3594"/><text fill="#000000" font-family="sans-serif" font-size="14" font-style="italic" lengthAdjust="spacing" textLength="62" x="704.5" y="54.0332">&#171;domain&#187;</text><text fill="#000000" font-family="sans-serif" font-size="14" lengthAdjust="spacing" textLength="46" x="712.5" y="69.6738">Course</text><rect fill="#E2E2F0" height="45.2813" rx="2.5" ry="2.5" style="stroke:#181818;stroke-width:0.5;" width="76" x="697.5" y="600.6875"/><text fill="#000000" font-family="sans-serif" font-size="14" font-style="italic" lengthAdjust="spacing" textLength="62" x="704.5" y="620.3613">&#171;domain&#187;</text><text fill="#000000" font-family="sans-serif" font-size="14" lengthAdjust="spacing" textLength="46" x="712.5" y="636.002">Course</text><rect fill="#FFFFFF" height="71.0469" style="stroke:#181818;stroke-width:1.0;" width="10" x="255" y="111.1641"/><rect fill="#FFFFFF" height="372.9531" style="stroke:#181818;stroke-width:1.0;" width="10" x="255" y="210.7344"/><rect fill="#FFFFFF" height="14" style="stroke:#181818;stroke-width:1.0;" width="10" x="408" y="139.6875"/><rect fill="#FFFFFF" height="315.9063" style="stroke:#181818;stroke-width:1.0;" width="10" x="586" y="239.2578"/><rect fill="#FFFFFF" height="273.3828" style="stroke:#181818;stroke-width:1.0;" width="10" x="730.5" y="267.7813"/><rect fill="#FFFFFF" height="28" style="stroke:#181818;stroke-width:1.0;" width="10" x="735.5" y="327.8281"/><rect fill="#FFFFFF" height="28" style="stroke:#181818;stroke-width:1.0;" width="10" x="735.5" y="413.6406"/><rect fill="#FFFFFF" height="28" style="stroke:#181818;stroke-width:1.0;" width="10" x="735.5" y="485.1641"/><polygon fill="#181818" points="243,107.1641,253,111.1641,243,115.1641,247,111.1641" style="stroke:#181818;stroke-width:1.0;"/><line style="stroke:#181818;stroke-width:1.0;" x1="36" x2="249" y1="111.1641" y2="111.1641"/><text fill="#000000" font-family="sans-serif" font-size="13" lengthAdjust="spacing" textLength="146" x="43" y="106.4092">ask to open/close course</text><polygon fill="#181818" points="396,135.6875,406,139.6875,396,143.6875,400,139.6875" style="stroke:#181818;stroke-width:1.0;"/><line style="stroke:#181818;stroke-width:1.0;" x1="265" x2="402" y1="139.6875" y2="139.6875"/><text fill="#000000" font-family="sans-serif" font-size="13" lengthAdjust="spacing" textLength="76" x="272" y="134.9326">selectCourse</text><polygon fill="#181818" points="276,149.6875,266,153.6875,276,157.6875,272,153.6875" style="stroke:#181818;stroke-width:1.0;"/><line style="stroke:#181818;stroke-width:1.0;stroke-dasharray:2.0,2.0;" x1="270" x2="412" y1="153.6875" y2="153.6875"/><polygon fill="#181818" points="47,178.2109,37,182.2109,47,186.2109,43,182.2109" style="stroke:#181818;stroke-width:1.0;"/><line style="stroke:#181818;stroke-width:1.0;stroke-dasharray:2.0,2.0;" x1="41" x2="259" y1="182.2109" y2="182.2109"/><text fill="#000000" font-family="sans-serif" font-size="13" lengthAdjust="spacing" textLength="195" x="53" y="177.4561">shows and ask to select a course</text><polygon fill="#181818" points="243,206.7344,253,210.7344,243,214.7344,247,210.7344" style="stroke:#181818;stroke-width:1.0;"/><line style="stroke:#181818;stroke-width:1.0;" x1="36" x2="249" y1="210.7344" y2="210.7344"/><text fill="#000000" font-family="sans-serif" font-size="13" lengthAdjust="spacing" textLength="96" x="43" y="205.9795">selects a course</text><polygon fill="#181818" points="574,235.2578,584,239.2578,574,243.2578,578,239.2578" style="stroke:#181818;stroke-width:1.0;"/><line style="stroke:#181818;stroke-width:1.0;" x1="265" x2="580" y1="239.2578" y2="239.2578"/><text fill="#000000" font-family="sans-serif" font-size="13" lengthAdjust="spacing" textLength="99" x="272" y="234.5029">toggleOpenClose</text><polygon fill="#181818" points="718.5,263.7813,728.5,267.7813,718.5,271.7813,722.5,267.7813" style="stroke:#181818;stroke-width:1.0;"/><line style="stroke:#181818;stroke-width:1.0;" x1="596" x2="724.5" y1="267.7813" y2="267.7813"/><text fill="#000000" font-family="sans-serif" font-size="13" lengthAdjust="spacing" textLength="99" x="603" y="263.0264">toggleOpenClose</text><path d="M687.5,282.7813 L748.5,282.7813 L748.5,289.3047 L738.5,299.3047 L687.5,299.3047 L687.5,282.7813 " fill="#EEEEEE" style="stroke:#000000;stroke-width:1.5;"/><rect fill="none" height="245.3828" style="stroke:#000000;stroke-width:1.5;" width="162" x="687.5" y="282.7813"/><text fill="#000000" font-family="sans-serif" font-size="13" font-weight="bold" lengthAdjust="spacing" textLength="16" x="702.5" y="295.5498">alt</text><text fill="#000000" font-family="sans-serif" font-size="11" font-weight="bold" lengthAdjust="spacing" textLength="81" x="763.5" y="294.7393">[Open Course]</text><line style="stroke:#181818;stroke-width:1.0;" x1="745.5" x2="787.5" y1="319.8281" y2="319.8281"/><line style="stroke:#181818;stroke-width:1.0;" x1="787.5" x2="787.5" y1="319.8281" y2="332.8281"/><line style="stroke:#181818;stroke-width:1.0;" x1="746.5" x2="787.5" y1="332.8281" y2="332.8281"/><polygon fill="#181818" points="756.5,328.8281,746.5,332.8281,756.5,336.8281,752.5,332.8281" style="stroke:#181818;stroke-width:1.0;"/><text fill="#000000" font-family="sans-serif" font-size="13" lengthAdjust="spacing" textLength="49" x="752.5" y="315.0732">setState</text><line style="stroke:#000000;stroke-width:1.0;stroke-dasharray:2.0,2.0;" x1="687.5" x2="849.5" y1="371.8281" y2="371.8281"/><text fill="#000000" font-family="sans-serif" font-size="11" font-weight="bold" lengthAdjust="spacing" textLength="84" x="692.5" y="381.7861">[Close Course]</text><line style="stroke:#181818;stroke-width:1.0;" x1="745.5" x2="787.5" y1="405.6406" y2="405.6406"/><line style="stroke:#181818;stroke-width:1.0;" x1="787.5" x2="787.5" y1="405.6406" y2="418.6406"/><line style="stroke:#181818;stroke-width:1.0;" x1="746.5" x2="787.5" y1="418.6406" y2="418.6406"/><polygon fill="#181818" points="756.5,414.6406,746.5,418.6406,756.5,422.6406,752.5,418.6406" style="stroke:#181818;stroke-width:1.0;"/><text fill="#000000" font-family="sans-serif" font-size="13" lengthAdjust="spacing" textLength="77" x="752.5" y="400.8857">checkActivity</text><line style="stroke:#181818;stroke-width:1.0;" x1="745.5" x2="787.5" y1="477.1641" y2="477.1641"/><line style="stroke:#181818;stroke-width:1.0;" x1="787.5" x2="787.5" y1="477.1641" y2="490.1641"/><line style="stroke:#181818;stroke-width:1.0;" x1="746.5" x2="787.5" y1="490.1641" y2="490.1641"/><polygon fill="#181818" points="756.5,486.1641,746.5,490.1641,756.5,494.1641,752.5,490.1641" style="stroke:#181818;stroke-width:1.0;"/><text fill="#000000" font-family="sans-serif" font-size="13" lengthAdjust="spacing" textLength="49" x="752.5" y="472.4092">setState</text><polygon fill="#181818" points="607,537.1641,597,541.1641,607,545.1641,603,541.1641" style="stroke:#181818;stroke-width:1.0;"/><line style="stroke:#181818;stroke-width:1.0;stroke-dasharray:2.0,2.0;" x1="601" x2="734.5" y1="541.1641" y2="541.1641"/><polygon fill="#181818" points="276,551.1641,266,555.1641,276,559.1641,272,555.1641" style="stroke:#181818;stroke-width:1.0;"/><line style="stroke:#181818;stroke-width:1.0;stroke-dasharray:2.0,2.0;" x1="270" x2="590" y1="555.1641" y2="555.1641"/><polygon fill="#181818" points="47,579.6875,37,583.6875,47,587.6875,43,583.6875" style="stroke:#181818;stroke-width:1.0;"/><line style="stroke:#181818;stroke-width:1.0;stroke-dasharray:2.0,2.0;" x1="41" x2="259" y1="583.6875" y2="583.6875"/><text fill="#000000" font-family="sans-serif" font-size="13" lengthAdjust="spacing" textLength="152" x="53" y="578.9326">informs operation success</text><!--SRC=[fPF1RiCW38RlF8LVeDezGf6Yd7QOTgYcdH7nKbGA4JYRzlQ3a3PPGzYctHBR_-SVOnf9ri6JCA971y934mDi48wKL8Cm1Cy3cbPRZwqTdSUNnrYs3N8-EFHeI92ofgw_COweKLAgVLLTZnGXcMYHSjUqjOQSrJePtqzoBeP1Avb3fkAedxyux-n5g5Z7fbd0eSwSjWgICv056r8FCkP0Jaac9AbtGRXLiIqdm3DJgC2lWWjnMyeowaFECUkmXCau2vGqWE3cP3yy2DDTJvtiWRYUUGNVTYwECP7yWlhh-FRllGfE-rxZhMANlOZOFYxqcdSa0zPfE-7-nkR_MRX6UAHZsF9jxMgMSmHrK4oD2ZnvGdbkebBHvo-W_xHakXkXT0aPQMd4FstkVX-7D3e3ohnPT_7nMRhflOCVfKJllm00]--></g></svg>